<svg width="80" height="69" viewBox="0 0 80 69" fill="none" xmlns="http://www.w3.org/2000/svg">
<path d="M1.32168 55.3638C4.03972 65.9813 71.9369 73.9713 77.5614 62.9516C82.6745 52.9239 78.8262 11.9822 74.4396 4.82339C68.4923 -4.93614 9.74492 1.9009 4.9278 9.59591C0.433612 16.7547 -1.504 44.3709 1.32168 55.3638Z" fill="url(#paint0_radial_50_988)"/>
<path d="M1.53679 53.4871C4.25483 63.7292 71.7483 69.467 77.3459 58.8226C82.4321 49.1436 78.6645 12.1432 74.3049 5.22569C68.3844 -4.15847 9.85237 2.43725 5.06216 9.83733C0.567981 16.7548 -1.26199 42.8696 1.53679 53.4871Z" fill="url(#paint1_linear_50_988)"/>
<path d="M2.37107 52.6023C5.03529 62.5495 71.1025 68.2604 76.5924 57.9379C81.571 48.5537 77.8303 12.4917 73.5783 5.78874C67.7655 -3.35412 10.4983 3.05392 5.7888 10.2395C1.40226 16.9425 -0.400793 42.2797 2.37107 52.6023Z" fill="url(#paint2_linear_50_988)"/>
<path d="M60.5238 52.1042C60.6421 52.1042 60.7605 52.0496 60.8366 51.9635C60.9127 51.8776 60.9466 51.7603 60.9127 51.6509L58.4096 41.2954C57.7331 37.9817 54.5451 36.95 53.3866 36.6843C53.6741 35.2306 53.5558 34.1833 53.0316 33.5815C52.7779 33.2845 52.4734 33.1517 52.2367 33.0971V31.1119L53.7757 29.1581C53.8264 29.0955 53.8517 29.0174 53.8517 28.9392V22.3977C53.8517 22.2883 53.801 22.1788 53.6995 22.1085L51.9998 20.8268C49.4207 13.0816 43.0109 12.4798 41.0997 12.4798C40.7869 12.4798 40.5924 12.4955 40.5839 12.4955H39.51C39.51 12.4955 31.1891 11.6592 28.1364 20.8268L26.5043 22.1085C26.4113 22.1788 26.3606 22.2804 26.3606 22.3899V28.9314C26.3606 29.0096 26.3859 29.0877 26.4367 29.1502L27.9757 31.1041V33.0814C27.722 33.1439 27.3838 33.2768 27.1047 33.5972C26.572 34.2069 26.4451 35.2464 26.7242 36.6687C25.5741 36.9345 22.4031 37.9583 21.735 41.2643L19.0967 51.651C19.0713 51.7604 19.0967 51.8776 19.1728 51.9715C19.2489 52.0575 19.3673 52.1122 19.4857 52.1122H33.2355C33.4553 52.1122 33.6414 51.948 33.6414 51.737V43.8825H46.5793V52.1042H60.5238ZM31.2144 29.6894V21.8349C31.2144 21.7411 31.2567 21.6473 31.3244 21.577C34.3517 18.6852 39.2986 18.5446 40.2626 18.5446H41.2011C42.089 18.5446 46.6639 18.6931 49.6996 21.577C49.7757 21.6473 49.8096 21.7411 49.8096 21.8349V25.4613C49.5644 25.7348 49.2937 25.9927 48.9978 26.235C48.7272 26.4616 48.4396 26.6727 48.1268 26.8759C46.6977 27.7668 44.9725 28.2592 43.1714 28.3217C42.9177 27.3057 41.9367 26.5398 40.7613 26.5398C39.3999 26.5398 38.2837 27.5636 38.2837 28.8297C38.2837 30.0958 39.3914 31.1197 40.7613 31.1197C41.7423 31.1197 42.5794 30.5882 42.9853 29.8223C45.1671 29.791 47.2642 29.2127 48.9978 28.1342C49.0062 28.1263 49.0231 28.1185 49.0315 28.1107C49.3021 27.9388 49.5558 27.759 49.8011 27.5714V29.6816C49.8011 29.7051 49.8011 29.7363 49.7926 29.7598C49.7418 29.9786 49.0653 31.9247 41.7423 31.9247H40.8036C33.5059 31.9247 31.4003 30.0255 31.3157 29.9473C31.2567 29.8771 31.2144 29.7833 31.2144 29.6894Z" fill="#0029FE"/>
<path d="M36.7786 19.7013C36.6518 19.6779 36.508 19.6701 36.3727 19.7092C33.3285 20.6157 32.3307 21.6083 32.2207 21.7177C32.1531 21.7881 32.1023 21.8662 32.0685 21.9444C32.0347 22.0303 32.0178 22.1163 32.0178 22.2101V25.1956C32.0178 25.6098 32.3814 25.9459 32.8296 25.9459C33.2777 25.9459 33.6414 25.6098 33.6414 25.1956V22.5462C34.0304 22.2726 34.9859 21.6943 36.8716 21.1316C37.2945 21.0065 37.5312 20.5845 37.3959 20.1937C37.2944 19.9279 37.0492 19.7482 36.7786 19.7013Z" fill="#0029FE"/>
<path style="mix-blend-mode:screen" d="M75.2736 58.0987C75.2736 58.0987 43.5183 62.9517 5.73486 54.2378C5.73486 54.2378 30.278 58.206 41.177 54.2378C59.7189 47.4812 70.4027 50.511 75.2736 58.0987Z" fill="url(#paint3_linear_50_988)"/>
<path style="mix-blend-mode:screen" d="M23.3886 18.8729C24.4381 18.8193 25.3531 19.6237 25.4069 20.6693C25.4608 21.715 24.6534 22.6266 23.6039 22.6802C22.5544 22.7339 21.6394 21.9295 21.5855 20.8838C21.5317 19.8382 22.3391 18.9266 23.3886 18.8729Z" fill="url(#paint4_radial_50_988)"/>
<path d="M23.6309 20.2403C23.9269 20.2403 24.1691 20.4548 24.196 20.7498C24.2229 21.0447 23.9807 21.286 23.7116 21.3128C23.4425 21.3396 23.1734 21.0983 23.1465 20.8034C23.1465 20.5085 23.3618 20.2672 23.6578 20.2403H23.6309Z" fill="#FFFFAB"/>
<path style="mix-blend-mode:screen" d="M25.9992 10.6685C27.0487 10.6149 27.9637 11.4192 28.0175 12.4649C28.0714 13.5106 27.264 14.4222 26.2145 14.4758C25.165 14.5294 24.25 13.7251 24.1961 12.6794C24.1423 11.6337 24.9497 10.7221 25.9992 10.6685Z" fill="url(#paint5_radial_50_988)"/>
<path d="M26.2144 12.0359C26.5104 12.0359 26.7526 12.2504 26.7795 12.5185C26.7795 12.8135 26.5642 13.0548 26.2951 13.0816C26.026 13.1084 25.7569 12.8671 25.73 12.599C25.73 12.304 25.9453 12.0627 26.2413 12.0359H26.2144Z" fill="#FFFFAB"/>
<path style="mix-blend-mode:screen" d="M24.465 34.1825C25.5146 34.1289 26.4295 34.9333 26.4834 35.9789C26.5372 37.0246 25.7299 37.9362 24.6803 37.9898C23.6308 38.0434 22.7158 37.2391 22.662 36.1934C22.6081 35.1478 23.4155 34.2361 24.465 34.1825Z" fill="url(#paint6_radial_50_988)"/>
<path d="M24.6805 35.5499C24.9765 35.5499 25.2187 35.7644 25.2456 36.0594C25.2726 36.3543 25.0304 36.5956 24.7343 36.6224C24.4383 36.6224 24.1961 36.4079 24.1692 36.113C24.1692 35.8181 24.3845 35.5767 24.6536 35.5499H24.6805Z" fill="#FFFFAB"/>
<path style="mix-blend-mode:screen" d="M15.4499 6.48585C18.4101 6.29816 20.9398 8.55036 21.1282 11.4997C21.3165 14.449 19.056 16.9693 16.0957 17.157C13.1355 17.3447 10.6058 15.0925 10.4175 12.1432C10.2291 9.19385 12.4896 6.67353 15.4499 6.48585Z" fill="url(#paint7_radial_50_988)"/>
<path d="M16.0958 10.3199C16.9031 10.2663 17.6297 10.883 17.6566 11.7142C17.7104 12.5185 17.0915 13.2424 16.2572 13.2693C15.4499 13.3229 14.7233 12.7062 14.6964 11.875C14.6426 11.0707 15.2615 10.3468 16.0958 10.3199Z" fill="#FFFFAB"/>
<path style="mix-blend-mode:screen" d="M30.7355 47.2667C32.1349 47.1863 33.3729 48.2588 33.4536 49.653C33.5343 51.0472 32.4579 52.2806 31.0585 52.361C29.6591 52.4414 28.4212 51.3689 28.3404 49.9747C28.2597 48.5805 29.3362 47.3472 30.7355 47.2667Z" fill="url(#paint8_radial_50_988)"/>
<path d="M31.0585 49.0899C31.4622 49.0899 31.7851 49.3581 31.812 49.7602C31.839 50.1624 31.5429 50.4842 31.1393 50.511C30.7356 50.511 30.4127 50.2428 30.3857 49.8407C30.3857 49.4385 30.6549 49.1167 31.0585 49.0899Z" fill="#FFFFAB"/>
<path style="mix-blend-mode:screen" d="M7.99547 53.9965C8.69516 53.9429 9.31412 54.4791 9.34103 55.203C9.36794 55.927 8.85663 56.5168 8.13003 56.5436C7.40342 56.5705 6.81137 56.061 6.78446 55.3371C6.75755 54.6132 7.26886 54.0233 7.99547 53.9965Z" fill="url(#paint9_radial_50_988)"/>
<path d="M8.15692 54.9081C8.3453 54.9081 8.50677 55.0422 8.53368 55.2299C8.53368 55.4175 8.39912 55.6052 8.21074 55.6052C8.02236 55.6052 7.83398 55.4712 7.83398 55.2835C7.83398 55.0958 7.96854 54.9081 8.15692 54.9081Z" fill="#FFFFAB"/>
<path style="mix-blend-mode:screen" d="M43.9757 32.0912C44.6754 32.0376 45.2944 32.5738 45.3213 33.2977C45.3751 33.9948 44.8369 34.6115 44.1103 34.6383C43.3837 34.6651 42.7916 34.1557 42.7647 33.4318C42.7109 32.7347 43.2491 32.118 43.9757 32.0912Z" fill="url(#paint10_radial_50_988)"/>
<path d="M44.1374 33.0028C44.3258 33.0028 44.4872 33.1369 44.5141 33.3246C44.5141 33.5122 44.3796 33.6731 44.1912 33.6999C44.0028 33.6999 43.8414 33.5659 43.8145 33.3782C43.8145 33.1905 43.949 33.0028 44.1374 33.0028Z" fill="#FFFFAB"/>
<path style="mix-blend-mode:screen" d="M26.2144 52.1197C26.7526 52.0929 27.1832 52.4951 27.237 53.0045C27.2639 53.5407 26.8603 53.9697 26.349 54.0233C25.8107 54.0501 25.3802 53.648 25.3263 53.1385C25.2725 52.6291 25.7031 52.1733 26.2144 52.1197Z" fill="url(#paint11_radial_50_988)"/>
<path d="M26.322 52.79C26.4566 52.79 26.5911 52.8972 26.5911 53.0313C26.5911 53.1653 26.4835 53.2994 26.3489 53.2994C26.2144 53.2994 26.0798 53.1922 26.0798 53.0581C26.0798 52.924 26.1875 52.79 26.322 52.79Z" fill="#FFFFAB"/>
<path style="mix-blend-mode:screen" d="M41.0425 51.3421C42.1459 51.2885 43.0878 52.1197 43.1685 53.219C43.2223 54.3183 42.3881 55.2567 41.2847 55.3371C40.1813 55.4175 39.2394 54.5596 39.1587 53.4603C39.1049 52.361 39.9391 51.4226 41.0425 51.3421Z" fill="url(#paint12_radial_50_988)"/>
<path d="M41.2848 52.7632C41.5808 52.7632 41.8499 52.9777 41.8768 53.2726C41.8768 53.5675 41.6615 53.8356 41.3655 53.8625C41.0695 53.8625 40.8003 53.648 40.7734 53.353C40.7734 53.0581 40.9887 52.79 41.2848 52.7632Z" fill="#FFFFAB"/>
<path d="M73.5245 60.0292C73.1746 58.9031 76.2156 53.7016 76.9691 53.7284C77.7227 53.7284 77.0499 57.1335 76.5924 57.9379C76.1349 58.7422 73.686 60.5922 73.5245 60.0292Z" fill="white"/>
<path style="mix-blend-mode:screen" d="M6.73071 10.0518C6.73071 10.0518 50.4616 -6.7056 73.7129 5.9228C73.7129 5.9228 75.7582 10.7221 76.7001 18.2563C76.7001 18.2563 69.3533 26.7824 55.4401 27.7477C43.4646 28.552 31.812 13.3229 21.6934 11.446C11.6017 9.56921 6.73071 10.0518 6.73071 10.0518Z" fill="url(#paint13_linear_50_988)"/>
<path d="M5.84261 13.0816C5.00836 13.2156 2.90928 19.7041 3.01693 20.7766C3.15149 21.8491 5.68115 18.4708 6.0579 16.6744C6.43466 14.878 5.8157 13.0816 5.8157 13.0816H5.84261Z" fill="white"/>
<path d="M6.19267 12.0359C5.17004 11.6337 6.9731 8.8721 8.53395 8.175C10.0948 7.47789 13.9162 6.70034 14.3468 7.39745C14.7774 8.12137 7.34986 12.4649 6.19267 12.0359Z" fill="white"/>
<defs>
<radialGradient id="paint0_radial_50_988" cx="0" cy="0" r="1" gradientUnits="userSpaceOnUse" gradientTransform="translate(40.5112 80.7724) scale(38.6955 48.7362)">
<stop stop-color="#008CCA"/>
<stop offset="1" stop-color="#003BF1"/>
</radialGradient>
<linearGradient id="paint1_linear_50_988" x1="40.0199" y1="64.5336" x2="40.0199" y2="0.587231" gradientUnits="userSpaceOnUse">
<stop stop-color="#92FFF1"/>
<stop offset="1" stop-color="#0098FF"/>
</linearGradient>
<linearGradient id="paint2_linear_50_988" x1="40.02" y1="63.4075" x2="40.02" y2="1.25753" gradientUnits="userSpaceOnUse">
<stop stop-color="#00EFF1"/>
<stop offset="1" stop-color="#0098FF"/>
</linearGradient>
<linearGradient id="paint3_linear_50_988" x1="75.2736" y1="54.9886" x2="5.73486" y2="54.9886" gradientUnits="userSpaceOnUse">
<stop stop-color="#40FF79"/>
<stop offset="0.1" stop-color="#3BEE71"/>
<stop offset="0.29" stop-color="#31C45D"/>
<stop offset="0.56" stop-color="#20803D"/>
<stop offset="0.88" stop-color="#092411"/>
<stop offset="1"/>
</linearGradient>
<radialGradient id="paint4_radial_50_988" cx="0" cy="0" r="1" gradientUnits="userSpaceOnUse" gradientTransform="translate(23.466 20.7514) rotate(-93.4326) scale(1.90367 1.91067)">
<stop stop-color="#00B359"/>
<stop offset="0.13" stop-color="#009148"/>
<stop offset="0.34" stop-color="#005D2E"/>
<stop offset="0.54" stop-color="#00351A"/>
<stop offset="0.73" stop-color="#00170B"/>
<stop offset="0.89" stop-color="#000603"/>
<stop offset="1"/>
</radialGradient>
<radialGradient id="paint5_radial_50_988" cx="0" cy="0" r="1" gradientUnits="userSpaceOnUse" gradientTransform="translate(26.0755 12.565) rotate(-93.4326) scale(1.90367 1.91068)">
<stop stop-color="#00B359"/>
<stop offset="0.13" stop-color="#009148"/>
<stop offset="0.34" stop-color="#005D2E"/>
<stop offset="0.54" stop-color="#00351A"/>
<stop offset="0.73" stop-color="#00170B"/>
<stop offset="0.89" stop-color="#000603"/>
<stop offset="1"/>
</radialGradient>
<radialGradient id="paint6_radial_50_988" cx="0" cy="0" r="1" gradientUnits="userSpaceOnUse" gradientTransform="translate(24.5202 36.0793) rotate(-93.4326) scale(1.90367 1.91068)">
<stop stop-color="#00B359"/>
<stop offset="0.13" stop-color="#009148"/>
<stop offset="0.34" stop-color="#005D2E"/>
<stop offset="0.54" stop-color="#00351A"/>
<stop offset="0.73" stop-color="#00170B"/>
<stop offset="0.89" stop-color="#000603"/>
<stop offset="1"/>
</radialGradient>
<radialGradient id="paint7_radial_50_988" cx="0" cy="0" r="1" gradientUnits="userSpaceOnUse" gradientTransform="translate(15.7033 11.7858) rotate(-93.4326) scale(5.33564 5.35527)">
<stop stop-color="#00B359"/>
<stop offset="0.13" stop-color="#009148"/>
<stop offset="0.34" stop-color="#005D2E"/>
<stop offset="0.54" stop-color="#00351A"/>
<stop offset="0.73" stop-color="#00170B"/>
<stop offset="0.89" stop-color="#000603"/>
<stop offset="1"/>
</radialGradient>
<radialGradient id="paint8_radial_50_988" cx="0" cy="0" r="1" gradientUnits="userSpaceOnUse" gradientTransform="translate(30.8418 49.7774) rotate(-93.4326) scale(2.54717 2.55654)">
<stop stop-color="#00B359"/>
<stop offset="0.13" stop-color="#009148"/>
<stop offset="0.34" stop-color="#005D2E"/>
<stop offset="0.54" stop-color="#00351A"/>
<stop offset="0.73" stop-color="#00170B"/>
<stop offset="0.89" stop-color="#000603"/>
<stop offset="1"/>
</radialGradient>
<radialGradient id="paint9_radial_50_988" cx="0" cy="0" r="1" gradientUnits="userSpaceOnUse" gradientTransform="translate(8.03857 55.2446) rotate(-93.4326) scale(1.28699 1.29172)">
<stop stop-color="#00B359"/>
<stop offset="0.13" stop-color="#009148"/>
<stop offset="0.34" stop-color="#005D2E"/>
<stop offset="0.54" stop-color="#00351A"/>
<stop offset="0.73" stop-color="#00170B"/>
<stop offset="0.89" stop-color="#000603"/>
<stop offset="1"/>
</radialGradient>
<radialGradient id="paint10_radial_50_988" cx="0" cy="0" r="1" gradientUnits="userSpaceOnUse" gradientTransform="translate(44.0105 33.3609) rotate(-93.4326) scale(1.28699 1.29172)">
<stop stop-color="#00B359"/>
<stop offset="0.13" stop-color="#009148"/>
<stop offset="0.34" stop-color="#005D2E"/>
<stop offset="0.54" stop-color="#00351A"/>
<stop offset="0.73" stop-color="#00170B"/>
<stop offset="0.89" stop-color="#000603"/>
<stop offset="1"/>
</radialGradient>
<radialGradient id="paint11_radial_50_988" cx="0" cy="0" r="1" gradientUnits="userSpaceOnUse" gradientTransform="translate(26.2398 53.0597) rotate(-93.4327) scale(0.938427 0.941883)">
<stop stop-color="#00B359"/>
<stop offset="0.13" stop-color="#009148"/>
<stop offset="0.34" stop-color="#005D2E"/>
<stop offset="0.54" stop-color="#00351A"/>
<stop offset="0.73" stop-color="#00170B"/>
<stop offset="0.89" stop-color="#000603"/>
<stop offset="1"/>
</radialGradient>
<radialGradient id="paint12_radial_50_988" cx="0" cy="0" r="1" gradientUnits="userSpaceOnUse" gradientTransform="translate(41.1358 53.3009) rotate(-93.4327) scale(1.98411 1.99141)">
<stop stop-color="#00B359"/>
<stop offset="0.13" stop-color="#009148"/>
<stop offset="0.34" stop-color="#005D2E"/>
<stop offset="0.54" stop-color="#00351A"/>
<stop offset="0.73" stop-color="#00170B"/>
<stop offset="0.89" stop-color="#000603"/>
<stop offset="1"/>
</radialGradient>
<linearGradient id="paint13_linear_50_988" x1="6.73071" y1="14.5026" x2="76.7001" y2="14.5026" gradientUnits="userSpaceOnUse">
<stop stop-color="#7ED140"/>
<stop offset="0.11" stop-color="#74C03B"/>
<stop offset="0.34" stop-color="#5A962E"/>
<stop offset="0.65" stop-color="#315219"/>
<stop offset="1"/>
</linearGradient>
</defs>
</svg>
