<svg width="71" height="66" viewBox="0 0 71 66" fill="none" xmlns="http://www.w3.org/2000/svg">
<g style="mix-blend-mode:multiply">
<path d="M64.7882 57.7452C64.6652 57.8777 64.5217 58.0103 64.3577 58.1326C52.2238 67.9924 18.794 67.6457 4.14919 58.7852C3.38057 58.3264 2.86816 57.8369 2.6222 57.3271C-2.57367 46.5701 0.244602 14.1972 8.49446 7.19238C17.349 -0.312025 51.3937 -3.70736 62.3286 5.83629C70.353 12.8309 74.1756 47.9364 64.7882 57.7452Z" fill="#CED6FF"/>
</g>
<path d="M62.8026 56.5434C62.687 56.6686 62.5522 56.7938 62.3982 56.9093C50.997 66.2209 19.5862 65.8935 5.82585 57.5256C5.10365 57.0923 4.62218 56.6301 4.39108 56.1486C-0.490991 45.9897 2.15708 15.4165 9.90869 8.80118C18.2284 1.71399 50.2171 -1.49258 60.4916 7.52048C68.0313 14.1262 71.6231 47.28 62.8026 56.5434Z" fill="url(#paint0_linear_107_2441)"/>
<path d="M4.38962 54.1392C9.09836 63.9418 53.1044 64.7218 62.8011 54.534C71.6216 45.2705 68.0299 12.1168 60.4901 5.51103C50.2156 -3.50202 18.227 -0.295457 9.90722 6.80136C2.15561 13.4071 -0.492456 43.9802 4.38962 54.1392Z" fill="url(#paint1_radial_107_2441)"/>
<g style="mix-blend-mode:multiply" filter="url(#filter0_f_107_2441)">
<path d="M52.082 33.9796V51.1901H17.7954V33.9796H52.082ZM55 31.1697H14.8774V54H55V31.1697Z" fill="#CED6FF"/>
<path d="M44.0575 31.1697L48.1646 35.1246C48.1336 35.2704 48.0734 35.4056 48.0734 35.5601C48.0734 36.8193 49.133 37.8379 50.4406 37.8379C50.6011 37.8379 50.7397 37.7799 50.8911 37.7518L55 41.7068V31.1697H44.0575Z" fill="#CED6FF"/>
<path d="M46.7931 44.8644C48.1005 44.8644 49.1603 43.8438 49.1603 42.5848C49.1603 41.3259 48.1005 40.3053 46.7931 40.3053C45.4857 40.3053 44.4259 41.3259 44.4259 42.5848C44.4259 43.8438 45.4857 44.8644 46.7931 44.8644Z" fill="#CED6FF"/>
<path d="M34.9387 48.5804C38.8931 48.5804 42.0988 45.8961 42.0988 42.5848C42.0988 39.2736 38.8931 36.5893 34.9387 36.5893C30.9843 36.5893 27.7786 39.2736 27.7786 42.5848C27.7786 45.8961 30.9843 48.5804 34.9387 48.5804Z" fill="#CED6FF"/>
<path d="M23.0843 44.8626C24.3907 44.8626 25.4497 43.8428 25.4497 42.5848C25.4497 41.3269 24.3907 40.3071 23.0843 40.3071C21.7779 40.3071 20.7189 41.3269 20.7189 42.5848C20.7189 43.8428 21.7779 44.8626 23.0843 44.8626Z" fill="#CED6FF"/>
<path d="M14.8774 41.7068L18.9845 37.7518C19.1358 37.7817 19.2763 37.8397 19.4368 37.8397C20.7444 37.8397 21.8022 36.8193 21.8022 35.5601C21.8022 35.4056 21.742 35.2721 21.711 35.1264L25.8199 31.1697H14.8774V41.7068Z" fill="#CED6FF"/>
<path d="M21.804 49.6096C21.804 48.3504 20.7444 47.3318 19.4368 47.3318C19.2763 47.3318 19.1377 47.3897 18.9863 47.4178L14.8774 43.4629V54H25.8199L21.7128 50.0451C21.7438 49.8993 21.804 49.7623 21.804 49.6096Z" fill="#CED6FF"/>
<path d="M50.4406 47.33C49.133 47.33 48.0752 48.3504 48.0752 49.6096C48.0752 49.7641 48.1354 49.8976 48.1664 50.0433L44.0575 54H55V43.4629L50.8929 47.4178C50.7415 47.388 50.6011 47.33 50.4406 47.33Z" fill="#CED6FF"/>
<path d="M41.6902 27.0848C42.9966 27.0848 44.0556 26.065 44.0556 24.8071C44.0556 23.5491 42.9966 22.5293 41.6902 22.5293C40.3839 22.5293 39.3248 23.5491 39.3248 24.8071C39.3248 26.065 40.3839 27.0848 41.6902 27.0848Z" fill="#CED6FF"/>
<path d="M12.1417 31.1697C12.1417 29.7156 13.3673 28.5354 14.8774 28.5354H16.3729L16.4403 28.3106L37.554 17.1765L39.168 17.6296C39.2136 17.7701 39.23 17.9176 39.3084 18.0528C39.9358 19.1592 41.3729 19.5614 42.5219 18.9572C42.6605 18.8835 42.7553 18.7693 42.8702 18.6727L44.4879 19.1293L48.1664 25.5956L47.694 27.1516C47.55 27.1937 47.3968 27.2095 47.2563 27.2833C46.722 27.5643 46.3663 28.0244 46.1785 28.5354H53.1653L43.193 11L33.5928 16.0613H33.5946L8 29.5575L12.1417 36.8404V31.1697Z" fill="#CED6FF"/>
<path d="M28.3002 25.0336C26.7117 25.8696 25.5682 27.1375 24.9263 28.5354H38.1175C38.0117 27.9998 37.8531 27.4747 37.5722 26.9812C35.918 24.0765 31.769 23.2054 28.3002 25.0336Z" fill="#CED6FF"/>
</g>
<path d="M54.082 30.9796V48.1901H19.7954V30.9796H54.082ZM57 28.1697H16.8774V51H57V28.1697Z" fill="#00FEEF"/>
<path d="M46.0575 28.1697L50.1646 32.1246C50.1336 32.2704 50.0734 32.4056 50.0734 32.5601C50.0734 33.8193 51.133 34.8379 52.4406 34.8379C52.6011 34.8379 52.7397 34.7799 52.8911 34.7518L57 38.7068V28.1697H46.0575Z" fill="#00FEEF"/>
<path d="M48.7931 41.8644C50.1005 41.8644 51.1603 40.8438 51.1603 39.5848C51.1603 38.3259 50.1005 37.3053 48.7931 37.3053C47.4857 37.3053 46.4259 38.3259 46.4259 39.5848C46.4259 40.8438 47.4857 41.8644 48.7931 41.8644Z" fill="#00FEEF"/>
<path d="M36.9387 45.5804C40.8931 45.5804 44.0988 42.8961 44.0988 39.5848C44.0988 36.2736 40.8931 33.5893 36.9387 33.5893C32.9843 33.5893 29.7786 36.2736 29.7786 39.5848C29.7786 42.8961 32.9843 45.5804 36.9387 45.5804Z" fill="#00FEEF"/>
<path d="M25.0843 41.8626C26.3907 41.8626 27.4497 40.8428 27.4497 39.5848C27.4497 38.3269 26.3907 37.3071 25.0843 37.3071C23.7779 37.3071 22.7189 38.3269 22.7189 39.5848C22.7189 40.8428 23.7779 41.8626 25.0843 41.8626Z" fill="#00FEEF"/>
<path d="M16.8774 38.7068L20.9845 34.7518C21.1358 34.7817 21.2763 34.8397 21.4368 34.8397C22.7444 34.8397 23.8022 33.8193 23.8022 32.5601C23.8022 32.4056 23.742 32.2721 23.711 32.1264L27.8199 28.1697H16.8774V38.7068Z" fill="#00FEEF"/>
<path d="M23.804 46.6096C23.804 45.3504 22.7444 44.3318 21.4368 44.3318C21.2763 44.3318 21.1377 44.3897 20.9863 44.4178L16.8774 40.4629V51H27.8199L23.7128 47.0451C23.7438 46.8993 23.804 46.7623 23.804 46.6096Z" fill="#00FEEF"/>
<path d="M52.4406 44.33C51.133 44.33 50.0752 45.3504 50.0752 46.6096C50.0752 46.7641 50.1354 46.8976 50.1664 47.0433L46.0575 51H57V40.4629L52.8929 44.4178C52.7415 44.388 52.6011 44.33 52.4406 44.33Z" fill="#00FEEF"/>
<path d="M43.6902 24.0848C44.9966 24.0848 46.0556 23.065 46.0556 21.8071C46.0556 20.5491 44.9966 19.5293 43.6902 19.5293C42.3839 19.5293 41.3248 20.5491 41.3248 21.8071C41.3248 23.065 42.3839 24.0848 43.6902 24.0848Z" fill="#00FEEF"/>
<path d="M14.1417 28.1697C14.1417 26.7156 15.3673 25.5354 16.8774 25.5354H18.3729L18.4403 25.3106L39.554 14.1765L41.168 14.6296C41.2136 14.7701 41.23 14.9176 41.3084 15.0528C41.9358 16.1592 43.3729 16.5614 44.5219 15.9572C44.6605 15.8835 44.7553 15.7693 44.8702 15.6727L46.4879 16.1293L50.1664 22.5956L49.694 24.1516C49.55 24.1937 49.3968 24.2095 49.2563 24.2833C48.722 24.5643 48.3663 25.0244 48.1785 25.5354H55.1653L45.193 8L35.5928 13.0613H35.5946L10 26.5575L14.1417 33.8404V28.1697Z" fill="#00FEEF"/>
<path d="M30.3002 22.0336C28.7117 22.8696 27.5682 24.1375 26.9263 25.5354H40.1175C40.0117 24.9998 39.8531 24.4747 39.5722 23.9812C37.918 21.0765 33.769 20.2054 30.3002 22.0336Z" fill="#00FEEF"/>
<path style="mix-blend-mode:screen" d="M9.5 8.50001C9.5 8.50001 22.5 -4 57 4C57 4 68 14 65.0251 20.7287C65.0251 20.7287 66 23 62 25C60.993 17.767 48 9.70387 39 7.70346C30.5 7.70346 8 10.5 8 10.5L9.5 8.50001Z" fill="url(#paint2_linear_107_2441)"/>
<path d="M7 11.5377C7 11.5377 8.47329 8.51406 11.8821 6.89633C15.3005 5.27861 25.0165 3.65125 25.575 4.06531C26.1239 4.47937 20.8373 6.38598 18.1026 7.39706C15.3679 8.40814 8.39625 12.3176 7 11.5473V11.5377Z" fill="white"/>
<path style="mix-blend-mode:screen" d="M62.3114 54.1143C62.3114 54.1143 58.5002 58.1686 51.0002 59.5C47.2765 60.161 42.93 61.0465 42.5002 60.5C42.0796 59.9561 47.6061 55.4426 50.5105 55.1869C53.4149 54.9312 61.1697 52.9944 62.314 54.1051L62.3114 54.1143Z" fill="url(#paint3_linear_107_2441)"/>
<path d="M7.35415 13.0096C6.65121 13.1156 4.89867 18.5658 5.0046 19.4613C5.11052 20.3568 7.21934 17.5258 7.54674 16.014C7.87414 14.5118 7.35415 13 7.35415 13V13.0096Z" fill="white"/>
<path style="mix-blend-mode:screen" d="M63.4504 52.0184C64.1597 51.9703 66.3521 46.6817 66.3198 45.7805C66.2875 44.8793 63.9542 47.5284 63.5042 49.0083C63.055 50.4787 63.4496 52.028 63.4496 52.028L63.4504 52.0184Z" fill="url(#paint4_linear_107_2441)"/>
<path d="M60.0316 54.7213C59.6223 53.6892 63.3061 48.9776 64.246 49.0001C65.1859 49.0225 64.3521 52.0963 63.776 52.8142C63.2151 53.5322 60.2287 55.2373 60.0316 54.7213Z" fill="white"/>
<defs>
<filter id="filter0_f_107_2441" x="7" y="10" width="49" height="45" filterUnits="userSpaceOnUse" color-interpolation-filters="sRGB">
<feFlood flood-opacity="0" result="BackgroundImageFix"/>
<feBlend mode="normal" in="SourceGraphic" in2="BackgroundImageFix" result="shape"/>
<feGaussianBlur stdDeviation="0.5" result="effect1_foregroundBlur_107_2441"/>
</filter>
<linearGradient id="paint0_linear_107_2441" x1="38.1867" y1="63.8469" x2="38.1867" y2="2.00905" gradientUnits="userSpaceOnUse">
<stop stop-color="#008EC2"/>
<stop offset="1" stop-color="#002092"/>
</linearGradient>
<radialGradient id="paint1_radial_107_2441" cx="0" cy="0" r="1" gradientUnits="userSpaceOnUse" gradientTransform="translate(38.2044 55.9585) rotate(-3.94662) scale(33.5105 282.839)">
<stop stop-color="#00D3C2"/>
<stop offset="1" stop-color="#0083C2"/>
</radialGradient>
<linearGradient id="paint2_linear_107_2441" x1="11.6763" y1="13.8808" x2="57.9957" y2="13.8808" gradientUnits="userSpaceOnUse">
<stop stop-color="#7ED140"/>
<stop offset="0.11" stop-color="#74C03B"/>
<stop offset="0.34" stop-color="#5A962E"/>
<stop offset="0.65" stop-color="#315219"/>
<stop offset="1"/>
</linearGradient>
<linearGradient id="paint3_linear_107_2441" x1="59.6276" y1="56.9107" x2="45.5878" y2="53.0805" gradientUnits="userSpaceOnUse">
<stop stop-color="#7ED140"/>
<stop offset="0.11" stop-color="#74C03B"/>
<stop offset="0.34" stop-color="#5A962E"/>
<stop offset="0.65" stop-color="#315219"/>
<stop offset="1"/>
</linearGradient>
<linearGradient id="paint4_linear_107_2441" x1="65.8257" y1="48.6257" x2="63.757" y2="48.4559" gradientUnits="userSpaceOnUse">
<stop stop-color="#7ED140"/>
<stop offset="0.11" stop-color="#74C03B"/>
<stop offset="0.34" stop-color="#5A962E"/>
<stop offset="0.65" stop-color="#315219"/>
<stop offset="1"/>
</linearGradient>
</defs>
</svg>
