<svg width="710" height="830" viewBox="0 0 710 830" fill="none" xmlns="http://www.w3.org/2000/svg">
<path d="M25.4503 27.6117C-6.39991 44.9296 -6.60023 799.203 15.114 818.23C30.1377 831.408 661.213 835.614 688.175 819.84C714.497 804.494 717.501 25.2785 694.505 9.80084C666.902 -8.7658 63.35 6.97477 25.4503 27.6117Z" fill="url(#paint0_linear_288_4712)"/>
<path d="M25.4505 25.9032C-6.39967 43.1226 -6.59998 794.505 15.1142 813.4C30.1379 826.512 661.213 830.652 688.175 815.01C714.497 799.762 717.502 23.5701 694.505 8.19098C666.902 -10.2442 63.3503 5.39778 25.4505 25.9032Z" fill="url(#paint1_linear_288_4712)"/>
<path d="M30.8008 26.1145C-0.624533 43.4524 -9.68337 796.228 20.5796 819.177C36.6129 831.341 656.782 835.07 684.6 820.79C715.905 804.762 713.54 23.7624 690.853 8.27249C663.637 -10.3423 68.1585 5.45003 30.8008 26.1145Z" fill="url(#paint2_radial_288_4712)"/>
<path d="M40.4338 32.0808C40.4338 32.0808 86.8671 112.197 226.888 117.652C366.909 123.107 468.789 66.5852 546.071 46.0469C623.393 25.4757 679.241 12.6269 679.241 12.6269C679.241 12.6269 325.964 -9.7516 40.4338 32.0808Z" fill="url(#paint3_linear_288_4712)" style="mix-blend-mode:screen"/>
<path d="M28.2549 47.6242C28.2549 47.6242 27.0129 37.0757 32.8621 33.2967C38.7114 29.5176 73.9669 24.4241 75.8098 25.7386C77.6528 27.053 45.7625 49.3987 28.2549 47.6242Z" fill="white"/>
<path d="M28.1345 52.6521C23.6475 51.6334 22.726 64.7122 26.6923 65.238C30.6986 65.7638 32.6216 53.6708 28.1345 52.6521Z" fill="white"/>
<path d="M49.6885 802.752C49.6885 802.752 335.018 795.194 433.173 779.289C531.328 763.385 674.674 776.858 683.247 806.827C683.247 806.827 307.575 840.543 49.6484 802.752H49.6885Z" fill="url(#paint4_linear_288_4712)" style="mix-blend-mode:screen"/>
<path d="M660.594 809.522C660.914 813.334 680.786 807.912 684.191 804.691C687.637 801.438 690 788.852 688.198 787.538C686.355 786.223 660.273 805.644 660.594 809.522Z" fill="white"/>
<defs>
<linearGradient id="paint0_linear_288_4712" x1="355.01" y1="829.992" x2="355.01" y2="0.00722275" gradientUnits="userSpaceOnUse">
<stop stop-color="#004AC2"/>
<stop offset="1" stop-color="#0083C2"/>
</linearGradient>
<linearGradient id="paint1_linear_288_4712" x1="355.01" y1="830.007" x2="355.01" y2="0.0132584" gradientUnits="userSpaceOnUse">
<stop stop-color="#00EFF1"/>
<stop offset="1" stop-color="#0098FF"/>
</linearGradient>
<radialGradient id="paint2_radial_288_4712" cx="0" cy="0" r="1" gradientUnits="userSpaceOnUse" gradientTransform="translate(354.995 415.003) scale(338.325 437.676)">
<stop stop-color="#0025AE" stop-opacity="0.71"/>
<stop offset="1" stop-color="#008CCA" stop-opacity="0.38"/>
</radialGradient>
<linearGradient id="paint3_linear_288_4712" x1="0" y1="415.088" x2="710" y2="415.088" gradientUnits="userSpaceOnUse">
<stop stop-color="#23786E"/>
<stop offset="0.18" stop-color="#1E675F"/>
<stop offset="0.54" stop-color="#123D38"/>
<stop offset="1"/>
</linearGradient>
<linearGradient id="paint4_linear_288_4712" x1="0.0448941" y1="414.921" x2="710.045" y2="414.921" gradientUnits="userSpaceOnUse">
<stop/>
<stop offset="0.46" stop-color="#123D38"/>
<stop offset="0.82" stop-color="#1E675F"/>
<stop offset="1" stop-color="#23786E"/>
</linearGradient>
</defs>
</svg>
