<svg width="81" height="91" viewBox="0 0 81 91" fill="none" xmlns="http://www.w3.org/2000/svg">
<g style="mix-blend-mode:multiply">
<path d="M40.5 90.5132C62.8675 90.5132 81 87.8269 81 84.5132C81 81.1995 62.8675 78.5132 40.5 78.5132C18.1325 78.5132 0 81.1995 0 84.5132C0 87.8269 18.1325 90.5132 40.5 90.5132Z" fill="#6B54A1"/>
</g>
<path d="M59.0215 41.5481C59.0215 62.3295 53.7001 79.7944 39.1348 82.2894C37.9185 82.5024 30.7118 82.2894 29.4651 82.2894C13.1666 82.2286 0 63.9726 0 41.4568C0 18.9411 13.2578 0.71556 29.5564 0.745986C30.5902 0.745986 39.5301 0.62428 40.5336 0.745986C55.403 2.84543 59.0519 20.432 59.0215 41.5177V41.5481Z" fill="url(#paint0_radial_521_10435)"/>
<path d="M70.0001 41.5483C70.0001 64.064 56.7423 82.2896 40.4437 82.2591C24.1451 82.2287 10.9482 63.9727 10.9786 41.4874C11.009 18.9717 24.2364 0.715705 40.5349 0.746132C56.8335 0.776558 70.0305 19.0326 70.0001 41.5483Z" fill="url(#paint1_linear_521_10435)"/>
<path style="mix-blend-mode:screen" d="M15.082 20.5233L57.8962 74.4089L64.0994 65.9503L30.6508 3.08887C30.6508 3.08887 22.015 6.64879 15.082 20.5233Z" fill="url(#paint2_linear_521_10435)"/>
<path d="M61.3032 41.5487C61.3032 57.4315 51.968 70.3019 40.4434 70.2715C40.0177 70.2715 39.592 70.2715 39.1967 70.2107C28.2803 69.3283 19.6445 56.7925 19.6445 41.4879C19.6445 26.2137 28.3107 13.7692 39.1663 12.826C39.6224 12.7956 40.0481 12.7651 40.5043 12.7651C51.9984 12.7651 61.3032 25.666 61.2728 41.5487H61.3032Z" fill="url(#paint3_radial_521_10435)"/>
<path d="M58.6273 41.5484C58.6273 56.7618 50.0219 69.2367 39.1967 70.2103C28.2803 69.328 19.6445 56.7922 19.6445 41.4876C19.6445 26.2134 28.3107 13.7689 39.1663 12.8257C50.0219 13.7993 58.6273 26.2743 58.5969 41.5484H58.6273Z" fill="url(#paint4_linear_521_10435)"/>
<path d="M31.6406 37.5996L35.7541 32.1957L36.6259 31.0583L38.6861 28.3469L46.4787 36.9394L50.561 31.5369L38.2245 17.9727L27.1025 32.5807L31.6406 37.5996Z" fill="white"/>
<path d="M39.0215 35.7782L34.9279 41.1659L39.4838 46.1687L43.5775 40.7811L39.0215 35.7782Z" fill="white"/>
<path d="M46.8089 44.3617L39.8012 53.5846L36.5632 50.029L31.9709 45.0219L27.8951 50.3959L40.2706 63.9584L51.3536 49.3522L46.8089 44.3617Z" fill="white"/>
<path d="M24.1818 36.444L20.0881 41.8317L24.6441 46.8345L28.7377 41.4469L24.1818 36.444Z" fill="white"/>
<path d="M53.832 35.1277L49.7383 40.5154L54.2943 45.5182L58.3879 40.1305L53.832 35.1277Z" fill="white"/>
<path d="M66.1381 39.2353C67.6889 39.2961 68.9052 40.787 68.8444 42.6126C68.7836 44.4382 67.4761 45.8683 65.9253 45.8074C64.3745 45.7466 63.1582 44.2557 63.219 42.4301C63.2798 40.6045 64.5873 39.1744 66.1381 39.2353Z" fill="url(#paint5_radial_521_10435)"/>
<path d="M65.7109 39.691C67.0488 39.7214 68.0523 41.0298 68.0219 42.5815C67.9915 44.1333 66.8664 45.3503 65.5285 45.3199C64.1905 45.2895 63.1871 43.9811 63.2175 42.4294C63.2783 40.8776 64.373 39.6606 65.7109 39.691Z" fill="url(#paint6_linear_521_10435)"/>
<path d="M41.9623 4.91838C43.5131 4.97923 44.7295 6.47014 44.6686 8.29573C44.6078 10.1213 43.3003 11.5514 41.7495 11.4905C40.1987 11.4297 38.9824 9.93877 39.0432 8.11317C39.104 6.28758 40.4116 4.85752 41.9623 4.91838Z" fill="url(#paint7_radial_521_10435)"/>
<path d="M41.6875 5.30964C43.0254 5.34007 44.0289 6.64841 43.9985 8.20017C43.9681 9.75193 42.843 10.969 41.505 10.9386C40.1671 10.9081 39.1636 9.5998 39.194 8.04804C39.2548 6.49628 40.3495 5.27921 41.6875 5.30964Z" fill="url(#paint8_linear_521_10435)"/>
<path d="M42.0229 72.8569C43.5737 72.9177 44.79 74.4086 44.7292 76.2342C44.6684 78.0598 43.3608 79.4899 41.81 79.429C40.2592 79.3682 39.0429 77.8773 39.1037 76.0517C39.1646 74.2261 40.4721 72.796 42.0229 72.8569Z" fill="url(#paint9_radial_521_10435)"/>
<path d="M41.5957 73.3424C42.9336 73.3728 43.9371 74.6811 43.9067 76.2329C43.8458 77.7846 42.7512 79.0017 41.4132 78.9713C40.0753 78.9409 39.0718 77.6325 39.1022 76.0808C39.1326 74.529 40.2577 73.3119 41.5957 73.3424Z" fill="url(#paint10_linear_521_10435)"/>
<path d="M15.5698 39.1752C17.1206 39.2361 18.3369 40.727 18.2761 42.5526C18.2152 44.3782 16.9077 45.8082 15.3569 45.7474C13.8061 45.6865 12.5898 44.1956 12.6506 42.37C12.7114 40.5444 14.019 39.1144 15.5698 39.1752Z" fill="url(#paint11_radial_521_10435)"/>
<path d="M15.1425 39.6309C16.4805 39.6614 17.4839 40.9697 17.4535 42.5215C17.3927 44.0732 16.298 45.2903 14.9601 45.2599C13.6222 45.2294 12.6187 43.9211 12.6491 42.3693C12.6795 40.8176 13.8046 39.6005 15.1425 39.6309Z" fill="url(#paint12_linear_521_10435)"/>
<path style="mix-blend-mode:screen" d="M4.25586 20.5229L15.081 20.5229C15.081 20.5229 17.9698 11.334 29.5855 3.08838L18.8212 3.51435C18.8212 3.51435 7.35745 10.7863 4.25586 20.5229Z" fill="url(#paint13_linear_521_10435)"/>
<path d="M16.9073 17.0544C16.4815 17.9672 24.3572 13.677 26.0296 10.4823C27.702 7.28745 28.7663 5.09674 27.9757 4.64034C27.1851 4.18394 19.4919 11.3646 16.9073 17.0544Z" fill="white"/>
<path d="M57.1074 73.9528C54.249 74.7135 61.182 67.5328 61.9118 67.837C62.6416 68.1413 59.692 73.253 57.1074 73.9528Z" fill="white"/>
<defs>
<radialGradient id="paint0_radial_521_10435" cx="0" cy="0" r="1" gradientUnits="userSpaceOnUse" gradientTransform="translate(29.4736 41.5132) rotate(0.0700435) scale(35.6075 35.6296)">
<stop stop-color="#FFF500"/>
<stop offset="1" stop-color="#BD8820"/>
</radialGradient>
<linearGradient id="paint1_linear_521_10435" x1="40.4024" y1="82.268" x2="40.5021" y2="0.72462" gradientUnits="userSpaceOnUse">
<stop stop-color="#FFE600"/>
<stop offset="1" stop-color="#FFE600"/>
</linearGradient>
<linearGradient id="paint2_linear_521_10435" x1="15.0027" y1="38.6963" x2="64.0808" y2="38.7562" gradientUnits="userSpaceOnUse">
<stop stop-color="#FF9840"/>
<stop offset="0.1" stop-color="#EE8E3B"/>
<stop offset="0.29" stop-color="#C47531"/>
<stop offset="0.55" stop-color="#804C20"/>
<stop offset="0.88" stop-color="#241509"/>
<stop offset="1"/>
</linearGradient>
<radialGradient id="paint3_radial_521_10435" cx="0" cy="0" r="1" gradientUnits="userSpaceOnUse" gradientTransform="translate(40.4519 41.4968) rotate(0.0700435) scale(25.0864 25.102)">
<stop stop-color="#FFE600"/>
<stop offset="1" stop-color="#C1B11F"/>
</radialGradient>
<linearGradient id="paint4_linear_521_10435" x1="39.079" y1="70.1871" x2="39.1491" y2="12.8025" gradientUnits="userSpaceOnUse">
<stop stop-color="#FFE600"/>
<stop offset="1" stop-color="#FFB800"/>
</linearGradient>
<radialGradient id="paint5_radial_521_10435" cx="0" cy="0" r="1" gradientUnits="userSpaceOnUse" gradientTransform="translate(72.0861 42.7019) rotate(-88.0712) scale(3.28608 2.79143)">
<stop stop-color="#FFE600"/>
<stop offset="1" stop-color="#C6A223"/>
</radialGradient>
<linearGradient id="paint6_linear_521_10435" x1="71.6804" y1="45.4884" x2="71.6185" y2="39.8878" gradientUnits="userSpaceOnUse">
<stop stop-color="#00FFF4"/>
<stop offset="1" stop-color="#30A7FB"/>
</linearGradient>
<radialGradient id="paint7_radial_521_10435" cx="0" cy="0" r="1" gradientUnits="userSpaceOnUse" gradientTransform="translate(47.9103 8.38499) rotate(-88.0712) scale(3.28608 2.79143)">
<stop stop-color="#FFE600"/>
<stop offset="1" stop-color="#C6A223"/>
</radialGradient>
<linearGradient id="paint8_linear_521_10435" x1="47.7775" y1="11.1036" x2="47.7167" y2="5.47253" gradientUnits="userSpaceOnUse">
<stop stop-color="#00FFF4"/>
<stop offset="1" stop-color="#30A7FB"/>
</linearGradient>
<radialGradient id="paint9_radial_521_10435" cx="0" cy="0" r="1" gradientUnits="userSpaceOnUse" gradientTransform="translate(47.9709 76.3235) rotate(-88.0712) scale(3.28608 2.79144)">
<stop stop-color="#FFE600"/>
<stop offset="1" stop-color="#C6A223"/>
</radialGradient>
<linearGradient id="paint10_linear_521_10435" x1="47.6849" y1="79.1109" x2="47.623" y2="73.5103" gradientUnits="userSpaceOnUse">
<stop stop-color="#00FFF4"/>
<stop offset="1" stop-color="#30A7FB"/>
</linearGradient>
<radialGradient id="paint11_radial_521_10435" cx="0" cy="0" r="1" gradientUnits="userSpaceOnUse" gradientTransform="translate(21.5178 42.6418) rotate(-88.0712) scale(3.28608 2.79144)">
<stop stop-color="#FFE600"/>
<stop offset="1" stop-color="#C6A223"/>
</radialGradient>
<linearGradient id="paint12_linear_521_10435" x1="21.3817" y1="45.4372" x2="21.3199" y2="39.8365" gradientUnits="userSpaceOnUse">
<stop stop-color="#00FFF4"/>
<stop offset="1" stop-color="#30A7FB"/>
</linearGradient>
<linearGradient id="paint13_linear_521_10435" x1="4.23979" y1="11.7854" x2="29.5086" y2="11.8163" gradientUnits="userSpaceOnUse">
<stop stop-color="#FF9840"/>
<stop offset="0.1" stop-color="#EE8E3B"/>
<stop offset="0.29" stop-color="#C47531"/>
<stop offset="0.55" stop-color="#804C20"/>
<stop offset="0.88" stop-color="#241509"/>
<stop offset="1"/>
</linearGradient>
</defs>
</svg>
