<svg width="303" height="65" viewBox="0 0 303 65" fill="none" xmlns="http://www.w3.org/2000/svg">
<path d="M5.29699 8.35992C-0.889881 15.4779 -1.88309 47.9849 3.51749 57.1307C8.54562 65.6351 286.004 66.6696 295.708 57.8342C305.413 48.9988 304.419 14.6503 295.377 6.47696C286.355 -1.67564 15.4153 -3.26892 5.29699 8.35992Z" fill="url(#paint0_linear_294_6560)"/>
<path d="M10.1389 12.4151C4.46937 18.7468 5.69019 46.2256 10.6562 54.3575C15.2705 61.9101 281.941 62.8412 290.859 54.9783C299.777 47.1154 301.184 16.3259 292.908 9.08371C284.631 1.84155 19.4089 2.08985 10.1389 12.4151Z" fill="url(#paint1_radial_294_6560)"/>
<defs>
<linearGradient id="paint0_linear_294_6560" x1="280.299" y1="64.0004" x2="280.299" y2="0.000396729" gradientUnits="userSpaceOnUse">
<stop stop-color="#008EC2"/>
<stop offset="1" stop-color="#002092"/>
</linearGradient>
<radialGradient id="paint1_radial_294_6560" cx="0" cy="0" r="1" gradientUnits="userSpaceOnUse" gradientTransform="translate(279.927 55.1024) rotate(-0.477872) scale(252.082 258.429)">
<stop stop-color="#00D3C2"/>
<stop offset="1" stop-color="#0083C2"/>
</radialGradient>
</defs>
</svg>
