<svg width="43" height="37" viewBox="0 0 43 37" fill="none" xmlns="http://www.w3.org/2000/svg">
<path d="M0.782071 32.3935C2.28272 38.2548 38.3395 37 41.4315 30.9076C44.2349 25.3765 42.8827 7.13235 40.4833 3.17807C37.2099 -2.20437 5.18508 -0.00020863 2.53833 4.243C0.0729731 8.18903 -0.76805 26.3176 0.782071 32.3935Z" fill="url(#paint0_radial_185_3180)"/>
<path d="M0.905928 31.3534C2.39833 37 38.2408 34.5069 41.3245 28.6292C44.1197 23.2963 42.8087 7.21498 40.4175 3.4093C37.1524 -1.77502 5.24297 0.297055 2.60447 4.38342C0.147358 8.1891 -0.644193 25.5004 0.905928 31.3534Z" fill="url(#paint1_linear_185_3180)"/>
<path d="M1.35094 30.8581C2.81036 36.3396 37.8777 33.83 40.8873 28.1338C43.6247 22.9578 42.3384 7.39658 39.9968 3.70647C36.8058 -1.3375 5.59728 0.627252 3.01649 4.59804C0.608856 8.28815 -0.15796 25.1785 1.35094 30.8581Z" fill="url(#paint2_linear_185_3180)"/>
<path d="M20.5 3C28.51 3 35 9.49389 35 17.5C35 25.5061 28.5061 32 20.5 32C12.4939 32 6 25.51 6 17.5039C6 9.49783 12.4939 3.00394 20.5 3.00394" fill="#F0B90B"/>
<path d="M16.7471 15.9444L18.9406 13.7549L19.4053 13.2941L20.504 12.1954L24.2373 15.9444L26.415 13.7549L20.504 7.83594L14.5732 13.7549L16.7471 15.9444Z" fill="white"/>
<path d="M20.5064 15.3183L18.3232 17.5015L20.5064 19.6846L22.6896 17.5015L20.5064 15.3183Z" fill="white"/>
<path d="M24.2373 19.0635L20.5 22.8007L19.1887 21.4893L18.9484 21.2491L16.7471 19.0635L14.5732 21.2412L20.504 27.1602L26.415 21.2412L24.2373 19.0635Z" fill="white"/>
<path d="M13.0152 15.3206L10.832 17.5038L13.0152 19.6869L15.1983 17.5038L13.0152 15.3206Z" fill="white"/>
<path d="M27.9825 15.3218L25.7993 17.505L27.9825 19.6882L30.1656 17.505L27.9825 15.3218Z" fill="white"/>
<path style="mix-blend-mode:screen" d="M40.1699 28.2329C40.1699 28.2329 23.9348 36.579 3.20605 31.7744C3.20605 31.7744 16.448 31.0644 22.4424 28.8768C32.6171 25.1537 37.4984 24.0557 40.1699 28.2329Z" fill="url(#paint3_linear_185_3180)"/>
<path style="mix-blend-mode:screen" d="M12.6714 9.36125C13.2485 9.32823 13.7515 9.76576 13.7845 10.3519C13.8175 10.938 13.3805 11.4333 12.795 11.4663C12.2179 11.4994 11.7149 11.0618 11.6819 10.4757C11.6489 9.89784 12.0859 9.39427 12.6714 9.36125Z" fill="url(#paint4_radial_185_3180)"/>
<path d="M12.7954 10.1126C12.9521 10.1043 13.0923 10.2281 13.1005 10.385C13.1088 10.5418 12.9851 10.6822 12.8284 10.6904C12.6718 10.6987 12.5316 10.5749 12.5233 10.418C12.5151 10.2612 12.6388 10.1208 12.7954 10.1126Z" fill="#FFFFAB"/>
<path style="mix-blend-mode:screen" d="M14.0976 4.83745C14.6748 4.80442 15.1778 5.24195 15.2108 5.82808C15.2437 6.4142 14.8067 6.90952 14.2213 6.94254C13.6441 6.97556 13.1412 6.53803 13.1082 5.95191C13.0752 5.37404 13.5122 4.87047 14.0976 4.83745Z" fill="url(#paint5_radial_185_3180)"/>
<path d="M14.2305 5.58865C14.3872 5.58039 14.5273 5.70422 14.5356 5.86107C14.5438 6.01792 14.4201 6.15826 14.2635 6.16652C14.1068 6.17477 13.9666 6.05094 13.9584 5.89409C13.9502 5.73724 14.0738 5.5969 14.2305 5.58865Z" fill="#FFFFAB"/>
<path style="mix-blend-mode:screen" d="M13.2573 17.8064C13.8345 17.7734 14.3374 18.2109 14.3704 18.7971C14.4034 19.3749 13.9664 19.8785 13.381 19.9115C12.7956 19.9446 12.3008 19.507 12.2679 18.9209C12.2349 18.3348 12.6719 17.8395 13.2573 17.8064Z" fill="url(#paint6_radial_185_3180)"/>
<path d="M13.3809 18.5576C13.5375 18.5494 13.6777 18.6732 13.686 18.8301C13.6942 18.9869 13.5705 19.1273 13.4139 19.1355C13.2572 19.1438 13.117 19.0199 13.1088 18.8631C13.1005 18.7062 13.2242 18.5659 13.3809 18.5576Z" fill="#FFFFAB"/>
<path style="mix-blend-mode:screen" d="M8.31021 2.52594C9.93454 2.42688 11.328 3.66517 11.4269 5.29146C11.5259 6.91775 10.2891 8.31289 8.66476 8.41195C7.04043 8.51101 5.64697 7.27272 5.54803 5.64643C5.44908 4.02014 6.68588 2.625 8.31021 2.52594Z" fill="url(#paint7_radial_185_3180)"/>
<path d="M8.66457 4.63922C9.10982 4.61445 9.49735 4.95292 9.53033 5.40696C9.56332 5.861 9.21701 6.24074 8.76352 6.27376C8.31827 6.29853 7.93074 5.96006 7.89776 5.50602C7.87302 5.06024 8.21108 4.67224 8.66457 4.63922Z" fill="#FFFFAB"/>
<path style="mix-blend-mode:screen" d="M16.7035 25.0134C17.4785 24.9639 18.1464 25.5582 18.1876 26.3342C18.2371 27.1102 17.6434 27.7789 16.8684 27.8202C16.0933 27.8697 15.4255 27.2753 15.3842 26.4993C15.3348 25.7233 15.9284 25.0547 16.7035 25.0134Z" fill="url(#paint8_radial_185_3180)"/>
<path d="M16.8766 26.0287C17.091 26.0122 17.2724 26.1773 17.2889 26.392C17.3054 26.6066 17.1405 26.7882 16.9261 26.8047C16.7117 26.8212 16.5303 26.6561 16.5138 26.4415C16.4973 26.2269 16.6622 26.0452 16.8766 26.0287Z" fill="#FFFFAB"/>
<path style="mix-blend-mode:screen" d="M4.4428 31.634C4.83033 31.6092 5.16015 31.9064 5.18488 32.2944C5.20962 32.6824 4.91279 33.0126 4.52526 33.0374C4.13773 33.0622 3.80791 32.765 3.78318 32.377C3.75844 31.989 4.05527 31.6588 4.4428 31.634Z" fill="url(#paint9_radial_185_3180)"/>
<path d="M4.53402 32.1376C4.64121 32.1376 4.7319 32.2119 4.74015 32.3192C4.74015 32.4265 4.66594 32.5173 4.55875 32.5256C4.45156 32.5256 4.36086 32.4513 4.35262 32.344C4.34437 32.2366 4.42683 32.1458 4.53402 32.1376Z" fill="#FFFFAB"/>
<path style="mix-blend-mode:screen" d="M23.9677 16.6507C24.3552 16.626 24.685 16.9232 24.7098 17.3112C24.7345 17.6992 24.4377 18.0294 24.0502 18.0541C23.6626 18.0789 23.3328 17.7817 23.3081 17.3937C23.2833 17.0057 23.5802 16.6755 23.9677 16.6507Z" fill="url(#paint10_radial_185_3180)"/>
<path d="M24.0584 17.1543C24.1655 17.1543 24.2562 17.2286 24.2645 17.3359C24.2727 17.4432 24.1903 17.534 24.0831 17.5423C23.9759 17.5423 23.8852 17.468 23.877 17.3607C23.877 17.2534 23.9512 17.1626 24.0584 17.1543Z" fill="#FFFFAB"/>
<path style="mix-blend-mode:screen" d="M14.2217 27.6963C14.5102 27.6798 14.7576 27.9027 14.7741 28.1916C14.7906 28.4805 14.568 28.7282 14.2794 28.7447C13.9908 28.7612 13.7434 28.5383 13.7269 28.2494C13.7104 27.9605 13.9331 27.7128 14.2217 27.6963Z" fill="url(#paint11_radial_185_3180)"/>
<path d="M14.2881 28.0679C14.3706 28.0679 14.4365 28.1257 14.4448 28.2082C14.4448 28.2908 14.3871 28.3568 14.3046 28.3651C14.2222 28.3651 14.1562 28.3073 14.1479 28.2247C14.1479 28.1422 14.2057 28.0761 14.2881 28.0679Z" fill="#FFFFAB"/>
<path style="mix-blend-mode:screen" d="M22.36 27.267C22.9619 27.234 23.4813 27.6963 23.5226 28.299C23.5555 28.9016 23.0938 29.4217 22.4919 29.4629C21.89 29.496 21.3705 29.0337 21.3293 28.431C21.2963 27.8284 21.7581 27.3083 22.36 27.267Z" fill="url(#paint12_radial_185_3180)"/>
<path d="M22.4916 28.0513C22.6565 28.043 22.8049 28.1669 22.8132 28.3402C22.8214 28.5053 22.6977 28.6539 22.5246 28.6622C22.3597 28.6704 22.2113 28.5466 22.203 28.3732C22.1948 28.2081 22.3185 28.0595 22.4916 28.0513Z" fill="#FFFFAB"/>
<path d="M39.2055 29.2896C39.0158 28.6622 40.6731 25.8058 41.0937 25.8141C41.5142 25.8224 41.1431 27.6963 40.8875 28.1338C40.6319 28.5714 39.2962 29.6033 39.2055 29.2896Z" fill="white"/>
<path style="mix-blend-mode:screen" d="M2.92624 4.62278C2.92624 4.62278 27.3159 -3.1702 40.0879 3.789C40.0879 3.789 41.4237 4.86219 41.9349 9.02285C41.9349 9.02285 40.9125 5.3575 33.2773 5.88584C26.7058 6.33988 16.5145 17.3772 5.86158 13.8192C0.502119 12.0278 2.92624 4.62278 2.92624 4.62278Z" fill="url(#paint13_linear_185_3180)"/>
<path d="M2.92624 7.82577C2.92624 7.82577 1.76364 4.8291 4.00637 3.76417C6.2491 2.69924 13.6287 1.68384 13.9915 1.94801C14.3543 2.22043 10.8747 3.47524 9.07725 4.13566C7.27977 4.79608 3.84147 8.32934 2.92624 7.81751V7.82577Z" fill="white"/>
<defs>
<radialGradient id="paint0_radial_185_3180" cx="0" cy="0" r="1" gradientUnits="userSpaceOnUse" gradientTransform="translate(23.1573 33.6318) scale(16.5143 31.1967)">
<stop stop-color="#D0CDEA"/>
<stop offset="1" stop-color="#7D75DA"/>
</radialGradient>
<linearGradient id="paint1_linear_185_3180" x1="21.5028" y1="34.5317" x2="21.5028" y2="0.330077" gradientUnits="userSpaceOnUse">
<stop stop-color="#CADCFF"/>
<stop offset="1" stop-color="white"/>
</linearGradient>
<linearGradient id="paint2_linear_185_3180" x1="21.5025" y1="33.9125" x2="21.5025" y2="0.693296" gradientUnits="userSpaceOnUse">
<stop stop-color="#FAFAFD"/>
<stop offset="1" stop-color="#C3BFEE"/>
</linearGradient>
<linearGradient id="paint3_linear_185_3180" x1="40.1699" y1="29.4134" x2="3.20605" y2="29.4134" gradientUnits="userSpaceOnUse">
<stop stop-color="#FF6140"/>
<stop offset="0.1" stop-color="#EE5A3B"/>
<stop offset="0.29" stop-color="#C44A31"/>
<stop offset="0.55" stop-color="#803020"/>
<stop offset="0.88" stop-color="#240D09"/>
<stop offset="1"/>
</linearGradient>
<radialGradient id="paint4_radial_185_3180" cx="0" cy="0" r="1" gradientUnits="userSpaceOnUse" gradientTransform="translate(12.6867 10.442) rotate(-93.4159) scale(1.05667 1.05541)">
<stop stop-color="#00B359"/>
<stop offset="0.13" stop-color="#009148"/>
<stop offset="0.34" stop-color="#005D2E"/>
<stop offset="0.54" stop-color="#00351A"/>
<stop offset="0.73" stop-color="#00170B"/>
<stop offset="0.89" stop-color="#000603"/>
<stop offset="1"/>
</radialGradient>
<radialGradient id="paint5_radial_185_3180" cx="0" cy="0" r="1" gradientUnits="userSpaceOnUse" gradientTransform="translate(14.1179 5.91546) rotate(-93.4159) scale(1.05667 1.05541)">
<stop stop-color="#00B359"/>
<stop offset="0.13" stop-color="#009148"/>
<stop offset="0.34" stop-color="#005D2E"/>
<stop offset="0.54" stop-color="#00351A"/>
<stop offset="0.73" stop-color="#00170B"/>
<stop offset="0.89" stop-color="#000603"/>
<stop offset="1"/>
</radialGradient>
<radialGradient id="paint6_radial_185_3180" cx="0" cy="0" r="1" gradientUnits="userSpaceOnUse" gradientTransform="translate(13.2742 18.892) rotate(-93.4159) scale(1.05667 1.05541)">
<stop stop-color="#00B359"/>
<stop offset="0.13" stop-color="#009148"/>
<stop offset="0.34" stop-color="#005D2E"/>
<stop offset="0.54" stop-color="#00351A"/>
<stop offset="0.73" stop-color="#00170B"/>
<stop offset="0.89" stop-color="#000603"/>
<stop offset="1"/>
</radialGradient>
<radialGradient id="paint7_radial_185_3180" cx="0" cy="0" r="1" gradientUnits="userSpaceOnUse" gradientTransform="translate(8.4355 5.49464) rotate(-93.4159) scale(2.94712 2.94359)">
<stop stop-color="#00B359"/>
<stop offset="0.13" stop-color="#009148"/>
<stop offset="0.34" stop-color="#005D2E"/>
<stop offset="0.54" stop-color="#00351A"/>
<stop offset="0.73" stop-color="#00170B"/>
<stop offset="0.89" stop-color="#000603"/>
<stop offset="1"/>
</radialGradient>
<radialGradient id="paint8_radial_185_3180" cx="0" cy="0" r="1" gradientUnits="userSpaceOnUse" gradientTransform="translate(16.7399 26.4502) rotate(-93.4159) scale(1.40339 1.40171)">
<stop stop-color="#00B359"/>
<stop offset="0.13" stop-color="#009148"/>
<stop offset="0.34" stop-color="#005D2E"/>
<stop offset="0.54" stop-color="#00351A"/>
<stop offset="0.73" stop-color="#00170B"/>
<stop offset="0.89" stop-color="#000603"/>
<stop offset="1"/>
</radialGradient>
<radialGradient id="paint9_radial_185_3180" cx="0" cy="0" r="1" gradientUnits="userSpaceOnUse" gradientTransform="translate(4.44684 32.3627) rotate(-93.4159) scale(0.701696 0.700856)">
<stop stop-color="#00B359"/>
<stop offset="0.13" stop-color="#009148"/>
<stop offset="0.34" stop-color="#005D2E"/>
<stop offset="0.54" stop-color="#00351A"/>
<stop offset="0.73" stop-color="#00170B"/>
<stop offset="0.89" stop-color="#000603"/>
<stop offset="1"/>
</radialGradient>
<radialGradient id="paint10_radial_185_3180" cx="0" cy="0" r="1" gradientUnits="userSpaceOnUse" gradientTransform="translate(23.9715 17.3836) rotate(-93.4159) scale(0.701696 0.700855)">
<stop stop-color="#00B359"/>
<stop offset="0.13" stop-color="#009148"/>
<stop offset="0.34" stop-color="#005D2E"/>
<stop offset="0.54" stop-color="#00351A"/>
<stop offset="0.73" stop-color="#00170B"/>
<stop offset="0.89" stop-color="#000603"/>
<stop offset="1"/>
</radialGradient>
<radialGradient id="paint11_radial_185_3180" cx="0" cy="0" r="1" gradientUnits="userSpaceOnUse" gradientTransform="translate(14.2122 28.2471) rotate(-93.4159) scale(0.528336 0.527703)">
<stop stop-color="#00B359"/>
<stop offset="0.13" stop-color="#009148"/>
<stop offset="0.34" stop-color="#005D2E"/>
<stop offset="0.54" stop-color="#00351A"/>
<stop offset="0.73" stop-color="#00170B"/>
<stop offset="0.89" stop-color="#000603"/>
<stop offset="1"/>
</radialGradient>
<radialGradient id="paint12_radial_185_3180" cx="0" cy="0" r="1" gradientUnits="userSpaceOnUse" gradientTransform="translate(22.3822 28.3951) rotate(-93.4159) scale(1.09795 1.09663)">
<stop stop-color="#00B359"/>
<stop offset="0.13" stop-color="#009148"/>
<stop offset="0.34" stop-color="#005D2E"/>
<stop offset="0.54" stop-color="#00351A"/>
<stop offset="0.73" stop-color="#00170B"/>
<stop offset="0.89" stop-color="#000603"/>
<stop offset="1"/>
</radialGradient>
<linearGradient id="paint13_linear_185_3180" x1="2.38205" y1="7.71026" x2="41.9349" y2="7.71026" gradientUnits="userSpaceOnUse">
<stop stop-color="#FF9840"/>
<stop offset="0.1" stop-color="#EE8E3B"/>
<stop offset="0.29" stop-color="#C47531"/>
<stop offset="0.55" stop-color="#804C20"/>
<stop offset="0.88" stop-color="#241509"/>
<stop offset="1"/>
</linearGradient>
</defs>
</svg>
