<svg width="81" height="91" viewBox="0 0 81 91" fill="none" xmlns="http://www.w3.org/2000/svg">
<g style="mix-blend-mode:multiply">
<path d="M40.5 90.5137C62.8675 90.5137 81 87.8274 81 84.5137C81 81.2 62.8675 78.5137 40.5 78.5137C18.1325 78.5137 0 81.2 0 84.5137C0 87.8274 18.1325 90.5137 40.5 90.5137Z" fill="#6B54A1"/>
</g>
<path d="M59.0219 41.5484C59.0219 62.33 53.7005 79.795 39.1351 82.29C37.9188 82.503 30.7121 82.29 29.4653 82.29C13.1667 82.2292 0 63.973 0 41.4571C0 18.9413 13.2579 0.71556 29.5566 0.745987C30.5904 0.745987 39.5304 0.624279 40.5338 0.745987C55.4034 2.84544 59.0523 20.4322 59.0219 41.518V41.5484Z" fill="url(#paint0_radial_521_10510)"/>
<path d="M70.0005 41.5486C70.0005 64.0644 56.7426 82.2901 40.4439 82.2597C24.1452 82.2293 10.9482 63.9732 10.9786 41.4877C11.009 18.9718 24.2365 0.715705 40.5351 0.746132C56.8338 0.776559 70.0309 19.0327 70.0005 41.5486Z" fill="url(#paint1_linear_521_10510)"/>
<path style="mix-blend-mode:screen" d="M15.082 20.5235L57.8965 74.4095L64.0997 65.9508L30.6509 3.08887C30.6509 3.08887 22.0151 6.64881 15.082 20.5235Z" fill="url(#paint2_linear_521_10510)"/>
<path d="M61.3035 41.5485C61.3035 57.4313 51.9682 70.3019 40.4436 70.2714C40.0179 70.2714 39.5922 70.2714 39.1969 70.2106C28.2804 69.3282 19.6445 56.7923 19.6445 41.4876C19.6445 26.2133 28.3108 13.7687 39.1665 12.8255C39.6226 12.7951 40.0483 12.7646 40.5044 12.7646C51.9986 12.7646 61.3035 25.6656 61.2731 41.5485H61.3035Z" fill="url(#paint3_radial_521_10510)"/>
<path d="M58.6276 41.5486C58.6276 56.7621 50.0221 69.2371 39.1969 70.2108C28.2804 69.3284 19.6445 56.7925 19.6445 41.4878C19.6445 26.2135 28.3108 13.7689 39.1665 12.8257C50.0221 13.7993 58.6276 26.2744 58.5972 41.5486H58.6276Z" fill="url(#paint4_linear_521_10510)"/>
<path d="M51.2172 33.7248C50.3042 29.0141 46.4559 27.6079 41.7591 27.3759L41.0603 20.8125L37.4578 20.9825L38.1339 27.3692C37.1902 27.4184 36.2252 27.485 35.2602 27.5516L34.58 21.1253L30.9776 21.2952L31.6652 27.8521C30.8867 27.9076 30.1244 27.9575 29.3754 27.9929L29.3693 27.9745L24.4033 28.2111L24.8608 32.4803C24.8608 32.4803 27.5174 32.2988 27.4727 32.3547C28.9351 32.2857 29.5037 33.2012 29.7276 34.0067L30.5231 41.5102L31.6308 51.9803C31.6217 52.4952 31.4339 53.3154 30.4189 53.368C30.4699 53.4123 27.7989 53.4963 27.7989 53.4963L27.5859 58.3069L32.2746 58.081C33.15 58.0443 34.0091 58.0132 34.8488 57.9782L35.5529 64.6115L39.1553 64.4415L38.4646 57.8755C39.4532 57.8522 40.4111 57.8187 41.3466 57.7722L42.0362 64.308L45.6386 64.138L44.9376 57.5139C50.9513 56.8351 55.0118 54.9459 54.8709 48.6157C54.7602 43.5141 52.3637 41.3567 48.8327 40.602C50.7959 39.3215 51.8819 37.1775 51.2121 33.7367L51.2172 33.7248ZM47.6787 48.153C48.2049 53.1158 40.4863 52.9211 38.0416 53.0317L37.1148 44.2414C39.5565 44.1215 47.1286 42.9833 47.6787 48.153ZM44.6908 35.8238C45.1651 40.3331 38.7235 40.1109 36.6935 40.216L35.848 32.2378C37.881 32.1419 44.1957 31.1168 44.6908 35.8238Z" fill="white"/>
<path d="M66.1381 39.2362C67.689 39.2971 68.9053 40.788 68.8445 42.6136C68.7836 44.4392 67.4761 45.8693 65.9253 45.8085C64.3745 45.7476 63.1582 44.2567 63.219 42.4311C63.2798 40.6055 64.5873 39.1754 66.1381 39.2362Z" fill="url(#paint5_radial_521_10510)"/>
<path d="M65.7129 39.692C67.0508 39.7224 68.0543 41.0307 68.0239 42.5825C67.9935 44.1343 66.8684 45.3514 65.5304 45.3209C64.1925 45.2905 63.189 43.9822 63.2194 42.4304C63.2802 40.8786 64.3749 39.6615 65.7129 39.692Z" fill="url(#paint6_linear_521_10510)"/>
<path d="M41.9624 4.91838C43.5132 4.97923 44.7295 6.47015 44.6687 8.29576C44.6079 10.1214 43.3003 11.5514 41.7495 11.4906C40.1987 11.4297 38.9824 9.93881 39.0432 8.1132C39.104 6.28759 40.4116 4.85752 41.9624 4.91838Z" fill="url(#paint7_radial_521_10510)"/>
<path d="M41.6894 5.31013C43.0274 5.34056 44.0309 6.64891 44.0004 8.20068C43.97 9.75245 42.8449 10.9695 41.507 10.9391C40.169 10.9087 39.1656 9.60032 39.196 8.04855C39.2568 6.49678 40.3515 5.2797 41.6894 5.31013Z" fill="url(#paint8_linear_521_10510)"/>
<path d="M42.0229 72.8573C43.5737 72.9182 44.79 74.4091 44.7292 76.2347C44.6684 78.0603 43.3609 79.4904 41.8101 79.4295C40.2593 79.3687 39.0429 77.8778 39.1037 76.0522C39.1646 74.2266 40.4721 72.7965 42.0229 72.8573Z" fill="url(#paint9_radial_521_10510)"/>
<path d="M41.5957 73.3433C42.9336 73.3738 43.9371 74.6821 43.9067 76.2339C43.8459 77.7857 42.7512 79.0027 41.4132 78.9723C40.0753 78.9419 39.0718 77.6335 39.1022 76.0818C39.1326 74.53 40.2577 73.3129 41.5957 73.3433Z" fill="url(#paint10_linear_521_10510)"/>
<path d="M15.5698 39.1757C17.1206 39.2366 18.3369 40.7275 18.2761 42.5531C18.2153 44.3787 16.9077 45.8088 15.3569 45.7479C13.8061 45.6871 12.5898 44.1961 12.6506 42.3705C12.7114 40.5449 14.019 39.1148 15.5698 39.1757Z" fill="url(#paint11_radial_521_10510)"/>
<path d="M15.1445 39.6314C16.4825 39.6618 17.4859 40.9702 17.4555 42.522C17.3947 44.0737 16.3 45.2908 14.9621 45.2604C13.6241 45.23 12.6207 43.9216 12.6511 42.3698C12.6815 40.8181 13.8066 39.601 15.1445 39.6314Z" fill="url(#paint12_linear_521_10510)"/>
<path style="mix-blend-mode:screen" d="M4.25586 20.523H15.0811C15.0811 20.523 17.9699 11.3341 29.5857 3.08838L18.8213 3.51436C18.8213 3.51436 7.35747 10.7864 4.25586 20.523Z" fill="url(#paint13_linear_521_10510)"/>
<path d="M16.9073 17.0545C16.4815 17.9673 24.3572 13.6771 26.0297 10.4823C27.7021 7.28747 28.7664 5.09674 27.9758 4.64034C27.1852 4.18393 19.4919 11.3647 16.9073 17.0545Z" fill="white"/>
<path d="M57.1074 73.9533C54.249 74.714 61.182 67.5333 61.9118 67.8375C62.6416 68.1418 59.692 73.2535 57.1074 73.9533Z" fill="white"/>
<defs>
<radialGradient id="paint0_radial_521_10510" cx="0" cy="0" r="1" gradientUnits="userSpaceOnUse" gradientTransform="translate(29.4738 41.5135) rotate(0.0700435) scale(35.6078 35.6299)">
<stop stop-color="#FF9900"/>
<stop offset="1" stop-color="#BD6B20"/>
</radialGradient>
<linearGradient id="paint1_linear_521_10510" x1="40.4026" y1="82.2686" x2="40.5023" y2="0.72462" gradientUnits="userSpaceOnUse">
<stop stop-color="#FF8A00"/>
<stop offset="1" stop-color="#FF9900"/>
</linearGradient>
<linearGradient id="paint2_linear_521_10510" x1="15.0027" y1="38.6965" x2="64.0812" y2="38.7564" gradientUnits="userSpaceOnUse">
<stop stop-color="#FF9840"/>
<stop offset="0.1" stop-color="#EE8E3B"/>
<stop offset="0.29" stop-color="#C47531"/>
<stop offset="0.55" stop-color="#804C20"/>
<stop offset="0.88" stop-color="#241509"/>
<stop offset="1"/>
</linearGradient>
<radialGradient id="paint3_radial_521_10510" cx="0" cy="0" r="1" gradientUnits="userSpaceOnUse" gradientTransform="translate(40.4521 41.4965) rotate(0.0700435) scale(25.0866 25.1022)">
<stop stop-color="#FF9900"/>
<stop offset="1" stop-color="#C1771F"/>
</radialGradient>
<linearGradient id="paint4_linear_521_10510" x1="39.0791" y1="70.1876" x2="39.1493" y2="12.8025" gradientUnits="userSpaceOnUse">
<stop stop-color="#FF9900"/>
<stop offset="1" stop-color="#FF7A00"/>
</linearGradient>
<radialGradient id="paint5_radial_521_10510" cx="0" cy="0" r="1" gradientUnits="userSpaceOnUse" gradientTransform="translate(72.0862 42.7029) rotate(-88.0712) scale(3.2861 2.79145)">
<stop stop-color="#FFE600"/>
<stop offset="1" stop-color="#C6A223"/>
</radialGradient>
<linearGradient id="paint6_linear_521_10510" x1="71.6824" y1="45.4894" x2="71.6205" y2="39.8887" gradientUnits="userSpaceOnUse">
<stop stop-color="#00FFF4"/>
<stop offset="1" stop-color="#30A7FB"/>
</linearGradient>
<radialGradient id="paint7_radial_521_10510" cx="0" cy="0" r="1" gradientUnits="userSpaceOnUse" gradientTransform="translate(47.9104 8.38501) rotate(-88.0712) scale(3.2861 2.79145)">
<stop stop-color="#FFE600"/>
<stop offset="1" stop-color="#C6A223"/>
</radialGradient>
<linearGradient id="paint8_linear_521_10510" x1="47.7795" y1="11.1041" x2="47.7187" y2="5.47302" gradientUnits="userSpaceOnUse">
<stop stop-color="#00FFF4"/>
<stop offset="1" stop-color="#30A7FB"/>
</linearGradient>
<radialGradient id="paint9_radial_521_10510" cx="0" cy="0" r="1" gradientUnits="userSpaceOnUse" gradientTransform="translate(47.9709 76.324) rotate(-88.0712) scale(3.2861 2.79146)">
<stop stop-color="#FFE600"/>
<stop offset="1" stop-color="#C6A223"/>
</radialGradient>
<linearGradient id="paint10_linear_521_10510" x1="47.6849" y1="79.112" x2="47.623" y2="73.5113" gradientUnits="userSpaceOnUse">
<stop stop-color="#00FFF4"/>
<stop offset="1" stop-color="#30A7FB"/>
</linearGradient>
<radialGradient id="paint11_radial_521_10510" cx="0" cy="0" r="1" gradientUnits="userSpaceOnUse" gradientTransform="translate(21.5178 42.6423) rotate(-88.0712) scale(3.2861 2.79146)">
<stop stop-color="#FFE600"/>
<stop offset="1" stop-color="#C6A223"/>
</radialGradient>
<linearGradient id="paint12_linear_521_10510" x1="21.3838" y1="45.4377" x2="21.3219" y2="39.837" gradientUnits="userSpaceOnUse">
<stop stop-color="#00FFF4"/>
<stop offset="1" stop-color="#30A7FB"/>
</linearGradient>
<linearGradient id="paint13_linear_521_10510" x1="4.23979" y1="11.7855" x2="29.5088" y2="11.8163" gradientUnits="userSpaceOnUse">
<stop stop-color="#FF9840"/>
<stop offset="0.1" stop-color="#EE8E3B"/>
<stop offset="0.29" stop-color="#C47531"/>
<stop offset="0.55" stop-color="#804C20"/>
<stop offset="0.88" stop-color="#241509"/>
<stop offset="1"/>
</linearGradient>
</defs>
</svg>
