<svg width="81" height="69" viewBox="0 0 81 69" fill="none" xmlns="http://www.w3.org/2000/svg">
<path d="M1.82168 55.3638C4.53972 65.9813 72.4369 73.9713 78.0614 62.9516C83.1745 52.9239 79.3262 11.9822 74.9396 4.82339C68.9923 -4.93614 10.2449 1.9009 5.4278 9.59591C0.933612 16.7547 -1.004 44.3709 1.82168 55.3638Z" fill="url(#paint0_radial_50_1069)"/>
<path d="M2.03679 53.4871C4.75483 63.7292 72.2483 69.467 77.8459 58.8226C82.9321 49.1436 79.1645 12.1432 74.8049 5.22569C68.8844 -4.15847 10.3524 2.43725 5.56216 9.83733C1.06798 16.7548 -0.761987 42.8696 2.03679 53.4871Z" fill="url(#paint1_linear_50_1069)"/>
<path d="M2.87107 52.6023C5.53529 62.5495 71.6025 68.2604 77.0924 57.9379C82.071 48.5537 78.3303 12.4917 74.0783 5.78874C68.2655 -3.35412 10.9983 3.05392 6.2888 10.2395C1.90226 16.9425 0.099207 42.2797 2.87107 52.6023Z" fill="url(#paint2_linear_50_1069)"/>
<path d="M40.4271 50.0025C39.2367 49.8588 38.0088 49.5633 36.903 49.0113C44.9111 51.4635 51.5803 45.9344 51.5803 45.9344C45.4405 48.2072 35.2966 48.2734 30.8238 40.8353C25.0547 31.2394 30.5694 24.2152 35.6998 22.6654C42.7517 20.5348 51.468 27.8649 47.3667 35.976C49.0803 31.2456 45.5474 24.2325 39.5261 23.7922C33.5175 23.3532 30.2389 28.165 29.0471 32.6178C29.0471 32.6178 29.7486 31.3035 30.9588 29.8007C30.3606 31.2153 29.504 34.1928 30.6353 37.2286C31.9288 40.701 34.412 43.0333 36.7853 44.2018C43.6808 47.6 51.7728 44.2956 51.7728 44.2956C47.0788 45.5537 40.3963 44.8737 36.4435 41.8434C34.889 40.651 33.3818 38.6893 32.728 36.7917C32.1972 35.2541 32.1344 33.5879 32.4751 32.0567C32.8032 30.5821 33.5715 28.9081 35.0383 27.9591C36.8729 26.774 39.7063 26.6688 42.0573 28.5482C43.8139 29.9527 44.3412 32.1154 44.1558 34.3419C43.801 32.0696 42.0709 30.0126 39.9678 29.3591C37.8648 28.7056 35.2789 29.3265 34.28 31.2735C32.0987 35.5218 35.7808 40.6904 40.1145 42.4069C43.4014 43.7089 47.7336 43.9903 50.85 42.9473C57.7128 40.6488 59.3113 34.4044 59.5 31.6298C59.5 31.6298 58.1065 36.7081 55.0026 39.0063C59.5719 33.6556 60.6226 25.2864 54.7154 17.5449C54.7154 17.5449 57.5704 22.4104 57.304 28.0265C55.1096 14.5647 41.6975 9.42926 33.8485 13.206C33.8485 13.206 39.5423 11.4745 44.2907 14.1778C36.4875 12.1336 27.7753 15.8499 23.1063 23.293C23.1063 23.293 31.4277 14.2608 41.4416 16.7243C47.1778 18.1363 50.6352 21.7804 52.5057 25.9483C52.9874 27.0217 53.1963 28.0304 53.3078 28.9275C51.4064 23.3202 45.6081 17.651 39.1198 17.4239C34.3012 17.0114 29.6694 18.7142 26.1963 22.3675C23.4954 25.2113 21.8237 29.3617 21.5364 33.5231C21.345 36.293 21.9411 38.8522 22.5436 41.5721C22.5436 41.5721 21.4423 36.6062 22.582 33.2749C22.0994 40.5883 25.7581 48.8838 34.3477 53C34.3477 53 30.2891 50.5168 27.7627 46.1927C35.0627 53.8822 50.1707 55.5055 58.5493 43.0769C58.5493 43.0769 50.2 51.1829 40.4285 50.0041L40.4271 50.0025ZM44.8879 38.6261C44.8829 38.8569 44.7007 39.0277 44.4819 39.0068L44.2111 38.9808C43.9923 38.9599 43.8101 39.1307 43.8052 39.3614L43.7897 40.0833C43.7848 40.3141 43.6026 40.4849 43.3837 40.4639C43.1649 40.443 42.9907 40.238 42.9957 40.0073L43.0111 39.2854C43.0161 39.0546 42.8419 38.8497 42.6231 38.8287L42.3523 38.8028C42.1335 38.7819 41.9593 38.5769 41.9643 38.3462C41.9692 38.1154 42.1514 37.9446 42.3702 37.9656L42.641 37.9915C42.8598 38.0124 43.042 37.8416 43.047 37.6109L43.0624 36.889C43.0674 36.6582 43.2495 36.4874 43.4684 36.5084C43.6872 36.5293 43.8614 36.7343 43.8564 36.965L43.841 37.6869C43.8361 37.9177 44.0102 38.1226 44.229 38.1436L44.4998 38.1695C44.7187 38.1905 44.8928 38.3954 44.8879 38.6261ZM47.3358 41.4264C47.3341 41.5078 47.2709 41.567 47.1938 41.5596L47.0998 41.5506C47.0226 41.5432 46.9595 41.6024 46.9578 41.6837L46.9524 41.9352C46.9506 42.0165 46.8875 42.0757 46.8104 42.0683C46.7332 42.0609 46.6729 41.9899 46.6746 41.9086L46.68 41.6571C46.6817 41.5758 46.6214 41.5048 46.5442 41.4974L46.4502 41.4884C46.3731 41.481 46.3128 41.41 46.3145 41.3286C46.3162 41.2473 46.3794 41.1881 46.4565 41.1955L46.5505 41.2045C46.6263 41.2117 46.6908 41.1527 46.6925 41.0713L46.6979 40.8199C46.6997 40.7385 46.7628 40.6793 46.8399 40.6867C46.9171 40.6941 46.9774 40.7651 46.9757 40.8465L46.9703 41.0979C46.9686 41.1793 47.0289 41.2503 47.1061 41.2577L47.2 41.2667C47.2772 41.2741 47.3375 41.3451 47.3358 41.4264ZM49.6658 18.0752C49.6641 18.1565 49.601 18.2157 49.5238 18.2083L49.4298 18.1993C49.3527 18.1919 49.2896 18.2511 49.2878 18.3325L49.2824 18.584C49.2807 18.6653 49.2176 18.7245 49.1404 18.7171C49.0633 18.7097 49.0029 18.6387 49.0047 18.5573L49.01 18.3059C49.0118 18.2245 48.9515 18.1535 48.8743 18.1461L48.7803 18.1371C48.7031 18.1297 48.6428 18.0587 48.6446 17.9774C48.6463 17.896 48.7094 17.8368 48.7866 17.8442L48.8806 17.8532C48.9577 17.8606 49.0208 17.8014 49.0226 17.7201L49.028 17.4686C49.0297 17.3873 49.0928 17.3281 49.17 17.3355C49.2471 17.3429 49.3075 17.4139 49.3057 17.4952L49.3004 17.7467C49.2986 17.828 49.3589 17.899 49.4361 17.9064L49.5301 17.9154C49.6073 17.9228 49.6676 17.9938 49.6658 18.0752ZM57.3026 28.0279C57.297 28.1592 57.2885 28.2904 57.2787 28.4213C57.2488 28.2421 57.2146 28.0639 57.1777 27.884L57.3026 28.0279ZM54.0401 36.4239C54.0418 36.3425 54.1049 36.2834 54.1821 36.2907L54.2761 36.2997C54.3532 36.3071 54.4164 36.248 54.4181 36.1666L54.4235 35.9151C54.4252 35.8338 54.4883 35.7746 54.5655 35.782C54.6427 35.7894 54.703 35.8604 54.7012 35.9417L54.6959 36.1932C54.6941 36.2746 54.7545 36.3456 54.8316 36.3529L54.9256 36.3619C55.0028 36.3693 55.0631 36.4403 55.0614 36.5217C55.0596 36.6031 54.9965 36.6622 54.9193 36.6548L54.8253 36.6458C54.7482 36.6385 54.6851 36.6976 54.6833 36.779L54.6779 37.0305C54.6762 37.1118 54.6131 37.171 54.5359 37.1636C54.4588 37.1562 54.3984 37.0852 54.4002 37.0039L54.4056 36.7524C54.4073 36.671 54.347 36.6 54.2698 36.5926L54.1758 36.5836C54.0987 36.5763 54.0383 36.5053 54.0401 36.4239ZM51.4574 33.4165C51.4601 33.2893 51.5605 33.1967 51.6797 33.2081L51.8284 33.2223C51.9491 33.2339 52.0481 33.1396 52.0508 33.0139L52.0593 32.6174C52.062 32.4902 52.161 32.3974 52.2816 32.4089C52.4023 32.4205 52.4969 32.5333 52.4942 32.6591L52.4857 33.0555C52.483 33.1827 52.5776 33.2941 52.6982 33.3056L52.8469 33.3198C52.9676 33.3314 53.0622 33.4427 53.0595 33.57C53.0568 33.6972 52.9564 33.7898 52.8371 33.7784L52.6884 33.7642C52.5678 33.7526 52.4688 33.8454 52.4661 33.9726L52.4576 34.3691C52.4549 34.4963 52.3545 34.589 52.2352 34.5775C52.116 34.5661 52.02 34.4532 52.0227 34.3274L52.0312 33.931C52.0339 33.8038 51.9393 33.6924 51.8186 33.6809L51.6699 33.6666C51.5493 33.6551 51.4547 33.5423 51.4574 33.4165ZM39.0033 20.0394C39.0057 19.9285 39.0932 19.8479 39.197 19.8579L39.3261 19.8702C39.4313 19.8803 39.5174 19.7981 39.5197 19.6886L39.5271 19.3425C39.5295 19.2316 39.617 19.151 39.7208 19.1609C39.8246 19.1709 39.9083 19.2693 39.9059 19.3788L39.8985 19.7249C39.8961 19.8359 39.9798 19.9328 40.0836 19.9428L40.2127 19.9551C40.3179 19.9652 40.4001 20.0635 40.3978 20.173C40.3954 20.2839 40.3079 20.3645 40.2041 20.3545L40.0751 20.3422C39.9699 20.3321 39.8838 20.4143 39.8814 20.5237L39.874 20.8699C39.8716 20.9808 39.7842 21.0614 39.6803 21.0514C39.5765 21.0415 39.4929 20.9431 39.4952 20.8336L39.5026 20.4875C39.505 20.3765 39.4213 20.2796 39.3175 20.2696L39.1885 20.2573C39.0832 20.2472 39.001 20.1489 39.0033 20.0394ZM36.2759 19.5262C36.2777 19.4449 36.3408 19.3857 36.4179 19.3931L36.5119 19.4021C36.5891 19.4095 36.6522 19.3503 36.6539 19.2689L36.6593 19.0175C36.6611 18.9361 36.7242 18.8769 36.8013 18.8843C36.8785 18.8917 36.9388 18.9627 36.9371 19.0441L36.9317 19.2955C36.93 19.3769 36.9903 19.4479 37.0675 19.4553L37.1615 19.4643C37.2386 19.4717 37.299 19.5427 37.2972 19.624C37.2955 19.7054 37.2323 19.7646 37.1552 19.7572L37.0612 19.7482C36.984 19.7408 36.9209 19.8 36.9192 19.8813L36.9138 20.1328C36.9121 20.2142 36.8489 20.2733 36.7718 20.266C36.6946 20.2586 36.6343 20.1876 36.636 20.1062L36.6414 19.8547C36.6431 19.7734 36.5828 19.7024 36.5057 19.695L36.4117 19.686C36.3345 19.6786 36.2742 19.6076 36.2759 19.5262ZM26.1152 39.0311C26.1134 39.1124 26.0503 39.1716 25.9732 39.1642L25.8792 39.1552C25.802 39.1478 25.7389 39.207 25.7372 39.2883L25.7318 39.5398C25.73 39.6212 25.6669 39.6804 25.5898 39.673C25.5126 39.6656 25.4523 39.5946 25.454 39.5132L25.4594 39.2617C25.4611 39.1804 25.4008 39.1094 25.3236 39.102L25.2296 39.093C25.1525 39.0856 25.0922 39.0146 25.0939 38.9332C25.0956 38.8519 25.1588 38.7927 25.2359 38.8001L25.3299 38.8091C25.4071 38.8165 25.4702 38.7573 25.4719 38.676L25.4773 38.4245C25.479 38.3431 25.5422 38.2839 25.6193 38.2913C25.6965 38.2987 25.7568 38.3697 25.7551 38.4511L25.7497 38.7026C25.748 38.7839 25.8083 38.8549 25.8854 38.8623L25.9794 38.8713C26.0566 38.8787 26.1169 38.9497 26.1152 39.0311ZM27.2743 26.1216L27.1803 26.1126C27.1031 26.1052 27.04 26.1644 27.0383 26.2457L27.0329 26.4972C27.0312 26.5786 26.968 26.6378 26.8909 26.6304C26.8137 26.623 26.7534 26.552 26.7551 26.4706L26.7605 26.2191C26.7622 26.1378 26.7019 26.0668 26.6248 26.0594L26.5308 26.0504C26.4536 26.043 26.3933 25.972 26.395 25.8906C26.3968 25.8093 26.4599 25.7501 26.537 25.7575L26.631 25.7665C26.7082 25.7739 26.7713 25.7147 26.773 25.6334L26.7784 25.3819C26.7802 25.3005 26.8433 25.2413 26.9204 25.2487C26.9976 25.2561 27.0579 25.3271 27.0562 25.4085L27.0508 25.66C27.0491 25.7413 27.1094 25.8123 27.1866 25.8197L27.2806 25.8287C27.3577 25.8361 27.4181 25.9071 27.4163 25.9885C27.4146 26.0698 27.3514 26.129 27.2743 26.1216ZM28.65 42.2384C28.6473 42.3656 28.5483 42.4584 28.4276 42.4468L28.2789 42.4326C28.1583 42.4211 28.0593 42.5139 28.0566 42.6411L28.0481 43.0375C28.0454 43.1647 27.9464 43.2575 27.8258 43.246C27.7051 43.2344 27.6105 43.1231 27.6132 42.9959L27.6217 42.5994C27.6244 42.4722 27.5284 42.3607 27.4092 42.3493L27.2605 42.3351C27.1398 42.3235 27.0452 42.2122 27.0479 42.085C27.0506 41.9577 27.1496 41.8649 27.2703 41.8765L27.419 41.8907C27.5396 41.9023 27.6386 41.8095 27.6413 41.6823L27.6498 41.2858C27.6525 41.1586 27.7515 41.0658 27.8722 41.0774C27.9928 41.0889 28.0874 41.2003 28.0847 41.3275L28.0762 41.7239C28.0735 41.8511 28.1695 41.9626 28.2888 41.974L28.4375 41.9883C28.5581 41.9998 28.6527 42.1126 28.65 42.2384Z" fill="#0029FE"/>
<path style="mix-blend-mode:screen" d="M75.7736 58.0987C75.7736 58.0987 44.0183 62.9517 6.23486 54.2378C6.23486 54.2378 30.778 58.206 41.677 54.2378C60.2189 47.4812 70.9027 50.511 75.7736 58.0987Z" fill="url(#paint3_linear_50_1069)"/>
<path style="mix-blend-mode:screen" d="M23.8886 18.8729C24.9381 18.8193 25.8531 19.6237 25.9069 20.6693C25.9608 21.715 25.1534 22.6266 24.1039 22.6802C23.0544 22.7339 22.1394 21.9295 22.0855 20.8838C22.0317 19.8382 22.8391 18.9266 23.8886 18.8729Z" fill="url(#paint4_radial_50_1069)"/>
<path d="M24.1309 20.2403C24.4269 20.2403 24.6691 20.4548 24.696 20.7498C24.7229 21.0447 24.4807 21.286 24.2116 21.3128C23.9425 21.3396 23.6734 21.0983 23.6465 20.8034C23.6465 20.5085 23.8618 20.2672 24.1578 20.2403H24.1309Z" fill="#FFFFAB"/>
<path style="mix-blend-mode:screen" d="M26.4992 10.6685C27.5487 10.6149 28.4637 11.4192 28.5175 12.4649C28.5714 13.5106 27.764 14.4222 26.7145 14.4758C25.665 14.5294 24.75 13.7251 24.6961 12.6794C24.6423 11.6337 25.4497 10.7221 26.4992 10.6685Z" fill="url(#paint5_radial_50_1069)"/>
<path d="M26.7144 12.0359C27.0104 12.0359 27.2526 12.2504 27.2795 12.5185C27.2795 12.8135 27.0642 13.0548 26.7951 13.0816C26.526 13.1084 26.2569 12.8671 26.23 12.599C26.23 12.304 26.4453 12.0627 26.7413 12.0359H26.7144Z" fill="#FFFFAB"/>
<path style="mix-blend-mode:screen" d="M24.9653 34.1825C26.0148 34.1289 26.9298 34.9333 26.9836 35.9789C27.0374 37.0246 26.2301 37.9362 25.1806 37.9898C24.131 38.0434 23.216 37.2391 23.1622 36.1934C23.1084 35.1478 23.9157 34.2361 24.9653 34.1825Z" fill="url(#paint6_radial_50_1069)"/>
<path d="M25.1807 35.5499C25.4768 35.5499 25.719 35.7644 25.7459 36.0594C25.7728 36.3543 25.5306 36.5956 25.2346 36.6224C24.9385 36.6224 24.6963 36.4079 24.6694 36.113C24.6694 35.8181 24.8847 35.5767 25.1538 35.5499H25.1807Z" fill="#FFFFAB"/>
<path style="mix-blend-mode:screen" d="M15.9501 6.48585C18.9104 6.29816 21.44 8.55036 21.6284 11.4997C21.8168 14.449 19.5562 16.9693 16.596 17.157C13.6357 17.3447 11.1061 15.0925 10.9177 12.1432C10.7293 9.19385 12.9899 6.67353 15.9501 6.48585Z" fill="url(#paint7_radial_50_1069)"/>
<path d="M16.596 10.3199C17.4033 10.2663 18.1299 10.883 18.1569 11.7142C18.2107 12.5185 17.5917 13.2424 16.7575 13.2693C15.9501 13.3229 15.2235 12.7062 15.1966 11.875C15.1428 11.0707 15.7618 10.3468 16.596 10.3199Z" fill="#FFFFAB"/>
<path style="mix-blend-mode:screen" d="M31.2355 47.2667C32.6349 47.1863 33.8729 48.2588 33.9536 49.653C34.0343 51.0472 32.9579 52.2806 31.5585 52.361C30.1591 52.4414 28.9212 51.3689 28.8404 49.9747C28.7597 48.5805 29.8362 47.3472 31.2355 47.2667Z" fill="url(#paint8_radial_50_1069)"/>
<path d="M31.5585 49.0899C31.9622 49.0899 32.2851 49.3581 32.312 49.7602C32.339 50.1624 32.0429 50.4842 31.6393 50.511C31.2356 50.511 30.9127 50.2428 30.8857 49.8407C30.8857 49.4385 31.1549 49.1167 31.5585 49.0899Z" fill="#FFFFAB"/>
<path style="mix-blend-mode:screen" d="M8.49547 53.9965C9.19516 53.9429 9.81412 54.4791 9.84103 55.203C9.86794 55.927 9.35663 56.5168 8.63003 56.5436C7.90342 56.5705 7.31137 56.061 7.28446 55.3371C7.25755 54.6132 7.76886 54.0233 8.49547 53.9965Z" fill="url(#paint9_radial_50_1069)"/>
<path d="M8.65692 54.9081C8.8453 54.9081 9.00677 55.0422 9.03368 55.2299C9.03368 55.4175 8.89912 55.6052 8.71074 55.6052C8.52236 55.6052 8.33398 55.4712 8.33398 55.2835C8.33398 55.0958 8.46854 54.9081 8.65692 54.9081Z" fill="#FFFFAB"/>
<path style="mix-blend-mode:screen" d="M44.4759 32.0912C45.1756 32.0376 45.7946 32.5738 45.8215 33.2977C45.8753 33.9948 45.3371 34.6115 44.6105 34.6383C43.8839 34.6651 43.2919 34.1557 43.2649 33.4318C43.2111 32.7347 43.7493 32.118 44.4759 32.0912Z" fill="url(#paint10_radial_50_1069)"/>
<path d="M44.6374 33.0028C44.8258 33.0028 44.9872 33.1369 45.0141 33.3246C45.0141 33.5122 44.8796 33.6731 44.6912 33.6999C44.5028 33.6999 44.3414 33.5659 44.3145 33.3782C44.3145 33.1905 44.449 33.0028 44.6374 33.0028Z" fill="#FFFFAB"/>
<path style="mix-blend-mode:screen" d="M26.7144 52.1197C27.2526 52.0929 27.6832 52.4951 27.737 53.0045C27.7639 53.5407 27.3603 53.9697 26.849 54.0233C26.3107 54.0501 25.8802 53.648 25.8263 53.1385C25.7725 52.6291 26.2031 52.1733 26.7144 52.1197Z" fill="url(#paint11_radial_50_1069)"/>
<path d="M26.822 52.79C26.9566 52.79 27.0911 52.8972 27.0911 53.0313C27.0911 53.1653 26.9835 53.2994 26.8489 53.2994C26.7144 53.2994 26.5798 53.1922 26.5798 53.0581C26.5798 52.924 26.6875 52.79 26.822 52.79Z" fill="#FFFFAB"/>
<path style="mix-blend-mode:screen" d="M41.5425 51.3421C42.6459 51.2885 43.5878 52.1197 43.6685 53.219C43.7223 54.3183 42.8881 55.2567 41.7847 55.3371C40.6813 55.4175 39.7394 54.5596 39.6587 53.4603C39.6049 52.361 40.4391 51.4226 41.5425 51.3421Z" fill="url(#paint12_radial_50_1069)"/>
<path d="M41.7848 52.7632C42.0808 52.7632 42.3499 52.9777 42.3768 53.2726C42.3768 53.5675 42.1615 53.8356 41.8655 53.8625C41.5695 53.8625 41.3003 53.648 41.2734 53.353C41.2734 53.0581 41.4887 52.79 41.7848 52.7632Z" fill="#FFFFAB"/>
<path d="M74.0245 60.0292C73.6746 58.9031 76.7156 53.7016 77.4691 53.7284C78.2227 53.7284 77.5499 57.1335 77.0924 57.9379C76.6349 58.7422 74.186 60.5922 74.0245 60.0292Z" fill="white"/>
<path style="mix-blend-mode:screen" d="M7.23071 10.0518C7.23071 10.0518 50.9616 -6.7056 74.2129 5.9228C74.2129 5.9228 76.2582 10.7221 77.2001 18.2563C77.2001 18.2563 69.8533 26.7824 55.9401 27.7477C43.9646 28.552 32.312 13.3229 22.1934 11.446C12.1017 9.56921 7.23071 10.0518 7.23071 10.0518Z" fill="url(#paint13_linear_50_1069)"/>
<path d="M6.34261 13.0816C5.50836 13.2156 3.40928 19.7041 3.51693 20.7766C3.65149 21.8491 6.18115 18.4708 6.5579 16.6744C6.93466 14.878 6.3157 13.0816 6.3157 13.0816H6.34261Z" fill="white"/>
<path d="M6.69267 12.0359C5.67004 11.6337 7.4731 8.8721 9.03395 8.175C10.5948 7.47789 14.4162 6.70034 14.8468 7.39745C15.2774 8.12137 7.84986 12.4649 6.69267 12.0359Z" fill="white"/>
<defs>
<radialGradient id="paint0_radial_50_1069" cx="0" cy="0" r="1" gradientUnits="userSpaceOnUse" gradientTransform="translate(41.0112 80.7724) scale(38.6955 48.7362)">
<stop stop-color="#008CCA"/>
<stop offset="1" stop-color="#003BF1"/>
</radialGradient>
<linearGradient id="paint1_linear_50_1069" x1="40.5199" y1="64.5336" x2="40.5199" y2="0.587231" gradientUnits="userSpaceOnUse">
<stop stop-color="#92FFF1"/>
<stop offset="1" stop-color="#0098FF"/>
</linearGradient>
<linearGradient id="paint2_linear_50_1069" x1="40.52" y1="63.4075" x2="40.52" y2="1.25753" gradientUnits="userSpaceOnUse">
<stop stop-color="#00EFF1"/>
<stop offset="1" stop-color="#0098FF"/>
</linearGradient>
<linearGradient id="paint3_linear_50_1069" x1="75.7736" y1="54.9886" x2="6.23486" y2="54.9886" gradientUnits="userSpaceOnUse">
<stop stop-color="#40FF79"/>
<stop offset="0.1" stop-color="#3BEE71"/>
<stop offset="0.29" stop-color="#31C45D"/>
<stop offset="0.56" stop-color="#20803D"/>
<stop offset="0.88" stop-color="#092411"/>
<stop offset="1"/>
</linearGradient>
<radialGradient id="paint4_radial_50_1069" cx="0" cy="0" r="1" gradientUnits="userSpaceOnUse" gradientTransform="translate(23.966 20.7514) rotate(-93.4326) scale(1.90367 1.91067)">
<stop stop-color="#00B359"/>
<stop offset="0.13" stop-color="#009148"/>
<stop offset="0.34" stop-color="#005D2E"/>
<stop offset="0.54" stop-color="#00351A"/>
<stop offset="0.73" stop-color="#00170B"/>
<stop offset="0.89" stop-color="#000603"/>
<stop offset="1"/>
</radialGradient>
<radialGradient id="paint5_radial_50_1069" cx="0" cy="0" r="1" gradientUnits="userSpaceOnUse" gradientTransform="translate(26.5755 12.565) rotate(-93.4326) scale(1.90367 1.91068)">
<stop stop-color="#00B359"/>
<stop offset="0.13" stop-color="#009148"/>
<stop offset="0.34" stop-color="#005D2E"/>
<stop offset="0.54" stop-color="#00351A"/>
<stop offset="0.73" stop-color="#00170B"/>
<stop offset="0.89" stop-color="#000603"/>
<stop offset="1"/>
</radialGradient>
<radialGradient id="paint6_radial_50_1069" cx="0" cy="0" r="1" gradientUnits="userSpaceOnUse" gradientTransform="translate(25.0205 36.0793) rotate(-93.4326) scale(1.90367 1.91068)">
<stop stop-color="#00B359"/>
<stop offset="0.13" stop-color="#009148"/>
<stop offset="0.34" stop-color="#005D2E"/>
<stop offset="0.54" stop-color="#00351A"/>
<stop offset="0.73" stop-color="#00170B"/>
<stop offset="0.89" stop-color="#000603"/>
<stop offset="1"/>
</radialGradient>
<radialGradient id="paint7_radial_50_1069" cx="0" cy="0" r="1" gradientUnits="userSpaceOnUse" gradientTransform="translate(16.2035 11.7858) rotate(-93.4326) scale(5.33564 5.35527)">
<stop stop-color="#00B359"/>
<stop offset="0.13" stop-color="#009148"/>
<stop offset="0.34" stop-color="#005D2E"/>
<stop offset="0.54" stop-color="#00351A"/>
<stop offset="0.73" stop-color="#00170B"/>
<stop offset="0.89" stop-color="#000603"/>
<stop offset="1"/>
</radialGradient>
<radialGradient id="paint8_radial_50_1069" cx="0" cy="0" r="1" gradientUnits="userSpaceOnUse" gradientTransform="translate(31.3418 49.7774) rotate(-93.4326) scale(2.54717 2.55654)">
<stop stop-color="#00B359"/>
<stop offset="0.13" stop-color="#009148"/>
<stop offset="0.34" stop-color="#005D2E"/>
<stop offset="0.54" stop-color="#00351A"/>
<stop offset="0.73" stop-color="#00170B"/>
<stop offset="0.89" stop-color="#000603"/>
<stop offset="1"/>
</radialGradient>
<radialGradient id="paint9_radial_50_1069" cx="0" cy="0" r="1" gradientUnits="userSpaceOnUse" gradientTransform="translate(8.53857 55.2446) rotate(-93.4326) scale(1.28699 1.29172)">
<stop stop-color="#00B359"/>
<stop offset="0.13" stop-color="#009148"/>
<stop offset="0.34" stop-color="#005D2E"/>
<stop offset="0.54" stop-color="#00351A"/>
<stop offset="0.73" stop-color="#00170B"/>
<stop offset="0.89" stop-color="#000603"/>
<stop offset="1"/>
</radialGradient>
<radialGradient id="paint10_radial_50_1069" cx="0" cy="0" r="1" gradientUnits="userSpaceOnUse" gradientTransform="translate(44.5107 33.3609) rotate(-93.4326) scale(1.28699 1.29172)">
<stop stop-color="#00B359"/>
<stop offset="0.13" stop-color="#009148"/>
<stop offset="0.34" stop-color="#005D2E"/>
<stop offset="0.54" stop-color="#00351A"/>
<stop offset="0.73" stop-color="#00170B"/>
<stop offset="0.89" stop-color="#000603"/>
<stop offset="1"/>
</radialGradient>
<radialGradient id="paint11_radial_50_1069" cx="0" cy="0" r="1" gradientUnits="userSpaceOnUse" gradientTransform="translate(26.7398 53.0597) rotate(-93.4327) scale(0.938427 0.941883)">
<stop stop-color="#00B359"/>
<stop offset="0.13" stop-color="#009148"/>
<stop offset="0.34" stop-color="#005D2E"/>
<stop offset="0.54" stop-color="#00351A"/>
<stop offset="0.73" stop-color="#00170B"/>
<stop offset="0.89" stop-color="#000603"/>
<stop offset="1"/>
</radialGradient>
<radialGradient id="paint12_radial_50_1069" cx="0" cy="0" r="1" gradientUnits="userSpaceOnUse" gradientTransform="translate(41.6358 53.3009) rotate(-93.4327) scale(1.98411 1.99141)">
<stop stop-color="#00B359"/>
<stop offset="0.13" stop-color="#009148"/>
<stop offset="0.34" stop-color="#005D2E"/>
<stop offset="0.54" stop-color="#00351A"/>
<stop offset="0.73" stop-color="#00170B"/>
<stop offset="0.89" stop-color="#000603"/>
<stop offset="1"/>
</radialGradient>
<linearGradient id="paint13_linear_50_1069" x1="7.23071" y1="14.5026" x2="77.2001" y2="14.5026" gradientUnits="userSpaceOnUse">
<stop stop-color="#7ED140"/>
<stop offset="0.11" stop-color="#74C03B"/>
<stop offset="0.34" stop-color="#5A962E"/>
<stop offset="0.65" stop-color="#315219"/>
<stop offset="1"/>
</linearGradient>
</defs>
</svg>
