<svg width="60" height="52" viewBox="0 0 60 52" fill="none" xmlns="http://www.w3.org/2000/svg">
<path d="M0.991263 41.5229C3.02979 49.486 53.9527 55.4784 58.171 47.2137C62.0059 39.6929 59.1196 8.98662 55.8297 3.61754C51.3692 -3.7021 7.30869 1.42567 3.69585 7.19693C0.325209 12.566 -1.128 33.2782 0.991263 41.5229Z" fill="url(#paint0_radial_621_37148)"/>
<path d="M1.15263 40.1153C3.19116 47.7969 53.8113 52.1002 58.0094 44.117C61.8241 36.8577 58.9984 9.10739 55.7287 3.91929C51.2883 -3.11883 7.38932 1.82796 3.79666 7.37802C0.426024 12.5661 -0.946452 32.1522 1.15263 40.1153Z" fill="url(#paint1_linear_621_37148)"/>
<path d="M1.7783 39.4518C3.77646 46.9122 53.3269 51.1954 57.4443 43.4534C61.1782 36.4153 58.3727 9.36882 55.1837 4.3416C50.8241 -2.51555 7.87371 2.29049 4.3416 7.67968C1.0517 12.7069 -0.300595 31.7098 1.7783 39.4518Z" fill="url(#paint2_linear_621_37148)"/>
<path d="M51.75 37.5533C37.0398 29.263 22.3295 45.8568 7.61934 37.5533V9.89702C22.3295 18.2005 37.0398 1.59351 51.75 9.89702V37.5533Z" fill="#F42525"/>
<path d="M16.6922 20.0841C17.0901 21.2249 17.5013 22.3391 17.8992 23.4533C16.9442 22.7901 15.9892 22.0605 15.0209 21.2647C15.0209 21.2647 15.0209 21.2647 15.0209 21.2514C15.0209 21.2514 15.0209 21.2514 15.0209 21.2647C14.0658 21.8881 13.1108 22.4319 12.1425 22.8962C12.5404 21.8748 12.9516 20.827 13.3496 19.7658C13.3496 19.7658 13.3761 19.7658 13.3761 19.7525C13.3761 19.7525 13.3761 19.7525 13.3628 19.7525C12.3813 18.9036 11.3864 17.9751 10.4049 16.9538C11.5854 17.3915 12.7792 17.6833 13.9597 17.8557C14.2913 16.7681 14.6097 15.6671 14.9413 14.5662C15.3127 15.7334 15.6708 16.9007 16.0422 18.0414C17.236 18.0945 18.4431 18.0414 19.6369 17.9088C18.6421 18.6781 17.6605 19.4077 16.6657 20.0576C16.6657 20.0576 16.6922 20.0709 16.6922 20.0841Z" fill="white"/>
<path d="M24.5978 22.5114C24.6641 22.2594 24.7305 22.0074 24.7968 21.7554C24.8764 21.9676 24.9427 22.1798 25.0223 22.3921C24.9559 22.6308 24.8896 22.8563 24.8233 23.0951C24.7437 22.8961 24.6774 22.6971 24.5978 22.5114Z" fill="white"/>
<path d="M25.0221 22.3921C25.2609 22.3391 25.5129 22.2727 25.7517 22.2064C25.5527 22.3921 25.3537 22.5778 25.1415 22.7635C24.916 22.8166 24.6905 22.8696 24.465 22.9094C24.6507 22.737 24.8364 22.5646 25.0221 22.3789V22.3921Z" fill="white"/>
<path d="M25.1549 22.7767C25.2345 22.9889 25.3141 23.2011 25.4069 23.4134C25.208 23.3205 25.009 23.2277 24.8233 23.1216C24.757 22.9226 24.6774 22.7236 24.6111 22.5247C24.7968 22.6175 24.9825 22.6971 25.1682 22.7767H25.1549Z" fill="white"/>
<path d="M24.611 22.4982C24.3723 22.5512 24.1202 22.6175 23.8815 22.6706C24.0804 22.7635 24.2794 22.8563 24.4916 22.9359C24.7171 22.8828 24.9426 22.8165 25.1814 22.7635C24.9957 22.6839 24.81 22.591 24.6243 22.4982H24.611Z" fill="white"/>
<path d="M24.4784 22.9358C24.3988 23.1879 24.3192 23.4399 24.2264 23.6787C24.4253 23.493 24.611 23.294 24.81 23.1083C24.8763 22.8695 24.9559 22.644 25.0222 22.4053C24.8365 22.5777 24.6508 22.7501 24.4651 22.9358H24.4784Z" fill="white"/>
<path d="M21.2817 26.6633C21.4144 26.4378 21.547 26.2123 21.6797 25.9735C21.6797 26.2123 21.6797 26.4643 21.6929 26.7031C21.5736 26.9153 21.4409 27.1275 21.3083 27.3265C21.3083 27.101 21.2817 26.8755 21.2685 26.65L21.2817 26.6633Z" fill="white"/>
<path d="M21.6929 26.7031C21.9316 26.7296 22.1571 26.7561 22.3959 26.7827C22.1704 26.902 21.9316 27.0214 21.7062 27.1275C21.4939 27.101 21.2684 27.0612 21.0562 27.0214C21.2684 26.9153 21.4807 26.8092 21.6929 26.6898V26.7031Z" fill="white"/>
<path d="M21.7062 27.1408C21.7062 27.3796 21.7327 27.6316 21.746 27.8703C21.6001 27.6979 21.4542 27.5387 21.3083 27.3663C21.3083 27.1408 21.295 26.9153 21.2818 26.6898C21.4277 26.849 21.5603 26.9949 21.7062 27.1541V27.1408Z" fill="white"/>
<path d="M21.295 26.6499C21.0562 26.6234 20.8307 26.5836 20.592 26.5438C20.7511 26.703 20.8971 26.8754 21.0562 27.0346C21.2817 27.0611 21.494 27.0877 21.7194 27.1009C21.5735 26.9418 21.4409 26.7958 21.295 26.6367V26.6499Z" fill="white"/>
<path d="M21.043 27.0478C20.8971 27.2733 20.7512 27.4856 20.6053 27.7111C20.8307 27.5917 21.0562 27.4723 21.295 27.3529C21.4276 27.1407 21.5603 26.9417 21.6797 26.7295C21.4674 26.8356 21.2552 26.9417 21.043 27.0478Z" fill="white"/>
<path d="M25.4733 17.9883C25.659 17.7894 25.8447 17.5771 26.0304 17.3782C25.9641 17.6302 25.8978 17.8822 25.8314 18.1342C25.659 18.3199 25.4733 18.5056 25.3009 18.7046C25.3539 18.4659 25.407 18.2404 25.4733 18.0016V17.9883Z" fill="white"/>
<path d="M25.8313 18.1343C26.0303 18.2139 26.2425 18.3067 26.4415 18.3863C26.2027 18.4526 25.9507 18.5189 25.7119 18.5853C25.5262 18.5057 25.3405 18.4128 25.1548 18.3332C25.3803 18.2669 25.6058 18.2139 25.8313 18.1475V18.1343Z" fill="white"/>
<path d="M25.712 18.5853C25.659 18.8373 25.5927 19.0893 25.5263 19.3413C25.4468 19.1291 25.3672 18.9301 25.2743 18.7179C25.3274 18.4791 25.3937 18.2537 25.46 18.0149C25.5396 18.2006 25.6192 18.3996 25.712 18.5853Z" fill="white"/>
<path d="M25.4865 17.9883C25.2875 17.9087 25.0753 17.8159 24.8763 17.723C24.9692 17.922 25.062 18.1342 25.1549 18.3332C25.3406 18.4128 25.5395 18.4791 25.7252 18.5587C25.6457 18.373 25.5661 18.174 25.4865 17.9883Z" fill="white"/>
<path d="M25.1416 18.3465C24.9427 18.5454 24.7437 18.7311 24.558 18.9301C24.7968 18.8638 25.0488 18.7975 25.2875 18.7179C25.4732 18.5322 25.6457 18.3465 25.8314 18.1608C25.6059 18.2271 25.3804 18.2801 25.1549 18.3465H25.1416Z" fill="white"/>
<path d="M23.404 14.4335C23.5366 14.1947 23.6693 13.9692 23.8019 13.7305C23.8019 13.9692 23.8019 14.2213 23.8019 14.46C23.6693 14.6722 23.5499 14.8977 23.4173 15.11C23.4173 14.8845 23.404 14.659 23.3907 14.4335H23.404Z" fill="white"/>
<path d="M23.8151 14.4599C24.0539 14.4732 24.2794 14.4997 24.5181 14.513C24.2926 14.6456 24.0539 14.765 23.8151 14.8844C23.6029 14.8579 23.3774 14.8313 23.1652 14.8048C23.3774 14.6854 23.5896 14.566 23.8151 14.4467V14.4599Z" fill="white"/>
<path d="M23.8152 14.8976C23.8152 15.1363 23.8417 15.3883 23.855 15.6271C23.7091 15.4679 23.5632 15.2955 23.4173 15.1363C23.4173 14.9108 23.4173 14.6853 23.404 14.4598C23.5366 14.6057 23.6826 14.7517 23.8152 14.9108V14.8976Z" fill="white"/>
<path d="M23.404 14.4335C23.1652 14.407 22.9397 14.3937 22.701 14.3672C22.8601 14.5264 23.006 14.6855 23.1652 14.8447C23.3907 14.858 23.6029 14.8712 23.8284 14.8845C23.6958 14.7386 23.5499 14.5927 23.4172 14.4335H23.404Z" fill="white"/>
<path d="M23.1652 14.8313C23.0193 15.0568 22.8734 15.2823 22.7275 15.5078C22.953 15.3884 23.1918 15.2558 23.4172 15.1231C23.5499 14.9109 23.6825 14.6987 23.8152 14.4865C23.603 14.6058 23.3907 14.7252 23.1652 14.8313Z" fill="white"/>
<path style="mix-blend-mode:multiply" d="M51.5776 19.2617V28.5733V37.8318C36.8806 29.5681 22.1837 46.1353 7.5 37.8318V10.1623C22.1837 18.4658 36.8806 1.88534 51.5776 10.1623V19.2617Z" fill="url(#paint3_linear_621_37148)"/>
<path style="mix-blend-mode:overlay" opacity="0.25" d="M51.5776 19.2617V28.5733V37.8318C36.8806 29.5681 22.1837 46.1353 7.5 37.8318V10.1623C22.1837 18.4658 36.8806 1.88534 51.5776 10.1623V19.2617Z" fill="url(#paint4_linear_621_37148)"/>
<path style="mix-blend-mode:screen" d="M56.4553 43.574C56.4553 43.574 32.6388 47.2137 4.30122 40.6783C4.30122 40.6783 22.7085 43.6545 30.8828 40.6783C44.7892 35.6109 52.8021 37.8832 56.4553 43.574Z" fill="url(#paint5_linear_621_37148)"/>
<path style="mix-blend-mode:screen" d="M17.5416 14.1547C18.3287 14.1145 19.015 14.7178 19.0553 15.502C19.0957 16.2863 18.4902 16.97 17.703 17.0102C16.9159 17.0504 16.2296 16.4471 16.1893 15.6629C16.1489 14.8787 16.7544 14.1949 17.5416 14.1547Z" fill="url(#paint6_radial_621_37148)"/>
<path d="M17.7232 15.1804C17.9452 15.1804 18.1268 15.3413 18.147 15.5625C18.1672 15.7837 17.9856 15.9647 17.7837 15.9848C17.5819 16.0049 17.3801 15.8239 17.3599 15.6027C17.3599 15.3815 17.5213 15.2005 17.7434 15.1804H17.7232Z" fill="#FFFFAB"/>
<path style="mix-blend-mode:screen" d="M19.4995 8.00141C20.2866 7.96119 20.9729 8.56446 21.0132 9.34871C21.0536 10.133 20.4481 10.8167 19.6609 10.8569C18.8738 10.8971 18.1876 10.2938 18.1472 9.50958C18.1068 8.72533 18.7123 8.04163 19.4995 8.00141Z" fill="url(#paint7_radial_621_37148)"/>
<path d="M19.6609 9.02698C19.8829 9.02698 20.0646 9.18785 20.0848 9.38894C20.0848 9.61014 19.9233 9.79112 19.7215 9.81123C19.5196 9.83133 19.3178 9.65035 19.2976 9.44926C19.2976 9.22807 19.4591 9.04709 19.6811 9.02698H19.6609Z" fill="#FFFFAB"/>
<path style="mix-blend-mode:screen" d="M18.3489 25.6369C19.1361 25.5967 19.8223 26.2 19.8627 26.9842C19.903 27.7685 19.2975 28.4522 18.5104 28.4924C17.7232 28.5326 17.037 27.9293 16.9966 27.1451C16.9563 26.3608 17.5618 25.6771 18.3489 25.6369Z" fill="url(#paint8_radial_621_37148)"/>
<path d="M18.5105 26.6625C18.7325 26.6625 18.9141 26.8233 18.9343 27.0445C18.9545 27.2657 18.7729 27.4467 18.5508 27.4668C18.3288 27.4668 18.1472 27.306 18.127 27.0848C18.127 26.8636 18.2885 26.6826 18.4903 26.6625H18.5105Z" fill="#FFFFAB"/>
<path style="mix-blend-mode:screen" d="M11.5876 4.8644C13.8077 4.72364 15.705 6.41278 15.8463 8.62477C15.9875 10.8367 14.2921 12.727 12.072 12.8677C9.85177 13.0085 7.95453 11.3194 7.81324 9.10738C7.67196 6.8954 9.36737 5.00516 11.5876 4.8644Z" fill="url(#paint9_radial_621_37148)"/>
<path d="M12.072 7.73998C12.6775 7.69977 13.2224 8.16227 13.2426 8.78565C13.283 9.38892 12.8188 9.93186 12.1931 9.95196C11.5876 9.99218 11.0426 9.52968 11.0224 8.9063C10.9821 8.30303 11.4463 7.76009 12.072 7.73998Z" fill="#FFFFAB"/>
<path style="mix-blend-mode:screen" d="M23.0517 35.4502C24.1013 35.3899 25.0297 36.1942 25.0903 37.2399C25.1508 38.2856 24.3435 39.2106 23.2939 39.2709C22.2444 39.3312 21.316 38.5269 21.2554 37.4812C21.1949 36.4355 22.0022 35.5105 23.0517 35.4502Z" fill="url(#paint10_radial_621_37148)"/>
<path d="M23.294 36.8176C23.5967 36.8176 23.8389 37.0187 23.8591 37.3203C23.8793 37.622 23.6573 37.8633 23.3545 37.8834C23.0518 37.8834 22.8096 37.6823 22.7894 37.3807C22.7894 37.079 22.9912 36.8377 23.294 36.8176Z" fill="#FFFFAB"/>
<path style="mix-blend-mode:screen" d="M5.99668 40.4975C6.52145 40.4573 6.98567 40.8595 7.00585 41.4024C7.02604 41.9454 6.64255 42.3878 6.0976 42.4079C5.55264 42.428 5.10861 42.0459 5.08842 41.503C5.06824 40.96 5.45172 40.5176 5.99668 40.4975Z" fill="url(#paint11_radial_621_37148)"/>
<path d="M6.11784 41.1812C6.25913 41.1812 6.38023 41.2817 6.40041 41.4225C6.40041 41.5632 6.29949 41.704 6.15821 41.704C6.01692 41.704 5.87564 41.6034 5.87564 41.4627C5.87564 41.3219 5.97656 41.1812 6.11784 41.1812Z" fill="#FFFFAB"/>
<path style="mix-blend-mode:screen" d="M32.9819 24.0684C33.5067 24.0282 33.9709 24.4304 33.9911 24.9733C34.0315 25.4962 33.6278 25.9587 33.0828 25.9788C32.5379 25.9989 32.0939 25.6168 32.0737 25.0739C32.0333 24.5511 32.437 24.0886 32.9819 24.0684Z" fill="url(#paint12_radial_621_37148)"/>
<path d="M33.1031 24.7521C33.2444 24.7521 33.3655 24.8526 33.3857 24.9934C33.3857 25.1341 33.2847 25.2548 33.1435 25.2749C33.0022 25.2749 32.8811 25.1744 32.8609 25.0336C32.8609 24.8928 32.9618 24.7521 33.1031 24.7521Z" fill="#FFFFAB"/>
<path style="mix-blend-mode:screen" d="M19.6609 39.0898C20.0646 39.0697 20.3875 39.3713 20.4279 39.7534C20.4481 40.1556 20.1453 40.4773 19.7618 40.5175C19.3582 40.5377 19.0352 40.236 18.9949 39.854C18.9545 39.4719 19.2774 39.13 19.6609 39.0898Z" fill="url(#paint13_radial_621_37148)"/>
<path d="M19.7416 39.5925C19.8426 39.5925 19.9435 39.673 19.9435 39.7735C19.9435 39.8741 19.8628 39.9746 19.7618 39.9746C19.6609 39.9746 19.56 39.8942 19.56 39.7936C19.56 39.6931 19.6407 39.5925 19.7416 39.5925Z" fill="#FFFFAB"/>
<path style="mix-blend-mode:screen" d="M30.782 38.5066C31.6095 38.4664 32.3159 39.0898 32.3765 39.9142C32.4169 40.7387 31.7912 41.4425 30.9636 41.5028C30.1361 41.5632 29.4297 40.9197 29.3691 40.0952C29.3288 39.2707 29.9545 38.5669 30.782 38.5066Z" fill="url(#paint14_radial_621_37148)"/>
<path d="M30.9636 39.5724C31.1856 39.5724 31.3874 39.7333 31.4076 39.9545C31.4076 40.1757 31.2462 40.3767 31.0241 40.3969C30.8021 40.3969 30.6003 40.236 30.5801 40.0148C30.5801 39.7936 30.7416 39.5925 30.9636 39.5724Z" fill="#FFFFAB"/>
<path d="M55.1434 45.0219C54.8811 44.1774 57.1618 40.2762 57.7269 40.2963C58.2921 40.2963 57.7875 42.8502 57.4444 43.4534C57.1012 44.0567 55.2645 45.4442 55.1434 45.0219Z" fill="white"/>
<path style="mix-blend-mode:screen" d="M5.04807 7.5389C5.04807 7.5389 37.8462 -5.02918 55.2847 4.44212C55.2847 4.44212 56.8187 8.04162 57.5251 13.6922C57.5251 13.6922 52.015 20.0869 41.5801 20.8108C32.5985 21.4141 23.8591 9.99219 16.2701 8.58456C8.70128 7.17694 5.04807 7.5389 5.04807 7.5389Z" fill="url(#paint15_linear_621_37148)"/>
<path d="M4.38199 9.81116C3.7563 9.9117 2.18199 14.7781 2.26273 15.5824C2.36365 16.3868 4.26089 13.853 4.54346 12.5058C4.82603 11.1585 4.36181 9.81116 4.36181 9.81116H4.38199Z" fill="white"/>
<path d="M4.64443 9.0269C3.87746 8.72527 5.22975 6.65405 6.4004 6.13122C7.57104 5.60839 10.4371 5.02523 10.76 5.54806C11.083 6.091 5.51232 9.34865 4.64443 9.0269Z" fill="white"/>
<defs>
<radialGradient id="paint0_radial_621_37148" cx="0" cy="0" r="1" gradientUnits="userSpaceOnUse" gradientTransform="translate(30.3834 60.5793) scale(29.0216 36.5522)">
<stop stop-color="#008CCA"/>
<stop offset="1" stop-color="#003BF1"/>
</radialGradient>
<linearGradient id="paint1_linear_621_37148" x1="30.015" y1="48.4002" x2="30.015" y2="0.440445" gradientUnits="userSpaceOnUse">
<stop stop-color="#92FFF1"/>
<stop offset="1" stop-color="#0098FF"/>
</linearGradient>
<linearGradient id="paint2_linear_621_37148" x1="30.015" y1="47.5557" x2="30.015" y2="0.943188" gradientUnits="userSpaceOnUse">
<stop stop-color="#00EFF1"/>
<stop offset="1" stop-color="#0098FF"/>
</linearGradient>
<linearGradient id="paint3_linear_621_37148" x1="7.48674" y1="23.9971" x2="51.5776" y2="23.9971" gradientUnits="userSpaceOnUse">
<stop stop-color="white"/>
<stop offset="0.13" stop-color="#F6F6F6"/>
<stop offset="0.34" stop-color="#DFE0E0"/>
<stop offset="0.54" stop-color="#C4C5C6"/>
<stop offset="0.57" stop-color="#C1C2C3"/>
<stop offset="0.69" stop-color="#BEBFC0"/>
<stop offset="0.91" stop-color="white"/>
</linearGradient>
<linearGradient id="paint4_linear_621_37148" x1="7.48674" y1="23.9971" x2="51.5776" y2="23.9971" gradientUnits="userSpaceOnUse">
<stop stop-color="white"/>
<stop offset="0.13" stop-color="#F6F6F6"/>
<stop offset="0.34" stop-color="#DFE0E0"/>
<stop offset="0.54" stop-color="#C4C5C6"/>
<stop offset="0.57" stop-color="#C1C2C3"/>
<stop offset="0.69" stop-color="#BEBFC0"/>
<stop offset="0.91" stop-color="white"/>
</linearGradient>
<linearGradient id="paint5_linear_621_37148" x1="56.4553" y1="41.2414" x2="4.30122" y2="41.2414" gradientUnits="userSpaceOnUse">
<stop stop-color="#40FF79"/>
<stop offset="0.1" stop-color="#3BEE71"/>
<stop offset="0.29" stop-color="#31C45D"/>
<stop offset="0.56" stop-color="#20803D"/>
<stop offset="0.88" stop-color="#092411"/>
<stop offset="1"/>
</linearGradient>
<radialGradient id="paint6_radial_621_37148" cx="0" cy="0" r="1" gradientUnits="userSpaceOnUse" gradientTransform="translate(17.5996 15.5636) rotate(-93.4326) scale(1.42775 1.43301)">
<stop stop-color="#00B359"/>
<stop offset="0.13" stop-color="#009148"/>
<stop offset="0.34" stop-color="#005D2E"/>
<stop offset="0.54" stop-color="#00351A"/>
<stop offset="0.73" stop-color="#00170B"/>
<stop offset="0.89" stop-color="#000603"/>
<stop offset="1"/>
</radialGradient>
<radialGradient id="paint7_radial_621_37148" cx="0" cy="0" r="1" gradientUnits="userSpaceOnUse" gradientTransform="translate(19.5567 9.42377) rotate(-93.4326) scale(1.42775 1.43301)">
<stop stop-color="#00B359"/>
<stop offset="0.13" stop-color="#009148"/>
<stop offset="0.34" stop-color="#005D2E"/>
<stop offset="0.54" stop-color="#00351A"/>
<stop offset="0.73" stop-color="#00170B"/>
<stop offset="0.89" stop-color="#000603"/>
<stop offset="1"/>
</radialGradient>
<radialGradient id="paint8_radial_621_37148" cx="0" cy="0" r="1" gradientUnits="userSpaceOnUse" gradientTransform="translate(18.3903 27.0595) rotate(-93.4326) scale(1.42775 1.43301)">
<stop stop-color="#00B359"/>
<stop offset="0.13" stop-color="#009148"/>
<stop offset="0.34" stop-color="#005D2E"/>
<stop offset="0.54" stop-color="#00351A"/>
<stop offset="0.73" stop-color="#00170B"/>
<stop offset="0.89" stop-color="#000603"/>
<stop offset="1"/>
</radialGradient>
<radialGradient id="paint9_radial_621_37148" cx="0" cy="0" r="1" gradientUnits="userSpaceOnUse" gradientTransform="translate(11.7776 8.83939) rotate(-93.4326) scale(4.00173 4.01646)">
<stop stop-color="#00B359"/>
<stop offset="0.13" stop-color="#009148"/>
<stop offset="0.34" stop-color="#005D2E"/>
<stop offset="0.54" stop-color="#00351A"/>
<stop offset="0.73" stop-color="#00170B"/>
<stop offset="0.89" stop-color="#000603"/>
<stop offset="1"/>
</radialGradient>
<radialGradient id="paint10_radial_621_37148" cx="0" cy="0" r="1" gradientUnits="userSpaceOnUse" gradientTransform="translate(23.1314 37.3332) rotate(-93.4326) scale(1.91037 1.9174)">
<stop stop-color="#00B359"/>
<stop offset="0.13" stop-color="#009148"/>
<stop offset="0.34" stop-color="#005D2E"/>
<stop offset="0.54" stop-color="#00351A"/>
<stop offset="0.73" stop-color="#00170B"/>
<stop offset="0.89" stop-color="#000603"/>
<stop offset="1"/>
</radialGradient>
<radialGradient id="paint11_radial_621_37148" cx="0" cy="0" r="1" gradientUnits="userSpaceOnUse" gradientTransform="translate(6.02901 41.4336) rotate(-93.4326) scale(0.965241 0.968794)">
<stop stop-color="#00B359"/>
<stop offset="0.13" stop-color="#009148"/>
<stop offset="0.34" stop-color="#005D2E"/>
<stop offset="0.54" stop-color="#00351A"/>
<stop offset="0.73" stop-color="#00170B"/>
<stop offset="0.89" stop-color="#000603"/>
<stop offset="1"/>
</radialGradient>
<radialGradient id="paint12_radial_621_37148" cx="0" cy="0" r="1" gradientUnits="userSpaceOnUse" gradientTransform="translate(33.008 25.0207) rotate(-93.4326) scale(0.96524 0.968793)">
<stop stop-color="#00B359"/>
<stop offset="0.13" stop-color="#009148"/>
<stop offset="0.34" stop-color="#005D2E"/>
<stop offset="0.54" stop-color="#00351A"/>
<stop offset="0.73" stop-color="#00170B"/>
<stop offset="0.89" stop-color="#000603"/>
<stop offset="1"/>
</radialGradient>
<radialGradient id="paint13_radial_621_37148" cx="0" cy="0" r="1" gradientUnits="userSpaceOnUse" gradientTransform="translate(19.68 39.7948) rotate(-93.4327) scale(0.703821 0.706412)">
<stop stop-color="#00B359"/>
<stop offset="0.13" stop-color="#009148"/>
<stop offset="0.34" stop-color="#005D2E"/>
<stop offset="0.54" stop-color="#00351A"/>
<stop offset="0.73" stop-color="#00170B"/>
<stop offset="0.89" stop-color="#000603"/>
<stop offset="1"/>
</radialGradient>
<radialGradient id="paint14_radial_621_37148" cx="0" cy="0" r="1" gradientUnits="userSpaceOnUse" gradientTransform="translate(30.852 39.9756) rotate(-93.4327) scale(1.48808 1.49356)">
<stop stop-color="#00B359"/>
<stop offset="0.13" stop-color="#009148"/>
<stop offset="0.34" stop-color="#005D2E"/>
<stop offset="0.54" stop-color="#00351A"/>
<stop offset="0.73" stop-color="#00170B"/>
<stop offset="0.89" stop-color="#000603"/>
<stop offset="1"/>
</radialGradient>
<linearGradient id="paint15_linear_621_37148" x1="5.04807" y1="10.877" x2="57.5251" y2="10.877" gradientUnits="userSpaceOnUse">
<stop stop-color="#7ED140"/>
<stop offset="0.11" stop-color="#74C03B"/>
<stop offset="0.34" stop-color="#5A962E"/>
<stop offset="0.65" stop-color="#315219"/>
<stop offset="1"/>
</linearGradient>
</defs>
</svg>
