<svg width="361" height="197" viewBox="0 0 361 197" fill="none" xmlns="http://www.w3.org/2000/svg">
<path d="M5.29699 8.35992C-0.889881 15.4779 -1.88309 179.985 3.51749 189.131C8.54562 197.635 344.004 198.67 353.708 189.834C363.413 180.999 362.419 14.6503 353.377 6.47696C344.355 -1.67564 15.4153 -3.26892 5.29699 8.35992Z" fill="url(#paint0_linear_127_1634)"/>
<path d="M10.1389 12.4151C4.46937 18.7468 5.69019 178.226 10.6562 186.358C15.2705 193.91 337.941 194.841 346.859 186.978C355.777 179.115 357.184 16.3259 348.908 9.08371C340.631 1.84155 19.4089 2.08985 10.1389 12.4151Z" fill="url(#paint1_radial_127_1634)"/>
<defs>
<linearGradient id="paint0_linear_127_1634" x1="280.299" y1="64.0004" x2="280.299" y2="0.000396729" gradientUnits="userSpaceOnUse">
<stop stop-color="#008EC2"/>
<stop offset="1" stop-color="#002092"/>
</linearGradient>
<radialGradient id="paint1_radial_127_1634" cx="0" cy="0" r="1" gradientUnits="userSpaceOnUse" gradientTransform="translate(279.927 55.1025) rotate(-0.477872) scale(252.082 258.429)">
<stop stop-color="#00D3C2"/>
<stop offset="1" stop-color="#0083C2"/>
</radialGradient>
</defs>
</svg>
