<svg width="56" height="46" viewBox="0 0 56 46" fill="none" xmlns="http://www.w3.org/2000/svg">
<path d="M0.924165 38.8015C2.83282 46.2473 48.976 48.3342 52.9087 40.5947C56.4743 33.5684 55.0271 8.3889 51.9753 3.37607C47.8119 -3.46151 6.80742 1.34157 3.44107 6.72145C0.29494 11.7448 -1.04741 31.083 0.924165 38.8015Z" fill="url(#paint0_radial_74_1962)"/>
<path d="M1.08181 37.4801C2.97997 44.6533 48.8505 45.1671 52.7622 37.7108C56.3173 30.9361 54.9225 8.51476 51.8813 3.66972C47.7389 -2.91617 6.88117 1.70864 3.5253 6.89974C0.400144 11.7448 -0.889768 30.0447 1.08181 37.4801Z" fill="url(#paint1_linear_74_1962)"/>
<path d="M1.64775 36.8508C3.50396 43.8143 48.3887 44.3072 52.2165 37.0711C55.6982 30.4957 54.3244 8.73495 51.3565 4.03673C47.298 -2.36039 7.33175 2.13857 4.04929 7.17237C0.987063 11.8706 -0.271388 29.6357 1.64775 36.8508Z" fill="url(#paint2_linear_74_1962)"/>
<path style="mix-blend-mode:screen" d="M51.3041 37.2074C51.3041 37.2074 30.3719 44.1184 4.00732 38.0254C4.00732 38.0254 21.1327 40.8045 28.7569 38.0254C41.6979 33.2957 47.9063 31.901 51.3041 37.2074Z" fill="url(#paint3_linear_74_1962)"/>
<path style="mix-blend-mode:screen" d="M16.3295 13.2234C17.0636 13.1815 17.7033 13.7373 17.7453 14.4819C17.7872 15.216 17.2314 15.8557 16.4868 15.8977C15.7422 15.9396 15.113 15.3838 15.0711 14.6392C15.0291 13.8946 15.5849 13.2654 16.3295 13.2234Z" fill="url(#paint4_radial_74_1962)"/>
<path d="M16.4867 14.1778C16.686 14.1673 16.8642 14.3246 16.8747 14.5239C16.8852 14.7231 16.7279 14.9014 16.5287 14.9119C16.3294 14.9224 16.1511 14.7651 16.1406 14.5658C16.1301 14.3666 16.2875 14.1883 16.4867 14.1778Z" fill="#FFFFAB"/>
<path style="mix-blend-mode:screen" d="M18.144 7.4765C18.8781 7.43455 19.5178 7.99037 19.5597 8.73495C19.6017 9.46905 19.0459 10.1088 18.3013 10.1507C17.5672 10.1927 16.9275 9.63684 16.8855 8.89226C16.8436 8.15816 17.3994 7.51845 18.144 7.4765Z" fill="url(#paint5_radial_74_1962)"/>
<path d="M18.3119 8.44126C18.5112 8.43077 18.6894 8.58808 18.6999 8.78733C18.7104 8.98659 18.5531 9.16487 18.3539 9.17536C18.1546 9.18584 17.9763 9.02854 17.9658 8.82928C17.9553 8.63003 18.1126 8.45175 18.3119 8.44126Z" fill="#FFFFAB"/>
<path style="mix-blend-mode:screen" d="M17.0742 23.9517C17.8082 23.9097 18.448 24.4656 18.4899 25.2101C18.5319 25.9442 17.976 26.5839 17.2315 26.6259C16.4974 26.6678 15.8577 26.112 15.8157 25.3674C15.7738 24.6333 16.3296 23.9936 17.0742 23.9517Z" fill="url(#paint6_radial_74_1962)"/>
<path d="M17.2313 24.9165C17.4306 24.906 17.6089 25.0633 17.6194 25.2626C17.6298 25.4618 17.4725 25.6401 17.2733 25.6506C17.074 25.6611 16.8957 25.5038 16.8853 25.3045C16.8748 25.1053 17.0321 24.927 17.2313 24.9165Z" fill="#FFFFAB"/>
<path style="mix-blend-mode:screen" d="M10.7819 4.54013C12.8479 4.41429 14.6202 5.98735 14.7461 8.05331C14.8719 10.1193 13.2988 11.8916 11.2329 12.0174C9.16694 12.1433 7.39462 10.5702 7.26877 8.50425C7.14293 6.4383 8.71599 4.66598 10.7819 4.54013Z" fill="url(#paint7_radial_74_1962)"/>
<path d="M11.2328 7.2248C11.7991 7.19334 12.292 7.62331 12.3339 8.2001C12.3654 8.7664 11.9354 9.25929 11.3586 9.30124C10.7923 9.3327 10.2994 8.90273 10.2575 8.32594C10.226 7.75964 10.656 7.26674 11.2328 7.2248Z" fill="#FFFFAB"/>
<path style="mix-blend-mode:screen" d="M21.458 33.1174C22.4438 33.0545 23.2932 33.8096 23.3456 34.7954C23.4086 35.7812 22.6535 36.6306 21.6677 36.683C20.6819 36.746 19.8325 35.9909 19.78 35.0051C19.7171 34.0193 20.4722 33.1699 21.458 33.1174Z" fill="url(#paint8_radial_74_1962)"/>
<path d="M21.668 34.3968C21.9406 34.3759 22.1713 34.5856 22.1923 34.8583C22.2133 35.1309 22.0035 35.3616 21.7309 35.3826C21.4582 35.4036 21.2275 35.1939 21.2065 34.9212C21.1856 34.6485 21.3953 34.4178 21.668 34.3968Z" fill="#FFFFAB"/>
<path style="mix-blend-mode:screen" d="M5.58055 37.8367C6.07344 37.8052 6.49292 38.1827 6.52438 38.6756C6.55584 39.1685 6.17831 39.588 5.68542 39.6195C5.19252 39.6509 4.77304 39.2734 4.74158 38.7805C4.71012 38.2876 5.08765 37.8681 5.58055 37.8367Z" fill="url(#paint9_radial_74_1962)"/>
<path d="M5.69605 38.4763C5.83238 38.4763 5.94774 38.5707 5.95822 38.707C5.95822 38.8434 5.86384 38.9587 5.72751 38.9692C5.59118 38.9692 5.47582 38.8748 5.46533 38.7385C5.46533 38.6022 5.55972 38.4868 5.69605 38.4763Z" fill="#FFFFAB"/>
<path style="mix-blend-mode:screen" d="M30.6972 22.494C31.1901 22.4626 31.6096 22.8401 31.6411 23.333C31.6725 23.8259 31.295 24.2454 30.8021 24.2768C30.3092 24.3083 29.8897 23.9308 29.8583 23.4379C29.8268 22.945 30.2044 22.5255 30.6972 22.494Z" fill="url(#paint10_radial_74_1962)"/>
<path d="M30.8127 23.1338C30.9491 23.1338 31.0644 23.2281 31.0749 23.3645C31.0749 23.5008 30.9805 23.6162 30.8442 23.6267C30.7079 23.6371 30.5925 23.5323 30.582 23.3959C30.582 23.2596 30.6764 23.1442 30.8127 23.1338Z" fill="#FFFFAB"/>
<path style="mix-blend-mode:screen" d="M18.3012 36.5152C18.6683 36.4942 18.9829 36.7774 19.0039 37.1444C19.0248 37.5115 18.7417 37.8261 18.3746 37.8471C18.0076 37.868 17.693 37.5849 17.672 37.2178C17.651 36.8508 17.9342 36.5362 18.3012 36.5152Z" fill="url(#paint11_radial_74_1962)"/>
<path d="M18.3853 36.9977C18.4902 36.9977 18.5741 37.0711 18.5846 37.176C18.5951 37.2808 18.5112 37.3647 18.4063 37.3752C18.3014 37.3752 18.2175 37.3018 18.207 37.1969C18.207 37.0921 18.2804 37.0082 18.3853 36.9977Z" fill="#FFFFAB"/>
<path style="mix-blend-mode:screen" d="M28.6524 35.9699C29.4179 35.928 30.0786 36.5153 30.131 37.2808C30.173 38.0464 29.5857 38.7071 28.8201 38.7595C28.0546 38.8015 27.3939 38.2142 27.3415 37.4486C27.2995 36.6831 27.8868 36.0224 28.6524 35.9699Z" fill="url(#paint12_radial_74_1962)"/>
<path d="M28.8202 36.9767C29.0299 36.9662 29.2187 37.1235 29.2292 37.3437C29.2397 37.5535 29.0824 37.7423 28.8621 37.7527C28.6524 37.7632 28.4636 37.6059 28.4531 37.3857C28.4426 37.1759 28.6 36.9872 28.8202 36.9767Z" fill="#FFFFAB"/>
<path d="M11.5512 13.0459C11.5512 13.0459 14.6604 21.0803 28.1608 32.5092C28.1608 32.5092 38.2247 25.7203 44.0476 13.0459L39.9293 10.4863C39.9293 10.4863 34.4473 18.2197 27.7926 23.065C27.7926 23.065 20.756 19.8074 15.7104 11.4581L11.5376 13.0459L11.5512 13.0459Z" fill="#FF5200"/>
<path d="M50.0772 38.5393C49.836 37.7423 51.944 34.1137 52.4788 34.1242C53.0136 34.1347 52.5417 36.5153 52.2166 37.0711C51.8915 37.6269 50.1926 38.9378 50.0772 38.5393Z" fill="white"/>
<path style="mix-blend-mode:screen" d="M4.69945 7.04657C4.69945 7.04657 35.2274 -4.69897 51.4614 4.15213C51.4614 4.15213 52.8876 7.508 53.5378 12.7935C53.5378 12.7935 48.3991 18.7711 38.6881 19.4423C30.3299 20.0191 22.1814 9.34324 15.1341 8.01138C8.08678 6.69001 4.68896 7.03608 4.68896 7.03608L4.69945 7.04657Z" fill="url(#paint13_linear_74_1962)"/>
<path d="M4.08049 9.16492C3.49322 9.24881 2.02502 13.8107 2.10892 14.5658C2.19282 15.3104 3.96513 12.9403 4.2378 11.6818C4.51046 10.4234 4.08049 9.16492 4.08049 9.16492Z" fill="white"/>
<path d="M4.33242 8.44132C3.6193 8.16865 4.88823 6.21806 5.9684 5.73565C7.04857 5.25324 9.72278 4.69743 10.0269 5.20081C10.331 5.70419 5.13992 8.75593 4.33242 8.44132Z" fill="white"/>
<defs>
<radialGradient id="paint0_radial_74_1962" cx="0" cy="0" r="1" gradientUnits="userSpaceOnUse" gradientTransform="translate(28.1523 42.2714) scale(21.1006 55.7591)">
<stop stop-color="#FFBD00"/>
<stop offset="1" stop-color="#FF772C"/>
</radialGradient>
<linearGradient id="paint1_linear_74_1962" x1="27.5067" y1="43.0827" x2="27.5067" y2="0.420471" gradientUnits="userSpaceOnUse">
<stop stop-color="#FFF300"/>
<stop offset="1" stop-color="#FF9700"/>
</linearGradient>
<linearGradient id="paint2_linear_74_1962" x1="27.5064" y1="42.2878" x2="27.5064" y2="0.878726" gradientUnits="userSpaceOnUse">
<stop stop-color="#FFCC00"/>
<stop offset="1" stop-color="#FF9700"/>
</linearGradient>
<linearGradient id="paint3_linear_74_1962" x1="51.3041" y1="37.1725" x2="4.00732" y2="37.1725" gradientUnits="userSpaceOnUse">
<stop stop-color="#FF6140"/>
<stop offset="0.1" stop-color="#EE5A3B"/>
<stop offset="0.29" stop-color="#C44A31"/>
<stop offset="0.55" stop-color="#803020"/>
<stop offset="0.88" stop-color="#240D09"/>
<stop offset="1"/>
</linearGradient>
<radialGradient id="paint4_radial_74_1962" cx="0" cy="0" r="1" gradientUnits="userSpaceOnUse" gradientTransform="translate(16.4094 14.5711) rotate(-93.42) scale(1.34235)">
<stop stop-color="#00B359"/>
<stop offset="0.13" stop-color="#009148"/>
<stop offset="0.34" stop-color="#005D2E"/>
<stop offset="0.54" stop-color="#00351A"/>
<stop offset="0.73" stop-color="#00170B"/>
<stop offset="0.89" stop-color="#000603"/>
<stop offset="1"/>
</radialGradient>
<radialGradient id="paint5_radial_74_1962" cx="0" cy="0" r="1" gradientUnits="userSpaceOnUse" gradientTransform="translate(18.2197 8.82126) rotate(-93.42) scale(1.34235)">
<stop stop-color="#00B359"/>
<stop offset="0.13" stop-color="#009148"/>
<stop offset="0.34" stop-color="#005D2E"/>
<stop offset="0.54" stop-color="#00351A"/>
<stop offset="0.73" stop-color="#00170B"/>
<stop offset="0.89" stop-color="#000603"/>
<stop offset="1"/>
</radialGradient>
<radialGradient id="paint6_radial_74_1962" cx="0" cy="0" r="1" gradientUnits="userSpaceOnUse" gradientTransform="translate(17.1455 25.306) rotate(-93.42) scale(1.34235)">
<stop stop-color="#00B359"/>
<stop offset="0.13" stop-color="#009148"/>
<stop offset="0.34" stop-color="#005D2E"/>
<stop offset="0.54" stop-color="#00351A"/>
<stop offset="0.73" stop-color="#00170B"/>
<stop offset="0.89" stop-color="#000603"/>
<stop offset="1"/>
</radialGradient>
<radialGradient id="paint7_radial_74_1962" cx="0" cy="0" r="1" gradientUnits="userSpaceOnUse" gradientTransform="translate(11.0016 8.2861) rotate(-93.42) scale(3.74389)">
<stop stop-color="#00B359"/>
<stop offset="0.13" stop-color="#009148"/>
<stop offset="0.34" stop-color="#005D2E"/>
<stop offset="0.54" stop-color="#00351A"/>
<stop offset="0.73" stop-color="#00170B"/>
<stop offset="0.89" stop-color="#000603"/>
<stop offset="1"/>
</radialGradient>
<radialGradient id="paint8_radial_74_1962" cx="0" cy="0" r="1" gradientUnits="userSpaceOnUse" gradientTransform="translate(21.5646 34.9069) rotate(-93.42) scale(1.7828)">
<stop stop-color="#00B359"/>
<stop offset="0.13" stop-color="#009148"/>
<stop offset="0.34" stop-color="#005D2E"/>
<stop offset="0.54" stop-color="#00351A"/>
<stop offset="0.73" stop-color="#00170B"/>
<stop offset="0.89" stop-color="#000603"/>
<stop offset="1"/>
</radialGradient>
<radialGradient id="paint9_radial_74_1962" cx="0" cy="0" r="1" gradientUnits="userSpaceOnUse" gradientTransform="translate(5.63566 38.7375) rotate(-93.42) scale(0.891401 0.891402)">
<stop stop-color="#00B359"/>
<stop offset="0.13" stop-color="#009148"/>
<stop offset="0.34" stop-color="#005D2E"/>
<stop offset="0.54" stop-color="#00351A"/>
<stop offset="0.73" stop-color="#00170B"/>
<stop offset="0.89" stop-color="#000603"/>
<stop offset="1"/>
</radialGradient>
<radialGradient id="paint10_radial_74_1962" cx="0" cy="0" r="1" gradientUnits="userSpaceOnUse" gradientTransform="translate(30.752 23.3898) rotate(-93.42) scale(0.891402)">
<stop stop-color="#00B359"/>
<stop offset="0.13" stop-color="#009148"/>
<stop offset="0.34" stop-color="#005D2E"/>
<stop offset="0.54" stop-color="#00351A"/>
<stop offset="0.73" stop-color="#00170B"/>
<stop offset="0.89" stop-color="#000603"/>
<stop offset="1"/>
</radialGradient>
<radialGradient id="paint11_radial_74_1962" cx="0" cy="0" r="1" gradientUnits="userSpaceOnUse" gradientTransform="translate(18.3391 37.1902) rotate(-93.42) scale(0.671174)">
<stop stop-color="#00B359"/>
<stop offset="0.13" stop-color="#009148"/>
<stop offset="0.34" stop-color="#005D2E"/>
<stop offset="0.54" stop-color="#00351A"/>
<stop offset="0.73" stop-color="#00170B"/>
<stop offset="0.89" stop-color="#000603"/>
<stop offset="1"/>
</radialGradient>
<radialGradient id="paint12_radial_74_1962" cx="0" cy="0" r="1" gradientUnits="userSpaceOnUse" gradientTransform="translate(28.7304 37.3783) rotate(-93.42) scale(1.39478)">
<stop stop-color="#00B359"/>
<stop offset="0.13" stop-color="#009148"/>
<stop offset="0.34" stop-color="#005D2E"/>
<stop offset="0.54" stop-color="#00351A"/>
<stop offset="0.73" stop-color="#00170B"/>
<stop offset="0.89" stop-color="#000603"/>
<stop offset="1"/>
</radialGradient>
<linearGradient id="paint13_linear_74_1962" x1="4.69486" y1="10.1606" x2="53.5437" y2="10.1606" gradientUnits="userSpaceOnUse">
<stop stop-color="#FF9840"/>
<stop offset="0.1" stop-color="#EE8E3B"/>
<stop offset="0.29" stop-color="#C47531"/>
<stop offset="0.55" stop-color="#804C20"/>
<stop offset="0.88" stop-color="#241509"/>
<stop offset="1"/>
</linearGradient>
</defs>
</svg>
