<svg width="71" height="66" viewBox="0 0 71 66" fill="none" xmlns="http://www.w3.org/2000/svg">
<path opacity="0.1" d="M64.7882 58.1204C64.6652 58.253 64.5217 58.3855 64.3577 58.5079C52.2238 68.3676 18.794 68.0209 4.14919 59.1604C3.38057 58.7016 2.86816 58.2122 2.6222 57.7024C-2.57367 46.9454 0.244602 14.5724 8.49446 7.56763C17.349 0.0632191 51.3937 -3.33212 62.3286 6.21153C70.353 13.2061 74.1756 48.3117 64.7882 58.1204Z" fill="#3C3E48"/>
<path d="M62.8024 56.9186C62.6868 57.0438 62.552 57.169 62.3979 57.2846C50.9968 66.5961 19.5859 66.2687 5.82561 57.9008C5.10341 57.4675 4.62194 57.0053 4.39084 56.5238C-0.491235 46.3649 2.15683 15.7918 9.90844 9.17642C18.2282 2.08923 50.2168 -1.11733 60.4913 7.89572C68.0311 14.5014 71.6228 47.6552 62.8024 56.9186Z" fill="url(#paint0_linear_294_6466)"/>
<path d="M4.38962 54.5144C9.09836 64.3171 53.1044 65.097 62.8011 54.9092C71.6216 45.6458 68.0299 12.492 60.4901 5.88627C50.2156 -3.12678 18.227 0.079787 9.90722 7.1766C2.15561 13.7823 -0.492456 44.3555 4.38962 54.5144Z" fill="url(#paint1_radial_294_6466)"/>
<g style="mix-blend-mode:multiply" filter="url(#filter0_f_294_6466)">
<path d="M14.6496 35.3729C14.6496 26.2948 21.3978 18.7669 30.1794 17.4117V21.3746L41.47 14.374L30.1772 7.37524V11.7506C18.2686 13.1489 9 23.2008 9 35.3732C9 43.9287 13.5878 51.4181 20.4311 55.6099L25.9694 52.1823C19.3277 49.4362 14.6496 42.9402 14.6496 35.3729Z" fill="#CED6FF"/>
<path d="M45.5676 15.1394L40.03 18.5719C46.6742 21.3075 51.3525 27.8051 51.3525 35.3729C51.3525 44.4585 44.6056 51.9814 35.8237 53.3385V49.3738L24.5313 56.3771L35.8237 63.3752V58.9931C47.7317 57.5994 57 47.5488 57 35.3729C57.0003 26.8209 52.4125 19.3321 45.5676 15.1394Z" fill="#CED6FF"/>
<path d="M34.3614 47.6165V44.5578C37.837 43.957 39.7473 41.6776 39.7473 39.0075C39.7473 36.3073 38.2958 34.6592 34.6986 33.3957C32.1244 32.4355 31.0641 31.8064 31.0641 30.8166C31.0641 29.9758 31.6985 29.1356 33.6684 29.1356C35.8445 29.1356 37.2346 29.8232 38.0241 30.1567L38.8986 26.7655C37.905 26.2865 36.5403 25.8675 34.5149 25.7786V23.1371H31.5487V25.9862C28.3162 26.6141 26.4385 28.6865 26.4385 31.3255C26.4385 34.2352 28.6481 35.7384 31.8883 36.8158C34.1231 37.5668 35.0907 38.287 35.0907 39.4287C35.0907 40.6273 33.9131 41.2872 32.1889 41.2872C30.2234 41.2872 28.4375 40.6571 27.1687 39.9674L26.2613 43.478C27.407 44.1388 29.3762 44.6775 31.4013 44.7667V47.6168L34.3614 47.6165Z" fill="#CED6FF"/>
</g>
<path d="M16.6496 33.3729C16.6496 24.2948 23.3978 16.7669 32.1794 15.4117V19.3746L43.47 12.374L32.1772 5.37524V9.75064C20.2686 11.1489 11 21.2008 11 33.3732C11 41.9287 15.5878 49.4181 22.4311 53.6099L27.9694 50.1823C21.3277 47.4362 16.6496 40.9402 16.6496 33.3729Z" fill="#00FEEF"/>
<path d="M47.5676 13.1394L42.03 16.5719C48.6742 19.3075 53.3525 25.8051 53.3525 33.3729C53.3525 42.4585 46.6056 49.9814 37.8237 51.3385V47.3738L26.5313 54.3771L37.8237 61.3752V56.9931C49.7317 55.5994 59 45.5488 59 33.3729C59.0003 24.8209 54.4125 17.3321 47.5676 13.1394Z" fill="#00FEEF"/>
<path d="M36.3614 45.6165V42.5578C39.837 41.957 41.7473 39.6776 41.7473 37.0075C41.7473 34.3073 40.2958 32.6592 36.6986 31.3957C34.1244 30.4355 33.0641 29.8064 33.0641 28.8166C33.0641 27.9758 33.6985 27.1356 35.6684 27.1356C37.8445 27.1356 39.2346 27.8232 40.0241 28.1567L40.8986 24.7655C39.905 24.2865 38.5403 23.8675 36.5149 23.7786V21.1371H33.5487V23.9862C30.3162 24.6141 28.4385 26.6865 28.4385 29.3255C28.4385 32.2352 30.6481 33.7384 33.8883 34.8158C36.1231 35.5668 37.0907 36.287 37.0907 37.4287C37.0907 38.6273 35.9131 39.2872 34.1889 39.2872C32.2234 39.2872 30.4375 38.6571 29.1687 37.9674L28.2613 41.478C29.407 42.1388 31.3762 42.6775 33.4013 42.7667V45.6168L36.3614 45.6165Z" fill="#00FEEF"/>
<path style="mix-blend-mode:screen" d="M9.5 8.87519C9.5 8.87519 22.5 -3.62482 57 4.37518C57 4.37518 68 14.3752 65.0251 21.1039C65.0251 21.1039 66 23.3752 62 25.3752C60.993 18.1422 48 10.0791 39 8.07865C30.5 8.07865 8 10.8752 8 10.8752L9.5 8.87519Z" fill="url(#paint2_linear_294_6466)"/>
<path d="M7 11.9129C7 11.9129 8.47329 8.8893 11.8821 7.27158C15.3005 5.65385 25.0165 4.02649 25.575 4.44055C26.1239 4.85462 20.8373 6.76122 18.1026 7.7723C15.3679 8.78338 8.39625 12.6929 7 11.9225V11.9129Z" fill="white"/>
<path style="mix-blend-mode:screen" d="M62.3112 54.4896C62.3112 54.4896 58.4999 58.5439 50.9999 59.8752C47.2763 60.5362 42.9298 61.4217 42.4999 60.8752C42.0794 60.3313 47.6058 55.8178 50.5103 55.5621C53.4147 55.3064 61.1695 53.3696 62.3137 54.4803L62.3112 54.4896Z" fill="url(#paint3_linear_294_6466)"/>
<path d="M7.35415 13.3849C6.65121 13.4908 4.89867 18.941 5.0046 19.8365C5.11052 20.7321 7.21934 17.901 7.54674 16.3892C7.87414 14.887 7.35415 13.3752 7.35415 13.3752V13.3849Z" fill="white"/>
<path style="mix-blend-mode:screen" d="M63.4504 52.3936C64.1597 52.3455 66.3521 47.0569 66.3198 46.1557C66.2875 45.2545 63.9542 47.9036 63.5042 49.3835C63.055 50.8539 63.4496 52.4032 63.4496 52.4032L63.4504 52.3936Z" fill="url(#paint4_linear_294_6466)"/>
<path d="M60.0316 55.0965C59.6223 54.0645 63.3061 49.3529 64.246 49.3753C65.1859 49.3978 64.3521 52.4715 63.776 53.1895C63.2151 53.9074 60.2287 55.6126 60.0316 55.0965Z" fill="white"/>
<defs>
<filter id="filter0_f_294_6466" x="8" y="6.37524" width="50" height="58" filterUnits="userSpaceOnUse" color-interpolation-filters="sRGB">
<feFlood flood-opacity="0" result="BackgroundImageFix"/>
<feBlend mode="normal" in="SourceGraphic" in2="BackgroundImageFix" result="shape"/>
<feGaussianBlur stdDeviation="0.5" result="effect1_foregroundBlur_294_6466"/>
</filter>
<linearGradient id="paint0_linear_294_6466" x1="38.1865" y1="64.2222" x2="38.1865" y2="2.38429" gradientUnits="userSpaceOnUse">
<stop stop-color="#008EC2"/>
<stop offset="1" stop-color="#002092"/>
</linearGradient>
<radialGradient id="paint1_radial_294_6466" cx="0" cy="0" r="1" gradientUnits="userSpaceOnUse" gradientTransform="translate(38.2044 56.3337) rotate(-3.94662) scale(33.5105 282.839)">
<stop stop-color="#00D3C2"/>
<stop offset="1" stop-color="#0083C2"/>
</radialGradient>
<linearGradient id="paint2_linear_294_6466" x1="11.6763" y1="14.2559" x2="57.9957" y2="14.2559" gradientUnits="userSpaceOnUse">
<stop stop-color="#7ED140"/>
<stop offset="0.11" stop-color="#74C03B"/>
<stop offset="0.34" stop-color="#5A962E"/>
<stop offset="0.65" stop-color="#315219"/>
<stop offset="1"/>
</linearGradient>
<linearGradient id="paint3_linear_294_6466" x1="59.6273" y1="57.2859" x2="45.5876" y2="53.4558" gradientUnits="userSpaceOnUse">
<stop stop-color="#7ED140"/>
<stop offset="0.11" stop-color="#74C03B"/>
<stop offset="0.34" stop-color="#5A962E"/>
<stop offset="0.65" stop-color="#315219"/>
<stop offset="1"/>
</linearGradient>
<linearGradient id="paint4_linear_294_6466" x1="65.8257" y1="49.0008" x2="63.757" y2="48.8311" gradientUnits="userSpaceOnUse">
<stop stop-color="#7ED140"/>
<stop offset="0.11" stop-color="#74C03B"/>
<stop offset="0.34" stop-color="#5A962E"/>
<stop offset="0.65" stop-color="#315219"/>
<stop offset="1"/>
</linearGradient>
</defs>
</svg>
