<svg width="71" height="66" viewBox="0 0 71 66" fill="none" xmlns="http://www.w3.org/2000/svg">
<path opacity="0.1" d="M64.7882 57.7452C64.6652 57.8777 64.5217 58.0103 64.3577 58.1326C52.2238 67.9924 18.794 67.6457 4.14919 58.7852C3.38057 58.3264 2.86816 57.8369 2.6222 57.3271C-2.57367 46.5701 0.244602 14.1972 8.49446 7.19238C17.349 -0.312025 51.3937 -3.70736 62.3286 5.83629C70.353 12.8309 74.1756 47.9364 64.7882 57.7452Z" fill="#3C3E48"/>
<path d="M62.8021 56.5434C62.6866 56.6686 62.5517 56.7938 62.3977 56.9093C50.9966 66.2209 19.5857 65.8935 5.82536 57.5256C5.10316 57.0923 4.6217 56.6301 4.39059 56.1486C-0.491479 45.9897 2.15659 15.4166 9.9082 8.80121C18.2279 1.71402 50.2166 -1.49255 60.4911 7.52051C68.0308 14.1262 71.6226 47.28 62.8021 56.5434Z" fill="url(#paint0_linear_89_3714)"/>
<path d="M4.38962 54.1392C9.09836 63.9418 53.1044 64.7218 62.8011 54.534C71.6216 45.2705 68.0299 12.1168 60.4901 5.51103C50.2156 -3.50202 18.227 -0.295457 9.90722 6.80136C2.15561 13.4071 -0.492456 43.9802 4.38962 54.1392Z" fill="url(#paint1_radial_89_3714)"/>
<g style="mix-blend-mode:multiply" filter="url(#filter0_f_89_3714)">
<path d="M14.6496 34.9977C14.6496 25.9196 21.3978 18.3917 30.1794 17.0365V20.9993L41.47 13.9987L30.1772 7V11.3754C18.2686 12.7737 9 22.8255 9 34.998C9 43.5534 13.5878 51.0429 20.4311 55.2346L25.9694 51.8071C19.3277 49.061 14.6496 42.565 14.6496 34.9977Z" fill="#CED6FF"/>
<path d="M45.5676 14.7642L40.03 18.1966C46.6742 20.9322 51.3525 27.4298 51.3525 34.9977C51.3525 44.0832 44.6056 51.6062 35.8237 52.9632V48.9985L24.5313 56.0019L35.8237 63V58.6178C47.7317 57.2242 57 47.1736 57 34.9977C57.0003 26.4456 52.4125 18.9568 45.5676 14.7642Z" fill="#CED6FF"/>
<path d="M34.3614 47.2412V44.1826C37.837 43.5817 39.7473 41.3024 39.7473 38.6323C39.7473 35.932 38.2958 34.2839 34.6986 33.0204C32.1244 32.0603 31.0641 31.4311 31.0641 30.4414C31.0641 29.6006 31.6985 28.7604 33.6684 28.7604C35.8445 28.7604 37.2346 29.448 38.0241 29.7815L38.8986 26.3903C37.905 25.9112 36.5403 25.4922 34.5149 25.4033V22.7618H31.5487V25.611C28.3162 26.2389 26.4385 28.3112 26.4385 30.9502C26.4385 33.86 28.6481 35.3632 31.8883 36.4406C34.1231 37.1915 35.0907 37.9118 35.0907 39.0534C35.0907 40.252 33.9131 40.912 32.1889 40.912C30.2234 40.912 28.4375 40.2819 27.1687 39.5921L26.2613 43.1027C27.407 43.7636 29.3762 44.3023 31.4013 44.3915V47.2416L34.3614 47.2412Z" fill="#CED6FF"/>
</g>
<path d="M16.6496 32.9977C16.6496 23.9196 23.3978 16.3917 32.1794 15.0365V18.9993L43.47 11.9987L32.1772 5V9.3754C20.2686 10.7737 11 20.8255 11 32.998C11 41.5534 15.5878 49.0429 22.4311 53.2346L27.9694 49.8071C21.3277 47.061 16.6496 40.565 16.6496 32.9977Z" fill="white"/>
<path d="M47.5676 12.7642L42.03 16.1966C48.6742 18.9322 53.3525 25.4298 53.3525 32.9977C53.3525 42.0832 46.6056 49.6062 37.8237 50.9632V46.9985L26.5313 54.0019L37.8237 61V56.6178C49.7317 55.2242 59 45.1736 59 32.9977C59.0003 24.4456 54.4125 16.9568 47.5676 12.7642Z" fill="white"/>
<path d="M36.3614 45.2412V42.1826C39.837 41.5817 41.7473 39.3024 41.7473 36.6323C41.7473 33.932 40.2958 32.2839 36.6986 31.0204C34.1244 30.0603 33.0641 29.4311 33.0641 28.4414C33.0641 27.6006 33.6985 26.7604 35.6684 26.7604C37.8445 26.7604 39.2346 27.448 40.0241 27.7815L40.8986 24.3903C39.905 23.9112 38.5403 23.4922 36.5149 23.4033V20.7618H33.5487V23.611C30.3162 24.2389 28.4385 26.3112 28.4385 28.9502C28.4385 31.86 30.6481 33.3632 33.8883 34.4406C36.1231 35.1915 37.0907 35.9118 37.0907 37.0534C37.0907 38.252 35.9131 38.912 34.1889 38.912C32.2234 38.912 30.4375 38.2819 29.1687 37.5921L28.2613 41.1027C29.407 41.7636 31.3762 42.3023 33.4013 42.3915V45.2416L36.3614 45.2412Z" fill="white"/>
<path style="mix-blend-mode:screen" d="M9.5 8.50001C9.5 8.50001 22.5 -4 57 4C57 4 68 14 65.0251 20.7287C65.0251 20.7287 66 23 62 25C60.993 17.767 48 9.70387 39 7.70346C30.5 7.70346 8 10.5 8 10.5L9.5 8.50001Z" fill="url(#paint2_linear_89_3714)"/>
<path d="M7 11.5377C7 11.5377 8.47329 8.51406 11.8821 6.89633C15.3005 5.27861 25.0165 3.65125 25.575 4.06531C26.1239 4.47937 20.8373 6.38598 18.1026 7.39706C15.3679 8.40814 8.39625 12.3176 7 11.5473V11.5377Z" fill="white"/>
<path style="mix-blend-mode:screen" d="M62.311 54.1143C62.311 54.1143 58.4997 58.1686 50.9997 59.5C47.276 60.161 42.9295 61.0465 42.4997 60.5C42.0791 59.9561 47.6056 55.4426 50.51 55.1869C53.4144 54.9312 61.1692 52.9944 62.3135 54.1051L62.311 54.1143Z" fill="url(#paint3_linear_89_3714)"/>
<path d="M7.35415 13.0096C6.65121 13.1156 4.89867 18.5658 5.0046 19.4613C5.11052 20.3568 7.21934 17.5258 7.54674 16.014C7.87414 14.5118 7.35415 13 7.35415 13V13.0096Z" fill="white"/>
<path style="mix-blend-mode:screen" d="M63.4504 52.0183C64.1597 51.9703 66.3521 46.6817 66.3198 45.7805C66.2875 44.8793 63.9542 47.5283 63.5042 49.0083C63.055 50.4787 63.4496 52.0279 63.4496 52.0279L63.4504 52.0183Z" fill="url(#paint4_linear_89_3714)"/>
<path d="M60.0316 54.7213C59.6223 53.6892 63.3061 48.9776 64.246 49.0001C65.1859 49.0225 64.3521 52.0963 63.776 52.8142C63.2151 53.5322 60.2287 55.2373 60.0316 54.7213Z" fill="white"/>
<defs>
<filter id="filter0_f_89_3714" x="8" y="6" width="50" height="58" filterUnits="userSpaceOnUse" color-interpolation-filters="sRGB">
<feFlood flood-opacity="0" result="BackgroundImageFix"/>
<feBlend mode="normal" in="SourceGraphic" in2="BackgroundImageFix" result="shape"/>
<feGaussianBlur stdDeviation="0.5" result="effect1_foregroundBlur_89_3714"/>
</filter>
<linearGradient id="paint0_linear_89_3714" x1="38.1862" y1="63.847" x2="38.1862" y2="2.00908" gradientUnits="userSpaceOnUse">
<stop stop-color="#C26900"/>
<stop offset="1" stop-color="#923D00"/>
</linearGradient>
<radialGradient id="paint1_radial_89_3714" cx="0" cy="0" r="1" gradientUnits="userSpaceOnUse" gradientTransform="translate(35.7326 57.4711) scale(25.3388 75.8087)">
<stop stop-color="#FFBD00"/>
<stop offset="1" stop-color="#FF772C"/>
</radialGradient>
<linearGradient id="paint2_linear_89_3714" x1="11.6763" y1="13.8808" x2="57.9957" y2="13.8808" gradientUnits="userSpaceOnUse">
<stop stop-color="#7ED140"/>
<stop offset="0.11" stop-color="#74C03B"/>
<stop offset="0.34" stop-color="#5A962E"/>
<stop offset="0.65" stop-color="#315219"/>
<stop offset="1"/>
</linearGradient>
<linearGradient id="paint3_linear_89_3714" x1="59.6271" y1="56.9107" x2="45.5873" y2="53.0805" gradientUnits="userSpaceOnUse">
<stop stop-color="#7ED140"/>
<stop offset="0.11" stop-color="#74C03B"/>
<stop offset="0.34" stop-color="#5A962E"/>
<stop offset="0.65" stop-color="#315219"/>
<stop offset="1"/>
</linearGradient>
<linearGradient id="paint4_linear_89_3714" x1="65.8257" y1="48.6256" x2="63.757" y2="48.4559" gradientUnits="userSpaceOnUse">
<stop stop-color="#7ED140"/>
<stop offset="0.11" stop-color="#74C03B"/>
<stop offset="0.34" stop-color="#5A962E"/>
<stop offset="0.65" stop-color="#315219"/>
<stop offset="1"/>
</linearGradient>
</defs>
</svg>
