<svg width="1400" height="451" viewBox="0 0 1400 451" fill="none" xmlns="http://www.w3.org/2000/svg">
<g opacity="0.2">
<path d="M1286.41 77.0978C1310.63 91.0451 1333.88 111.889 1332.1 140.403C1328.42 198.672 1221.29 212.542 1076.83 93.2922C932.361 -25.9575 837.301 241.211 705.177 225.404C573.052 209.675 559.627 46.0262 410.131 67.1797C260.635 88.2557 221.985 74.4633 221.985 55.5569C221.985 36.6505 261.68 2.16959 264.195 0C258.198 1.5497 26.874 63.3829 1.45503 194.565C-24.2734 327.53 297.893 186.739 438.258 194.565C578.585 202.391 595.686 405.403 835.25 445.617C1074.82 485.832 940.64 288.865 968.187 247.488C995.734 206.111 1208.95 300.1 1355.97 225.482C1460.01 172.637 1356.09 109.564 1286.37 77.1752L1286.41 77.0978ZM265.201 187.747C258.005 191.156 250.692 193.093 243.419 195.418C234.713 198.285 226.279 201.384 217.497 202.391C202.33 204.173 187.358 206.111 172.153 205.956C156.406 205.801 140.698 208.823 124.99 210.605C112.029 212.077 98.0238 218.741 85.1402 213.084C82.1998 211.845 79.6463 208.668 77.5571 204.173C74.6167 197.897 76.5125 191.931 78.4857 185.345C84.1343 166.671 94.7739 155.203 104.408 146.525C118.684 133.739 133.425 123.666 148.475 115.763C151.879 121.187 154.975 118.165 158.689 116.615C164.995 114.058 171.882 116.228 178.304 115.608C190.298 114.446 201.827 111.811 213.899 113.361C219.083 113.981 224.229 114.446 229.374 115.53C236.919 117.08 244.115 121.187 251.389 124.906C262.957 130.718 274.796 135.522 286.132 143.348C289.111 145.362 300.756 151.561 300.099 161.324C290.349 176.589 276.962 181.935 265.201 187.592V187.747ZM351.904 183.175C346.449 188.831 339.484 193.868 333.371 195.03C327.452 196.115 321.533 198.827 315.574 198.672C313.021 198.672 309.732 199.834 308.069 195.03C306.018 189.064 308.069 184.337 309.229 182.09C311.164 175.426 311.357 175.194 314.53 171.242C319.327 165.431 323.544 162.564 329 160.007C336.235 156.598 344.282 151.484 351.788 154.738C354.535 155.9 359.023 160.937 358.752 167.678C358.481 173.722 354.302 180.541 351.826 183.098L351.904 183.175ZM1028.39 214.247C1024.13 218.121 1019.64 221.065 1015.08 222.692C1011.67 223.855 1008.04 224.475 1004.9 220.833C1003.28 218.973 1002.78 215.254 1002.54 211.767C1002.39 209.907 1002.2 208.823 1002.54 207.118C1002.85 205.801 1003.63 204.638 1005.91 205.103C1008 200.377 1010.09 197.277 1013.26 195.495C1017.75 192.861 1022.66 191.776 1027.07 195.108C1029.16 196.735 1032.26 198.595 1032.91 203.476C1033.57 208.203 1030.17 212.619 1028.39 214.169V214.247ZM1007.96 177.131C1003.59 179.921 999.216 182.4 994.728 184.027C990.472 185.577 986.178 186.274 981.883 187.204C977.009 188.212 972.172 189.529 967.259 190.226C962.693 190.846 958.128 192.008 953.563 192.163C946.56 192.551 939.557 194.565 932.593 196.425C927.989 197.665 923.462 199.447 918.858 200.842C915.686 201.771 912.475 201.926 909.302 202.779C904.195 204.174 897.889 203.166 893.401 197.82C889.648 193.403 886.437 187.437 883.264 181.625C881.794 178.991 880.711 175.969 879.937 172.327C879.473 170.08 879.666 168.995 880.014 166.516C878.621 167.058 878.544 164.811 879.434 162.099C880.169 159.775 881.368 157.527 882.413 155.668C883.071 154.505 883.806 154.196 884.502 153.421C885.16 152.723 885.624 151.639 886.243 150.864C888.294 148.617 889.88 145.362 892.008 143.27C894.329 141.178 896.457 138.389 898.701 136.141C901.719 133.12 904.853 130.64 907.909 127.851C914.835 121.574 921.721 115.375 928.685 109.409C933.831 104.992 939.248 101.506 944.471 97.5539C949.771 93.5247 955.265 90.2703 960.759 87.4808C965.672 85.0787 970.741 83.4516 975.693 81.9793C980.761 80.5071 985.868 78.9574 991.014 79.1124C997.398 79.2673 1003.9 80.1972 1010.17 82.5992C1014.73 84.3039 1019.26 86.4735 1023.78 88.8755C1031.56 92.9822 1039.45 98.5612 1045.91 108.557C1048.16 112.044 1050.56 116.848 1051.49 122.582C1052.1 126.456 1051.6 130.33 1050.6 133.817C1047.54 144.897 1040.58 152.103 1034.97 156.675C1026.03 163.881 1017.21 171.32 1008 177.054L1007.96 177.131ZM1203.23 218.896C1200.75 230.518 1191.58 234.548 1186.43 237.57C1176.41 243.304 1165.89 242.219 1155.56 243.381C1144.11 244.698 1132.77 244.776 1121.24 244.776C1109.71 244.776 1099.07 245.551 1088.09 239.274C1080.58 234.935 1072.8 232.921 1065.26 228.969C1061.97 227.187 1058.84 224.707 1055.63 222.615C1053.65 221.298 1050.87 219.98 1049.24 217.114C1044.64 209.21 1051.02 204.561 1054.5 201.539C1060.81 195.96 1067.08 191.466 1074 191.388C1076.44 191.388 1078.61 189.606 1081.04 189.529C1083.25 189.374 1085.49 189.529 1081.32 187.669C1090.99 187.824 1100.47 185.112 1110.14 185.964C1125.03 187.204 1139.77 190.381 1154.63 194.023C1161.63 195.805 1168.64 198.052 1175.68 199.602C1181.4 200.842 1187.21 201.694 1192.82 204.483C1196.15 206.188 1205.51 208.358 1203.3 218.741L1203.23 218.896ZM1381.7 178.758C1380.66 193.635 1375.66 203.089 1369.32 209.442C1364.83 213.937 1361 215.409 1356.01 216.726C1350.75 218.121 1345.64 220.755 1340.42 222.383C1335.35 224.01 1329.55 223.157 1324.44 222.77C1321.27 222.537 1317.36 221.685 1314.69 218.043C1307.57 208.203 1314.84 193.171 1319.33 186.429C1325.79 176.589 1333.26 171.01 1340.3 163.261C1345.06 158.07 1349.01 151.948 1353.22 145.44C1352.3 148.462 1354.81 145.905 1357.44 145.44C1359.3 145.052 1360.61 144.975 1362.32 144.045C1366.57 141.72 1373.03 143.735 1376.44 149.469C1380.69 156.753 1382.4 167.91 1381.66 178.913L1381.7 178.758Z" fill="url(#paint0_linear_521_8534)" style="mix-blend-mode:screen"/>
</g>
<defs>
<linearGradient id="paint0_linear_521_8534" x1="0.0235261" y1="225.482" x2="1400.04" y2="225.482" gradientUnits="userSpaceOnUse">
<stop stop-color="#001619"/>
<stop offset="1" stop-color="#1DAEA5"/>
</linearGradient>
</defs>
</svg>
