<svg width="47" height="55" viewBox="0 0 47 55" fill="none" xmlns="http://www.w3.org/2000/svg">
<path d="M39.6291 27.4323C39.6291 41.3857 36.0562 53.1122 26.2765 54.7875C25.4598 54.9305 20.621 54.7875 19.7839 54.7875C8.8405 54.7466 0 42.4889 0 27.371C0 12.2532 8.90175 0.0158744 19.8452 0.0363039C20.5394 0.0363039 26.5419 -0.0454142 27.2157 0.0363039C37.1995 1.44594 39.6495 13.2542 39.6291 27.4119V27.4323Z" fill="url(#paint0_radial_317_1112)"/>
<path d="M47 27.4324C47 42.5502 38.0983 54.7875 27.1548 54.7671C16.2114 54.7467 7.35047 42.4889 7.37088 27.3915C7.3913 12.2736 16.2726 0.0159271 27.2161 0.0363567C38.1595 0.0567862 47.0204 12.3145 47 27.4324Z" fill="url(#paint1_linear_317_1112)"/>
<g style="mix-blend-mode:soft-light">
<path d="M10.1267 13.3156L38.8736 49.4963L43.0387 43.8169L20.5801 1.60944C20.5801 1.60944 14.7818 3.99969 10.1267 13.3156Z" fill="#00B2FF"/>
</g>
<path d="M41.1605 27.4324C41.1605 38.0966 34.8926 46.7383 27.1546 46.7178C26.8687 46.7178 26.5829 46.7178 26.3175 46.677C18.9878 46.0845 13.1895 37.6676 13.1895 27.3915C13.1895 17.1359 19.0083 8.78019 26.2971 8.14688C26.6033 8.12645 26.8892 8.10602 27.1954 8.10602C34.913 8.10602 41.1605 16.7681 41.1401 27.4324H41.1605Z" fill="url(#paint2_radial_317_1112)"/>
<path d="M39.3639 27.4324C39.3639 37.6471 33.5859 46.0232 26.3175 46.677C18.9878 46.0845 13.1895 37.6676 13.1895 27.3915C13.1895 17.1359 19.0083 8.7802 26.2971 8.14688C33.5859 8.80063 39.3639 17.1767 39.3434 27.4324H39.3639Z" fill="url(#paint3_linear_317_1112)"/>
<path d="M26.731 39.4031C25.9911 39.3318 25.2243 39.1581 24.5268 38.8073C29.5403 40.2971 33.5318 36.3922 33.5318 36.3922C29.7888 38.0724 23.5152 38.3414 20.5678 33.3852C16.7661 26.9912 20.0072 22.0958 23.1434 20.9292C27.4541 19.3255 33.024 24.1146 30.6836 29.7175C31.629 26.4648 29.2732 21.7768 25.5377 21.6105C21.81 21.4448 19.8985 24.7873 19.2693 27.8398C19.2693 27.8398 19.6714 26.9311 20.3836 25.8831C20.0478 26.8577 19.5902 28.9 20.3637 30.9382C21.2481 33.2695 22.8408 34.7997 24.3373 35.5414C28.6855 37.6985 33.6112 35.2742 33.6112 35.2742C30.7379 36.2329 26.5875 35.9183 24.0687 33.9462C23.0781 33.1701 22.0981 31.8703 21.6476 30.5951C21.282 29.5618 21.2027 28.4309 21.3763 27.3828C21.5435 26.3734 21.9782 25.2187 22.8626 24.5414C23.9687 23.6955 25.719 23.5615 27.2189 24.7868C28.3397 25.7025 28.7183 27.1606 28.6576 28.6778C28.383 27.1414 27.2629 25.7817 25.946 25.384C24.6292 24.9863 23.0446 25.4654 22.4738 26.8106C21.2275 29.746 23.6307 33.1772 26.3533 34.2481C28.4182 35.0603 31.105 35.1559 33.0076 34.3783C37.1973 32.6647 38.0347 28.3856 38.0841 26.4958C38.0841 26.4958 37.3452 29.9778 35.4808 31.6083C38.1777 27.871 38.6247 22.16 34.7826 17.0294C34.7826 17.0294 36.6667 20.273 36.6382 24.0955C34.9541 14.9953 26.5325 11.8015 21.7686 14.5415C21.7686 14.5415 25.2489 13.239 28.2519 14.9713C23.3752 13.7544 18.0757 16.4724 15.368 21.6338C15.368 21.6338 20.2966 15.3118 26.5512 16.7648C30.134 17.5978 32.3612 19.9979 33.6194 22.7892C33.9434 23.508 34.0972 24.1889 34.1879 24.7961C32.8756 21.0274 29.1512 17.3026 25.1318 17.2916C22.141 17.1176 19.317 18.3771 17.2571 20.9366C15.6553 22.9289 14.7218 25.7864 14.645 28.6209C14.5938 30.5075 15.0247 32.2336 15.4634 34.0687C15.4634 34.0687 14.6616 30.7182 15.2858 28.4291C15.1647 33.41 17.6293 38.9668 23.0429 41.5745C23.0429 41.5745 20.4718 39.9766 18.8041 37.0936C23.5065 42.1583 32.892 42.9278 37.7737 34.2963C37.7737 34.2963 32.8053 39.9896 26.7318 39.4042L26.731 39.4031ZM29.2145 31.5733C29.217 31.7302 29.1084 31.8503 28.9726 31.8409L28.8044 31.8292C28.6685 31.8198 28.56 31.9399 28.5625 32.0969L28.5705 32.5878C28.573 32.7447 28.4645 32.8648 28.3286 32.8554C28.1927 32.846 28.08 32.7106 28.0774 32.5537L28.0695 32.0627C28.0669 31.9058 27.9542 31.7704 27.8183 31.761L27.6502 31.7493C27.5143 31.7399 27.4016 31.6045 27.3991 31.4475C27.3965 31.2906 27.5051 31.1705 27.641 31.1799L27.8091 31.1916C27.945 31.201 28.0536 31.0809 28.051 30.9239L28.0431 30.433C28.0405 30.2761 28.1491 30.156 28.285 30.1654C28.4209 30.1748 28.5336 30.3102 28.5361 30.4671L28.5441 30.9581C28.5466 31.115 28.6593 31.2504 28.7952 31.2598L28.9633 31.2715C29.0992 31.2809 29.2119 31.4163 29.2145 31.5733ZM30.7967 33.4223C30.7976 33.4776 30.76 33.5192 30.7121 33.5159L30.6537 33.5118C30.6058 33.5085 30.5682 33.5501 30.5691 33.6055L30.5719 33.7765C30.5728 33.8318 30.5352 33.8734 30.4873 33.8701C30.4394 33.8668 30.4003 33.8199 30.3994 33.7645L30.3966 33.5935C30.3957 33.5382 30.3567 33.4913 30.3088 33.488L30.2504 33.4839C30.2025 33.4806 30.1635 33.4337 30.1626 33.3784C30.1617 33.323 30.1993 33.2814 30.2472 33.2847L30.3056 33.2888C30.3526 33.292 30.3911 33.2505 30.3902 33.1951L30.3874 33.0241C30.3865 32.9688 30.4241 32.9272 30.472 32.9305C30.52 32.9338 30.559 32.9807 30.5599 33.0361L30.5627 33.2071C30.5636 33.2624 30.6026 33.3093 30.6505 33.3127L30.7089 33.3167C30.7568 33.32 30.7958 33.3669 30.7967 33.4223ZM31.6717 17.5013C31.6726 17.5566 31.6349 17.5982 31.587 17.5949L31.5287 17.5909C31.4808 17.5875 31.4431 17.6292 31.444 17.6845L31.4468 17.8555C31.4477 17.9108 31.4101 17.9524 31.3622 17.9491C31.3143 17.9458 31.2752 17.8989 31.2743 17.8436L31.2716 17.6725C31.2707 17.6172 31.2316 17.5703 31.1837 17.567L31.1253 17.5629C31.0774 17.5596 31.0384 17.5127 31.0375 17.4574C31.0366 17.402 31.0742 17.3604 31.1221 17.3637L31.1805 17.3678C31.2284 17.3711 31.266 17.3295 31.2651 17.2742L31.2623 17.1031C31.2614 17.0478 31.299 17.0062 31.347 17.0095C31.3949 17.0128 31.4339 17.0598 31.4348 17.1151L31.4376 17.2861C31.4385 17.3414 31.4775 17.3884 31.5254 17.3917L31.5838 17.3957C31.6317 17.399 31.6708 17.446 31.6717 17.5013ZM36.6373 24.0965C36.637 24.1859 36.635 24.2752 36.6321 24.3644C36.6093 24.2433 36.5838 24.1229 36.5566 24.0015L36.6373 24.0965ZM34.8228 29.8745C34.8219 29.8192 34.8595 29.7776 34.9074 29.7809L34.9658 29.7849C35.0137 29.7882 35.0513 29.7466 35.0504 29.6913L35.0476 29.5203C35.0467 29.4649 35.0843 29.4233 35.1322 29.4266C35.1801 29.43 35.2192 29.4769 35.2201 29.5322L35.2229 29.7032C35.2238 29.7586 35.2628 29.8055 35.3107 29.8088L35.3691 29.8128C35.417 29.8162 35.456 29.8631 35.4569 29.9184C35.4578 29.9737 35.4202 30.0153 35.3723 30.012L35.3139 30.008C35.266 30.0047 35.2284 30.0463 35.2293 30.1016L35.2321 30.2726C35.233 30.328 35.1954 30.3696 35.1475 30.3663C35.0995 30.3629 35.0605 30.316 35.0596 30.2607L35.0568 30.0897C35.0559 30.0343 35.0169 29.9874 34.969 29.9841L34.9106 29.9801C34.8627 29.9767 34.8237 29.9298 34.8228 29.8745ZM33.1521 27.8877C33.1507 27.8012 33.2106 27.736 33.2846 27.7411L33.3769 27.7475C33.4519 27.7527 33.5108 27.6865 33.5094 27.6009L33.5051 27.3313C33.5037 27.2448 33.5627 27.1796 33.6376 27.1848C33.7125 27.1899 33.7737 27.2645 33.7751 27.35L33.7795 27.6197C33.7809 27.7062 33.8421 27.7797 33.917 27.7849L34.0094 27.7913C34.0843 27.7965 34.1455 27.8701 34.1469 27.9566C34.1483 28.0431 34.0885 28.1083 34.0144 28.1032L33.9221 28.0968C33.8472 28.0916 33.7882 28.1569 33.7896 28.2434L33.794 28.513C33.7954 28.5995 33.7355 28.6647 33.6615 28.6596C33.5874 28.6544 33.5253 28.5798 33.5239 28.4943L33.5196 28.2247C33.5182 28.1382 33.4569 28.0646 33.382 28.0594L33.2897 28.053C33.2147 28.0478 33.1535 27.9732 33.1521 27.8877ZM25.1233 19.0716C25.1221 18.9962 25.1742 18.9395 25.2387 18.944L25.3188 18.9495C25.3841 18.954 25.4354 18.8963 25.4342 18.8219L25.4304 18.5864C25.4292 18.511 25.4813 18.4543 25.5458 18.4588C25.6103 18.4632 25.6644 18.5283 25.6656 18.6027L25.6694 18.8381C25.6706 18.9136 25.7248 18.9776 25.7892 18.9821L25.8694 18.9876C25.9347 18.9922 25.9879 19.0572 25.9892 19.1316C25.9904 19.207 25.9382 19.2637 25.8738 19.2593L25.7936 19.2537C25.7283 19.2492 25.677 19.3069 25.6782 19.3814L25.682 19.6168C25.6833 19.6922 25.6311 19.7489 25.5666 19.7445C25.5022 19.74 25.448 19.6749 25.4468 19.6005L25.443 19.3651C25.4418 19.2896 25.3877 19.2256 25.3232 19.2211L25.2431 19.2156C25.1777 19.2111 25.1245 19.1461 25.1233 19.0716ZM23.4236 18.7831C23.4227 18.7278 23.4603 18.6862 23.5082 18.6895L23.5666 18.6935C23.6145 18.6968 23.6521 18.6552 23.6512 18.5999L23.6484 18.4289C23.6475 18.3736 23.6851 18.3319 23.7331 18.3353C23.781 18.3386 23.82 18.3855 23.8209 18.4408L23.8237 18.6118C23.8246 18.6672 23.8636 18.7141 23.9115 18.7174L23.9699 18.7215C24.0178 18.7248 24.0569 18.7717 24.0578 18.827C24.0587 18.8824 24.021 18.924 23.9731 18.9206L23.9148 18.9166C23.8669 18.9133 23.8292 18.9549 23.8301 19.0102L23.8329 19.1812C23.8338 19.2366 23.7962 19.2782 23.7483 19.2749C23.7004 19.2716 23.6613 19.2246 23.6604 19.1693L23.6577 18.9983C23.6568 18.943 23.6177 18.896 23.5698 18.8927L23.5114 18.8887C23.4635 18.8854 23.4245 18.8384 23.4236 18.7831ZM17.6112 32.263C17.6121 32.3183 17.5744 32.3599 17.5265 32.3566L17.4682 32.3526C17.4203 32.3492 17.3826 32.3909 17.3835 32.4462L17.3863 32.6172C17.3872 32.6725 17.3496 32.7141 17.3017 32.7108C17.2538 32.7075 17.2147 32.6606 17.2138 32.6053L17.2111 32.4342C17.2102 32.3789 17.1711 32.332 17.1232 32.3287L17.0648 32.3246C17.0169 32.3213 16.9779 32.2744 16.977 32.2191C16.9761 32.1637 17.0137 32.1221 17.0616 32.1254L17.12 32.1295C17.1679 32.1328 17.2055 32.0912 17.2046 32.0359L17.2018 31.8648C17.2009 31.8095 17.2385 31.7679 17.2865 31.7712C17.3344 31.7745 17.3734 31.8215 17.3743 31.8768L17.3771 32.0478C17.378 32.1031 17.417 32.1501 17.4649 32.1534L17.5233 32.1574C17.5712 32.1607 17.6103 32.2077 17.6112 32.263ZM18.015 23.4641L17.9567 23.4601C17.9087 23.4567 17.8711 23.4984 17.872 23.5537L17.8748 23.7247C17.8757 23.78 17.8381 23.8217 17.7902 23.8183C17.7423 23.815 17.7032 23.7681 17.7023 23.7128L17.6995 23.5417C17.6987 23.4864 17.6596 23.4395 17.6117 23.4362L17.5533 23.4321C17.5054 23.4288 17.4664 23.3819 17.4655 23.3266C17.4646 23.2712 17.5022 23.2296 17.5501 23.2329L17.6085 23.237C17.6564 23.2403 17.694 23.1987 17.6931 23.1434L17.6903 22.9723C17.6894 22.917 17.727 22.8754 17.7749 22.8787C17.8229 22.882 17.8619 22.929 17.8628 22.9843L17.8656 23.1553C17.8665 23.2106 17.9055 23.2576 17.9534 23.2609L18.0118 23.2649C18.0597 23.2682 18.0987 23.3152 18.0996 23.3705C18.1005 23.4258 18.0629 23.4674 18.015 23.4641ZM19.257 34.3867C19.2585 34.4732 19.1995 34.5385 19.1246 34.5333L19.0322 34.5269C18.9573 34.5217 18.8983 34.587 18.8997 34.6735L18.9041 34.9431C18.9055 35.0296 18.8465 35.0949 18.7716 35.0897C18.6967 35.0845 18.6355 35.0109 18.634 34.9244L18.6297 34.6548C18.6283 34.5683 18.5662 34.4946 18.4921 34.4895L18.3998 34.4831C18.3249 34.4779 18.2636 34.4043 18.2622 34.3178C18.2608 34.2313 18.3198 34.1661 18.3947 34.1712L18.4871 34.1776C18.562 34.1828 18.621 34.1176 18.6196 34.0311L18.6152 33.7614C18.6138 33.6749 18.6728 33.6097 18.7477 33.6149C18.8226 33.6201 18.8838 33.6936 18.8852 33.7802L18.8896 34.0498C18.891 34.1363 18.9531 34.2099 19.0272 34.215L19.1195 34.2214C19.1944 34.2266 19.2557 34.3012 19.257 34.3867Z" fill="url(#paint4_radial_317_1112)"/>
<path d="M44.4068 25.8797C45.4481 25.9206 46.2647 26.9216 46.2239 28.1474C46.1831 29.3732 45.3051 30.3334 44.2639 30.2925C43.2226 30.2517 42.4059 29.2506 42.4468 28.0248C42.4876 26.7991 43.3655 25.8389 44.4068 25.8797Z" fill="url(#paint5_radial_317_1112)"/>
<path d="M44.1212 26.1862C45.0195 26.2066 45.6933 27.0851 45.6728 28.127C45.6524 29.1689 44.897 29.9861 43.9987 29.9657C43.1003 29.9452 42.4266 29.0668 42.447 28.0249C42.4878 26.9829 43.2228 26.1658 44.1212 26.1862Z" fill="url(#paint6_linear_317_1112)"/>
<path d="M28.2569 2.79435C29.2982 2.83521 30.1148 3.83625 30.074 5.06203C30.0332 6.2878 29.1552 7.24799 28.114 7.20713C27.0727 7.16627 26.256 6.16522 26.2969 4.93945C26.3377 3.71368 27.2156 2.75349 28.2569 2.79435Z" fill="url(#paint7_radial_317_1112)"/>
<path d="M27.9923 3.1008C28.8906 3.12123 29.5644 3.9997 29.5439 5.04161C29.5235 6.08351 28.7681 6.90069 27.8698 6.88026C26.9714 6.85983 26.2977 5.98137 26.3181 4.93946C26.3589 3.89755 27.0939 3.08037 27.9923 3.1008Z" fill="url(#paint8_linear_317_1112)"/>
<path d="M28.2166 48.4544C29.2579 48.4952 30.0745 49.4963 30.0337 50.722C29.9929 51.9478 29.115 52.908 28.0737 52.8671C27.0324 52.8263 26.2158 51.8252 26.2566 50.5995C26.2974 49.3737 27.1754 48.4135 28.2166 48.4544Z" fill="url(#paint9_radial_317_1112)"/>
<path d="M27.9305 48.7812C28.8288 48.8016 29.5026 49.6801 29.4822 50.722C29.4413 51.7639 28.7063 52.5811 27.808 52.5607C26.9097 52.5402 26.2359 51.6618 26.2563 50.6199C26.2767 49.578 27.0322 48.7608 27.9305 48.7812Z" fill="url(#paint10_linear_317_1112)"/>
<path d="M10.4539 25.8389C11.4952 25.8797 12.3119 26.8808 12.271 28.1065C12.2302 29.3323 11.3523 30.2925 10.311 30.2516C9.26974 30.2108 8.45306 29.2097 8.4939 27.984C8.53473 26.7582 9.41266 25.798 10.4539 25.8389Z" fill="url(#paint11_radial_317_1112)"/>
<path d="M10.1676 26.1453C11.0659 26.1657 11.7397 27.0442 11.7192 28.0861C11.6784 29.128 10.9434 29.9452 10.0451 29.9248C9.14671 29.9044 8.47295 29.0259 8.49337 27.984C8.51379 26.9421 9.26921 26.1249 10.1676 26.1453Z" fill="url(#paint12_linear_317_1112)"/>
<g style="mix-blend-mode:soft-light">
<path d="M2.85815 13.3156H10.1266C10.1266 13.3156 12.0662 7.14584 19.8654 1.60944L12.6378 1.89545C12.6378 1.89545 4.94067 6.77811 2.85815 13.3156Z" fill="#00B2FF"/>
</g>
<path d="M11.3522 10.9866C11.0664 11.5995 16.3544 8.7189 17.4773 6.57379C18.6002 4.42869 19.3148 2.95777 18.784 2.65132C18.2531 2.34488 13.0877 7.16625 11.3522 10.9866Z" fill="white"/>
<path d="M38.3434 49.1898C36.4242 49.7006 41.0793 44.8792 41.5693 45.0835C42.0593 45.2878 40.0788 48.72 38.3434 49.1898Z" fill="white"/>
<defs>
<radialGradient id="paint0_radial_317_1112" cx="0" cy="0" r="1" gradientUnits="userSpaceOnUse" gradientTransform="translate(19.7896 27.4088) rotate(0.0700435) scale(23.9081 23.923)">
<stop stop-color="#0500FF"/>
<stop offset="1" stop-color="#050031"/>
</radialGradient>
<linearGradient id="paint1_linear_317_1112" x1="27.1271" y1="54.773" x2="27.194" y2="0.0219128" gradientUnits="userSpaceOnUse">
<stop stop-color="#0E0082"/>
<stop offset="1" stop-color="#1400FF"/>
</linearGradient>
<radialGradient id="paint2_radial_317_1112" cx="0" cy="0" r="1" gradientUnits="userSpaceOnUse" gradientTransform="translate(27.1603 27.3975) rotate(0.0700435) scale(16.8439 16.8544)">
<stop stop-color="#001AFF"/>
<stop offset="1" stop-color="#050030"/>
</radialGradient>
<linearGradient id="paint3_linear_317_1112" x1="26.2384" y1="46.6614" x2="26.2855" y2="8.13133" gradientUnits="userSpaceOnUse">
<stop stop-color="#0E0082"/>
<stop offset="0.9999" stop-color="#012AFE"/>
<stop offset="1" stop-color="#0500FF"/>
</linearGradient>
<radialGradient id="paint4_radial_317_1112" cx="0" cy="0" r="1" gradientUnits="userSpaceOnUse" gradientTransform="translate(26.5592 27.9467) rotate(60.344) scale(13.9413 12.1458)">
<stop offset="0.10409" stop-color="#14F1FF"/>
<stop offset="0.978353" stop-color="#13AAFF"/>
</radialGradient>
<radialGradient id="paint5_radial_317_1112" cx="0" cy="0" r="1" gradientUnits="userSpaceOnUse" gradientTransform="translate(48.4005 28.2073) rotate(-88.0712) scale(2.20639 1.87427)">
<stop stop-color="#0500FF"/>
<stop offset="1" stop-color="#050030"/>
</radialGradient>
<linearGradient id="paint6_linear_317_1112" x1="48.1293" y1="30.0788" x2="48.0877" y2="26.3183" gradientUnits="userSpaceOnUse">
<stop stop-color="#00FFF4"/>
<stop offset="1" stop-color="#30A7FB"/>
</linearGradient>
<radialGradient id="paint7_radial_317_1112" cx="0" cy="0" r="1" gradientUnits="userSpaceOnUse" gradientTransform="translate(32.2506 5.12196) rotate(-88.0712) scale(2.20639 1.87427)">
<stop stop-color="#0500FF"/>
<stop offset="1" stop-color="#050030"/>
</radialGradient>
<linearGradient id="paint8_linear_317_1112" x1="32.0813" y1="6.99108" x2="32.0405" y2="3.21017" gradientUnits="userSpaceOnUse">
<stop stop-color="#00FFF4"/>
<stop offset="1" stop-color="#30A7FB"/>
</linearGradient>
<radialGradient id="paint9_radial_317_1112" cx="0" cy="0" r="1" gradientUnits="userSpaceOnUse" gradientTransform="translate(32.2103 50.782) rotate(-88.0712) scale(2.20639 1.87427)">
<stop stop-color="#0500FF"/>
<stop offset="1" stop-color="#050030"/>
</radialGradient>
<linearGradient id="paint10_linear_317_1112" x1="32.019" y1="52.6545" x2="31.9774" y2="48.894" gradientUnits="userSpaceOnUse">
<stop stop-color="#00FFF4"/>
<stop offset="1" stop-color="#30A7FB"/>
</linearGradient>
<radialGradient id="paint11_radial_317_1112" cx="0" cy="0" r="1" gradientUnits="userSpaceOnUse" gradientTransform="translate(14.4476 28.1665) rotate(-88.0712) scale(2.20639 1.87427)">
<stop stop-color="#0500FF"/>
<stop offset="1" stop-color="#050030"/>
</radialGradient>
<linearGradient id="paint12_linear_317_1112" x1="14.3568" y1="30.0438" x2="14.3152" y2="26.2834" gradientUnits="userSpaceOnUse">
<stop stop-color="#00FFF4"/>
<stop offset="1" stop-color="#30A7FB"/>
</linearGradient>
</defs>
</svg>
