<svg width="71" height="66" viewBox="0 0 71 66" fill="none" xmlns="http://www.w3.org/2000/svg">
<path opacity="0.1" d="M64.7882 57.7452C64.6652 57.8777 64.5217 58.0103 64.3577 58.1326C52.2238 67.9924 18.794 67.6457 4.14919 58.7852C3.38057 58.3264 2.86816 57.8369 2.6222 57.3271C-2.57367 46.5701 0.244602 14.1972 8.49446 7.19238C17.349 -0.312025 51.3937 -3.70736 62.3286 5.83629C70.353 12.8309 74.1756 47.9364 64.7882 57.7452Z" fill="#3C3E48"/>
<path d="M62.8026 56.5434C62.687 56.6686 62.5522 56.7938 62.3982 56.9093C50.997 66.2209 19.5862 65.8935 5.82585 57.5256C5.10365 57.0923 4.62218 56.6301 4.39108 56.1486C-0.490991 45.9897 2.15708 15.4166 9.90869 8.80121C18.2284 1.71402 50.2171 -1.49255 60.4916 7.52051C68.0313 14.1262 71.6231 47.28 62.8026 56.5434Z" fill="url(#paint0_linear_89_3776)"/>
<path d="M4.38962 54.1392C9.09836 63.9418 53.1044 64.7218 62.8011 54.534C71.6216 45.2705 68.0299 12.1168 60.4901 5.51103C50.2156 -3.50202 18.227 -0.295457 9.90722 6.80136C2.15561 13.4071 -0.492456 43.9802 4.38962 54.1392Z" fill="url(#paint1_radial_89_3776)"/>
<g style="mix-blend-mode:multiply" filter="url(#filter0_f_89_3776)">
<path d="M44.0426 19C45.2171 19.3595 46.2226 19.8587 46.9294 20.5061H56.4516V36.5435C56.9518 37.101 57.242 37.755 57.242 38.5122V39.2145C57.242 39.6238 57.1499 40.0033 56.9928 40.3561L57.242 40.3627V42.19C57.242 42.5827 57.1601 42.9472 57.015 43.285L57.242 43.2916V45.1205C57.242 45.4783 57.1686 45.8112 57.0457 46.124H58V19H44.0426Z" fill="#CED6FF"/>
<path d="M33.7385 19H7V46.1174H30.5206C30.1382 45.6764 29.8958 45.1755 29.8139 44.613H8.54494V20.5077H30.8484C31.5568 19.8587 32.5657 19.3611 33.7385 19Z" fill="#CED6FF"/>
<path d="M46.4633 24.6032C46.4633 26.2341 43.073 27.5554 38.8906 27.5554C34.7064 27.5554 31.3161 26.2341 31.3161 24.6032V26.4288C31.3161 28.0596 34.7013 29.381 38.8906 29.381C43.0696 29.381 46.4633 28.0596 46.4633 26.4288V24.6032Z" fill="#CED6FF"/>
<path d="M46.4633 27.5338C46.4633 29.1646 43.073 30.4843 38.8906 30.4843C34.7064 30.4843 31.3161 29.1646 31.3161 27.5338V29.361C31.3161 30.9919 34.7013 32.3132 38.8906 32.3132C43.0696 32.3132 46.4633 30.9919 46.4633 29.361V27.5338Z" fill="#CED6FF"/>
<path d="M46.4633 30.461C46.4633 32.0919 43.073 33.4132 38.8906 33.4132C34.7064 33.4132 31.3161 32.0919 31.3161 30.461V32.2883C31.3161 33.9191 34.7013 35.2405 38.8906 35.2405C43.0696 35.2405 46.4633 33.9208 46.4633 32.2883V30.461Z" fill="#CED6FF"/>
<path d="M46.4633 22.7543C46.4633 21.1235 43.073 19.8021 38.8906 19.8021C34.7064 19.8021 31.3161 21.1235 31.3161 22.7543V23.4549C31.3161 25.0858 34.7013 26.4071 38.8906 26.4071C43.0696 26.4071 46.4633 25.0875 46.4633 23.4549V22.7543ZM38.8923 24.9693C34.7303 24.9693 32.0758 23.658 32.0758 22.7543C32.0758 21.8507 34.7303 20.5393 38.8923 20.5393C43.0525 20.5393 45.7037 21.8507 45.7037 22.7543C45.7037 23.658 43.0508 24.9693 38.8923 24.9693Z" fill="#CED6FF"/>
<path d="M46.4633 34.5033V33.3916C46.4633 33.8093 46.2363 34.2054 45.8351 34.5682C46.0434 34.5432 46.2516 34.5199 46.4633 34.5033Z" fill="#CED6FF"/>
<path d="M38.8923 36.3438C34.7082 36.3438 31.3178 35.0241 31.3178 33.3933V35.2205C31.3178 36.8514 34.703 38.1727 38.8923 38.1727C39.0732 38.1727 39.2559 38.1644 39.4351 38.1611C39.5478 37.4155 40.0139 36.7765 40.7274 36.2539C40.1385 36.3105 39.5256 36.3438 38.8923 36.3438Z" fill="#CED6FF"/>
<path d="M31.3195 36.5219V38.3508C31.3195 39.98 34.7064 41.3013 38.8923 41.3013C39.0664 41.3013 39.232 41.2947 39.4027 41.2913C39.4027 40.4709 39.4027 39.8086 39.4027 39.4641C39.232 39.4674 39.0664 39.4741 38.8923 39.4741C34.7064 39.4741 31.3195 38.1544 31.3195 36.5219Z" fill="#CED6FF"/>
<path d="M31.3195 39.4491V41.278C31.3195 42.9072 34.7064 44.2286 38.8923 44.2286C39.0664 44.2286 39.232 44.2219 39.4027 44.2186C39.4027 43.6078 39.4027 42.9871 39.4027 42.3913C39.232 42.3947 39.0664 42.4013 38.8923 42.4013C34.7064 42.4046 31.3195 41.0833 31.3195 39.4491Z" fill="#CED6FF"/>
<path d="M31.3195 42.3797V44.2086C31.3195 45.8378 34.7064 47.1608 38.8923 47.1608C39.0664 47.1608 39.232 47.1541 39.4027 47.1508C39.4027 46.6699 39.4027 46.0342 39.4027 45.3236C39.232 45.3269 39.0664 45.3336 38.8923 45.3336C34.7064 45.3319 31.3195 44.0122 31.3195 42.3797Z" fill="#CED6FF"/>
<path d="M48.1244 43.3149C43.9436 43.3149 40.5516 41.9936 40.5516 40.3627V42.19C40.5516 43.8208 43.9419 45.1422 48.1244 45.1422C52.3085 45.1422 55.6971 43.8208 55.6971 42.19V40.3627C55.6954 41.9936 52.3085 43.3149 48.1244 43.3149Z" fill="#CED6FF"/>
<path d="M48.1244 46.2422C43.9436 46.2422 40.5516 44.9225 40.5516 43.29V45.1189C40.5516 46.7481 43.9419 48.0711 48.1244 48.0711C52.3085 48.0711 55.6971 46.7481 55.6971 45.1189V43.29C55.6954 44.9208 52.3085 46.2422 48.1244 46.2422Z" fill="#CED6FF"/>
<path d="M48.1244 49.1728C43.9436 49.1728 40.5516 47.8498 40.5516 46.2206V48.0478C40.5516 49.677 43.9419 51 48.1244 51C52.3085 51 55.6971 49.677 55.6971 48.0478V46.2206C55.6954 47.8498 52.3085 49.1728 48.1244 49.1728Z" fill="#CED6FF"/>
<path d="M48.1244 35.5567C43.9436 35.5567 40.5516 36.878 40.5516 38.5072V39.2111C40.5516 40.8403 43.9419 42.1633 48.1244 42.1633C52.3085 42.1633 55.6971 40.8437 55.6971 39.2111V38.5105C55.6954 36.878 52.3085 35.5567 48.1244 35.5567ZM48.1244 40.7255C43.9624 40.7255 41.313 39.4125 41.313 38.5089C41.313 37.6052 43.9675 36.2955 48.1244 36.2955C52.2863 36.2955 54.9391 37.6052 54.9391 38.5089C54.9391 39.4125 52.2846 40.7255 48.1244 40.7255Z" fill="#CED6FF"/>
<path d="M29.7729 43.8591V22.7543C29.7729 22.2018 29.9317 21.7076 30.2082 21.2632H9.31826V43.8608L29.7729 43.8591ZM16.8005 27.5654C17.4697 26.9164 18.3557 26.5403 19.4585 26.4338V24.7946H20.7781V26.3988C22.0499 26.4571 22.9991 26.6568 23.6256 26.9979V29.376C22.7823 28.8784 21.8314 28.5722 20.7781 28.4607V31.8007C22.0977 32.265 23.0434 32.7942 23.617 33.3916C24.1889 33.9874 24.4757 34.7096 24.4757 35.555C24.4757 36.5285 24.1548 37.3173 23.5163 37.9114C22.8779 38.5055 21.9646 38.87 20.7781 38.9998V40.9102H19.4568V39.0514C18.2328 39.0447 17.0959 38.7751 16.0409 38.2426V35.798C16.3908 36.0742 16.9115 36.3305 17.6046 36.5651C18.296 36.8014 18.9156 36.9362 19.4568 36.9712V33.7627C18.0484 33.2518 17.0822 32.6976 16.5701 32.1019C16.0545 31.5061 15.7968 30.7789 15.7968 29.9202C15.7968 28.9999 16.1313 28.2128 16.8005 27.5654Z" fill="#CED6FF"/>
<path d="M48.1244 34.0523C50.9599 34.0523 53.9251 34.638 55.68 35.8728V21.2616H47.5747C47.8512 21.7076 48.0083 22.2018 48.0083 22.7527V34.0539C48.0458 34.0556 48.0868 34.0523 48.1244 34.0523Z" fill="#CED6FF"/>
<path d="M19.4568 31.2881V28.4957C18.6203 28.6421 18.2004 29.0681 18.2004 29.7721C18.2004 30.3778 18.6203 30.8804 19.4568 31.2881Z" fill="#CED6FF"/>
<path d="M22.0704 35.6765C22.0704 35.099 21.6402 34.6314 20.7781 34.2669V36.9362C21.6402 36.8048 22.0704 36.3871 22.0704 35.6765Z" fill="#CED6FF"/>
</g>
<path d="M46.0426 17C47.2171 17.3595 48.2226 17.8587 48.9294 18.5061H58.4516V34.5435C58.9518 35.101 59.242 35.755 59.242 36.5122V37.2145C59.242 37.6238 59.1499 38.0033 58.9928 38.3561L59.242 38.3627V40.19C59.242 40.5827 59.1601 40.9472 59.015 41.285L59.242 41.2916V43.1205C59.242 43.4783 59.1686 43.8112 59.0457 44.124H60V17H46.0426Z" fill="white"/>
<path d="M35.7385 17H9V44.1174H32.5206C32.1382 43.6764 31.8958 43.1755 31.8139 42.613H10.5449V18.5077H32.8484C33.5568 17.8587 34.5657 17.3611 35.7385 17Z" fill="white"/>
<path d="M48.4633 22.6032C48.4633 24.2341 45.073 25.5554 40.8906 25.5554C36.7064 25.5554 33.3161 24.2341 33.3161 22.6032V24.4288C33.3161 26.0596 36.7013 27.381 40.8906 27.381C45.0696 27.381 48.4633 26.0596 48.4633 24.4288V22.6032Z" fill="white"/>
<path d="M48.4633 25.5338C48.4633 27.1646 45.073 28.4843 40.8906 28.4843C36.7064 28.4843 33.3161 27.1646 33.3161 25.5338V27.361C33.3161 28.9919 36.7013 30.3132 40.8906 30.3132C45.0696 30.3132 48.4633 28.9919 48.4633 27.361V25.5338Z" fill="white"/>
<path d="M48.4633 28.461C48.4633 30.0919 45.073 31.4132 40.8906 31.4132C36.7064 31.4132 33.3161 30.0919 33.3161 28.461V30.2883C33.3161 31.9191 36.7013 33.2405 40.8906 33.2405C45.0696 33.2405 48.4633 31.9208 48.4633 30.2883V28.461Z" fill="white"/>
<path d="M48.4633 20.7543C48.4633 19.1235 45.073 17.8021 40.8906 17.8021C36.7064 17.8021 33.3161 19.1235 33.3161 20.7543V21.4549C33.3161 23.0858 36.7013 24.4071 40.8906 24.4071C45.0696 24.4071 48.4633 23.0875 48.4633 21.4549V20.7543ZM40.8923 22.9693C36.7303 22.9693 34.0758 21.658 34.0758 20.7543C34.0758 19.8507 36.7303 18.5393 40.8923 18.5393C45.0525 18.5393 47.7037 19.8507 47.7037 20.7543C47.7037 21.658 45.0508 22.9693 40.8923 22.9693Z" fill="white"/>
<path d="M48.4633 32.5033V31.3916C48.4633 31.8093 48.2363 32.2054 47.8351 32.5682C48.0434 32.5432 48.2516 32.5199 48.4633 32.5033Z" fill="white"/>
<path d="M40.8923 34.3438C36.7082 34.3438 33.3178 33.0241 33.3178 31.3933V33.2205C33.3178 34.8514 36.703 36.1727 40.8923 36.1727C41.0732 36.1727 41.2559 36.1644 41.4351 36.1611C41.5478 35.4155 42.0139 34.7765 42.7274 34.2539C42.1385 34.3105 41.5256 34.3438 40.8923 34.3438Z" fill="white"/>
<path d="M33.3195 34.5219V36.3508C33.3195 37.98 36.7064 39.3013 40.8923 39.3013C41.0664 39.3013 41.232 39.2947 41.4027 39.2913C41.4027 38.4709 41.4027 37.8086 41.4027 37.4641C41.232 37.4674 41.0664 37.4741 40.8923 37.4741C36.7064 37.4741 33.3195 36.1544 33.3195 34.5219Z" fill="white"/>
<path d="M33.3195 37.4491V39.278C33.3195 40.9072 36.7064 42.2286 40.8923 42.2286C41.0664 42.2286 41.232 42.2219 41.4027 42.2186C41.4027 41.6078 41.4027 40.9871 41.4027 40.3913C41.232 40.3947 41.0664 40.4013 40.8923 40.4013C36.7064 40.4046 33.3195 39.0833 33.3195 37.4491Z" fill="white"/>
<path d="M33.3195 40.3797V42.2086C33.3195 43.8378 36.7064 45.1608 40.8923 45.1608C41.0664 45.1608 41.232 45.1541 41.4027 45.1508C41.4027 44.6699 41.4027 44.0342 41.4027 43.3236C41.232 43.3269 41.0664 43.3336 40.8923 43.3336C36.7064 43.3319 33.3195 42.0122 33.3195 40.3797Z" fill="white"/>
<path d="M50.1244 41.3149C45.9436 41.3149 42.5516 39.9936 42.5516 38.3627V40.19C42.5516 41.8208 45.9419 43.1422 50.1244 43.1422C54.3085 43.1422 57.6971 41.8208 57.6971 40.19V38.3627C57.6954 39.9936 54.3085 41.3149 50.1244 41.3149Z" fill="white"/>
<path d="M50.1244 44.2422C45.9436 44.2422 42.5516 42.9225 42.5516 41.29V43.1189C42.5516 44.7481 45.9419 46.0711 50.1244 46.0711C54.3085 46.0711 57.6971 44.7481 57.6971 43.1189V41.29C57.6954 42.9208 54.3085 44.2422 50.1244 44.2422Z" fill="white"/>
<path d="M50.1244 47.1728C45.9436 47.1728 42.5516 45.8498 42.5516 44.2206V46.0478C42.5516 47.677 45.9419 49 50.1244 49C54.3085 49 57.6971 47.677 57.6971 46.0478V44.2206C57.6954 45.8498 54.3085 47.1728 50.1244 47.1728Z" fill="white"/>
<path d="M50.1244 33.5567C45.9436 33.5567 42.5516 34.878 42.5516 36.5072V37.2111C42.5516 38.8403 45.9419 40.1633 50.1244 40.1633C54.3085 40.1633 57.6971 38.8437 57.6971 37.2111V36.5105C57.6954 34.878 54.3085 33.5567 50.1244 33.5567ZM50.1244 38.7255C45.9624 38.7255 43.313 37.4125 43.313 36.5089C43.313 35.6052 45.9675 34.2955 50.1244 34.2955C54.2863 34.2955 56.9391 35.6052 56.9391 36.5089C56.9391 37.4125 54.2846 38.7255 50.1244 38.7255Z" fill="white"/>
<path d="M31.7729 41.8591V20.7543C31.7729 20.2018 31.9317 19.7076 32.2082 19.2632H11.3183V41.8608L31.7729 41.8591ZM18.8005 25.5654C19.4697 24.9164 20.3557 24.5403 21.4585 24.4338V22.7946H22.7781V24.3988C24.0499 24.4571 24.9991 24.6568 25.6256 24.9979V27.376C24.7823 26.8784 23.8314 26.5722 22.7781 26.4607V29.8007C24.0977 30.265 25.0434 30.7942 25.617 31.3916C26.1889 31.9874 26.4757 32.7096 26.4757 33.555C26.4757 34.5285 26.1548 35.3173 25.5163 35.9114C24.8779 36.5055 23.9646 36.87 22.7781 36.9998V38.9102H21.4568V37.0514C20.2328 37.0447 19.0959 36.7751 18.0409 36.2426V33.798C18.3908 34.0742 18.9115 34.3305 19.6046 34.5651C20.296 34.8014 20.9156 34.9362 21.4568 34.9712V31.7627C20.0484 31.2518 19.0822 30.6976 18.5701 30.1019C18.0545 29.5061 17.7968 28.7789 17.7968 27.9202C17.7968 26.9999 18.1313 26.2128 18.8005 25.5654Z" fill="white"/>
<path d="M50.1244 32.0523C52.9599 32.0523 55.9251 32.638 57.68 33.8728V19.2616H49.5747C49.8512 19.7076 50.0083 20.2018 50.0083 20.7527V32.0539C50.0458 32.0556 50.0868 32.0523 50.1244 32.0523Z" fill="white"/>
<path d="M21.4568 29.2881V26.4957C20.6203 26.6421 20.2004 27.0681 20.2004 27.7721C20.2004 28.3778 20.6203 28.8804 21.4568 29.2881Z" fill="white"/>
<path d="M24.0704 33.6765C24.0704 33.099 23.6402 32.6314 22.7781 32.2669V34.9362C23.6402 34.8048 24.0704 34.3871 24.0704 33.6765Z" fill="white"/>
<path style="mix-blend-mode:screen" d="M9.5 8.50001C9.5 8.50001 22.5 -4 57 4C57 4 68 14 65.0251 20.7287C65.0251 20.7287 66 23 62 25C60.993 17.767 48 9.70387 39 7.70346C30.5 7.70346 8 10.5 8 10.5L9.5 8.50001Z" fill="url(#paint2_linear_89_3776)"/>
<path d="M7 11.5377C7 11.5377 8.47329 8.51406 11.8821 6.89633C15.3005 5.27861 25.0165 3.65125 25.575 4.06531C26.1239 4.47937 20.8373 6.38598 18.1026 7.39706C15.3679 8.40814 8.39625 12.3176 7 11.5473V11.5377Z" fill="white"/>
<path style="mix-blend-mode:screen" d="M62.3114 54.1143C62.3114 54.1143 58.5002 58.1686 51.0002 59.5C47.2765 60.161 42.93 61.0465 42.5002 60.5C42.0796 59.9561 47.6061 55.4426 50.5105 55.1869C53.4149 54.9312 61.1697 52.9944 62.314 54.1051L62.3114 54.1143Z" fill="url(#paint3_linear_89_3776)"/>
<path d="M7.35415 13.0096C6.65121 13.1156 4.89867 18.5658 5.0046 19.4613C5.11052 20.3568 7.21934 17.5258 7.54674 16.014C7.87414 14.5118 7.35415 13 7.35415 13V13.0096Z" fill="white"/>
<path style="mix-blend-mode:screen" d="M63.4504 52.0183C64.1597 51.9703 66.3521 46.6817 66.3198 45.7805C66.2875 44.8793 63.9542 47.5283 63.5042 49.0083C63.055 50.4787 63.4496 52.0279 63.4496 52.0279L63.4504 52.0183Z" fill="url(#paint4_linear_89_3776)"/>
<path d="M60.0316 54.7213C59.6223 53.6892 63.3061 48.9776 64.246 49.0001C65.1859 49.0225 64.3521 52.0963 63.776 52.8142C63.2151 53.5322 60.2287 55.2373 60.0316 54.7213Z" fill="white"/>
<defs>
<filter id="filter0_f_89_3776" x="6" y="18" width="53" height="34" filterUnits="userSpaceOnUse" color-interpolation-filters="sRGB">
<feFlood flood-opacity="0" result="BackgroundImageFix"/>
<feBlend mode="normal" in="SourceGraphic" in2="BackgroundImageFix" result="shape"/>
<feGaussianBlur stdDeviation="0.5" result="effect1_foregroundBlur_89_3776"/>
</filter>
<linearGradient id="paint0_linear_89_3776" x1="38.1867" y1="63.847" x2="38.1867" y2="2.00908" gradientUnits="userSpaceOnUse">
<stop stop-color="#C26900"/>
<stop offset="1" stop-color="#923D00"/>
</linearGradient>
<radialGradient id="paint1_radial_89_3776" cx="0" cy="0" r="1" gradientUnits="userSpaceOnUse" gradientTransform="translate(35.7326 57.4711) scale(25.3388 75.8087)">
<stop stop-color="#FFBD00"/>
<stop offset="1" stop-color="#FF772C"/>
</radialGradient>
<linearGradient id="paint2_linear_89_3776" x1="11.6763" y1="13.8808" x2="57.9957" y2="13.8808" gradientUnits="userSpaceOnUse">
<stop stop-color="#7ED140"/>
<stop offset="0.11" stop-color="#74C03B"/>
<stop offset="0.34" stop-color="#5A962E"/>
<stop offset="0.65" stop-color="#315219"/>
<stop offset="1"/>
</linearGradient>
<linearGradient id="paint3_linear_89_3776" x1="59.6276" y1="56.9107" x2="45.5878" y2="53.0805" gradientUnits="userSpaceOnUse">
<stop stop-color="#7ED140"/>
<stop offset="0.11" stop-color="#74C03B"/>
<stop offset="0.34" stop-color="#5A962E"/>
<stop offset="0.65" stop-color="#315219"/>
<stop offset="1"/>
</linearGradient>
<linearGradient id="paint4_linear_89_3776" x1="65.8257" y1="48.6256" x2="63.757" y2="48.4559" gradientUnits="userSpaceOnUse">
<stop stop-color="#7ED140"/>
<stop offset="0.11" stop-color="#74C03B"/>
<stop offset="0.34" stop-color="#5A962E"/>
<stop offset="0.65" stop-color="#315219"/>
<stop offset="1"/>
</linearGradient>
</defs>
</svg>
