<svg width="30" height="30" viewBox="0 0 30 30" fill="none" xmlns="http://www.w3.org/2000/svg">
<path d="M6.29031 4.83875C6.29031 2.1666 8.45641 0 11.129 0H25.1613C27.8339 0 30 2.1666 30 4.83875V18.8709C30 21.5431 27.8339 23.7097 25.1613 23.7097H24.6774V10.1613C24.6774 7.48911 22.5114 5.3226 19.8387 5.3226H6.29031V4.83875Z" fill="white"/>
<path fill-rule="evenodd" clip-rule="evenodd" d="M4.8387 6.29031C2.16637 6.29031 0 8.45673 0 11.1291V25.1613C0 27.8337 2.16637 30 4.8387 30H18.871C21.5433 30 23.7097 27.8337 23.7097 25.1613V11.1291C23.7097 8.45673 21.5433 6.29031 18.871 6.29031H4.8387ZM11.6126 13.9943L13.6112 11.9957C14.8201 10.7868 16.7608 10.7608 17.9371 11.9372C19.1139 13.1139 19.0879 15.0547 17.8791 16.2635L14.4174 19.7251C13.2077 20.9349 11.2665 20.9614 10.0898 19.7845C9.84105 19.5359 9.84663 19.1284 10.1022 18.8728C10.3577 18.6172 10.7653 18.6117 11.0139 18.8604C11.6952 19.5417 12.8176 19.5263 13.5181 18.8258L16.9797 15.3642C17.6789 14.665 17.6942 13.5426 17.013 12.8613C16.3317 12.1801 15.2097 12.1958 14.5106 12.895L12.512 14.8936C12.256 15.1496 11.8489 15.1547 11.6002 14.9061C11.3516 14.6574 11.3567 14.2503 11.6126 13.9943ZM8.6543 16.9526L5.19315 20.4138C3.98383 21.6231 3.95691 23.5638 5.13368 24.7407C6.31046 25.9174 8.25165 25.8909 9.46097 24.6816L11.4581 22.6844C11.7137 22.4289 11.7193 22.0213 11.4706 21.7726C11.2215 21.5235 10.8143 21.5295 10.5588 21.7851L8.5616 23.7823C7.86154 24.4824 6.73915 24.4977 6.05791 23.8164C5.37662 23.1352 5.39241 22.0132 6.09247 21.3131L9.55362 17.852C10.2542 17.1515 11.3757 17.1361 12.0569 17.8174C12.306 18.0666 12.7132 18.0605 12.9687 17.805C13.2247 17.549 13.2302 17.1423 12.9811 16.8932C11.8048 15.7169 9.86362 15.7433 8.6543 16.9526Z" fill="white"/>
</svg>
