<svg width="11" height="11" viewBox="0 0 11 11" fill="none" xmlns="http://www.w3.org/2000/svg">
<path d="M10 5.5C10 8.12335 7.87335 10.25 5.25 10.25C2.62665 10.25 0.5 8.12335 0.5 5.5C0.5 2.87665 2.62665 0.75 5.25 0.75C7.87335 0.75 10 2.87665 10 5.5Z" stroke="#14F1FF"/>
<path d="M5.20172 8.5C4.65343 8.5 4.15397 8.36742 3.70333 8.10227C3.25268 7.83712 2.89592 7.47727 2.63305 7.02273C2.37768 6.56818 2.25 6.06061 2.25 5.5C2.25 4.93939 2.38144 4.43561 2.64431 3.98864C2.90719 3.53409 3.26019 3.17424 3.70333 2.90909C4.15397 2.63636 4.65343 2.5 5.20172 2.5C5.63734 2.5 6.05418 2.58333 6.45225 2.75C6.85783 2.91667 7.20708 3.15152 7.5 3.45455L6.8015 4.23864C6.58369 3.99621 6.33959 3.81439 6.06921 3.69318C5.79882 3.57197 5.51717 3.51136 5.22425 3.51136C4.87876 3.51136 4.5633 3.59849 4.2779 3.77273C4 3.94697 3.77843 4.18561 3.6132 4.48864C3.44796 4.79167 3.36534 5.12879 3.36534 5.5C3.36534 5.87121 3.44796 6.20833 3.6132 6.51136C3.77843 6.81439 4.00376 7.05682 4.28916 7.23864C4.57457 7.41288 4.89378 7.5 5.24678 7.5C5.5397 7.5 5.81384 7.44318 6.06921 7.32955C6.32457 7.20833 6.56491 7.03409 6.79024 6.80682L7.47747 7.53409C7.17704 7.8447 6.82779 8.08333 6.42972 8.25C6.03916 8.41667 5.62983 8.5 5.20172 8.5Z" fill="#14F1FF"/>
</svg>
