<svg width="80" height="69" viewBox="0 0 80 69" fill="none" xmlns="http://www.w3.org/2000/svg">
<path d="M1.32168 55.3638C4.03972 65.9813 71.9369 73.9713 77.5614 62.9516C82.6745 52.9239 78.8262 11.9822 74.4396 4.82339C68.4923 -4.93614 9.74492 1.9009 4.9278 9.59591C0.433612 16.7547 -1.504 44.3709 1.32168 55.3638Z" fill="url(#paint0_radial_426_7602)"/>
<path d="M1.53703 53.487C4.25507 63.7292 71.7486 69.4669 77.3461 58.8226C82.4323 49.1435 78.6648 12.1431 74.3051 5.22564C68.3847 -4.15852 9.85262 2.4372 5.06241 9.83728C0.568225 16.7547 -1.26174 42.8695 1.53703 53.487Z" fill="url(#paint1_linear_426_7602)"/>
<path d="M2.37107 52.6024C5.03529 62.5496 71.1025 68.2605 76.5924 57.9379C81.571 48.5538 77.8303 12.4918 73.5783 5.78879C67.7655 -3.35406 10.4983 3.05398 5.7888 10.2396C1.40226 16.9425 -0.400793 42.2798 2.37107 52.6024Z" fill="url(#paint2_linear_426_7602)"/>
<g clip-path="url(#clip0_426_7602)">
<path d="M36 16H34.6666V17.3334H36V16Z" fill="#0029FE"/>
<path d="M30.6667 16H29.3334V17.3334H30.6667V16Z" fill="#0029FE"/>
<path d="M25.3334 16H24V17.3334H25.3334V16Z" fill="#0029FE"/>
<path d="M57 12H23C21.346 12 20 13.346 20 15V20H60V15C60 13.346 58.654 12 57 12ZM26.6666 18C26.6666 18.368 26.368 18.6666 26 18.6666H23.3334C22.9654 18.6666 22.6667 18.368 22.6667 18V15.3334C22.6667 14.9654 22.9654 14.6667 23.3334 14.6667H26C26.368 14.6667 26.6666 14.9654 26.6666 15.3334V18ZM32 18C32 18.368 31.7013 18.6666 31.3334 18.6666H28.6667C28.2987 18.6666 28.0001 18.368 28.0001 18V15.3334C28.0001 14.9654 28.2987 14.6667 28.6667 14.6667H31.3334C31.7013 14.6667 32 14.9654 32 15.3334V18ZM37.3334 18C37.3334 18.368 37.0347 18.6666 36.6667 18.6666H34C33.632 18.6666 33.3334 18.368 33.3334 18V15.3334C33.3334 14.9654 33.632 14.6667 34 14.6667H36.6666C37.0346 14.6667 37.3333 14.9654 37.3333 15.3334V18H37.3334Z" fill="#0029FE"/>
<path d="M20 21.3334V34.6667H60V21.3334H20ZM53.334 26.11C53.334 26.58 53.334 27.05 53.334 27.52C53.334 27.87 53.334 28.22 53.334 28.5694C53.334 28.602 53.334 28.6347 53.334 28.6667C53.334 29.0354 53.0353 29.3334 52.6673 29.3334C52.2994 29.3334 52.0007 29.0354 52.0007 28.6667V27.0867L47.832 31.776C47.8234 31.786 47.8107 31.7894 47.8013 31.798C47.7913 31.808 47.7873 31.8214 47.7766 31.8314C47.7406 31.8634 47.698 31.8801 47.658 31.9034C47.6327 31.9174 47.6113 31.9368 47.5846 31.9474C47.5039 31.9801 47.4193 32.0001 47.3339 32.0001C47.2485 32.0001 47.1639 31.9808 47.0833 31.9474C47.0566 31.9367 47.0353 31.9174 47.0099 31.9034C46.9699 31.8808 46.9273 31.8634 46.8913 31.8314C46.8806 31.8221 46.8766 31.808 46.8666 31.798C46.8572 31.7887 46.8445 31.7854 46.8359 31.776L42.0005 26.3367L37.1652 31.776C37.1566 31.786 37.1439 31.7894 37.1345 31.798C37.1245 31.808 37.1205 31.8214 37.1098 31.8314C37.0738 31.8634 37.0312 31.8801 36.9912 31.9034C36.9659 31.9174 36.9445 31.9368 36.9178 31.9474C36.8371 31.9801 36.7525 32.0001 36.6671 32.0001C36.5818 32.0001 36.4971 31.9808 36.4165 31.9474C36.3898 31.9367 36.3685 31.9174 36.3431 31.9034C36.3031 31.8808 36.2605 31.8634 36.2245 31.8314C36.2138 31.8221 36.2098 31.808 36.1998 31.798C36.1905 31.7887 36.1777 31.7854 36.1691 31.776L31.3338 26.3367L26.4984 31.776C26.3666 31.9247 26.184 32 26 32C25.8427 32 25.684 31.9447 25.5573 31.8313C25.282 31.5873 25.2573 31.1653 25.502 30.8906C25.562 30.8233 25.6213 30.7559 25.6813 30.6886C25.8393 30.5106 25.9973 30.3333 26.1553 30.1552C26.384 29.8979 26.6133 29.6399 26.842 29.3826C27.1146 29.0759 27.3866 28.7699 27.6593 28.4633C27.948 28.1386 28.2366 27.8139 28.5246 27.4893C28.802 27.1773 29.0793 26.8653 29.3566 26.5533C29.5953 26.2846 29.834 26.0166 30.0727 25.748C30.2453 25.554 30.418 25.3593 30.5906 25.1653C30.6693 25.0766 30.7453 24.9827 30.8286 24.898C30.9739 24.7493 31.1799 24.6613 31.3906 24.6787C31.7393 24.7073 31.952 25.0253 32.1666 25.2673C32.3827 25.5107 32.5987 25.7534 32.8146 25.9966C33.0986 26.3159 33.382 26.6346 33.6659 26.954C33.9759 27.3027 34.2852 27.6506 34.5953 27.9993C34.89 28.3306 35.184 28.6613 35.4787 28.9927C35.716 29.26 35.9534 29.5266 36.1907 29.794C36.33 29.9506 36.4687 30.1066 36.608 30.2633C36.6273 30.2853 36.6473 30.3073 36.6667 30.3293C36.7388 30.248 36.8114 30.1666 36.8834 30.0859C37.0727 29.8726 37.262 29.6593 37.452 29.4466C37.7187 29.1466 37.9854 28.8466 38.2514 28.5473C38.5548 28.206 38.858 27.8647 39.1614 27.5234C39.4614 27.186 39.7614 26.848 40.0614 26.5107C40.318 26.222 40.5741 25.9341 40.8307 25.6454C41.0034 25.4514 41.176 25.2567 41.3487 25.0627C41.5347 24.8534 41.7313 24.6627 42.0373 24.6794C42.4194 24.7001 42.654 25.0667 42.888 25.3301C43.1187 25.5894 43.3487 25.8488 43.5793 26.1074C43.8746 26.4395 44.17 26.7721 44.4653 27.1041C44.7813 27.4601 45.098 27.8154 45.414 28.1714C45.7073 28.5014 46 28.8307 46.2933 29.1607C46.5193 29.4147 46.7453 29.6687 46.9706 29.9234C47.0853 30.052 47.1999 30.1813 47.3146 30.31C47.3206 30.3166 47.3273 30.324 47.3333 30.3307L51.182 26.0007H49.3333C48.9653 26.0007 48.6666 25.7027 48.6666 25.3341C48.6666 24.9654 48.9653 24.6674 49.3333 24.6674C49.5433 24.6674 49.7533 24.6674 49.9633 24.6674C50.4013 24.6674 50.8399 24.6674 51.278 24.6674C51.6587 24.6674 52.04 24.6674 52.4206 24.6674C52.6906 24.6674 52.958 24.6741 53.1566 24.8927C53.3353 25.0901 53.334 25.3334 53.334 25.582C53.334 25.758 53.334 25.934 53.334 26.11Z" fill="#0029FE"/>
<path d="M20 36V49C20 50.654 21.346 52 23 52H57C58.654 52 60 50.654 60 49V36H20ZM38.6666 40H49.3333C49.7013 40 49.9999 40.298 49.9999 40.6666C49.9999 41.0353 49.7013 41.3333 49.3333 41.3333H38.6666C38.2987 41.3333 38 41.0353 38 40.6666C38 40.298 38.2987 40 38.6666 40ZM38.6666 42.6666H52.6666C53.0346 42.6666 53.3333 42.9646 53.3333 43.3333C53.3333 43.702 53.0346 43.9999 52.6666 43.9999H38.6666C38.2987 43.9999 38 43.702 38 43.3333C38 42.9647 38.2987 42.6666 38.6666 42.6666ZM29.3334 49.3334C26.0247 49.3334 23.3334 46.642 23.3334 43.3334C23.3334 40.0247 26.0247 37.3334 29.3334 37.3334C32.642 37.3334 35.3334 40.0247 35.3334 43.3334C35.3334 46.642 32.642 49.3334 29.3334 49.3334ZM56 46.6666H38.6666C38.2987 46.6666 38 46.3687 38 46C38 45.6313 38.2987 45.3334 38.6666 45.3334H56C56.368 45.3334 56.6666 45.6313 56.6666 46C56.6666 46.3687 56.368 46.6666 56 46.6666Z" fill="#0029FE"/>
<path d="M29.3334 48C31.9107 48 34 45.9107 34 43.3334C34 40.756 31.9107 38.6667 29.3334 38.6667C26.756 38.6667 24.6667 40.756 24.6667 43.3334C24.6667 45.9107 26.756 48 29.3334 48Z" fill="#0029FE"/>
</g>
<path style="mix-blend-mode:screen" d="M75.2736 58.0987C75.2736 58.0987 43.5183 62.9517 5.73486 54.2378C5.73486 54.2378 30.278 58.206 41.177 54.2378C59.7189 47.4812 70.4027 50.5109 75.2736 58.0987Z" fill="url(#paint3_linear_426_7602)"/>
<path style="mix-blend-mode:screen" d="M23.3891 18.873C24.4386 18.8194 25.3536 19.6237 25.4074 20.6694C25.4613 21.7151 24.6539 22.6267 23.6044 22.6803C22.5548 22.7339 21.6399 21.9296 21.586 20.8839C21.5322 19.8382 22.3396 18.9266 23.3891 18.873Z" fill="url(#paint4_radial_426_7602)"/>
<path d="M23.6314 20.2405C23.9274 20.2405 24.1696 20.455 24.1965 20.7499C24.2234 21.0448 23.9812 21.2861 23.7121 21.313C23.443 21.3398 23.1739 21.0985 23.147 20.8035C23.147 20.5086 23.3623 20.2673 23.6583 20.2405H23.6314Z" fill="#FFFFAB"/>
<path style="mix-blend-mode:screen" d="M25.9994 10.6685C27.049 10.6149 27.964 11.4193 28.0178 12.4649C28.0716 13.5106 27.2643 14.4222 26.2147 14.4758C25.1652 14.5295 24.2502 13.7251 24.1964 12.6794C24.1426 11.6338 24.9499 10.7222 25.9994 10.6685Z" fill="url(#paint5_radial_426_7602)"/>
<path d="M26.2149 12.036C26.5109 12.036 26.7531 12.2505 26.78 12.5186C26.78 12.8136 26.5647 13.0549 26.2956 13.0817C26.0265 13.1085 25.7574 12.8672 25.7305 12.5991C25.7305 12.3041 25.9458 12.0628 26.2418 12.036H26.2149Z" fill="#FFFFAB"/>
<path style="mix-blend-mode:screen" d="M24.4653 34.1826C25.5148 34.129 26.4298 34.9333 26.4836 35.979C26.5374 37.0246 25.7301 37.9363 24.6806 37.9899C23.631 38.0435 22.716 37.2391 22.6622 36.1935C22.6084 35.1478 23.4157 34.2362 24.4653 34.1826Z" fill="url(#paint6_radial_426_7602)"/>
<path d="M24.6807 35.55C24.9768 35.55 25.219 35.7645 25.2459 36.0595C25.2728 36.3544 25.0306 36.5957 24.7346 36.6225C24.4385 36.6225 24.1963 36.408 24.1694 36.1131C24.1694 35.8182 24.3847 35.5769 24.6538 35.55H24.6807Z" fill="#FFFFAB"/>
<path style="mix-blend-mode:screen" d="M15.4501 6.4859C18.4104 6.29822 20.94 8.55042 21.1284 11.4997C21.3168 14.449 19.0562 16.9694 16.096 17.157C13.1357 17.3447 10.6061 15.0925 10.4177 12.1432C10.2293 9.19391 12.4899 6.67359 15.4501 6.4859Z" fill="url(#paint7_radial_426_7602)"/>
<path d="M16.096 10.32C16.9033 10.2664 17.6299 10.8831 17.6569 11.7142C17.7107 12.5186 17.0917 13.2425 16.2575 13.2693C15.4501 13.323 14.7235 12.7063 14.6966 11.8751C14.6428 11.0708 15.2618 10.3468 16.096 10.32Z" fill="#FFFFAB"/>
<path style="mix-blend-mode:screen" d="M30.7358 47.2668C32.1352 47.1864 33.3731 48.2589 33.4538 49.6531C33.5346 51.0473 32.4581 52.2806 31.0587 52.3611C29.6593 52.4415 28.4214 51.369 28.3407 49.9748C28.26 48.5806 29.3364 47.3473 30.7358 47.2668Z" fill="url(#paint8_radial_426_7602)"/>
<path d="M31.0585 49.0901C31.4622 49.0901 31.7851 49.3582 31.812 49.7604C31.839 50.1626 31.5429 50.4843 31.1393 50.5111C30.7356 50.5111 30.4127 50.243 30.3857 49.8408C30.3857 49.4386 30.6549 49.1169 31.0585 49.0901Z" fill="#FFFFAB"/>
<path style="mix-blend-mode:screen" d="M7.99571 53.9966C8.69541 53.943 9.31437 54.4792 9.34128 55.2032C9.36819 55.9271 8.85687 56.5169 8.13027 56.5437C7.40367 56.5706 6.81162 56.0611 6.78471 55.3372C6.75779 54.6133 7.26911 54.0234 7.99571 53.9966Z" fill="url(#paint9_radial_426_7602)"/>
<path d="M8.15741 54.9082C8.34579 54.9082 8.50725 55.0423 8.53417 55.2299C8.53417 55.4176 8.39961 55.6053 8.21123 55.6053C8.02285 55.6053 7.83447 55.4713 7.83447 55.2836C7.83447 55.0959 7.96903 54.9082 8.15741 54.9082Z" fill="#FFFFAB"/>
<path style="mix-blend-mode:screen" d="M43.9759 32.0912C44.6756 32.0376 45.2946 32.5738 45.3215 33.2978C45.3753 33.9949 44.8371 34.6115 44.1105 34.6383C43.3839 34.6652 42.7919 34.1557 42.7649 33.4318C42.7111 32.7347 43.2493 32.118 43.9759 32.0912Z" fill="url(#paint10_radial_426_7602)"/>
<path d="M44.1374 33.0028C44.3258 33.0028 44.4872 33.1369 44.5141 33.3246C44.5141 33.5122 44.3796 33.6731 44.1912 33.6999C44.0028 33.6999 43.8414 33.5659 43.8145 33.3782C43.8145 33.1905 43.949 33.0028 44.1374 33.0028Z" fill="#FFFFAB"/>
<path style="mix-blend-mode:screen" d="M26.2149 52.1198C26.7531 52.093 27.1837 52.4952 27.2375 53.0046C27.2644 53.5408 26.8608 53.9698 26.3495 54.0234C25.8112 54.0503 25.3806 53.6481 25.3268 53.1386C25.273 52.6292 25.7036 52.1734 26.2149 52.1198Z" fill="url(#paint11_radial_426_7602)"/>
<path d="M26.3228 52.79C26.4573 52.79 26.5919 52.8973 26.5919 53.0313C26.5919 53.1654 26.4842 53.2995 26.3497 53.2995C26.2151 53.2995 26.0806 53.1922 26.0806 53.0582C26.0806 52.9241 26.1882 52.79 26.3228 52.79Z" fill="#FFFFAB"/>
<path style="mix-blend-mode:screen" d="M41.043 51.3422C42.1464 51.2886 43.0883 52.1197 43.169 53.219C43.2228 54.3183 42.3886 55.2567 41.2852 55.3371C40.1818 55.4176 39.2399 54.5596 39.1592 53.4603C39.1054 52.361 39.9396 51.4226 41.043 51.3422Z" fill="url(#paint12_radial_426_7602)"/>
<path d="M41.2852 52.7632C41.5813 52.7632 41.8504 52.9777 41.8773 53.2726C41.8773 53.5675 41.662 53.8357 41.366 53.8625C41.07 53.8625 40.8008 53.648 40.7739 53.353C40.7739 53.0581 40.9892 52.79 41.2852 52.7632Z" fill="#FFFFAB"/>
<path d="M73.5245 60.0292C73.1746 58.9031 76.2156 53.7016 76.9691 53.7284C77.7227 53.7284 77.0499 57.1335 76.5924 57.9378C76.1349 58.7422 73.686 60.5922 73.5245 60.0292Z" fill="white"/>
<path style="mix-blend-mode:screen" d="M6.73096 10.0518C6.73096 10.0518 50.4618 -6.70561 73.7132 5.92279C73.7132 5.92279 75.7584 10.7221 76.7003 18.2563C76.7003 18.2563 69.3535 26.7824 55.4404 27.7477C43.4649 28.552 31.8123 13.3229 21.6936 11.446C11.6019 9.56921 6.73096 10.0518 6.73096 10.0518Z" fill="url(#paint13_linear_426_7602)"/>
<path d="M5.84286 13.0815C5.00861 13.2156 2.90953 19.7041 3.01717 20.7766C3.15173 21.849 5.68139 18.4707 6.05815 16.6743C6.43491 14.8779 5.81595 13.0815 5.81595 13.0815H5.84286Z" fill="white"/>
<path d="M6.19267 12.0359C5.17004 11.6337 6.9731 8.87207 8.53395 8.17496C10.0948 7.47785 13.9162 6.70031 14.3468 7.39742C14.7774 8.12134 7.34986 12.4649 6.19267 12.0359Z" fill="white"/>
<defs>
<radialGradient id="paint0_radial_426_7602" cx="0" cy="0" r="1" gradientUnits="userSpaceOnUse" gradientTransform="translate(40.5112 80.7724) scale(38.6955 48.7362)">
<stop stop-color="#008CCA"/>
<stop offset="1" stop-color="#003BF1"/>
</radialGradient>
<linearGradient id="paint1_linear_426_7602" x1="40.0202" y1="64.5335" x2="40.0202" y2="0.587179" gradientUnits="userSpaceOnUse">
<stop stop-color="#92FFF1"/>
<stop offset="1" stop-color="#0098FF"/>
</linearGradient>
<linearGradient id="paint2_linear_426_7602" x1="40.02" y1="63.4075" x2="40.02" y2="1.25758" gradientUnits="userSpaceOnUse">
<stop stop-color="#00EFF1"/>
<stop offset="1" stop-color="#0098FF"/>
</linearGradient>
<linearGradient id="paint3_linear_426_7602" x1="75.2736" y1="54.9885" x2="5.73486" y2="54.9885" gradientUnits="userSpaceOnUse">
<stop stop-color="#40FF79"/>
<stop offset="0.1" stop-color="#3BEE71"/>
<stop offset="0.29" stop-color="#31C45D"/>
<stop offset="0.56" stop-color="#20803D"/>
<stop offset="0.88" stop-color="#092411"/>
<stop offset="1"/>
</linearGradient>
<radialGradient id="paint4_radial_426_7602" cx="0" cy="0" r="1" gradientUnits="userSpaceOnUse" gradientTransform="translate(23.4665 20.7515) rotate(-93.4326) scale(1.90367 1.91067)">
<stop stop-color="#00B359"/>
<stop offset="0.13" stop-color="#009148"/>
<stop offset="0.34" stop-color="#005D2E"/>
<stop offset="0.54" stop-color="#00351A"/>
<stop offset="0.73" stop-color="#00170B"/>
<stop offset="0.89" stop-color="#000603"/>
<stop offset="1"/>
</radialGradient>
<radialGradient id="paint5_radial_426_7602" cx="0" cy="0" r="1" gradientUnits="userSpaceOnUse" gradientTransform="translate(26.0758 12.565) rotate(-93.4326) scale(1.90367 1.91068)">
<stop stop-color="#00B359"/>
<stop offset="0.13" stop-color="#009148"/>
<stop offset="0.34" stop-color="#005D2E"/>
<stop offset="0.54" stop-color="#00351A"/>
<stop offset="0.73" stop-color="#00170B"/>
<stop offset="0.89" stop-color="#000603"/>
<stop offset="1"/>
</radialGradient>
<radialGradient id="paint6_radial_426_7602" cx="0" cy="0" r="1" gradientUnits="userSpaceOnUse" gradientTransform="translate(24.5205 36.0793) rotate(-93.4326) scale(1.90367 1.91068)">
<stop stop-color="#00B359"/>
<stop offset="0.13" stop-color="#009148"/>
<stop offset="0.34" stop-color="#005D2E"/>
<stop offset="0.54" stop-color="#00351A"/>
<stop offset="0.73" stop-color="#00170B"/>
<stop offset="0.89" stop-color="#000603"/>
<stop offset="1"/>
</radialGradient>
<radialGradient id="paint7_radial_426_7602" cx="0" cy="0" r="1" gradientUnits="userSpaceOnUse" gradientTransform="translate(15.7035 11.7859) rotate(-93.4326) scale(5.33564 5.35527)">
<stop stop-color="#00B359"/>
<stop offset="0.13" stop-color="#009148"/>
<stop offset="0.34" stop-color="#005D2E"/>
<stop offset="0.54" stop-color="#00351A"/>
<stop offset="0.73" stop-color="#00170B"/>
<stop offset="0.89" stop-color="#000603"/>
<stop offset="1"/>
</radialGradient>
<radialGradient id="paint8_radial_426_7602" cx="0" cy="0" r="1" gradientUnits="userSpaceOnUse" gradientTransform="translate(30.842 49.7775) rotate(-93.4326) scale(2.54717 2.55654)">
<stop stop-color="#00B359"/>
<stop offset="0.13" stop-color="#009148"/>
<stop offset="0.34" stop-color="#005D2E"/>
<stop offset="0.54" stop-color="#00351A"/>
<stop offset="0.73" stop-color="#00170B"/>
<stop offset="0.89" stop-color="#000603"/>
<stop offset="1"/>
</radialGradient>
<radialGradient id="paint9_radial_426_7602" cx="0" cy="0" r="1" gradientUnits="userSpaceOnUse" gradientTransform="translate(8.03882 55.2447) rotate(-93.4326) scale(1.28699 1.29172)">
<stop stop-color="#00B359"/>
<stop offset="0.13" stop-color="#009148"/>
<stop offset="0.34" stop-color="#005D2E"/>
<stop offset="0.54" stop-color="#00351A"/>
<stop offset="0.73" stop-color="#00170B"/>
<stop offset="0.89" stop-color="#000603"/>
<stop offset="1"/>
</radialGradient>
<radialGradient id="paint10_radial_426_7602" cx="0" cy="0" r="1" gradientUnits="userSpaceOnUse" gradientTransform="translate(44.0107 33.3609) rotate(-93.4326) scale(1.28699 1.29172)">
<stop stop-color="#00B359"/>
<stop offset="0.13" stop-color="#009148"/>
<stop offset="0.34" stop-color="#005D2E"/>
<stop offset="0.54" stop-color="#00351A"/>
<stop offset="0.73" stop-color="#00170B"/>
<stop offset="0.89" stop-color="#000603"/>
<stop offset="1"/>
</radialGradient>
<radialGradient id="paint11_radial_426_7602" cx="0" cy="0" r="1" gradientUnits="userSpaceOnUse" gradientTransform="translate(26.2403 53.0598) rotate(-93.4327) scale(0.938427 0.941883)">
<stop stop-color="#00B359"/>
<stop offset="0.13" stop-color="#009148"/>
<stop offset="0.34" stop-color="#005D2E"/>
<stop offset="0.54" stop-color="#00351A"/>
<stop offset="0.73" stop-color="#00170B"/>
<stop offset="0.89" stop-color="#000603"/>
<stop offset="1"/>
</radialGradient>
<radialGradient id="paint12_radial_426_7602" cx="0" cy="0" r="1" gradientUnits="userSpaceOnUse" gradientTransform="translate(41.1363 53.3009) rotate(-93.4327) scale(1.98411 1.99141)">
<stop stop-color="#00B359"/>
<stop offset="0.13" stop-color="#009148"/>
<stop offset="0.34" stop-color="#005D2E"/>
<stop offset="0.54" stop-color="#00351A"/>
<stop offset="0.73" stop-color="#00170B"/>
<stop offset="0.89" stop-color="#000603"/>
<stop offset="1"/>
</radialGradient>
<linearGradient id="paint13_linear_426_7602" x1="6.73096" y1="14.5026" x2="76.7003" y2="14.5026" gradientUnits="userSpaceOnUse">
<stop stop-color="#7ED140"/>
<stop offset="0.11" stop-color="#74C03B"/>
<stop offset="0.34" stop-color="#5A962E"/>
<stop offset="0.65" stop-color="#315219"/>
<stop offset="1"/>
</linearGradient>
<clipPath id="clip0_426_7602">
<rect width="38" height="40" fill="white" transform="translate(21 12)"/>
</clipPath>
</defs>
</svg>
