<svg width="165" height="59" viewBox="0 0 165 59" fill="none" xmlns="http://www.w3.org/2000/svg">
<path d="M1.98116 50.3328C6.05741 59.9825 152.099 62.6978 160.511 52.6666C168.163 43.5443 165.05 10.8925 158.509 4.38452C149.597 -4.49095 14.5805 1.73646 7.37293 8.71566C0.62858 15.2236 -2.24333 40.324 1.98116 50.3328Z" fill="url(#paint0_radial_53_453)"/>
<path d="M1.98116 50.3328C6.05741 59.9825 152.099 62.6978 160.511 52.6666C168.163 43.5443 165.05 10.8925 158.509 4.38452C149.597 -4.49095 14.5805 1.73646 7.37293 8.71566C0.62858 15.2236 -2.24333 40.324 1.98116 50.3328Z" fill="url(#paint1_radial_53_453)"/>
<path d="M2.31492 48.6272C6.37265 57.9403 151.821 58.6023 160.196 48.919C167.811 40.1221 164.809 11.0383 158.306 4.76602C149.431 -3.78405 14.7475 2.21895 7.55847 8.9513C0.851174 15.2236 -1.90956 38.9776 2.31492 48.6272Z" fill="url(#paint2_linear_53_453)"/>
<path d="M3.53772 47.7969C7.52134 56.8295 150.839 57.4803 159.028 48.0887C166.477 39.5498 163.549 11.3301 157.176 5.23729C148.486 -3.05471 15.6924 2.76877 8.6701 9.29914C2.11103 15.3919 -0.594122 38.439 3.53772 47.7969Z" fill="url(#paint3_linear_53_453)"/>
<path style="mix-blend-mode:screen" d="M157.083 48.257C157.083 48.257 65.0704 57.2334 8.5957 49.3117C8.5957 49.3117 45.282 52.9247 61.6056 49.3117C89.3241 43.1853 149.801 41.3675 157.083 48.257Z" fill="url(#paint4_linear_53_453)"/>
<path style="mix-blend-mode:screen" d="M34.9802 17.1535C36.5551 17.0974 37.9077 17.8268 38.0189 18.7805C38.1115 19.7343 36.9072 20.5646 35.3322 20.6207C33.7573 20.6768 32.4048 19.9475 32.2936 18.9937C32.2009 18.04 33.4053 17.2096 34.9802 17.1535Z" fill="url(#paint5_radial_53_453)"/>
<path d="M35.3141 18.399C35.7588 18.3878 36.1294 18.5898 36.1479 18.8478C36.1664 19.1171 35.8329 19.3415 35.4068 19.3528C34.9621 19.364 34.5915 19.162 34.573 18.9039C34.5545 18.6346 34.888 18.4102 35.3141 18.399Z" fill="#FFFFAB"/>
<path style="mix-blend-mode:screen" d="M38.8713 9.7031C40.4462 9.647 41.7988 10.3763 41.91 11.3301C42.0026 12.2838 40.7983 13.1029 39.2234 13.1703C37.6484 13.2264 36.2959 12.497 36.1847 11.5433C36.0921 10.5895 37.2964 9.77043 38.8713 9.7031Z" fill="url(#paint6_radial_53_453)"/>
<path d="M39.2048 10.9486C39.6494 10.9373 40.02 11.1393 40.0385 11.3974C40.0571 11.6667 39.7236 11.8911 39.2974 11.9023C38.8527 11.9135 38.4822 11.7116 38.4636 11.4535C38.4451 11.1842 38.7786 10.9598 39.2048 10.9486Z" fill="#FFFFAB"/>
<path style="mix-blend-mode:screen" d="M36.574 31.0783C38.1489 31.0222 39.5014 31.7515 39.6126 32.7053C39.7053 33.659 38.5009 34.4781 36.926 34.5454C35.3511 34.6015 33.9985 33.8722 33.8873 32.9185C33.7947 31.9647 34.999 31.1456 36.574 31.0783Z" fill="url(#paint7_radial_53_453)"/>
<path d="M36.926 32.3238C37.3706 32.3126 37.7412 32.5146 37.7597 32.7726C37.7783 33.0419 37.4448 33.2663 37.0186 33.2776C36.5739 33.2888 36.2033 33.0868 36.1848 32.8287C36.1663 32.5707 36.4998 32.335 36.926 32.3238Z" fill="#FFFFAB"/>
<path style="mix-blend-mode:screen" d="M23.0849 5.88807C27.5132 5.73098 31.3115 7.77312 31.5709 10.4436C31.8303 13.1253 28.4582 15.4256 24.0484 15.5826C19.6201 15.7397 15.8218 13.6976 15.5624 11.0271C15.303 8.34537 18.6751 6.04515 23.0849 5.88807Z" fill="url(#paint8_radial_53_453)"/>
<path d="M24.0486 9.3777C25.2715 9.33282 26.3276 9.89385 26.4017 10.6344C26.4758 11.375 25.5494 12.0145 24.3265 12.0594C23.1036 12.1043 22.0475 11.5433 21.9734 10.8027C21.8993 10.0622 22.8257 9.42258 24.0486 9.3777Z" fill="#FFFFAB"/>
<path style="mix-blend-mode:screen" d="M45.9495 42.9608C48.0617 42.8823 49.8775 43.8585 50.0072 45.1376C50.1369 46.4168 48.5249 47.5164 46.4127 47.5949C44.3005 47.6735 42.4847 46.6973 42.355 45.4182C42.2253 44.139 43.8372 43.0394 45.9495 42.9608Z" fill="url(#paint9_radial_53_453)"/>
<path d="M46.4128 44.6215C47.0058 44.599 47.506 44.8683 47.5431 45.2274C47.5801 45.5865 47.1355 45.8894 46.5426 45.9118C45.9496 45.9343 45.4494 45.665 45.4123 45.3059C45.3753 44.9469 45.8199 44.6439 46.4128 44.6215Z" fill="#FFFFAB"/>
<path style="mix-blend-mode:screen" d="M11.9494 49.0761C13.0055 49.0424 13.9134 49.5249 13.969 50.1645C14.0246 50.804 13.2279 51.3538 12.1718 51.3875C11.1156 51.4212 10.2077 50.9387 10.1522 50.2991C10.0966 49.6595 10.8933 49.1097 11.9494 49.0761Z" fill="url(#paint10_radial_53_453)"/>
<path d="M12.1907 49.9064C12.4872 49.9064 12.728 50.0298 12.7466 50.2093C12.7466 50.3889 12.5427 50.5347 12.2463 50.5459C11.9498 50.5459 11.709 50.4225 11.6904 50.243C11.6904 50.0635 11.8942 49.9176 12.1907 49.9064Z" fill="#FFFFAB"/>
<path style="mix-blend-mode:screen" d="M65.7561 29.1708C66.8122 29.1371 67.7201 29.6196 67.7757 30.2592C67.8312 30.8988 67.0345 31.4486 65.9784 31.4822C64.9223 31.5159 64.0144 31.0334 63.9588 30.3938C63.9032 29.7543 64.6999 29.2044 65.7561 29.1708Z" fill="url(#paint11_radial_53_453)"/>
<path d="M65.9968 30.0011C66.2933 30.0011 66.5342 30.1245 66.5527 30.3041C66.5527 30.4836 66.3489 30.6295 66.0524 30.6407C65.756 30.6407 65.5151 30.5172 65.4966 30.3377C65.4966 30.1582 65.7004 30.0123 65.9968 30.0011Z" fill="#FFFFAB"/>
<path style="mix-blend-mode:screen" d="M39.2047 47.3705C39.9829 47.3369 40.6685 47.7071 40.7055 48.1784C40.7611 48.6497 40.1497 49.0648 39.3715 49.0985C38.5933 49.1322 37.9078 48.7619 37.8707 48.2906C37.8151 47.8194 38.4266 47.4042 39.2047 47.3818V47.3705Z" fill="url(#paint12_radial_53_453)"/>
<path d="M39.3715 47.9877C39.5939 47.9877 39.7792 48.0774 39.7977 48.2121C39.7977 48.3467 39.6495 48.4589 39.4271 48.4702C39.2048 48.4702 39.0195 48.3804 39.001 48.2457C39.001 48.1111 39.1492 47.9989 39.3715 47.9877Z" fill="#FFFFAB"/>
<path style="mix-blend-mode:screen" d="M61.3836 46.6637C63.0327 46.6076 64.4408 47.3706 64.552 48.3692C64.6447 49.3678 63.3847 50.2206 61.7542 50.2879C60.1237 50.3552 58.697 49.581 58.5859 48.5936C58.4932 47.595 59.7531 46.7422 61.4022 46.6749L61.3836 46.6637Z" fill="url(#paint13_radial_53_453)"/>
<path d="M61.7355 47.9652C62.1987 47.954 62.5878 48.156 62.6063 48.4365C62.6248 48.717 62.2913 48.9526 61.8281 48.9639C61.3649 48.9751 60.9758 48.7731 60.9573 48.4926C60.9388 48.2121 61.2723 47.9764 61.7355 47.9652Z" fill="#FFFFAB"/>
<path d="M16.5801 21.4682H13.8379L14.0137 19.5698C14.0137 19.0541 13.6973 18.7377 13.0645 18.6205H11.0781C10.6211 18.6205 10.3926 18.9662 10.3926 19.6577L10.3047 37.3764C10.2461 37.9506 10.5625 38.2377 11.2539 38.2377H12.9766C13.6094 38.3549 13.9844 38.0385 14.1016 37.2885V35.3198L16.5801 35.4077L16.5098 37.3764C16.5098 39.6147 15.3906 40.7338 13.1523 40.7338H10.9902C8.64648 40.6752 7.50391 39.4975 7.5625 37.2006L7.80859 19.4819C7.80859 17.4194 8.92773 16.3295 11.166 16.2123L13.1523 16.1245C15.2734 16.183 16.3926 17.3608 16.5098 19.6577L16.5801 21.4682ZM20.9219 30.2573L21.0273 40.8217H18.1973L18.1094 16.0541L19.832 16.1596V16.1245L23.6992 16.0541C25.9375 15.9955 27.0566 17.1674 27.0566 19.5698L27.127 26.7944C27.2324 28.9272 26.377 30.0287 24.5605 30.0991L27.584 40.558L24.5254 40.9096L21.748 30.2045L20.9219 30.2573ZM20.7988 18.7787L20.8867 27.603L23.4355 27.4799C24.127 27.4213 24.4434 26.8764 24.3848 25.8452L24.209 19.5698C24.1504 18.937 23.752 18.6498 23.0137 18.7084L20.7988 18.7787ZM37.4277 18.9721L31.4863 19.2358V26.8823L36.5664 27.2338L36.4785 30.1518L31.5742 29.8178L31.4863 37.9037L37.9375 38.062L37.6035 40.9975L28.5684 40.6459L28.9023 16.3002L37.6035 16.1245L37.4277 18.9721ZM39.1152 40.8217L42.5605 16.0541L45.0391 16.1245L48.3086 40.558L45.4785 40.8217L45.0391 36.5151L42.2969 36.7787L42.0332 40.7338L39.1152 40.8217ZM44.7051 33.9311L43.668 26.1967L42.5605 34.1948L44.7051 33.9311ZM46.9551 16.3002L56.2363 15.9662L56.1484 18.6205H52.7207L52.9668 40.8217L50.2246 40.7338L50.1367 18.5327L47.1309 18.6205L46.9551 16.3002ZM66.3613 18.9721L60.4199 19.2358V26.8823L65.5 27.2338L65.4121 30.1518L60.5078 29.8178L60.4199 37.9037L66.8711 38.062L66.5371 40.9975L57.502 40.6459L57.8359 16.3002L66.5371 16.1245L66.3613 18.9721ZM73.252 40.8217L76.6973 16.0541L79.1758 16.1245L82.4453 40.558L79.6152 40.8217L79.1758 36.5151L76.4336 36.7787L76.1699 40.7338L73.252 40.8217ZM78.8418 33.9311L77.8047 26.1967L76.6973 34.1948L78.8418 33.9311ZM89.4941 16.1245L89.0723 40.6459L94.75 40.8217C96.8711 40.8803 98.0137 39.7319 98.1777 37.3764L98.3535 19.6577C98.3535 17.4194 97.1523 16.2416 94.75 16.1245H89.4941ZM91.7266 18.7084L94.5742 18.7963C95.1484 18.7963 95.4648 19.1713 95.5234 19.9213L95.3477 36.8666C95.3477 37.8979 94.8613 38.3549 93.8887 38.2377L91.7266 38.062V18.7084ZM108.479 18.9721L102.537 19.2358V26.8823L107.617 27.2338L107.529 30.1518L102.625 29.8178L102.537 37.9037L108.988 38.062L108.654 40.9975L99.6191 40.6459L99.9531 16.3002L108.654 16.1245L108.479 18.9721ZM113.066 30.2573L112.996 40.7338L110.342 40.8217L110.254 16.0541L112.662 16.1069L115.844 16.0541C118.082 15.9955 119.201 17.1674 119.201 19.5698L119.271 26.7944C119.389 29.2084 118.275 30.2983 115.932 30.0639L113.066 30.2573ZM113.154 18.7612L113.084 27.603L115.58 27.4799C116.271 27.4213 116.588 26.8764 116.529 25.8452L116.354 19.5698C116.295 18.937 115.896 18.6498 115.158 18.7084L113.154 18.7612ZM129.889 37.3061C129.795 39.5912 128.629 40.7338 126.391 40.7338H124.229C121.885 40.6752 120.742 39.4975 120.801 37.2006L121.047 19.4819C121.047 17.4194 122.166 16.3295 124.404 16.2123L126.391 16.1245C128.512 16.183 129.631 17.3608 129.748 19.6577L129.889 37.3061ZM127.252 19.5698C127.252 19.0541 126.936 18.7377 126.303 18.6205H124.316C123.859 18.6205 123.631 18.9662 123.631 19.6577L123.543 37.3764C123.484 37.9506 123.801 38.2377 124.492 38.2377H126.215C126.848 38.3549 127.223 38.0385 127.34 37.2885L127.252 19.5698ZM140.541 21.3803L137.887 21.4682L137.711 19.9213C137.711 19.1713 137.365 18.7377 136.674 18.6205L135.039 18.8842C134.641 19.06 134.412 19.4057 134.354 19.9213L134.266 25.933C134.266 26.683 134.611 27.0287 135.303 26.9702L137.113 27.058C139.34 27.1166 140.424 28.5522 140.365 31.3647L140.295 37.0424C140.236 39.6791 139.059 40.8803 136.762 40.6459L134.775 40.7338C132.314 40.7924 131.201 39.562 131.436 37.0424L131.682 35.2319L134.441 35.4077L134.266 37.0424C134.266 37.6635 134.553 37.9741 135.127 37.9741L136.674 38.062C137.365 38.0034 137.74 37.1186 137.799 35.4077V31.1889C137.74 30.2748 137.365 29.8412 136.674 29.8881L134.775 29.8178C132.596 29.5248 131.535 28.3471 131.594 26.2846V19.5698C131.711 17.3315 132.801 16.2123 134.863 16.2123L136.938 16.0541C139.223 16.101 140.424 17.3315 140.541 19.7455V21.3803ZM141.965 16.0541L144.707 16.1245L144.795 40.7338L142.053 40.8217L141.965 16.0541ZM146.412 16.3002L155.693 15.9662L155.605 18.6205H152.178L152.424 40.8217L149.682 40.7338L149.594 18.5327L146.588 18.6205L146.412 16.3002Z" fill="#FF5200"/>
<path d="M154.452 49.9961C153.951 48.9638 158.454 44.2512 159.603 44.2736C160.751 44.2961 159.732 47.3705 159.028 48.0886C158.343 48.8068 154.693 50.5123 154.452 49.9961Z" fill="white"/>
<path style="mix-blend-mode:screen" d="M8.41062 9.34401C8.41062 9.34401 122.62 -6.0955 157.398 5.38315C157.398 5.38315 160.455 9.73673 161.845 16.5925C161.845 16.5925 150.857 24.3571 130.031 25.2099C112.114 25.9505 47.5056 12.1043 32.405 10.3875C17.3043 8.67077 8.39209 9.33279 8.39209 9.33279L8.41062 9.34401Z" fill="url(#paint14_linear_53_453)"/>
<path d="M8.41064 11.0046C8.41064 11.0046 11.0417 7.72823 17.1561 5.9666C23.2705 4.20497 32.72 4.8782 33.702 5.3158C34.7025 5.76463 32.09 6.93157 27.1985 8.01996C22.2884 9.10836 10.912 11.835 8.41064 10.9934V11.0046Z" fill="white"/>
<path d="M8.72565 11.8799C7.46572 11.9921 4.31588 17.9053 4.5197 18.8815C4.70498 19.8577 8.48478 16.7833 9.07769 15.1451C9.6706 13.5069 8.72565 11.8799 8.72565 11.8799Z" fill="white"/>
<defs>
<radialGradient id="paint0_radial_53_453" cx="0" cy="0" r="1" gradientUnits="userSpaceOnUse" gradientTransform="translate(84.4546 54.8322) scale(63.3002 72.3278)">
<stop stop-color="#FFBD00"/>
<stop offset="1" stop-color="#FF772C"/>
</radialGradient>
<radialGradient id="paint1_radial_53_453" cx="0" cy="0" r="1" gradientUnits="userSpaceOnUse" gradientTransform="translate(84.4546 54.8322) scale(63.3002 72.3278)">
<stop stop-color="#FFBD00"/>
<stop offset="1" stop-color="#FF772C"/>
</radialGradient>
<linearGradient id="paint2_linear_53_453" x1="82.506" y1="55.8982" x2="82.506" y2="0.547088" gradientUnits="userSpaceOnUse">
<stop stop-color="#FFF300"/>
<stop offset="1" stop-color="#FF9700"/>
</linearGradient>
<linearGradient id="paint3_linear_53_453" x1="82.5059" y1="54.8547" x2="82.5059" y2="1.14178" gradientUnits="userSpaceOnUse">
<stop stop-color="#FFCC00"/>
<stop offset="1" stop-color="#FF9700"/>
</linearGradient>
<linearGradient id="paint4_linear_53_453" x1="157.083" y1="48.2121" x2="8.5957" y2="48.2121" gradientUnits="userSpaceOnUse">
<stop stop-color="#FF6140"/>
<stop offset="0.1" stop-color="#EE5A3B"/>
<stop offset="0.29" stop-color="#C44A31"/>
<stop offset="0.55" stop-color="#803020"/>
<stop offset="0.88" stop-color="#240D09"/>
<stop offset="1"/>
</linearGradient>
<radialGradient id="paint5_radial_53_453" cx="0" cy="0" r="1" gradientUnits="userSpaceOnUse" gradientTransform="translate(35.1183 18.8969) rotate(-95.6359) scale(1.74452 2.86313)">
<stop stop-color="#00B359"/>
<stop offset="0.13" stop-color="#009148"/>
<stop offset="0.34" stop-color="#005D2E"/>
<stop offset="0.54" stop-color="#00351A"/>
<stop offset="0.73" stop-color="#00170B"/>
<stop offset="0.89" stop-color="#000603"/>
<stop offset="1"/>
</radialGradient>
<radialGradient id="paint6_radial_53_453" cx="0" cy="0" r="1" gradientUnits="userSpaceOnUse" gradientTransform="translate(39.0239 11.4492) rotate(-95.6359) scale(1.74452 2.86313)">
<stop stop-color="#00B359"/>
<stop offset="0.13" stop-color="#009148"/>
<stop offset="0.34" stop-color="#005D2E"/>
<stop offset="0.54" stop-color="#00351A"/>
<stop offset="0.73" stop-color="#00170B"/>
<stop offset="0.89" stop-color="#000603"/>
<stop offset="1"/>
</radialGradient>
<radialGradient id="paint7_radial_53_453" cx="0" cy="0" r="1" gradientUnits="userSpaceOnUse" gradientTransform="translate(36.7156 32.8224) rotate(-95.6359) scale(1.74452 2.86312)">
<stop stop-color="#00B359"/>
<stop offset="0.13" stop-color="#009148"/>
<stop offset="0.34" stop-color="#005D2E"/>
<stop offset="0.54" stop-color="#00351A"/>
<stop offset="0.73" stop-color="#00170B"/>
<stop offset="0.89" stop-color="#000603"/>
<stop offset="1"/>
</radialGradient>
<radialGradient id="paint8_radial_53_453" cx="0" cy="0" r="1" gradientUnits="userSpaceOnUse" gradientTransform="translate(23.5487 10.7503) rotate(-95.6359) scale(4.87341 7.99828)">
<stop stop-color="#00B359"/>
<stop offset="0.13" stop-color="#009148"/>
<stop offset="0.34" stop-color="#005D2E"/>
<stop offset="0.54" stop-color="#00351A"/>
<stop offset="0.73" stop-color="#00170B"/>
<stop offset="0.89" stop-color="#000603"/>
<stop offset="1"/>
</radialGradient>
<radialGradient id="paint9_radial_53_453" cx="0" cy="0" r="1" gradientUnits="userSpaceOnUse" gradientTransform="translate(46.1682 45.2834) rotate(-95.6359) scale(2.32978 3.82366)">
<stop stop-color="#00B359"/>
<stop offset="0.13" stop-color="#009148"/>
<stop offset="0.34" stop-color="#005D2E"/>
<stop offset="0.54" stop-color="#00351A"/>
<stop offset="0.73" stop-color="#00170B"/>
<stop offset="0.89" stop-color="#000603"/>
<stop offset="1"/>
</radialGradient>
<radialGradient id="paint10_radial_53_453" cx="0" cy="0" r="1" gradientUnits="userSpaceOnUse" gradientTransform="translate(12.0592 50.2496) rotate(-95.6359) scale(1.15926 1.90259)">
<stop stop-color="#00B359"/>
<stop offset="0.13" stop-color="#009148"/>
<stop offset="0.34" stop-color="#005D2E"/>
<stop offset="0.54" stop-color="#00351A"/>
<stop offset="0.73" stop-color="#00170B"/>
<stop offset="0.89" stop-color="#000603"/>
<stop offset="1"/>
</radialGradient>
<radialGradient id="paint11_radial_53_453" cx="0" cy="0" r="1" gradientUnits="userSpaceOnUse" gradientTransform="translate(65.8544 30.3516) rotate(-95.6359) scale(1.15926 1.90259)">
<stop stop-color="#00B359"/>
<stop offset="0.13" stop-color="#009148"/>
<stop offset="0.34" stop-color="#005D2E"/>
<stop offset="0.54" stop-color="#00351A"/>
<stop offset="0.73" stop-color="#00170B"/>
<stop offset="0.89" stop-color="#000603"/>
<stop offset="1"/>
</radialGradient>
<radialGradient id="paint12_radial_53_453" cx="0" cy="0" r="1" gradientUnits="userSpaceOnUse" gradientTransform="translate(39.259 48.2536) rotate(-95.6359) scale(0.866634 1.42233)">
<stop stop-color="#00B359"/>
<stop offset="0.13" stop-color="#009148"/>
<stop offset="0.34" stop-color="#005D2E"/>
<stop offset="0.54" stop-color="#00351A"/>
<stop offset="0.73" stop-color="#00170B"/>
<stop offset="0.89" stop-color="#000603"/>
<stop offset="1"/>
</radialGradient>
<radialGradient id="paint13_radial_53_453" cx="0" cy="0" r="1" gradientUnits="userSpaceOnUse" gradientTransform="translate(61.5371 48.4815) rotate(-95.6359) scale(1.81206 2.97396)">
<stop stop-color="#00B359"/>
<stop offset="0.13" stop-color="#009148"/>
<stop offset="0.34" stop-color="#005D2E"/>
<stop offset="0.54" stop-color="#00351A"/>
<stop offset="0.73" stop-color="#00170B"/>
<stop offset="0.89" stop-color="#000603"/>
<stop offset="1"/>
</radialGradient>
<linearGradient id="paint14_linear_53_453" x1="8.41062" y1="13.1927" x2="161.863" y2="13.1927" gradientUnits="userSpaceOnUse">
<stop stop-color="#FF9840"/>
<stop offset="0.1" stop-color="#EE8E3B"/>
<stop offset="0.29" stop-color="#C47531"/>
<stop offset="0.55" stop-color="#804C20"/>
<stop offset="0.88" stop-color="#241509"/>
<stop offset="1"/>
</linearGradient>
</defs>
</svg>
