<svg width="80" height="69" viewBox="0 0 80 69" fill="none" xmlns="http://www.w3.org/2000/svg">
<path d="M1.32168 55.3638C4.03972 65.9813 71.9369 73.9713 77.5614 62.9516C82.6745 52.9239 78.8262 11.9822 74.4396 4.82339C68.4923 -4.93614 9.74492 1.9009 4.9278 9.59591C0.433612 16.7547 -1.504 44.3709 1.32168 55.3638Z" fill="url(#paint0_radial_621_37219)"/>
<path d="M1.53684 53.487C4.25488 63.7292 71.7484 69.4669 77.3459 58.8226C82.4321 49.1435 78.6646 12.1431 74.3049 5.22564C68.3845 -4.15852 9.85242 2.4372 5.06221 9.83728C0.56803 16.7547 -1.26194 42.8695 1.53684 53.487Z" fill="url(#paint1_linear_621_37219)"/>
<path d="M2.37107 52.6024C5.03529 62.5496 71.1025 68.2605 76.5924 57.9379C81.571 48.5538 77.8303 12.4918 73.5783 5.78879C67.7655 -3.35406 10.4983 3.05398 5.7888 10.2396C1.40226 16.9425 -0.400793 42.2798 2.37107 52.6024Z" fill="url(#paint2_linear_621_37219)"/>
<path d="M68.9646 14.2744V51.1937C49.3275 40.1444 29.6903 62.2783 10.0532 51.2468V14.3098C29.6903 25.3413 49.3275 3.20747 68.9646 14.2567V14.2744Z" fill="#2E4593"/>
<path d="M68.9646 47.3513V51.1937C66.9283 50.0427 64.8742 49.2459 62.8379 48.7501C56.8175 43.4734 50.7794 40.6757 44.759 38.4446C44.157 38.2144 43.5549 38.0019 42.9529 37.7894C42.2446 37.5415 41.5363 37.2936 40.8103 37.0457C40.5801 36.9572 40.3322 36.8864 40.0843 36.7978C39.3583 36.5499 38.6324 36.302 37.9064 36.0541C37.6408 35.9656 37.3752 35.8594 37.0918 35.7708C36.8616 35.7 36.6315 35.6115 36.419 35.5406C35.9586 35.3813 35.5159 35.2219 35.0555 35.0448C34.9139 34.9917 34.7545 34.9386 34.6128 34.8855C34.4004 34.8146 34.1702 34.7261 33.94 34.6376C31.7974 33.8407 29.6549 32.9554 27.5123 31.9107C26.5561 31.4503 25.5822 30.9545 24.6261 30.4056C19.7743 27.6964 14.9049 23.9425 10.0531 18.17V14.3098C10.0531 14.3098 10.0885 14.2744 10.1062 14.2567C10.1417 14.3098 10.1771 14.3452 10.2302 14.3984C12.2134 15.4962 14.2143 16.2576 16.1975 16.7534C22.3418 22.1187 28.4862 24.9164 34.6306 27.1829C35.2326 27.4131 35.8346 27.6256 36.4367 27.838C36.596 27.8912 36.7554 27.9443 36.9148 28.0151C37.8709 28.3516 38.8448 28.688 39.801 29.0067C39.8896 29.0421 39.9958 29.0775 40.0843 29.113C40.4562 29.2369 40.828 29.3609 41.1999 29.5025C41.7842 29.6973 42.3685 29.9098 42.9529 30.1223C43.0591 30.1577 43.1477 30.1931 43.2539 30.2285C43.7497 30.4056 44.2632 30.6004 44.759 30.7774C45.2548 30.9545 45.7506 31.1493 46.2287 31.344C47.5567 31.8576 48.867 32.4065 50.1951 33.0085C51.1513 33.4512 52.1251 33.9116 53.0813 34.4074C58.3757 37.1874 63.6702 41.0652 68.9646 47.369V47.3513Z" fill="#FCF5FF"/>
<path d="M68.9646 51.1052C68.9646 51.1052 68.9646 51.1937 68.9646 51.2468C67.6543 50.5031 66.344 49.9011 65.0337 49.423C58.2696 42.7828 51.5055 39.5778 44.7413 37.0634C44.157 36.851 43.5904 36.6385 43.0061 36.426C42.9883 36.426 42.9529 36.426 42.9352 36.4083C42.3509 36.1958 41.7666 36.001 41.1822 35.7885C40.8281 35.6646 40.4739 35.5406 40.1198 35.4167C39.4823 35.2042 38.8272 34.974 38.1897 34.7438C37.5877 34.5313 37.0034 34.3366 36.4013 34.1241C36.3128 34.0887 36.2419 34.0709 36.1534 34.0355C35.7816 33.8939 35.4097 33.7699 35.0379 33.6283C34.8962 33.5751 34.7368 33.522 34.5952 33.4689C32.9661 32.8669 31.3548 32.2294 29.7257 31.5211C28.7696 31.0962 27.8134 30.6535 26.8395 30.1754C21.2618 27.3954 15.6486 23.429 10.0532 16.7711V14.239C10.0532 14.239 10.0886 14.2567 10.1063 14.2744C10.1417 14.3275 10.1771 14.363 10.2302 14.4161C17.136 22.5613 24.0418 26.634 30.9475 29.5025C31.9037 29.9098 32.8599 30.2816 33.8338 30.6358C34.0994 30.742 34.365 30.8305 34.6306 30.9191C35.2326 31.1493 35.8347 31.3618 36.4367 31.5742C36.6669 31.6451 36.8971 31.7336 37.1096 31.8044C37.4814 31.9284 37.8533 32.07 38.2074 32.194C38.8803 32.4242 39.5709 32.6721 40.2437 32.9023C41.1468 33.2033 42.0322 33.522 42.9352 33.8408C43.0415 33.8762 43.13 33.9116 43.2362 33.947C43.555 34.0709 43.8914 34.1772 44.2101 34.3011L44.7413 34.4959C45.5205 34.7792 46.3173 35.0802 47.0964 35.399C54.3917 38.3206 61.687 42.411 68.9646 51.0875V51.1052Z" fill="#F42525"/>
<path d="M68.9647 15.0004V18.8428C64.4848 19.1261 60.0049 21.1447 55.525 24.0841C54.5688 24.7216 53.5949 25.3944 52.6387 26.1027C50.4962 27.6964 48.3536 29.4494 46.2111 31.3086C45.7153 31.7336 45.2195 32.1585 44.7414 32.6012C44.2456 33.0439 43.7321 33.4866 43.2363 33.947C43.13 34.0355 43.0415 34.124 42.9352 34.2126C42.705 34.425 42.4749 34.6198 42.2624 34.8323C41.9082 35.151 41.5541 35.4698 41.1999 35.7885C40.8281 36.1249 40.4562 36.4614 40.0844 36.7978C39.8542 37.0103 39.6063 37.2405 39.3761 37.453C38.4022 38.3383 37.4106 39.2414 36.4367 40.1267C35.8347 40.6756 35.2327 41.2069 34.6306 41.7381C28.8758 46.8377 23.121 51.477 17.3485 53.956C14.9226 53.4779 12.4968 52.6279 10.0709 51.2645V48.1303C15.7549 47.7585 21.4388 44.6243 27.1228 40.3038C28.079 39.5778 29.0352 38.8164 30.0091 38.0196C31.3371 36.9395 32.6474 35.8062 33.9755 34.6375C34.1879 34.4428 34.4181 34.248 34.6483 34.0532C34.79 33.9293 34.9493 33.7876 35.091 33.6636C35.5514 33.2564 35.9941 32.8491 36.4544 32.4419C36.6846 32.2471 36.9148 32.0346 37.1273 31.8398C38.1189 30.9368 39.1105 30.0337 40.1021 29.1306C40.1906 29.0421 40.2969 28.9536 40.3854 28.865C41.2354 28.0859 42.0853 27.3068 42.9529 26.5454C43.0592 26.4392 43.1654 26.3506 43.2717 26.2444C43.7675 25.8017 44.2633 25.359 44.7591 24.9163C51.169 19.2501 57.579 14.2213 64.0067 12.1495C65.5118 12.6099 67.0169 13.212 68.522 14.0265C68.6813 14.3452 68.823 14.6816 68.9824 15.0181L68.9647 15.0004Z" fill="#FCF5FF"/>
<path d="M68.8053 15.1067C62.3953 15.5671 55.9676 19.5689 49.5577 24.7747C48.6015 25.5539 47.6276 26.3684 46.6714 27.1829C46.034 27.7318 45.3788 28.2985 44.7413 28.8651C44.2455 29.3078 43.732 29.7504 43.2362 30.2108C43.13 30.2994 43.0415 30.3879 42.9352 30.4764C42.0322 31.2732 41.1468 32.0878 40.2437 32.9023C39.5709 33.522 38.8803 34.1418 38.2074 34.7438C37.8356 35.0803 37.4637 35.4167 37.1096 35.7531C36.8794 35.9656 36.6492 36.1604 36.4367 36.3729C36.3836 36.4083 36.3482 36.4614 36.2951 36.4968C35.7461 36.9926 35.1795 37.5061 34.6306 37.9842C34.2233 38.3384 33.8161 38.6925 33.4088 39.0467C26.0781 45.4566 18.7296 50.9104 11.3989 51.9374C10.9562 51.7249 10.5136 51.4947 10.0709 51.2468V49.5115C16.4985 49.0866 22.9085 45.1202 29.3362 39.932C30.2924 39.1529 31.2663 38.3561 32.2224 37.5238C33.0193 36.8333 33.8338 36.125 34.6306 35.4167C34.7723 35.2928 34.9316 35.1511 35.0733 35.0271C35.4451 34.6907 35.817 34.372 36.1888 34.0356C36.2774 33.9647 36.3482 33.8762 36.4367 33.8054C37.0388 33.2741 37.6231 32.7252 38.2251 32.194C39.2167 31.291 40.2083 30.3879 41.1999 29.4848C41.6603 29.0599 42.1384 28.6349 42.5988 28.2276C42.7227 28.1214 42.829 28.0151 42.9529 27.9089C43.555 27.36 44.157 26.8288 44.759 26.2976C45.0069 26.0851 45.2548 25.8726 45.485 25.6601C52.3908 19.622 59.2966 14.4161 66.2023 12.9287C66.8929 13.212 67.5658 13.5308 68.2563 13.8849C68.5042 14.0088 68.7344 14.1328 68.9823 14.2744C68.9823 14.5401 68.9823 14.8234 68.9823 15.089C68.9292 15.089 68.8761 15.089 68.823 15.1067H68.8053Z" fill="#F42525"/>
<path d="M69 37.4176C49.3274 26.2976 29.6726 48.5377 10 37.4176V27.2892C29.6726 38.4092 49.3274 16.1691 69 27.2892V37.4176Z" fill="white"/>
<path d="M69 35.6114C49.3274 24.4914 29.6726 46.7138 10 35.6114V29.0952C29.6726 40.2153 49.3274 17.9752 69 29.0952V35.6114Z" fill="#F42525"/>
<path d="M42.9353 13.3359V50.2729C40.7573 50.8573 38.597 51.4947 36.419 52.0967V15.1421C38.597 14.5577 40.7573 13.9203 42.9353 13.3182V13.3359Z" fill="#CD002A"/>
<path d="M42.9175 36.4613C43.5195 36.302 44.1216 36.1426 44.7236 35.9832V49.7948C41.3416 50.6624 37.9595 51.6894 34.5952 52.5748V38.7633C35.1972 38.6039 35.7992 38.4445 36.4013 38.2852V28.1567C35.7992 28.3161 35.1972 28.4754 34.5952 28.6348V15.6378C37.9772 14.7702 41.3593 13.7254 44.7236 12.8578V25.8548C44.1216 26.0142 43.5195 26.1735 42.9175 26.3329V36.4613Z" fill="white"/>
<path d="M42.9529 13.3182V50.2552C40.7572 50.8573 38.5615 51.4947 36.3658 52.0967V15.1598C38.5615 14.5577 40.7572 13.9203 42.9529 13.3182Z" fill="#F42525"/>
<path style="mix-blend-mode:multiply" d="M68.8938 26.333V38.7633V51.1229C49.2744 40.0914 29.6549 62.2075 10.0532 51.1229V14.1859C29.6549 25.2705 49.2744 3.13668 68.8938 14.1859V26.333Z" fill="url(#paint3_linear_621_37219)"/>
<path style="mix-blend-mode:overlay" opacity="0.25" d="M68.8938 26.333V38.7633V51.1229C49.2744 40.0914 29.6549 62.2075 10.0532 51.1229V14.1859C29.6549 25.2705 49.2744 3.13668 68.8938 14.1859V26.333Z" fill="url(#paint4_linear_621_37219)"/>
<path style="mix-blend-mode:screen" d="M75.2737 58.0987C75.2737 58.0987 43.5184 62.9517 5.73496 54.2378C5.73496 54.2378 30.2781 58.206 41.1771 54.2378C59.719 47.4812 70.4028 50.5109 75.2737 58.0987Z" fill="url(#paint5_linear_621_37219)"/>
<path style="mix-blend-mode:screen" d="M23.3887 18.873C24.4383 18.8194 25.3533 19.6237 25.4071 20.6694C25.4609 21.7151 24.6536 22.6267 23.604 22.6803C22.5545 22.7339 21.6395 21.9296 21.5857 20.8839C21.5319 19.8382 22.3392 18.9266 23.3887 18.873Z" fill="url(#paint6_radial_621_37219)"/>
<path d="M23.6309 20.2405C23.9269 20.2405 24.1691 20.455 24.196 20.7499C24.223 21.0448 23.9808 21.2861 23.7116 21.313C23.4425 21.3398 23.1734 21.0985 23.1465 20.8035C23.1465 20.5086 23.3618 20.2673 23.6578 20.2405H23.6309Z" fill="#FFFFAB"/>
<path style="mix-blend-mode:screen" d="M25.9993 10.6685C27.0488 10.6149 27.9638 11.4193 28.0176 12.4649C28.0715 13.5106 27.2641 14.4222 26.2146 14.4758C25.165 14.5295 24.2501 13.7251 24.1962 12.6794C24.1424 11.6338 24.9498 10.7222 25.9993 10.6685Z" fill="url(#paint7_radial_621_37219)"/>
<path d="M26.2146 12.036C26.5106 12.036 26.7528 12.2505 26.7797 12.5186C26.7797 12.8136 26.5644 13.0549 26.2953 13.0817C26.0262 13.1085 25.7571 12.8672 25.7302 12.5991C25.7302 12.3041 25.9455 12.0628 26.2415 12.036H26.2146Z" fill="#FFFFAB"/>
<path style="mix-blend-mode:screen" d="M24.4652 34.1826C25.5148 34.129 26.4297 34.9333 26.4836 35.979C26.5374 37.0246 25.73 37.9363 24.6805 37.9899C23.631 38.0435 22.716 37.2391 22.6622 36.1935C22.6083 35.1478 23.4157 34.2362 24.4652 34.1826Z" fill="url(#paint8_radial_621_37219)"/>
<path d="M24.6806 35.55C24.9767 35.55 25.2189 35.7645 25.2458 36.0595C25.2727 36.3544 25.0305 36.5957 24.7344 36.6225C24.4384 36.6225 24.1962 36.408 24.1693 36.1131C24.1693 35.8182 24.3846 35.5769 24.6537 35.55H24.6806Z" fill="#FFFFAB"/>
<path style="mix-blend-mode:screen" d="M15.4501 6.4859C18.4103 6.29822 20.94 8.55042 21.1283 11.4997C21.3167 14.449 19.0562 16.9694 16.0959 17.157C13.1357 17.3447 10.606 15.0925 10.4177 12.1432C10.2293 9.19391 12.4898 6.67359 15.4501 6.4859Z" fill="url(#paint9_radial_621_37219)"/>
<path d="M16.096 10.32C16.9033 10.2664 17.6299 10.8831 17.6568 11.7142C17.7107 12.5186 17.0917 13.2425 16.2574 13.2693C15.4501 13.323 14.7235 12.7063 14.6966 11.8751C14.6428 11.0708 15.2617 10.3468 16.096 10.32Z" fill="#FFFFAB"/>
<path style="mix-blend-mode:screen" d="M30.7356 47.2668C32.135 47.1864 33.373 48.2589 33.4537 49.6531C33.5344 51.0473 32.458 52.2806 31.0586 52.3611C29.6592 52.4415 28.4213 51.369 28.3405 49.9748C28.2598 48.5806 29.3363 47.3473 30.7356 47.2668Z" fill="url(#paint10_radial_621_37219)"/>
<path d="M31.0586 49.0901C31.4623 49.0901 31.7852 49.3582 31.8121 49.7604C31.839 50.1626 31.543 50.4843 31.1394 50.5111C30.7357 50.5111 30.4128 50.243 30.3858 49.8408C30.3858 49.4386 30.655 49.1169 31.0586 49.0901Z" fill="#FFFFAB"/>
<path style="mix-blend-mode:screen" d="M7.99557 53.9966C8.69526 53.943 9.31422 54.4792 9.34113 55.2032C9.36804 55.9271 8.85673 56.5169 8.13012 56.5437C7.40352 56.5706 6.81147 56.0611 6.78456 55.3372C6.75765 54.6133 7.26896 54.0234 7.99557 53.9966Z" fill="url(#paint11_radial_621_37219)"/>
<path d="M8.15711 54.9082C8.34549 54.9082 8.50696 55.0423 8.53387 55.2299C8.53387 55.4176 8.39932 55.6053 8.21094 55.6053C8.02256 55.6053 7.83418 55.4713 7.83418 55.2836C7.83418 55.0959 7.96874 54.9082 8.15711 54.9082Z" fill="#FFFFAB"/>
<path style="mix-blend-mode:screen" d="M43.9759 32.0912C44.6756 32.0376 45.2945 32.5738 45.3215 33.2978C45.3753 33.9949 44.8371 34.6115 44.1104 34.6383C43.3838 34.6652 42.7918 34.1557 42.7649 33.4318C42.7111 32.7347 43.2493 32.118 43.9759 32.0912Z" fill="url(#paint12_radial_621_37219)"/>
<path d="M44.1375 33.0028C44.3258 33.0028 44.4873 33.1369 44.5142 33.3246C44.5142 33.5122 44.3797 33.6731 44.1913 33.6999C44.0029 33.6999 43.8414 33.5659 43.8145 33.3782C43.8145 33.1905 43.9491 33.0028 44.1375 33.0028Z" fill="#FFFFAB"/>
<path style="mix-blend-mode:screen" d="M26.2146 52.1198C26.7528 52.093 27.1834 52.4952 27.2372 53.0046C27.2641 53.5408 26.8604 53.9698 26.3491 54.0234C25.8109 54.0503 25.3803 53.6481 25.3265 53.1386C25.2727 52.6292 25.7032 52.1734 26.2146 52.1198Z" fill="url(#paint13_radial_621_37219)"/>
<path d="M26.3222 52.79C26.4568 52.79 26.5913 52.8973 26.5913 53.0313C26.5913 53.1654 26.4837 53.2995 26.3491 53.2995C26.2146 53.2995 26.08 53.1922 26.08 53.0582C26.08 52.9241 26.1876 52.79 26.3222 52.79Z" fill="#FFFFAB"/>
<path style="mix-blend-mode:screen" d="M41.0427 51.3422C42.146 51.2886 43.0879 52.1197 43.1686 53.219C43.2225 54.3183 42.3882 55.2567 41.2849 55.3371C40.1815 55.4176 39.2396 54.5596 39.1589 53.4603C39.105 52.361 39.9393 51.4226 41.0427 51.3422Z" fill="url(#paint14_radial_621_37219)"/>
<path d="M41.2848 52.7632C41.5808 52.7632 41.8499 52.9777 41.8768 53.2726C41.8768 53.5675 41.6615 53.8357 41.3655 53.8625C41.0695 53.8625 40.8004 53.648 40.7735 53.353C40.7735 53.0581 40.9888 52.79 41.2848 52.7632Z" fill="#FFFFAB"/>
<path d="M73.5246 60.0292C73.1747 58.9031 76.2157 53.7016 76.9692 53.7284C77.7227 53.7284 77.05 57.1335 76.5925 57.9378C76.135 58.7422 73.6861 60.5922 73.5246 60.0292Z" fill="white"/>
<path style="mix-blend-mode:screen" d="M6.73076 10.0518C6.73076 10.0518 50.4616 -6.70561 73.713 5.92279C73.713 5.92279 75.7582 10.7221 76.7001 18.2563C76.7001 18.2563 69.3533 26.7824 55.4402 27.7477C43.4647 28.552 31.8121 13.3229 21.6934 11.446C11.6017 9.56921 6.73076 10.0518 6.73076 10.0518Z" fill="url(#paint15_linear_621_37219)"/>
<path d="M5.84266 13.0815C5.00841 13.2156 2.90933 19.7041 3.01698 20.7766C3.15154 21.849 5.6812 18.4707 6.05795 16.6743C6.43471 14.8779 5.81575 13.0815 5.81575 13.0815H5.84266Z" fill="white"/>
<path d="M6.19257 12.0359C5.16994 11.6337 6.973 8.87207 8.53385 8.17496C10.0947 7.47785 13.9161 6.70031 14.3467 7.39742C14.7773 8.12134 7.34976 12.4649 6.19257 12.0359Z" fill="white"/>
<defs>
<radialGradient id="paint0_radial_621_37219" cx="0" cy="0" r="1" gradientUnits="userSpaceOnUse" gradientTransform="translate(40.5112 80.7724) scale(38.6955 48.7362)">
<stop stop-color="#008CCA"/>
<stop offset="1" stop-color="#003BF1"/>
</radialGradient>
<linearGradient id="paint1_linear_621_37219" x1="40.02" y1="64.5335" x2="40.02" y2="0.587179" gradientUnits="userSpaceOnUse">
<stop stop-color="#92FFF1"/>
<stop offset="1" stop-color="#0098FF"/>
</linearGradient>
<linearGradient id="paint2_linear_621_37219" x1="40.02" y1="63.4075" x2="40.02" y2="1.25758" gradientUnits="userSpaceOnUse">
<stop stop-color="#00EFF1"/>
<stop offset="1" stop-color="#0098FF"/>
</linearGradient>
<linearGradient id="paint3_linear_621_37219" x1="10.0355" y1="32.6544" x2="68.8938" y2="32.6544" gradientUnits="userSpaceOnUse">
<stop stop-color="white"/>
<stop offset="0.13" stop-color="#F6F6F6"/>
<stop offset="0.34" stop-color="#DFE0E0"/>
<stop offset="0.54" stop-color="#C4C5C6"/>
<stop offset="0.57" stop-color="#C1C2C3"/>
<stop offset="0.69" stop-color="#BEBFC0"/>
<stop offset="0.91" stop-color="white"/>
</linearGradient>
<linearGradient id="paint4_linear_621_37219" x1="10.0355" y1="32.6544" x2="68.8938" y2="32.6544" gradientUnits="userSpaceOnUse">
<stop stop-color="white"/>
<stop offset="0.13" stop-color="#F6F6F6"/>
<stop offset="0.34" stop-color="#DFE0E0"/>
<stop offset="0.54" stop-color="#C4C5C6"/>
<stop offset="0.57" stop-color="#C1C2C3"/>
<stop offset="0.69" stop-color="#BEBFC0"/>
<stop offset="0.91" stop-color="white"/>
</linearGradient>
<linearGradient id="paint5_linear_621_37219" x1="75.2737" y1="54.9885" x2="5.73496" y2="54.9885" gradientUnits="userSpaceOnUse">
<stop stop-color="#40FF79"/>
<stop offset="0.1" stop-color="#3BEE71"/>
<stop offset="0.29" stop-color="#31C45D"/>
<stop offset="0.56" stop-color="#20803D"/>
<stop offset="0.88" stop-color="#092411"/>
<stop offset="1"/>
</linearGradient>
<radialGradient id="paint6_radial_621_37219" cx="0" cy="0" r="1" gradientUnits="userSpaceOnUse" gradientTransform="translate(23.4662 20.7515) rotate(-93.4326) scale(1.90367 1.91067)">
<stop stop-color="#00B359"/>
<stop offset="0.13" stop-color="#009148"/>
<stop offset="0.34" stop-color="#005D2E"/>
<stop offset="0.54" stop-color="#00351A"/>
<stop offset="0.73" stop-color="#00170B"/>
<stop offset="0.89" stop-color="#000603"/>
<stop offset="1"/>
</radialGradient>
<radialGradient id="paint7_radial_621_37219" cx="0" cy="0" r="1" gradientUnits="userSpaceOnUse" gradientTransform="translate(26.0756 12.565) rotate(-93.4326) scale(1.90367 1.91068)">
<stop stop-color="#00B359"/>
<stop offset="0.13" stop-color="#009148"/>
<stop offset="0.34" stop-color="#005D2E"/>
<stop offset="0.54" stop-color="#00351A"/>
<stop offset="0.73" stop-color="#00170B"/>
<stop offset="0.89" stop-color="#000603"/>
<stop offset="1"/>
</radialGradient>
<radialGradient id="paint8_radial_621_37219" cx="0" cy="0" r="1" gradientUnits="userSpaceOnUse" gradientTransform="translate(24.5204 36.0793) rotate(-93.4326) scale(1.90367 1.91068)">
<stop stop-color="#00B359"/>
<stop offset="0.13" stop-color="#009148"/>
<stop offset="0.34" stop-color="#005D2E"/>
<stop offset="0.54" stop-color="#00351A"/>
<stop offset="0.73" stop-color="#00170B"/>
<stop offset="0.89" stop-color="#000603"/>
<stop offset="1"/>
</radialGradient>
<radialGradient id="paint9_radial_621_37219" cx="0" cy="0" r="1" gradientUnits="userSpaceOnUse" gradientTransform="translate(15.7035 11.7859) rotate(-93.4326) scale(5.33564 5.35527)">
<stop stop-color="#00B359"/>
<stop offset="0.13" stop-color="#009148"/>
<stop offset="0.34" stop-color="#005D2E"/>
<stop offset="0.54" stop-color="#00351A"/>
<stop offset="0.73" stop-color="#00170B"/>
<stop offset="0.89" stop-color="#000603"/>
<stop offset="1"/>
</radialGradient>
<radialGradient id="paint10_radial_621_37219" cx="0" cy="0" r="1" gradientUnits="userSpaceOnUse" gradientTransform="translate(30.8418 49.7775) rotate(-93.4326) scale(2.54717 2.55654)">
<stop stop-color="#00B359"/>
<stop offset="0.13" stop-color="#009148"/>
<stop offset="0.34" stop-color="#005D2E"/>
<stop offset="0.54" stop-color="#00351A"/>
<stop offset="0.73" stop-color="#00170B"/>
<stop offset="0.89" stop-color="#000603"/>
<stop offset="1"/>
</radialGradient>
<radialGradient id="paint11_radial_621_37219" cx="0" cy="0" r="1" gradientUnits="userSpaceOnUse" gradientTransform="translate(8.03867 55.2447) rotate(-93.4326) scale(1.28699 1.29172)">
<stop stop-color="#00B359"/>
<stop offset="0.13" stop-color="#009148"/>
<stop offset="0.34" stop-color="#005D2E"/>
<stop offset="0.54" stop-color="#00351A"/>
<stop offset="0.73" stop-color="#00170B"/>
<stop offset="0.89" stop-color="#000603"/>
<stop offset="1"/>
</radialGradient>
<radialGradient id="paint12_radial_621_37219" cx="0" cy="0" r="1" gradientUnits="userSpaceOnUse" gradientTransform="translate(44.0107 33.3609) rotate(-93.4326) scale(1.28699 1.29172)">
<stop stop-color="#00B359"/>
<stop offset="0.13" stop-color="#009148"/>
<stop offset="0.34" stop-color="#005D2E"/>
<stop offset="0.54" stop-color="#00351A"/>
<stop offset="0.73" stop-color="#00170B"/>
<stop offset="0.89" stop-color="#000603"/>
<stop offset="1"/>
</radialGradient>
<radialGradient id="paint13_radial_621_37219" cx="0" cy="0" r="1" gradientUnits="userSpaceOnUse" gradientTransform="translate(26.24 53.0598) rotate(-93.4327) scale(0.938427 0.941883)">
<stop stop-color="#00B359"/>
<stop offset="0.13" stop-color="#009148"/>
<stop offset="0.34" stop-color="#005D2E"/>
<stop offset="0.54" stop-color="#00351A"/>
<stop offset="0.73" stop-color="#00170B"/>
<stop offset="0.89" stop-color="#000603"/>
<stop offset="1"/>
</radialGradient>
<radialGradient id="paint14_radial_621_37219" cx="0" cy="0" r="1" gradientUnits="userSpaceOnUse" gradientTransform="translate(41.136 53.3009) rotate(-93.4327) scale(1.98411 1.99141)">
<stop stop-color="#00B359"/>
<stop offset="0.13" stop-color="#009148"/>
<stop offset="0.34" stop-color="#005D2E"/>
<stop offset="0.54" stop-color="#00351A"/>
<stop offset="0.73" stop-color="#00170B"/>
<stop offset="0.89" stop-color="#000603"/>
<stop offset="1"/>
</radialGradient>
<linearGradient id="paint15_linear_621_37219" x1="6.73076" y1="14.5026" x2="76.7001" y2="14.5026" gradientUnits="userSpaceOnUse">
<stop stop-color="#7ED140"/>
<stop offset="0.11" stop-color="#74C03B"/>
<stop offset="0.34" stop-color="#5A962E"/>
<stop offset="0.65" stop-color="#315219"/>
<stop offset="1"/>
</linearGradient>
</defs>
</svg>
