<svg width="81" height="91" viewBox="0 0 81 91" fill="none" xmlns="http://www.w3.org/2000/svg">
<g style="mix-blend-mode:multiply">
<path d="M40.5 90.5132C62.8675 90.5132 81 87.8269 81 84.5132C81 81.1995 62.8675 78.5132 40.5 78.5132C18.1325 78.5132 0 81.1995 0 84.5132C0 87.8269 18.1325 90.5132 40.5 90.5132Z" fill="#6B54A1"/>
</g>
<path d="M61.2439 41.7021C61.2439 62.5618 55.9025 80.0925 41.2823 82.5969C40.0614 82.8107 32.8276 82.5969 31.5762 82.5969C15.2162 82.5358 2 64.211 2 41.6105C2 19.0099 15.3077 0.715649 31.6677 0.74619C32.7055 0.74619 41.6791 0.624025 42.6863 0.74619C57.6117 2.85354 61.2744 20.5064 61.2439 41.6715V41.7021Z" fill="url(#paint0_radial_521_10411)"/>
<path d="M72.2635 41.702C72.2635 64.3026 58.9557 82.5968 42.5957 82.5663C26.2358 82.5357 12.9891 64.211 13.0196 41.6409C13.0501 19.0404 26.3273 0.715591 42.6873 0.746132C59.0473 0.776673 72.294 19.1015 72.2635 41.702Z" fill="url(#paint1_linear_521_10411)"/>
<g style="mix-blend-mode:soft-light">
<path d="M17.1387 20.5978L60.1141 74.6865L66.3407 66.196L32.7661 3.09766C32.7661 3.09766 24.0978 6.67099 17.1387 20.5978Z" fill="#00B2FF"/>
</g>
<path d="M63.5344 41.7021C63.5344 57.6447 54.164 70.5637 42.596 70.5331C42.1687 70.5331 41.7414 70.5331 41.3446 70.472C30.3871 69.5863 21.7188 57.0033 21.7188 41.641C21.7188 26.3093 30.4176 13.8179 41.3141 12.8711C41.7719 12.8406 42.1992 12.8101 42.6571 12.8101C54.1945 12.8101 63.5344 25.7596 63.5038 41.7021H63.5344Z" fill="url(#paint2_radial_521_10411)"/>
<path d="M60.8484 41.7021C60.8484 56.9727 52.2106 69.4947 41.3446 70.472C30.3871 69.5863 21.7188 57.0033 21.7188 41.641C21.7188 26.3093 30.4176 13.8179 41.3141 12.8711C52.2106 13.8484 60.8484 26.3703 60.8179 41.7021H60.8484Z" fill="url(#paint3_linear_521_10411)"/>
<path d="M41.9623 59.598C40.8562 59.4913 39.7099 59.2317 38.6673 58.7073C46.1622 60.9344 52.1293 55.0967 52.1293 55.0967C46.5336 57.6086 37.1548 58.0107 32.7486 50.6014C27.0653 41.0426 31.9106 33.7242 36.599 31.9803C43.0434 29.5828 51.3701 36.7423 47.8714 45.1184C49.2846 40.2558 45.7629 33.2473 40.1785 32.9988C34.6057 32.7511 31.7481 37.748 30.8075 42.3113C30.8075 42.3113 31.4085 40.9528 32.4732 39.3861C31.9713 40.8431 31.2871 43.8963 32.4435 46.9434C33.7656 50.4285 36.1468 52.7161 38.3839 53.8249C44.8843 57.0497 52.2479 53.4254 52.2479 53.4254C47.9525 54.8586 41.7478 54.3884 37.9823 51.4401C36.5014 50.2799 35.0365 48.3367 34.363 46.4303C33.8163 44.8857 33.6979 43.195 33.9573 41.6281C34.2074 40.1191 34.8571 38.3929 36.1792 37.3803C37.8329 36.1158 40.4495 35.9154 42.6918 37.7472C44.3673 39.1161 44.9334 41.296 44.8426 43.5641C44.4321 41.2673 42.7575 39.2345 40.7889 38.64C38.8202 38.0455 36.4514 38.7617 35.5981 40.7727C33.7349 45.161 37.3276 50.2906 41.3978 51.8914C44.4847 53.1057 48.5014 53.2486 51.3456 52.086C57.6091 49.5243 58.8609 43.1273 58.9348 40.3022C58.9348 40.3022 57.8302 45.5076 55.043 47.945C59.0747 42.3579 59.7429 33.8203 53.9991 26.1502C53.9991 26.1502 56.8159 30.9992 56.7732 36.7138C54.2555 23.1094 41.6657 18.3347 34.5438 22.4309C34.5438 22.4309 39.7467 20.4837 44.2361 23.0735C36.9455 21.2542 29.0231 25.3175 24.9752 33.0336C24.9752 33.0336 32.3433 23.5824 41.6936 25.7547C47.0497 26.9999 50.3793 30.588 52.2603 34.7608C52.7447 35.8355 52.9745 36.8534 53.1102 37.7611C51.1483 32.127 45.5804 26.5587 39.5717 26.5422C35.1005 26.2821 30.8787 28.165 27.7993 31.9913C25.4046 34.9697 24.0091 39.2416 23.8944 43.479C23.8178 46.2995 24.4619 48.8799 25.1177 51.6233C25.1177 51.6233 23.9192 46.6145 24.8523 43.1924C24.6712 50.6385 28.3557 58.9457 36.4488 62.8441C36.4488 62.8441 32.6052 60.4553 30.112 56.1454C37.1419 63.7169 51.1729 64.8672 58.4707 51.9635C58.4707 51.9635 51.0432 60.4747 41.9636 59.5996L41.9623 59.598ZM45.6751 47.8927C45.6789 48.1273 45.5166 48.3068 45.3134 48.2928L45.0621 48.2754C44.8589 48.2613 44.6966 48.4408 44.7004 48.6755L44.7123 49.4094C44.7161 49.644 44.5538 49.8235 44.3507 49.8095C44.1475 49.7954 43.979 49.593 43.9752 49.3583L43.9633 48.6244C43.9595 48.3898 43.7911 48.1874 43.5879 48.1733L43.3366 48.1559C43.1334 48.1418 42.9649 47.9394 42.9611 47.7047C42.9573 47.4701 43.1196 47.2906 43.3228 47.3046L43.5741 47.3221C43.7773 47.3361 43.9396 47.1566 43.9358 46.922L43.9239 46.188C43.9201 45.9534 44.0824 45.7739 44.2855 45.7879C44.4887 45.802 44.6572 46.0045 44.661 46.2391L44.6728 46.973C44.6766 47.2076 44.8451 47.4101 45.0483 47.4241L45.2996 47.4415C45.5028 47.4556 45.6713 47.6581 45.6751 47.8927ZM48.0405 50.6569C48.0418 50.7396 47.9856 50.8018 47.914 50.7968L47.8267 50.7908C47.7551 50.7858 47.6989 50.848 47.7002 50.9308L47.7044 51.1864C47.7057 51.2691 47.6495 51.3313 47.5779 51.3264C47.5062 51.3214 47.4479 51.2513 47.4465 51.1686L47.4424 50.9129C47.441 50.8302 47.3827 50.76 47.311 50.7551L47.2238 50.749C47.1522 50.7441 47.0938 50.6739 47.0924 50.5912C47.0911 50.5085 47.1473 50.4463 47.219 50.4513L47.3062 50.4573C47.3765 50.4622 47.4341 50.4001 47.4327 50.3173L47.4286 50.0617C47.4272 49.979 47.4835 49.9168 47.5551 49.9217C47.6267 49.9267 47.6851 49.9968 47.6864 50.0795L47.6906 50.3352C47.6919 50.4179 47.7503 50.4881 47.8219 50.493L47.9092 50.4991C47.9808 50.504 48.0392 50.5742 48.0405 50.6569ZM49.3485 26.8557C49.3498 26.9384 49.2936 27.0006 49.2219 26.9956L49.1347 26.9896C49.0631 26.9846 49.0068 27.0468 49.0082 27.1296L49.0123 27.3852C49.0137 27.4679 48.9574 27.5301 48.8858 27.5252C48.8142 27.5202 48.7558 27.4501 48.7545 27.3674L48.7503 27.1117C48.749 27.029 48.6906 26.9588 48.619 26.9539L48.5317 26.9478C48.4601 26.9429 48.4017 26.8727 48.4004 26.79C48.3991 26.7073 48.4553 26.6451 48.5269 26.6501L48.6142 26.6561C48.6858 26.6611 48.742 26.5989 48.7407 26.5161L48.7365 26.2605C48.7352 26.1778 48.7914 26.1155 48.863 26.1205C48.9347 26.1255 48.993 26.1956 48.9944 26.2783L48.9985 26.534C48.9999 26.6167 49.0582 26.6869 49.1299 26.6918L49.2171 26.6979C49.2887 26.7028 49.3471 26.773 49.3485 26.8557ZM56.7719 36.7152C56.7715 36.8489 56.7685 36.9824 56.7641 37.1158C56.73 36.9347 56.6919 36.7548 56.6513 36.5732L56.7719 36.7152ZM54.0592 45.3531C54.0579 45.2704 54.1141 45.2082 54.1857 45.2131L54.273 45.2192C54.3446 45.2241 54.4008 45.1619 54.3995 45.0792L54.3954 44.8236C54.394 44.7408 54.4503 44.6786 54.5219 44.6836C54.5935 44.6885 54.6519 44.7587 54.6532 44.8414L54.6574 45.0971C54.6587 45.1798 54.7171 45.2499 54.7887 45.2549L54.876 45.2609C54.9476 45.2659 55.0059 45.336 55.0073 45.4187C55.0086 45.5015 54.9524 45.5637 54.8808 45.5587L54.7935 45.5527C54.7219 45.5477 54.6657 45.6099 54.667 45.6926L54.6712 45.9483C54.6725 46.031 54.6163 46.0932 54.5446 46.0883C54.473 46.0833 54.4146 46.0132 54.4133 45.9304L54.4092 45.6748C54.4078 45.5921 54.3494 45.5219 54.2778 45.517L54.1906 45.5109C54.1189 45.506 54.0606 45.4358 54.0592 45.3531ZM51.5617 42.383C51.5596 42.2536 51.6491 42.1562 51.7598 42.1638L51.8978 42.1734C52.0098 42.1811 52.0979 42.0821 52.0959 41.9543L52.0893 41.5512C52.0872 41.4219 52.1754 41.3243 52.2874 41.3321C52.3994 41.3398 52.491 41.4513 52.493 41.5792L52.4996 41.9822C52.5017 42.1115 52.5932 42.2215 52.7052 42.2293L52.8432 42.2389C52.9552 42.2466 53.0468 42.3566 53.0489 42.4859C53.051 42.6153 52.9615 42.7127 52.8508 42.7051L52.7128 42.6955C52.6008 42.6878 52.5126 42.7853 52.5147 42.9147L52.5212 43.3177C52.5233 43.447 52.4338 43.5445 52.3231 43.5368C52.2125 43.5292 52.1196 43.4176 52.1175 43.2897L52.111 42.8867C52.1089 42.7574 52.0174 42.6474 51.9054 42.6396L51.7673 42.63C51.6553 42.6223 51.5638 42.5108 51.5617 42.383ZM39.5589 29.2033C39.5571 29.0905 39.6351 29.0058 39.7314 29.0124L39.8512 29.0207C39.9489 29.0275 40.0255 28.9412 40.0237 28.8299L40.018 28.4779C40.0162 28.3652 40.0942 28.2804 40.1906 28.2871C40.2869 28.2938 40.3678 28.391 40.3697 28.5023L40.3754 28.8542C40.3772 28.967 40.4581 29.0628 40.5545 29.0694L40.6743 29.0777C40.7719 29.0845 40.8516 29.1816 40.8534 29.2929C40.8552 29.4057 40.7772 29.4905 40.6808 29.4838L40.561 29.4755C40.4634 29.4687 40.3867 29.5551 40.3885 29.6663L40.3942 30.0183C40.396 30.1311 40.3181 30.2158 40.2217 30.2091C40.1253 30.2025 40.0444 30.1052 40.0426 29.9939L40.0369 29.642C40.0351 29.5292 39.9542 29.4335 39.8578 29.4268L39.738 29.4185C39.6403 29.4117 39.5607 29.3146 39.5589 29.2033ZM37.0179 28.7719C37.0166 28.6892 37.0728 28.627 37.1445 28.632L37.2317 28.638C37.3033 28.643 37.3596 28.5808 37.3582 28.4981L37.3541 28.2424C37.3527 28.1597 37.409 28.0975 37.4806 28.1024C37.5522 28.1074 37.6106 28.1775 37.6119 28.2603L37.6161 28.5159C37.6174 28.5986 37.6758 28.6688 37.7474 28.6737L37.8347 28.6798C37.9063 28.6847 37.9647 28.7549 37.966 28.8376C37.9673 28.9203 37.9111 28.9825 37.8395 28.9776L37.7522 28.9715C37.6806 28.9666 37.6244 29.0288 37.6257 29.1115L37.6299 29.3671C37.6312 29.4499 37.575 29.5121 37.5033 29.5071C37.4317 29.5022 37.3734 29.432 37.372 29.3493L37.3679 29.0936C37.3665 29.0109 37.3082 28.9408 37.2365 28.9358L37.1493 28.9298C37.0777 28.9248 37.0193 28.8547 37.0179 28.7719ZM28.3286 48.9238C28.3299 49.0065 28.2737 49.0687 28.2021 49.0638L28.1148 49.0577C28.0432 49.0528 27.987 49.115 27.9883 49.1977L27.9925 49.4533C27.9938 49.5361 27.9376 49.5983 27.866 49.5933C27.7943 49.5884 27.736 49.5182 27.7346 49.4355L27.7305 49.1798C27.7291 49.0971 27.6708 49.027 27.5991 49.022L27.5119 49.016C27.4403 49.011 27.3819 48.9409 27.3805 48.8582C27.3792 48.7754 27.4354 48.7132 27.5071 48.7182L27.5943 48.7242C27.6659 48.7292 27.7222 48.667 27.7208 48.5843L27.7167 48.3286C27.7153 48.2459 27.7716 48.1837 27.8432 48.1886C27.9148 48.1936 27.9732 48.2637 27.9745 48.3465L27.9787 48.6021C27.98 48.6848 28.0384 48.755 28.11 48.7599L28.1973 48.766C28.2689 48.7709 28.3273 48.8411 28.3286 48.9238ZM28.9324 35.7698L28.8451 35.7638C28.7735 35.7588 28.7172 35.8211 28.7186 35.9038L28.7227 36.1594C28.7241 36.2422 28.6678 36.3044 28.5962 36.2994C28.5246 36.2944 28.4662 36.2243 28.4649 36.1416L28.4607 35.8859C28.4594 35.8032 28.401 35.7331 28.3294 35.7281L28.2422 35.7221C28.1705 35.7171 28.1122 35.647 28.1108 35.5642C28.1095 35.4815 28.1657 35.4193 28.2373 35.4243L28.3246 35.4303C28.3962 35.4353 28.4524 35.3731 28.4511 35.2904L28.4469 35.0347C28.4456 34.952 28.5018 34.8898 28.5735 34.8947C28.6451 34.8997 28.7035 34.9698 28.7048 35.0525L28.7089 35.3082C28.7103 35.3909 28.7687 35.4611 28.8403 35.466L28.9275 35.4721C28.9992 35.477 29.0575 35.5472 29.0589 35.6299C29.0602 35.7126 29.004 35.7748 28.9324 35.7698ZM30.7891 52.0987C30.7912 52.228 30.7031 52.3256 30.5911 52.3178L30.453 52.3083C30.341 52.3005 30.2529 52.3981 30.255 52.5274L30.2615 52.9305C30.2636 53.0598 30.1754 53.1573 30.0634 53.1496C29.9514 53.1418 29.8599 53.0318 29.8578 52.9025L29.8512 52.4994C29.8492 52.3701 29.7563 52.26 29.6456 52.2524L29.5076 52.2428C29.3956 52.235 29.304 52.125 29.302 51.9957C29.2999 51.8664 29.388 51.7688 29.5 51.7766L29.6381 51.7861C29.7501 51.7939 29.8382 51.6963 29.8361 51.567L29.8296 51.1639C29.8275 51.0346 29.9157 50.9371 30.0277 50.9448C30.1397 50.9526 30.2312 51.0626 30.2333 51.1919L30.2398 51.595C30.2419 51.7243 30.3348 51.8344 30.4455 51.842L30.5835 51.8516C30.6955 51.8594 30.7871 51.9709 30.7891 52.0987Z" fill="url(#paint4_radial_521_10411)"/>
<path d="M68.3855 39.3808C69.9421 39.4419 71.163 40.9384 71.1019 42.7709C71.0409 44.6033 69.7284 46.0388 68.1718 45.9777C66.6152 45.9166 65.3943 44.4201 65.4553 42.5876C65.5164 40.7551 66.8288 39.3197 68.3855 39.3808Z" fill="url(#paint5_radial_521_10411)"/>
<path d="M67.9586 39.8389C69.3016 39.8695 70.3088 41.1828 70.2783 42.7404C70.2478 44.298 69.1184 45.5196 67.7754 45.4891C66.4325 45.4585 65.4252 44.1453 65.4558 42.5877C65.5168 41.0301 66.6156 39.8084 67.9586 39.8389Z" fill="url(#paint6_linear_521_10411)"/>
<path d="M44.2409 4.86956C45.7976 4.93064 47.0185 6.42716 46.9574 8.25964C46.8964 10.0921 45.5839 11.5276 44.0273 11.4665C42.4706 11.4054 41.2497 9.90887 41.3108 8.07639C41.3718 6.24391 42.6843 4.80847 44.2409 4.86956Z" fill="url(#paint7_radial_521_10411)"/>
<path d="M43.8453 5.32771C45.1883 5.35825 46.1955 6.67153 46.165 8.22913C46.1345 9.78674 45.0052 11.0084 43.6622 10.9778C42.3192 10.9473 41.312 9.63403 41.3425 8.07643C41.4035 6.51882 42.5023 5.29717 43.8453 5.32771Z" fill="url(#paint8_linear_521_10411)"/>
<path d="M44.1823 73.1293C45.739 73.1904 46.9599 74.6869 46.8988 76.5194C46.8378 78.3519 45.5253 79.7873 43.9687 79.7262C42.412 79.6652 41.1911 78.1686 41.2522 76.3362C41.3132 74.5037 42.6257 73.0682 44.1823 73.1293Z" fill="url(#paint9_radial_521_10411)"/>
<path d="M43.7555 73.6177C45.0984 73.6483 46.1057 74.9616 46.0752 76.5192C46.0141 78.0768 44.9153 79.2984 43.5723 79.2679C42.2293 79.2373 41.2221 77.9241 41.2526 76.3665C41.2832 74.8089 42.4125 73.5872 43.7555 73.6177Z" fill="url(#paint10_linear_521_10411)"/>
<path d="M17.6277 39.3198C19.1843 39.3808 20.4052 40.8774 20.3441 42.7098C20.2831 44.5423 18.9706 45.9778 17.414 45.9167C15.8574 45.8556 14.6365 44.3591 14.6975 42.5266C14.7586 40.6941 16.071 39.2587 17.6277 39.3198Z" fill="url(#paint11_radial_521_10411)"/>
<path d="M17.2008 39.7779C18.5438 39.8084 19.551 41.1217 19.5205 42.6793C19.4594 44.2369 18.3606 45.4586 17.0176 45.428C15.6747 45.3975 14.6674 44.0842 14.6979 42.5266C14.7285 40.969 15.8578 39.7474 17.2008 39.7779Z" fill="url(#paint12_linear_521_10411)"/>
<g style="mix-blend-mode:soft-light">
<path d="M6.27344 20.5978H17.1394C17.1394 20.5978 20.039 11.3743 31.6986 3.09766L20.8936 3.52523C20.8936 3.52523 9.38672 10.8246 6.27344 20.5978Z" fill="#00B2FF"/>
</g>
<path d="M18.9698 17.1164C18.5425 18.0326 26.4478 13.7263 28.1265 10.5195C29.8052 7.31264 30.8735 5.11367 30.0799 4.65555C29.2864 4.19743 21.5642 11.4052 18.9698 17.1164Z" fill="white"/>
<path d="M59.3209 74.2288C56.4518 74.9923 63.4109 67.7846 64.1434 68.09C64.8759 68.3954 61.9153 73.5264 59.3209 74.2288Z" fill="white"/>
<defs>
<radialGradient id="paint0_radial_521_10411" cx="0" cy="0" r="1" gradientUnits="userSpaceOnUse" gradientTransform="translate(31.5847 41.667) rotate(0.0700435) scale(35.7417 35.7639)">
<stop stop-color="#0500FF"/>
<stop offset="1" stop-color="#050031"/>
</radialGradient>
<linearGradient id="paint1_linear_521_10411" x1="42.5543" y1="82.5752" x2="42.6544" y2="0.724539" gradientUnits="userSpaceOnUse">
<stop stop-color="#0E0082"/>
<stop offset="1" stop-color="#1400FF"/>
</linearGradient>
<radialGradient id="paint2_radial_521_10411" cx="0" cy="0" r="1" gradientUnits="userSpaceOnUse" gradientTransform="translate(42.6046 41.65) rotate(0.0700435) scale(25.1809 25.1966)">
<stop stop-color="#001AFF"/>
<stop offset="1" stop-color="#050030"/>
</radialGradient>
<linearGradient id="paint3_linear_521_10411" x1="41.2264" y1="70.4487" x2="41.2968" y2="12.8479" gradientUnits="userSpaceOnUse">
<stop stop-color="#0E0082"/>
<stop offset="0.9999" stop-color="#012AFE"/>
<stop offset="1" stop-color="#0500FF"/>
</linearGradient>
<radialGradient id="paint4_radial_521_10411" cx="0" cy="0" r="1" gradientUnits="userSpaceOnUse" gradientTransform="translate(41.7056 42.4711) rotate(60.344) scale(20.8417 18.1575)">
<stop offset="0.10409" stop-color="#14F1FF"/>
<stop offset="0.978353" stop-color="#13AAFF"/>
</radialGradient>
<radialGradient id="paint5_radial_521_10411" cx="0" cy="0" r="1" gradientUnits="userSpaceOnUse" gradientTransform="translate(74.3559 42.8605) rotate(-88.0712) scale(3.29846 2.80195)">
<stop stop-color="#0500FF"/>
<stop offset="1" stop-color="#050030"/>
</radialGradient>
<linearGradient id="paint6_linear_521_10411" x1="73.9506" y1="45.6582" x2="73.8885" y2="40.0364" gradientUnits="userSpaceOnUse">
<stop stop-color="#00FFF4"/>
<stop offset="1" stop-color="#30A7FB"/>
</linearGradient>
<radialGradient id="paint7_radial_521_10411" cx="0" cy="0" r="1" gradientUnits="userSpaceOnUse" gradientTransform="translate(50.2113 8.34923) rotate(-88.0712) scale(3.29846 2.80195)">
<stop stop-color="#0500FF"/>
<stop offset="1" stop-color="#050030"/>
</radialGradient>
<linearGradient id="paint8_linear_521_10411" x1="49.9583" y1="11.1435" x2="49.8972" y2="5.49121" gradientUnits="userSpaceOnUse">
<stop stop-color="#00FFF4"/>
<stop offset="1" stop-color="#30A7FB"/>
</linearGradient>
<radialGradient id="paint9_radial_521_10411" cx="0" cy="0" r="1" gradientUnits="userSpaceOnUse" gradientTransform="translate(50.1527 76.609) rotate(-88.0712) scale(3.29846 2.80195)">
<stop stop-color="#0500FF"/>
<stop offset="1" stop-color="#050030"/>
</radialGradient>
<linearGradient id="paint10_linear_521_10411" x1="49.8676" y1="79.4081" x2="49.8055" y2="73.7863" gradientUnits="userSpaceOnUse">
<stop stop-color="#00FFF4"/>
<stop offset="1" stop-color="#30A7FB"/>
</linearGradient>
<radialGradient id="paint11_radial_521_10411" cx="0" cy="0" r="1" gradientUnits="userSpaceOnUse" gradientTransform="translate(23.5981 42.7994) rotate(-88.0712) scale(3.29846 2.80195)">
<stop stop-color="#0500FF"/>
<stop offset="1" stop-color="#050030"/>
</radialGradient>
<linearGradient id="paint12_linear_521_10411" x1="23.4635" y1="45.606" x2="23.4014" y2="39.9843" gradientUnits="userSpaceOnUse">
<stop stop-color="#00FFF4"/>
<stop offset="1" stop-color="#30A7FB"/>
</linearGradient>
</defs>
</svg>
