<svg width="223" height="306" viewBox="0 0 223 306" fill="none" xmlns="http://www.w3.org/2000/svg">
<path d="M80.8113 301.688C80.8113 301.688 47.2454 202.445 50.783 166.233L120.401 158.239L140.671 152L141.791 168.941L220.849 154.607C220.849 154.607 225.889 184.219 215.204 208.392L193.906 250.913C193.906 250.913 181.277 280.071 166.047 288.578C166.047 288.578 138.187 314.171 80.8053 301.714L80.8113 301.688Z" fill="#5B254E"/>
<path d="M47 167.154C47 167.154 52.0115 204.307 89.086 231.897C89.086 231.897 139.261 223.477 180.432 197.942L178.329 183.58L193.719 186.89C193.719 186.89 209.038 173.873 220.415 155.224C220.415 155.224 176.072 154.12 130.44 164.339L138.653 152.515C138.653 152.515 101.252 150.94 47.0061 167.127L47 167.154Z" fill="#985965"/>
<path d="M88.8645 226.028C88.8645 226.028 76.2194 272.946 78.1311 296.65C78.1311 296.65 53.617 231.21 49.483 164.533C49.483 164.533 70.2945 208.153 88.887 226.031L88.8645 226.028Z" fill="#461642"/>
<path d="M181.886 186.479L187.665 200.679L178.7 266.053C178.7 266.053 195.647 212.864 195.486 189.595L181.907 186.483L181.886 186.479Z" fill="#461642"/>
<path d="M54.1012 177.056C54.1012 177.056 81.6206 215.438 93.0057 218.248C104.391 221.059 157.817 210.627 182.242 195.459C182.242 195.459 142.029 222.772 89.8917 230.359C89.8917 230.359 67.7792 204.822 54.1012 177.056Z" fill="#B06979"/>
<path d="M86.2653 221.85L89.3883 233.373L97.269 226.148L86.2653 221.85Z" fill="#D27F7C"/>
<path d="M190.602 189.256L194.497 200.199L199.366 185.792C199.366 185.792 192.654 187.008 190.624 189.259L190.602 189.256Z" fill="#B06979"/>
<path d="M4.57764e-05 141.982C4.57764e-05 141.982 2.86848 151.956 10.4924 155.91H14.5434L17.1351 159.436C17.1351 159.436 23.9538 160.922 32.4835 158.983C32.4835 158.983 46.9765 153.139 50.801 139.438L4.57764e-05 141.982Z" fill="#5B254E"/>
<path d="M50.7759 139.438C50.7759 139.438 35.5028 145.81 0 141.982C0 141.982 3.84975 138.783 8.93236 135.811C9.13365 135.71 9.23429 135.634 9.23429 135.634C13.235 133.342 17.9653 131.227 22.1421 131C22.1421 131 34.0183 132.99 43.2274 136.113C43.2274 136.113 43.2274 136.113 43.3029 136.138C46.2216 137.146 48.8888 138.254 50.7759 139.438Z" fill="#985965"/>
<path d="M50.7759 139.438C50.7759 139.438 35.5029 145.81 4.57764e-05 141.982C4.57764e-05 141.982 3.84979 138.783 8.93241 135.811C8.00143 136.415 5.13303 138.43 6.34078 139.815C7.74982 141.503 32.2822 142.737 40.5352 140.546C48.1843 138.481 43.9572 136.44 43.303 136.138C46.2217 137.146 48.8888 138.254 50.7759 139.438Z" fill="#B06979"/>
<path d="M4.57764e-05 141.982L10.3414 142.863L14.5434 155.91H10.4924C10.4924 155.91 2.66716 152.736 4.57764e-05 141.982Z" fill="#461642"/>
<path opacity="0.3" d="M130 197C164.794 197 193 192.971 193 188C193 183.029 164.794 179 130 179C95.2061 179 67 183.029 67 188C67 192.971 95.2061 197 130 197Z" fill="#09090A"/>
<path d="M80.7514 186.136C80.3314 186.946 80.0814 189.146 80.7514 189.476C81.4214 189.816 91.9614 191.166 98.8614 189.476C105.771 187.786 107.451 185.766 111.581 185.006C115.711 184.246 117.251 182.986 117.781 182.736C118.311 182.486 117.591 178.606 117.591 178.606L80.7414 186.136H80.7514Z" fill="url(#paint0_linear_244_1693)"/>
<path d="M122.041 97.4458C120.601 97.8958 117.031 113.706 113.331 121.876C109.621 130.046 109.311 132.606 109.311 136.396C109.311 140.186 121.531 150.636 130.961 150.636C140.391 150.636 152.531 138.166 152.871 134.126C153.211 130.086 149.281 124.016 145.791 114.246C142.311 104.476 141.411 98.8558 139.841 97.4458C138.271 96.0458 122.041 97.4458 122.041 97.4458Z" fill="url(#paint1_linear_244_1693)"/>
<path d="M126.871 150.066C124.341 152.036 120.631 163.426 119.641 168.906C117.491 180.866 117.981 179.416 113.141 180.606C106.621 182.196 105.701 183.376 100.691 185.646C93.5112 188.176 81.0713 187.066 80.8713 186.316C80.6713 176.606 97.4712 155.156 105.161 141.616C107.311 138.166 108.891 135.586 109.301 134.816C110.731 132.126 126.861 150.086 126.861 150.086L126.871 150.066Z" fill="url(#paint2_linear_244_1693)"/>
<g style="mix-blend-mode:multiply" opacity="0.5">
<path d="M126.871 150.066C124.901 150.976 121.631 161.756 120.281 166.026C120.031 166.806 119.621 168.906 119.491 169.796C119.811 166.946 119.261 155.026 116.011 147.276C112.341 138.546 105.501 141.456 105.191 141.606C107.341 138.156 108.921 135.576 109.331 134.806C110.761 132.116 126.891 150.076 126.891 150.076L126.871 150.066Z" fill="#C72781"/>
</g>
<path d="M130.371 150.626C130.101 151.786 124.081 154.656 124.081 154.656L124.471 153.206C121.221 140.946 109.631 137.166 108.381 137.496C107.131 137.836 106.351 139.706 106.351 139.706C105.061 136.896 104.901 133.956 105.561 131.616C105.611 131.416 105.671 131.236 105.741 131.046C105.741 131.046 105.741 131.016 105.741 131.006C107.071 127.276 110.551 125.346 114.681 128.506C117.211 130.456 120.081 133.846 122.661 137.416L122.681 137.446C122.681 137.446 122.701 137.486 122.721 137.506C127.031 143.486 130.531 149.896 130.371 150.626Z" fill="url(#paint3_linear_244_1693)"/>
<path d="M118.721 174.006C118.721 174.006 101.751 161.516 88.6413 167.866L87.6113 169.506C87.6113 169.506 99.9613 164.236 118.731 174.006H118.721Z" fill="url(#paint4_linear_244_1693)"/>
<path d="M98.4213 159.006C93.6813 154.386 101.501 145.956 105.521 145.076C109.551 144.196 112.241 148.926 109.601 155.316C106.961 161.716 99.9413 160.496 98.4113 158.996L98.4213 159.006Z" fill="url(#paint5_linear_244_1693)"/>
<path d="M97.5014 155.346C97.1014 151.866 101.631 145.256 105.791 145.586C109.951 145.916 109.051 151.166 107.451 154.176C104.901 158.976 98.1114 160.556 97.5014 155.346Z" fill="url(#paint6_linear_244_1693)"/>
<path d="M120.401 112.046C118.231 118.206 109.471 121.176 100.761 123.526C100.651 123.556 100.551 123.576 100.441 123.616C100.431 123.616 100.431 123.616 100.431 123.616H100.421C100.421 123.616 100.411 123.616 100.401 123.616C98.8212 124.046 97.2512 124.506 95.7012 124.956C88.8212 126.996 82.3713 129.136 77.8513 129.416C72.2113 129.776 68.2112 128.446 68.7912 123.986C69.3612 119.526 74.3612 116.396 75.4012 115.266C76.4512 114.136 76.6313 114.026 76.6313 114.026L76.1612 113.716C72.2212 112.896 71.9812 108.546 73.2112 108.236C74.4312 107.936 76.4512 108.296 78.7812 108.756C81.1012 109.216 82.3712 109.406 85.0512 108.996C87.7212 108.586 91.0213 109.196 92.0113 109.606C92.1313 109.656 92.3612 109.676 92.6812 109.646C94.8412 109.506 101.151 107.686 105.411 105.446C110.281 102.886 117.361 98.2659 120.401 98.4159C120.401 98.4159 122.581 105.856 120.401 112.006V112.046Z" fill="url(#paint7_linear_244_1693)"/>
<path d="M95.7012 124.976C88.8212 127.016 82.3713 129.156 77.8513 129.446C72.2213 129.806 68.2112 128.476 68.7912 124.006C69.3712 119.546 74.3712 116.426 75.4112 115.296C76.4612 114.166 76.6313 114.066 76.6313 114.066L76.1612 113.756C72.0012 112.746 71.9912 108.586 73.2112 108.276C74.4312 107.966 76.4512 108.326 78.7812 108.796C81.1012 109.256 82.3712 109.456 85.0512 109.036C87.7112 108.626 91.0213 109.236 92.0113 109.656C92.1313 109.706 92.3612 109.716 92.6812 109.696C92.6812 109.696 92.7212 119.436 95.7012 124.986V124.976Z" fill="url(#paint8_linear_244_1693)"/>
<path d="M182.141 186.136C182.561 186.946 182.811 189.146 182.141 189.476C181.471 189.816 170.931 191.166 164.031 189.476C157.121 187.786 155.441 185.766 151.311 185.006C147.181 184.246 145.641 182.986 145.111 182.736C144.581 182.486 145.301 178.606 145.301 178.606L182.151 186.136H182.141Z" fill="url(#paint9_linear_244_1693)"/>
<path d="M182.141 186.136C182.261 187.906 161.511 187.646 157.561 183.256C155.821 181.796 148.871 181.616 145.861 179.346C144.211 178.606 144.321 173.156 142.861 167.616C141.801 163.386 138.101 151.136 136.021 150.056C136.021 150.086 150.741 133.636 153.321 134.556C160.611 147.346 180.751 174.206 182.141 186.136Z" fill="url(#paint10_linear_244_1693)"/>
<path d="M144.161 174.516C144.161 174.516 161.141 161.516 174.251 167.876L175.281 169.516C175.281 169.516 162.921 164.756 144.151 174.516H144.161Z" fill="url(#paint11_linear_244_1693)"/>
<g style="mix-blend-mode:multiply" opacity="0.5">
<path d="M157.701 141.576C157.701 141.576 151.191 139.766 147.571 150.646C143.941 161.516 142.861 168.266 142.861 168.266L142.321 165.616C142.241 165.256 137.991 150.986 136.021 150.076C136.021 150.076 152.151 132.116 153.581 134.806C153.991 135.576 155.551 138.146 157.701 141.586V141.576Z" fill="#C72781"/>
</g>
<path d="M164.471 159.006C169.211 154.386 161.391 145.956 157.371 145.076C153.341 144.196 150.651 148.926 153.291 155.316C155.931 161.716 162.951 160.496 164.481 158.996L164.471 159.006Z" fill="url(#paint12_linear_244_1693)"/>
<path d="M165.351 155.346C165.751 151.866 161.221 145.256 157.061 145.586C152.901 145.916 153.801 151.166 155.401 154.176C157.951 158.976 164.741 160.556 165.351 155.346Z" fill="url(#paint13_linear_244_1693)"/>
<path d="M195.431 124.506V124.526C195.641 128.576 191.641 129.786 186.101 129.436C181.471 129.156 174.861 127.006 167.811 124.976C166.101 124.486 164.371 123.986 162.621 123.536C161.731 123.306 160.851 123.066 159.961 122.806C159.941 122.806 159.921 122.806 159.911 122.806H159.901C151.941 120.556 144.501 117.596 142.501 112.066C140.271 105.916 142.501 98.4759 142.501 98.4759C145.611 98.3259 152.871 102.936 157.861 105.506C162.231 107.746 168.681 109.566 170.911 109.706C171.241 109.736 171.481 109.706 171.591 109.666C172.611 109.256 176.001 108.646 178.731 109.056C181.461 109.466 181.721 109.586 184.111 109.126C186.491 108.666 189.581 107.986 190.841 108.286C192.091 108.596 191.491 112.826 187.831 113.776L187.361 114.086C187.361 114.086 187.541 114.196 188.611 115.326C189.681 116.456 194.801 119.576 195.391 124.046C195.411 124.226 195.431 124.396 195.431 124.556V124.506Z" fill="url(#paint14_linear_244_1693)"/>
<path d="M167.821 124.976C174.871 127.016 181.481 129.156 186.111 129.446C191.881 129.806 195.981 128.476 195.391 124.006C194.801 119.546 189.681 116.426 188.611 115.296C187.541 114.166 187.361 114.066 187.361 114.066L187.841 113.756C191.491 112.896 192.091 108.576 190.841 108.266C189.591 107.956 186.501 108.646 184.121 109.106C181.741 109.566 181.471 109.456 178.731 109.036C176.001 108.626 172.611 109.236 171.601 109.656C171.481 109.706 171.241 109.716 170.911 109.696C170.911 109.696 170.871 119.436 167.811 124.986L167.821 124.976Z" fill="url(#paint15_linear_244_1693)"/>
<path d="M150.741 117.036L150.721 117.096C149.781 119.586 148.831 121.346 148.721 121.556V121.576L147.521 118.736C145.761 112.446 140.361 98.0958 140.361 98.0958C140.361 98.0958 140.831 95.7058 142.851 95.5358C144.631 95.3858 148.831 96.2358 151.331 101.446C151.681 102.146 151.981 102.926 152.251 103.786C153.551 108.016 152.161 113.316 150.761 117.026L150.741 117.036Z" fill="url(#paint16_linear_244_1693)"/>
<path d="M122.101 98.1059C122.101 98.1059 116.691 112.456 114.941 118.746L113.521 121.456C113.521 121.456 112.711 119.776 111.721 117.136C110.401 113.656 109.161 108.736 110.441 104.586C111.061 102.546 111.901 100.926 112.821 99.6659C115.191 96.3759 118.161 95.4159 119.611 95.5359C121.631 95.7059 122.101 98.0959 122.101 98.0959V98.1059Z" fill="url(#paint17_linear_244_1693)"/>
<path d="M156.521 139.716C156.521 139.716 155.751 137.836 154.501 137.506C153.251 137.166 141.661 140.956 138.411 153.216L138.681 154.666C138.681 154.666 132.771 151.796 132.511 150.636C132.361 149.976 135.241 144.606 139.021 139.136V139.116C141.881 134.976 145.251 130.766 148.201 128.516C152.711 125.066 156.451 127.696 157.441 132.116C157.951 134.386 157.721 137.106 156.521 139.716Z" fill="url(#paint18_linear_244_1693)"/>
<path d="M140.341 120.566C139.761 120.566 139.101 120.426 138.351 120.056C133.571 117.746 134.001 109.406 135.011 107.066C135.741 105.386 137.031 104.496 138.541 104.616C141.001 104.806 143.231 107.466 144.241 111.376C144.971 114.206 144.491 118.126 142.451 119.796C141.971 120.186 141.271 120.556 140.351 120.556L140.341 120.566ZM135.911 107.466C135.021 109.526 134.621 117.166 138.781 119.176C139.981 119.756 141.001 119.716 141.821 119.046C143.331 117.816 144.001 114.416 143.281 111.626C142.261 107.646 140.121 105.726 138.461 105.596C137.371 105.506 136.471 106.176 135.911 107.456V107.466Z" fill="url(#paint19_linear_244_1693)"/>
<g style="mix-blend-mode:multiply" opacity="0.5">
<path d="M119.371 105.556C118.501 107.996 124.771 115.466 134.111 115.816C143.461 116.176 142.841 107.626 142.841 104.866C142.841 102.106 140.351 98.0959 140.351 98.0959C140.351 98.0959 137.191 99.4159 132.311 98.9059C127.421 98.3959 122.041 97.4459 122.041 97.4459L119.361 105.546L119.371 105.556Z" fill="#E767A7"/>
</g>
<g style="mix-blend-mode:multiply" opacity="0.5">
<path d="M150.731 117.046L150.711 117.096L148.711 121.556V121.576L147.511 118.736C145.751 112.446 140.351 98.0958 140.351 98.0958C140.351 98.0958 140.821 95.7058 142.841 95.5358C144.621 95.3858 148.821 96.2358 151.321 101.446C146.801 97.0458 144.701 99.5158 144.531 101.446C144.361 103.366 146.941 116.676 147.921 117.776C148.861 118.816 150.561 117.196 150.731 117.036V117.046Z" fill="#AB2781"/>
</g>
<g style="mix-blend-mode:multiply" opacity="0.5">
<path d="M122.101 98.1059C122.101 98.1059 116.691 112.456 114.711 118.616L113.521 121.456C113.521 121.456 112.711 119.776 111.721 117.136V117.116C111.721 117.116 112.661 119.396 113.361 118.926C114.061 118.446 116.991 111.296 118.251 105.066C119.511 98.8359 117.451 96.2259 112.831 99.6759C115.201 96.3859 118.171 95.4259 119.621 95.5459C121.641 95.7159 122.111 98.1059 122.111 98.1059H122.101Z" fill="#AB2781"/>
</g>
<path d="M88.5613 72.6458C88.5613 72.6458 83.8813 68.9158 81.4313 63.5458C79.7513 59.8858 77.6413 54.7458 76.0713 48.5658C76.0713 48.5258 76.0513 48.5158 76.0513 48.5158C74.0513 40.6658 72.9313 31.1258 74.6913 20.8358C77.8413 2.44584 85.1613 -1.01416 85.4913 0.225841C85.5713 0.545841 84.6413 4.46584 83.4713 10.2258V10.2458C80.1913 26.5258 75.1813 57.4458 86.7113 62.8558L88.5713 72.6458H88.5613Z" fill="url(#paint20_linear_244_1693)"/>
<path d="M132.311 10.7758V100.846C132.311 100.846 126.751 100.766 125.231 98.5658C124.351 97.2858 102.821 94.3458 94.5713 84.9158C93.4313 83.6158 92.3613 81.9059 91.3813 79.8759C85.1613 67.1359 82.1313 42.1158 86.4913 31.5058C91.5513 19.2058 112.441 12.2958 132.331 10.7758H132.311Z" fill="url(#paint21_linear_244_1693)"/>
<path d="M173.251 79.8858C172.261 81.9158 171.191 83.6258 170.061 84.9158C161.811 94.3558 140.281 97.2858 139.401 98.5658C137.881 100.766 132.321 100.846 132.321 100.846V10.7758C152.211 12.2958 173.101 19.2058 178.161 31.5058C182.521 42.1158 179.491 67.1558 173.261 79.8858H173.251Z" fill="url(#paint22_linear_244_1693)"/>
<path d="M174.101 37.7058C171.031 31.1658 159.451 28.0758 149.471 31.4458C139.491 34.8158 132.311 33.8558 132.311 33.8558C132.311 33.8558 125.121 34.8158 115.151 31.4458C105.171 28.0758 93.5912 31.1658 90.5212 37.7058C87.7512 43.5958 87.9313 55.2658 90.8813 65.5458C90.8813 65.5458 90.8813 65.5658 90.8813 65.5758C93.1513 73.4758 97.0413 80.5558 102.501 83.5558C115.061 90.4858 132.291 89.9558 132.291 89.9558C132.291 89.9558 149.531 90.4758 162.081 83.5558C168.851 79.8258 173.221 69.8358 175.061 59.7858C175.061 59.7858 175.061 59.7558 175.061 59.7158C176.621 51.1258 176.321 42.5058 174.071 37.7158L174.101 37.7058Z" fill="url(#paint23_radial_244_1693)"/>
<g style="mix-blend-mode:multiply" opacity="0.5">
<path d="M175.091 59.7058C175.201 58.8758 175.291 50.7659 141.531 48.6859C138.301 48.4859 135.231 48.3758 132.321 48.3358C103.011 47.9758 89.0413 55.5459 90.8913 65.5359C87.9413 55.2559 87.7612 43.5858 90.5312 37.6958C93.6012 31.1558 105.181 28.0659 115.161 31.4359C125.131 34.8059 132.321 33.8459 132.321 33.8459C132.321 33.8459 139.511 34.8059 149.481 31.4359C159.461 28.0659 171.041 31.1558 174.111 37.6958C176.361 42.4858 176.651 51.1059 175.101 59.6959L175.091 59.7058Z" fill="#AB2781"/>
</g>
<path style="mix-blend-mode:multiply" opacity="0.5" d="M88.5613 50.8858C88.5613 50.8858 87.4612 33.2758 94.1512 29.0658C102.321 23.9258 121.261 33.0158 135.221 31.3358C149.171 29.6458 156.681 25.3158 166.811 26.6558C178.041 28.1458 176.081 50.8858 176.081 50.8858H88.5713H88.5613Z" fill="url(#paint24_linear_244_1693)"/>
<path d="M134.571 42.6958C122.271 44.2958 116.861 32.3958 117.501 26.0658C117.561 25.3458 117.711 24.7058 117.941 24.1658C124.021 9.39584 143.711 16.3358 146.641 21.7358C147.251 22.8658 147.681 24.3658 147.841 26.0558C148.471 32.3958 145.381 41.2858 134.571 42.6958Z" fill="url(#paint25_linear_244_1693)"/>
<path style="mix-blend-mode:multiply" opacity="0.5" d="M134.571 42.6958C122.271 44.2958 116.861 32.3958 117.501 26.0658C117.501 26.5058 118.031 40.4158 132.421 39.2058C146.781 37.9858 147.811 26.4458 147.831 26.0658C148.461 32.3958 145.371 41.2958 134.561 42.6958H134.571Z" fill="url(#paint26_linear_244_1693)"/>
<path d="M124.391 23.0658C122.531 27.2758 125.351 36.2158 134.391 34.8158C143.001 33.4758 142.431 24.6359 139.841 21.5159C136.421 17.3959 127.191 16.7358 124.391 23.0658Z" fill="#36ACE3"/>
<path d="M125.061 25.3258C123.351 28.7358 125.941 35.9658 134.251 34.8358C142.171 33.7558 141.641 26.5958 139.261 24.0758C136.121 20.7358 127.621 20.2058 125.051 25.3358L125.061 25.3258Z" fill="#75E4FF"/>
<path d="M132.369 33.8804C132.004 33.843 131.629 33.7588 131.291 33.5945C133.74 34.306 135.792 32.5543 135.792 32.5543C133.907 33.2946 130.8 33.3756 129.443 31.0993C127.692 28.1625 129.393 25.9547 130.967 25.4443C133.131 24.7425 135.788 26.9601 134.518 29.496C135.051 28.0211 133.981 25.8707 132.137 25.7704C130.297 25.6703 129.285 27.1797 128.913 28.5655C128.913 28.5655 129.13 28.1544 129.503 27.6818C129.317 28.1234 129.05 29.0504 129.391 29.9837C129.782 31.0511 130.538 31.7584 131.263 32.1061C133.37 33.1171 135.854 32.0457 135.854 32.0457C134.414 32.4632 132.368 32.2926 131.162 31.3779C130.688 31.0179 130.23 30.4196 130.033 29.8359C129.873 29.363 129.857 28.8475 129.963 28.3713C130.066 27.9128 130.305 27.3899 130.756 27.0873C131.319 26.7094 132.188 26.66 132.904 27.2278C133.44 27.6522 133.598 28.3187 133.537 29.0092C133.433 28.3078 132.906 27.6812 132.263 27.4914C131.62 27.3016 130.827 27.5093 130.518 28.118C129.842 29.4465 130.961 31.0248 132.286 31.5305C133.291 31.914 134.617 31.9753 135.573 31.6337C137.679 30.8811 138.179 28.9381 138.242 28.0779C138.242 28.0779 137.807 29.6586 136.852 30.3887C138.261 28.7047 138.597 26.1071 136.8 23.7454C136.8 23.7454 137.667 25.2349 137.575 26.9753C136.926 22.8203 132.827 21.3102 130.416 22.5264C130.416 22.5264 132.163 21.9563 133.613 22.765C131.226 22.1786 128.551 23.3813 127.109 25.7137C127.109 25.7137 129.673 22.8675 132.736 23.5705C134.49 23.9735 135.543 25.0811 136.109 26.3605C136.255 26.69 136.317 27.001 136.35 27.2781C135.777 25.5533 134.011 23.8326 132.024 23.801C130.548 23.702 129.127 24.2568 128.057 25.4087C127.225 26.3054 126.706 27.6004 126.61 28.8906C126.547 29.7494 126.725 30.5382 126.905 31.3768C126.905 31.3768 126.576 29.8458 126.931 28.8075C126.771 31.0748 127.878 33.6215 130.502 34.8448C130.502 34.8448 129.263 34.1001 128.496 32.7763C130.719 35.1137 135.344 35.5261 137.931 31.6279C137.931 31.6279 135.36 34.1876 132.369 33.8809L132.369 33.8804ZM133.754 30.3314C133.753 30.4028 133.696 30.4568 133.629 30.4516L133.547 30.4452C133.48 30.44 133.423 30.494 133.422 30.5655L133.416 30.7891C133.414 30.8606 133.358 30.9145 133.291 30.9094C133.224 30.9042 133.171 30.8418 133.173 30.7703L133.178 30.5467C133.18 30.4752 133.127 30.4128 133.06 30.4076L132.977 30.4012C132.91 30.396 132.857 30.3336 132.859 30.2621C132.861 30.1906 132.917 30.1367 132.984 30.1418L133.067 30.1482C133.134 30.1534 133.19 30.0995 133.192 30.028L133.198 29.8044C133.2 29.7329 133.256 29.6789 133.323 29.6841C133.39 29.6893 133.443 29.7517 133.441 29.8232L133.435 30.0468C133.433 30.1183 133.486 30.1807 133.553 30.1859L133.636 30.1923C133.703 30.1975 133.756 30.2599 133.754 30.3314ZM134.499 31.1838C134.499 31.209 134.479 31.2277 134.456 31.2259L134.427 31.2236C134.403 31.2218 134.384 31.2405 134.383 31.2657L134.381 31.3436C134.381 31.3688 134.361 31.3875 134.337 31.3857C134.314 31.3839 134.295 31.3622 134.296 31.337L134.298 31.2591C134.299 31.2339 134.281 31.2123 134.257 31.2105L134.228 31.2083C134.205 31.2064 134.186 31.1848 134.187 31.1596C134.187 31.1344 134.207 31.1157 134.231 31.1175L134.259 31.1198C134.283 31.1215 134.302 31.1029 134.303 31.0777L134.305 30.9998C134.306 30.9746 134.325 30.9559 134.349 30.9577C134.372 30.9595 134.391 30.9812 134.39 31.0064L134.388 31.0843C134.387 31.1095 134.406 31.1311 134.429 31.1329L134.458 31.1351C134.482 31.137 134.5 31.1586 134.499 31.1838ZM135.253 23.9397C135.252 23.9649 135.233 23.9836 135.209 23.9818L135.18 23.9795C135.157 23.9777 135.137 23.9964 135.136 24.0216L135.134 24.0995C135.134 24.1247 135.114 24.1434 135.091 24.1416C135.067 24.1398 135.049 24.1181 135.049 24.0929L135.051 24.015C135.052 23.9898 135.034 23.9682 135.01 23.9664L134.981 23.9642C134.958 23.9623 134.939 23.9407 134.94 23.9155C134.941 23.8903 134.96 23.8716 134.984 23.8734L135.013 23.8757C135.036 23.8775 135.056 23.8588 135.056 23.8336L135.058 23.7557C135.059 23.7305 135.078 23.7118 135.102 23.7136C135.126 23.7154 135.144 23.7371 135.143 23.7623L135.141 23.8402C135.141 23.8654 135.159 23.887 135.183 23.8888L135.211 23.891C135.235 23.8929 135.253 23.9145 135.253 23.9397ZM137.575 26.9758C137.573 27.0165 137.57 27.0571 137.567 27.0977C137.558 27.0424 137.548 26.9875 137.537 26.932L137.575 26.9758ZM136.561 29.5949C136.562 29.5697 136.582 29.551 136.605 29.5528L136.634 29.555C136.658 29.5569 136.677 29.5382 136.678 29.513L136.68 29.4351C136.68 29.4099 136.7 29.3912 136.724 29.393C136.747 29.3948 136.765 29.4164 136.765 29.4416L136.763 29.5195C136.762 29.5447 136.78 29.5664 136.804 29.5682L136.833 29.5704C136.856 29.5722 136.875 29.5939 136.874 29.6191C136.873 29.6443 136.854 29.663 136.83 29.6611L136.802 29.6589C136.778 29.6571 136.759 29.6758 136.758 29.701L136.756 29.7789C136.755 29.8041 136.736 29.8228 136.712 29.821C136.688 29.8191 136.67 29.7975 136.671 29.7723L136.673 29.6944C136.674 29.6692 136.655 29.6476 136.632 29.6458L136.603 29.6435C136.579 29.6417 136.561 29.6201 136.561 29.5949ZM135.775 28.6791C135.777 28.6397 135.807 28.6104 135.844 28.6132L135.889 28.6168C135.926 28.6196 135.957 28.5898 135.958 28.5509L135.961 28.4281C135.962 28.3887 135.993 28.3594 136.03 28.3622C136.067 28.3651 136.095 28.3995 136.094 28.4384L136.091 28.5612C136.09 28.6006 136.119 28.6345 136.156 28.6374L136.201 28.6409C136.238 28.6438 136.267 28.6777 136.266 28.7171C136.265 28.7565 136.234 28.7858 136.197 28.7829L136.152 28.7794C136.115 28.7766 136.085 28.8059 136.084 28.8453L136.08 28.9681C136.079 29.0075 136.048 29.0368 136.012 29.034C135.975 29.0311 135.946 28.9967 135.947 28.9578L135.95 28.835C135.951 28.7956 135.923 28.7617 135.886 28.7588L135.84 28.7553C135.803 28.7524 135.774 28.7181 135.775 28.6791ZM131.983 24.6115C131.984 24.5771 132.011 24.5517 132.043 24.5541L132.083 24.5572C132.115 24.5597 132.141 24.5337 132.142 24.4998L132.145 24.3926C132.146 24.3582 132.173 24.3328 132.205 24.3352C132.236 24.3377 132.262 24.3676 132.261 24.4016L132.258 24.5088C132.257 24.5431 132.283 24.5727 132.314 24.5751L132.354 24.5782C132.386 24.5807 132.411 24.6106 132.41 24.6445C132.409 24.6789 132.382 24.7044 132.351 24.7019L132.311 24.6988C132.279 24.6963 132.252 24.7223 132.252 24.7562L132.249 24.8634C132.248 24.8978 132.221 24.9233 132.189 24.9208C132.157 24.9183 132.132 24.8884 132.133 24.8545L132.136 24.7472C132.137 24.7129 132.111 24.6834 132.079 24.6809L132.04 24.6778C132.008 24.6753 131.983 24.6454 131.983 24.6115ZM131.149 24.4689C131.15 24.4437 131.169 24.425 131.193 24.4268L131.221 24.429C131.245 24.4308 131.264 24.4121 131.265 24.3869L131.267 24.3091C131.268 24.2838 131.287 24.2652 131.311 24.267C131.335 24.2688 131.353 24.2904 131.352 24.3156L131.35 24.3935C131.349 24.4187 131.368 24.4404 131.391 24.4422L131.42 24.4444C131.444 24.4462 131.462 24.4679 131.462 24.4931C131.461 24.5183 131.441 24.537 131.418 24.5351L131.389 24.5329C131.365 24.5311 131.346 24.5498 131.345 24.575L131.343 24.6529C131.343 24.6781 131.323 24.6968 131.3 24.6949C131.276 24.6931 131.258 24.6715 131.258 24.6463L131.26 24.5684C131.261 24.5432 131.243 24.5216 131.219 24.5197L131.19 24.5175C131.167 24.5157 131.148 24.4941 131.149 24.4689ZM128.004 30.5687C128.003 30.5939 127.984 30.6126 127.96 30.6108L127.931 30.6086C127.908 30.6067 127.888 30.6254 127.887 30.6506L127.885 30.7285C127.885 30.7537 127.865 30.7724 127.842 30.7706C127.818 30.7688 127.8 30.7472 127.8 30.7219L127.802 30.6441C127.803 30.6189 127.785 30.5972 127.761 30.5954L127.732 30.5932C127.709 30.5913 127.69 30.5697 127.691 30.5445C127.692 30.5193 127.711 30.5006 127.735 30.5025L127.763 30.5047C127.787 30.5065 127.807 30.4878 127.807 30.4626L127.809 30.3847C127.81 30.3595 127.829 30.3408 127.853 30.3426C127.877 30.3445 127.895 30.3661 127.894 30.3913L127.892 30.4692C127.892 30.4944 127.91 30.516 127.934 30.5178L127.962 30.5201C127.986 30.5219 128.004 30.5435 128.004 30.5687ZM128.381 26.5647L128.352 26.5624C128.328 26.5606 128.309 26.5793 128.308 26.6045L128.306 26.6824C128.305 26.7076 128.286 26.7263 128.262 26.7245C128.239 26.7227 128.22 26.701 128.221 26.6758L128.223 26.5979C128.224 26.5727 128.205 26.5511 128.182 26.5493L128.153 26.5471C128.129 26.5452 128.111 26.5236 128.112 26.4984C128.112 26.4732 128.132 26.4545 128.155 26.4563L128.184 26.4586C128.208 26.4604 128.227 26.4417 128.228 26.4165L128.23 26.3386C128.231 26.3134 128.25 26.2947 128.274 26.2965C128.297 26.2984 128.316 26.32 128.315 26.3452L128.313 26.4231C128.312 26.4483 128.331 26.4699 128.354 26.4717L128.383 26.4739C128.407 26.4758 128.425 26.4974 128.424 26.5226C128.424 26.5478 128.404 26.5665 128.381 26.5647ZM128.775 31.5467C128.774 31.5861 128.743 31.6154 128.706 31.6125L128.661 31.609C128.624 31.6062 128.593 31.6355 128.592 31.6749L128.589 31.7977C128.588 31.8371 128.557 31.8664 128.52 31.8636C128.484 31.8607 128.455 31.8268 128.456 31.7874L128.459 31.6646C128.46 31.6252 128.431 31.5912 128.394 31.5884L128.349 31.5849C128.312 31.582 128.283 31.5481 128.284 31.5087C128.285 31.4693 128.316 31.44 128.353 31.4429L128.398 31.4464C128.435 31.4492 128.466 31.4199 128.467 31.3805L128.47 31.2577C128.471 31.2183 128.501 31.189 128.538 31.1918C128.575 31.1947 128.604 31.2286 128.603 31.268L128.6 31.3908C128.599 31.4302 128.628 31.4642 128.664 31.467L128.71 31.4705C128.747 31.4734 128.776 31.5077 128.775 31.5467Z" fill="#000AFF"/>
<g style="mix-blend-mode:multiply" opacity="0.59">
<path d="M173.251 79.8658V79.8858C172.261 81.9158 171.191 83.6258 170.061 84.9158C161.811 94.3558 140.281 97.2858 139.401 98.5658C137.881 100.766 132.321 100.846 132.321 100.846C132.321 100.846 126.761 100.766 125.241 98.5658C124.361 97.2858 102.831 94.3458 94.5813 84.9158C93.4413 83.6158 92.3713 81.9058 91.3913 79.8758C91.7713 80.3158 104.291 94.1858 132.331 94.1858C160.371 94.1858 173.271 79.8658 173.271 79.8658H173.251Z" fill="#E767A7"/>
</g>
<g style="mix-blend-mode:multiply" opacity="0.3">
<path d="M88.5612 72.6458C88.5612 72.6458 83.8812 68.9158 81.4312 63.5458C79.7512 59.8858 77.6413 54.7458 76.0713 48.5658C76.2813 49.1158 78.0013 53.4958 78.8413 54.0158C79.7413 54.5858 77.1613 42.6858 78.8413 28.1258C79.6513 21.1358 81.6213 14.8658 83.4613 10.2358C80.1813 26.5158 75.1713 57.4358 86.7013 62.8458L88.5612 72.6358V72.6458Z" fill="#AB2781"/>
</g>
<g style="mix-blend-mode:multiply" opacity="0.5">
<path d="M76.6213 114.046C77.5713 114.406 79.0313 117.946 82.9113 118.176C86.7913 118.396 88.1813 116.716 88.1813 116.716C88.1813 116.716 87.8613 119.236 82.7813 120.086C77.7013 120.936 75.3413 117.846 75.3713 116.836C75.4013 115.826 76.6213 114.056 76.6213 114.056V114.046Z" fill="#AB2781"/>
</g>
<g style="mix-blend-mode:multiply" opacity="0.5">
<path d="M187.361 114.046C187.361 114.046 185.641 114.406 185.241 114.656C184.851 114.906 184.691 116.366 180.911 117.546C177.131 118.726 174.721 118.736 174.721 118.736C174.721 118.736 176.151 119.966 181.621 119.626C187.091 119.286 187.901 115.776 187.931 115.466C187.961 115.156 187.341 114.036 187.341 114.036L187.361 114.046Z" fill="#AB2781"/>
</g>
<g style="mix-blend-mode:multiply" opacity="0.5">
<path d="M111.361 102.166C111.361 102.166 105.431 108.156 103.051 115.826C100.671 123.496 109.241 120.366 112.661 119.406C112.661 119.406 110.501 113.266 111.361 102.176V102.166Z" fill="#AB2781"/>
</g>
<g style="mix-blend-mode:multiply" opacity="0.5">
<path d="M151.611 102.076C151.611 102.076 157.401 108.576 159.171 115.826C160.941 123.076 151.551 119.856 149.881 118.956C149.881 118.956 153.201 112.646 151.611 102.076Z" fill="#AB2781"/>
</g>
<g style="mix-blend-mode:multiply" opacity="0.5">
<path d="M195.431 124.526C195.641 128.576 191.641 129.786 186.101 129.436C181.471 129.156 174.861 127.006 167.811 124.976C166.101 124.486 164.371 123.986 162.621 123.536C161.731 123.306 160.851 123.066 159.961 122.806C161.221 123.146 182.251 128.816 188.631 128.396C194.581 128.016 195.331 125.076 195.421 124.526H195.431Z" fill="#AB2781"/>
</g>
<g style="mix-blend-mode:multiply" opacity="0.3">
<path d="M76.0616 116.696C74.1716 117.516 70.0116 128.796 83.0916 126.916C91.7416 125.676 88.7816 117.366 87.8716 117.446C86.9616 117.536 82.4316 119.506 76.0616 116.686V116.696Z" fill="#AB2781"/>
</g>
<g style="mix-blend-mode:multiply" opacity="0.3">
<path d="M176.301 119.696C174.641 120.096 175.321 125.876 183.771 125.826C192.211 125.776 189.941 118.086 187.951 116.686C185.961 115.286 178.121 119.266 176.301 119.706V119.696Z" fill="#AB2781"/>
</g>
<g style="mix-blend-mode:multiply" opacity="0.5">
<path d="M100.401 123.626C98.8209 124.056 97.251 124.516 95.701 124.966C88.821 127.006 82.371 129.146 77.851 129.426C72.211 129.786 68.2109 128.456 68.7909 123.996C68.7909 123.996 69.3109 128.346 77.4409 128.386C85.3309 128.426 99.331 123.896 100.391 123.616L100.401 123.626Z" fill="#AB2781"/>
</g>
<path d="M199.06 115.142C207.684 115.181 214.923 117.29 215.933 122.978C216.019 123.453 215.918 126.264 215.916 126.751C215.862 133.11 208.262 138.213 198.918 138.171C189.574 138.129 182.033 132.922 182.074 126.562C182.076 126.159 182.042 122.671 182.094 122.279C182.991 116.481 190.296 115.091 199.047 115.142L199.06 115.142Z" fill="url(#paint27_radial_244_1693)"/>
<path d="M199.08 110.859C208.424 110.901 215.965 116.108 215.923 122.467C215.882 128.827 208.282 133.942 198.951 133.888C189.606 133.834 182.053 128.638 182.094 122.279C182.136 115.92 189.735 110.805 199.08 110.859Z" fill="url(#paint28_linear_244_1693)"/>
<g style="mix-blend-mode:soft-light">
<path d="M190.256 132.247L212.695 115.643L209.195 113.207L183.048 126.14C183.048 126.14 184.51 129.516 190.256 132.247Z" fill="#00B2FF"/>
</g>
<path d="M199.065 114.251C205.656 114.281 210.981 117.947 210.948 122.444C210.948 122.61 210.947 122.776 210.921 122.93C210.535 127.188 205.318 130.534 198.966 130.506C192.627 130.477 187.478 127.072 187.105 122.835C187.094 122.657 187.082 122.491 187.082 122.313C187.103 117.828 192.473 114.221 199.065 114.263L199.065 114.251Z" fill="url(#paint29_radial_244_1693)"/>
<path d="M199.059 115.296C205.373 115.325 210.535 118.706 210.92 122.931C210.535 127.189 205.317 130.535 198.966 130.507C192.627 130.478 187.477 127.073 187.105 122.836C187.528 118.602 192.72 115.268 199.059 115.308L199.059 115.296Z" fill="url(#paint30_linear_244_1693)"/>
<path d="M191.716 122.798C191.776 122.37 191.9 121.929 192.132 121.532C191.102 124.409 193.426 126.818 193.426 126.818C192.47 124.605 192.443 120.956 195.569 119.36C199.602 117.303 202.554 119.3 203.206 121.148C204.101 123.689 201.02 126.811 197.611 125.321C199.599 125.946 202.547 124.688 202.732 122.523C202.917 120.362 200.894 119.173 199.023 118.736C199.023 118.736 199.575 118.991 200.207 119.429C199.612 119.212 198.361 118.898 197.085 119.299C195.625 119.758 194.645 120.647 194.154 121.499C192.726 123.973 194.114 126.891 194.114 126.891C193.586 125.2 193.871 122.797 195.145 121.38C195.646 120.823 196.471 120.285 197.268 120.053C197.915 119.865 198.615 119.845 199.258 119.971C199.878 120.092 200.582 120.371 200.981 120.9C201.479 121.563 201.523 122.582 200.733 123.424C200.143 124.054 199.234 124.24 198.298 124.169C199.253 124.045 200.118 123.427 200.392 122.671C200.667 121.916 200.406 120.984 199.588 120.622C197.802 119.829 195.63 121.144 194.908 122.7C194.361 123.88 194.243 125.438 194.681 126.561C195.647 129.034 198.272 129.621 199.438 129.694C199.438 129.694 197.304 129.183 196.338 128.062C198.586 129.716 202.104 130.109 205.358 127.999C205.358 127.999 203.313 129.017 200.952 128.911C206.61 128.146 208.769 123.33 207.181 120.5C207.181 120.5 207.909 122.551 206.773 124.255C207.632 121.451 206.07 118.31 202.942 116.616C202.942 116.616 206.738 119.627 205.703 123.225C205.109 125.286 203.578 126.523 201.826 127.188C201.375 127.359 200.951 127.433 200.574 127.471C202.93 126.798 205.313 124.722 205.409 122.388C205.582 120.656 204.866 118.986 203.331 117.73C202.136 116.753 200.391 116.144 198.642 116.033C197.478 115.959 196.402 116.169 195.259 116.38C195.259 116.38 197.346 115.993 198.746 116.409C195.673 116.222 192.186 117.523 190.456 120.606C190.456 120.606 191.5 119.15 193.317 118.249C190.085 120.861 189.403 126.293 194.627 129.331C194.627 129.331 191.22 126.312 191.715 122.799L191.716 122.798ZM196.497 124.424C196.4 124.422 196.329 124.356 196.337 124.277L196.348 124.18C196.357 124.101 196.285 124.035 196.188 124.033L195.885 124.026C195.788 124.024 195.716 123.958 195.725 123.88C195.734 123.801 195.82 123.739 195.917 123.741L196.22 123.748C196.317 123.75 196.403 123.688 196.412 123.609L196.423 123.512C196.432 123.433 196.518 123.371 196.615 123.373C196.712 123.375 196.784 123.441 196.775 123.52L196.764 123.617C196.755 123.696 196.827 123.762 196.924 123.764L197.227 123.771C197.324 123.773 197.396 123.839 197.387 123.917C197.379 123.996 197.292 124.058 197.196 124.056L196.892 124.049C196.795 124.047 196.709 124.109 196.7 124.188L196.689 124.285C196.68 124.364 196.594 124.426 196.497 124.424ZM195.32 125.3C195.286 125.299 195.261 125.276 195.264 125.248L195.268 125.214C195.271 125.187 195.246 125.164 195.212 125.163L195.107 125.161C195.072 125.16 195.047 125.137 195.051 125.109C195.054 125.082 195.084 125.06 195.118 125.061L195.223 125.063C195.258 125.064 195.287 125.042 195.291 125.015L195.294 124.981C195.297 124.953 195.327 124.932 195.362 124.932C195.396 124.933 195.421 124.956 195.417 124.984L195.414 125.018C195.411 125.045 195.435 125.068 195.47 125.069L195.575 125.071C195.61 125.072 195.634 125.095 195.631 125.123C195.628 125.15 195.598 125.172 195.564 125.171L195.458 125.169C195.424 125.168 195.394 125.19 195.391 125.217L195.388 125.251C195.384 125.279 195.355 125.3 195.32 125.3ZM205.135 126.181C205.101 126.18 205.076 126.157 205.079 126.13L205.083 126.096C205.086 126.068 205.061 126.045 205.027 126.045L204.921 126.042C204.887 126.041 204.862 126.019 204.865 125.991C204.868 125.963 204.898 125.942 204.932 125.942L205.038 125.945C205.072 125.945 205.102 125.924 205.105 125.896L205.109 125.862C205.112 125.835 205.142 125.813 205.176 125.814C205.21 125.815 205.235 125.837 205.232 125.865L205.228 125.899C205.225 125.927 205.25 125.95 205.284 125.95L205.39 125.953C205.424 125.953 205.449 125.976 205.446 126.004C205.443 126.032 205.413 126.053 205.379 126.053L205.273 126.05C205.239 126.049 205.209 126.071 205.206 126.099L205.202 126.133C205.199 126.16 205.169 126.182 205.135 126.181ZM200.952 128.91C200.897 128.908 200.841 128.904 200.786 128.901C200.862 128.89 200.937 128.878 201.012 128.865L200.952 128.91ZM197.423 127.721C197.457 127.722 197.482 127.744 197.479 127.772L197.475 127.806C197.472 127.834 197.497 127.856 197.531 127.857L197.637 127.86C197.671 127.86 197.696 127.883 197.693 127.911C197.69 127.939 197.66 127.96 197.626 127.96L197.52 127.957C197.486 127.956 197.456 127.978 197.453 128.006L197.449 128.039C197.446 128.067 197.416 128.089 197.382 128.088C197.348 128.087 197.323 128.064 197.326 128.037L197.33 128.003C197.333 127.975 197.308 127.952 197.274 127.952L197.168 127.949C197.134 127.948 197.109 127.926 197.112 127.898C197.115 127.87 197.145 127.848 197.179 127.849L197.285 127.852C197.319 127.852 197.349 127.831 197.352 127.803L197.356 127.769C197.359 127.742 197.389 127.72 197.423 127.721ZM198.687 126.797C198.74 126.798 198.779 126.835 198.775 126.878L198.769 126.931C198.764 126.974 198.803 127.01 198.856 127.011L199.023 127.015C199.076 127.016 199.115 127.052 199.11 127.096C199.106 127.139 199.058 127.173 199.005 127.172L198.839 127.168C198.785 127.167 198.738 127.2 198.734 127.244L198.728 127.297C198.723 127.341 198.676 127.374 198.622 127.373C198.569 127.372 198.53 127.336 198.535 127.293L198.541 127.239C198.546 127.196 198.507 127.16 198.453 127.159L198.287 127.155C198.233 127.154 198.194 127.118 198.199 127.075C198.204 127.032 198.251 126.998 198.304 126.999L198.471 127.003C198.524 127.004 198.571 126.97 198.576 126.927L198.582 126.873C198.587 126.83 198.634 126.796 198.687 126.797ZM204.309 122.342C204.356 122.343 204.39 122.374 204.386 122.412L204.38 122.458C204.376 122.496 204.411 122.527 204.457 122.528L204.602 122.531C204.649 122.532 204.683 122.564 204.679 122.601C204.674 122.639 204.633 122.669 204.587 122.667L204.441 122.664C204.395 122.663 204.354 122.693 204.35 122.73L204.345 122.777C204.34 122.815 204.299 122.844 204.253 122.843C204.207 122.842 204.173 122.81 204.177 122.773L204.182 122.727C204.186 122.689 204.152 122.658 204.106 122.657L203.96 122.653C203.914 122.652 203.88 122.621 203.884 122.583C203.888 122.546 203.929 122.516 203.976 122.517L204.121 122.52C204.168 122.521 204.208 122.491 204.213 122.454L204.218 122.408C204.222 122.37 204.263 122.341 204.309 122.342ZM204.525 121.361C204.559 121.362 204.584 121.385 204.581 121.413L204.577 121.446C204.574 121.474 204.599 121.497 204.633 121.498L204.739 121.5C204.773 121.501 204.798 121.524 204.795 121.552C204.792 121.579 204.762 121.601 204.728 121.6L204.622 121.598C204.588 121.597 204.558 121.618 204.555 121.646L204.551 121.68C204.548 121.708 204.518 121.729 204.484 121.729C204.45 121.728 204.425 121.705 204.428 121.677L204.432 121.643C204.435 121.616 204.41 121.593 204.376 121.592L204.27 121.59C204.236 121.589 204.211 121.566 204.214 121.538C204.217 121.511 204.247 121.489 204.281 121.49L204.387 121.492C204.421 121.493 204.451 121.471 204.454 121.444L204.458 121.41C204.461 121.382 204.491 121.361 204.525 121.361ZM196.327 117.67C196.293 117.669 196.268 117.646 196.271 117.618L196.275 117.585C196.278 117.557 196.253 117.534 196.219 117.533L196.113 117.531C196.079 117.53 196.054 117.507 196.057 117.48C196.06 117.452 196.09 117.43 196.125 117.431L196.23 117.433C196.264 117.434 196.294 117.413 196.297 117.385L196.301 117.351C196.304 117.323 196.334 117.302 196.368 117.303C196.402 117.303 196.427 117.326 196.424 117.354L196.42 117.388C196.417 117.415 196.442 117.438 196.476 117.439L196.582 117.441C196.616 117.442 196.641 117.465 196.638 117.493C196.635 117.521 196.605 117.542 196.571 117.541L196.465 117.539C196.431 117.538 196.401 117.56 196.398 117.587L196.394 117.621C196.391 117.649 196.361 117.671 196.327 117.67ZM201.753 118.111L201.757 118.077C201.76 118.049 201.735 118.026 201.701 118.026L201.595 118.023C201.561 118.022 201.536 118 201.539 117.972C201.542 117.944 201.572 117.923 201.606 117.923L201.712 117.926C201.746 117.926 201.776 117.905 201.779 117.877L201.783 117.843C201.786 117.816 201.816 117.794 201.85 117.795C201.884 117.796 201.909 117.818 201.906 117.846L201.902 117.88C201.899 117.908 201.924 117.931 201.958 117.931L202.064 117.934C202.098 117.934 202.123 117.957 202.12 117.985C202.117 118.013 202.087 118.034 202.053 118.034L201.947 118.031C201.913 118.03 201.883 118.052 201.88 118.08L201.876 118.114C201.873 118.141 201.843 118.163 201.809 118.162C201.775 118.161 201.75 118.138 201.753 118.111ZM194.979 118.576C194.926 118.575 194.887 118.539 194.892 118.495L194.897 118.442C194.902 118.399 194.863 118.363 194.81 118.362L194.643 118.358C194.59 118.357 194.551 118.321 194.556 118.277C194.56 118.234 194.607 118.2 194.661 118.201L194.827 118.205C194.881 118.206 194.928 118.172 194.933 118.129L194.938 118.076C194.943 118.032 194.99 117.999 195.044 118C195.097 118.001 195.136 118.037 195.131 118.08L195.125 118.134C195.12 118.177 195.159 118.213 195.213 118.214L195.379 118.218C195.433 118.219 195.472 118.255 195.467 118.298C195.462 118.342 195.415 118.375 195.362 118.374L195.195 118.37C195.142 118.369 195.095 118.403 195.09 118.446L195.084 118.5C195.079 118.543 195.032 118.577 194.979 118.576Z" fill="url(#paint31_radial_244_1693)"/>
<path d="M198.113 112.361C198.141 111.756 198.762 111.284 199.519 111.311C200.277 111.338 200.868 111.851 200.84 112.456C200.812 113.061 200.191 113.533 199.434 113.506C198.676 113.478 198.085 112.966 198.113 112.361Z" fill="url(#paint32_radial_244_1693)"/>
<path d="M198.302 112.528C198.317 112.006 198.862 111.616 199.506 111.631C200.15 111.646 200.653 112.087 200.638 112.609C200.623 113.131 200.078 113.52 199.434 113.506C198.79 113.479 198.287 113.05 198.302 112.528Z" fill="url(#paint33_linear_244_1693)"/>
<path d="M183.801 121.684C183.829 121.079 184.45 120.607 185.208 120.634C185.965 120.661 186.556 121.174 186.528 121.779C186.5 122.384 185.879 122.856 185.122 122.829C184.364 122.801 183.773 122.289 183.801 121.684Z" fill="url(#paint34_radial_244_1693)"/>
<path d="M183.988 121.838C184.003 121.316 184.548 120.927 185.192 120.942C185.836 120.956 186.339 121.398 186.324 121.92C186.309 122.442 185.765 122.831 185.121 122.816C184.477 122.789 183.973 122.36 183.988 121.838Z" fill="url(#paint35_linear_244_1693)"/>
<path d="M212.023 121.833C212.051 121.228 212.672 120.757 213.429 120.784C214.187 120.811 214.778 121.324 214.75 121.929C214.722 122.534 214.101 123.005 213.344 122.978C212.586 122.951 211.995 122.438 212.023 121.833Z" fill="url(#paint36_radial_244_1693)"/>
<path d="M212.225 122C212.24 121.478 212.784 121.089 213.428 121.104C214.072 121.131 214.575 121.56 214.56 122.082C214.545 122.604 214.001 122.993 213.357 122.979C212.713 122.964 212.21 122.522 212.225 122Z" fill="url(#paint37_linear_244_1693)"/>
<path d="M197.998 132.092C198.026 131.487 198.647 131.015 199.405 131.042C200.162 131.07 200.753 131.582 200.725 132.187C200.697 132.792 200.077 133.264 199.319 133.237C198.561 133.21 197.97 132.697 197.998 132.092Z" fill="url(#paint38_radial_244_1693)"/>
<path d="M198.187 132.259C198.202 131.737 198.747 131.348 199.391 131.363C200.035 131.389 200.538 131.819 200.523 132.341C200.508 132.863 199.963 133.252 199.319 133.237C198.675 133.222 198.172 132.781 198.187 132.259Z" fill="url(#paint39_linear_244_1693)"/>
<g style="mix-blend-mode:soft-light">
<path d="M190.237 136.47L190.256 132.246C190.256 132.246 186.448 131.102 183.046 126.554L183.204 130.755C183.204 130.755 186.202 135.242 190.237 136.47Z" fill="#00B2FF"/>
</g>
<path d="M188.82 131.53C189.198 131.698 187.431 128.617 186.108 127.958C184.785 127.299 183.878 126.88 183.687 127.188C183.496 127.495 186.463 130.511 188.82 131.53Z" fill="white"/>
<path d="M212.505 115.949C212.815 117.065 209.847 114.347 209.975 114.063C210.103 113.778 212.219 114.939 212.505 115.949Z" fill="white"/>
<path d="M178.063 118C178.063 118 177.69 117.834 177.563 117.5C178.302 117.857 172.332 112.509 173.096 112.828C173.096 112.828 174.73 110.674 179.553 110.448C184.376 110.222 187.338 108.198 190.786 108.253C192.558 108.272 192.916 112.449 186.389 115.288C186.389 115.288 181.563 118 178.063 118Z" fill="url(#paint40_linear_244_1693)"/>
<g style="mix-blend-mode:multiply" opacity="0.3">
<path d="M183.398 117.329C183.46 117.829 185.079 115.786 185.053 115.786C190.366 113.495 190.907 112.093 191.414 111.257C190.737 111.756 191.114 111.572 188.774 113.168C186.246 114.071 184.81 114.993 184.81 114.993L183.398 117.329Z" fill="#AB2781"/>
</g>
<path d="M66.0598 115.142C74.6844 115.181 81.9232 117.29 82.933 122.978C83.0192 123.453 82.9182 126.264 82.916 126.751C82.862 133.11 75.2623 138.213 65.918 138.171C56.5737 138.129 49.0332 132.922 49.0745 126.563C49.0763 126.159 49.0415 122.671 49.0938 122.279C49.9913 116.481 57.2964 115.091 66.0472 115.142L66.0598 115.142Z" fill="url(#paint41_radial_244_1693)"/>
<path d="M66.0797 110.859C75.424 110.901 82.9645 116.108 82.9232 122.467C82.8819 128.827 75.2822 133.942 65.9505 133.888C56.6062 133.834 49.053 128.639 49.0944 122.279C49.1357 115.92 56.7354 110.805 66.0797 110.859Z" fill="url(#paint42_linear_244_1693)"/>
<g style="mix-blend-mode:soft-light">
<path d="M57.2563 132.247L79.695 115.643L76.1955 113.207L50.0482 126.14C50.0482 126.14 51.5104 129.516 57.2563 132.247Z" fill="#00B2FF"/>
</g>
<path d="M66.0647 114.251C72.6562 114.281 77.9812 117.948 77.9483 122.444C77.9476 122.61 77.9468 122.776 77.9209 122.931C77.5354 127.188 72.3177 130.534 65.9661 130.506C59.6271 130.477 54.4777 127.072 54.1054 122.835C54.0936 122.657 54.0817 122.491 54.0825 122.313C54.1027 117.828 59.4732 114.222 66.0646 114.263L66.0647 114.251Z" fill="url(#paint43_radial_244_1693)"/>
<path d="M66.0594 115.296C72.3732 115.325 77.5353 118.706 77.9203 122.932C77.5349 127.189 72.3171 130.535 65.9655 130.507C59.6265 130.478 54.4771 127.073 54.1048 122.836C54.528 118.602 59.7204 115.268 66.0594 115.308L66.0594 115.296Z" fill="url(#paint44_linear_244_1693)"/>
<path d="M73.4263 122.67C73.3802 123.099 73.2709 123.545 73.0522 123.949C73.9862 121.04 71.583 118.709 71.583 118.709C72.6118 120.889 72.7616 124.535 69.6904 126.234C65.7283 128.426 62.711 126.529 61.9982 124.703C61.0182 122.193 63.9929 118.97 67.45 120.346C65.442 119.787 62.5381 121.143 62.4255 123.313C62.3134 125.479 64.3743 126.599 66.2594 126.974C66.2594 126.974 65.6988 126.737 65.0529 126.321C65.6544 126.518 66.9156 126.79 68.1774 126.346C69.6207 125.839 70.5707 124.917 71.0331 124.05C72.3778 121.529 70.8922 118.66 70.8922 118.66C71.4772 120.332 71.2719 122.743 70.0463 124.202C69.5641 124.775 68.7581 125.341 67.9687 125.599C67.3291 125.809 66.6298 125.852 65.9825 125.748C65.359 125.648 64.6464 125.392 64.2301 124.876C63.7102 124.231 63.6319 123.214 64.3932 122.345C64.9621 121.697 65.8644 121.481 66.802 121.52C65.8517 121.675 65.0082 122.323 64.759 123.087C64.5097 123.851 64.8017 124.773 65.6317 125.108C67.4428 125.841 69.5699 124.454 70.2389 122.875C70.7464 121.677 70.8126 120.116 70.3369 119.008C69.2887 116.569 66.646 116.07 65.4781 116.036C65.4781 116.036 67.6283 116.475 68.6312 117.563C66.3283 115.986 62.7995 115.71 59.6182 117.928C59.6182 117.928 61.628 116.842 63.9907 116.87C58.3614 117.823 56.3652 122.708 58.0463 125.484C58.0463 125.484 57.2504 123.458 58.329 121.718C57.564 124.548 59.2301 127.635 62.4133 129.223C62.4133 129.223 58.5186 126.342 59.4331 122.711C59.9573 120.631 61.4467 119.344 63.1753 118.62C63.6204 118.434 64.0417 118.347 64.4172 118.296C62.0843 119.048 59.7723 121.202 59.755 123.537C59.6396 125.275 60.4107 126.919 61.9873 128.124C63.2145 129.06 64.9783 129.61 66.7301 129.663C67.8961 129.698 68.9641 129.452 70.0995 129.203C70.0995 129.203 68.0265 129.659 66.6132 129.29C69.6916 129.374 73.1327 127.958 74.7587 124.819C74.7587 124.819 73.7643 126.309 71.978 127.27C75.1208 124.551 75.621 119.099 70.2987 116.238C70.2987 116.238 73.8047 119.141 73.4269 122.669L73.4263 122.67ZM68.5931 121.205C68.6902 121.204 68.7641 121.267 68.7579 121.346L68.7503 121.444C68.7441 121.523 68.8181 121.586 68.9151 121.585L69.2185 121.582C69.3156 121.581 69.3895 121.644 69.3833 121.723C69.3772 121.802 69.2932 121.867 69.1962 121.868L68.8927 121.871C68.7957 121.872 68.7117 121.938 68.7055 122.016L68.6979 122.114C68.6917 122.193 68.6077 122.258 68.5107 122.259C68.4137 122.26 68.3397 122.197 68.3459 122.118L68.3535 122.02C68.3597 121.941 68.2858 121.878 68.1887 121.879L67.8853 121.882C67.7883 121.883 67.7143 121.82 67.7205 121.741C67.7267 121.662 67.8107 121.597 67.9077 121.596L68.2111 121.592C68.3082 121.591 68.3922 121.526 68.3983 121.447L68.406 121.35C68.4121 121.271 68.4961 121.206 68.5931 121.205ZM69.7402 120.29C69.7744 120.29 69.8 120.312 69.7978 120.34L69.7952 120.374C69.793 120.401 69.8186 120.423 69.8528 120.423L69.9585 120.422C69.9927 120.422 70.0184 120.444 70.0162 120.471C70.014 120.499 69.9849 120.522 69.9507 120.522L69.845 120.523C69.8108 120.524 69.7817 120.546 69.7795 120.574L69.7768 120.608C69.7747 120.636 69.7456 120.658 69.7114 120.659C69.6772 120.659 69.6515 120.637 69.6537 120.609L69.6564 120.575C69.6585 120.548 69.6329 120.526 69.5987 120.526L69.493 120.527C69.4588 120.527 69.4332 120.505 69.4354 120.478C69.4375 120.45 69.4666 120.427 69.5008 120.427L69.6066 120.426C69.6408 120.425 69.6699 120.403 69.672 120.375L69.6747 120.341C69.6769 120.313 69.706 120.291 69.7402 120.29ZM59.9017 119.737C59.9359 119.737 59.9615 119.759 59.9594 119.787L59.9567 119.821C59.9545 119.849 59.9802 119.871 60.0144 119.87L60.1201 119.869C60.1543 119.869 60.1799 119.891 60.1777 119.919C60.1755 119.946 60.1464 119.969 60.1122 119.969L60.0065 119.97C59.9723 119.971 59.9432 119.993 59.941 120.021L59.9384 120.055C59.9362 120.083 59.9071 120.105 59.8729 120.106C59.8387 120.106 59.8131 120.084 59.8153 120.056L59.8179 120.023C59.8201 119.995 59.7945 119.973 59.7603 119.973L59.6546 119.974C59.6204 119.975 59.5947 119.953 59.5969 119.925C59.5991 119.897 59.6282 119.874 59.6624 119.874L59.7681 119.873C59.8023 119.873 59.8314 119.85 59.8336 119.822L59.8362 119.788C59.8384 119.76 59.8675 119.738 59.9017 119.737ZM63.9912 116.87C64.0465 116.871 64.1017 116.872 64.1568 116.874C64.0819 116.887 64.0074 116.901 63.9323 116.917L63.9912 116.87ZM67.5579 117.941C67.5237 117.941 67.498 117.919 67.5002 117.891L67.5029 117.857C67.505 117.83 67.4794 117.808 67.4452 117.808L67.3395 117.809C67.3053 117.81 67.2797 117.788 67.2819 117.76C67.284 117.732 67.3131 117.709 67.3473 117.709L67.453 117.708C67.4872 117.707 67.5164 117.685 67.5185 117.657L67.5212 117.623C67.5234 117.595 67.5525 117.573 67.5867 117.572C67.6209 117.572 67.6465 117.594 67.6443 117.622L67.6417 117.656C67.6395 117.684 67.6651 117.706 67.6993 117.705L67.805 117.704C67.8392 117.704 67.8648 117.726 67.8627 117.753C67.8605 117.781 67.8314 117.804 67.7972 117.804L67.6915 117.805C67.6573 117.806 67.6282 117.828 67.626 117.856L67.6233 117.89C67.6212 117.918 67.5921 117.94 67.5579 117.941ZM66.3254 118.906C66.272 118.907 66.2318 118.872 66.2352 118.829L66.2394 118.775C66.2428 118.732 66.202 118.697 66.1491 118.698L65.9825 118.699C65.929 118.7 65.8888 118.666 65.8922 118.622C65.8956 118.579 65.9419 118.543 65.9947 118.543L66.1614 118.541C66.2149 118.54 66.2605 118.505 66.2639 118.461L66.2681 118.408C66.2715 118.364 66.3172 118.329 66.3706 118.328C66.4241 118.328 66.4643 118.363 66.4609 118.406L66.4567 118.459C66.4533 118.503 66.4935 118.537 66.547 118.537L66.7136 118.535C66.7671 118.534 66.8072 118.569 66.8039 118.612C66.8005 118.655 66.7542 118.691 66.7013 118.692L66.5347 118.694C66.4812 118.694 66.4356 118.729 66.4322 118.773L66.428 118.827C66.4246 118.87 66.3783 118.906 66.3254 118.906ZM60.8552 123.547C60.8085 123.548 60.7736 123.517 60.7766 123.48L60.7802 123.433C60.7832 123.395 60.7476 123.365 60.7016 123.366L60.5561 123.367C60.5095 123.368 60.4746 123.337 60.4775 123.3C60.4804 123.263 60.5208 123.231 60.5668 123.231L60.7123 123.229C60.7589 123.229 60.7987 123.197 60.8016 123.16L60.8052 123.113C60.8082 123.075 60.8485 123.045 60.8945 123.044C60.9412 123.044 60.9761 123.074 60.9731 123.112L60.9695 123.158C60.9665 123.196 61.0021 123.226 61.0481 123.226L61.1936 123.224C61.2402 123.224 61.2751 123.254 61.2722 123.291C61.2693 123.329 61.2289 123.36 61.1829 123.361L61.0374 123.362C60.9908 123.363 60.951 123.394 60.9481 123.431L60.9445 123.478C60.9415 123.516 60.9012 123.547 60.8552 123.547ZM60.6724 124.534C60.6382 124.535 60.6126 124.513 60.6147 124.485L60.6174 124.451C60.6196 124.423 60.5939 124.401 60.5597 124.401L60.454 124.402C60.4198 124.403 60.3942 124.381 60.3964 124.353C60.3986 124.325 60.4277 124.303 60.4619 124.302L60.5676 124.301C60.6018 124.301 60.6309 124.278 60.6331 124.25L60.6357 124.217C60.6379 124.189 60.667 124.166 60.7012 124.166C60.7354 124.165 60.761 124.187 60.7588 124.215L60.7562 124.249C60.754 124.277 60.7796 124.299 60.8138 124.299L60.9195 124.297C60.9537 124.297 60.9794 124.319 60.9772 124.347C60.975 124.375 60.9459 124.397 60.9117 124.398L60.806 124.399C60.7718 124.399 60.7427 124.422 60.7405 124.449L60.7379 124.483C60.7357 124.511 60.7066 124.534 60.6724 124.534ZM68.989 127.949C69.0232 127.949 69.0489 127.971 69.0467 127.999L69.044 128.033C69.0419 128.061 69.0675 128.083 69.1017 128.082L69.2074 128.081C69.2416 128.081 69.2672 128.103 69.265 128.131C69.2629 128.158 69.2338 128.181 69.1996 128.181L69.0938 128.182C69.0596 128.183 69.0305 128.205 69.0284 128.233L69.0257 128.267C69.0235 128.295 68.9944 128.318 68.9602 128.318C68.926 128.318 68.9004 128.296 68.9026 128.268L68.9052 128.235C68.9074 128.207 68.8818 128.185 68.8476 128.185L68.7419 128.186C68.7077 128.187 68.6821 128.165 68.6842 128.137C68.6864 128.109 68.7155 128.086 68.7497 128.086L68.8554 128.085C68.8896 128.085 68.9187 128.062 68.9209 128.034L68.9236 128C68.9257 127.972 68.9548 127.95 68.989 127.949ZM63.5515 127.69L63.5489 127.724C63.5467 127.752 63.5723 127.774 63.6065 127.774L63.7122 127.772C63.7464 127.772 63.7721 127.794 63.7699 127.822C63.7677 127.85 63.7386 127.872 63.7044 127.873L63.5987 127.874C63.5645 127.874 63.5354 127.897 63.5332 127.925L63.5305 127.958C63.5284 127.986 63.4993 128.009 63.4651 128.009C63.4309 128.01 63.4052 127.988 63.4074 127.96L63.4101 127.926C63.4123 127.898 63.3866 127.876 63.3524 127.876L63.2467 127.878C63.2125 127.878 63.1869 127.856 63.1891 127.828C63.1912 127.8 63.2203 127.778 63.2545 127.777L63.3603 127.776C63.3945 127.776 63.4236 127.753 63.4257 127.725L63.4284 127.692C63.4306 127.664 63.4597 127.641 63.4939 127.641C63.5281 127.64 63.5537 127.662 63.5515 127.69ZM70.306 126.999C70.3595 126.998 70.3997 127.033 70.3963 127.076L70.3921 127.13C70.3887 127.174 70.4289 127.208 70.4823 127.207L70.649 127.206C70.7025 127.205 70.7427 127.239 70.7393 127.283C70.7359 127.327 70.6902 127.362 70.6367 127.362L70.4701 127.364C70.4166 127.365 70.3709 127.401 70.3676 127.444L70.3634 127.497C70.36 127.541 70.3143 127.576 70.2608 127.577C70.2074 127.577 70.1672 127.543 70.1706 127.499L70.1748 127.446C70.1782 127.402 70.138 127.368 70.0845 127.368L69.9179 127.37C69.8644 127.371 69.8242 127.336 69.8276 127.293C69.831 127.249 69.8767 127.214 69.9301 127.213L70.0968 127.212C70.1503 127.211 70.196 127.175 70.1993 127.132L70.2035 127.078C70.2069 127.035 70.2532 127 70.306 126.999Z" fill="url(#paint45_radial_244_1693)"/>
<path d="M65.1128 112.361C65.1408 111.756 65.7617 111.284 66.5192 111.311C67.2768 111.338 67.868 111.851 67.84 112.456C67.812 113.061 67.1911 113.533 66.4336 113.506C65.676 113.479 65.0848 112.966 65.1128 112.361Z" fill="url(#paint46_radial_244_1693)"/>
<path d="M65.302 112.528C65.317 112.006 65.8618 111.617 66.5057 111.631C67.1497 111.646 67.6528 112.087 67.6378 112.609C67.6228 113.131 67.0781 113.52 66.4341 113.506C65.7902 113.479 65.2871 113.05 65.302 112.528Z" fill="url(#paint47_linear_244_1693)"/>
<path d="M50.8011 121.684C50.8291 121.079 51.45 120.607 52.2075 120.634C52.9651 120.661 53.5563 121.174 53.5283 121.779C53.5003 122.384 52.8794 122.856 52.1219 122.829C51.3643 122.802 50.7731 122.289 50.8011 121.684Z" fill="url(#paint48_radial_244_1693)"/>
<path d="M50.9885 121.838C51.0035 121.316 51.5482 120.927 52.1922 120.942C52.8361 120.957 53.3392 121.398 53.3242 121.92C53.3093 122.442 52.7645 122.831 52.1206 122.816C51.4767 122.789 50.9735 122.36 50.9885 121.838Z" fill="url(#paint49_linear_244_1693)"/>
<path d="M79.023 121.833C79.051 121.228 79.6719 120.757 80.4294 120.784C81.187 120.811 81.7781 121.324 81.7502 121.929C81.7222 122.534 81.1013 123.006 80.3437 122.978C79.5862 122.951 78.995 122.438 79.023 121.833Z" fill="url(#paint50_radial_244_1693)"/>
<path d="M79.2246 122.001C79.2396 121.479 79.7843 121.09 80.4283 121.104C81.0722 121.131 81.5753 121.56 81.5603 122.082C81.5454 122.604 81.0006 122.993 80.3567 122.979C79.7127 122.964 79.2096 122.523 79.2246 122.001Z" fill="url(#paint51_linear_244_1693)"/>
<path d="M64.9982 132.092C65.0262 131.487 65.6471 131.015 66.4046 131.043C67.1622 131.07 67.7534 131.583 67.7254 132.188C67.6974 132.792 67.0765 133.264 66.319 133.237C65.5614 133.21 64.9702 132.697 64.9982 132.092Z" fill="url(#paint52_radial_244_1693)"/>
<path d="M65.1871 132.259C65.2021 131.737 65.7468 131.348 66.3908 131.363C67.0347 131.39 67.5378 131.819 67.5228 132.341C67.5079 132.863 66.9631 133.252 66.3192 133.237C65.6752 133.223 65.1721 132.781 65.1871 132.259Z" fill="url(#paint53_linear_244_1693)"/>
<g style="mix-blend-mode:soft-light">
<path d="M57.2369 136.47L57.256 132.246C57.256 132.246 53.4476 131.102 50.046 126.554L50.2038 130.755C50.2038 130.755 53.2016 135.242 57.2369 136.47Z" fill="#00B2FF"/>
</g>
<path d="M55.8196 131.53C56.1977 131.698 54.4311 128.617 53.1082 127.958C51.7852 127.3 50.8779 126.88 50.6871 127.188C50.4963 127.496 53.4628 130.511 55.8196 131.53Z" fill="white"/>
<path d="M79.5046 115.949C79.8153 117.065 76.8474 114.347 76.975 114.063C77.1025 113.779 79.2188 114.939 79.5046 115.949Z" fill="white"/>
<path d="M86.0622 117.5C86.0622 117.5 87.4351 116.834 87.5622 116.5C86.8223 116.857 92.1459 112.509 91.3821 112.828C91.3821 112.828 89.7481 110.674 84.9254 110.448C80.1026 110.222 77.1398 108.198 73.6918 108.253C71.9197 108.272 71.5622 112.449 78.0892 115.288C78.0892 115.288 82.0622 117.5 86.0622 117.5Z" fill="url(#paint54_linear_244_1693)"/>
<g style="mix-blend-mode:multiply" opacity="0.3">
<path d="M81.0798 117.329C81.0187 117.829 79.3991 115.786 79.425 115.786C74.1124 113.495 73.5712 112.093 73.0643 111.257C73.7413 111.756 73.3645 111.572 75.7041 113.168C78.2326 114.071 79.6684 114.993 79.6684 114.993L81.0798 117.329Z" fill="#AB2781"/>
</g>
<g style="mix-blend-mode:multiply" opacity="0.5">
<path d="M105.761 130.986C105.761 130.986 105.741 131.026 105.731 131.046C105.731 131.046 105.731 131.016 105.731 131.006L105.751 130.986H105.761Z" fill="#AB2781"/>
</g>
<g style="mix-blend-mode:multiply" opacity="0.5">
<path d="M130.371 150.626C130.101 151.786 124.081 154.656 124.081 154.656L124.471 153.206C121.221 140.946 109.631 137.166 108.381 137.496C107.131 137.836 106.351 139.706 106.351 139.706C105.061 136.896 104.901 133.956 105.561 131.616C105.231 134.126 111.001 135.636 116.011 139.736C121.431 144.176 123.241 148.556 126.881 149.006C130.341 149.436 123.431 138.606 122.731 137.506C127.041 143.486 130.541 149.896 130.381 150.626H130.371Z" fill="#AB2781"/>
</g>
<g style="mix-blend-mode:multiply" opacity="0.5">
<path d="M156.521 139.716C156.521 139.716 155.751 137.836 154.501 137.506C153.251 137.166 141.661 140.956 138.411 153.216L138.681 154.666C138.681 154.666 132.771 151.796 132.511 150.636C132.361 149.976 135.241 144.606 139.021 139.136C138.841 139.496 135.621 146.136 136.491 147.236C137.371 148.376 140.071 146.266 143.861 141.846C147.641 137.426 157.441 134.606 157.441 132.126C157.951 134.386 157.721 137.106 156.521 139.716Z" fill="#AB2781"/>
</g>
<g style="mix-blend-mode:multiply" opacity="0.3">
<path d="M113.571 127.766C117.071 129.066 126.801 139.626 131.101 140.076C135.401 140.526 145.461 129.646 148.461 128.316C148.461 128.316 136.671 139.656 132.511 150.626H130.371C130.371 150.626 121.481 134.976 113.571 127.766Z" fill="#C72781"/>
</g>
<g style="mix-blend-mode:multiply" opacity="0.2">
<path d="M95.5913 190.046C101.311 189.736 107.761 178.726 110.661 174.796C113.561 170.866 117.711 180.136 117.101 182.156C116.481 184.176 111.161 184.736 108.801 185.526C106.431 186.316 100.831 190.076 95.6013 190.046H95.5913Z" fill="#C22781"/>
</g>
<g style="mix-blend-mode:multiply" opacity="0.2">
<path d="M145.841 182.906C145.841 182.906 145.521 174.096 150.101 173.866C154.681 173.636 157.501 181.246 162.121 185.606C166.741 189.976 170.731 190.306 170.731 190.306C170.731 190.306 161.381 188.976 158.501 187.706C155.611 186.436 150.741 184.846 148.721 184.056C146.701 183.266 145.841 182.896 145.841 182.896V182.906Z" fill="#C22781"/>
</g>
<path d="M83.4212 177.526C80.8412 182.986 86.3312 184.986 95.5912 183.106C104.851 181.226 110.661 172.716 110.661 172.716C110.661 172.716 104.721 167.606 96.7212 168.336C88.7212 169.066 83.4212 177.536 83.4212 177.536V177.526Z" fill="#181E36"/>
<path d="M152.231 171.426C151.551 172.026 158.351 182.366 165.951 183.806C173.541 185.246 180.421 183.556 180.841 182.886C181.261 182.216 176.461 171.086 171.971 169.116C167.481 167.156 155.191 168.836 152.231 171.426Z" fill="#181E36"/>
<g style="mix-blend-mode:overlay">
<path d="M150.851 163.786C149.881 165.536 146.121 161.316 149.331 158.586C150.001 158.016 152.111 161.516 150.851 163.786Z" fill="white"/>
</g>
<g style="mix-blend-mode:overlay">
<path d="M160.961 174.736C160.311 177.106 165.131 179.006 165.951 176.026C166.771 173.046 161.151 174.056 160.961 174.736Z" fill="white"/>
</g>
<g style="mix-blend-mode:overlay">
<path d="M97.4813 179.366C96.4713 177.146 100.221 174.816 101.731 176.926C103.251 179.036 98.2813 181.136 97.4813 179.366Z" fill="white"/>
</g>
<g style="mix-blend-mode:overlay">
<path d="M111.651 158.896C109.841 160.616 111.591 162.576 112.661 161.626C113.731 160.676 113.221 157.406 111.651 158.896Z" fill="white"/>
</g>
<g style="mix-blend-mode:overlay">
<path d="M122.101 117.136C117.471 118.006 118.241 123.766 120.601 125.106C122.961 126.456 124.621 116.656 122.101 117.136Z" fill="white"/>
</g>
<path d="M144.561 20.6659C142.741 20.7559 142.761 24.0359 145.461 24.9359C148.161 25.8359 146.861 20.5559 144.561 20.6659Z" fill="white"/>
<path d="M124.561 33.2759C121.321 33.9659 123.381 37.4859 127.171 37.1559C130.961 36.8159 126.921 32.7759 124.561 33.2759Z" fill="white"/>
<g style="mix-blend-mode:soft-light" opacity="0.5">
<path d="M99.9013 60.1458C94.3113 63.7958 101.941 79.0558 114.111 77.0958C126.281 75.1358 111.781 52.3958 99.9013 60.1458Z" fill="white"/>
</g>
<path d="M106.911 42.1259C105.221 42.7459 108.091 46.8959 109.861 46.1759C111.631 45.4459 109.611 41.1359 106.911 42.1259Z" fill="white"/>
<g style="mix-blend-mode:soft-light">
<path d="M165.941 38.6258C162.351 38.1758 166.631 46.7558 168.201 47.0658C169.761 47.3858 169.541 39.0758 165.941 38.6258Z" fill="white"/>
</g>
<g style="mix-blend-mode:multiply" opacity="0.5">
<path d="M88.6413 167.876C88.6413 167.876 90.3813 164.236 98.2213 164.426C106.061 164.616 115.021 171.846 115.021 171.846C115.021 171.846 100.471 163.176 88.6512 167.876H88.6413Z" fill="#D14894"/>
</g>
<g style="mix-blend-mode:multiply" opacity="0.5">
<path d="M144.161 174.516C144.161 174.516 155.321 164.656 163.101 164.416C170.881 164.176 174.251 167.876 174.251 167.876C174.251 167.876 171.601 165.766 162.581 166.696C153.561 167.626 144.161 174.516 144.161 174.516Z" fill="#D14894"/>
</g>
<g style="mix-blend-mode:soft-light" opacity="0.5">
<path d="M142.851 135.246C141.291 138.316 150.311 137.996 151.801 134.516C153.291 131.046 147.331 126.376 142.851 135.246Z" fill="white"/>
</g>
<g style="mix-blend-mode:soft-light" opacity="0.5">
<path d="M110.661 129.486C105.881 132.266 108.611 135.536 116.441 137.356C124.281 139.166 116.541 126.066 110.661 129.486Z" fill="white"/>
</g>
<g style="mix-blend-mode:soft-light" opacity="0.5">
<path d="M145.181 99.8159C143.781 100.616 144.931 107.666 148.731 108.146C152.521 108.626 151.391 102.036 150.221 100.846C149.051 99.6558 146.991 98.7859 145.181 99.8159Z" fill="white"/>
</g>
<g style="mix-blend-mode:soft-light" opacity="0.5">
<path d="M112.821 99.6659C110.551 101.626 110.511 107.816 112.821 109.306C115.131 110.796 118.931 104.576 118.121 101.156C117.311 97.7359 114.111 98.5459 112.821 99.6659Z" fill="white"/>
</g>
<g style="mix-blend-mode:overlay">
<path d="M154.641 89.9659C150.971 88.9659 162.241 84.7659 164.171 85.1359C166.101 85.5059 158.311 90.9659 154.641 89.9659Z" fill="white"/>
</g>
<g style="mix-blend-mode:overlay">
<path d="M99.7813 111.316C98.7613 113.266 103.191 112.246 103.331 110.756C103.471 109.266 100.811 109.356 99.7813 111.316Z" fill="white"/>
</g>
<g style="mix-blend-mode:overlay">
<path d="M141.071 123.966C140.291 124.176 139.961 126.256 141.491 127.296C143.021 128.336 143.751 123.236 141.071 123.966Z" fill="white"/>
</g>
<g style="mix-blend-mode:soft-light">
<path d="M90.3513 48.0759C90.3513 48.0759 92.4913 38.1259 102.051 35.2059C109.701 32.8659 116.581 35.3759 116.581 35.3759C116.581 35.3759 110.021 31.4459 100.621 34.0159C91.2313 36.5859 90.3613 48.0759 90.3613 48.0759H90.3513Z" fill="white"/>
</g>
<g style="mix-blend-mode:soft-light">
<path d="M148.221 34.0259C148.221 34.0259 158.941 30.5059 166.791 33.8659C174.641 37.2259 174.741 49.1959 174.741 49.1959C174.741 49.1959 174.411 36.9359 164.371 34.7059C154.641 32.5459 148.221 34.0259 148.221 34.0259Z" fill="white"/>
</g>
<g style="mix-blend-mode:soft-light" opacity="0.6">
<path d="M173.551 109.816C172.471 110.596 171.621 115.466 175.171 117.116C178.721 118.766 181.551 111.976 180.711 110.496C179.871 109.016 175.111 108.696 173.561 109.816H173.551Z" fill="white"/>
</g>
<g style="mix-blend-mode:soft-light" opacity="0.6">
<path d="M83.4412 109.726C81.1512 111.186 80.1012 116.056 83.4612 117.156C86.8212 118.256 91.1112 113.146 91.1612 111.976C91.2112 110.806 86.8212 107.586 83.4412 109.726Z" fill="white"/>
</g>
<defs>
<linearGradient id="paint0_linear_244_1693" x1="95.0314" y1="189.981" x2="95.3674" y2="178.798" gradientUnits="userSpaceOnUse">
<stop stop-color="#E5222C"/>
<stop offset="1" stop-color="#801212"/>
</linearGradient>
<linearGradient id="paint1_linear_244_1693" x1="128.508" y1="150.441" x2="144.406" y2="97.7766" gradientUnits="userSpaceOnUse">
<stop stop-color="#0E142B"/>
<stop offset="0.43" stop-color="#161A2F"/>
<stop offset="1" stop-color="#29293B"/>
</linearGradient>
<linearGradient id="paint2_linear_244_1693" x1="101.133" y1="187.025" x2="115.735" y2="134.864" gradientUnits="userSpaceOnUse">
<stop stop-color="#0E142B"/>
<stop offset="0.43" stop-color="#161A2F"/>
<stop offset="1" stop-color="#29293B"/>
</linearGradient>
<linearGradient id="paint3_linear_244_1693" x1="116.438" y1="153.257" x2="122.413" y2="128.546" gradientUnits="userSpaceOnUse">
<stop stop-color="#781515"/>
<stop offset="1" stop-color="#D90516"/>
</linearGradient>
<linearGradient id="paint4_linear_244_1693" x1="116.538" y1="170.206" x2="113.823" y2="161.51" gradientUnits="userSpaceOnUse">
<stop stop-color="#DB1F1F"/>
<stop offset="0.99" stop-color="#FF264E"/>
</linearGradient>
<linearGradient id="paint5_linear_244_1693" x1="98.4154" y1="155.249" x2="110.662" y2="151.984" gradientUnits="userSpaceOnUse">
<stop stop-color="#781515"/>
<stop offset="1" stop-color="#D90516"/>
</linearGradient>
<linearGradient id="paint6_linear_244_1693" x1="98.8517" y1="154.978" x2="108.781" y2="152.714" gradientUnits="userSpaceOnUse">
<stop stop-color="#FF2643"/>
<stop offset="1" stop-color="#FF3B3E"/>
</linearGradient>
<linearGradient id="paint7_linear_244_1693" x1="91.9204" y1="129.359" x2="96.6076" y2="96.8686" gradientUnits="userSpaceOnUse">
<stop stop-color="#0E142B"/>
<stop offset="0.43" stop-color="#161A2F"/>
<stop offset="1" stop-color="#29293B"/>
</linearGradient>
<linearGradient id="paint8_linear_244_1693" x1="81.7792" y1="130.56" x2="86.2497" y2="107.468" gradientUnits="userSpaceOnUse">
<stop stop-color="#B5041D"/>
<stop offset="1" stop-color="#C21D38"/>
</linearGradient>
<linearGradient id="paint9_linear_244_1693" x1="159.611" y1="189.981" x2="159.947" y2="178.798" gradientUnits="userSpaceOnUse">
<stop stop-color="#E5222C"/>
<stop offset="1" stop-color="#801212"/>
</linearGradient>
<linearGradient id="paint10_linear_244_1693" x1="156.337" y1="186.97" x2="170.89" y2="134.817" gradientUnits="userSpaceOnUse">
<stop stop-color="#0E142B"/>
<stop offset="0.43" stop-color="#161A2F"/>
<stop offset="1" stop-color="#29293B"/>
</linearGradient>
<linearGradient id="paint11_linear_244_1693" x1="173.087" y1="170.5" x2="170.086" y2="161.402" gradientUnits="userSpaceOnUse">
<stop stop-color="#DB1F1F"/>
<stop offset="0.99" stop-color="#FF264E"/>
</linearGradient>
<linearGradient id="paint12_linear_244_1693" x1="153.713" y1="155.249" x2="165.96" y2="151.984" gradientUnits="userSpaceOnUse">
<stop stop-color="#781515"/>
<stop offset="1" stop-color="#D90516"/>
</linearGradient>
<linearGradient id="paint13_linear_244_1693" x1="155.437" y1="154.978" x2="165.366" y2="152.714" gradientUnits="userSpaceOnUse">
<stop stop-color="#FF2643"/>
<stop offset="1" stop-color="#FF3B3E"/>
</linearGradient>
<linearGradient id="paint14_linear_244_1693" x1="165.265" y1="129.381" x2="169.833" y2="96.8975" gradientUnits="userSpaceOnUse">
<stop stop-color="#0E142B"/>
<stop offset="0.43" stop-color="#161A2F"/>
<stop offset="1" stop-color="#29293B"/>
</linearGradient>
<linearGradient id="paint15_linear_244_1693" x1="181.179" y1="130.559" x2="185.538" y2="107.455" gradientUnits="userSpaceOnUse">
<stop stop-color="#B5041D"/>
<stop offset="1" stop-color="#C21D38"/>
</linearGradient>
<linearGradient id="paint16_linear_244_1693" x1="145.311" y1="122.093" x2="152.372" y2="96.534" gradientUnits="userSpaceOnUse">
<stop stop-color="#781515"/>
<stop offset="1" stop-color="#D90516"/>
</linearGradient>
<linearGradient id="paint17_linear_244_1693" x1="114.77" y1="121.971" x2="121.87" y2="96.5798" gradientUnits="userSpaceOnUse">
<stop stop-color="#781515"/>
<stop offset="1" stop-color="#D90516"/>
</linearGradient>
<linearGradient id="paint18_linear_244_1693" x1="143.76" y1="153.267" x2="149.735" y2="128.559" gradientUnits="userSpaceOnUse">
<stop stop-color="#781515"/>
<stop offset="1" stop-color="#D90516"/>
</linearGradient>
<linearGradient id="paint19_linear_244_1693" x1="139.028" y1="121.356" x2="146.549" y2="106.75" gradientUnits="userSpaceOnUse">
<stop stop-color="#E5222C"/>
<stop offset="1" stop-color="#801212"/>
</linearGradient>
<linearGradient id="paint20_linear_244_1693" x1="80.1706" y1="73.1422" x2="116.078" y2="28.9358" gradientUnits="userSpaceOnUse">
<stop stop-color="#121936"/>
<stop offset="0.38" stop-color="#1A1F3A"/>
<stop offset="0.97" stop-color="#303146"/>
<stop offset="1" stop-color="#323247"/>
</linearGradient>
<linearGradient id="paint21_linear_244_1693" x1="105.064" y1="101.461" x2="130.812" y2="18.4784" gradientUnits="userSpaceOnUse">
<stop stop-color="#121936"/>
<stop offset="0.38" stop-color="#1A1F3A"/>
<stop offset="0.97" stop-color="#303146"/>
<stop offset="1" stop-color="#323247"/>
</linearGradient>
<linearGradient id="paint22_linear_244_1693" x1="152.947" y1="101.461" x2="178.695" y2="18.4785" gradientUnits="userSpaceOnUse">
<stop stop-color="#121936"/>
<stop offset="0.38" stop-color="#1A1F3A"/>
<stop offset="0.97" stop-color="#303146"/>
<stop offset="1" stop-color="#323247"/>
</linearGradient>
<radialGradient id="paint23_radial_244_1693" cx="0" cy="0" r="1" gradientUnits="userSpaceOnUse" gradientTransform="translate(116.846 85.4036) rotate(-172.893) scale(55.9971 45.8775)">
<stop stop-color="#DC165F"/>
<stop offset="0.38" stop-color="#A91723"/>
<stop offset="1" stop-color="#6B1414"/>
</radialGradient>
<linearGradient id="paint24_linear_244_1693" x1="132.351" y1="50.8858" x2="132.351" y2="26.4058" gradientUnits="userSpaceOnUse">
<stop stop-color="white"/>
<stop offset="1" stop-color="#D91A81"/>
</linearGradient>
<linearGradient id="paint25_linear_244_1693" x1="130.573" y1="43.1055" x2="135.053" y2="15.3157" gradientUnits="userSpaceOnUse">
<stop stop-color="#121936"/>
<stop offset="0.38" stop-color="#1A1F3A"/>
<stop offset="0.97" stop-color="#303146"/>
<stop offset="1" stop-color="#323247"/>
</linearGradient>
<linearGradient id="paint26_linear_244_1693" x1="130.011" y1="42.6658" x2="133.451" y2="23.4858" gradientUnits="userSpaceOnUse">
<stop stop-color="#D91A81"/>
<stop offset="1" stop-color="white"/>
</linearGradient>
<radialGradient id="paint27_radial_244_1693" cx="0" cy="0" r="1" gradientUnits="userSpaceOnUse" gradientTransform="translate(198.993 126.671) rotate(-89.6669) scale(13.8937 14.7869)">
<stop stop-color="#0500FF"/>
<stop offset="1" stop-color="#050031"/>
</radialGradient>
<linearGradient id="paint28_linear_244_1693" x1="215.927" y1="122.483" x2="182.085" y2="122.287" gradientUnits="userSpaceOnUse">
<stop stop-color="#0E0082"/>
<stop offset="1" stop-color="#1400FF"/>
</linearGradient>
<radialGradient id="paint29_radial_244_1693" cx="0" cy="0" r="1" gradientUnits="userSpaceOnUse" gradientTransform="translate(199.006 122.387) rotate(-89.6669) scale(9.78844 10.4178)">
<stop stop-color="#001AFF"/>
<stop offset="1" stop-color="#050030"/>
</radialGradient>
<linearGradient id="paint30_linear_244_1693" x1="210.91" y1="122.977" x2="187.095" y2="122.839" gradientUnits="userSpaceOnUse">
<stop stop-color="#0E0082"/>
<stop offset="0.9999" stop-color="#012AFE"/>
<stop offset="1" stop-color="#0500FF"/>
</linearGradient>
<radialGradient id="paint31_radial_244_1693" cx="0" cy="0" r="1" gradientUnits="userSpaceOnUse" gradientTransform="translate(198.796 122.967) rotate(154.014) scale(8.49389 7.16075)">
<stop offset="0.10409" stop-color="#14F1FF"/>
<stop offset="0.978353" stop-color="#13AAFF"/>
</radialGradient>
<radialGradient id="paint32_radial_244_1693" cx="0" cy="0" r="1" gradientUnits="userSpaceOnUse" gradientTransform="translate(199.562 110.046) rotate(-177.928) scale(1.36369 1.08926)">
<stop stop-color="#0500FF"/>
<stop offset="1" stop-color="#050030"/>
</radialGradient>
<linearGradient id="paint33_linear_244_1693" x1="200.719" y1="110.209" x2="198.394" y2="110.226" gradientUnits="userSpaceOnUse">
<stop stop-color="#00FFF4"/>
<stop offset="1" stop-color="#30A7FB"/>
</linearGradient>
<radialGradient id="paint34_radial_244_1693" cx="0" cy="0" r="1" gradientUnits="userSpaceOnUse" gradientTransform="translate(185.25 119.369) rotate(-177.928) scale(1.36369 1.08926)">
<stop stop-color="#0500FF"/>
<stop offset="1" stop-color="#050030"/>
</radialGradient>
<linearGradient id="paint35_linear_244_1693" x1="186.404" y1="119.473" x2="184.067" y2="119.489" gradientUnits="userSpaceOnUse">
<stop stop-color="#00FFF4"/>
<stop offset="1" stop-color="#30A7FB"/>
</linearGradient>
<radialGradient id="paint36_radial_244_1693" cx="0" cy="0" r="1" gradientUnits="userSpaceOnUse" gradientTransform="translate(213.472 119.519) rotate(-177.928) scale(1.36369 1.08926)">
<stop stop-color="#0500FF"/>
<stop offset="1" stop-color="#050030"/>
</radialGradient>
<linearGradient id="paint37_linear_244_1693" x1="214.629" y1="119.635" x2="212.305" y2="119.652" gradientUnits="userSpaceOnUse">
<stop stop-color="#00FFF4"/>
<stop offset="1" stop-color="#30A7FB"/>
</linearGradient>
<radialGradient id="paint38_radial_244_1693" cx="0" cy="0" r="1" gradientUnits="userSpaceOnUse" gradientTransform="translate(199.447 129.778) rotate(-177.928) scale(1.36369 1.08926)">
<stop stop-color="#0500FF"/>
<stop offset="1" stop-color="#050030"/>
</radialGradient>
<linearGradient id="paint39_linear_244_1693" x1="200.608" y1="129.836" x2="198.283" y2="129.852" gradientUnits="userSpaceOnUse">
<stop stop-color="#00FFF4"/>
<stop offset="1" stop-color="#30A7FB"/>
</linearGradient>
<linearGradient id="paint40_linear_244_1693" x1="155.362" y1="137.07" x2="200.778" y2="122.221" gradientUnits="userSpaceOnUse">
<stop stop-color="#B5041D"/>
<stop offset="1" stop-color="#C21D38"/>
</linearGradient>
<radialGradient id="paint41_radial_244_1693" cx="0" cy="0" r="1" gradientUnits="userSpaceOnUse" gradientTransform="translate(65.9933 126.671) rotate(-89.6669) scale(13.8937 14.7869)">
<stop stop-color="#0500FF"/>
<stop offset="1" stop-color="#050031"/>
</radialGradient>
<linearGradient id="paint42_linear_244_1693" x1="82.9268" y1="122.484" x2="49.0854" y2="122.287" gradientUnits="userSpaceOnUse">
<stop stop-color="#0E0082"/>
<stop offset="1" stop-color="#1400FF"/>
</linearGradient>
<radialGradient id="paint43_radial_244_1693" cx="0" cy="0" r="1" gradientUnits="userSpaceOnUse" gradientTransform="translate(66.0064 122.387) rotate(-89.6669) scale(9.78844 10.4178)">
<stop stop-color="#001AFF"/>
<stop offset="1" stop-color="#050030"/>
</radialGradient>
<linearGradient id="paint44_linear_244_1693" x1="77.9104" y1="122.977" x2="54.0952" y2="122.839" gradientUnits="userSpaceOnUse">
<stop stop-color="#0E0082"/>
<stop offset="0.9999" stop-color="#012AFE"/>
<stop offset="1" stop-color="#0500FF"/>
</linearGradient>
<radialGradient id="paint45_radial_244_1693" cx="0" cy="0" r="1" gradientUnits="userSpaceOnUse" gradientTransform="translate(66.3446 122.738) rotate(-27.902) scale(8.49389 7.16075)">
<stop offset="0.10409" stop-color="#14F1FF"/>
<stop offset="0.978353" stop-color="#13AAFF"/>
</radialGradient>
<radialGradient id="paint46_radial_244_1693" cx="0" cy="0" r="1" gradientUnits="userSpaceOnUse" gradientTransform="translate(66.562 110.046) rotate(-177.928) scale(1.36369 1.08926)">
<stop stop-color="#0500FF"/>
<stop offset="1" stop-color="#050030"/>
</radialGradient>
<linearGradient id="paint47_linear_244_1693" x1="67.7186" y1="110.209" x2="65.3941" y2="110.226" gradientUnits="userSpaceOnUse">
<stop stop-color="#00FFF4"/>
<stop offset="1" stop-color="#30A7FB"/>
</linearGradient>
<radialGradient id="paint48_radial_244_1693" cx="0" cy="0" r="1" gradientUnits="userSpaceOnUse" gradientTransform="translate(52.2503 119.369) rotate(-177.928) scale(1.36369 1.08926)">
<stop stop-color="#0500FF"/>
<stop offset="1" stop-color="#050030"/>
</radialGradient>
<linearGradient id="paint49_linear_244_1693" x1="53.4038" y1="119.473" x2="51.0667" y2="119.489" gradientUnits="userSpaceOnUse">
<stop stop-color="#00FFF4"/>
<stop offset="1" stop-color="#30A7FB"/>
</linearGradient>
<radialGradient id="paint50_radial_244_1693" cx="0" cy="0" r="1" gradientUnits="userSpaceOnUse" gradientTransform="translate(80.4722 119.519) rotate(-177.928) scale(1.36369 1.08926)">
<stop stop-color="#0500FF"/>
<stop offset="1" stop-color="#050030"/>
</radialGradient>
<linearGradient id="paint51_linear_244_1693" x1="81.6293" y1="119.635" x2="79.3049" y2="119.652" gradientUnits="userSpaceOnUse">
<stop stop-color="#00FFF4"/>
<stop offset="1" stop-color="#30A7FB"/>
</linearGradient>
<radialGradient id="paint52_radial_244_1693" cx="0" cy="0" r="1" gradientUnits="userSpaceOnUse" gradientTransform="translate(66.4474 129.778) rotate(-177.928) scale(1.36369 1.08926)">
<stop stop-color="#0500FF"/>
<stop offset="1" stop-color="#050030"/>
</radialGradient>
<linearGradient id="paint53_linear_244_1693" x1="67.6078" y1="129.836" x2="65.2833" y2="129.853" gradientUnits="userSpaceOnUse">
<stop stop-color="#00FFF4"/>
<stop offset="1" stop-color="#30A7FB"/>
</linearGradient>
<linearGradient id="paint54_linear_244_1693" x1="109.116" y1="137.07" x2="63.7" y2="122.221" gradientUnits="userSpaceOnUse">
<stop stop-color="#B5041D"/>
<stop offset="1" stop-color="#C21D38"/>
</linearGradient>
</defs>
</svg>
