<svg width="176" height="341" viewBox="0 0 176 341" fill="none" xmlns="http://www.w3.org/2000/svg">
<path d="M33.8113 336.688C33.8113 336.688 0.245436 237.445 3.78302 201.233L73.4011 193.239L93.6709 187L94.7911 203.941L173.849 189.607C173.849 189.607 178.889 219.219 168.204 243.392L146.906 285.913C146.906 285.913 134.277 315.071 119.047 323.578C119.047 323.578 91.1874 349.171 33.8053 336.714L33.8113 336.688Z" fill="#5B254E"/>
<path d="M0 202.154C0 202.154 5.01155 239.307 42.086 266.897C42.086 266.897 92.261 258.477 133.432 232.942L131.329 218.58L146.719 221.89C146.719 221.89 162.038 208.873 173.415 190.224C173.415 190.224 129.072 189.12 83.4397 199.339L91.6532 187.515C91.6532 187.515 54.2521 185.94 0.00608216 202.127L0 202.154Z" fill="#985965"/>
<path d="M41.8645 261.028C41.8645 261.028 29.2194 307.946 31.1311 331.65C31.1311 331.65 6.61701 266.21 2.48299 199.533C2.48299 199.533 23.2945 243.153 41.887 261.031L41.8645 261.028Z" fill="#461642"/>
<path d="M134.886 221.479L140.665 235.679L131.7 301.053C131.7 301.053 148.647 247.864 148.486 224.595L134.907 221.483L134.886 221.479Z" fill="#461642"/>
<path d="M7.1012 212.056C7.1012 212.056 34.6206 250.438 46.0057 253.248C57.3909 256.059 110.817 245.627 135.242 230.459C135.242 230.459 95.0293 257.772 42.8917 265.359C42.8917 265.359 20.7792 239.822 7.1012 212.056Z" fill="#B06979"/>
<path d="M39.2653 256.85L42.3883 268.373L50.269 261.148L39.2653 256.85Z" fill="#D27F7C"/>
<path d="M143.602 224.256L147.497 235.199L152.366 220.792C152.366 220.792 145.654 222.008 143.624 224.259L143.602 224.256Z" fill="#B06979"/>
<path opacity="0.3" d="M92.1657 224.962C106.007 219.869 115.19 210.202 112.677 203.37C110.163 196.538 96.904 195.129 83.0623 200.222C69.2206 205.315 60.0376 214.982 62.5515 221.814C65.0653 228.646 78.3241 230.055 92.1657 224.962Z" fill="#09090A"/>
<path d="M61.2397 83.9813C57.005 81.781 47.2531 73.8756 40.8624 56.5057C38.7506 50.7784 37.0036 44.0117 35.9533 36.0842C31.6854 4.13065 42.8304 -5.13477 42.5651 2.54956C42.5651 2.54956 42.5651 2.58273 42.5651 2.66012C41.7358 28.1013 46.855 66.5008 52.0074 71.2552C57.1708 76.0205 57.1929 75.2355 57.1929 75.2355C61.4718 77.7564 63.6389 85.6066 61.2397 83.9702V83.9813Z" fill="url(#paint0_linear_257_2272)"/>
<g style="mix-blend-mode:multiply" opacity="0.3">
<path d="M61.2401 83.9813C57.0054 81.781 47.2535 73.8756 40.8628 56.5057C43.6491 60.5635 45.2854 59.4025 42.9524 38.9036C40.7411 19.3666 42.3996 4.05329 42.5655 2.66016C41.7362 28.1013 46.8554 66.5009 52.0078 71.2552C57.1712 76.0206 57.1933 75.2355 57.1933 75.2355C61.4722 77.7564 63.6393 85.6066 61.2401 83.9703V83.9813Z" fill="#AB2781"/>
</g>
<path d="M68.8691 215.709C68.8691 215.709 69.2119 218.473 69.3004 219.082C69.3888 219.69 80.2795 220.895 88.7599 217.091C97.2403 213.288 105.489 208.921 107.788 207.881C108.153 207.715 107.18 201.435 107.18 201.435L68.8691 215.709Z" fill="url(#paint1_linear_257_2272)"/>
<path d="M23.2162 142.006C23.2162 142.006 18.8599 143.045 18.6277 143.963C18.3955 144.881 20.3525 152.034 23.8132 161.024C27.274 170.013 29.4632 178.228 29.8723 179.201C30.2703 180.162 34.3502 179.156 34.3502 179.156L23.2051 141.995L23.2162 142.006Z" fill="url(#paint2_linear_257_2272)"/>
<path d="M72.1416 140.514C70.7264 142.128 59.7914 143.41 52.3503 145.146C44.9093 146.871 41.3712 147.656 40.155 147.391C38.9498 147.136 32.8355 142.404 23.2052 141.995C21.8231 141.94 27.3515 155.252 29.1758 162.781C30.9891 170.3 32.548 177.918 33.7642 178.957C34.9805 179.997 46.9106 177.664 57.7239 173.341C68.5372 169.017 81.8272 165.988 81.8272 165.988L72.1527 140.514H72.1416Z" fill="url(#paint3_linear_257_2272)"/>
<path d="M87.7648 121.397C86.7918 126.925 80.379 132.873 72.4404 134.875C67.7634 136.058 61.3064 136.003 55.0705 135.98C50.7031 135.98 46.4906 136.478 42.9967 136.401C35.5446 136.224 31.0998 132.641 30.5691 131.724C30.0384 130.806 29.187 129.811 30.945 126.593C32.703 123.387 39.348 123.42 39.348 123.42C35.8099 122.9 35.2349 120.081 35.9205 119.064C36.617 118.047 40.9733 117.693 44.6772 117.372C47.4082 117.14 49.1884 116.123 51.8198 116.554C52.6822 116.698 53.8431 117.063 55.3911 117.416C58.5533 118.157 63.2523 118.854 69.9747 117.45C77.1725 115.957 81.7721 114.133 86.4048 112.717C86.4048 112.717 88.7378 115.846 87.7869 121.386L87.7648 121.397Z" fill="url(#paint4_linear_257_2272)"/>
<path d="M85.5532 112.795C82.6343 116.521 80.6662 127.909 74.3861 135.87C68.1059 143.842 73.5016 159.752 79.9697 164.938C86.4378 170.123 104.67 164.186 107.766 149.491C110.873 134.786 113.106 111.092 106.66 106.769C100.214 102.435 85.5532 112.795 85.5532 112.795Z" fill="url(#paint5_linear_257_2272)"/>
<path d="M134.169 87.3425C133.705 88.1938 133.174 89.0231 132.566 89.8191C132.566 89.8191 132.566 89.8412 132.544 89.8412C128.077 95.7786 120.16 100.19 112.974 103.507H112.94C108.507 105.564 104.349 107.178 101.453 108.494C93.1823 112.209 88.03 113.945 85.1442 112.629C83.0324 111.656 71.6552 111.313 60.6097 106.636C60.5875 106.636 60.5654 106.636 60.5544 106.614H60.5323C60.5323 106.614 60.5212 106.592 60.5101 106.592C58.6747 105.818 56.8504 104.911 55.0703 103.872C42.5985 96.5415 32.3158 61.2047 35.0689 47.8373C38.3527 31.8827 69.7645 11.4943 95.7696 11.7376C121.775 11.9919 136.115 27.9576 139.808 36.836C139.93 37.1345 140.051 37.4773 140.162 37.8311C143.269 47.7931 140.04 76.6065 134.191 87.3646L134.169 87.3425Z" fill="url(#paint6_linear_257_2272)"/>
<path style="mix-blend-mode:multiply" opacity="0.5" d="M38.0544 66.6556C38.0544 66.6556 36.8383 53.642 39.8899 47.8373C42.9415 42.0326 56.3421 44.0228 64.5018 43.1936C72.6505 42.3643 88.6272 31.9822 103.067 33.2426C117.507 34.5031 119.265 51.1985 119.884 55.0573C120.503 58.916 38.0544 66.6556 38.0544 66.6556Z" fill="url(#paint7_linear_257_2272)"/>
<path d="M117.043 87.0771C116.401 88.3154 115.506 89.5538 114.378 90.7589C114.378 90.7589 114.371 90.7663 114.356 90.781C104.394 101.55 76.8962 110.583 57.1823 102.048C48.2154 98.1668 42.9082 88.4702 40.1883 78.5635C37.8112 69.9504 37.4021 61.1605 38.2424 55.9528C40.0446 44.7414 48.4476 46.4331 54.5177 47.5166C62.1025 48.8655 70.2401 47.6604 84.0388 41.6788C97.8263 35.6861 109.325 36.4269 114.699 42.2095C121.001 49.0203 123.997 73.5881 117.054 87.0771H117.043Z" fill="url(#paint8_radial_257_2272)"/>
<g style="mix-blend-mode:multiply" opacity="0.5">
<path d="M117.042 87.0771C116.401 88.3154 115.506 89.5538 114.378 90.7589C114.853 90.195 121.045 82.367 110.53 73.6212C99.6394 64.5438 38.2754 66.6445 40.1771 78.5525C37.8 69.9394 37.3909 61.1494 38.2312 55.9418C40.0334 44.7304 48.4364 46.422 54.5064 47.5056C62.0912 48.8545 70.2289 47.6493 84.0275 41.6677C97.8151 35.6751 109.314 36.4158 114.687 42.1984C120.99 49.0093 123.986 73.577 117.042 87.066V87.0771Z" fill="#AB2781"/>
</g>
<path d="M66.6687 63.217C82.8666 59.1261 85.4649 40.2414 77.8248 33.4306C76.9514 32.6566 75.9562 32.0374 74.8174 31.6173C64.9549 27.9576 53.7989 33.4527 50.4377 40.8053C49.4868 42.895 48.9893 45.3827 48.9893 47.9368C48.9893 56.6936 54.6613 66.2576 66.6687 63.217Z" fill="url(#paint9_linear_257_2272)"/>
<path d="M63.9379 54.1285C72.6504 51.9393 74.53 40.6505 70.1295 36.7475C69.632 36.3053 69.057 35.9736 68.4158 35.7746C62.9428 34.0719 57.2154 37.8974 55.7007 42.1653C55.2805 43.3373 55.0926 44.6972 55.1479 46.0793C55.3137 50.6899 58.1 55.599 63.9489 54.1285H63.9379Z" fill="#36ACE3"/>
<path d="M64.9218 53.1334C72.3629 51.2648 73.9108 41.723 70.1958 38.395C69.7756 38.019 69.2892 37.7316 68.7474 37.5547C64.0926 36.051 59.1724 39.2132 57.8345 42.8397C57.4697 43.8459 57.2928 45.0068 57.337 46.1899C57.4586 50.1592 59.8689 54.4049 64.9329 53.1334H64.9218Z" fill="#75E4FF"/>
<path d="M63.238 51.2969C62.8434 51.2055 62.443 51.0613 62.0952 50.8344C64.6832 51.9532 67.1763 50.315 67.1763 50.315C65.0068 50.8668 61.587 50.5265 60.4124 47.8418C58.8974 44.3784 61.0684 42.1914 62.8657 41.8489C65.3361 41.3779 67.9449 44.1777 66.2015 46.7841C66.9898 45.2398 66.1127 42.733 64.1042 42.3682C62.0998 42.0043 60.7808 43.5203 60.1806 44.989C60.1806 44.989 60.4756 44.568 60.9503 44.1012C60.6856 44.56 60.2642 45.54 60.5098 46.6109C60.7906 47.8358 61.5229 48.7162 62.2702 49.1977C64.4412 50.5978 67.3143 49.7656 67.3143 49.7656C65.6771 50.0248 63.4565 49.5549 62.2603 48.385C61.7899 47.9247 61.3698 47.2049 61.2342 46.5374C61.124 45.9965 61.1773 45.4287 61.3603 44.9212C61.5367 44.4324 61.8701 43.8917 62.4066 43.622C63.0774 43.2854 64.0365 43.351 64.7445 44.073C65.2736 44.6126 65.3546 45.3655 65.1928 46.1146C65.1747 45.3307 64.6838 44.5706 64.0045 44.2735C63.3253 43.9765 62.4266 44.0948 62.0032 44.7199C61.0789 46.0839 62.0885 47.9699 63.4717 48.7076C64.5207 49.267 65.9674 49.5175 67.0636 49.275C69.4779 48.7403 70.295 46.6779 70.4823 45.7429C70.4823 45.7429 69.7863 47.4167 68.6383 48.0858C70.4162 46.433 71.1436 43.6299 69.4993 40.791C69.4993 40.791 70.2438 42.5446 69.9035 44.4413C69.765 39.7935 65.4766 37.5707 62.6642 38.5719C62.6642 38.5719 64.6593 38.1878 66.1381 39.2752C63.601 38.3023 60.5005 39.2521 58.5957 41.6115C58.5957 41.6115 61.8017 38.8433 65.0648 40.0377C66.9339 40.7221 67.9359 42.0827 68.3799 43.5643C68.4943 43.9458 68.5197 44.2957 68.5172 44.6042C68.127 42.6329 66.4269 40.5012 64.2515 40.1921C62.6469 39.8797 61.0107 40.292 59.6778 41.4078C58.6411 42.2765 57.8928 43.6255 57.6104 45.0277C57.4223 45.961 57.5089 46.851 57.5904 47.7958C57.5904 47.7958 57.4411 46.0708 57.9736 44.9809C57.4847 47.4459 58.3469 50.3925 61.0565 52.0969C61.0565 52.0969 59.8002 51.1089 59.1422 49.5508C61.2579 52.4219 66.2744 53.5132 69.6513 49.5943C69.6513 49.5943 66.4772 52.0471 63.2384 51.2975L63.238 51.2969ZM65.2482 47.595C65.2363 47.6731 65.1673 47.7246 65.0945 47.7097L65.0045 47.6912C64.9317 47.6762 64.8627 47.7277 64.8507 47.8059L64.8133 48.0503C64.8013 48.1285 64.7324 48.1799 64.6596 48.165C64.5868 48.15 64.5373 48.0743 64.5492 47.9961L64.5867 47.7516C64.5986 47.6735 64.5491 47.5977 64.4763 47.5828L64.3863 47.5643C64.3135 47.5493 64.264 47.4736 64.2759 47.3954C64.2879 47.3172 64.3569 47.2658 64.4297 47.2807L64.5197 47.2992C64.5925 47.3142 64.6615 47.2627 64.6735 47.1845L64.7109 46.9401C64.7228 46.8619 64.7918 46.8105 64.8646 46.8254C64.9374 46.8403 64.9869 46.9161 64.9749 46.9943L64.9375 47.2388C64.9256 47.3169 64.9751 47.3927 65.0479 47.4076L65.1379 47.4261C65.2107 47.4411 65.2602 47.5168 65.2482 47.595ZM65.9478 48.633C65.9436 48.6606 65.9197 48.6784 65.894 48.6732L65.8628 48.6667C65.8371 48.6615 65.8132 48.6793 65.809 48.7068L65.796 48.792C65.7917 48.8196 65.7678 48.8374 65.7422 48.8321C65.7165 48.8269 65.6994 48.8006 65.7036 48.7731L65.7166 48.6879C65.7208 48.6603 65.7037 48.6341 65.678 48.6288L65.6468 48.6224C65.6211 48.6171 65.604 48.5909 65.6082 48.5633C65.6124 48.5358 65.6363 48.5179 65.6619 48.5232L65.6932 48.5296C65.7184 48.5348 65.7428 48.5171 65.747 48.4895L65.76 48.4043C65.7642 48.3768 65.7881 48.359 65.8138 48.3642C65.8395 48.3695 65.8566 48.3957 65.8524 48.4233L65.8394 48.5085C65.8351 48.536 65.8523 48.5623 65.878 48.5675L65.9092 48.574C65.9349 48.5792 65.952 48.6055 65.9478 48.633ZM67.7747 40.7903C67.7705 40.8179 67.7466 40.8357 67.721 40.8305L67.6897 40.824C67.664 40.8188 67.6401 40.8366 67.6359 40.8642L67.6229 40.9493C67.6187 40.9769 67.5948 40.9947 67.5691 40.9894C67.5435 40.9842 67.5263 40.9579 67.5305 40.9304L67.5436 40.8452C67.5478 40.8176 67.5306 40.7914 67.505 40.7861L67.4737 40.7797C67.448 40.7744 67.4309 40.7482 67.4351 40.7206C67.4393 40.6931 67.4632 40.6752 67.4889 40.6805L67.5201 40.6869C67.5458 40.6922 67.5697 40.6744 67.5739 40.6468L67.587 40.5616C67.5912 40.5341 67.6151 40.5163 67.6407 40.5215C67.6664 40.5268 67.6835 40.5531 67.6793 40.5806L67.6663 40.6658C67.6621 40.6933 67.6792 40.7196 67.7049 40.7249L67.7362 40.7313C67.7618 40.7365 67.779 40.7628 67.7747 40.7903ZM69.9029 44.4417C69.8952 44.4861 69.8865 44.5303 69.8773 44.5744C69.8752 44.5125 69.8717 44.4508 69.8673 44.3884L69.9029 44.4417ZM68.4293 47.1748C68.4335 47.1473 68.4574 47.1295 68.4831 47.1347L68.5143 47.1411C68.54 47.1464 68.5639 47.1286 68.5681 47.101L68.5811 47.0159C68.5854 46.9883 68.6093 46.9705 68.6349 46.9757C68.6606 46.981 68.6777 47.0073 68.6735 47.0348L68.6605 47.12C68.6563 47.1475 68.6734 47.1738 68.6991 47.1791L68.7303 47.1855C68.756 47.1907 68.7732 47.217 68.7689 47.2446C68.7647 47.2721 68.7408 47.2899 68.7152 47.2847L68.6839 47.2783C68.6582 47.273 68.6343 47.2908 68.6301 47.3184L68.6171 47.4035C68.6129 47.4311 68.589 47.4489 68.5633 47.4436C68.5377 47.4384 68.5205 47.4121 68.5247 47.3846L68.5377 47.2994C68.542 47.2719 68.5248 47.2456 68.4992 47.2403L68.4679 47.2339C68.4422 47.2286 68.4251 47.2024 68.4293 47.1748ZM67.6936 46.0617C67.7002 46.0186 67.7381 45.9907 67.7778 45.9989L67.8272 46.009C67.8673 46.0173 67.9049 45.9888 67.9114 45.9462L67.932 45.812C67.9386 45.7689 67.976 45.7409 68.0162 45.7492C68.0563 45.7574 68.0831 45.7991 68.0766 45.8417L68.0561 45.9759C68.0495 46.019 68.0764 46.0602 68.1165 46.0684L68.1659 46.0786C68.2061 46.0868 68.233 46.128 68.2264 46.1711C68.2198 46.2141 68.1818 46.242 68.1422 46.2339L68.0927 46.2237C68.0526 46.2155 68.0151 46.2434 68.0085 46.2865L67.988 46.4208C67.9814 46.4639 67.9434 46.4917 67.9038 46.4836C67.8641 46.4754 67.8368 46.4337 67.8433 46.3911L67.8639 46.2568C67.8705 46.2137 67.8436 46.1726 67.8035 46.1643L67.754 46.1542C67.7139 46.1459 67.6871 46.1043 67.6936 46.0617ZM64.0956 41.0757C64.1013 41.0381 64.1344 41.0139 64.1689 41.021L64.2118 41.0298C64.2468 41.037 64.2795 41.0122 64.2852 40.9751L64.3031 40.8579C64.3089 40.8203 64.3419 40.7961 64.3764 40.8032C64.411 40.8103 64.4347 40.8467 64.4291 40.8837L64.4111 41.001C64.4054 41.0385 64.4292 41.0744 64.4638 41.0815L64.5067 41.0903C64.5417 41.0975 64.565 41.1338 64.5593 41.1709C64.5536 41.2085 64.5205 41.2327 64.486 41.2256L64.4431 41.2168C64.4081 41.2096 64.3754 41.2344 64.3697 41.2715L64.3518 41.3887C64.346 41.4263 64.313 41.4505 64.2784 41.4434C64.2439 41.4363 64.2201 41.3999 64.2258 41.3629L64.2438 41.2456C64.2495 41.2081 64.2257 41.1722 64.1911 41.1651L64.1482 41.1563C64.1132 41.1491 64.0899 41.1128 64.0956 41.0757ZM63.1998 40.804C63.204 40.7764 63.2279 40.7586 63.2536 40.7639L63.2848 40.7703C63.3105 40.7755 63.3344 40.7577 63.3386 40.7302L63.3516 40.645C63.3558 40.6174 63.3798 40.5996 63.4054 40.6049C63.4311 40.6101 63.4482 40.6364 63.444 40.664L63.431 40.7491C63.4268 40.7767 63.4439 40.8029 63.4696 40.8082L63.5008 40.8146C63.5265 40.8199 63.5436 40.8461 63.5394 40.8737C63.5352 40.9012 63.5113 40.9191 63.4856 40.9138L63.4544 40.9074C63.4287 40.9021 63.4048 40.9199 63.4006 40.9475L63.3876 41.0327C63.3834 41.0602 63.3595 41.078 63.3338 41.0728C63.3081 41.0675 63.291 41.0413 63.2952 41.0137L63.3082 40.9285C63.3124 40.901 63.2953 40.8747 63.2696 40.8695L63.2384 40.863C63.2127 40.8578 63.1956 40.8315 63.1998 40.804ZM58.9068 47.061C58.9026 47.0886 58.8787 47.1064 58.8531 47.1011L58.8218 47.0947C58.7962 47.0894 58.7722 47.1073 58.768 47.1348L58.755 47.22C58.7508 47.2475 58.7269 47.2654 58.7012 47.2601C58.6756 47.2548 58.6584 47.2286 58.6626 47.201L58.6757 47.1159C58.6799 47.0883 58.6627 47.062 58.6371 47.0568L58.6058 47.0504C58.5801 47.0451 58.563 47.0188 58.5672 46.9913C58.5714 46.9637 58.5953 46.9459 58.621 46.9512L58.6522 46.9576C58.6779 46.9629 58.7018 46.945 58.706 46.9175L58.7191 46.8323C58.7233 46.8048 58.7472 46.7869 58.7728 46.7922C58.7985 46.7975 58.8156 46.8237 58.8114 46.8513L58.7984 46.9364C58.7942 46.964 58.8113 46.9902 58.837 46.9955L58.8683 47.0019C58.8939 47.0072 58.9111 47.0335 58.9068 47.061ZM59.8734 42.7207L59.8421 42.7142C59.8165 42.709 59.7926 42.7268 59.7883 42.7544L59.7753 42.8395C59.7711 42.8671 59.7472 42.8849 59.7215 42.8796C59.6959 42.8744 59.6787 42.8481 59.6829 42.8206L59.696 42.7354C59.7002 42.7078 59.683 42.6816 59.6574 42.6763L59.6261 42.6699C59.6005 42.6646 59.5833 42.6384 59.5875 42.6108C59.5917 42.5833 59.6156 42.5654 59.6413 42.5707L59.6726 42.5771C59.6982 42.5824 59.7221 42.5646 59.7263 42.537L59.7394 42.4518C59.7436 42.4243 59.7675 42.4065 59.7931 42.4117C59.8188 42.417 59.836 42.4432 59.8317 42.4708L59.8187 42.556C59.8145 42.5835 59.8316 42.6098 59.8573 42.615L59.8886 42.6215C59.9142 42.6267 59.9314 42.653 59.9272 42.6805C59.9229 42.7081 59.899 42.7259 59.8734 42.7207ZM59.6175 48.2403C59.6109 48.2834 59.5735 48.3114 59.5333 48.3031L59.4839 48.293C59.4438 48.2847 59.4063 48.3127 59.3997 48.3558L59.3791 48.49C59.3725 48.5331 59.3351 48.5611 59.2949 48.5528C59.2548 48.5446 59.2279 48.5034 59.2345 48.4603L59.2551 48.3261C59.2616 48.283 59.2343 48.2417 59.1946 48.2336L59.1452 48.2234C59.105 48.2152 59.0781 48.174 59.0847 48.1309C59.0913 48.0879 59.1288 48.0599 59.1689 48.0681L59.2184 48.0783C59.2585 48.0865 59.296 48.0586 59.3026 48.0155L59.3231 47.8812C59.3297 47.8381 59.3672 47.8102 59.4073 47.8184C59.4475 47.8267 59.4744 47.8678 59.4678 47.9109L59.4472 48.0452C59.4406 48.0883 59.468 48.1295 59.5076 48.1377L59.5571 48.1478C59.5972 48.1561 59.6241 48.1977 59.6175 48.2403Z" fill="#000AFF"/>
<path style="mix-blend-mode:multiply" opacity="0.5" d="M66.6686 63.217C82.8665 59.126 85.4649 40.2414 77.8248 33.4305C81.9378 38.7045 80.3567 52.5031 69.5987 58.7833C58.8517 65.0524 50.0838 58.54 49.0113 48.0142C49.0113 47.9921 49.0113 47.9589 49.0002 47.9368C49.0002 56.6936 54.6723 66.2575 66.6797 63.217H66.6686Z" fill="url(#paint10_linear_257_2272)"/>
<path style="mix-blend-mode:multiply" opacity="0.5" d="M132.533 89.8412C125.313 99.4384 109.06 105.044 101.442 108.483C93.1716 112.198 88.0192 113.934 85.1334 112.618C83.0216 111.645 71.6444 111.302 60.5989 106.625C61.6493 107.012 71.0252 111.214 95.2612 105.652C120.26 99.9027 131.836 90.3609 132.544 89.8412H132.533Z" fill="url(#paint11_linear_257_2272)"/>
<g style="mix-blend-mode:multiply" opacity="0.5">
<path d="M134.169 87.3425C133.705 88.1939 133.174 89.0231 132.566 89.8192C132.566 89.8192 132.566 89.8413 132.544 89.8413C128.077 95.7787 120.16 100.19 112.974 103.507H112.94C112.94 103.507 122.549 97.802 131.305 82.2012C143.965 59.6458 140.162 37.809 140.162 37.809C143.269 47.771 140.04 76.5844 134.191 87.3425H134.169Z" fill="#AB2781"/>
</g>
<g style="mix-blend-mode:multiply" opacity="0.2">
<path d="M120.547 21.6774C113.869 24.2978 122.15 56.4835 124.362 71.4652C126.573 86.4469 140.737 67.4074 141.345 48.9208C141.964 30.4342 123.51 20.5165 120.547 21.6885V21.6774Z" fill="#C42781"/>
</g>
<path d="M45.0423 61.459C42.0349 62.1887 45.8605 66.8878 48.1492 66.8878C50.4379 66.8878 47.5632 60.8509 45.0423 61.459Z" fill="white"/>
<g style="mix-blend-mode:soft-light">
<path d="M50.4046 75.4898C43.4389 77.679 49.5311 90.2172 59.3714 91.8646C69.2229 93.512 58.3985 72.98 50.4046 75.4898Z" fill="white"/>
</g>
<g style="mix-blend-mode:overlay">
<path d="M106.561 26.3875C103.443 28.1677 107.224 33.8507 111.901 32.922C116.578 31.9932 112.565 22.96 106.561 26.3875Z" fill="white"/>
</g>
<path d="M124.229 77.1925C121.1 78.0328 121.941 82.1679 124.528 82.8424C127.115 83.5168 126.219 76.6618 124.229 77.1925Z" fill="white"/>
<g style="mix-blend-mode:overlay">
<path d="M89.1138 106.603C89.1138 106.603 94.4652 104.48 103.421 99.372C112.377 94.2639 115.948 93.1693 116.247 93.1582C116.545 93.1472 116.401 98.9519 107.578 102.203C98.7551 105.453 89.1138 106.592 89.1138 106.592V106.603Z" fill="white"/>
</g>
<g style="mix-blend-mode:overlay">
<path d="M59.6809 106.305C56.8394 104.922 55.7448 102.656 55.977 102.335C56.2092 102.015 63.2633 104.812 69.7866 105.42C76.3211 106.039 76.7412 106.515 76.7081 106.824C76.6749 107.123 67.2325 109.997 59.6698 106.305H59.6809Z" fill="white"/>
</g>
<path d="M72.6948 53.83C69.4884 55.2342 72.3189 47.0744 75.47 45.8029C78.6322 44.5314 75.7685 52.4922 72.6948 53.83Z" fill="white"/>
<g style="mix-blend-mode:soft-light">
<path d="M105.654 52.6912C104.527 53.1224 106.052 55.1568 107.423 55.6212C108.794 56.0856 108.684 51.5302 105.654 52.6912Z" fill="white"/>
</g>
<g style="mix-blend-mode:soft-light">
<path d="M83.519 44.2107C83.519 44.2107 97.1961 37.6873 107.125 40.5731C117.054 43.4589 117.993 56.2513 117.993 56.2513C117.993 56.2513 113.98 43.2046 105.212 41.7341C96.4442 40.2635 83.519 44.2107 83.519 44.2107Z" fill="white"/>
</g>
<g style="mix-blend-mode:multiply" opacity="0.5">
<path d="M98.7442 115.658C98.7442 115.658 98.2356 125.499 100.524 133.858C103.089 143.211 108.817 143.886 108.817 143.886C108.817 143.886 110.232 135.671 110.354 131.602C110.486 127.544 98.7331 115.647 98.7331 115.647L98.7442 115.658Z" fill="#AB2781"/>
</g>
<path d="M150.345 103.728C148.034 106.636 142.904 110.473 137.033 114.055C131.548 117.405 125.423 120.523 120.37 122.414C116.998 123.697 114.101 124.426 112.199 124.316C104.427 123.873 103.045 110.274 104.725 107.432C106.074 105.155 123.566 101.362 127.833 98.0563C128.596 97.4703 129.216 96.9396 129.746 96.4531C133.163 93.3241 132.444 92.0636 134.932 90.1508C137.806 87.9285 142.041 83.3732 143.28 83.1631C144.507 82.953 145.657 85.2859 144.264 88.6803C144.264 88.6803 152.512 83.9702 156.116 85.7503C156.415 85.8941 156.669 86.0931 156.868 86.3363C159.146 88.9788 155.773 96.9175 150.345 103.739V103.728Z" fill="url(#paint12_linear_257_2272)"/>
<path d="M85.9073 163.047C82.2255 168.232 80.5891 174.977 78.3115 184.32C76.0449 193.663 71.379 202.917 70.0301 207.406C68.6923 211.906 68.6038 214.924 68.8581 215.709C69.1124 216.483 78.2009 217.268 87.0241 213.631C95.8472 209.993 98.9541 206.798 102.769 205.847C106.572 204.896 107.357 202.475 107.18 200.396C107.003 198.317 107.7 190.965 107.7 178.604C107.7 166.242 109.723 155.683 109.546 153.793C109.369 151.902 91.2698 155.484 85.9073 163.036V163.047Z" fill="url(#paint13_linear_257_2272)"/>
<path d="M114.588 124.117C114.588 124.117 109.192 125.189 107.191 116.09C105.179 106.99 110.364 104.878 111.58 104.502C112.797 104.126 115.627 102.988 115.627 102.988C115.627 102.988 112.697 99.1067 105.433 102.335C98.1688 105.564 95.9022 119.429 103 128.34C110.088 137.252 121.354 127.832 121.664 121.916L114.599 124.117H114.588Z" fill="url(#paint14_linear_257_2272)"/>
<path d="M85.5533 112.795C85.5533 112.795 80.4673 110.351 75.4476 116.543C70.4279 122.746 75.0827 134.941 75.0827 134.941C75.0827 134.941 77.0951 132.122 80.1135 125.532C83.1319 118.942 85.5422 112.806 85.5422 112.806L85.5533 112.795Z" fill="url(#paint15_linear_257_2272)"/>
<path d="M150.345 103.728C148.034 106.636 142.904 110.473 137.033 114.055C128.409 113.16 129.504 98.9408 129.758 96.4531C133.174 93.3241 132.456 92.0636 134.943 90.1508C137.818 87.9285 142.053 83.3732 143.291 83.1631C144.518 82.953 145.668 85.2859 144.275 88.6803C144.275 88.6803 152.523 83.9702 156.128 85.7503C159.743 87.5304 156.26 96.2983 150.345 103.739V103.728Z" fill="url(#paint16_linear_257_2272)"/>
<path d="M55.0705 135.98C50.7031 135.98 47.6073 136.544 42.9967 136.401C34.5163 136.135 31.0998 132.641 30.5691 131.724C30.0384 130.806 29.187 129.811 30.945 126.593C32.703 123.387 39.348 123.42 39.348 123.42C35.8099 122.9 35.2349 120.081 35.9205 119.064C36.617 118.047 40.9733 117.693 44.6772 117.372C47.4082 117.14 49.1884 116.123 51.8198 116.554C52.6822 116.698 53.8431 117.063 55.3911 117.416C54.1638 120.28 50.7142 129.634 55.0926 135.969L55.0705 135.98Z" fill="url(#paint17_linear_257_2272)"/>
<path d="M83.7287 166.751C83.7287 166.751 86.913 161.178 96.7533 157.275C106.594 153.383 108.916 155.982 108.949 160.095C108.949 160.095 112.487 158.403 111.547 152.2C110.806 147.269 103.763 144.914 91.3909 151.227C79.0186 157.541 78.6095 165.844 82.2692 170.2L83.7397 166.762L83.7287 166.751Z" fill="url(#paint18_linear_257_2272)"/>
<path d="M81.8164 169.603C76.8851 168.531 73.148 165.811 70.5718 162.317C66.304 156.568 65.143 148.729 66.7904 142.714C67.299 140.856 67.9182 139.408 68.5927 138.313C71.589 135.14 75.0829 134.952 75.0829 134.952L73.9662 136.445C69.433 144.063 77.8471 161.178 80.4564 166.32C80.9429 167.259 81.8053 169.614 81.8053 169.614L81.8164 169.603Z" fill="url(#paint19_linear_257_2272)"/>
<path d="M107.18 200.407C107.18 200.407 90.8608 188.51 74.2317 196.681L75.072 194.503C75.072 194.503 89.7109 186.752 107.18 200.418V200.407Z" fill="url(#paint20_linear_257_2272)"/>
<path d="M40.8845 147.435C40.8845 147.435 42.6868 164.219 37.1143 179.057C37.1143 179.057 44.4337 167.757 42.4877 147.269L40.8845 147.435Z" fill="url(#paint21_linear_257_2272)"/>
<path d="M93.9122 133.824C93.3373 133.824 92.6849 133.67 91.9552 133.249C89.4232 131.812 88.7267 126.936 89.5449 123.232C90.2193 120.18 91.7783 118.334 93.8238 118.168L93.868 118.71V118.168C94.8963 118.08 97.6604 117.848 98.8435 123.265C99.341 125.532 98.4123 131.27 95.8361 133.172C95.3717 133.515 94.7304 133.824 93.9233 133.824H93.9122ZM94.4098 119.23C94.2329 119.23 94.0781 119.241 93.9454 119.252H93.9012C91.712 119.44 90.8606 122.259 90.5953 123.464C89.7881 127.146 90.6727 131.27 92.486 132.299C93.5032 132.873 94.3877 132.873 95.1727 132.287C97.2956 130.717 98.2022 125.499 97.7599 123.486C96.9196 119.661 95.4049 119.219 94.3987 119.219L94.4098 119.23Z" fill="url(#paint22_linear_257_2272)"/>
<g style="mix-blend-mode:multiply" opacity="0.8">
<path d="M144.275 88.6582C144.275 88.6582 142.992 90.0513 142.738 91.7761C142.484 93.5009 141.677 99.3278 136.889 100.765C136.889 100.765 139.277 102.844 141.876 99.0735C144.474 95.3032 143.28 92.8486 143.589 91.2454C143.91 89.6422 144.275 88.636 144.275 88.636V88.6582Z" fill="#AB2781"/>
</g>
<path d="M104.095 155.374C104.095 155.374 101.552 185.215 97.4392 194.691L99.5731 195.62C99.5731 195.62 104.538 169.913 104.095 155.385V155.374Z" fill="url(#paint23_linear_257_2272)"/>
<g style="mix-blend-mode:multiply" opacity="0.8">
<path d="M39.3257 123.42C39.3257 123.42 41.5702 123.475 42.112 123.63C42.6648 123.785 44.268 129.059 48.5911 130.054C48.5911 130.054 45.4731 130.618 43.0517 127.246C40.6304 123.873 39.3257 123.431 39.3257 123.431V123.42Z" fill="#AB2781"/>
</g>
<g style="mix-blend-mode:multiply" opacity="0.5">
<path d="M83.5298 112.319C83.5298 112.319 78.8639 128.384 89.1576 125.974C97.3284 124.061 99.5618 109.246 99.5618 109.246C99.5618 109.246 89.3787 112.673 87.4659 112.728C85.5421 112.795 83.5298 112.319 83.5298 112.319Z" fill="#E767A7"/>
</g>
<g style="mix-blend-mode:multiply" opacity="0.5">
<path d="M99.0536 111.766C99.0536 111.766 98.0032 121.375 104.084 126.45C110.176 131.514 109.977 124.703 110.165 123.641C110.353 122.58 105.566 121.198 106.318 112.087C107.07 102.976 115.627 102.988 115.627 102.988C115.627 102.988 110.187 103.607 108.805 110.993C107.423 118.367 112.775 122.525 115.627 123.044C118.491 123.564 121.653 121.927 121.653 121.927C121.653 121.927 119.265 131.801 110.165 132.011C101.066 132.221 97.6051 119.13 99.0536 111.778V111.766Z" fill="#AB2781"/>
</g>
<g style="mix-blend-mode:multiply" opacity="0.5">
<path d="M78.3227 113.845C82.1593 112.098 80.5119 119.34 78.6544 125.742C76.7969 132.144 74.3423 132.586 74.3423 132.586L75.0941 134.941C75.0941 134.941 82.491 122.624 85.5537 112.795C85.5537 112.795 82.4689 111.214 78.3227 113.845Z" fill="#AB2781"/>
</g>
<path d="M82.2694 187.194C74.9721 184.541 79.2621 171.737 83.154 168.863C87.0459 165.977 92.2093 169.736 92.4636 177.852C92.729 185.978 84.6245 188.057 82.2694 187.194Z" fill="url(#paint24_linear_257_2272)"/>
<path d="M80.2019 183.413C78.0901 179.886 79.7596 170.621 84.3592 168.962C88.9697 167.304 90.5398 173.363 90.2855 177.354C89.8764 183.723 83.3641 188.698 80.2019 183.413Z" fill="url(#paint25_linear_257_2272)"/>
<path d="M46.0484 145.887C42.6429 148.087 50.6037 151.725 56.6737 150.652C62.5448 149.613 63.7941 144.969 63.6172 143.189C63.4403 141.409 51.4661 142.382 46.0484 145.876V145.887Z" fill="url(#paint26_linear_257_2272)"/>
<path d="M45.5064 146.318C44.9204 148.021 51.4438 150.719 56.176 149.536C60.9082 148.353 62.8984 144.273 62.4672 143.057C62.036 141.84 56.375 142.327 52.5494 143.023C48.7238 143.72 45.7607 145.555 45.4954 146.307L45.5064 146.318Z" fill="url(#paint27_linear_257_2272)"/>
<g style="mix-blend-mode:multiply" opacity="0.5">
<path d="M106.605 147.623C110.331 149.569 104.25 152.786 99.7169 155.031C95.1948 157.275 85.7967 162.063 83.2537 163.909C80.7217 165.756 82.6677 158.768 84.1714 156.291C84.1714 156.291 76.8188 163.047 82.0264 169.902L83.8286 168.454C83.8286 168.454 89.6554 159.852 98.3017 158.79C106.948 157.729 108.418 164.893 108.418 164.893L108.938 160.095C108.938 160.095 111.857 158.536 111.68 153.66C111.503 148.784 108.175 147.822 106.594 147.623H106.605Z" fill="#AB2781"/>
</g>
<g style="mix-blend-mode:multiply" opacity="0.5">
<path d="M81.8161 169.603C76.8849 168.531 73.1478 165.811 70.5716 162.317L69.1342 159.852C69.1342 159.852 75.3591 164.02 74.3419 156.756C73.3247 149.503 70.1293 137.307 68.6035 138.302C70.7264 135.505 75.0937 134.941 75.0937 134.941L73.977 136.434C69.4438 144.052 77.8579 161.167 80.4672 166.309C80.9537 167.248 81.8161 169.603 81.8161 169.603Z" fill="#AB2781"/>
</g>
<g style="mix-blend-mode:multiply" opacity="0.3">
<path d="M73.5349 137.108C73.5349 137.108 73.6896 146.738 77.3162 151.924C80.9428 157.109 86.3605 154.367 86.3605 154.367C86.3605 154.367 79.6823 160.825 80.4563 166.32C80.4563 166.32 68.5926 151.714 73.5349 137.119V137.108Z" fill="#C72781"/>
</g>
<g style="mix-blend-mode:multiply" opacity="0.5">
<path d="M66.7906 142.327L65.5081 142.592C65.5081 142.592 58.841 155.175 57.3704 163.655C55.8999 172.135 66.072 170.355 66.072 170.355L76.1666 167.403C76.1666 167.403 63.1641 158.768 66.7906 142.327Z" fill="#AB2781"/>
</g>
<g style="mix-blend-mode:multiply" opacity="0.2">
<path d="M88.7595 217.091C90.407 216.34 95.9242 203.835 99.6282 200.982C103.332 198.118 108.274 202.961 107.18 208.169C107.18 208.169 101.242 211.01 98.9316 212.105C96.6208 213.199 88.7595 217.091 88.7595 217.091Z" fill="#C22781"/>
</g>
<g style="mix-blend-mode:multiply" opacity="0.2">
<path d="M20.6843 152.2C20.6843 152.2 30.6242 156.568 34.3502 163.832C38.0874 171.096 33.2114 177.752 31.9399 178.327C30.6684 178.902 29.5738 178.327 29.5738 178.327C29.5738 178.327 27.5615 171.981 25.6045 166.043C23.6474 160.106 20.6843 152.2 20.6843 152.2Z" fill="#C22781"/>
</g>
<path d="M75.2044 196.349C73.2805 197.156 70.4611 209.451 71.5889 212.105C72.7056 214.759 88.4833 211.663 94.4981 204.233C100.513 196.803 98.0473 196.36 98.0473 196.36C98.0473 196.36 88.6492 190.755 75.2044 196.36V196.349Z" fill="#181E36"/>
<path d="M24.8529 142.327C23.4598 142.084 26.8431 151.979 31.509 158.116C36.1749 164.252 38.8617 165.391 38.8617 165.391C38.8617 165.391 42.0901 152.156 40.3321 149.381C38.5741 146.617 35.0582 144.085 24.8529 142.327Z" fill="#181E36"/>
<g style="mix-blend-mode:soft-light" opacity="0.5">
<path d="M84.8016 156.081C82.6897 158.082 90.7168 160.183 96.2672 156.081C101.818 151.979 100.668 149.469 100.668 149.469C100.668 149.469 92.6849 148.596 84.8016 156.081Z" fill="white"/>
</g>
<g style="mix-blend-mode:soft-light" opacity="0.5">
<path d="M69.2229 142.846C67.3765 142.183 66.6357 147.944 68.5927 152.963C70.5608 157.983 73.8667 157.806 74.3311 157.629C74.7954 157.452 73.4576 144.35 69.2119 142.846H69.2229Z" fill="white"/>
</g>
<g style="mix-blend-mode:soft-light" opacity="0.5">
<path d="M99.584 116.521C101.563 120.147 105.024 111.247 107.534 106.614C110.044 101.981 97.4833 102.446 99.584 116.521Z" fill="white"/>
</g>
<g style="mix-blend-mode:overlay">
<path d="M91.8445 137.738C87.5988 140.713 95.0952 142.238 95.3716 139.12C95.648 136.002 92.9944 136.931 91.8445 137.738Z" fill="white"/>
</g>
<g style="mix-blend-mode:overlay">
<path d="M29.8726 152.2C28.1146 152.499 31.3099 154.976 32.1834 155.031C33.0458 155.086 33.6429 151.57 29.8726 152.2Z" fill="white"/>
</g>
<g style="mix-blend-mode:overlay">
<path d="M92.4749 201.093C88.771 203.094 93.4036 204.73 94.5646 201.723C95.7145 198.727 93.3263 200.628 92.4749 201.093Z" fill="white"/>
</g>
<g style="mix-blend-mode:overlay">
<path d="M98.0475 167.89C94.6753 169.692 95.6372 170.908 97.4284 171.947C99.2195 172.987 99.2306 167.248 98.0475 167.89Z" fill="white"/>
</g>
<g style="mix-blend-mode:multiply" opacity="0.5">
<path d="M75.0718 194.492C75.0718 194.492 75.6357 191.142 84.4699 190.788C93.3041 190.445 101.972 196.88 101.972 196.88C101.972 196.88 89.7439 190.478 75.0718 194.492Z" fill="#D14894"/>
</g>
<g style="mix-blend-mode:multiply" opacity="0.5">
<path d="M42.4879 147.269C42.4879 147.269 44.5002 145.976 44.8097 153.936C45.1083 161.897 40.0886 172.279 40.0886 172.279C40.0886 172.279 42.4326 162.571 42.4657 155.705C42.4989 148.828 42.4879 147.28 42.4879 147.28V147.269Z" fill="#D14894"/>
</g>
<g style="mix-blend-mode:multiply" opacity="0.5">
<path d="M150.345 103.728C148.034 106.636 142.904 110.473 137.033 114.055C131.549 117.405 125.423 120.523 120.37 122.414L118.358 122.956C118.358 122.956 132.201 118.113 143.048 107.642C153.883 97.1607 156.736 88.2933 156.868 86.3253C159.146 88.9678 155.774 96.9064 150.345 103.728Z" fill="#AB2781"/>
</g>
<g style="mix-blend-mode:multiply" opacity="0.3">
<path d="M144.275 88.6582C144.275 88.6582 148.465 85.8277 150.599 88.2049C152.733 90.5821 150.666 98.9298 144.275 102.623C141.002 104.502 137.685 101.053 137.685 101.053C137.685 101.053 142.495 99.1399 142.583 95.646C142.672 92.1521 144.264 88.6582 144.264 88.6582H144.275Z" fill="#AB2781"/>
</g>
<path d="M148.921 86.1532C143.872 91.5162 140.92 97.2388 143.848 101.209C144.092 101.542 145.892 103.133 146.194 103.418C150.164 107.125 157.793 105.421 163.263 99.6103C168.733 93.7997 169.944 86.0681 165.982 82.3533C165.731 82.1172 163.592 80.0439 163.319 79.8461C159.201 76.9917 154.043 80.6968 148.928 86.1453L148.921 86.1532Z" fill="url(#paint28_radial_257_2272)"/>
<path d="M146.257 83.6458C140.787 89.4564 139.576 97.188 143.538 100.903C147.5 104.618 155.137 102.92 160.592 97.1107C166.054 91.2931 167.28 83.5607 163.318 79.8459C159.356 76.1311 151.719 77.8282 146.257 83.6458Z" fill="url(#paint29_linear_257_2272)"/>
<g style="mix-blend-mode:soft-light">
<path d="M164.69 90.763L141.211 94.8904L141.761 91.2906L165.148 82.7077C165.148 82.7077 166.379 85.5989 164.69 90.763Z" fill="#00B2FF"/>
</g>
<path d="M148.367 85.6321C144.508 89.731 143.647 95.1846 146.45 97.809C146.554 97.9062 146.657 98.0035 146.767 98.078C149.631 100.344 154.771 99.081 158.489 95.1313C162.2 91.1895 163.12 85.9986 160.716 83.2758C160.612 83.1637 160.517 83.0586 160.406 82.9545C157.617 80.3292 152.225 81.5333 148.374 85.6391L148.367 85.6321Z" fill="url(#paint30_radial_257_2272)"/>
<path d="M149.017 86.2436C145.322 90.1697 144.379 95.3546 146.769 98.0783C149.632 100.344 154.773 99.0813 158.491 95.1316C162.201 91.1898 163.122 85.9989 160.717 83.276C157.847 81.0479 152.728 82.3018 149.025 86.2505L149.017 86.2436Z" fill="url(#paint31_linear_257_2272)"/>
<path d="M149.774 95.611C149.518 95.3449 149.287 95.0289 149.143 94.6639C150.532 96.8724 153.376 96.5805 153.376 96.5805C151.386 96.0562 148.919 94.1516 149.494 91.21C150.237 87.4153 153.134 86.4838 154.72 87.0202C156.899 87.7575 157.374 91.4732 154.576 92.9786C156.044 91.9721 156.752 89.3283 155.394 88.0628C154.039 86.8001 152.175 87.5328 150.895 88.5602C150.895 88.5602 151.357 88.3233 151.984 88.1297C151.525 88.4145 150.654 89.0901 150.252 90.1591C149.791 91.3817 149.872 92.509 150.185 93.2878C151.096 95.5516 153.788 96.1557 153.788 96.1557C152.373 95.6199 150.909 94.1616 150.628 92.5592C150.518 91.9289 150.59 91.091 150.855 90.4329C151.069 89.8995 151.425 89.4186 151.849 89.0522C152.256 88.6994 152.815 88.3738 153.381 88.3848C154.088 88.3991 154.797 88.9066 154.947 89.8813C155.058 90.6097 154.704 91.3184 154.163 91.9099C154.584 91.2031 154.624 90.2961 154.261 89.7134C153.898 89.1308 153.135 88.8153 152.459 89.1739C150.986 89.9562 150.725 92.109 151.39 93.4138C151.895 94.4034 152.879 95.304 153.865 95.6012C156.036 96.2554 157.814 94.8008 158.477 94.0557C158.477 94.0557 157.009 95.2208 155.747 95.2793C158.043 94.6395 160.161 92.483 160.458 89.1841C160.458 89.1841 160.064 91.0949 158.749 92.6251C161.217 88.42 159.118 84.4317 156.379 84.0067C156.379 84.0067 158.142 84.5988 158.687 86.26C157.256 84.2052 154.322 83.5994 151.536 84.8093C151.536 84.8093 155.559 83.8446 157.431 86.4366C158.504 87.9215 158.528 89.6027 158.052 91.1305C157.929 91.5239 157.755 91.8474 157.582 92.1211C158.371 90.1823 158.232 87.4873 156.714 86.1933C155.641 85.1636 154.142 84.7648 152.489 85.1346C151.202 85.423 149.874 86.2743 148.877 87.3911C148.214 88.1344 147.788 88.9678 147.328 89.8476C147.328 89.8476 148.168 88.2411 149.185 87.5195C147.44 89.4865 146.477 92.515 147.636 95.3021C147.636 95.3021 147.208 93.8337 147.561 92.1376C147.613 95.686 150.904 99.0072 155.698 97.0974C155.698 97.0974 151.874 97.7961 149.774 95.6117L149.774 95.611ZM153.386 93.2546C153.334 93.3186 153.251 93.3322 153.203 93.2848L153.144 93.2261C153.095 93.1788 153.013 93.1923 152.961 93.2563L152.796 93.4566C152.744 93.5206 152.661 93.5341 152.613 93.4867C152.565 93.4393 152.568 93.3486 152.621 93.2846L152.786 93.0844C152.838 93.0204 152.842 92.9297 152.794 92.8823L152.734 92.8236C152.686 92.7762 152.689 92.6855 152.742 92.6215C152.794 92.5575 152.876 92.544 152.925 92.5914L152.984 92.65C153.033 92.6974 153.115 92.6839 153.167 92.6198L153.332 92.4196C153.384 92.3556 153.466 92.342 153.515 92.3894C153.563 92.4368 153.559 92.5275 153.507 92.5915L153.342 92.7918C153.29 92.8558 153.286 92.9465 153.334 92.9939L153.394 93.0525C153.442 93.0999 153.439 93.1906 153.386 93.2546ZM153.354 94.5069C153.336 94.5295 153.307 94.5342 153.29 94.5175L153.27 94.4971C153.253 94.4804 153.224 94.4851 153.206 94.5077L153.148 94.5774C153.13 94.6 153.101 94.6047 153.084 94.588C153.067 94.5713 153.068 94.5398 153.087 94.5173L153.144 94.4475C153.163 94.4249 153.164 94.3935 153.147 94.3768L153.126 94.3565C153.109 94.3397 153.111 94.3083 153.129 94.2858C153.148 94.2632 153.176 94.2585 153.193 94.2752L153.214 94.2956C153.231 94.312 153.259 94.3076 153.278 94.285L153.335 94.2152C153.354 94.1927 153.382 94.188 153.399 94.2047C153.416 94.2214 153.415 94.2528 153.396 94.2754L153.339 94.3452C153.321 94.3677 153.319 94.3991 153.336 94.4159L153.357 94.4362C153.374 94.4529 153.373 94.4843 153.354 94.5069ZM159.119 88.376C159.1 88.3986 159.072 88.4033 159.055 88.3866L159.034 88.3662C159.017 88.3495 158.989 88.3542 158.97 88.3768L158.913 88.4465C158.894 88.4691 158.866 88.4738 158.849 88.4571C158.832 88.4404 158.833 88.4089 158.852 88.3864L158.909 88.3166C158.927 88.294 158.929 88.2626 158.912 88.2459L158.891 88.2256C158.874 88.2089 158.875 88.1774 158.894 88.1549C158.912 88.1323 158.941 88.1276 158.958 88.1443L158.978 88.1647C158.995 88.1814 159.024 88.1767 159.042 88.1541L159.1 88.0843C159.118 88.0618 159.147 88.0571 159.164 88.0738C159.181 88.0905 159.179 88.1219 159.161 88.1445L159.104 88.2143C159.085 88.2368 159.084 88.2683 159.101 88.285L159.122 88.3053C159.139 88.322 159.137 88.3534 159.119 88.376ZM158.748 92.6252C158.718 92.6611 158.686 92.6964 158.655 92.7314C158.687 92.6753 158.719 92.6187 158.75 92.5611L158.748 92.6252ZM156.089 94.3699C156.108 94.3473 156.136 94.3426 156.153 94.3594L156.174 94.3797C156.191 94.3964 156.219 94.3917 156.238 94.3692L156.295 94.2994C156.314 94.2768 156.342 94.2721 156.359 94.2888C156.376 94.3056 156.375 94.337 156.357 94.3595L156.299 94.4293C156.281 94.4519 156.279 94.4833 156.296 94.5L156.317 94.5204C156.334 94.5371 156.333 94.5685 156.314 94.5911C156.296 94.6136 156.267 94.6183 156.25 94.6016L156.23 94.5813C156.213 94.5646 156.184 94.5692 156.166 94.5918L156.108 94.6616C156.09 94.6841 156.061 94.6888 156.044 94.6721C156.027 94.6554 156.029 94.624 156.047 94.6014L156.105 94.5317C156.123 94.5091 156.124 94.4777 156.107 94.461L156.087 94.4406C156.07 94.4239 156.071 94.3925 156.089 94.3699ZM156.135 93.0338C156.164 92.9985 156.209 92.9914 156.235 93.0173L156.268 93.0495C156.294 93.0756 156.339 93.0678 156.368 93.0329L156.458 92.923C156.487 92.8877 156.532 92.8803 156.558 92.9064C156.585 92.9326 156.583 92.9823 156.554 93.0171L156.464 93.1271C156.435 93.1624 156.433 93.2117 156.459 93.2378L156.492 93.27C156.519 93.2961 156.517 93.3454 156.488 93.3807C156.459 93.416 156.414 93.423 156.388 93.3972L156.355 93.365C156.328 93.3389 156.284 93.3463 156.255 93.3815L156.164 93.4915C156.135 93.5268 156.091 93.5339 156.064 93.508C156.038 93.4822 156.04 93.4322 156.069 93.3973L156.159 93.2874C156.188 93.2521 156.19 93.2028 156.163 93.1767L156.13 93.1445C156.104 93.1183 156.106 93.0687 156.135 93.0338ZM156.103 86.9074C156.129 86.8766 156.168 86.8705 156.191 86.893L156.219 86.921C156.242 86.9437 156.282 86.9369 156.306 86.9066L156.385 86.8105C156.411 86.7798 156.45 86.7737 156.473 86.7962C156.496 86.8186 156.494 86.8622 156.469 86.8926L156.39 86.9886C156.365 87.0194 156.363 87.0625 156.386 87.085L156.415 87.1129C156.438 87.1357 156.436 87.179 156.411 87.2094C156.386 87.2401 156.346 87.2462 156.324 87.2237L156.295 87.1958C156.272 87.173 156.233 87.1798 156.208 87.2102L156.129 87.3062C156.104 87.337 156.065 87.3431 156.042 87.3206C156.019 87.2981 156.021 87.2546 156.046 87.2242L156.124 87.1282C156.15 87.0974 156.151 87.0542 156.128 87.0318L156.1 87.0038C156.077 86.981 156.079 86.9378 156.103 86.9074ZM155.558 86.2459C155.577 86.2233 155.605 86.2186 155.622 86.2353L155.643 86.2557C155.66 86.2724 155.689 86.2677 155.707 86.2451L155.764 86.1753C155.783 86.1528 155.811 86.1481 155.828 86.1648C155.845 86.1815 155.844 86.2129 155.826 86.2355L155.768 86.3053C155.75 86.3278 155.749 86.3593 155.766 86.376L155.786 86.3963C155.803 86.413 155.802 86.4444 155.784 86.467C155.765 86.4896 155.737 86.4943 155.72 86.4776L155.699 86.4572C155.682 86.4405 155.653 86.4452 155.635 86.4678L155.578 86.5375C155.559 86.5601 155.531 86.5648 155.514 86.5481C155.497 86.5314 155.498 86.4999 155.516 86.4774L155.574 86.4076C155.592 86.385 155.593 86.3536 155.576 86.3369L155.556 86.3166C155.539 86.2999 155.54 86.2684 155.558 86.2459ZM148.758 89.8095C148.739 89.8321 148.711 89.8368 148.694 89.82L148.673 89.7997C148.656 89.783 148.627 89.7877 148.609 89.8102L148.552 89.88C148.533 89.9026 148.505 89.9073 148.488 89.8906C148.471 89.8739 148.472 89.8424 148.49 89.8199L148.548 89.7501C148.566 89.7275 148.567 89.6961 148.55 89.6794L148.53 89.659C148.513 89.6423 148.514 89.6109 148.532 89.5883C148.551 89.5658 148.579 89.5611 148.596 89.5778L148.617 89.5981C148.634 89.6149 148.663 89.6102 148.681 89.5876L148.738 89.5178C148.757 89.4953 148.785 89.4906 148.802 89.5073C148.819 89.524 148.818 89.5554 148.8 89.578L148.742 89.6477C148.724 89.6703 148.723 89.7017 148.74 89.7184L148.76 89.7388C148.777 89.7555 148.776 89.7869 148.758 89.8095ZM151.913 86.3956L151.892 86.3753C151.875 86.3586 151.847 86.3633 151.828 86.3858L151.771 86.4556C151.753 86.4782 151.724 86.4829 151.707 86.4662C151.69 86.4494 151.691 86.418 151.71 86.3955L151.767 86.3257C151.786 86.3031 151.787 86.2717 151.77 86.255L151.749 86.2346C151.732 86.2179 151.733 86.1865 151.752 86.1639C151.771 86.1414 151.799 86.1367 151.816 86.1534L151.837 86.1737C151.854 86.1904 151.882 86.1858 151.901 86.1632L151.958 86.0934C151.977 86.0709 152.005 86.0662 152.022 86.0829C152.039 86.0996 152.038 86.131 152.019 86.1536L151.962 86.2233C151.943 86.2459 151.942 86.2773 151.959 86.294L151.98 86.3144C151.997 86.3311 151.996 86.3625 151.977 86.3851C151.959 86.4077 151.93 86.4123 151.913 86.3956ZM148.656 91.1928C148.627 91.2281 148.582 91.2355 148.556 91.2094L148.523 91.1772C148.496 91.151 148.452 91.1584 148.423 91.1937L148.332 91.3036C148.303 91.3389 148.259 91.3463 148.232 91.3202C148.206 91.294 148.208 91.2448 148.237 91.2095L148.327 91.0995C148.356 91.0642 148.358 91.0146 148.331 90.9888L148.298 90.9566C148.272 90.9305 148.274 90.8812 148.303 90.8459C148.332 90.8106 148.376 90.8033 148.403 90.8294L148.436 90.8616C148.462 90.8877 148.507 90.8804 148.536 90.8451L148.626 90.7351C148.655 90.6998 148.7 90.6924 148.726 90.7186C148.753 90.7447 148.751 90.794 148.722 90.8293L148.632 90.9392C148.603 90.9745 148.601 91.0241 148.627 91.0499L148.66 91.0821C148.687 91.1083 148.685 91.158 148.656 91.1928Z" fill="url(#paint32_radial_257_2272)"/>
<path d="M147.756 83.9306C147.365 83.5921 146.708 83.699 146.279 84.1841C145.85 84.6691 145.82 85.3368 146.211 85.6753C146.602 86.0138 147.259 85.9068 147.688 85.4218C148.117 84.9368 148.147 84.2691 147.756 83.9306Z" fill="url(#paint33_radial_257_2272)"/>
<path d="M147.748 84.1454C147.416 83.8477 146.855 83.9562 146.485 84.3636C146.116 84.771 146.093 85.342 146.425 85.6398C146.757 85.9375 147.318 85.8291 147.688 85.4217C148.05 85.0073 148.08 84.4432 147.748 84.1454Z" fill="url(#paint34_linear_257_2272)"/>
<path d="M161.947 80.5525C161.556 80.214 160.898 80.321 160.47 80.806C160.041 81.291 160.011 81.9587 160.402 82.2972C160.793 82.6357 161.45 82.5288 161.879 82.0438C162.308 81.5587 162.338 80.891 161.947 80.5525Z" fill="url(#paint35_radial_257_2272)"/>
<path d="M161.932 80.7594C161.6 80.4617 161.039 80.5701 160.669 80.9775C160.3 81.3849 160.277 81.956 160.609 82.2537C160.941 82.5515 161.502 82.443 161.872 82.0356C162.234 81.6213 162.264 81.0571 161.932 80.7594Z" fill="url(#paint36_linear_257_2272)"/>
<path d="M145.441 98.1148C145.05 97.7763 144.392 97.8832 143.964 98.3683C143.535 98.8533 143.505 99.521 143.896 99.8595C144.287 100.198 144.944 100.091 145.373 99.606C145.802 99.121 145.832 98.4533 145.441 98.1148Z" fill="url(#paint37_radial_257_2272)"/>
<path d="M145.426 98.3381C145.094 98.0404 144.532 98.1489 144.163 98.5563C143.801 98.9706 143.771 99.5347 144.103 99.8325C144.435 100.13 144.996 100.022 145.365 99.6143C145.735 99.2069 145.758 98.6359 145.426 98.3381Z" fill="url(#paint38_linear_257_2272)"/>
<path d="M160.04 95.4649C159.649 95.1264 158.992 95.2333 158.563 95.7184C158.134 96.2034 158.104 96.8711 158.495 97.2096C158.886 97.5481 159.544 97.4411 159.972 96.9561C160.401 96.4711 160.431 95.8034 160.04 95.4649Z" fill="url(#paint39_radial_257_2272)"/>
<path d="M160.033 95.6801C159.701 95.3824 159.139 95.4908 158.77 95.8982C158.408 96.3126 158.377 96.8767 158.709 97.1744C159.041 97.4722 159.603 97.3637 159.972 96.9563C160.342 96.5489 160.365 95.9779 160.033 95.6801Z" fill="url(#paint40_linear_257_2272)"/>
<g style="mix-blend-mode:soft-light">
<path d="M167.316 93.2354L164.689 90.7629C164.689 90.7629 166.221 87.7317 165.406 82.9507L167.914 85.5193C167.914 85.5193 168.929 90.0143 167.316 93.2354Z" fill="#00B2FF"/>
</g>
<path d="M165.09 89.4518C164.972 89.7846 164.103 86.8786 164.473 85.6721C164.844 84.4657 165.118 83.6572 165.42 83.72C165.723 83.7828 165.845 87.3931 165.09 89.4518Z" fill="white"/>
<path d="M141.512 94.9526C142.021 95.8017 142.083 92.3651 141.832 92.2769C141.581 92.1888 141.055 94.1816 141.512 94.9526Z" fill="white"/>
<path d="M139.653 97.4264C137.342 100.334 135.755 92.7737 129.884 96.356C129.63 98.8437 129.798 96.4351 129.884 96.356C133.301 93.227 132.582 91.9665 135.07 90.0537C137.945 87.8314 142.18 83.2761 143.418 83.066C144.645 82.8559 145.795 85.1888 144.402 88.5832C144.402 88.5832 143.522 92.4509 141.311 96.3208L139.653 97.4264Z" fill="url(#paint41_linear_257_2272)"/>
<g style="mix-blend-mode:multiply" opacity="0.3">
<path d="M39.326 123.42C39.326 123.42 34.24 123.387 31.9402 126.162C29.6515 128.926 35.1134 133.426 40.8518 133.338C46.5902 133.249 48.3371 130.043 47.7953 129.811C47.2646 129.579 44.3567 129.004 43.3506 126.439C42.3444 123.873 39.3149 123.42 39.3149 123.42H39.326Z" fill="#AB2781"/>
</g>
<g style="mix-blend-mode:multiply" opacity="0.2">
<path d="M144.131 83.4285C143.07 82.8867 140.936 84.899 140.792 87.9285C140.648 90.958 141.942 91.9641 142.263 91.7098C142.583 91.4555 143.401 90.2504 144.131 88.8351C144.861 87.4199 145.425 84.1029 144.131 83.4395V83.4285Z" fill="#AB2781"/>
</g>
<g style="mix-blend-mode:multiply" opacity="0.2">
<path d="M35.6771 119.672C36.9044 118.467 36.2299 121.275 41.9793 123.188L42.112 123.63C42.112 123.63 40.6083 123.63 38.0985 122.956C35.5886 122.281 35.666 119.661 35.666 119.661L35.6771 119.672Z" fill="#AB2781"/>
</g>
<path d="M34.1927 119.559C41.5102 120.398 47.4578 122.865 47.7831 127.788C47.8119 128.199 47.4632 130.577 47.4158 130.989C46.7754 136.382 39.8471 140.004 31.9189 139.094C23.9908 138.185 18.0768 133.059 18.7065 127.665C18.7458 127.323 19.0425 124.358 19.1235 124.031C20.4274 119.193 26.7586 118.696 34.182 119.558L34.1927 119.559Z" fill="url(#paint42_radial_257_2272)"/>
<path d="M34.6097 115.924C42.5379 116.834 48.4519 121.959 47.8221 127.354C47.1924 132.748 40.2629 136.379 32.3467 135.461C24.4197 134.541 18.4938 129.425 19.1235 124.03C19.7533 118.636 26.6827 115.005 34.6097 115.924Z" fill="url(#paint43_linear_257_2272)"/>
<g style="mix-blend-mode:soft-light">
<path d="M25.1204 133.256L45.7205 121.259L42.9777 118.864L19.5727 127.397C19.5727 127.397 20.4983 130.4 25.1204 133.256Z" fill="#00B2FF"/>
</g>
<path d="M34.2799 118.803C39.8724 119.445 44.0498 123.055 43.6014 126.869C43.5852 127.01 43.569 127.151 43.5326 127.279C42.8073 130.858 38.0653 133.21 32.6763 132.592C27.298 131.975 23.2452 128.603 23.3254 124.971C23.332 124.819 23.3374 124.677 23.3548 124.526C23.7913 120.721 28.6873 118.162 34.2787 118.813L34.2799 118.803Z" fill="url(#paint44_radial_257_2272)"/>
<path d="M34.1773 119.69C39.5342 120.305 43.6 123.657 43.5317 127.28C42.8064 130.859 38.0643 133.211 32.6753 132.593C27.297 131.976 23.2443 128.604 23.3244 124.972C24.0796 121.418 28.799 119.073 34.1762 119.7L34.1773 119.69Z" fill="url(#paint45_linear_257_2272)"/>
<path d="M39.6109 127.487C39.4832 127.834 39.2998 128.179 39.0344 128.469C40.4146 126.254 38.9105 123.823 38.9105 123.823C39.3078 125.843 38.6714 128.894 35.7737 129.66C32.0355 130.649 29.9323 128.448 29.7228 126.788C29.4346 124.505 32.5703 122.456 35.1464 124.316C33.5999 123.435 30.9123 123.952 30.3665 125.726C29.8219 127.496 31.2951 128.854 32.7782 129.557C32.7782 129.557 32.3632 129.244 31.9152 128.764C32.3721 129.054 33.3599 129.542 34.4974 129.437C35.7985 129.318 36.7773 128.753 37.3412 128.131C38.9805 126.324 38.3486 123.638 38.3486 123.638C38.4843 125.145 37.8115 127.099 36.4924 128.051C35.9734 128.425 35.1879 128.726 34.4803 128.775C33.9069 128.815 33.3189 128.705 32.8044 128.484C32.309 128.271 31.7722 127.911 31.535 127.397C31.239 126.754 31.3864 125.895 32.1979 125.335C32.8043 124.916 33.5966 124.925 34.3649 125.154C33.5454 125.084 32.712 125.444 32.3462 126.025C31.9804 126.606 32.0299 127.43 32.6473 127.881C33.9944 128.866 36.0452 128.161 36.9286 126.992C37.5986 126.106 37.979 124.827 37.8161 123.811C37.4568 121.572 35.3722 120.608 34.4121 120.336C34.4121 120.336 36.1013 121.148 36.7049 122.258C35.1268 120.472 32.2619 119.507 29.1647 120.681C29.1647 120.681 31.0555 120.201 33.0065 120.716C28.1458 120.332 25.4739 123.961 26.2871 126.61C26.2871 126.61 26.0505 124.767 27.3068 123.55C26.0829 125.735 26.8188 128.639 29.1238 130.618C29.1238 130.618 26.4994 127.419 28.0139 124.603C28.8818 122.99 30.3838 122.234 31.9661 121.996C32.3736 121.934 32.7407 121.95 33.0624 121.986C30.9736 122.122 28.6097 123.424 28.1082 125.355C27.6503 126.769 27.9459 128.292 29.0004 129.618C29.8214 130.65 31.1673 131.473 32.6071 131.882C33.5654 132.154 34.5011 132.174 35.4935 132.204C35.4935 132.204 33.6815 132.149 32.5881 131.549C35.1198 132.261 38.265 131.805 40.2662 129.545C40.2662 129.545 39.132 130.571 37.4522 130.995C40.6219 129.399 42.1732 124.988 38.3622 121.509C38.3622 121.509 40.6602 124.644 39.6116 127.487L39.6109 127.487ZM35.914 125.266C35.9945 125.285 36.0425 125.353 36.021 125.417L35.9943 125.497C35.9727 125.561 36.0207 125.629 36.1013 125.648L36.3532 125.709C36.4338 125.728 36.4818 125.796 36.4602 125.86C36.4387 125.924 36.3555 125.961 36.275 125.941L36.023 125.881C35.9424 125.861 35.8593 125.898 35.8377 125.962L35.811 126.041C35.7894 126.105 35.7063 126.142 35.6257 126.122C35.5452 126.103 35.4972 126.035 35.5187 125.971L35.5454 125.891C35.567 125.827 35.519 125.759 35.4384 125.74L35.1864 125.679C35.1059 125.66 35.0579 125.592 35.0794 125.528C35.101 125.464 35.1842 125.428 35.2647 125.447L35.5167 125.508C35.5973 125.527 35.6804 125.491 35.702 125.426L35.7287 125.347C35.7503 125.283 35.8334 125.247 35.914 125.266ZM37.0545 124.748C37.0829 124.755 37.0996 124.778 37.092 124.801L37.0827 124.828C37.0751 124.851 37.0917 124.875 37.1201 124.881L37.2079 124.903C37.2363 124.909 37.253 124.933 37.2454 124.956C37.2377 124.978 37.2089 124.991 37.1805 124.984L37.0928 124.963C37.0644 124.956 37.0355 124.969 37.0279 124.991L37.0187 125.019C37.0111 125.041 36.9823 125.054 36.9539 125.047C36.9255 125.04 36.9088 125.017 36.9164 124.994L36.9257 124.967C36.9332 124.944 36.9167 124.92 36.8883 124.914L36.8005 124.893C36.7721 124.886 36.7555 124.862 36.7631 124.84C36.7707 124.817 36.7995 124.804 36.8279 124.811L36.9157 124.832C36.9441 124.839 36.9729 124.827 36.9805 124.804L36.9897 124.776C36.9973 124.754 37.0261 124.741 37.0545 124.748ZM29.0222 122.238C29.0506 122.245 29.0672 122.269 29.0596 122.291L29.0503 122.319C29.0427 122.341 29.0594 122.365 29.0878 122.372L29.1755 122.393C29.2039 122.4 29.2206 122.423 29.213 122.446C29.2054 122.468 29.1766 122.481 29.1482 122.474L29.0604 122.453C29.032 122.446 29.0032 122.459 28.9956 122.482L28.9863 122.509C28.9787 122.532 28.9499 122.544 28.9215 122.537C28.8931 122.531 28.8764 122.507 28.8841 122.484L28.8933 122.457C28.9009 122.434 28.8843 122.411 28.8559 122.404L28.7681 122.383C28.7397 122.376 28.7231 122.353 28.7307 122.33C28.7383 122.307 28.7671 122.295 28.7955 122.302L28.8833 122.323C28.9117 122.329 28.9405 122.317 28.9481 122.294L28.9574 122.267C28.965 122.244 28.9938 122.232 29.0222 122.238ZM33.0069 120.717C33.0525 120.729 33.0979 120.741 33.1432 120.754C33.0784 120.749 33.0138 120.746 32.9483 120.743L33.0069 120.717ZM35.7373 122.347C35.7089 122.34 35.6922 122.317 35.6998 122.294L35.7091 122.267C35.7167 122.244 35.7001 122.221 35.6717 122.214L35.5839 122.193C35.5555 122.186 35.5389 122.162 35.5465 122.14C35.5541 122.117 35.5829 122.104 35.6113 122.111L35.6991 122.132C35.7275 122.139 35.7563 122.127 35.7639 122.104L35.7731 122.076C35.7807 122.054 35.8095 122.041 35.8379 122.048C35.8663 122.055 35.883 122.078 35.8754 122.101L35.8661 122.129C35.8585 122.151 35.8751 122.175 35.9035 122.182L35.9913 122.203C36.0197 122.209 36.0364 122.233 36.0288 122.256C36.0211 122.278 35.9923 122.291 35.9639 122.284L35.8762 122.263C35.8478 122.256 35.8189 122.269 35.8113 122.291L35.8021 122.319C35.7945 122.341 35.7657 122.354 35.7373 122.347ZM34.5153 122.89C34.4709 122.879 34.445 122.842 34.4567 122.807L34.4714 122.763C34.4833 122.728 34.4567 122.691 34.4128 122.68L34.2744 122.647C34.23 122.636 34.2039 122.599 34.2158 122.564C34.2277 122.529 34.2734 122.509 34.3173 122.52L34.4557 122.553C34.5001 122.563 34.5453 122.544 34.5571 122.508L34.5718 122.465C34.5837 122.429 34.6289 122.41 34.6733 122.42C34.7177 122.431 34.7436 122.468 34.7319 122.503L34.7172 122.547C34.7053 122.582 34.7314 122.619 34.7758 122.63L34.9142 122.663C34.9586 122.674 34.9846 122.711 34.9728 122.746C34.9611 122.781 34.9152 122.801 34.8713 122.79L34.7329 122.757C34.6885 122.746 34.6434 122.766 34.6315 122.802L34.6168 122.845C34.6049 122.88 34.5592 122.9 34.5153 122.89ZM29.0172 125.592C28.9785 125.583 28.956 125.55 28.9662 125.52L28.9789 125.482C28.9893 125.451 28.9661 125.419 28.9279 125.41L28.8071 125.381C28.7683 125.372 28.7458 125.339 28.756 125.309C28.7663 125.278 28.8062 125.261 28.8444 125.27L28.9652 125.299C29.004 125.308 29.0434 125.291 29.0536 125.26L29.0663 125.223C29.0767 125.192 29.1165 125.175 29.1547 125.184C29.1935 125.193 29.216 125.226 29.2058 125.256L29.193 125.294C29.1827 125.325 29.2059 125.357 29.2441 125.366L29.3649 125.395C29.4036 125.405 29.4262 125.437 29.4159 125.467C29.4057 125.498 29.3658 125.515 29.3276 125.506L29.2067 125.477C29.168 125.468 29.1286 125.485 29.1184 125.516L29.1056 125.554C29.0953 125.584 29.0555 125.601 29.0172 125.592ZM28.66 126.371C28.6316 126.365 28.615 126.341 28.6226 126.318L28.6319 126.291C28.6395 126.268 28.6228 126.245 28.5944 126.238L28.5067 126.217C28.4783 126.21 28.4616 126.187 28.4692 126.164C28.4768 126.141 28.5056 126.129 28.534 126.136L28.6218 126.157C28.6502 126.163 28.679 126.151 28.6866 126.128L28.6959 126.101C28.7035 126.078 28.7323 126.066 28.7607 126.072C28.7891 126.079 28.8058 126.103 28.7982 126.125L28.7889 126.153C28.7813 126.175 28.7979 126.199 28.8263 126.206L28.9141 126.227C28.9425 126.234 28.9591 126.257 28.9515 126.28C28.9439 126.302 28.9151 126.315 28.8867 126.308L28.7989 126.287C28.7705 126.28 28.7417 126.293 28.7341 126.316L28.7249 126.343C28.7172 126.366 28.6884 126.378 28.66 126.371ZM34.8352 130.934C34.8636 130.941 34.8802 130.965 34.8726 130.987L34.8633 131.015C34.8557 131.037 34.8724 131.061 34.9008 131.068L34.9885 131.089C35.017 131.096 35.0336 131.119 35.026 131.142C35.0184 131.164 34.9896 131.177 34.9612 131.17L34.8734 131.149C34.845 131.142 34.8162 131.155 34.8086 131.177L34.7993 131.205C34.7917 131.228 34.7629 131.24 34.7345 131.233C34.7061 131.227 34.6895 131.203 34.6971 131.18L34.7063 131.153C34.7139 131.13 34.6973 131.107 34.6689 131.1L34.5811 131.079C34.5527 131.072 34.5361 131.048 34.5437 131.026C34.5513 131.003 34.5801 130.991 34.6085 130.997L34.6963 131.019C34.7247 131.025 34.7535 131.013 34.7611 130.99L34.7704 130.963C34.778 130.94 34.8068 130.927 34.8352 130.934ZM30.3862 129.586L30.3769 129.613C30.3693 129.636 30.3859 129.659 30.4143 129.666L30.5021 129.687C30.5305 129.694 30.5472 129.718 30.5396 129.74C30.5319 129.763 30.5031 129.775 30.4747 129.769L30.387 129.747C30.3586 129.741 30.3298 129.753 30.3221 129.776L30.3129 129.803C30.3053 129.826 30.2765 129.839 30.2481 129.832C30.2197 129.825 30.203 129.801 30.2106 129.779L30.2199 129.751C30.2275 129.729 30.2109 129.705 30.1825 129.698L30.0947 129.677C30.0663 129.67 30.0497 129.647 30.0573 129.624C30.0649 129.602 30.0937 129.589 30.1221 129.596L30.2099 129.617C30.2383 129.624 30.2671 129.611 30.2747 129.589L30.2839 129.561C30.2915 129.538 30.3204 129.526 30.3488 129.533C30.3772 129.539 30.3938 129.563 30.3862 129.586ZM36.1241 130.422C36.1685 130.432 36.1946 130.469 36.1827 130.505L36.168 130.548C36.1561 130.584 36.1822 130.62 36.2266 130.631L36.365 130.664C36.4094 130.675 36.4355 130.712 36.4236 130.747C36.4117 130.783 36.3665 130.802 36.3221 130.792L36.1837 130.759C36.1393 130.748 36.094 130.768 36.0823 130.803L36.0676 130.846C36.0557 130.882 36.0105 130.902 35.9661 130.891C35.9217 130.88 35.8956 130.843 35.9075 130.808L35.9222 130.764C35.9341 130.729 35.908 130.692 35.8636 130.682L35.7252 130.648C35.6808 130.638 35.6547 130.601 35.6666 130.565C35.6785 130.53 35.7237 130.51 35.7681 130.521L35.9065 130.554C35.9509 130.565 35.9962 130.545 36.0079 130.51L36.0226 130.466C36.0345 130.431 36.0802 130.411 36.1241 130.422Z" fill="url(#paint46_radial_257_2272)"/>
<path d="M33.648 117.109C33.7283 116.598 34.2995 116.256 34.94 116.35C35.5805 116.444 36.0344 116.934 35.9541 117.445C35.8737 117.956 35.3026 118.299 34.6621 118.205C34.0215 118.111 33.5677 117.62 33.648 117.109Z" fill="url(#paint47_radial_257_2272)"/>
<path d="M33.7929 117.268C33.8545 116.827 34.3533 116.547 34.8985 116.62C35.4437 116.693 35.8296 117.114 35.768 117.556C35.7065 117.998 35.2077 118.277 34.6625 118.204C34.1184 118.122 33.7314 117.71 33.7929 117.268Z" fill="url(#paint48_linear_257_2272)"/>
<path d="M20.6272 123.685C20.7076 123.174 21.2787 122.832 21.9192 122.926C22.5598 123.02 23.0136 123.51 22.9333 124.021C22.853 124.532 22.2818 124.875 21.6413 124.781C21.0008 124.687 20.5469 124.196 20.6272 123.685Z" fill="url(#paint49_radial_257_2272)"/>
<path d="M20.7722 123.834C20.8337 123.392 21.3325 123.113 21.8777 123.185C22.423 123.258 22.8088 123.68 22.7473 124.121C22.6857 124.563 22.1869 124.842 21.6417 124.77C21.0976 124.687 20.7106 124.275 20.7722 123.834Z" fill="url(#paint50_linear_257_2272)"/>
<path d="M44.5696 126.451C44.6499 125.94 45.2211 125.598 45.8616 125.692C46.5021 125.786 46.956 126.276 46.8757 126.787C46.7954 127.298 46.2242 127.641 45.5837 127.547C44.9432 127.453 44.4893 126.962 44.5696 126.451Z" fill="url(#paint51_radial_257_2272)"/>
<path d="M44.7251 126.612C44.7866 126.171 45.2854 125.891 45.8306 125.964C46.3747 126.047 46.7617 126.458 46.7002 126.9C46.6386 127.342 46.1398 127.621 45.5946 127.548C45.0493 127.476 44.6635 127.054 44.7251 126.612Z" fill="url(#paint52_linear_257_2272)"/>
<path d="M31.7061 133.848C31.7864 133.337 32.3576 132.994 32.9981 133.088C33.6386 133.182 34.0925 133.673 34.0122 134.184C33.9318 134.695 33.3607 135.037 32.7202 134.943C32.0797 134.849 31.6258 134.359 31.7061 133.848Z" fill="url(#paint53_radial_257_2272)"/>
<path d="M31.851 134.007C31.9126 133.565 32.4114 133.286 32.9566 133.359C33.5007 133.442 33.8877 133.853 33.8261 134.295C33.7646 134.737 33.2658 135.016 32.7206 134.943C32.1753 134.87 31.7895 134.449 31.851 134.007Z" fill="url(#paint54_linear_257_2272)"/>
<g style="mix-blend-mode:soft-light">
<path d="M24.7095 136.839L25.1207 133.255C25.1207 133.255 21.9948 131.928 19.5326 127.749L19.2737 131.33C19.2737 131.33 21.3989 135.419 24.7095 136.839Z" fill="#00B2FF"/>
</g>
<path d="M23.968 132.512C24.2732 132.69 23.0617 129.91 22.0003 129.227C20.9389 128.544 20.2079 128.103 20.0172 128.347C19.8264 128.59 22.0627 131.427 23.968 132.512Z" fill="white"/>
<path d="M45.5303 121.501C45.6896 122.478 43.4245 119.892 43.5593 119.663C43.6942 119.434 45.382 120.617 45.5303 121.501Z" fill="white"/>
<path d="M55.3643 135.754C50.9969 135.754 48.6017 136.553 43.9911 136.409C43.4604 135.492 46.2152 137.783 48.9793 127.832C50.7373 124.626 39.6418 123.194 39.6418 123.194C36.1037 122.674 35.5288 119.855 36.2143 118.838C36.9108 117.821 41.2671 117.467 44.9711 117.146C47.702 116.914 49.4822 115.897 52.1136 116.328C52.976 116.472 54.137 116.837 55.6849 117.19C54.4576 120.054 51.008 129.408 55.3864 135.743L55.3643 135.754Z" fill="url(#paint55_linear_257_2272)"/>
<g style="mix-blend-mode:multiply" opacity="0.2">
<path d="M113.538 122.204C111.326 120.413 120.16 112.927 125.092 111.623C130.023 110.318 135.297 113.978 135.297 113.978C135.297 113.978 122.803 124.891 113.538 122.204Z" fill="#C42781"/>
</g>
<g style="mix-blend-mode:multiply" opacity="0.5">
<path d="M76.1664 167.403C76.1664 167.403 72.9268 168.465 68.2499 165.899C63.573 163.334 66.5914 153.317 66.5914 153.317C66.5914 153.317 68.5927 162.538 76.1664 167.414V167.403Z" fill="#AB2781"/>
</g>
<g style="mix-blend-mode:multiply" opacity="0.2">
<path d="M41.2385 117.693C41.2385 117.693 42.0125 118.677 45.6612 118.677C49.3098 118.677 50.2718 116.698 50.0396 116.587C49.8185 116.477 48.2041 116.565 46.4683 117.085C44.7324 117.615 41.2385 117.682 41.2385 117.682V117.693Z" fill="#AB2781"/>
</g>
<g style="mix-blend-mode:overlay">
<path d="M115.03 106.172C111.437 108.814 115.196 109.411 117.993 107.134C118.59 106.647 117.65 104.248 115.03 106.172Z" fill="white"/>
</g>
<g style="mix-blend-mode:multiply" opacity="0.5">
<path d="M55.0706 135.98C55.0706 135.98 61.5276 135.859 66.7021 134.112C71.8766 132.365 73.5129 128.882 73.5129 128.882C73.5129 128.882 74.3201 133.216 74.8287 134.134C74.8287 134.134 70.4613 136.6 55.0706 135.98Z" fill="#AB2781"/>
</g>
<path d="M104.714 40.0535C104.714 40.0535 104.504 41.0486 106.749 42.11C108.993 43.1825 111.171 42.5744 111.171 42.5744C111.171 42.5744 110.055 39.965 104.714 40.0535Z" fill="white"/>
<defs>
<linearGradient id="paint0_linear_257_2272" x1="51.114" y1="88.0753" x2="71.8577" y2="2.88343" gradientUnits="userSpaceOnUse">
<stop stop-color="#121936"/>
<stop offset="0.38" stop-color="#1A1F3A"/>
<stop offset="0.97" stop-color="#303146"/>
<stop offset="1" stop-color="#323247"/>
</linearGradient>
<linearGradient id="paint1_linear_257_2272" x1="84.095" y1="219.243" x2="84.8888" y2="201.757" gradientUnits="userSpaceOnUse">
<stop stop-color="#E5222C"/>
<stop offset="1" stop-color="#801212"/>
</linearGradient>
<linearGradient id="paint2_linear_257_2272" x1="24.7544" y1="178.565" x2="32.6458" y2="144.404" gradientUnits="userSpaceOnUse">
<stop stop-color="#E5222C"/>
<stop offset="1" stop-color="#801212"/>
</linearGradient>
<linearGradient id="paint3_linear_257_2272" x1="48.9048" y1="179.062" x2="55.3788" y2="138.789" gradientUnits="userSpaceOnUse">
<stop stop-color="#0E142B"/>
<stop offset="0.43" stop-color="#161A2F"/>
<stop offset="1" stop-color="#29293B"/>
</linearGradient>
<linearGradient id="paint4_linear_257_2272" x1="55.4933" y1="136.323" x2="57.9894" y2="111.273" gradientUnits="userSpaceOnUse">
<stop stop-color="#0E142B"/>
<stop offset="0.43" stop-color="#161A2F"/>
<stop offset="1" stop-color="#29293B"/>
</linearGradient>
<linearGradient id="paint5_linear_257_2272" x1="88.868" y1="166.56" x2="110.556" y2="109.602" gradientUnits="userSpaceOnUse">
<stop stop-color="#0E142B"/>
<stop offset="0.43" stop-color="#161A2F"/>
<stop offset="1" stop-color="#29293B"/>
</linearGradient>
<linearGradient id="paint6_linear_257_2272" x1="80.592" y1="113.758" x2="96.2367" y2="13.8636" gradientUnits="userSpaceOnUse">
<stop stop-color="#121936"/>
<stop offset="0.38" stop-color="#1A1F3A"/>
<stop offset="0.97" stop-color="#303146"/>
<stop offset="1" stop-color="#323247"/>
</linearGradient>
<linearGradient id="paint7_linear_257_2272" x1="79.1729" y1="64.5662" x2="77.5903" y2="34.3679" gradientUnits="userSpaceOnUse">
<stop stop-color="white"/>
<stop offset="1" stop-color="#D91A81"/>
</linearGradient>
<radialGradient id="paint8_radial_257_2272" cx="0" cy="0" r="1" gradientUnits="userSpaceOnUse" gradientTransform="translate(64.7502 100.261) rotate(-171.544) scale(53.4244 51.8539)">
<stop stop-color="#DC165F"/>
<stop offset="0.38" stop-color="#A91723"/>
<stop offset="1" stop-color="#6B1414"/>
</radialGradient>
<linearGradient id="paint9_linear_257_2272" x1="63.1807" y1="64.1117" x2="69.2109" y2="30.6907" gradientUnits="userSpaceOnUse">
<stop stop-color="#121936"/>
<stop offset="0.38" stop-color="#1A1F3A"/>
<stop offset="0.97" stop-color="#303146"/>
<stop offset="1" stop-color="#323247"/>
</linearGradient>
<linearGradient id="paint10_linear_257_2272" x1="65.0795" y1="63.2098" x2="58.2662" y2="38.4742" gradientUnits="userSpaceOnUse">
<stop stop-color="#D91A81"/>
<stop offset="1" stop-color="white"/>
</linearGradient>
<linearGradient id="paint11_linear_257_2272" x1="60.4863" y1="104.12" x2="133.106" y2="100.314" gradientUnits="userSpaceOnUse">
<stop stop-color="#D91A81"/>
<stop offset="1" stop-color="white"/>
</linearGradient>
<linearGradient id="paint12_linear_257_2272" x1="127.656" y1="124.177" x2="135.647" y2="81.7105" gradientUnits="userSpaceOnUse">
<stop stop-color="#0E142B"/>
<stop offset="0.43" stop-color="#161A2F"/>
<stop offset="1" stop-color="#29293B"/>
</linearGradient>
<linearGradient id="paint13_linear_257_2272" x1="86.7223" y1="216.133" x2="108.987" y2="157.199" gradientUnits="userSpaceOnUse">
<stop stop-color="#0E142B"/>
<stop offset="0.43" stop-color="#161A2F"/>
<stop offset="1" stop-color="#29293B"/>
</linearGradient>
<linearGradient id="paint14_linear_257_2272" x1="107.855" y1="132.616" x2="113.469" y2="100.934" gradientUnits="userSpaceOnUse">
<stop stop-color="#781515"/>
<stop offset="1" stop-color="#D90516"/>
</linearGradient>
<linearGradient id="paint15_linear_257_2272" x1="78.0789" y1="135.39" x2="83.4849" y2="112.8" gradientUnits="userSpaceOnUse">
<stop stop-color="#781515"/>
<stop offset="1" stop-color="#D90516"/>
</linearGradient>
<linearGradient id="paint16_linear_257_2272" x1="143.13" y1="115.588" x2="151.854" y2="83.2473" gradientUnits="userSpaceOnUse">
<stop stop-color="#B5041D"/>
<stop offset="1" stop-color="#C21D38"/>
</linearGradient>
<linearGradient id="paint17_linear_257_2272" x1="42.2252" y1="137.415" x2="46.3696" y2="115.785" gradientUnits="userSpaceOnUse">
<stop stop-color="#B5041D"/>
<stop offset="1" stop-color="#C21D38"/>
</linearGradient>
<linearGradient id="paint18_linear_257_2272" x1="94.308" y1="169.051" x2="97.645" y2="148.089" gradientUnits="userSpaceOnUse">
<stop stop-color="#781515"/>
<stop offset="1" stop-color="#D90516"/>
</linearGradient>
<linearGradient id="paint19_linear_257_2272" x1="73.1068" y1="167.866" x2="85.9172" y2="141.376" gradientUnits="userSpaceOnUse">
<stop stop-color="#781515"/>
<stop offset="1" stop-color="#D90516"/>
</linearGradient>
<linearGradient id="paint20_linear_257_2272" x1="104.858" y1="196.54" x2="102.169" y2="187.607" gradientUnits="userSpaceOnUse">
<stop stop-color="#DB1F1F"/>
<stop offset="0.99" stop-color="#FF264E"/>
</linearGradient>
<linearGradient id="paint21_linear_257_2272" x1="42.415" y1="163.846" x2="36.9314" y2="163.042" gradientUnits="userSpaceOnUse">
<stop stop-color="#DB1F1F"/>
<stop offset="0.99" stop-color="#FF264E"/>
</linearGradient>
<linearGradient id="paint22_linear_257_2272" x1="93.6809" y1="134.601" x2="101.189" y2="120.414" gradientUnits="userSpaceOnUse">
<stop stop-color="#E5222C"/>
<stop offset="1" stop-color="#801212"/>
</linearGradient>
<linearGradient id="paint23_linear_257_2272" x1="103.652" y1="176.361" x2="97.2055" y2="175.486" gradientUnits="userSpaceOnUse">
<stop stop-color="#DB1F1F"/>
<stop offset="0.99" stop-color="#FF264E"/>
</linearGradient>
<linearGradient id="paint24_linear_257_2272" x1="79.8288" y1="181.049" x2="92.7788" y2="178.261" gradientUnits="userSpaceOnUse">
<stop stop-color="#781515"/>
<stop offset="1" stop-color="#D90516"/>
</linearGradient>
<linearGradient id="paint25_linear_257_2272" x1="80.6364" y1="180.938" x2="90.5179" y2="179.256" gradientUnits="userSpaceOnUse">
<stop stop-color="#FF2643"/>
<stop offset="1" stop-color="#FF3B3E"/>
</linearGradient>
<linearGradient id="paint26_linear_257_2272" x1="47.2085" y1="148.076" x2="59.7124" y2="140.089" gradientUnits="userSpaceOnUse">
<stop stop-color="#781515"/>
<stop offset="1" stop-color="#D90516"/>
</linearGradient>
<linearGradient id="paint27_linear_257_2272" x1="47.5422" y1="147.744" x2="59.1702" y2="140.824" gradientUnits="userSpaceOnUse">
<stop stop-color="#FF2643"/>
<stop offset="1" stop-color="#FF3B3E"/>
</linearGradient>
<radialGradient id="paint28_radial_257_2272" cx="0" cy="0" r="1" gradientUnits="userSpaceOnUse" gradientTransform="translate(156.098 92.893) rotate(-136.805) scale(11.8652 12.6281)">
<stop stop-color="#0500FF"/>
<stop offset="1" stop-color="#050031"/>
</radialGradient>
<linearGradient id="paint29_linear_257_2272" x1="143.546" y1="100.914" x2="163.328" y2="79.8448" gradientUnits="userSpaceOnUse">
<stop stop-color="#0E0082"/>
<stop offset="1" stop-color="#1400FF"/>
</linearGradient>
<radialGradient id="paint30_radial_257_2272" cx="0" cy="0" r="1" gradientUnits="userSpaceOnUse" gradientTransform="translate(153.439 90.3812) rotate(-136.805) scale(8.35934 8.8968)">
<stop stop-color="#001AFF"/>
<stop offset="1" stop-color="#050030"/>
</radialGradient>
<linearGradient id="paint31_linear_257_2272" x1="146.803" y1="98.0992" x2="160.725" y2="83.2719" gradientUnits="userSpaceOnUse">
<stop stop-color="#0E0082"/>
<stop offset="0.9999" stop-color="#012AFE"/>
<stop offset="1" stop-color="#0500FF"/>
</linearGradient>
<radialGradient id="paint32_radial_257_2272" cx="0" cy="0" r="1" gradientUnits="userSpaceOnUse" gradientTransform="translate(153.618 90.9422) rotate(102.118) scale(7.2538 6.11529)">
<stop offset="0.10409" stop-color="#14F1FF"/>
<stop offset="0.978353" stop-color="#13AAFF"/>
</radialGradient>
<radialGradient id="paint33_radial_257_2272" cx="0" cy="0" r="1" gradientUnits="userSpaceOnUse" gradientTransform="translate(145.471 83.4667) rotate(-48.5436) scale(1.16459 0.930228)">
<stop stop-color="#0500FF"/>
<stop offset="1" stop-color="#050030"/>
</radialGradient>
<linearGradient id="paint34_linear_257_2272" x1="144.891" y1="84.2781" x2="146.269" y2="82.8488" gradientUnits="userSpaceOnUse">
<stop stop-color="#00FFF4"/>
<stop offset="1" stop-color="#30A7FB"/>
</linearGradient>
<radialGradient id="paint35_radial_257_2272" cx="0" cy="0" r="1" gradientUnits="userSpaceOnUse" gradientTransform="translate(159.661 80.0886) rotate(-48.5436) scale(1.16459 0.930229)">
<stop stop-color="#0500FF"/>
<stop offset="1" stop-color="#050030"/>
</radialGradient>
<linearGradient id="paint36_linear_257_2272" x1="159.047" y1="80.8637" x2="160.432" y2="79.4262" gradientUnits="userSpaceOnUse">
<stop stop-color="#00FFF4"/>
<stop offset="1" stop-color="#30A7FB"/>
</linearGradient>
<radialGradient id="paint37_radial_257_2272" cx="0" cy="0" r="1" gradientUnits="userSpaceOnUse" gradientTransform="translate(143.155 97.6509) rotate(-48.5436) scale(1.16459 0.930229)">
<stop stop-color="#0500FF"/>
<stop offset="1" stop-color="#050030"/>
</radialGradient>
<linearGradient id="paint38_linear_257_2272" x1="142.547" y1="98.4361" x2="143.924" y2="97.0067" gradientUnits="userSpaceOnUse">
<stop stop-color="#00FFF4"/>
<stop offset="1" stop-color="#30A7FB"/>
</linearGradient>
<radialGradient id="paint39_radial_257_2272" cx="0" cy="0" r="1" gradientUnits="userSpaceOnUse" gradientTransform="translate(157.755 95.001) rotate(-48.5436) scale(1.16459 0.930229)">
<stop stop-color="#0500FF"/>
<stop offset="1" stop-color="#050030"/>
</radialGradient>
<linearGradient id="paint40_linear_257_2272" x1="157.108" y1="95.7535" x2="158.486" y2="94.3241" gradientUnits="userSpaceOnUse">
<stop stop-color="#00FFF4"/>
<stop offset="1" stop-color="#30A7FB"/>
</linearGradient>
<linearGradient id="paint41_linear_257_2272" x1="143.257" y1="115.491" x2="151.981" y2="83.1502" gradientUnits="userSpaceOnUse">
<stop stop-color="#B5041D"/>
<stop offset="1" stop-color="#C21D38"/>
</linearGradient>
<radialGradient id="paint42_radial_257_2272" cx="0" cy="0" r="1" gradientUnits="userSpaceOnUse" gradientTransform="translate(33.0582 129.339) rotate(-83.3808) scale(11.8652 12.6281)">
<stop stop-color="#0500FF"/>
<stop offset="1" stop-color="#050031"/>
</radialGradient>
<linearGradient id="paint43_linear_257_2272" x1="47.8237" y1="127.368" x2="19.1152" y2="124.036" gradientUnits="userSpaceOnUse">
<stop stop-color="#0E0082"/>
<stop offset="1" stop-color="#1400FF"/>
</linearGradient>
<radialGradient id="paint44_radial_257_2272" cx="0" cy="0" r="1" gradientUnits="userSpaceOnUse" gradientTransform="translate(33.4696 125.704) rotate(-83.3808) scale(8.35934 8.8968)">
<stop stop-color="#001AFF"/>
<stop offset="1" stop-color="#050030"/>
</radialGradient>
<linearGradient id="paint45_linear_257_2272" x1="43.519" y1="127.318" x2="23.316" y2="124.974" gradientUnits="userSpaceOnUse">
<stop stop-color="#0E0082"/>
<stop offset="0.9999" stop-color="#012AFE"/>
<stop offset="1" stop-color="#0500FF"/>
</linearGradient>
<radialGradient id="paint46_radial_257_2272" cx="0" cy="0" r="1" gradientUnits="userSpaceOnUse" gradientTransform="translate(33.7321 126.067) rotate(-13.7672) scale(7.2538 6.11529)">
<stop offset="0.10409" stop-color="#14F1FF"/>
<stop offset="0.978353" stop-color="#13AAFF"/>
</radialGradient>
<radialGradient id="paint47_radial_257_2272" cx="0" cy="0" r="1" gradientUnits="userSpaceOnUse" gradientTransform="translate(35.0945 115.28) rotate(-171.642) scale(1.16459 0.930228)">
<stop stop-color="#0500FF"/>
<stop offset="1" stop-color="#050030"/>
</radialGradient>
<linearGradient id="paint48_linear_257_2272" x1="36.061" y1="115.526" x2="34.0863" y2="115.323" gradientUnits="userSpaceOnUse">
<stop stop-color="#00FFF4"/>
<stop offset="1" stop-color="#30A7FB"/>
</linearGradient>
<radialGradient id="paint49_radial_257_2272" cx="0" cy="0" r="1" gradientUnits="userSpaceOnUse" gradientTransform="translate(22.0738 121.856) rotate(-171.642) scale(1.16459 0.930229)">
<stop stop-color="#0500FF"/>
<stop offset="1" stop-color="#050030"/>
</radialGradient>
<linearGradient id="paint50_linear_257_2272" x1="23.0436" y1="122.052" x2="21.0582" y2="121.847" gradientUnits="userSpaceOnUse">
<stop stop-color="#00FFF4"/>
<stop offset="1" stop-color="#30A7FB"/>
</linearGradient>
<radialGradient id="paint51_radial_257_2272" cx="0" cy="0" r="1" gradientUnits="userSpaceOnUse" gradientTransform="translate(46.0162 124.622) rotate(-171.642) scale(1.16459 0.930229)">
<stop stop-color="#0500FF"/>
<stop offset="1" stop-color="#050030"/>
</radialGradient>
<linearGradient id="paint52_linear_257_2272" x1="46.9875" y1="124.829" x2="45.0128" y2="124.626" gradientUnits="userSpaceOnUse">
<stop stop-color="#00FFF4"/>
<stop offset="1" stop-color="#30A7FB"/>
</linearGradient>
<radialGradient id="paint53_radial_257_2272" cx="0" cy="0" r="1" gradientUnits="userSpaceOnUse" gradientTransform="translate(33.1527 132.019) rotate(-171.642) scale(1.16459 0.930229)">
<stop stop-color="#0500FF"/>
<stop offset="1" stop-color="#050030"/>
</radialGradient>
<linearGradient id="paint54_linear_257_2272" x1="34.1325" y1="132.176" x2="32.1578" y2="131.973" gradientUnits="userSpaceOnUse">
<stop stop-color="#00FFF4"/>
<stop offset="1" stop-color="#30A7FB"/>
</linearGradient>
<linearGradient id="paint55_linear_257_2272" x1="42.5184" y1="137.188" x2="46.6628" y2="115.558" gradientUnits="userSpaceOnUse">
<stop stop-color="#B5041D"/>
<stop offset="1" stop-color="#C21D38"/>
</linearGradient>
</defs>
</svg>
