<svg width="71" height="66" viewBox="0 0 71 66" fill="none" xmlns="http://www.w3.org/2000/svg">
<path opacity="0.1" d="M64.7882 57.7452C64.6652 57.8777 64.5217 58.0103 64.3577 58.1326C52.2238 67.9924 18.794 67.6457 4.14919 58.7852C3.38057 58.3264 2.86816 57.8369 2.6222 57.3271C-2.57367 46.5701 0.244602 14.1972 8.49446 7.19238C17.349 -0.312025 51.3937 -3.70736 62.3286 5.83629C70.353 12.8309 74.1756 47.9364 64.7882 57.7452Z" fill="#3C3E48"/>
<path d="M62.8021 56.5434C62.6866 56.6686 62.5517 56.7938 62.3977 56.9093C50.9966 66.2209 19.5857 65.8935 5.82536 57.5256C5.10316 57.0923 4.6217 56.6301 4.39059 56.1486C-0.491479 45.9897 2.15659 15.4165 9.9082 8.80118C18.2279 1.71399 50.2166 -1.49258 60.4911 7.52048C68.0308 14.1262 71.6226 47.28 62.8021 56.5434Z" fill="url(#paint0_linear_89_2712)"/>
<path d="M4.38962 54.1392C9.09836 63.9418 53.1044 64.7218 62.8011 54.534C71.6216 45.2705 68.0299 12.1168 60.4901 5.51103C50.2156 -3.50202 18.227 -0.295457 9.90722 6.80136C2.15561 13.4071 -0.492456 43.9802 4.38962 54.1392Z" fill="url(#paint1_radial_89_2712)"/>
<g style="mix-blend-mode:multiply" filter="url(#filter0_f_89_2712)">
<path d="M32.9156 55.4907C31.5372 55.3225 30.1154 54.9766 28.8351 54.3303C38.1076 57.2012 45.8298 50.7281 45.8298 50.7281C38.7206 53.389 26.975 53.4664 21.796 44.7584C15.116 33.5241 21.5014 25.3007 27.4419 23.4863C35.6073 20.9919 45.6998 29.5735 40.9509 39.0695C42.9351 33.5314 38.8443 25.321 31.8723 24.8056C24.9149 24.2915 21.1187 29.9249 19.7387 35.1379C19.7387 35.1379 20.551 33.5992 21.9522 31.8399C21.2596 33.496 20.2678 36.9818 21.5777 40.536C23.0754 44.6012 25.9508 47.3317 28.6987 48.6997C36.6831 52.678 46.0527 48.8095 46.0527 48.8095C40.6175 50.2824 32.8799 49.4863 28.303 45.9386C26.503 44.5426 24.7579 42.2461 24.0008 40.0244C23.3862 38.2243 23.3136 36.2736 23.708 34.481C24.088 32.7547 24.9775 30.7948 26.6759 29.6838C28.8002 28.2964 32.081 28.1733 34.8032 30.3735C36.8372 32.0178 37.4477 34.5498 37.233 37.1563C36.8222 34.4962 34.819 32.0879 32.3838 31.3228C29.9487 30.5577 26.9546 31.2847 25.7978 33.5641C23.2722 38.5378 27.5356 44.5888 32.5537 46.5983C36.3596 48.1226 41.3757 48.4521 44.9842 47.231C52.9307 44.5401 54.7815 37.2295 55 33.9812C55 33.9812 53.3864 39.9265 49.7924 42.6172C55.0833 36.3528 56.2999 26.5548 49.46 17.4916C49.46 17.4916 52.7657 23.1878 52.4573 29.7627C49.9163 14.0025 34.3866 7.99035 25.2983 12.4119C25.2983 12.4119 31.8911 10.3847 37.3893 13.5497C28.354 11.1564 18.2661 15.5071 12.8599 24.221C12.8599 24.221 22.4952 13.6468 34.0902 16.5309C40.7321 18.184 44.7355 22.4502 46.9013 27.3298C47.459 28.5864 47.701 29.7673 47.8301 30.8175C45.6284 24.2529 38.9146 17.6158 31.4018 17.35C25.8225 16.867 20.4593 18.8605 16.4378 23.1375C13.3105 26.4668 11.3748 31.3259 11.0422 36.1978C10.8206 39.4406 11.5108 42.4367 12.2084 45.621C12.2084 45.621 10.9332 39.8072 12.2529 35.9072C11.694 44.4692 15.9305 54.181 25.8763 59C25.8763 59 21.1768 56.0929 18.2515 51.0304C26.7041 60.0329 44.1977 61.9332 53.8992 47.3827C53.8992 47.3827 44.2315 56.8727 32.9172 55.4926L32.9156 55.4907ZM38.0807 42.1721C38.075 42.4422 37.864 42.6422 37.6106 42.6177L37.2971 42.5873C37.0437 42.5628 36.8327 42.7627 36.827 43.0329L36.8091 43.878C36.8034 44.1482 36.5925 44.3482 36.3391 44.3236C36.0857 44.2991 35.884 44.0592 35.8897 43.789L35.9076 42.9439C35.9133 42.6737 35.7117 42.4338 35.4583 42.4093L35.1448 42.3789C34.8914 42.3544 34.6897 42.1145 34.6955 41.8443C34.7012 41.5741 34.9121 41.3742 35.1655 41.3987L35.479 41.4291C35.7324 41.4536 35.9434 41.2536 35.9491 40.9835L35.967 40.1383C35.9727 39.8682 36.1837 39.6682 36.4371 39.6927C36.6905 39.7173 36.8921 39.9572 36.8864 40.2274L36.8685 41.0725C36.8628 41.3427 37.0644 41.5826 37.3178 41.6071L37.6314 41.6375C37.8848 41.662 38.0864 41.9019 38.0807 42.1721ZM40.9151 45.4504C40.9131 45.5457 40.84 45.615 40.7507 45.6063L40.6419 45.5958C40.5525 45.5871 40.4794 45.6564 40.4774 45.7517L40.4712 46.0461C40.4692 46.1413 40.3961 46.2106 40.3067 46.202C40.2174 46.1933 40.1475 46.1102 40.1496 46.0149L40.1558 45.7205C40.1578 45.6253 40.0879 45.5422 39.9986 45.5335L39.8898 45.523C39.8004 45.5143 39.7306 45.4312 39.7326 45.3359C39.7346 45.2407 39.8077 45.1714 39.897 45.1801L40.0059 45.1906C40.0936 45.1991 40.1683 45.13 40.1703 45.0347L40.1765 44.7403C40.1785 44.6451 40.2516 44.5758 40.341 44.5844C40.4303 44.5931 40.5002 44.6762 40.4982 44.7715L40.4919 45.0659C40.4899 45.1611 40.5598 45.2442 40.6491 45.2529L40.7579 45.2634C40.8473 45.2721 40.9171 45.3552 40.9151 45.4504ZM43.6131 18.1124C43.6111 18.2077 43.538 18.2769 43.4486 18.2683L43.3398 18.2577C43.2505 18.2491 43.1774 18.3184 43.1754 18.4136L43.1691 18.708C43.1671 18.8033 43.094 18.8726 43.0047 18.8639C42.9154 18.8553 42.8455 18.7721 42.8475 18.6769L42.8537 18.3825C42.8558 18.2872 42.7859 18.2041 42.6966 18.1955L42.5877 18.1849C42.4984 18.1763 42.4285 18.0932 42.4305 17.9979C42.4326 17.9027 42.5056 17.8334 42.595 17.842L42.7038 17.8526C42.7932 17.8612 42.8662 17.7919 42.8683 17.6967L42.8745 17.4023C42.8765 17.307 42.9496 17.2377 43.0389 17.2464C43.1283 17.255 43.1981 17.3382 43.1961 17.4334L43.1899 17.7278C43.1879 17.8231 43.2577 17.9062 43.3471 17.9149L43.4559 17.9254C43.5452 17.934 43.6151 18.0172 43.6131 18.1124ZM52.4556 29.7643C52.4491 29.9181 52.4393 30.0716 52.428 30.225C52.3933 30.0151 52.3538 29.8065 52.3111 29.5959L52.4556 29.7643ZM48.678 39.5938C48.68 39.4986 48.7531 39.4293 48.8424 39.438L48.9512 39.4485C49.0406 39.4571 49.1137 39.3879 49.1157 39.2926L49.1219 38.9982C49.1239 38.9029 49.197 38.8337 49.2864 38.8423C49.3757 38.851 49.4456 38.9341 49.4436 39.0293L49.4373 39.3237C49.4353 39.419 49.5052 39.5021 49.5945 39.5108L49.7033 39.5213C49.7927 39.53 49.8625 39.6131 49.8605 39.7083C49.8585 39.8036 49.7854 39.8729 49.6961 39.8642L49.5872 39.8537C49.4979 39.845 49.4248 39.9143 49.4228 40.0096L49.4166 40.304C49.4146 40.3992 49.3415 40.4685 49.2521 40.4598C49.1628 40.4512 49.0929 40.3681 49.0949 40.2728L49.1012 39.9784C49.1032 39.8832 49.0333 39.8 48.944 39.7914L48.8352 39.7808C48.7458 39.7722 48.676 39.6891 48.678 39.5938ZM45.6875 36.073C45.6907 35.9241 45.8069 35.8156 45.945 35.829L46.1172 35.8456C46.2569 35.8592 46.3715 35.7488 46.3746 35.6016L46.3844 35.1375C46.3876 34.9885 46.5022 34.8799 46.6419 34.8934C46.7816 34.9069 46.8911 35.039 46.888 35.1862L46.8782 35.6503C46.875 35.7993 46.9846 35.9296 47.1243 35.9431L47.2965 35.9598C47.4362 35.9733 47.5457 36.1037 47.5426 36.2526C47.5394 36.4016 47.4232 36.5101 47.2851 36.4967L47.1129 36.48C46.9732 36.4665 46.8586 36.5751 46.8554 36.7241L46.8456 37.1882C46.8425 37.3371 46.7262 37.4456 46.5882 37.4322C46.4501 37.4189 46.3389 37.2866 46.3421 37.1394L46.3519 36.6753C46.355 36.5264 46.2455 36.396 46.1058 36.3825L45.9336 36.3658C45.7939 36.3523 45.6844 36.2202 45.6875 36.073ZM31.267 20.412C31.2698 20.2821 31.3711 20.1878 31.4913 20.1994L31.6407 20.2139C31.7625 20.2257 31.8622 20.1295 31.865 20.0013L31.8735 19.5961C31.8763 19.4662 31.9776 19.3719 32.0978 19.3835C32.218 19.3952 32.3148 19.5104 32.3121 19.6386L32.3035 20.0438C32.3008 20.1737 32.3977 20.2872 32.5179 20.2988L32.6673 20.3133C32.7892 20.3251 32.8844 20.4402 32.8817 20.5683C32.8789 20.6982 32.7776 20.7925 32.6574 20.7809L32.508 20.7664C32.3862 20.7546 32.2864 20.8508 32.2837 20.979L32.2752 21.3842C32.2724 21.5141 32.1711 21.6084 32.0509 21.5968C31.9307 21.5852 31.8339 21.4699 31.8366 21.3418L31.8452 20.9365C31.8479 20.8066 31.751 20.6931 31.6308 20.6815L31.4814 20.667C31.3595 20.6552 31.2643 20.5402 31.267 20.412ZM28.109 19.8112C28.111 19.716 28.1841 19.6467 28.2734 19.6553L28.3822 19.6659C28.4716 19.6745 28.5447 19.6052 28.5467 19.51L28.5529 19.2156C28.5549 19.1203 28.628 19.051 28.7173 19.0597C28.8067 19.0683 28.8765 19.1515 28.8745 19.2467L28.8683 19.5411C28.8663 19.6364 28.9361 19.7195 29.0255 19.7281L29.1343 19.7387C29.2237 19.7473 29.2935 19.8305 29.2915 19.9257C29.2895 20.021 29.2164 20.0902 29.1271 20.0816L29.0182 20.071C28.9289 20.0624 28.8558 20.1317 28.8538 20.2269L28.8476 20.5213C28.8455 20.6166 28.7724 20.6859 28.6831 20.6772C28.5938 20.6686 28.5239 20.5854 28.5259 20.4902L28.5322 20.1958C28.5342 20.1005 28.4643 20.0174 28.375 20.0088L28.2661 19.9982C28.1768 19.9896 28.1069 19.9064 28.109 19.8112ZM16.3439 42.6461C16.3419 42.7414 16.2688 42.8106 16.1795 42.802L16.0706 42.7915C15.9813 42.7828 15.9082 42.8521 15.9062 42.9473L15.8999 43.2417C15.8979 43.337 15.8248 43.4063 15.7355 43.3976C15.6462 43.389 15.5763 43.3058 15.5783 43.2106L15.5846 42.9162C15.5866 42.8209 15.5167 42.7378 15.4274 42.7292L15.3185 42.7186C15.2292 42.71 15.1593 42.6269 15.1613 42.5316C15.1634 42.4364 15.2365 42.3671 15.3258 42.3757L15.4346 42.3863C15.524 42.3949 15.5971 42.3256 15.5991 42.2304L15.6053 41.936C15.6073 41.8407 15.6804 41.7715 15.7697 41.7801C15.8591 41.7888 15.9289 41.8719 15.9269 41.9671L15.9207 42.2615C15.9187 42.3568 15.9885 42.4399 16.0779 42.4486L16.1867 42.4591C16.2761 42.4677 16.3459 42.5509 16.3439 42.6461ZM17.686 27.5326L17.5772 27.5221C17.4878 27.5134 17.4148 27.5827 17.4127 27.6779L17.4065 27.9724C17.4045 28.0676 17.3314 28.1369 17.2421 28.1282C17.1527 28.1196 17.0829 28.0365 17.0849 27.9412L17.0911 27.6468C17.0931 27.5516 17.0233 27.4684 16.9339 27.4598L16.8251 27.4492C16.7358 27.4406 16.6659 27.3575 16.6679 27.2622C16.6699 27.167 16.743 27.0977 16.8324 27.1063L16.9412 27.1169C17.0305 27.1255 17.1036 27.0563 17.1056 26.961L17.1119 26.6666C17.1139 26.5713 17.187 26.5021 17.2763 26.5107C17.3656 26.5194 17.4355 26.6025 17.4335 26.6977L17.4273 26.9921C17.4252 27.0874 17.4951 27.1705 17.5844 27.1792L17.6933 27.1897C17.7826 27.1984 17.8525 27.2815 17.8505 27.3767C17.8484 27.472 17.7754 27.5413 17.686 27.5326ZM19.2789 46.401C19.2758 46.55 19.1612 46.6586 19.0215 46.6451L18.8493 46.6284C18.7096 46.6149 18.595 46.7235 18.5918 46.8725L18.582 47.3366C18.5789 47.4855 18.4643 47.5942 18.3246 47.5807C18.1849 47.5671 18.0753 47.4368 18.0785 47.2878L18.0883 46.8237C18.0914 46.6748 17.9803 46.5443 17.8422 46.5309L17.67 46.5142C17.5303 46.5007 17.4207 46.3704 17.4239 46.2214C17.4271 46.0725 17.5417 45.9638 17.6814 45.9774L17.8535 45.994C17.9932 46.0076 18.1079 45.8989 18.111 45.75L18.1208 45.2859C18.124 45.1369 18.2386 45.0283 18.3783 45.0418C18.518 45.0553 18.6275 45.1857 18.6244 45.3346L18.6146 45.7987C18.6114 45.9477 18.7226 46.0782 18.8607 46.0916L19.0329 46.1082C19.1725 46.1218 19.2821 46.2538 19.2789 46.401Z" fill="#CED6FF"/>
</g>
<path d="M34.9156 53.4907C33.5372 53.3225 32.1154 52.9766 30.8351 52.3303C40.1076 55.2012 47.8298 48.7281 47.8298 48.7281C40.7206 51.389 28.975 51.4664 23.796 42.7584C17.116 31.5241 23.5014 23.3007 29.4419 21.4863C37.6073 18.9919 47.6998 27.5735 42.9509 37.0695C44.9351 31.5314 40.8443 23.321 33.8723 22.8056C26.9149 22.2915 23.1187 27.9249 21.7387 33.1379C21.7387 33.1379 22.551 31.5992 23.9522 29.8399C23.2596 31.496 22.2678 34.9818 23.5777 38.536C25.0754 42.6012 27.9508 45.3317 30.6987 46.6997C38.6831 50.678 48.0527 46.8095 48.0527 46.8095C42.6175 48.2824 34.8799 47.4863 30.303 43.9386C28.503 42.5426 26.7579 40.2461 26.0008 38.0244C25.3862 36.2243 25.3136 34.2736 25.708 32.481C26.088 30.7547 26.9775 28.7948 28.6759 27.6838C30.8002 26.2964 34.081 26.1733 36.8032 28.3735C38.8372 30.0178 39.4477 32.5498 39.233 35.1563C38.8222 32.4962 36.819 30.0879 34.3838 29.3228C31.9487 28.5577 28.9546 29.2847 27.7978 31.5641C25.2722 36.5378 29.5356 42.5888 34.5537 44.5983C38.3596 46.1226 43.3757 46.4521 46.9842 45.231C54.9307 42.5401 56.7815 35.2295 57 31.9812C57 31.9812 55.3864 37.9265 51.7924 40.6172C57.0833 34.3528 58.2999 24.5548 51.46 15.4916C51.46 15.4916 54.7657 21.1878 54.4573 27.7627C51.9163 12.0025 36.3866 5.99035 27.2983 10.4119C27.2983 10.4119 33.8911 8.38474 39.3893 11.5497C30.354 9.15636 20.2661 13.5071 14.8599 22.221C14.8599 22.221 24.4952 11.6468 36.0902 14.5309C42.7321 16.184 46.7355 20.4502 48.9013 25.3298C49.459 26.5864 49.701 27.7673 49.8301 28.8175C47.6284 22.2529 40.9146 15.6158 33.4018 15.35C27.8225 14.867 22.4593 16.8605 18.4378 21.1375C15.3105 24.4668 13.3748 29.3259 13.0422 34.1978C12.8206 37.4406 13.5108 40.4367 14.2084 43.621C14.2084 43.621 12.9332 37.8072 14.2529 33.9072C13.694 42.4692 17.9305 52.181 27.8763 57C27.8763 57 23.1768 54.0929 20.2515 49.0304C28.7041 58.0329 46.1977 59.9332 55.8992 45.3827C55.8992 45.3827 46.2315 54.8727 34.9172 53.4926L34.9156 53.4907ZM40.0807 40.1721C40.075 40.4422 39.864 40.6422 39.6106 40.6177L39.2971 40.5873C39.0437 40.5628 38.8327 40.7627 38.827 41.0329L38.8091 41.878C38.8034 42.1482 38.5925 42.3482 38.3391 42.3236C38.0857 42.2991 37.884 42.0592 37.8897 41.789L37.9076 40.9439C37.9133 40.6737 37.7117 40.4338 37.4583 40.4093L37.1448 40.3789C36.8914 40.3544 36.6897 40.1145 36.6955 39.8443C36.7012 39.5741 36.9121 39.3742 37.1655 39.3987L37.479 39.4291C37.7324 39.4536 37.9434 39.2536 37.9491 38.9835L37.967 38.1383C37.9727 37.8682 38.1837 37.6682 38.4371 37.6927C38.6905 37.7173 38.8921 37.9572 38.8864 38.2274L38.8685 39.0725C38.8628 39.3427 39.0644 39.5826 39.3178 39.6071L39.6314 39.6375C39.8848 39.662 40.0864 39.9019 40.0807 40.1721ZM42.9151 43.4504C42.9131 43.5457 42.84 43.615 42.7507 43.6063L42.6419 43.5958C42.5525 43.5871 42.4794 43.6564 42.4774 43.7517L42.4712 44.0461C42.4692 44.1413 42.3961 44.2106 42.3067 44.202C42.2174 44.1933 42.1475 44.1102 42.1496 44.0149L42.1558 43.7205C42.1578 43.6253 42.0879 43.5422 41.9986 43.5335L41.8898 43.523C41.8004 43.5143 41.7306 43.4312 41.7326 43.3359C41.7346 43.2407 41.8077 43.1714 41.897 43.1801L42.0059 43.1906C42.0936 43.1991 42.1683 43.13 42.1703 43.0347L42.1765 42.7403C42.1785 42.6451 42.2516 42.5758 42.341 42.5844C42.4303 42.5931 42.5002 42.6762 42.4982 42.7715L42.4919 43.0659C42.4899 43.1611 42.5598 43.2442 42.6491 43.2529L42.7579 43.2634C42.8473 43.2721 42.9171 43.3552 42.9151 43.4504ZM45.6131 16.1124C45.6111 16.2077 45.538 16.2769 45.4486 16.2683L45.3398 16.2577C45.2505 16.2491 45.1774 16.3184 45.1754 16.4136L45.1691 16.708C45.1671 16.8033 45.094 16.8726 45.0047 16.8639C44.9154 16.8553 44.8455 16.7721 44.8475 16.6769L44.8537 16.3825C44.8558 16.2872 44.7859 16.2041 44.6966 16.1955L44.5877 16.1849C44.4984 16.1763 44.4285 16.0932 44.4305 15.9979C44.4326 15.9027 44.5056 15.8334 44.595 15.842L44.7038 15.8526C44.7932 15.8612 44.8662 15.7919 44.8683 15.6967L44.8745 15.4023C44.8765 15.307 44.9496 15.2377 45.0389 15.2464C45.1283 15.255 45.1981 15.3382 45.1961 15.4334L45.1899 15.7278C45.1879 15.8231 45.2577 15.9062 45.3471 15.9149L45.4559 15.9254C45.5452 15.934 45.6151 16.0172 45.6131 16.1124ZM54.4556 27.7643C54.4491 27.9181 54.4393 28.0716 54.428 28.225C54.3933 28.0151 54.3538 27.8065 54.3111 27.5959L54.4556 27.7643ZM50.678 37.5938C50.68 37.4986 50.7531 37.4293 50.8424 37.438L50.9512 37.4485C51.0406 37.4571 51.1137 37.3879 51.1157 37.2926L51.1219 36.9982C51.1239 36.9029 51.197 36.8337 51.2864 36.8423C51.3757 36.851 51.4456 36.9341 51.4436 37.0293L51.4373 37.3237C51.4353 37.419 51.5052 37.5021 51.5945 37.5108L51.7033 37.5213C51.7927 37.53 51.8625 37.6131 51.8605 37.7083C51.8585 37.8036 51.7854 37.8729 51.6961 37.8642L51.5872 37.8537C51.4979 37.845 51.4248 37.9143 51.4228 38.0096L51.4166 38.304C51.4146 38.3992 51.3415 38.4685 51.2521 38.4598C51.1628 38.4512 51.0929 38.3681 51.0949 38.2728L51.1012 37.9784C51.1032 37.8832 51.0333 37.8 50.944 37.7914L50.8352 37.7808C50.7458 37.7722 50.676 37.6891 50.678 37.5938ZM47.6875 34.073C47.6907 33.9241 47.8069 33.8156 47.945 33.829L48.1172 33.8456C48.2569 33.8592 48.3715 33.7488 48.3746 33.6016L48.3844 33.1375C48.3876 32.9885 48.5022 32.8799 48.6419 32.8934C48.7816 32.9069 48.8911 33.039 48.888 33.1862L48.8782 33.6503C48.875 33.7993 48.9846 33.9296 49.1243 33.9431L49.2965 33.9598C49.4362 33.9733 49.5457 34.1037 49.5426 34.2526C49.5394 34.4016 49.4232 34.5101 49.2851 34.4967L49.1129 34.48C48.9732 34.4665 48.8586 34.5751 48.8554 34.7241L48.8456 35.1882C48.8425 35.3371 48.7262 35.4456 48.5882 35.4322C48.4501 35.4189 48.3389 35.2866 48.3421 35.1394L48.3519 34.6753C48.355 34.5264 48.2455 34.396 48.1058 34.3825L47.9336 34.3658C47.7939 34.3523 47.6844 34.2202 47.6875 34.073ZM33.267 18.412C33.2698 18.2821 33.3711 18.1878 33.4913 18.1994L33.6407 18.2139C33.7625 18.2257 33.8622 18.1295 33.865 18.0013L33.8735 17.5961C33.8763 17.4662 33.9776 17.3719 34.0978 17.3835C34.218 17.3952 34.3148 17.5104 34.3121 17.6386L34.3035 18.0438C34.3008 18.1737 34.3977 18.2872 34.5179 18.2988L34.6673 18.3133C34.7892 18.3251 34.8844 18.4402 34.8817 18.5683C34.8789 18.6982 34.7776 18.7925 34.6574 18.7809L34.508 18.7664C34.3862 18.7546 34.2864 18.8508 34.2837 18.979L34.2752 19.3842C34.2724 19.5141 34.1711 19.6084 34.0509 19.5968C33.9307 19.5852 33.8339 19.4699 33.8366 19.3418L33.8452 18.9365C33.8479 18.8066 33.751 18.6931 33.6308 18.6815L33.4814 18.667C33.3595 18.6552 33.2643 18.5402 33.267 18.412ZM30.109 17.8112C30.111 17.716 30.1841 17.6467 30.2734 17.6553L30.3822 17.6659C30.4716 17.6745 30.5447 17.6052 30.5467 17.51L30.5529 17.2156C30.5549 17.1203 30.628 17.051 30.7173 17.0597C30.8067 17.0683 30.8765 17.1515 30.8745 17.2467L30.8683 17.5411C30.8663 17.6364 30.9361 17.7195 31.0255 17.7281L31.1343 17.7387C31.2237 17.7473 31.2935 17.8305 31.2915 17.9257C31.2895 18.021 31.2164 18.0902 31.1271 18.0816L31.0182 18.071C30.9289 18.0624 30.8558 18.1317 30.8538 18.2269L30.8476 18.5213C30.8455 18.6166 30.7724 18.6859 30.6831 18.6772C30.5938 18.6686 30.5239 18.5854 30.5259 18.4902L30.5322 18.1958C30.5342 18.1005 30.4643 18.0174 30.375 18.0088L30.2661 17.9982C30.1768 17.9896 30.1069 17.9064 30.109 17.8112ZM18.3439 40.6461C18.3419 40.7414 18.2688 40.8106 18.1795 40.802L18.0706 40.7915C17.9813 40.7828 17.9082 40.8521 17.9062 40.9473L17.8999 41.2417C17.8979 41.337 17.8248 41.4063 17.7355 41.3976C17.6462 41.389 17.5763 41.3058 17.5783 41.2106L17.5846 40.9162C17.5866 40.8209 17.5167 40.7378 17.4274 40.7292L17.3185 40.7186C17.2292 40.71 17.1593 40.6269 17.1613 40.5316C17.1634 40.4364 17.2365 40.3671 17.3258 40.3757L17.4346 40.3863C17.524 40.3949 17.5971 40.3256 17.5991 40.2304L17.6053 39.936C17.6073 39.8407 17.6804 39.7715 17.7697 39.7801C17.8591 39.7888 17.9289 39.8719 17.9269 39.9671L17.9207 40.2615C17.9187 40.3568 17.9885 40.4399 18.0779 40.4486L18.1867 40.4591C18.2761 40.4677 18.3459 40.5509 18.3439 40.6461ZM19.686 25.5326L19.5772 25.5221C19.4878 25.5134 19.4148 25.5827 19.4127 25.6779L19.4065 25.9724C19.4045 26.0676 19.3314 26.1369 19.2421 26.1282C19.1527 26.1196 19.0829 26.0365 19.0849 25.9412L19.0911 25.6468C19.0931 25.5516 19.0233 25.4684 18.9339 25.4598L18.8251 25.4492C18.7358 25.4406 18.6659 25.3575 18.6679 25.2622C18.6699 25.167 18.743 25.0977 18.8324 25.1063L18.9412 25.1169C19.0305 25.1255 19.1036 25.0563 19.1056 24.961L19.1119 24.6666C19.1139 24.5713 19.187 24.5021 19.2763 24.5107C19.3656 24.5194 19.4355 24.6025 19.4335 24.6977L19.4273 24.9921C19.4252 25.0874 19.4951 25.1705 19.5844 25.1792L19.6933 25.1897C19.7826 25.1984 19.8525 25.2815 19.8505 25.3767C19.8484 25.472 19.7754 25.5413 19.686 25.5326ZM21.2789 44.401C21.2758 44.55 21.1612 44.6586 21.0215 44.6451L20.8493 44.6284C20.7096 44.6149 20.595 44.7235 20.5918 44.8725L20.582 45.3366C20.5789 45.4855 20.4643 45.5942 20.3246 45.5807C20.1849 45.5671 20.0753 45.4368 20.0785 45.2878L20.0883 44.8237C20.0914 44.6748 19.9803 44.5443 19.8422 44.5309L19.67 44.5142C19.5303 44.5007 19.4207 44.3704 19.4239 44.2214C19.4271 44.0725 19.5417 43.9638 19.6814 43.9774L19.8535 43.994C19.9932 44.0076 20.1079 43.8989 20.111 43.75L20.1208 43.2859C20.124 43.1369 20.2386 43.0283 20.3783 43.0418C20.518 43.0553 20.6275 43.1857 20.6244 43.3346L20.6146 43.7987C20.6114 43.9477 20.7226 44.0782 20.8607 44.0916L21.0329 44.1082C21.1725 44.1218 21.2821 44.2538 21.2789 44.401Z" fill="white"/>
<path style="mix-blend-mode:screen" d="M9.5 8.50001C9.5 8.50001 22.5 -4 57 4C57 4 68 14 65.0251 20.7287C65.0251 20.7287 66 23 62 25C60.993 17.767 48 9.70387 39 7.70346C30.5 7.70346 8 10.5 8 10.5L9.5 8.50001Z" fill="url(#paint2_linear_89_2712)"/>
<path d="M7 11.5377C7 11.5377 8.47329 8.51406 11.8821 6.89633C15.3005 5.27861 25.0165 3.65125 25.575 4.06531C26.1239 4.47937 20.8373 6.38598 18.1026 7.39706C15.3679 8.40814 8.39625 12.3176 7 11.5473V11.5377Z" fill="white"/>
<path style="mix-blend-mode:screen" d="M62.311 54.1143C62.311 54.1143 58.4997 58.1686 50.9997 59.5C47.276 60.161 42.9295 61.0465 42.4997 60.5C42.0791 59.9561 47.6056 55.4426 50.51 55.1869C53.4144 54.9312 61.1692 52.9944 62.3135 54.1051L62.311 54.1143Z" fill="url(#paint3_linear_89_2712)"/>
<path d="M7.35415 13.0096C6.65121 13.1156 4.89867 18.5658 5.0046 19.4613C5.11052 20.3568 7.21934 17.5258 7.54674 16.014C7.87414 14.5118 7.35415 13 7.35415 13V13.0096Z" fill="white"/>
<path style="mix-blend-mode:screen" d="M63.4504 52.0184C64.1597 51.9703 66.3521 46.6817 66.3198 45.7805C66.2875 44.8793 63.9542 47.5284 63.5042 49.0083C63.055 50.4787 63.4496 52.028 63.4496 52.028L63.4504 52.0184Z" fill="url(#paint4_linear_89_2712)"/>
<path d="M60.0316 54.7213C59.6223 53.6892 63.3061 48.9776 64.246 49.0001C65.1859 49.0225 64.3521 52.0963 63.776 52.8142C63.2151 53.5322 60.2287 55.2373 60.0316 54.7213Z" fill="white"/>
<defs>
<filter id="filter0_f_89_2712" x="10" y="10" width="46" height="50" filterUnits="userSpaceOnUse" color-interpolation-filters="sRGB">
<feFlood flood-opacity="0" result="BackgroundImageFix"/>
<feBlend mode="normal" in="SourceGraphic" in2="BackgroundImageFix" result="shape"/>
<feGaussianBlur stdDeviation="0.5" result="effect1_foregroundBlur_89_2712"/>
</filter>
<linearGradient id="paint0_linear_89_2712" x1="38.1862" y1="63.8469" x2="38.1862" y2="2.00905" gradientUnits="userSpaceOnUse">
<stop stop-color="#C26900"/>
<stop offset="1" stop-color="#923D00"/>
</linearGradient>
<radialGradient id="paint1_radial_89_2712" cx="0" cy="0" r="1" gradientUnits="userSpaceOnUse" gradientTransform="translate(35.7326 57.4711) scale(25.3388 75.8087)">
<stop stop-color="#FFBD00"/>
<stop offset="1" stop-color="#FF772C"/>
</radialGradient>
<linearGradient id="paint2_linear_89_2712" x1="11.6763" y1="13.8808" x2="57.9957" y2="13.8808" gradientUnits="userSpaceOnUse">
<stop stop-color="#7ED140"/>
<stop offset="0.11" stop-color="#74C03B"/>
<stop offset="0.34" stop-color="#5A962E"/>
<stop offset="0.65" stop-color="#315219"/>
<stop offset="1"/>
</linearGradient>
<linearGradient id="paint3_linear_89_2712" x1="59.6271" y1="56.9107" x2="45.5873" y2="53.0805" gradientUnits="userSpaceOnUse">
<stop stop-color="#7ED140"/>
<stop offset="0.11" stop-color="#74C03B"/>
<stop offset="0.34" stop-color="#5A962E"/>
<stop offset="0.65" stop-color="#315219"/>
<stop offset="1"/>
</linearGradient>
<linearGradient id="paint4_linear_89_2712" x1="65.8257" y1="48.6257" x2="63.757" y2="48.4559" gradientUnits="userSpaceOnUse">
<stop stop-color="#7ED140"/>
<stop offset="0.11" stop-color="#74C03B"/>
<stop offset="0.34" stop-color="#5A962E"/>
<stop offset="0.65" stop-color="#315219"/>
<stop offset="1"/>
</linearGradient>
</defs>
</svg>
