<svg width="305" height="286" viewBox="0 0 305 286" fill="none" xmlns="http://www.w3.org/2000/svg">
<g filter="url(#filter0_f_244_2595)">
<path d="M139.319 193.897C182.756 213.329 226.24 210.654 236.443 187.92C246.646 165.186 219.704 131.004 176.267 111.571C132.829 92.1379 89.3451 94.8137 79.1422 117.547C68.9393 140.281 95.8812 174.464 139.319 193.897Z" fill="#09F0FF"/>
</g>
<path d="M238.874 151.279C233.195 163.912 201.227 149.353 161.656 131.642C122.085 113.93 90.8265 97.8065 96.474 85.1761C102.153 72.5426 143.876 65.3647 183.447 83.0762C223.018 100.788 244.522 138.648 238.874 151.279Z" fill="url(#paint0_radial_244_2595)"/>
<g style="mix-blend-mode:multiply">
<path d="M182.212 85.8066C222.346 103.749 245.346 140.286 241.906 154.211C242.188 153.834 242.45 153.41 242.645 152.961C248.324 140.328 225.109 101.696 183.46 83.0588C141.798 64.4386 98.38 70.8598 92.701 83.4933C92.4911 83.9594 92.3442 84.4193 92.2461 84.8904C100.303 73.1693 142.078 67.8639 182.212 85.8066Z" fill="white"/>
</g>
<path d="M291.782 191.502C285.788 204.834 227.18 178.361 154.769 145.953C92.2465 117.97 40.5754 93.1713 31.4715 78.3277C30.0211 75.9719 29.6471 73.8923 30.4583 72.0626C36.4664 58.7126 105.383 62.2497 177.794 94.6572C247.91 126.017 294.696 174.907 292.191 190.125C292.096 190.628 291.981 191.085 291.768 191.519L291.782 191.502Z" fill="url(#paint1_radial_244_2595)"/>
<g style="mix-blend-mode:multiply">
<path d="M292.206 190.108L271.045 164.64C271.045 164.64 238.514 123.915 176.849 96.7546C115.185 69.5943 84.264 76.779 84.264 76.779L31.4715 78.3277C30.0211 75.9719 29.6471 73.8923 30.4583 72.0626C36.4664 58.7126 105.383 62.2497 177.794 94.6572C247.91 126.017 294.696 174.907 292.191 190.125L292.206 190.108Z" fill="white"/>
</g>
<path d="M292.438 190.037C287.457 201.154 224.701 183.87 152.276 151.48C79.8505 119.09 25.1881 83.8123 30.1864 72.7094C35.1847 61.6065 98.9979 76.4795 171.423 108.87C243.834 141.277 297.422 178.951 292.438 190.037Z" fill="url(#paint2_radial_244_2595)"/>
<path d="M291.781 191.501C286.8 202.618 224.044 185.334 151.619 152.944C79.2079 120.537 24.5313 85.2764 29.5296 74.1735C34.5106 63.0564 97.266 80.3403 169.691 112.73C242.102 145.138 296.779 180.398 291.781 191.501Z" fill="url(#paint3_radial_244_2595)"/>
<path d="M238.28 178.641C235.171 185.549 196.043 174.795 150.889 154.608C105.719 134.406 71.6403 112.417 74.7636 105.491C77.8869 98.5661 117.001 109.337 162.154 129.525C207.324 149.726 241.403 171.715 238.28 178.641Z" fill="#389FFF"/>
<path d="M129.34 119.933L128.842 115.893C128.842 115.893 166.293 129.071 202.526 149.639L199.919 152.314L129.323 119.919L129.34 119.933Z" fill="#8BB9FF"/>
<path d="M238.769 182.443C235.884 188.868 190.682 190.277 146.94 170.699C103.197 151.121 77.4534 117.988 80.3525 111.546C83.2373 105.122 121.035 115.767 164.792 135.328C208.534 154.906 241.665 175.969 238.766 182.411L238.769 182.443Z" fill="url(#paint4_radial_244_2595)"/>
<path d="M179.659 126.281C179.202 127.328 174.004 126.04 168.104 123.388C162.203 120.737 157.796 117.748 158.253 116.701C158.71 115.654 163.907 116.942 169.808 119.593C175.709 122.245 180.115 125.234 179.659 126.281Z" fill="#A1FFFF"/>
<path d="M226.156 149.375C225.685 150.439 222.131 149.865 218.241 148.114C214.337 146.381 211.556 144.092 212.03 143.059C212.487 142.012 216.056 142.569 219.946 144.319C223.85 146.053 226.63 148.342 226.156 149.375Z" fill="#A1FFFF"/>
<path d="M265.06 175.569C264.603 176.616 261.5 176.268 258.159 174.766C254.818 173.264 252.489 171.201 252.962 170.168C253.419 169.121 256.522 169.469 259.864 170.971C263.205 172.473 265.534 174.536 265.06 175.569Z" fill="#A1FFFF"/>
<path d="M75.5653 93.4315C75.1088 94.4787 72.0053 94.1306 68.6641 92.6284C65.3229 91.1262 62.9939 89.0634 63.4677 88.0304C63.9415 86.9975 67.0277 87.3313 70.3689 88.8335C73.7101 90.3357 76.0392 92.3985 75.5653 93.4315Z" fill="#A1FFFF"/>
<path style="mix-blend-mode:color-dodge" d="M119.286 93.9975C127.181 97.5353 132.305 103.206 130.745 106.685C129.185 110.163 121.527 110.103 113.636 106.596C105.741 103.059 100.617 97.3874 102.177 93.909C103.737 90.4305 111.395 90.4912 119.286 93.9975Z" fill="url(#paint5_radial_244_2595)"/>
<path style="mix-blend-mode:color-dodge" d="M171.792 115.214C179.687 118.752 184.811 124.423 183.251 127.902C181.691 131.38 174.033 131.319 166.142 127.813C158.247 124.275 153.123 118.604 154.683 115.126C156.243 111.647 163.9 111.708 171.792 115.214Z" fill="url(#paint6_radial_244_2595)"/>
<path style="mix-blend-mode:color-dodge" d="M221.911 139.926C229.806 143.464 234.93 149.135 233.37 152.614C231.81 156.092 224.152 156.032 216.261 152.525C208.366 148.987 203.242 143.316 204.802 139.838C206.362 136.359 214.02 136.42 221.911 139.926Z" fill="url(#paint7_radial_244_2595)"/>
<path style="mix-blend-mode:color-dodge" d="M262.382 167.033C270.277 170.571 275.401 176.242 273.841 179.72C272.281 183.199 264.623 183.138 256.731 179.632C248.837 176.094 243.713 170.423 245.273 166.944C246.833 163.466 254.49 163.527 262.382 167.033Z" fill="url(#paint8_radial_244_2595)"/>
<path style="mix-blend-mode:color-dodge" d="M70.1378 83.0963C78.0325 86.6341 83.1567 92.3053 81.5965 95.7837C80.0364 99.2621 72.379 99.2015 64.4873 95.6952C56.5926 92.1573 51.4685 86.4862 53.0286 83.0078C54.5887 79.5293 62.2461 79.59 70.1378 83.0963Z" fill="url(#paint9_radial_244_2595)"/>
<path style="mix-blend-mode:color-dodge" d="M244.918 177.544C250.121 179.882 253.501 183.624 252.48 185.92C251.459 188.215 246.396 188.171 241.196 185.865C235.994 183.527 232.613 179.785 233.634 177.489C234.655 175.193 239.718 175.238 244.918 177.544Z" fill="url(#paint10_radial_244_2595)"/>
<path d="M123.797 103.579C123.34 104.626 119.671 104.015 115.6 102.203C111.529 100.39 108.651 98.0789 109.122 97.0144C109.593 95.9499 113.248 96.578 117.319 98.3905C121.39 100.203 124.268 102.514 123.797 103.579Z" fill="#A1FFFF"/>
<g style="mix-blend-mode:soft-light">
<path d="M136.33 94.2357C136.33 94.2357 152.121 90.1893 173.062 97.9054C197.713 106.992 211.992 128.536 211.992 128.536C211.992 128.536 178.518 110.036 136.33 94.2357Z" fill="#BD95D4"/>
</g>
<defs>
<filter id="filter0_f_244_2595" x="56.9834" y="78.5804" width="201.618" height="148.306" filterUnits="userSpaceOnUse" color-interpolation-filters="sRGB">
<feFlood flood-opacity="0" result="BackgroundImageFix"/>
<feBlend mode="normal" in="SourceGraphic" in2="BackgroundImageFix" result="shape"/>
<feGaussianBlur stdDeviation="10" result="effect1_foregroundBlur_244_2595"/>
</filter>
<radialGradient id="paint0_radial_244_2595" cx="0" cy="0" r="1" gradientUnits="userSpaceOnUse" gradientTransform="translate(172.568 107.349) rotate(24.1025) scale(58.5926 58.7102)">
<stop stop-color="#D0CDEA"/>
<stop offset="1" stop-color="#7D75DA"/>
</radialGradient>
<radialGradient id="paint1_radial_244_2595" cx="0" cy="0" r="1" gradientUnits="userSpaceOnUse" gradientTransform="translate(166.287 120.305) rotate(24.1025) scale(103.493 103.701)">
<stop stop-color="#FAFAFD"/>
<stop offset="1" stop-color="#C3BFEE"/>
</radialGradient>
<radialGradient id="paint2_radial_244_2595" cx="0" cy="0" r="1" gradientUnits="userSpaceOnUse" gradientTransform="translate(161.884 130.2) rotate(25.4353) scale(102.909 103.121)">
<stop stop-color="#D0CDEA"/>
<stop offset="1" stop-color="#7D75DA"/>
</radialGradient>
<radialGradient id="paint3_radial_244_2595" cx="0" cy="0" r="1" gradientUnits="userSpaceOnUse" gradientTransform="translate(150.009 156.241) rotate(24.1025) scale(102.755 35.0069)">
<stop stop-color="#7C42B8"/>
<stop offset="0.63" stop-color="#272A95"/>
<stop offset="0.98" stop-color="#270579"/>
</radialGradient>
<radialGradient id="paint4_radial_244_2595" cx="0" cy="0" r="1" gradientUnits="userSpaceOnUse" gradientTransform="translate(184.298 91.6674) rotate(24.1025) scale(65.1029 31.3121)">
<stop stop-color="#68FFF6"/>
<stop offset="0.25" stop-color="#6AF6FF"/>
<stop offset="0.51" stop-color="#73FFF7"/>
<stop offset="0.78" stop-color="#81FFF7"/>
<stop offset="1" stop-color="#90F8FF"/>
</radialGradient>
<radialGradient id="paint5_radial_244_2595" cx="0" cy="0" r="1" gradientUnits="userSpaceOnUse" gradientTransform="translate(115.763 99.7466) rotate(-65.8293) scale(6.80581 15.4435)">
<stop stop-color="#2720F6"/>
<stop offset="0.08" stop-color="#211BD0"/>
<stop offset="0.22" stop-color="#181399"/>
<stop offset="0.36" stop-color="#100D6A"/>
<stop offset="0.49" stop-color="#0A0844"/>
<stop offset="0.62" stop-color="#060426"/>
<stop offset="0.75" stop-color="#020211"/>
<stop offset="0.88" stop-color="#000004"/>
<stop offset="1"/>
</radialGradient>
<radialGradient id="paint6_radial_244_2595" cx="0" cy="0" r="1" gradientUnits="userSpaceOnUse" gradientTransform="translate(168.288 121.008) rotate(-65.8293) scale(6.80581 15.4435)">
<stop stop-color="#2720F6"/>
<stop offset="0.08" stop-color="#211BD0"/>
<stop offset="0.22" stop-color="#181399"/>
<stop offset="0.36" stop-color="#100D6A"/>
<stop offset="0.49" stop-color="#0A0844"/>
<stop offset="0.62" stop-color="#060426"/>
<stop offset="0.75" stop-color="#020211"/>
<stop offset="0.88" stop-color="#000004"/>
<stop offset="1"/>
</radialGradient>
<radialGradient id="paint7_radial_244_2595" cx="0" cy="0" r="1" gradientUnits="userSpaceOnUse" gradientTransform="translate(218.201 145.575) rotate(-65.8293) scale(6.80581 15.4435)">
<stop stop-color="#2720F6"/>
<stop offset="0.08" stop-color="#211BD0"/>
<stop offset="0.22" stop-color="#181399"/>
<stop offset="0.36" stop-color="#100D6A"/>
<stop offset="0.49" stop-color="#0A0844"/>
<stop offset="0.62" stop-color="#060426"/>
<stop offset="0.75" stop-color="#020211"/>
<stop offset="0.88" stop-color="#000004"/>
<stop offset="1"/>
</radialGradient>
<radialGradient id="paint8_radial_244_2595" cx="0" cy="0" r="1" gradientUnits="userSpaceOnUse" gradientTransform="translate(258.558 172.577) rotate(-65.8293) scale(6.80581 15.4435)">
<stop stop-color="#2720F6"/>
<stop offset="0.08" stop-color="#211BD0"/>
<stop offset="0.22" stop-color="#181399"/>
<stop offset="0.36" stop-color="#100D6A"/>
<stop offset="0.49" stop-color="#0A0844"/>
<stop offset="0.62" stop-color="#060426"/>
<stop offset="0.75" stop-color="#020211"/>
<stop offset="0.88" stop-color="#000004"/>
<stop offset="1"/>
</radialGradient>
<radialGradient id="paint9_radial_244_2595" cx="0" cy="0" r="1" gradientUnits="userSpaceOnUse" gradientTransform="translate(66.4716 88.879) rotate(-65.8293) scale(6.80581 15.4435)">
<stop stop-color="#2720F6"/>
<stop offset="0.08" stop-color="#211BD0"/>
<stop offset="0.22" stop-color="#181399"/>
<stop offset="0.36" stop-color="#100D6A"/>
<stop offset="0.49" stop-color="#0A0844"/>
<stop offset="0.62" stop-color="#060426"/>
<stop offset="0.75" stop-color="#020211"/>
<stop offset="0.88" stop-color="#000004"/>
<stop offset="1"/>
</radialGradient>
<radialGradient id="paint10_radial_244_2595" cx="0" cy="0" r="1" gradientUnits="userSpaceOnUse" gradientTransform="translate(242.274 181.198) rotate(-65.8293) scale(4.53721 10.2956)">
<stop stop-color="#2720F6"/>
<stop offset="0.08" stop-color="#211BD0"/>
<stop offset="0.22" stop-color="#181399"/>
<stop offset="0.36" stop-color="#100D6A"/>
<stop offset="0.49" stop-color="#0A0844"/>
<stop offset="0.62" stop-color="#060426"/>
<stop offset="0.75" stop-color="#020211"/>
<stop offset="0.88" stop-color="#000004"/>
<stop offset="1"/>
</radialGradient>
</defs>
</svg>
