<svg width="251" height="305" viewBox="0 0 251 305" fill="none" xmlns="http://www.w3.org/2000/svg">
<g filter="url(#filter0_f_244_2262)">
<path d="M143.428 138.045L170.64 155.478L172.469 153.329L150.621 129.622L143.428 138.045Z" fill="url(#paint0_radial_244_2262)"/>
</g>
<mask id="mask0_244_2262" style="mask-type:luminance" maskUnits="userSpaceOnUse" x="24" y="18" width="64" height="75">
<path d="M87.0275 18.7764L24.165 92.4373C24.4576 91.7292 28.8224 51.0045 87.0275 18.7764Z" fill="white"/>
</mask>
<g mask="url(#mask0_244_2262)">
<path d="M87.0275 18.7764H24.165V92.4373H87.0275V18.7764Z" fill="#270579"/>
<path d="M85.2228 4.37137C95.391 10.8902 89.5388 38.2109 72.1529 65.4096C54.7669 92.5838 32.431 109.357 22.2628 102.814C12.0946 96.2949 17.9468 68.9742 35.3327 41.7756C44.0379 28.1763 53.9623 17.1894 62.9844 10.4264V16.3104H85.2228V4.37137Z" fill="#270579"/>
<path d="M84.9307 4.85968C95.0014 11.3297 89.1979 38.3819 71.9827 65.3119C54.7674 92.242 32.6266 108.82 22.5559 102.374C12.4852 95.9043 18.2887 68.8521 35.5039 41.9221C44.1115 28.4693 53.9628 17.58 62.8874 10.8658V16.3349H84.9063V4.85968H84.9307Z" fill="#27067A"/>
<path d="M84.6132 5.32358C94.5863 11.7204 88.8317 38.5284 71.7871 65.1898C54.7426 91.8513 32.8212 108.283 22.848 101.886C12.8749 95.4892 18.6296 68.6812 35.6741 42.0197C44.2086 28.689 53.9379 17.9219 62.7894 11.2809V16.3349H84.6132V5.32358Z" fill="#27077B"/>
<path d="M71.6215 65.0513C88.5093 38.6516 94.1923 12.1152 84.315 5.78061C74.4376 -0.55401 52.7402 15.7119 35.8524 42.1116C18.9647 68.5113 13.2816 95.0478 23.159 101.382C33.0363 107.717 54.7337 91.451 71.6215 65.0513Z" fill="#27087B"/>
<path d="M84.0042 6.27576C93.7822 12.5505 88.1495 38.8213 71.4219 64.9457C54.6943 91.0944 33.2119 107.184 23.4338 100.909C13.6557 94.6347 19.2885 68.3638 36.016 42.2395C52.7436 16.1151 74.2261 0.0010314 84.0042 6.27576Z" fill="#27097C"/>
<path d="M71.2725 64.8275C87.8261 38.9501 93.3946 12.9373 83.71 6.72634C74.0255 0.515357 52.7552 16.4581 36.2015 42.3355C19.6479 68.2129 14.0794 94.2257 23.764 100.437C33.4486 106.648 54.7188 90.7049 71.2725 64.8275Z" fill="#270A7D"/>
<path d="M83.3941 7.22796C92.9771 13.3806 87.4662 39.1143 71.0801 64.7259C54.6939 90.3376 33.6503 106.134 24.0673 99.9816C14.4843 93.829 19.9952 68.0953 36.3814 42.4836C52.7675 16.8476 73.8111 1.07531 83.3941 7.22796Z" fill="#270B7E"/>
<path d="M70.9029 64.5904C87.1224 39.2353 92.5855 13.7521 83.1051 7.67205C73.6246 1.59198 52.7907 17.2174 36.5712 42.5725C20.3516 67.9276 14.8886 93.4108 24.369 99.4909C33.8495 105.571 54.6834 89.9455 70.9029 64.5904Z" fill="#270C7E"/>
<path d="M82.8089 8.15573C92.1968 14.1863 86.7835 39.4073 70.7387 64.4818C54.6939 89.5807 34.0649 105.036 24.677 99.005C15.2891 92.9744 20.7024 67.7534 36.7472 42.6789C52.792 17.6044 73.421 2.14957 82.8089 8.15573Z" fill="#270D7F"/>
<path d="M70.5539 64.3666C86.4393 39.5338 91.7878 14.5742 82.5001 8.61781C73.2125 2.66137 52.8057 17.9636 36.9203 42.7964C21.0349 67.6291 15.6864 92.5887 24.974 98.5452C34.2617 104.502 54.6685 89.1993 70.5539 64.3666Z" fill="#270E80"/>
<path d="M82.1999 9.10793C91.3927 14.992 86.1013 39.7003 70.3735 64.2621C54.6457 88.8238 34.4556 103.961 25.2872 98.0772C16.0943 92.1931 21.3857 67.4849 37.1135 42.9231C52.8169 18.3613 73.007 3.22385 82.1999 9.10793Z" fill="#270F81"/>
<path d="M81.8823 9.59623C90.9776 15.4315 85.735 39.8468 70.1779 64.1644C54.6208 88.482 34.6501 103.449 25.5548 97.6133C16.4595 91.7781 21.7021 67.3628 37.2348 43.0452C52.8163 18.7276 72.787 3.76098 81.8823 9.59623Z" fill="#271082"/>
<path d="M81.5902 10.0601C90.588 15.8221 85.3942 39.9933 70.0321 64.0423C54.6457 88.0914 34.8945 102.911 25.8967 97.125C16.899 91.363 22.0928 67.1919 37.4548 43.1428C52.8413 19.0938 72.5925 4.27372 81.5902 10.0601Z" fill="#271182"/>
<path d="M81.2733 10.524C90.1735 16.2372 85.0528 40.1398 69.8371 63.9202C54.6214 87.7007 35.0896 102.35 26.1894 96.6611C17.2892 90.9479 22.4098 67.0454 37.6256 43.2649C52.8413 19.4844 72.3731 4.83526 81.2733 10.524Z" fill="#271283"/>
<path d="M80.9802 11.0123C89.7829 16.6523 84.711 40.2862 69.6659 63.8226C54.6209 87.3345 35.2842 101.837 26.4815 96.1972C17.6788 90.5573 22.7507 66.9233 37.7958 43.387C52.8408 19.8751 72.1775 5.3724 80.9802 11.0123Z" fill="#271384"/>
<path d="M80.6881 11.4762C89.3933 17.0673 84.3701 40.4327 69.4958 63.7005C54.6214 86.9683 35.5042 101.3 26.799 95.7089C18.0939 90.1178 23.117 66.7524 37.9914 43.4847C52.8657 20.2169 71.9829 5.88512 80.6881 11.4762Z" fill="#271485"/>
<path d="M80.3712 11.9645C88.9788 17.4824 84.0288 40.6036 69.3007 63.6028C54.5971 86.602 35.6993 100.763 27.0917 95.245C18.4841 89.7272 23.4341 66.6059 38.1621 43.6067C52.8658 20.6075 71.7635 6.44666 80.3712 11.9645Z" fill="#271585"/>
<path d="M80.0781 12.4284C88.5881 17.873 83.6869 40.7257 69.1296 63.4808C54.5966 86.2114 35.8939 100.226 27.3838 94.7812C18.8737 89.3366 23.775 66.4838 38.3323 43.7288C52.8653 20.9982 71.568 6.98381 80.0781 12.4284Z" fill="#271686"/>
<path d="M68.952 63.3394C83.3266 40.8685 88.1674 18.2834 79.7643 12.8942C71.3612 7.50505 52.8962 21.3526 38.5216 43.8236C24.147 66.2945 19.3062 88.8796 27.7094 94.2688C36.1125 99.658 54.5775 85.8104 68.952 63.3394Z" fill="#271887"/>
<path d="M79.469 13.3806C87.784 18.7031 83.0047 41.0431 68.7887 63.261C54.5727 85.4789 36.3333 99.1515 28.0183 93.8289C19.7033 88.5064 24.4826 66.1664 38.6986 43.9485C52.9146 21.7306 71.154 8.05807 79.469 13.3806Z" fill="#271988"/>
<path d="M68.603 63.1156C82.6435 41.1669 87.3697 19.1055 79.1594 13.8399C70.949 8.57443 52.9112 22.0988 38.8707 44.0474C24.8303 65.9961 20.104 88.0575 28.3144 93.3231C36.5247 98.5886 54.5626 85.0642 68.603 63.1156Z" fill="#271A89"/>
<path d="M78.8594 14.3328C86.9793 19.5333 82.2976 41.3361 68.423 63.0169C54.5483 84.6976 36.7235 98.0772 28.6036 92.8768C20.4836 87.6763 25.1654 65.8735 39.04 44.1927C52.9146 22.5119 70.7395 9.13236 78.8594 14.3328Z" fill="#271B89"/>
<path d="M68.254 62.8917C81.9603 41.4654 86.572 19.9276 78.5544 14.7857C70.5369 9.64383 52.9262 22.845 39.2198 44.2713C25.5135 65.6977 20.9019 87.2355 28.9194 92.3773C36.937 97.5192 54.5477 84.3181 68.254 62.8917Z" fill="#271C8A"/>
<path d="M78.2494 15.2606C86.1742 20.339 81.6144 41.6047 68.0568 62.7727C54.5236 83.9408 37.1132 96.9785 29.2128 91.9001C21.2879 86.8218 25.8477 65.5561 39.4054 44.388C52.9386 23.22 70.3489 10.1822 78.2494 15.2606Z" fill="#271D8B"/>
<path d="M77.9572 15.7489C85.7845 20.754 81.2735 41.7756 67.9109 62.6751C54.5484 83.5745 37.3575 96.4658 29.5302 91.4363C21.7029 86.4311 26.214 65.4096 39.5765 44.5101C52.939 23.6106 70.1299 10.7193 77.9572 15.7489Z" fill="#271E8C"/>
<path d="M77.6397 16.2128C85.3695 21.1691 80.9072 41.9221 67.7154 62.553C54.4991 83.2083 37.5521 95.9287 29.8223 90.9724C22.0925 86.0161 26.5548 65.2631 39.7467 44.6322C52.9629 23.9768 69.91 11.2565 77.6397 16.2128Z" fill="#271F8C"/>
<path d="M77.3472 16.7011C84.9795 21.5841 80.5903 42.0686 67.5448 62.4553C54.4992 82.8421 37.7473 95.3915 30.1394 90.5085C22.5071 85.6254 26.8963 65.141 39.9418 44.7542C52.9874 24.3675 69.7393 11.818 77.3472 16.7011Z" fill="#27208D"/>
<path d="M77.0297 17.165C84.5644 21.9992 80.224 42.2151 67.3492 62.3332C54.4743 82.4514 37.9418 94.8544 30.4071 90.0202C22.8724 85.1859 27.2128 64.9701 40.0876 44.8519C52.9625 24.7337 69.495 12.3308 77.0297 17.165Z" fill="#27218E"/>
<path d="M76.7376 17.6289C84.1748 22.3899 79.8832 42.3616 67.179 62.2112C54.4748 82.0608 38.1618 94.3173 30.7246 89.5319C23.2875 84.7709 27.5791 64.7992 40.2832 44.9496C52.9874 25.1 69.3004 12.8435 76.7376 17.6289Z" fill="#27228F"/>
<path d="M76.4207 18.1172C83.7603 22.8293 79.5418 42.508 66.984 62.1135C54.4505 81.719 38.3325 93.7801 31.0173 89.0924C23.6776 84.3802 27.8961 64.7015 40.454 45.0961C52.9874 25.4906 69.1054 13.4294 76.4207 18.1172Z" fill="#272390"/>
<path d="M76.1275 18.5811C83.3696 23.22 79.1999 42.6545 66.8371 61.9914C54.4743 81.3283 38.5758 93.243 31.3581 88.6041C24.1404 83.9652 28.2857 64.5306 40.6485 45.1937C53.0112 25.8568 68.9097 13.9422 76.1275 18.5811Z" fill="#272490"/>
<path d="M75.8354 19.0694C82.98 23.635 78.8591 42.8254 66.667 61.8938C54.4749 80.9621 38.7958 92.7303 31.6513 88.1402C24.5067 83.5745 28.6276 64.3841 40.8197 45.3158C53.0118 26.2475 68.6909 14.4793 75.8354 19.0694Z" fill="#272591"/>
<path d="M75.518 19.5333C82.565 24.0501 78.4928 42.9475 66.4714 61.7717C54.45 80.5959 38.9661 92.1687 31.9434 87.6519C24.8964 83.1351 28.9685 64.2376 40.9899 45.4134C53.0357 26.5893 68.4953 15.0164 75.518 19.5333Z" fill="#272692"/>
<path d="M75.2254 19.9972C82.1749 24.4407 78.1759 43.094 66.3008 61.6496C54.4257 80.2052 39.1856 91.6316 32.2605 87.188C25.311 82.7444 29.31 64.0911 41.1851 45.5355C53.0602 26.9799 68.3003 15.5536 75.2254 19.9972Z" fill="#272793"/>
<path d="M74.9089 20.4855C81.7608 24.8802 77.8106 43.2649 66.1062 61.552C54.4018 79.839 39.3811 91.1189 32.5292 86.7241C25.6772 82.3294 29.6274 63.9447 41.3319 45.6576C53.0363 27.3706 68.0569 16.0907 74.9089 20.4855Z" fill="#272893"/>
<path d="M74.6158 20.9493C81.3703 25.2708 77.4688 43.387 65.9351 61.4299C54.4013 79.4484 39.6001 90.5573 32.8457 86.2358C26.0913 81.9143 29.9928 63.7982 41.5265 45.7553C53.0602 27.7368 67.8614 16.6278 74.6158 20.9493Z" fill="#272994"/>
<path d="M74.2987 21.4377C80.9556 25.7103 77.1273 43.5579 65.7643 61.3322C54.4012 79.1065 39.7951 90.0446 33.1626 85.7719C26.5301 81.4992 30.334 63.6517 41.6971 45.8773C53.0601 28.103 67.6662 17.165 74.2987 21.4377Z" fill="#272A95"/>
<path d="M74.0066 21.9016C80.5416 26.101 76.7864 43.7044 65.5941 61.1857C54.4017 78.6915 40.0151 89.483 33.4557 85.2836C26.9207 81.0842 30.6759 63.4808 41.8683 45.9994C53.0606 28.4937 67.4473 17.7021 74.0066 21.9016Z" fill="#272A95"/>
<path d="M73.7629 22.2678C80.2248 26.4184 76.5184 43.802 65.4479 61.1125C54.3775 78.4229 40.1615 89.068 33.6997 84.9174C27.2379 80.7668 30.9443 63.3831 42.0147 46.0727C53.0851 28.7866 67.3011 18.1172 73.7629 22.2678Z" fill="#282A95"/>
<path d="M73.5431 22.6584C79.9318 26.7602 76.2498 43.9485 65.3256 61.0392C54.4015 78.1299 40.3562 88.6529 33.9432 84.5512C27.5545 80.4494 31.2365 63.261 42.1607 46.1703C53.0848 29.0796 67.1301 18.5567 73.5431 22.634V22.6584Z" fill="#292B96"/>
<path d="M73.2994 23.0246C79.6149 27.0776 75.9817 44.0462 65.1795 60.9416C54.3773 77.837 40.5027 88.2379 34.1872 84.1849C27.8717 80.132 31.5049 63.1634 42.3071 46.268C53.1093 29.3726 66.9839 18.9717 73.2994 23.0246Z" fill="#2A2B96"/>
<path d="M73.0557 23.3909C79.2981 27.395 75.7136 44.1683 65.0333 60.8439C54.353 77.5196 40.6491 87.7984 34.4068 83.7943C28.1644 79.7902 31.7489 63.0169 42.4292 46.3412C53.1094 29.6656 66.8134 19.3868 73.0557 23.3909Z" fill="#2B2B97"/>
<path d="M72.8115 23.7571C78.9807 27.7124 75.4206 44.2659 64.8866 60.7463C54.3527 77.2266 40.8194 87.3833 34.6502 83.4281C28.481 79.4728 32.0411 62.9192 42.5751 46.4389C53.1091 29.9586 66.6423 19.8018 72.8115 23.7571Z" fill="#2C2B97"/>
<path d="M72.5678 24.1478C78.6638 28.0542 75.1525 44.4124 64.7405 60.673C54.3284 76.9336 40.9659 86.9683 34.8698 83.0618C28.7738 79.1554 32.2851 62.7971 42.6971 46.5366C53.1092 30.276 66.4717 20.2413 72.5678 24.1478Z" fill="#2D2C98"/>
<path d="M72.3484 24.514C78.3469 28.3716 74.9088 44.5101 64.6186 60.5754C54.3529 76.6406 41.1366 86.5288 35.1381 82.6712C29.1396 78.8136 32.5778 62.6751 42.8679 46.6098C53.1337 30.5446 66.3499 20.6564 72.3484 24.514Z" fill="#2E2C98"/>
<path d="M72.1042 24.8802C78.0295 28.689 74.6158 44.6322 64.4719 60.4777C54.3281 76.3232 41.3069 86.1137 35.3572 82.305C29.4318 78.4962 32.8456 62.553 42.9895 46.7075C53.1333 30.862 66.1544 21.0714 72.1042 24.8802Z" fill="#2F2C98"/>
<path d="M71.8605 25.2709C77.7127 29.0308 74.3477 44.7542 64.3258 60.4044C54.3039 76.0546 41.4534 85.6987 35.6012 81.9387C29.749 78.1788 33.114 62.4553 43.1359 46.8051C53.1578 31.1549 66.0083 21.5109 71.8605 25.2709Z" fill="#302D99"/>
<path d="M71.6172 25.6371C77.3963 29.3482 74.0556 44.8763 64.18 60.3068C54.3044 75.7617 41.6003 85.2592 35.8212 81.5725C30.0422 77.8614 33.3828 62.3333 43.2584 46.9028C53.134 31.4479 65.8382 21.9504 71.6172 25.6371Z" fill="#312D99"/>
<path d="M71.3726 26.0033C77.0785 29.6656 73.7866 44.974 64.0329 60.2091C54.2792 75.4442 41.7702 84.8441 36.0643 81.1818C30.3584 77.5195 33.6502 62.2112 43.4039 46.976C53.1576 31.7409 65.6667 22.341 71.3726 26.0033Z" fill="#322D9A"/>
<path d="M71.1533 26.3695C76.786 29.983 73.5429 45.0961 63.9112 60.1115C54.2794 75.1269 41.941 84.4047 36.3082 80.7912C30.6755 77.1777 33.9186 62.0647 43.5504 47.0493C53.1577 32.0095 65.5205 22.7561 71.1533 26.3695Z" fill="#332D9A"/>
<path d="M70.9099 26.7602C76.4451 30.3248 73.2508 45.2181 63.7897 60.0382C54.3043 74.8583 42.1122 83.9896 36.5769 80.4494C31.0417 76.8847 34.2361 61.9914 43.6971 47.1713C53.1826 32.3513 65.3747 23.22 70.9099 26.7602Z" fill="#342E9A"/>
<path d="M70.6662 27.1264C76.1282 30.6422 72.9827 45.3402 63.6435 59.9405C54.28 74.5653 42.283 83.5745 36.7965 80.0587C31.3345 76.5429 34.48 61.8449 43.8192 47.2446C53.1827 32.6198 65.1797 23.6106 70.6662 27.1264Z" fill="#352E9B"/>
<path d="M70.4225 27.4926C75.8114 30.9596 72.7146 45.4379 63.4974 59.8429C54.2802 74.2479 42.4294 83.1351 37.0405 79.6925C31.6516 76.2255 34.7484 61.7473 43.9656 47.3423C53.1829 32.9372 65.0336 24.0501 70.4225 27.4926Z" fill="#362E9B"/>
<path d="M70.2027 27.8589C75.5184 31.277 72.446 45.5599 63.3751 59.7696C54.3042 73.9793 42.5998 82.7444 37.284 79.3263C31.9682 75.9081 35.0407 61.6252 44.1116 47.4155C53.2069 33.2058 64.8869 24.4407 70.2027 27.8589Z" fill="#372F9C"/>
<path d="M69.959 28.2495C75.2016 31.6188 72.1779 45.682 63.2289 59.6964C54.2799 73.7108 42.7706 82.3294 37.528 78.9601C32.2854 75.5907 35.309 61.5275 44.258 47.5132C53.207 33.4988 64.7164 24.8802 69.959 28.2495Z" fill="#382F9C"/>
<path d="M69.7153 28.6158C74.8847 31.9362 71.9098 45.8041 63.0828 59.5987C54.2557 73.3934 42.917 81.8899 37.7476 78.5938C32.5781 75.2734 35.553 61.4055 44.3801 47.6108C53.2072 33.8162 64.5458 25.3197 69.7153 28.6158Z" fill="#392F9D"/>
<path d="M69.471 28.982C74.5429 32.2536 71.6168 45.9018 62.936 59.5011C54.2308 73.1004 43.0629 81.4748 37.991 78.2032C32.919 74.9315 35.8452 61.2834 44.5259 47.6841C53.2311 34.0848 64.399 25.7103 69.471 28.982Z" fill="#3A2F9D"/>
<path d="M69.2272 29.3726C74.226 32.5954 71.3487 46.0483 62.7898 59.4278C54.231 72.8074 43.2337 81.0598 38.2105 77.8614C33.2118 74.6386 36.0891 61.1857 44.648 47.8062C53.2068 34.4266 64.2041 26.1742 69.2272 29.3726Z" fill="#3B309D"/>
<path d="M69.008 29.7389C73.9336 32.8884 71.105 46.1459 62.6681 59.3302C54.2311 72.5144 43.4046 80.6203 38.479 77.4707C33.5533 74.3211 36.3819 61.0637 44.8188 47.8794C53.2558 34.6952 64.0824 26.5893 69.008 29.7389Z" fill="#3C309E"/>
<path d="M68.7637 30.1051C73.6162 33.2058 70.812 46.268 62.5214 59.2325C54.2307 72.197 43.5505 80.2052 38.698 77.0801C33.8456 73.9793 36.6497 60.9172 44.9404 47.9526C53.231 34.9881 63.9113 26.9799 68.7637 30.1051Z" fill="#3D309E"/>
<path d="M68.52 30.4713C73.2993 33.5232 70.5439 46.3657 62.3752 59.1348C54.2065 71.904 43.7213 79.7658 38.942 76.7138C34.1627 73.6619 36.9181 60.8195 45.0868 48.0503C53.2555 35.2811 63.7407 27.4194 68.52 30.4713Z" fill="#3E319F"/>
<path d="M68.2763 30.8619C72.9825 33.865 70.2758 46.5121 62.229 59.0616C54.1823 71.6355 43.8677 79.3751 39.1616 76.3476C34.4554 73.3445 37.1621 60.6974 45.2089 48.148C53.2557 35.5741 63.5702 27.8344 68.2763 30.8619Z" fill="#3F319F"/>
<path d="M68.0565 31.2282C72.6895 34.1824 70.0073 46.6098 62.1068 58.9639C54.2063 71.3181 44.0381 78.9356 39.4295 75.9814C34.7965 73.0271 37.4788 60.5998 45.3792 48.2456C53.2797 35.8915 63.4479 28.2739 68.0565 31.2282Z" fill="#40319F"/>
<path d="M67.8128 31.5944C72.3483 34.4998 69.7392 46.7319 61.9606 58.8663C54.182 71.0251 44.2089 78.4962 39.6491 75.5908C35.0892 72.6853 37.7227 60.4533 45.5013 48.3189C53.2798 36.1845 63.253 28.689 67.8128 31.5944Z" fill="#4131A0"/>
<path d="M67.569 31.9606C72.0313 34.8172 69.471 46.8295 61.8144 58.7686C54.1821 70.7077 44.3553 78.0811 39.893 75.2001C35.4307 72.3435 37.991 60.3312 45.6476 48.3921C53.2799 36.453 63.1067 29.0796 67.569 31.9606Z" fill="#4232A0"/>
<path d="M67.3248 32.3513C71.714 35.159 69.178 46.976 61.6677 58.6954C54.1573 70.4391 44.5012 77.666 40.112 74.8583C35.7229 72.0505 38.2588 60.2335 45.7692 48.5142C53.2795 36.7704 62.9356 29.5435 67.3248 32.3513Z" fill="#4332A1"/>
<path d="M67.0811 32.7175C71.3971 35.4764 68.9099 47.0737 61.5458 58.5977C54.1574 70.1217 44.6964 77.2266 40.3804 74.4676C36.0644 71.7087 38.5516 60.1115 45.9156 48.5874C53.304 37.0634 62.7651 29.9586 67.0811 32.7175Z" fill="#4432A1"/>
<path d="M66.8618 33.0837C71.1046 35.7938 68.6662 47.1958 61.4241 58.5C54.182 69.8043 44.8672 76.8115 40.6244 74.077C36.3815 71.3669 38.8199 59.965 46.062 48.6607C53.3041 37.332 62.6189 30.3492 66.8618 33.0837Z" fill="#4533A2"/>
<path d="M66.6185 33.4744C70.7882 36.1357 68.3742 47.3179 61.2784 58.4512C54.1582 69.5602 45.0385 76.4209 40.8688 73.7596C36.6991 71.0983 39.1132 59.9161 46.209 48.7828C53.3291 37.6738 62.4488 30.8131 66.6185 33.4744Z" fill="#4633A2"/>
<path d="M66.3747 33.8406C70.4469 36.453 68.106 47.4399 61.1321 58.3535C54.1582 69.2672 45.1848 75.9814 41.0883 73.3689C37.0161 70.7565 39.357 59.7696 46.3309 48.856C53.3048 37.9424 62.2782 31.2282 66.3747 33.8406Z" fill="#4733A2"/>
<path d="M66.1301 34.2069C70.1291 36.7705 67.8369 47.5376 60.985 58.2559C54.133 68.9742 45.3303 75.5663 41.3313 73.0027C37.3323 70.4391 39.6244 59.672 46.4764 48.9537C53.3283 38.2354 62.131 31.6433 66.1301 34.2069Z" fill="#4833A3"/>
<path d="M65.8868 34.5731C69.8126 37.0878 67.5449 47.6597 60.8393 58.1582C54.1092 68.6568 45.5016 75.1268 41.5514 72.6121C37.6255 70.0973 39.8932 59.5255 46.5989 49.0269C53.3045 38.5283 61.9365 32.0583 65.8868 34.5731Z" fill="#4934A3"/>
<path d="M65.6675 34.9637C69.5202 37.4297 67.3013 47.7817 60.7175 58.085C54.1338 68.3882 45.6725 74.7362 41.8198 72.2458C37.9671 69.7799 40.186 59.4278 46.7698 49.1246C53.3535 38.8213 61.8148 32.4734 65.6675 34.9637Z" fill="#4A34A4"/>
<path d="M65.4228 35.3299C69.2024 37.7471 67.0322 47.9038 60.5704 57.9873C54.1086 68.0708 45.8179 74.2967 42.0384 71.8796C38.2588 69.4625 40.429 59.3057 46.8908 49.2222C53.3526 39.1387 61.6433 32.9128 65.4228 35.3299Z" fill="#4B34A4"/>
<path d="M65.1796 35.6962C68.886 38.0644 66.7402 48.0015 60.4247 57.8897C54.1092 67.7778 45.9892 73.8573 42.2828 71.489C38.5764 69.1207 40.7222 59.1837 47.0377 49.2955C53.3533 39.4073 61.4732 33.3279 65.1796 35.6962Z" fill="#4C35A4"/>
<path d="M64.9359 36.0624C68.5447 38.3818 66.4721 48.1235 60.2785 57.792C54.0849 67.4604 46.1357 73.4422 42.5024 71.1227C38.8692 68.8033 40.9662 59.0616 47.1598 49.3931C53.3534 39.7247 61.3026 33.7429 64.9359 36.0624Z" fill="#4D35A5"/>
<path d="M64.7165 36.4531C68.2522 38.7237 66.2283 48.2456 60.1567 57.7188C54.085 67.1919 46.3064 73.0271 42.7707 70.7565C39.235 68.4859 41.2589 58.964 47.3306 49.4908C53.4022 40.0177 61.1808 34.1824 64.7165 36.4531Z" fill="#4E35A5"/>
<path d="M64.4723 36.8193C67.9348 39.0411 65.9353 48.3677 60.01 57.6211C54.0846 66.8989 46.4767 72.5877 42.9898 70.3659C39.5272 68.1441 41.5267 58.8174 47.4521 49.564C53.3775 40.3107 60.9853 34.5975 64.4723 36.8193Z" fill="#4F35A6"/>
<path d="M64.2286 37.1855C67.618 39.3585 65.6672 48.4654 59.8638 57.5234C54.0604 66.5815 46.6232 72.1726 43.2338 69.9997C39.8444 67.8267 41.7951 58.7198 47.5986 49.6617C53.402 40.6037 60.8392 35.0126 64.2286 37.1855Z" fill="#5036A6"/>
<path d="M63.9849 37.5761C67.3011 39.7003 65.3991 48.6118 59.7176 57.4502C54.0361 66.2885 46.7696 71.7575 43.4534 69.6334C40.1371 67.5093 42.0391 58.5977 47.7206 49.7594C53.4021 40.921 60.6686 35.452 63.9849 37.5761Z" fill="#5236A7"/>
<path d="M63.7407 37.9424C66.9837 40.0177 65.1062 48.7095 59.571 57.3525C54.0357 65.9955 46.9399 71.3425 43.6968 69.2672C40.4537 67.1919 42.3313 58.5001 47.8665 49.8571C53.4018 41.214 60.4976 35.8671 63.7407 37.9424Z" fill="#5336A7"/>
<path d="M63.5213 38.3086C66.6913 40.3351 64.8625 48.8316 59.4492 57.2549C54.0603 65.7026 47.1108 70.903 43.9408 68.8766C40.7709 66.8501 42.5997 58.3536 48.013 49.9303C53.4019 41.4826 60.3514 36.2822 63.5213 38.3086Z" fill="#5437A7"/>
<path d="M63.2775 38.6748C66.3499 40.6525 64.5943 48.9292 59.3273 57.1572C54.0603 65.3851 47.2815 70.4635 44.2091 68.4859C41.1367 66.5082 42.8923 58.2315 48.1593 50.0035C53.4263 41.7756 60.2051 36.6972 63.2775 38.6748Z" fill="#5537A8"/>
<path d="M63.0333 39.0655C66.0325 40.9943 64.3013 49.0757 59.1806 57.084C54.0355 65.1166 47.4518 70.0729 44.4281 68.1441C41.4289 66.2153 43.1602 58.1338 48.2808 50.1256C53.4015 42.1174 60.0096 37.1367 63.0333 39.0655Z" fill="#5637A8"/>
<path d="M62.7896 39.4317C65.7157 41.3117 64.0332 49.1734 59.0344 57.0107C54.0357 64.848 47.5982 69.6578 44.6721 67.7779C41.746 65.8979 43.4285 58.0362 48.4273 50.1989C53.4261 42.3616 59.8635 37.5517 62.7896 39.4317Z" fill="#5737A9"/>
<path d="M62.5703 39.798C65.4232 41.6291 63.7895 49.2955 58.9127 56.9131C54.0358 64.5306 47.7691 69.2184 44.9161 67.4116C42.0632 65.5805 43.6969 57.9141 48.5738 50.2965C53.4506 42.679 59.7173 37.9912 62.5703 39.798Z" fill="#5838A9"/>
<path d="M62.3261 40.1642C65.1059 41.9465 63.4965 49.3932 58.766 56.8154C54.0355 64.2376 47.9394 68.8033 45.1596 67.021C42.3798 65.2387 43.9892 57.792 48.7197 50.3698C53.4502 42.9475 59.5463 38.3819 62.3261 40.1642Z" fill="#5938A9"/>
<path d="M62.0824 40.5548C64.789 42.2883 63.2284 49.5396 58.6198 56.7422C54.0112 63.9447 48.0858 68.3882 45.3792 66.6548C42.6726 64.9213 44.2331 57.6699 48.8418 50.4674C53.4504 43.2649 59.3757 38.8213 62.0824 40.5548Z" fill="#5A38AA"/>
<path d="M61.8386 40.921C64.4477 42.6057 62.9603 49.6373 58.4736 56.6445C53.9869 63.6517 48.2322 67.9488 45.6231 66.2885C43.014 64.6039 44.5014 57.5723 48.9881 50.5651C53.4748 43.5579 59.2295 39.2608 61.8386 40.921Z" fill="#5B39AA"/>
<path d="M61.5953 41.2873C64.1313 42.9231 62.6682 49.7594 58.3278 56.5468C53.9875 63.3343 48.4035 67.5337 45.8431 65.8979C43.3072 64.2621 44.7702 57.4258 49.1106 50.6383C53.451 43.8509 59.035 39.6515 61.5953 41.2873Z" fill="#5C39AB"/>
<path d="M61.3751 41.6535C63.8379 43.2405 62.4236 49.857 58.2051 56.4491C53.9867 63.0413 48.5734 67.0942 46.1106 65.5072C43.6478 63.9202 45.0621 57.3037 49.2805 50.7116C53.499 44.1194 58.9123 40.0665 61.3751 41.6535Z" fill="#5D39AB"/>
<path d="M61.1314 42.0442C63.521 43.5823 62.1555 50.0035 58.059 56.3759C53.9624 62.7483 48.7198 66.7036 46.3302 65.1654C43.9405 63.6273 45.306 57.206 49.4026 50.8337C53.4747 44.4613 58.7417 40.506 61.1314 42.0442Z" fill="#5E39AC"/>
<path d="M60.8881 42.4104C63.2046 43.8997 61.8635 50.1012 57.9133 56.2782C53.963 62.4553 48.8911 66.2641 46.5746 64.7747C44.2581 63.2854 45.5992 57.0839 49.5495 50.9069C53.4997 44.7298 58.5716 40.921 60.8881 42.4104Z" fill="#5F3AAC"/>
<path d="M60.6444 42.7766C62.8878 44.2171 61.5954 50.2232 57.7671 56.1805C53.9388 62.1623 49.0375 65.8246 46.7942 64.4085C44.5508 62.968 45.8432 56.9618 49.6715 51.0045C53.4998 45.0228 58.4011 41.3605 60.6444 42.7766Z" fill="#603AAC"/>
<path d="M60.4241 43.1672C62.5699 44.5589 61.3507 50.3453 57.6443 56.1073C53.9623 61.8693 49.2073 65.434 47.0615 64.0423C44.9157 62.6506 46.1349 56.8642 49.8413 51.1022C53.5233 45.3402 58.2783 41.7756 60.4241 43.1672Z" fill="#613AAD"/>
<path d="M60.1808 43.5335C62.2535 44.8763 61.0586 50.4674 57.4985 56.0097C53.9385 61.5764 49.3786 64.9945 47.2816 63.6517C45.2089 62.3088 46.4037 56.7177 49.9638 51.1755C53.5239 45.6332 58.0838 42.1906 60.1808 43.5335Z" fill="#623BAD"/>
<path d="M59.9371 43.8997C61.9366 45.1937 60.7906 50.5651 57.3524 55.912C53.9386 61.259 49.5251 64.555 47.5256 63.2854C45.5261 61.9914 46.6721 56.6201 50.1103 51.2731C53.5241 45.9262 57.9376 42.6301 59.9371 43.8997Z" fill="#633BAE"/>
<path d="M57.2272 55.8202C60.5176 50.6765 61.6222 45.5044 59.6943 44.268C57.7665 43.0317 53.5363 46.1992 50.2459 51.3428C46.9555 56.4865 45.8509 61.6586 47.7788 62.895C49.7066 64.1314 53.9368 60.9639 57.2272 55.8202Z" fill="#643BAE"/>
<path d="M59.4491 44.6566C61.3023 45.8529 60.2294 50.8092 57.0595 55.7411C53.8895 60.673 49.8417 63.7249 47.9885 62.553C46.1353 61.3566 47.2082 56.4003 50.3538 51.4684C53.5238 46.5366 57.5715 43.4847 59.4247 44.6566H59.4491Z" fill="#653BAE"/>
<path d="M59.2298 45.0228C61.0099 46.1703 59.9858 50.9313 56.9621 55.6679C53.9385 60.4044 50.037 63.3343 48.257 62.1868C46.4769 61.0392 47.501 56.2783 50.5247 51.5417C53.5483 46.8051 57.4498 43.8753 59.2298 45.0228Z" fill="#663CAF"/>
<path d="M58.9855 45.389C60.6681 46.4877 59.6927 51.029 56.8153 55.5702C53.9136 60.1114 50.1828 62.8948 48.5003 61.7961C46.8178 60.6974 47.7932 56.1562 50.6705 51.6149C53.5479 47.0737 57.303 44.2903 58.9855 45.389Z" fill="#673CAF"/>
<path d="M58.7418 45.7552C60.3512 46.7807 59.4246 51.151 56.6692 55.4725C53.9138 59.794 50.3537 62.4553 48.7199 61.4298C47.1106 60.4044 48.0372 56.0341 50.7926 51.7126C53.548 47.3911 57.1081 44.7298 58.7418 45.7552Z" fill="#683CB0"/>
<path d="M58.4981 46.1459C60.0343 47.1225 59.1565 51.2731 56.523 55.3993C53.8895 59.5255 50.5001 62.0647 48.9639 61.0636C47.4277 60.087 48.3055 55.9364 50.939 51.8102C53.5725 47.6841 56.9619 45.1449 58.4981 46.1459Z" fill="#693DB0"/>
<path d="M58.2539 46.5121C59.717 47.4399 58.8635 51.3952 56.3763 55.3016C53.8647 59.2081 50.646 61.6252 49.183 60.6974C47.7199 59.7696 48.5734 55.8143 51.0606 51.9079C53.5721 48.0014 56.7665 45.5843 58.2539 46.5121Z" fill="#6A3DB1"/>
<path d="M58.0346 46.8783C59.4245 47.7573 58.6198 51.4928 56.2546 55.204C53.8893 58.9151 50.8413 61.1857 49.4514 60.3068C48.0615 59.4278 48.8662 55.6923 51.2314 51.9811C53.5967 48.27 56.6447 45.9994 58.0346 46.8783Z" fill="#6B3DB1"/>
<path d="M57.7909 47.269C59.1077 48.0991 58.3517 51.6394 56.1084 55.1307C53.8651 58.6221 50.9877 60.7951 49.671 59.9406C48.3542 59.1104 49.1101 55.5702 51.3535 52.0788C53.5968 48.5874 56.4742 46.4145 57.7909 47.269Z" fill="#6C3DB1"/>
<path d="M57.5467 47.6352C58.7903 48.4165 58.0588 51.737 55.9617 55.0331C53.8647 58.3291 51.158 60.3556 49.9145 59.5743C48.6709 58.793 49.4024 55.4725 51.4994 52.1765C53.5965 48.8804 56.3031 46.8539 57.5467 47.6352Z" fill="#6D3EB2"/>
<path d="M57.303 48.0015C58.449 48.7339 57.7907 51.8591 55.8155 54.9354C53.8404 58.0362 51.3045 59.9161 50.134 59.1837C48.9636 58.4512 49.6463 55.3261 51.6215 52.2497C53.5966 49.149 56.1325 47.269 57.303 48.0015Z" fill="#6E3EB2"/>
<path d="M57.0836 48.3677C58.1565 49.0513 57.5469 51.9567 55.6937 54.8377C53.8405 57.7187 51.4753 59.5011 50.4023 58.8174C49.3294 58.1338 49.939 55.2284 51.7922 52.3474C53.6454 49.4664 56.0107 47.6841 57.0836 48.3677Z" fill="#6F3EB3"/>
<path d="M56.8404 48.7583C57.8401 49.3931 57.2549 52.1032 55.548 54.7645C53.8411 57.4257 51.6465 59.086 50.6224 58.4512C49.6226 57.8164 50.2079 55.1063 51.9148 52.445C53.6216 49.7838 55.8162 48.1235 56.8404 48.7583Z" fill="#703FB3"/>
<path d="M56.5967 49.1246C57.5233 49.7105 56.9868 52.2009 55.4018 54.6668C53.8169 57.1328 51.793 58.6709 50.8664 58.0606C49.9398 57.4746 50.4762 54.9842 52.0612 52.5183C53.6462 50.0523 55.6701 48.5142 56.5967 49.1246Z" fill="#713FB3"/>
<path d="M56.352 49.4908C57.2054 50.0279 56.7177 52.323 55.2547 54.5692C53.7916 56.8154 51.9384 58.2315 51.085 57.6943C50.2315 57.1572 50.7192 54.8622 52.1823 52.616C53.6209 50.3453 55.4985 48.9537 56.352 49.4908Z" fill="#723FB4"/>
<path d="M56.1088 49.857C56.889 50.3453 56.4258 52.4206 55.109 54.4715C53.7923 56.5224 52.1097 57.792 51.3295 57.3037C50.5492 56.8154 51.0125 54.7401 52.3292 52.6892C53.646 50.6383 55.3285 49.3687 56.1088 49.857Z" fill="#733FB4"/>
<path d="M55.8893 50.2476C56.5721 50.6871 56.182 52.5671 54.9871 54.3982C53.7923 56.2538 52.2805 57.4013 51.5733 56.9374C50.8906 56.4979 51.2807 54.618 52.4756 52.7868C53.6704 50.9557 55.1822 49.7837 55.8893 50.2476Z" fill="#7440B5"/>
<path d="M55.6456 50.6139C56.2552 51.0045 55.9138 52.6648 54.8653 54.3006C53.8168 55.9364 52.4513 56.9619 51.8417 56.5712C51.2321 56.1806 51.5735 54.5203 52.622 52.8845C53.6705 51.2487 55.036 50.2233 55.6456 50.6139Z" fill="#7540B5"/>
<path d="M55.4014 50.9801C55.9378 51.3219 55.6208 52.7869 54.7186 54.2274C53.792 55.6679 52.6216 56.5468 52.0607 56.205C51.5243 55.8632 51.8413 54.3983 52.7435 52.9578C53.6701 51.5173 54.8405 50.6383 55.4014 50.9801Z" fill="#7640B6"/>
<path d="M55.1577 51.3707C55.621 51.6637 55.3528 52.9089 54.5725 54.1541C53.7922 55.3993 52.768 56.1561 52.3047 55.8632C51.8414 55.5702 52.1097 54.325 52.89 53.0798C53.6702 51.8346 54.6944 51.0778 55.1577 51.3707Z" fill="#7741B6"/>
<path d="M54.9384 51.737C55.3286 51.9812 55.1091 53.031 54.4507 54.0565C53.7924 55.0819 52.9389 55.7167 52.5732 55.4725C52.183 55.2284 52.4025 54.203 53.0608 53.1531C53.7192 52.1032 54.5727 51.4929 54.9628 51.737H54.9384Z" fill="#7841B6"/>
<path d="M54.6942 52.1032C55.0112 52.2986 54.8161 53.1287 54.304 53.9588C53.7676 54.7889 53.1092 55.3016 52.7922 55.0819C52.4752 54.8866 52.6703 54.0565 53.1824 53.2263C53.6944 52.3962 54.3772 51.8835 54.6942 52.1032Z" fill="#7941B7"/>
<path d="M54.4505 52.4695C54.6699 52.616 54.548 53.2508 54.1578 53.8612C53.7677 54.4715 53.2556 54.8622 53.0118 54.7157C52.7679 54.5692 52.9143 53.9588 53.3044 53.324C53.6945 52.7136 54.2066 52.323 54.4261 52.4695H54.4505Z" fill="#7A41B7"/>
<path d="M54.2067 52.8601C54.353 52.9577 54.2799 53.3728 54.0116 53.7879C53.7434 54.2029 53.402 54.4471 53.2557 54.3494C53.1094 54.2517 53.1826 53.8367 53.4508 53.4216C53.719 53.0066 54.0604 52.7624 54.2067 52.8601Z" fill="#7B42B8"/>
<path d="M53.9625 53.2263C53.9625 53.2263 53.9869 53.4949 53.8649 53.6902C53.743 53.8855 53.5723 54.032 53.4748 53.9832C53.4016 53.9344 53.4504 53.7146 53.5723 53.5193C53.6943 53.324 53.8649 53.1775 53.9381 53.2263H53.9625Z" fill="#7C42B8"/>
</g>
<path d="M27.7737 92.2664L26.3594 89.8737C26.3594 89.8737 27.4079 78.545 49.6951 52.4206C71.9822 26.2963 84.028 22.2922 84.028 22.2922L85.9543 23.928L27.7737 92.2664Z" fill="url(#paint1_radial_244_2262)"/>
<path d="M87.027 18.7764C37.8929 47.4155 24.4328 91.7292 24.1646 92.4129C5.41312 59.3546 20.0924 25.222 20.0924 25.222C20.0924 25.222 51.4749 5.39682 87.027 18.7764Z" fill="url(#paint2_radial_244_2262)"/>
<path d="M163.496 106.33L122.458 154.428C122.458 154.428 64.399 141.829 34.3089 105.67C34.2357 105.597 34.1869 105.548 34.1869 105.548C31.1877 101.91 28.6517 98.2237 26.5547 94.5126C26.8473 93.8045 43.6724 51.6638 89.4171 20.8517C93.4162 22.341 97.4395 24.2698 101.487 26.6869C103.219 27.7124 104.901 28.7867 106.559 29.9342H106.584C143.77 55.4237 163.472 106.354 163.472 106.354L163.496 106.33Z" fill="url(#paint3_radial_244_2262)"/>
<path style="mix-blend-mode:screen" opacity="0.5" d="M52.7676 53.4705C52.7676 53.4705 99.1463 90.0934 140.014 127.839L52.7676 53.4705Z" fill="url(#paint4_linear_244_2262)"/>
<mask id="mask1_244_2262" style="mask-type:luminance" maskUnits="userSpaceOnUse" x="122" y="106" width="42" height="49">
<path d="M163.496 106.33C165.13 107.746 161.399 123.176 150.085 136.458C138.77 149.74 124.115 155.844 122.457 154.428C120.824 153.012 128.675 141.121 139.989 127.839C151.328 114.558 161.838 104.938 163.496 106.354V106.33Z" fill="white"/>
</mask>
<g mask="url(#mask1_244_2262)">
<path d="M165.154 104.938H120.823V155.844H165.154V104.938Z" fill="#270579"/>
<path d="M167.982 101.642C175.078 106.11 171.713 124.25 160.472 142.171C149.231 160.092 134.332 170.981 127.236 166.513C120.14 162.045 123.505 143.905 134.747 125.984C145.988 108.063 160.886 97.1739 167.982 101.642Z" fill="#270579"/>
<path d="M167.787 101.935C174.81 106.354 171.494 124.324 160.35 142.074C149.207 159.799 134.479 170.591 127.432 166.171C120.409 161.752 123.725 143.783 134.869 126.033C146.012 108.307 160.74 97.5157 167.787 101.935Z" fill="#27067A"/>
<path d="M167.592 102.252C174.566 106.647 171.249 124.446 160.228 142C149.206 159.555 134.6 170.249 127.626 165.854C120.652 161.459 123.968 143.661 134.99 126.106C146.036 108.551 160.618 97.8575 167.592 102.252Z" fill="#27077B"/>
<path d="M167.397 102.57C174.298 106.916 171.03 124.543 160.106 141.927C149.182 159.311 134.722 169.907 127.821 165.561C120.921 161.215 124.188 143.587 135.112 126.204C146.036 108.82 160.496 98.2237 167.397 102.57Z" fill="#27087B"/>
<path d="M167.202 102.887C174.03 107.184 170.787 124.641 159.984 141.854C149.158 159.067 134.869 169.541 128.041 165.244C121.214 160.947 124.457 143.49 135.259 126.277C146.085 109.064 160.375 98.5899 167.202 102.887Z" fill="#27097C"/>
<path d="M167.007 103.204C173.762 107.453 170.567 124.739 159.863 141.781C149.158 158.822 134.991 169.199 128.236 164.951C121.482 160.702 124.676 143.416 135.381 126.375C146.086 109.333 160.253 98.9562 167.007 103.204Z" fill="#270A7D"/>
<path d="M166.787 103.497C173.468 107.721 170.298 124.812 159.716 141.683C149.109 158.554 135.088 168.833 128.406 164.609C121.725 160.385 124.895 143.294 135.478 126.423C146.085 109.552 160.106 99.2736 166.787 103.497Z" fill="#270B7E"/>
<path d="M166.592 103.815C173.225 107.99 170.079 124.91 159.57 141.61C149.084 158.31 135.21 168.466 128.577 164.291C121.945 160.116 125.09 143.197 135.6 126.497C146.085 109.797 159.96 99.6398 166.592 103.815Z" fill="#270C7E"/>
<path d="M166.397 104.132C172.957 108.258 169.836 125.007 159.448 141.536C149.06 158.066 135.332 168.125 128.773 163.998C122.213 159.872 125.334 143.123 135.722 126.594C146.11 110.065 159.838 100.006 166.397 104.132Z" fill="#270D7F"/>
<path d="M166.203 104.45C172.689 108.527 169.616 125.105 159.326 141.463C149.036 157.821 135.454 167.783 128.968 163.681C122.482 159.604 125.554 143.026 135.844 126.668C146.134 110.309 159.716 100.348 166.203 104.45Z" fill="#270E80"/>
<path d="M166.007 104.743C172.42 108.795 169.372 125.178 159.204 141.365C149.035 157.553 135.575 167.392 129.162 163.364C122.749 159.311 125.797 142.928 135.966 126.741C146.134 110.553 159.594 100.714 166.007 104.743Z" fill="#270F81"/>
<path d="M165.812 105.06C172.152 109.064 169.153 125.276 159.082 141.292C149.011 157.309 135.722 167.05 129.358 163.046C122.993 159.042 126.017 142.83 136.088 126.814C146.158 110.798 159.448 101.056 165.812 105.06Z" fill="#271082"/>
<path d="M165.617 105.377C171.908 109.333 168.909 125.374 158.96 141.219C149.012 157.065 135.844 166.684 129.577 162.729C123.286 158.774 126.286 142.733 136.234 126.887C146.183 111.042 159.351 101.422 165.617 105.377Z" fill="#271182"/>
<path d="M165.422 105.695C171.64 109.601 168.689 125.471 158.838 141.146C148.987 156.82 135.965 166.342 129.772 162.436C123.554 158.529 126.504 142.659 136.356 126.985C146.207 111.31 159.228 101.788 165.422 105.695Z" fill="#271283"/>
<path d="M165.227 106.012C171.372 109.894 168.47 125.593 158.716 141.073C148.963 156.552 136.112 166.001 129.967 162.118C123.822 158.236 126.724 142.537 136.478 127.058C146.232 111.579 159.082 102.13 165.227 106.012Z" fill="#271384"/>
<path d="M165.032 106.305C171.104 110.138 168.226 125.667 158.595 140.975C148.963 156.308 136.234 165.61 130.163 161.801C124.091 157.992 126.968 142.44 136.6 127.131C146.232 111.799 158.96 102.496 165.032 106.305Z" fill="#271485"/>
<path d="M164.837 106.623C170.836 110.407 168.007 125.764 158.473 140.902C148.963 156.063 136.356 165.268 130.358 161.484C124.359 157.699 127.188 142.342 136.722 127.205C146.232 112.043 158.839 102.838 164.837 106.623Z" fill="#271585"/>
<path d="M164.641 106.94C170.591 110.675 167.763 125.862 158.35 140.828C148.938 155.819 136.502 164.926 130.552 161.166C124.603 157.431 127.431 142.244 136.843 127.278C146.256 112.287 158.692 103.18 164.641 106.94Z" fill="#271686"/>
<path d="M164.447 107.257C170.323 110.944 167.543 125.959 158.229 140.755C148.914 155.551 136.624 164.56 130.748 160.873C124.871 157.187 127.651 142.171 136.966 127.376C146.28 112.58 158.57 103.571 164.447 107.257Z" fill="#271887"/>
<path d="M164.252 107.575C170.055 111.237 167.3 126.057 158.107 140.682C148.914 155.307 136.746 164.218 130.943 160.556C125.14 156.894 127.895 142.074 137.088 127.449C146.281 112.824 158.448 103.912 164.252 107.575Z" fill="#271988"/>
<path d="M164.056 107.868C169.786 111.481 167.08 126.13 157.984 140.584C148.889 155.038 136.892 163.852 131.137 160.238C125.407 156.625 128.114 141.976 137.209 127.522C146.304 113.068 158.301 104.254 164.056 107.868Z" fill="#271A89"/>
<path d="M163.861 108.185C169.518 111.75 166.836 126.228 157.863 140.511C148.889 154.794 137.014 163.486 131.357 159.921C125.7 156.356 128.382 141.878 137.356 127.595C146.329 113.312 158.204 104.62 163.861 108.185Z" fill="#271B89"/>
<path d="M163.667 108.503C169.275 112.018 166.617 126.326 157.741 140.438C148.865 154.55 137.137 163.144 131.553 159.604C125.944 156.088 128.602 141.781 137.478 127.669C146.354 113.557 158.083 104.962 163.667 108.503Z" fill="#271C8A"/>
<path d="M163.471 108.82C169.006 112.311 166.372 126.423 157.619 140.364C148.865 154.306 137.282 162.802 131.747 159.311C126.212 155.819 128.845 141.707 137.599 127.766C146.353 113.825 157.936 105.329 163.471 108.82Z" fill="#271D8B"/>
<path d="M163.276 109.113C168.738 112.555 166.153 126.497 157.497 140.267C148.841 154.037 137.404 162.411 131.942 158.969C126.48 155.526 129.065 141.585 137.721 127.815C146.378 114.045 157.814 105.67 163.276 109.113Z" fill="#271E8C"/>
<path d="M163.081 109.43C168.47 112.824 165.91 126.594 157.375 140.218C148.841 153.817 137.526 162.094 132.138 158.7C126.749 155.307 129.309 141.536 137.843 127.913C146.378 114.313 157.692 106.037 163.081 109.43Z" fill="#271F8C"/>
<path d="M162.886 109.748C168.202 113.093 165.691 126.716 157.254 140.145C148.817 153.573 137.673 161.728 132.333 158.383C127.017 155.038 129.529 141.414 137.966 127.986C146.403 114.558 157.546 106.403 162.886 109.748Z" fill="#27208D"/>
<path d="M162.691 110.065C167.958 113.386 165.446 126.814 157.131 140.071C148.792 153.329 137.794 161.386 132.527 158.09C127.26 154.794 129.772 141.341 138.087 128.084C146.426 114.826 157.424 106.769 162.691 110.065Z" fill="#27218E"/>
<path d="M162.496 110.383C167.69 113.654 165.227 126.912 157.009 139.998C148.792 153.085 137.917 161.044 132.723 157.773C127.529 154.501 129.992 141.243 138.209 128.157C146.427 115.07 157.302 107.111 162.496 110.383Z" fill="#27228F"/>
<path d="M162.301 110.676C167.422 113.898 164.983 126.985 156.888 139.901C148.768 152.816 138.039 160.654 132.942 157.431C127.822 154.208 130.26 141.121 138.356 128.206C146.476 115.29 157.205 107.453 162.301 110.676Z" fill="#272390"/>
<path d="M162.081 110.993C167.128 114.167 164.739 127.083 156.741 139.827C148.743 152.572 138.16 160.312 133.112 157.138C128.065 153.964 130.455 141.048 138.453 128.303C146.451 115.559 157.033 107.819 162.081 110.993Z" fill="#272490"/>
<path d="M161.886 111.31C166.86 114.46 164.495 127.18 156.619 139.754C148.719 152.328 138.282 159.97 133.308 156.82C128.333 153.671 130.699 140.95 138.575 128.377C146.475 115.803 156.912 108.161 161.886 111.31Z" fill="#272591"/>
<path d="M161.691 111.628C166.617 114.728 164.276 127.278 156.497 139.681C148.719 152.084 138.404 159.604 133.503 156.527C128.578 153.427 130.918 140.877 138.697 128.474C146.476 116.071 156.79 108.551 161.691 111.628Z" fill="#272692"/>
<path d="M161.497 111.945C166.349 114.997 164.057 127.376 156.376 139.608C148.695 151.84 138.551 159.262 133.699 156.21C128.846 153.158 131.138 140.78 138.819 128.547C146.5 116.315 156.644 108.893 161.497 111.945Z" fill="#272793"/>
<path d="M161.301 112.238C166.08 115.241 163.812 127.449 156.253 139.51C148.694 151.571 138.672 158.896 133.893 155.868C129.114 152.865 131.381 140.657 138.94 128.596C146.499 116.535 156.521 109.211 161.301 112.238Z" fill="#272893"/>
<path d="M161.106 112.555C165.812 115.51 163.593 127.546 156.132 139.437C148.67 151.302 138.794 158.529 134.088 155.575C129.382 152.621 131.601 140.584 139.063 128.694C146.524 116.804 156.4 109.601 161.106 112.555Z" fill="#272994"/>
<path d="M160.911 112.873C165.544 115.803 163.35 127.644 156.01 139.363C148.67 151.083 138.941 158.188 134.284 155.258C129.651 152.328 131.845 140.487 139.185 128.767C146.524 117.048 156.254 109.943 160.911 112.873Z" fill="#272A95"/>
<path d="M160.716 113.19C165.276 116.071 163.13 127.742 155.864 139.29C148.622 150.814 139.039 157.846 134.454 154.965C129.87 152.084 132.04 140.413 139.307 128.865C146.549 117.341 156.132 110.309 160.716 113.19Z" fill="#272A95"/>
<path d="M160.569 113.434C165.08 116.291 162.934 127.815 155.79 139.217C148.621 150.619 139.16 157.553 134.649 154.696C130.138 151.84 132.284 140.316 139.428 128.914C146.597 117.512 156.058 110.578 160.569 113.434Z" fill="#282A95"/>
<path d="M160.423 113.679C164.885 116.486 162.764 127.888 155.693 139.168C148.621 150.424 139.258 157.284 134.795 154.477C130.333 151.669 132.454 140.267 139.526 128.987C146.597 117.732 155.961 110.871 160.423 113.679Z" fill="#292B96"/>
<path d="M160.253 113.923C164.666 116.706 162.569 127.961 155.571 139.095C148.573 150.228 139.331 156.991 134.917 154.208C130.504 151.425 132.601 140.169 139.599 129.036C146.597 117.902 155.839 111.139 160.253 113.923Z" fill="#2A2B96"/>
<path d="M160.107 114.167C164.471 116.901 162.399 128.035 155.498 139.022C148.597 150.009 139.453 156.698 135.113 153.939C130.748 151.205 132.821 140.072 139.721 129.085C146.622 118.098 155.766 111.408 160.107 114.167Z" fill="#2B2B97"/>
<path d="M159.959 114.411C164.251 117.121 162.227 128.108 155.4 138.973C148.572 149.838 139.574 156.43 135.258 153.72C130.967 151.01 132.991 140.023 139.818 129.158C146.646 118.293 155.643 111.701 159.959 114.411Z" fill="#2C2B97"/>
<path d="M159.789 114.655C164.032 117.341 162.032 128.181 155.302 138.9C148.572 149.618 139.672 156.137 135.405 153.451C131.162 150.765 133.162 139.925 139.892 129.207C146.622 118.488 155.522 111.969 159.789 114.655Z" fill="#2D2C98"/>
<path d="M159.643 114.899C163.837 117.536 161.862 128.255 155.205 138.851C148.548 149.423 139.77 155.868 135.576 153.231C131.382 150.595 133.381 139.876 140.014 129.28C146.671 118.708 155.449 112.263 159.643 114.899Z" fill="#2E2C98"/>
<path d="M159.497 115.144C163.642 117.756 161.667 128.328 155.108 138.778C148.548 149.227 139.868 155.575 135.722 152.963C131.577 150.35 133.552 139.779 140.111 129.329C146.671 118.879 155.352 112.531 159.497 115.144Z" fill="#2F2C98"/>
<path d="M159.325 115.388C163.422 117.951 161.471 128.401 155.009 138.729C148.523 149.032 139.964 155.307 135.868 152.743C131.771 150.179 133.722 139.73 140.184 129.402C146.67 119.099 155.229 112.824 159.325 115.388Z" fill="#302D99"/>
<path d="M159.179 115.632C163.203 118.171 161.301 128.474 154.912 138.655C148.523 148.837 140.062 155.014 136.039 152.474C132.015 149.935 133.917 139.632 140.306 129.451C146.695 119.27 155.156 113.093 159.179 115.632Z" fill="#312D99"/>
<path d="M159.033 115.876C163.008 118.391 161.13 128.547 154.815 138.582C148.499 148.617 140.16 154.721 136.185 152.23C132.211 149.716 134.088 139.559 140.404 129.524C146.719 119.489 155.059 113.386 159.033 115.876Z" fill="#322D9A"/>
<path d="M158.863 116.12C162.789 118.586 160.936 128.621 154.718 138.533C148.5 148.446 140.258 154.452 136.332 151.986C132.406 149.52 134.259 139.486 140.477 129.573C146.695 119.66 154.937 113.654 158.863 116.12Z" fill="#332D9A"/>
<path d="M158.716 116.364C162.593 118.806 160.764 128.694 154.619 138.46C148.474 148.226 140.379 154.159 136.502 151.718C132.625 149.276 134.454 139.388 140.598 129.622C146.743 119.856 154.839 113.923 158.716 116.364Z" fill="#342E9A"/>
<path d="M158.57 116.633C162.398 119.05 160.569 128.792 154.522 138.436C148.475 148.08 140.477 153.915 136.648 151.522C132.82 149.13 134.649 139.363 140.696 129.719C146.743 120.075 154.741 114.24 158.57 116.633Z" fill="#352E9B"/>
<path d="M158.399 116.877C162.154 119.245 160.374 128.865 154.425 138.362C148.475 147.86 140.574 153.646 136.795 151.254C133.015 148.861 134.82 139.266 140.769 129.768C146.719 120.271 154.62 114.484 158.399 116.877Z" fill="#362E9B"/>
<path d="M158.253 117.121C161.959 119.465 160.204 128.938 154.327 138.314C148.451 147.665 140.672 153.378 136.966 151.034C133.259 148.69 135.015 139.217 140.892 129.842C146.768 120.49 154.547 114.777 158.253 117.121Z" fill="#372F9C"/>
<path d="M158.107 117.365C161.765 119.66 160.033 129.011 154.23 138.24C148.426 147.469 140.77 153.085 137.112 150.765C133.455 148.446 135.186 139.119 140.989 129.89C146.793 120.661 154.449 115.046 158.107 117.365Z" fill="#382F9C"/>
<path d="M157.936 117.609C161.544 119.88 159.838 129.085 154.132 138.167C148.426 147.25 140.867 152.792 137.258 150.521C133.649 148.251 135.356 139.046 141.062 129.964C146.768 120.881 154.327 115.339 157.936 117.609Z" fill="#392F9D"/>
<path d="M157.789 117.854C161.35 120.1 159.667 129.158 154.034 138.118C148.402 147.079 140.964 152.523 137.429 150.277C133.893 148.031 135.551 138.973 141.184 130.012C146.817 121.052 154.254 115.607 157.789 117.854Z" fill="#3A2F9D"/>
<path d="M157.643 118.098C161.13 120.295 159.472 129.231 153.937 138.045C148.402 146.859 141.062 152.23 137.575 150.033C134.088 147.836 135.746 138.9 141.281 130.086C146.817 121.272 154.156 115.9 157.643 118.098Z" fill="#3B309D"/>
<path d="M157.473 118.342C160.911 120.515 159.277 129.304 153.84 137.996C148.378 146.688 141.16 151.962 137.722 149.789C134.284 147.616 135.917 138.826 141.355 130.134C146.817 121.443 154.035 116.169 157.473 118.342Z" fill="#3C309E"/>
<path d="M157.327 118.586C160.716 120.71 159.107 129.378 153.742 137.923C148.378 146.468 141.282 151.669 137.893 149.545C134.503 147.421 136.113 138.753 141.477 130.208C146.842 121.662 153.937 116.462 157.327 118.586Z" fill="#3D309E"/>
<path d="M157.18 118.83C160.52 120.93 158.935 129.451 153.644 137.874C148.353 146.297 141.379 151.4 138.038 149.3C134.698 147.201 136.282 138.68 141.574 130.257C146.865 121.833 153.839 116.73 157.18 118.83Z" fill="#3E319F"/>
<path d="M157.009 119.074C160.301 121.15 158.741 129.524 153.547 137.801C148.353 146.078 141.477 151.107 138.185 149.032C134.893 146.957 136.453 138.582 141.647 130.305C146.841 122.029 153.718 116.999 157.009 119.074Z" fill="#3F319F"/>
<path d="M156.863 119.319C160.082 121.345 158.57 129.597 153.449 137.728C148.329 145.858 141.574 150.814 138.356 148.788C135.137 146.761 136.649 138.509 141.769 130.379C146.89 122.248 153.645 117.292 156.863 119.319Z" fill="#40319F"/>
<path d="M156.717 119.563C159.887 121.565 158.375 129.671 153.352 137.679C148.329 145.687 141.672 150.546 138.502 148.544C135.332 146.542 136.844 138.436 141.867 130.427C146.89 122.419 153.547 117.561 156.717 119.563Z" fill="#4131A0"/>
<path d="M156.546 119.807C159.667 121.76 158.179 129.744 153.254 137.606C148.304 145.467 141.769 150.253 138.648 148.299C135.527 146.346 137.014 138.362 141.94 130.501C146.865 122.639 153.425 117.854 156.546 119.807Z" fill="#4232A0"/>
<path d="M156.4 120.051C159.472 121.98 158.009 129.817 153.157 137.557C148.304 145.296 141.867 149.984 138.819 148.055C135.746 146.127 137.209 138.289 142.062 130.55C146.914 122.81 153.352 118.122 156.4 120.051Z" fill="#4332A1"/>
<path d="M156.253 120.295C159.277 122.199 157.838 129.89 153.059 137.483C148.28 145.077 141.964 149.691 138.965 147.811C135.941 145.907 137.38 138.216 142.159 130.623C146.939 123.03 153.254 118.415 156.253 120.295Z" fill="#4432A1"/>
<path d="M156.083 120.539C159.034 122.395 157.644 129.964 152.962 137.435C148.28 144.906 142.087 149.447 139.112 147.567C136.161 145.711 137.551 138.143 142.233 130.672C146.915 123.201 153.108 118.659 156.083 120.539Z" fill="#4533A2"/>
<path d="M155.936 120.808C158.838 122.639 157.472 130.061 152.864 137.386C148.255 144.71 142.183 149.178 139.282 147.347C136.38 145.516 137.745 138.094 142.354 130.769C146.963 123.445 153.034 118.977 155.936 120.808Z" fill="#4633A2"/>
<path d="M155.79 121.052C158.643 122.859 157.277 130.134 152.766 137.313C148.255 144.491 142.281 148.885 139.428 147.079C136.575 145.272 137.941 137.996 142.452 130.818C146.963 123.616 152.937 119.245 155.79 121.052Z" fill="#4733A2"/>
<path d="M155.619 121.296C158.424 123.054 157.082 130.208 152.669 137.264C148.231 144.32 142.379 148.617 139.575 146.859C136.77 145.101 138.112 137.947 142.525 130.891C146.963 123.835 152.815 119.538 155.619 121.296Z" fill="#4833A3"/>
<path d="M155.473 121.54C158.204 123.274 156.912 130.281 152.572 137.19C148.231 144.1 142.476 148.324 139.721 146.59C136.99 144.857 138.282 137.85 142.623 130.94C146.963 124.031 152.718 119.807 155.473 121.54Z" fill="#4934A3"/>
<path d="M155.327 121.784C158.009 123.469 156.741 130.354 152.474 137.142C148.207 143.929 142.574 148.055 139.892 146.346C137.21 144.662 138.478 137.776 142.745 130.989C147.012 124.202 152.645 120.075 155.327 121.784Z" fill="#4A34A4"/>
<path d="M155.156 122.029C157.789 123.689 156.546 130.427 152.376 137.068C148.206 143.709 142.671 147.762 140.038 146.102C137.404 144.442 138.648 137.703 142.817 131.062C146.987 124.421 152.522 120.368 155.156 122.029Z" fill="#4B34A4"/>
<path d="M155.01 122.273C157.594 123.909 156.375 130.501 152.279 137.02C148.182 143.538 142.769 147.494 140.184 145.858C137.599 144.222 138.819 137.63 142.915 131.111C147.012 124.592 152.425 120.637 155.01 122.273Z" fill="#4C35A4"/>
<path d="M154.864 122.517C157.4 124.104 156.205 130.574 152.181 136.946C148.182 143.319 142.867 147.201 140.355 145.614C137.819 144.027 139.014 137.557 143.037 131.184C147.036 124.812 152.352 120.93 154.864 122.517Z" fill="#4D35A5"/>
<path d="M154.693 122.761C157.156 124.324 155.985 130.647 152.084 136.873C148.158 143.123 142.989 146.908 140.502 145.345C138.039 143.783 139.209 137.459 143.111 131.233C147.036 124.983 152.206 121.199 154.693 122.761Z" fill="#4E35A5"/>
<path d="M154.546 123.005C156.96 124.519 155.814 130.72 151.986 136.824C148.157 142.928 143.086 146.639 140.647 145.125C138.209 143.612 139.379 137.41 143.207 131.306C147.036 125.203 152.108 121.491 154.546 123.005Z" fill="#4F35A6"/>
<path d="M154.4 123.249C156.765 124.739 155.644 130.794 151.888 136.751C148.133 142.708 143.183 146.346 140.818 144.857C138.453 143.368 139.574 137.313 143.33 131.355C147.085 125.398 152.035 121.76 154.4 123.249Z" fill="#5036A6"/>
<path d="M154.23 123.494C156.546 124.958 155.449 130.867 151.791 136.702C148.134 142.537 143.281 146.078 140.965 144.637C138.648 143.172 139.745 137.264 143.403 131.428C147.061 125.593 151.913 122.053 154.23 123.494Z" fill="#5236A7"/>
<path d="M154.083 123.738C156.351 125.154 155.278 130.94 151.694 136.629C148.109 142.318 143.379 145.785 141.111 144.369C138.843 142.952 139.916 137.166 143.501 131.477C147.085 125.789 151.816 122.322 154.083 123.738Z" fill="#5336A7"/>
<path d="M153.937 123.982C156.132 125.373 155.108 131.013 151.596 136.58C148.11 142.147 143.477 145.516 141.282 144.124C139.087 142.733 140.112 137.093 143.623 131.526C147.11 125.959 151.743 122.59 153.937 123.982Z" fill="#5437A7"/>
<path d="M153.766 124.226C155.912 125.593 154.888 131.087 151.498 136.507C148.109 141.927 143.573 145.223 141.428 143.88C139.282 142.513 140.306 137.02 143.695 131.599C147.109 126.179 151.62 122.883 153.766 124.226Z" fill="#5537A8"/>
<path d="M153.62 124.47C155.717 125.789 154.717 131.16 151.401 136.434C148.085 141.732 143.671 144.955 141.574 143.612C139.477 142.269 140.477 136.922 143.793 131.648C147.109 126.35 151.523 123.127 153.62 124.47Z" fill="#5637A8"/>
<path d="M153.474 124.739C155.522 126.033 154.547 131.258 151.304 136.409C148.06 141.561 143.793 144.71 141.745 143.416C139.697 142.122 140.672 136.898 143.915 131.746C147.158 126.594 151.425 123.445 153.474 124.739Z" fill="#5737A9"/>
<path d="M153.303 124.983C155.303 126.228 154.352 131.331 151.206 136.336C148.061 141.366 143.891 144.417 141.892 143.148C139.892 141.903 140.843 136.8 143.989 131.795C147.134 126.765 151.304 123.713 153.303 124.983Z" fill="#5838A9"/>
<path d="M153.157 125.227C155.084 126.448 154.181 131.404 151.109 136.287C148.036 141.17 143.989 144.149 142.038 142.928C140.112 141.707 141.014 136.751 144.086 131.868C147.159 126.985 151.206 124.006 153.157 125.227Z" fill="#5938A9"/>
<path d="M153.01 125.471C154.888 126.667 154.01 131.477 151.011 136.214C148.036 140.95 144.086 143.856 142.208 142.659C140.33 141.463 141.208 136.653 144.207 131.917C147.182 127.18 151.133 124.275 153.01 125.471Z" fill="#5A38AA"/>
<path d="M152.84 125.715C154.668 126.863 153.791 131.551 150.913 136.165C148.012 140.78 144.183 143.587 142.354 142.44C140.526 141.292 141.403 136.605 144.281 131.99C147.183 127.376 151.011 124.568 152.84 125.715Z" fill="#5B39AA"/>
<path d="M152.694 125.959C154.474 127.083 153.62 131.624 150.816 136.092C148.012 140.56 144.281 143.294 142.501 142.171C140.721 141.048 141.574 136.507 144.379 132.039C147.183 127.571 150.914 124.836 152.694 125.959Z" fill="#5C39AB"/>
<path d="M152.547 126.204C154.279 127.278 153.45 131.697 150.719 136.019C147.988 140.364 144.379 143.001 142.672 141.927C140.941 140.853 141.77 136.434 144.501 132.112C147.232 127.766 150.841 125.129 152.547 126.204Z" fill="#5D39AB"/>
<path d="M152.376 126.448C154.034 127.498 153.254 131.77 150.62 135.97C147.987 140.169 144.476 142.733 142.817 141.683C141.159 140.633 141.94 136.36 144.573 132.161C147.207 127.961 150.718 125.398 152.376 126.448Z" fill="#5E39AC"/>
<path d="M152.23 126.692C153.839 127.717 153.083 131.844 150.523 135.897C147.963 139.974 144.573 142.44 142.964 141.414C141.355 140.389 142.111 136.263 144.671 132.21C147.231 128.132 150.621 125.666 152.23 126.692Z" fill="#5F3AAC"/>
<path d="M152.084 126.936C153.644 127.913 152.913 131.917 150.426 135.848C147.963 139.779 144.695 142.171 143.135 141.195C141.574 140.218 142.306 136.238 144.793 132.283C147.256 128.352 150.523 125.959 152.084 126.936Z" fill="#603AAC"/>
<path d="M151.913 127.18C153.425 128.132 152.694 131.966 150.328 135.774C147.963 139.583 144.793 141.878 143.281 140.926C141.77 139.974 142.501 136.141 144.866 132.332C147.256 128.523 150.402 126.228 151.913 127.18Z" fill="#613AAD"/>
<path d="M151.766 127.424C153.229 128.328 152.522 132.039 150.23 135.726C147.938 139.388 144.89 141.61 143.427 140.706C141.964 139.803 142.671 136.092 144.963 132.405C147.255 128.743 150.303 126.521 151.766 127.424Z" fill="#623BAD"/>
<path d="M151.62 127.669C153.01 128.547 152.352 132.112 150.133 135.652C147.914 139.168 144.988 141.317 143.598 140.438C142.208 139.559 142.866 135.994 145.085 132.454C147.304 128.938 150.23 126.79 151.62 127.669Z" fill="#633BAE"/>
<path d="M151.45 127.913C152.791 128.767 152.157 132.185 150.036 135.579C147.914 138.973 145.086 141.024 143.744 140.194C142.403 139.339 143.037 135.921 145.159 132.527C147.28 129.133 150.109 127.083 151.45 127.913Z" fill="#643BAE"/>
<path d="M151.304 128.157C152.596 128.963 151.986 132.259 149.938 135.53C147.89 138.802 145.183 140.755 143.891 139.949C142.599 139.144 143.208 135.848 145.256 132.576C147.305 129.304 150.011 127.351 151.304 128.157Z" fill="#653BAE"/>
<path d="M151.158 128.401C152.401 129.182 151.816 132.332 149.841 135.457C147.89 138.582 145.281 140.487 144.062 139.705C142.843 138.924 143.403 135.774 145.378 132.649C147.329 129.524 149.938 127.62 151.158 128.401Z" fill="#663CAF"/>
<path d="M150.986 128.67C152.181 129.426 151.62 132.43 149.743 135.433C147.865 138.411 145.378 140.242 144.207 139.486C143.037 138.729 143.573 135.726 145.451 132.723C147.329 129.719 149.816 127.913 150.986 128.67Z" fill="#673CAF"/>
<path d="M150.84 128.914C151.962 129.622 151.425 132.503 149.645 135.359C147.865 138.216 145.5 139.949 144.354 139.241C143.208 138.533 143.769 135.652 145.549 132.796C147.329 129.939 149.694 128.206 150.84 128.914Z" fill="#683CB0"/>
<path d="M150.694 129.158C151.767 129.841 151.255 132.576 149.548 135.286C147.841 137.996 145.598 139.656 144.525 138.973C143.452 138.289 143.964 135.555 145.671 132.845C147.378 130.134 149.621 128.474 150.694 129.158Z" fill="#693DB0"/>
<path d="M150.524 129.402C151.548 130.037 151.06 132.649 149.451 135.237C147.841 137.825 145.695 139.388 144.671 138.729C143.647 138.094 144.135 135.481 145.744 132.893C147.354 130.305 149.499 128.743 150.524 129.402Z" fill="#6A3DB1"/>
<path d="M150.376 129.646C151.352 130.257 150.889 132.722 149.352 135.164C147.816 137.606 145.792 139.095 144.817 138.485C143.842 137.874 144.305 135.408 145.841 132.967C147.377 130.525 149.401 129.036 150.376 129.646Z" fill="#6B3DB1"/>
<path d="M150.23 129.89C151.133 130.476 150.718 132.796 149.255 135.115C147.816 137.41 145.89 138.826 144.988 138.24C144.086 137.654 144.5 135.335 145.963 133.015C147.402 130.72 149.328 129.304 150.23 129.89Z" fill="#6C3DB1"/>
<path d="M150.06 130.134C150.913 130.672 150.523 132.869 149.158 135.042C147.792 137.215 145.988 138.533 145.134 137.996C144.281 137.459 144.671 135.262 146.037 133.089C147.402 130.916 149.207 129.597 150.06 130.134Z" fill="#6D3EB2"/>
<path d="M149.914 130.379C150.718 130.891 150.328 132.942 149.06 134.993C147.792 137.02 146.085 138.265 145.281 137.752C144.476 137.239 144.866 135.188 146.134 133.138C147.402 131.111 149.109 129.866 149.914 130.379Z" fill="#6E3EB2"/>
<path d="M149.768 130.623C150.524 131.087 150.158 133.015 148.963 134.92C147.768 136.824 146.183 137.972 145.427 137.508C144.671 137.044 145.037 135.115 146.232 133.211C147.427 131.306 149.012 130.159 149.768 130.623Z" fill="#6F3EB3"/>
<path d="M149.596 130.867C150.303 131.306 149.962 133.089 148.865 134.847C147.768 136.605 146.28 137.679 145.597 137.239C144.89 136.8 145.232 135.018 146.329 133.26C147.426 131.502 148.914 130.427 149.596 130.867Z" fill="#703FB3"/>
<path d="M149.45 131.111C150.084 131.526 149.792 133.162 148.767 134.798C147.743 136.434 146.402 137.41 145.744 137.02C145.11 136.604 145.402 134.969 146.427 133.333C147.451 131.697 148.792 130.72 149.45 131.111Z" fill="#713FB3"/>
<path d="M149.304 131.355C149.889 131.721 149.621 133.235 148.67 134.725C147.743 136.214 146.5 137.117 145.89 136.751C145.305 136.385 145.573 134.871 146.524 133.382C147.451 131.892 148.694 130.989 149.304 131.355Z" fill="#723FB4"/>
<path d="M149.134 131.599C149.67 131.941 149.426 133.308 148.573 134.676C147.719 136.043 146.598 136.849 146.061 136.507C145.525 136.165 145.769 134.798 146.622 133.431C147.476 132.063 148.597 131.258 149.134 131.599Z" fill="#733FB4"/>
<path d="M148.987 131.844C149.474 132.137 149.23 133.382 148.474 134.602C147.719 135.823 146.694 136.556 146.207 136.263C145.719 135.97 145.963 134.725 146.719 133.504C147.475 132.283 148.499 131.551 148.987 131.844Z" fill="#7440B5"/>
<path d="M148.84 132.088C149.279 132.356 149.06 133.455 148.377 134.554C147.694 135.628 146.792 136.287 146.353 136.019C145.914 135.75 146.134 134.651 146.817 133.553C147.499 132.478 148.402 131.819 148.84 132.088Z" fill="#7540B5"/>
<path d="M148.67 132.332C149.036 132.576 148.865 133.528 148.28 134.48C147.695 135.433 146.89 136.019 146.524 135.774C146.158 135.53 146.329 134.578 146.914 133.626C147.5 132.674 148.304 132.088 148.67 132.332Z" fill="#7640B6"/>
<path d="M148.524 132.576C148.841 132.771 148.695 133.601 148.183 134.407C147.67 135.213 146.988 135.726 146.671 135.506C146.354 135.311 146.5 134.48 147.012 133.675C147.524 132.869 148.207 132.356 148.524 132.576Z" fill="#7741B6"/>
<path d="M148.378 132.845C148.646 133.015 148.524 133.699 148.085 134.383C147.671 135.066 147.085 135.481 146.817 135.311C146.549 135.14 146.671 134.456 147.11 133.772C147.524 133.089 148.11 132.674 148.378 132.845Z" fill="#7841B6"/>
<path d="M148.207 133.089C148.426 133.235 148.328 133.772 147.987 134.309C147.646 134.847 147.207 135.188 146.987 135.042C146.768 134.895 146.865 134.358 147.207 133.821C147.548 133.284 147.987 132.942 148.207 133.089Z" fill="#7941B7"/>
<path d="M148.06 133.333C148.231 133.431 148.134 133.846 147.89 134.261C147.646 134.676 147.304 134.92 147.134 134.822C146.963 134.725 147.061 134.309 147.304 133.894C147.548 133.479 147.89 133.235 148.06 133.333Z" fill="#7A41B7"/>
<path d="M147.914 133.577C147.914 133.577 147.963 133.919 147.792 134.187C147.622 134.456 147.402 134.627 147.28 134.554C147.183 134.48 147.231 134.212 147.402 133.943C147.573 133.675 147.792 133.504 147.914 133.577Z" fill="#7B42B8"/>
<path d="M147.744 133.821C147.744 133.821 147.768 133.992 147.695 134.139C147.622 134.285 147.5 134.358 147.451 134.334C147.402 134.309 147.427 134.163 147.5 134.016C147.573 133.87 147.695 133.797 147.744 133.821Z" fill="#7C42B8"/>
</g>
<path d="M157.473 124.348C158.302 125.056 154.888 130.403 149.865 136.287C144.842 142.171 140.111 146.371 139.282 145.663C138.453 144.955 141.867 139.608 146.89 133.724C151.913 127.839 156.644 123.64 157.473 124.348Z" fill="url(#paint5_radial_244_2262)"/>
<path d="M155.352 126.838C156.01 127.4 155.815 133.553 151.938 138.069C148.085 142.586 142.038 143.758 141.38 143.197C140.721 142.635 143.306 138.509 147.159 133.992C151.012 129.475 154.669 126.277 155.352 126.838Z" fill="url(#paint6_linear_244_2262)"/>
<path d="M102.145 57.1572C114.337 67.6069 116.507 86.602 106.095 98.8096C95.6589 111.017 76.5905 111.847 64.3984 101.398C52.2063 90.9479 50.7676 72.5876 61.1797 60.3556C71.6161 48.1479 89.953 46.7074 102.17 57.1328L102.145 57.1572Z" fill="url(#paint7_radial_244_2262)"/>
<path style="mix-blend-mode:multiply" opacity="0.5" d="M52.3281 53.9832C52.3281 53.9832 112.679 106.818 139.867 128.01C139.867 128.01 74.9323 71.7819 52.767 53.4705L52.3281 53.9832Z" fill="url(#paint8_linear_244_2262)"/>
<path d="M107.355 91.4391C114.827 77.2132 109.366 59.616 95.1585 52.1346C80.9507 44.6532 63.3759 50.1207 55.904 64.3465C48.4322 78.5723 53.8926 96.1696 68.1004 103.651C82.3081 111.132 99.8829 105.665 107.355 91.4391Z" fill="url(#paint9_radial_244_2262)"/>
<path style="mix-blend-mode:screen" opacity="0.5" d="M63.6185 100.128C51.4264 89.6784 50.0609 70.8542 60.4729 58.6465C65.1059 53.2264 72.0798 50.0279 78.5904 48.9537C71.4458 49.7105 64.5451 53.0799 59.4976 58.9884C49.0611 71.196 50.4998 89.5807 62.7163 100.03C69.4951 105.841 78.2003 107.965 86.369 106.598C78.7123 107.404 69.8852 105.524 63.5941 100.128H63.6185Z" fill="url(#paint10_linear_244_2262)"/>
<path d="M81.6141 101.154C94.4482 101.154 104.852 90.7362 104.852 77.8857C104.852 65.0353 94.4482 54.618 81.6141 54.618C68.78 54.618 58.376 65.0353 58.376 77.8857C58.376 90.7362 68.78 101.154 81.6141 101.154Z" fill="url(#paint11_radial_244_2262)"/>
<path d="M97.3171 61.5519C106.803 69.6578 107.924 83.9407 99.8042 93.4383C91.7087 102.936 77.4439 104.059 67.9585 95.9286C58.473 87.8228 58.595 74.5897 66.6905 65.0921C74.7861 55.5946 87.8316 53.4216 97.3171 61.5275V61.5519Z" fill="url(#paint12_linear_244_2262)"/>
<path d="M103.023 93.1454C103.633 93.6581 103.706 94.5859 103.194 95.1962C102.682 95.8066 101.755 95.8799 101.146 95.3672C100.536 94.8544 100.463 93.9267 100.975 93.3163C101.487 92.7059 102.414 92.6326 103.023 93.1454Z" fill="url(#paint13_radial_244_2262)"/>
<path d="M102.73 93.1698C103.242 93.6093 103.316 94.3906 102.877 94.9277C102.438 95.4648 101.657 95.5137 101.121 95.0742C100.609 94.6347 100.536 93.8534 100.975 93.3163C101.414 92.8036 102.194 92.7303 102.73 93.1698Z" fill="url(#paint14_linear_244_2262)"/>
<path d="M63.7645 59.5498C64.3741 60.0626 64.4472 60.9903 63.9352 61.6007C63.4231 62.2111 62.4965 62.2844 61.8869 61.7716C61.2773 61.2589 61.2042 60.3311 61.7162 59.7208C62.2283 59.1104 63.1549 59.0371 63.7645 59.5498Z" fill="url(#paint15_radial_244_2262)"/>
<path d="M63.4719 59.5743C63.9839 60.0137 64.0571 60.795 63.6182 61.3322C63.1792 61.8449 62.3989 61.9181 61.8625 61.4787C61.326 61.0392 61.2773 60.2579 61.7162 59.7208C62.1551 59.208 62.9354 59.1348 63.4719 59.5743Z" fill="url(#paint16_linear_244_2262)"/>
<path d="M68.5926 98.6876C69.2022 99.2003 69.2754 100.128 68.7633 100.738C68.2512 101.349 67.3246 101.422 66.715 100.909C66.1054 100.397 66.0323 99.4689 66.5443 98.8585C67.0564 98.2481 67.983 98.1749 68.5926 98.6876Z" fill="url(#paint17_radial_244_2262)"/>
<path d="M68.3 98.712C68.812 99.1515 68.8852 99.9328 68.4463 100.47C68.0074 100.983 67.2271 101.056 66.6906 100.616C66.1542 100.177 66.1054 99.3957 66.5443 98.8585C66.9832 98.3458 67.7635 98.2726 68.3 98.712Z" fill="url(#paint18_linear_244_2262)"/>
<path d="M81.8817 50.858C82.4913 51.3707 82.5644 52.2985 82.0524 52.9089C81.5403 53.5193 80.6137 53.5925 80.0041 53.0798C79.3945 52.5671 79.3213 51.6393 79.8334 51.0289C80.3455 50.4185 81.2721 50.3453 81.8817 50.858Z" fill="url(#paint19_radial_244_2262)"/>
<path d="M81.589 50.8825C82.1011 51.3219 82.1743 52.1032 81.7353 52.6404C81.2964 53.1531 80.5161 53.2263 79.9797 52.7869C79.4432 52.3474 79.3945 51.5661 79.8334 51.029C80.2723 50.4918 81.0526 50.443 81.589 50.8825Z" fill="url(#paint20_linear_244_2262)"/>
<path d="M56.7909 80.254C57.4005 80.7667 57.4736 81.6945 56.9615 82.3049C56.4495 82.9153 55.5229 82.9885 54.9133 82.4758C54.3037 81.9631 54.2305 81.0353 54.7426 80.4249C55.2547 79.8145 56.1813 79.7413 56.7909 80.254Z" fill="url(#paint21_radial_244_2262)"/>
<path d="M56.4982 80.2785C57.0103 80.7179 57.0834 81.4992 56.6445 82.0364C56.2056 82.5735 55.4253 82.6223 54.8889 82.1828C54.3524 81.7434 54.3036 80.9621 54.7426 80.4249C55.1815 79.8878 55.9618 79.839 56.4982 80.2785Z" fill="url(#paint22_linear_244_2262)"/>
<path d="M107.973 73.1736C108.583 73.6863 108.656 74.6141 108.144 75.2245C107.632 75.8349 106.705 75.9081 106.096 75.3954C105.486 74.8827 105.413 73.9549 105.925 73.3445C106.437 72.7342 107.364 72.6609 107.973 73.1736Z" fill="url(#paint23_radial_244_2262)"/>
<path d="M107.681 73.198C108.193 73.6375 108.266 74.4188 107.827 74.9559C107.388 75.4931 106.608 75.5419 106.071 75.1024C105.535 74.6629 105.486 73.8816 105.925 73.3445C106.364 72.8074 107.144 72.7585 107.681 73.198Z" fill="url(#paint24_linear_244_2262)"/>
<path d="M82.8817 102.57C83.4913 103.082 83.5644 104.01 83.0524 104.621C82.5403 105.231 81.6137 105.304 81.0041 104.791C80.3945 104.279 80.3213 103.351 80.8334 102.741C81.3455 102.13 82.2721 102.057 82.8817 102.57Z" fill="url(#paint25_radial_244_2262)"/>
<path d="M82.5888 102.594C83.1008 103.034 83.174 103.815 82.7351 104.352C82.2962 104.889 81.5159 104.938 80.9794 104.498C80.4674 104.059 80.3942 103.278 80.8331 102.741C81.272 102.228 82.0523 102.155 82.5888 102.594Z" fill="url(#paint26_linear_244_2262)"/>
<path d="M101.316 58.8663C101.926 59.379 101.999 60.3068 101.487 60.9172C100.975 61.5276 100.048 61.6008 99.4387 61.0881C98.8291 60.5754 98.7559 59.6476 99.268 59.0372C99.78 58.4268 100.707 58.3536 101.316 58.8663Z" fill="url(#paint27_radial_244_2262)"/>
<path d="M101.023 58.8663C101.535 59.3058 101.609 60.0871 101.17 60.6242C100.731 61.137 99.9505 61.2102 99.414 60.7707C98.9019 60.3313 98.8288 59.55 99.2677 59.0128C99.7066 58.4757 100.487 58.4269 101.023 58.8663Z" fill="url(#paint28_linear_244_2262)"/>
<path d="M126.261 110.676C128.211 112.36 128.455 115.314 126.773 117.268C125.09 119.221 122.14 119.465 120.189 117.78C118.238 116.096 117.994 113.141 119.677 111.188C121.359 109.235 124.31 108.991 126.261 110.676Z" fill="url(#paint29_radial_244_2262)"/>
<path d="M125.724 110.212C127.675 111.896 127.919 114.851 126.236 116.804C124.554 118.757 121.603 119.001 119.653 117.316C117.702 115.632 117.458 112.678 119.141 110.724C120.823 108.771 123.774 108.527 125.724 110.212Z" fill="url(#paint30_radial_244_2262)"/>
<path d="M125.188 110.578C126.895 112.043 127.09 114.606 125.627 116.315C124.164 118.025 121.604 118.22 119.897 116.755C118.19 115.29 117.995 112.726 119.458 111.017C120.921 109.308 123.481 109.113 125.188 110.578Z" fill="url(#paint31_linear_244_2262)"/>
<path style="mix-blend-mode:multiply" opacity="0.2" d="M163.496 106.33L122.457 154.428C122.457 154.428 64.3987 141.829 34.3086 105.67C36.0886 107.697 59.6682 133.943 90.124 136.8C121.823 139.754 146.378 107.502 141.355 83.2327C136.6 60.2824 117.166 39.0167 106.608 29.9342C143.794 55.3993 163.496 106.33 163.496 106.33Z" fill="url(#paint32_linear_244_2262)"/>
<path style="mix-blend-mode:multiply" opacity="0.5" d="M70.2266 134.261L70.3485 131.966C70.3485 131.966 106.73 145.345 123.335 150.717L122.945 151.522C122.945 151.522 92.8795 149.667 70.2266 134.261Z" fill="url(#paint33_linear_244_2262)"/>
<path d="M122.921 151.522C122.921 151.522 133.26 172.275 146.964 183.995L144.842 189.195C144.842 189.195 87.2711 181.773 70.2021 134.285L70.3241 131.99C70.3241 131.99 75.4691 134.578 82.8332 137.899H82.8575C94.44 143.099 111.485 150.057 122.896 151.522H122.921Z" fill="url(#paint34_radial_244_2262)"/>
<path style="mix-blend-mode:multiply" opacity="0.2" d="M122.921 151.522C122.921 151.522 133.26 172.275 146.964 183.995L144.842 189.195C144.842 189.195 87.2711 181.773 70.2021 134.285L70.3241 131.99C70.446 132.356 75.7617 149.935 101.682 167.49C127.968 185.289 126.091 161.923 122.823 156.454C119.556 150.985 103.389 150.619 82.8575 137.923C94.44 143.123 111.485 150.082 122.896 151.547L122.921 151.522Z" fill="url(#paint35_linear_244_2262)"/>
<path d="M144.842 189.171L145.769 187.974C145.769 187.974 89.9046 178.037 70.3485 131.966L70.2266 134.261C70.2266 134.261 81.7115 179.038 144.867 189.195L144.842 189.171Z" fill="url(#paint36_radial_244_2262)"/>
<path style="mix-blend-mode:multiply" opacity="0.5" d="M135.43 57.8408L133.187 58.3291C133.187 58.3291 152.06 92.2175 159.936 107.819L160.668 107.306C160.668 107.306 154.157 77.8614 135.43 57.8652V57.8408Z" fill="url(#paint37_linear_244_2262)"/>
<path d="M160.668 107.282C160.668 107.282 182.76 114.265 196.439 126.008L201.243 123.103C201.243 123.103 184.93 67.3139 135.43 57.8408L133.187 58.3291C133.187 58.3291 136.552 62.9924 140.989 69.7799C140.989 69.7799 140.989 69.7799 140.989 69.8043C147.915 80.4494 157.449 96.2216 160.668 107.282Z" fill="url(#paint38_radial_244_2262)"/>
<path style="mix-blend-mode:multiply" opacity="0.2" d="M160.668 107.282C160.668 107.282 182.76 114.265 196.439 126.008L201.243 123.103C201.243 123.103 184.93 67.3139 135.43 57.8408L133.187 58.3291C133.577 58.378 148.963 60.8195 170.324 83.7454C191.977 106.964 171.397 108.844 165.496 106.452C159.595 104.059 156.693 88.1402 140.989 69.8043C147.915 80.4494 157.449 96.2216 160.668 107.282Z" fill="url(#paint39_linear_244_2262)"/>
<path d="M201.243 123.103L200.194 124.202C200.194 124.202 181.687 70.5123 133.162 58.3291L135.405 57.8408C135.405 57.8408 181.37 62.2112 201.218 123.078L201.243 123.103Z" fill="url(#paint40_radial_244_2262)"/>
<path style="mix-blend-mode:multiply" opacity="0.5" d="M14.9473 47.9771C14.9473 47.9771 26.3347 26.7114 44.9154 15.871C44.9154 15.871 22.1406 25.2709 14.9473 47.9771Z" fill="url(#paint41_linear_244_2262)"/>
<path d="M14.9473 47.9771C14.9473 47.9771 24.4083 25.8812 44.9154 15.871C44.9154 15.871 27.2613 19.7042 20.0923 25.222C20.0923 25.222 16.0446 36.1845 14.9473 47.9771Z" fill="url(#paint42_radial_244_2262)"/>
<path style="mix-blend-mode:screen" d="M66.0324 91.6804C69.1048 93.8778 74.2499 74.9071 80.9068 68.0952C87.5393 61.2834 93.2939 62.9436 93.3183 60.8927C93.3183 58.8419 78.0294 54.4715 68.5684 65.5316C59.1073 76.5918 64.3255 90.4352 66.0568 91.6804H66.0324Z" fill="url(#paint43_linear_244_2262)"/>
<path style="mix-blend-mode:multiply" opacity="0.2" d="M24.165 92.4129C24.165 92.4129 42.1362 35.3544 87.0275 18.7764C87.0275 18.7764 41.2827 44.1195 24.165 92.4129Z" fill="url(#paint44_linear_244_2262)"/>
<path style="mix-blend-mode:screen" d="M26.5791 94.5126C26.5791 94.5126 49.3539 50.7116 89.4416 20.8517C89.4416 20.8517 46.0377 48.3921 26.5791 94.5126Z" fill="url(#paint45_linear_244_2262)"/>
<path style="mix-blend-mode:screen" d="M71.6647 104.376C68.7874 106.989 64.3495 106.793 61.716 103.912C59.1069 101.031 59.3019 96.5879 62.1793 93.951C65.0566 91.3386 69.4945 91.5339 72.128 94.4149C74.7371 97.2959 74.5421 101.74 71.6647 104.376Z" fill="url(#paint46_radial_244_2262)"/>
<path style="mix-blend-mode:screen" d="M66.0082 64.2132C63.9843 66.0687 60.8388 65.9223 58.9856 63.8714C57.1324 61.8205 57.2787 58.6953 59.327 56.8398C61.3508 54.9842 64.4964 55.1307 66.3496 57.1816C68.2028 59.208 68.0565 62.3576 66.0082 64.2132Z" fill="url(#paint47_radial_244_2262)"/>
<path style="mix-blend-mode:screen" d="M110.387 77.959C108.363 79.8146 105.218 79.6681 103.364 77.6172C101.511 75.5908 101.658 72.4412 103.706 70.5856C105.73 68.7301 108.875 68.8765 110.729 70.9274C112.582 72.9539 112.435 76.1035 110.387 77.959Z" fill="url(#paint48_radial_244_2262)"/>
<path style="mix-blend-mode:screen" opacity="0.5" d="M24.6036 86.4555C24.6036 86.4555 14.1428 66.2885 18.1662 47.2202C18.1662 47.2202 21.4337 40.5548 24.8962 39.334C24.8962 39.334 28.8465 56.2538 35.8935 65.9223L24.6036 86.4555Z" fill="url(#paint49_linear_244_2262)"/>
<path style="mix-blend-mode:multiply" opacity="0.5" d="M70.3486 131.966C70.3486 131.966 110.802 136.702 140.014 127.839C140.014 127.839 126.505 143.343 122.945 151.522C122.945 151.522 96.6836 144.979 70.3486 131.966Z" fill="url(#paint50_linear_244_2262)"/>
<path d="M17.7268 49.6861C15.6054 48.3921 17.3367 62.6262 18.5315 63.0168C19.7263 63.4075 20.5066 51.3952 17.7268 49.6861Z" fill="white"/>
<path d="M18.4827 64.0179C17.6293 64.14 19.0679 67.2163 19.6532 66.8989C20.2384 66.5815 19.1655 63.9202 18.4827 64.0179Z" fill="white"/>
<path d="M37.4298 75.9813C36.2106 74.7606 32.8943 80.7667 34.1135 81.3283C35.3571 81.9143 38.4295 76.9824 37.4298 75.9813Z" fill="white"/>
<path d="M53.9863 69.6334C53.1816 69.2428 52.5476 72.6853 53.2303 72.7586C53.9131 72.8318 54.6202 69.9508 53.9863 69.6334Z" fill="white"/>
<path style="mix-blend-mode:screen" opacity="0.5" d="M89.5383 26.1742C89.5383 26.1742 112.63 38.919 129.041 56.5712C129.041 56.5712 126.602 49.1246 115.361 38.3574C107.217 30.5445 90.5868 21.5353 89.9041 22.341C89.2213 23.1467 89.5383 26.1742 89.5383 26.1742Z" fill="url(#paint51_linear_244_2262)"/>
<path style="mix-blend-mode:screen" opacity="0.5" d="M132.503 123.909C126.529 129.353 117.239 128.938 111.801 122.932C106.363 116.95 106.778 107.648 112.776 102.203C118.751 96.7588 128.041 97.1738 133.479 103.18C138.916 109.186 138.502 118.464 132.503 123.909Z" fill="url(#paint52_radial_244_2262)"/>
<g style="mix-blend-mode:screen" opacity="0.85" filter="url(#filter1_f_244_2262)">
<path d="M139.594 138.455C139.594 138.455 164.536 154.204 179.713 176.192C224.428 241.028 208.173 242.419 230.162 284.303C230.162 284.303 216 192.5 150.824 128.227C150.824 128.227 144.154 130.383 139.592 138.472L139.594 138.455Z" fill="url(#paint53_linear_244_2262)"/>
</g>
<path d="M76.7853 21.0958C77.0535 21.6574 76.834 22.3166 76.2732 22.5852C75.7124 22.8537 75.054 22.634 74.7858 22.0725C74.5175 21.5109 74.737 20.8517 75.2978 20.5831C75.8587 20.3146 76.517 20.5343 76.7853 21.0958Z" fill="url(#paint54_linear_244_2262)"/>
<path d="M25.2862 81.1086C25.5545 81.6701 25.335 82.3293 24.7742 82.5979C24.2133 82.8665 23.555 82.6467 23.2867 82.0852C23.0185 81.5236 23.238 80.8644 23.7988 80.5958C24.3596 80.3273 25.018 80.547 25.2862 81.1086Z" fill="url(#paint55_linear_244_2262)"/>
<path d="M33.7472 88.9215C34.0154 89.4831 33.796 90.1423 33.2351 90.4108C32.6743 90.6794 32.0159 90.4597 31.7477 89.8981C31.4795 89.3366 31.6989 88.6773 32.2597 88.4088C32.8206 88.1402 33.479 88.36 33.7472 88.9215Z" fill="url(#paint56_linear_244_2262)"/>
<path d="M85.2228 27.5415C85.491 28.103 85.2715 28.7622 84.7107 29.0308C84.1499 29.2994 83.4915 29.0796 83.2233 28.5181C82.955 27.9565 83.1745 27.2973 83.7353 27.0287C84.2962 26.7602 84.9545 26.9799 85.2228 27.5415Z" fill="url(#paint57_linear_244_2262)"/>
<path d="M114.264 100.763C114.532 101.324 114.313 101.984 113.752 102.252C113.191 102.521 112.533 102.301 112.264 101.739C111.996 101.178 112.216 100.519 112.776 100.25C113.337 99.9816 113.996 100.201 114.264 100.763Z" fill="url(#paint58_linear_244_2262)"/>
<path style="mix-blend-mode:screen" opacity="0.5" d="M30.4072 93.7069C30.4072 93.7069 42.0873 119.612 85.8325 134.456L91.4409 124.543C91.4409 124.543 55.1084 102.887 39.405 75.5663C39.405 75.5663 32.236 84.7953 30.4316 93.7069H30.4072Z" fill="url(#paint59_linear_244_2262)"/>
<path d="M51.1338 14.8211C51.1338 14.8211 56.3764 6.44667 65.5936 14.2596L51.1338 14.8211Z" fill="url(#paint60_linear_244_2262)"/>
<path d="M15.4351 66.8745C15.4351 66.8745 7.53465 60.3312 14.6548 53.0798C14.6548 53.0798 14.9718 63.9935 15.4351 66.8745Z" fill="url(#paint61_linear_244_2262)"/>
<g style="mix-blend-mode:screen" opacity="0.85" filter="url(#filter2_f_244_2262)">
<path d="M63.5476 23.0468C60.4904 25.8295 55.736 25.6174 52.9532 22.5476C50.1705 19.4904 50.3826 14.736 53.4524 11.9532C56.5096 9.17047 61.264 9.38261 64.0468 12.4524C66.8295 15.5221 66.6174 20.264 63.5476 23.0468Z" fill="#EFE83E"/>
</g>
<g style="mix-blend-mode:screen" opacity="0.85" filter="url(#filter3_f_244_2262)">
<path d="M25.0572 67.6561C21.3884 70.9954 15.6832 70.7409 12.3439 67.0572C9.00456 63.3884 9.25913 57.6832 12.9428 54.3439C16.6266 51.0046 22.3168 51.2591 25.6561 54.9428C28.9954 58.6116 28.7409 64.3168 25.0572 67.6561Z" fill="#EFE83E"/>
</g>
<path d="M63.8867 86.2358C64.033 86.9194 65.3254 90.6306 66.4714 90.5085C67.0323 90.4352 66.6177 89.5075 66.5446 86.6753C66.4714 83.8431 66.2763 81.5237 65.2278 81.6213C64.1793 81.719 63.5697 84.6488 63.8867 86.2358Z" fill="white"/>
<defs>
<filter id="filter0_f_244_2262" x="138.428" y="124.622" width="39.042" height="35.8558" filterUnits="userSpaceOnUse" color-interpolation-filters="sRGB">
<feFlood flood-opacity="0" result="BackgroundImageFix"/>
<feBlend mode="normal" in="SourceGraphic" in2="BackgroundImageFix" result="shape"/>
<feGaussianBlur stdDeviation="2.5" result="effect1_foregroundBlur_244_2262"/>
</filter>
<filter id="filter1_f_244_2262" x="119.592" y="108.227" width="130.57" height="196.076" filterUnits="userSpaceOnUse" color-interpolation-filters="sRGB">
<feFlood flood-opacity="0" result="BackgroundImageFix"/>
<feBlend mode="normal" in="SourceGraphic" in2="BackgroundImageFix" result="shape"/>
<feGaussianBlur stdDeviation="10" result="effect1_foregroundBlur_244_2262"/>
</filter>
<filter id="filter2_f_244_2262" x="41" y="0" width="35" height="35" filterUnits="userSpaceOnUse" color-interpolation-filters="sRGB">
<feFlood flood-opacity="0" result="BackgroundImageFix"/>
<feBlend mode="normal" in="SourceGraphic" in2="BackgroundImageFix" result="shape"/>
<feGaussianBlur stdDeviation="5" result="effect1_foregroundBlur_244_2262"/>
</filter>
<filter id="filter3_f_244_2262" x="0" y="42" width="38" height="38" filterUnits="userSpaceOnUse" color-interpolation-filters="sRGB">
<feFlood flood-opacity="0" result="BackgroundImageFix"/>
<feBlend mode="normal" in="SourceGraphic" in2="BackgroundImageFix" result="shape"/>
<feGaussianBlur stdDeviation="5" result="effect1_foregroundBlur_244_2262"/>
</filter>
<radialGradient id="paint0_radial_244_2262" cx="0" cy="0" r="1" gradientUnits="userSpaceOnUse" gradientTransform="translate(145.939 132.51) rotate(-49.516) scale(25.5735 25.5684)">
<stop stop-color="#BFBBE2"/>
<stop offset="1" stop-color="#7D75DA"/>
</radialGradient>
<radialGradient id="paint1_radial_244_2262" cx="0" cy="0" r="1" gradientUnits="userSpaceOnUse" gradientTransform="translate(53.4108 55.1579) rotate(-49.516) scale(31.8936 31.8873)">
<stop stop-color="#7C42B8"/>
<stop offset="1" stop-color="#272A95"/>
</radialGradient>
<radialGradient id="paint2_radial_244_2262" cx="0" cy="0" r="1" gradientUnits="userSpaceOnUse" gradientTransform="translate(25.759 71.1895) rotate(-26.329) scale(85.049 85.1148)">
<stop stop-color="#BFBBE2"/>
<stop offset="1" stop-color="#7D75DA"/>
</radialGradient>
<radialGradient id="paint3_radial_244_2262" cx="0" cy="0" r="1" gradientUnits="userSpaceOnUse" gradientTransform="translate(25.7703 71.2114) rotate(-26.329) scale(118.927 119.019)">
<stop stop-color="#BFBBE2"/>
<stop offset="0.69" stop-color="#7D75DA"/>
<stop offset="0.76" stop-color="#757BDA"/>
<stop offset="0.88" stop-color="#608CDA"/>
<stop offset="0.97" stop-color="#4B9FDA"/>
</radialGradient>
<linearGradient id="paint4_linear_244_2262" x1="202.361" y1="180.763" x2="115.165" y2="106.333" gradientUnits="userSpaceOnUse">
<stop/>
<stop offset="0.3" stop-color="#362C40"/>
<stop offset="0.63" stop-color="#6F5A83"/>
<stop offset="0.88" stop-color="#9377AD"/>
<stop offset="1" stop-color="#A183BE"/>
</linearGradient>
<radialGradient id="paint5_radial_244_2262" cx="0" cy="0" r="1" gradientUnits="userSpaceOnUse" gradientTransform="translate(148.967 134.345) rotate(-49.5161) scale(10.062 9.49055)">
<stop stop-color="#5822B6"/>
<stop offset="0.63" stop-color="#593290"/>
<stop offset="0.98" stop-color="#31199A"/>
</radialGradient>
<linearGradient id="paint6_linear_244_2262" x1="142.599" y1="144.202" x2="156.578" y2="127.868" gradientUnits="userSpaceOnUse">
<stop stop-color="#00FEF4"/>
<stop offset="1" stop-color="#30A7FB"/>
</linearGradient>
<radialGradient id="paint7_radial_244_2262" cx="0" cy="0" r="1" gradientUnits="userSpaceOnUse" gradientTransform="translate(103.388 94.4261) rotate(-49.5161) scale(29.3314 29.3256)">
<stop stop-color="#7C42B8"/>
<stop offset="1" stop-color="#272A95"/>
</radialGradient>
<linearGradient id="paint8_linear_244_2262" x1="138.333" y1="129.861" x2="51.1241" y2="55.4461" gradientUnits="userSpaceOnUse">
<stop stop-color="#2128A9"/>
<stop offset="1" stop-color="#E5DCF4"/>
</linearGradient>
<radialGradient id="paint9_radial_244_2262" cx="0" cy="0" r="1" gradientUnits="userSpaceOnUse" gradientTransform="translate(69.4137 66.8759) rotate(-49.516) scale(38.043 38.0354)">
<stop stop-color="#A26D9F"/>
<stop offset="1" stop-color="#645AD3"/>
</radialGradient>
<linearGradient id="paint10_linear_244_2262" x1="60.1549" y1="97.8004" x2="92.0933" y2="60.4794" gradientUnits="userSpaceOnUse">
<stop stop-color="#A183BE"/>
<stop offset="0.12" stop-color="#9377AD"/>
<stop offset="0.37" stop-color="#6F5A83"/>
<stop offset="0.7" stop-color="#362C40"/>
<stop offset="1"/>
</linearGradient>
<radialGradient id="paint11_radial_244_2262" cx="0" cy="0" r="1" gradientUnits="userSpaceOnUse" gradientTransform="translate(70.3201 66.8019) rotate(-49.516) scale(23.2553 23.2506)">
<stop stop-color="#368BB8"/>
<stop offset="1" stop-color="#272A95"/>
</radialGradient>
<linearGradient id="paint12_linear_244_2262" x1="99.8183" y1="93.4592" x2="66.6767" y2="65.1698" gradientUnits="userSpaceOnUse">
<stop stop-color="#00FEF4"/>
<stop offset="1" stop-color="#30A7FB"/>
</linearGradient>
<radialGradient id="paint13_radial_244_2262" cx="0" cy="0" r="1" gradientUnits="userSpaceOnUse" gradientTransform="translate(102.094 94.2505) rotate(-49.516) scale(1.43973 1.43944)">
<stop stop-color="#7C42B8"/>
<stop offset="1" stop-color="#272A95"/>
</radialGradient>
<linearGradient id="paint14_linear_244_2262" x1="102.873" y1="94.9168" x2="100.998" y2="93.317" gradientUnits="userSpaceOnUse">
<stop stop-color="#00FEF4"/>
<stop offset="1" stop-color="#30A7FB"/>
</linearGradient>
<radialGradient id="paint15_radial_244_2262" cx="0" cy="0" r="1" gradientUnits="userSpaceOnUse" gradientTransform="translate(62.834 60.6528) rotate(-49.516) scale(1.43973 1.43944)">
<stop stop-color="#7C42B8"/>
<stop offset="1" stop-color="#272A95"/>
</radialGradient>
<linearGradient id="paint16_linear_244_2262" x1="63.6311" y1="61.3349" x2="61.7383" y2="59.7192" gradientUnits="userSpaceOnUse">
<stop stop-color="#00FEF4"/>
<stop offset="1" stop-color="#30A7FB"/>
</linearGradient>
<radialGradient id="paint17_radial_244_2262" cx="0" cy="0" r="1" gradientUnits="userSpaceOnUse" gradientTransform="translate(67.6767 99.7733) rotate(-49.516) scale(1.43973 1.43944)">
<stop stop-color="#7C42B8"/>
<stop offset="1" stop-color="#272A95"/>
</radialGradient>
<linearGradient id="paint18_linear_244_2262" x1="68.4552" y1="100.44" x2="66.581" y2="98.8397" gradientUnits="userSpaceOnUse">
<stop stop-color="#00FEF4"/>
<stop offset="1" stop-color="#30A7FB"/>
</linearGradient>
<radialGradient id="paint19_radial_244_2262" cx="0" cy="0" r="1" gradientUnits="userSpaceOnUse" gradientTransform="translate(80.9545 51.9753) rotate(-49.516) scale(1.43973 1.43944)">
<stop stop-color="#7C42B8"/>
<stop offset="1" stop-color="#272A95"/>
</radialGradient>
<linearGradient id="paint20_linear_244_2262" x1="81.733" y1="52.6416" x2="79.8402" y2="51.0259" gradientUnits="userSpaceOnUse">
<stop stop-color="#00FEF4"/>
<stop offset="1" stop-color="#30A7FB"/>
</linearGradient>
<radialGradient id="paint21_radial_244_2262" cx="0" cy="0" r="1" gradientUnits="userSpaceOnUse" gradientTransform="translate(55.8759 81.3558) rotate(-49.516) scale(1.43973 1.43944)">
<stop stop-color="#7C42B8"/>
<stop offset="1" stop-color="#272A95"/>
</radialGradient>
<linearGradient id="paint22_linear_244_2262" x1="56.6544" y1="82.022" x2="54.7803" y2="80.4222" gradientUnits="userSpaceOnUse">
<stop stop-color="#00FEF4"/>
<stop offset="1" stop-color="#30A7FB"/>
</linearGradient>
<radialGradient id="paint23_radial_244_2262" cx="0" cy="0" r="1" gradientUnits="userSpaceOnUse" gradientTransform="translate(107.052 74.2759) rotate(-49.5161) scale(1.43973 1.43944)">
<stop stop-color="#7C42B8"/>
<stop offset="1" stop-color="#272A95"/>
</radialGradient>
<linearGradient id="paint24_linear_244_2262" x1="107.849" y1="74.958" x2="105.956" y2="73.3424" gradientUnits="userSpaceOnUse">
<stop stop-color="#00FEF4"/>
<stop offset="1" stop-color="#30A7FB"/>
</linearGradient>
<radialGradient id="paint25_radial_244_2262" cx="0" cy="0" r="1" gradientUnits="userSpaceOnUse" gradientTransform="translate(81.9563 103.675) rotate(-49.5161) scale(1.43973 1.43944)">
<stop stop-color="#7C42B8"/>
<stop offset="1" stop-color="#272A95"/>
</radialGradient>
<linearGradient id="paint26_linear_244_2262" x1="82.7531" y1="104.357" x2="80.8604" y2="102.741" gradientUnits="userSpaceOnUse">
<stop stop-color="#00FEF4"/>
<stop offset="1" stop-color="#30A7FB"/>
</linearGradient>
<radialGradient id="paint27_radial_244_2262" cx="0" cy="0" r="1" gradientUnits="userSpaceOnUse" gradientTransform="translate(100.398 59.9745) rotate(-49.516) scale(1.43973 1.43944)">
<stop stop-color="#7C42B8"/>
<stop offset="1" stop-color="#272A95"/>
</radialGradient>
<linearGradient id="paint28_linear_244_2262" x1="101.176" y1="60.6408" x2="99.2833" y2="59.0251" gradientUnits="userSpaceOnUse">
<stop stop-color="#00FEF4"/>
<stop offset="1" stop-color="#30A7FB"/>
</linearGradient>
<radialGradient id="paint29_radial_244_2262" cx="0" cy="0" r="1" gradientUnits="userSpaceOnUse" gradientTransform="translate(123.235 114.238) rotate(-49.516) scale(4.66081 4.65988)">
<stop stop-color="#888EE7"/>
<stop offset="1" stop-color="#B8ADEE"/>
</radialGradient>
<radialGradient id="paint30_radial_244_2262" cx="0" cy="0" r="1" gradientUnits="userSpaceOnUse" gradientTransform="translate(125.749 116.292) rotate(-49.516) scale(4.66081 4.65989)">
<stop stop-color="#D67F86"/>
<stop offset="1" stop-color="#272A95"/>
</radialGradient>
<linearGradient id="paint31_linear_244_2262" x1="125.664" y1="116.316" x2="119.485" y2="111.042" gradientUnits="userSpaceOnUse">
<stop stop-color="#FFFF56"/>
<stop offset="1" stop-color="#FFA500"/>
</linearGradient>
<linearGradient id="paint32_linear_244_2262" x1="142.99" y1="130.404" x2="67.911" y2="66.3171" gradientUnits="userSpaceOnUse">
<stop stop-color="#5D62C0"/>
<stop offset="1" stop-color="#E5DCF4"/>
</linearGradient>
<linearGradient id="paint33_linear_244_2262" x1="89.1825" y1="150.488" x2="103.51" y2="133.746" gradientUnits="userSpaceOnUse">
<stop stop-color="#2128A9"/>
<stop offset="1" stop-color="#E5DCF4"/>
</linearGradient>
<radialGradient id="paint34_radial_244_2262" cx="0" cy="0" r="1" gradientUnits="userSpaceOnUse" gradientTransform="translate(69.691 125.071) rotate(-49.516) scale(74.8414 74.8265)">
<stop stop-color="#D0CDEA"/>
<stop offset="1" stop-color="#7D75DA"/>
</radialGradient>
<linearGradient id="paint35_linear_244_2262" x1="98.5983" y1="171.136" x2="118.574" y2="147.794" gradientUnits="userSpaceOnUse">
<stop stop-color="#2128A9"/>
<stop offset="1" stop-color="#E5DCF4"/>
</linearGradient>
<radialGradient id="paint36_radial_244_2262" cx="0" cy="0" r="1" gradientUnits="userSpaceOnUse" gradientTransform="translate(65.16 130.38) rotate(-49.5161) scale(74.329 74.3142)">
<stop stop-color="#FAFAFD"/>
<stop offset="1" stop-color="#C3BFEE"/>
</radialGradient>
<linearGradient id="paint37_linear_244_2262" x1="154.355" y1="73.9778" x2="140.028" y2="90.7195" gradientUnits="userSpaceOnUse">
<stop stop-color="#2128A9"/>
<stop offset="1" stop-color="#E5DCF4"/>
</linearGradient>
<radialGradient id="paint38_radial_244_2262" cx="0" cy="0" r="1" gradientUnits="userSpaceOnUse" gradientTransform="translate(126.245 58.6581) rotate(130.484) scale(74.8414 74.8265)">
<stop stop-color="#A7FAFD"/>
<stop offset="1" stop-color="#C3BFEE"/>
</radialGradient>
<linearGradient id="paint39_linear_244_2262" x1="176.208" y1="80.0562" x2="156.216" y2="103.417" gradientUnits="userSpaceOnUse">
<stop stop-color="#2128A9"/>
<stop offset="1" stop-color="#E5DCF4"/>
</linearGradient>
<radialGradient id="paint40_radial_244_2262" cx="0" cy="0" r="1" gradientUnits="userSpaceOnUse" gradientTransform="translate(130.776 53.35) rotate(130.484) scale(74.329 74.3142)">
<stop stop-color="#D0CDEA"/>
<stop offset="1" stop-color="#7D75DA"/>
</radialGradient>
<linearGradient id="paint41_linear_244_2262" x1="14.3062" y1="47.4198" x2="42.8334" y2="14.0848" gradientUnits="userSpaceOnUse">
<stop stop-color="#2128A9"/>
<stop offset="1" stop-color="#E5DCF4"/>
</linearGradient>
<radialGradient id="paint42_radial_244_2262" cx="0" cy="0" r="1" gradientUnits="userSpaceOnUse" gradientTransform="translate(25.824 28.4025) rotate(-49.516) scale(16.1542 16.151)">
<stop stop-color="#FAFAFD"/>
<stop offset="1" stop-color="#C3BFEE"/>
</radialGradient>
<linearGradient id="paint43_linear_244_2262" x1="60.6844" y1="87.1088" x2="87.5774" y2="55.6835" gradientUnits="userSpaceOnUse">
<stop stop-color="#A183BE"/>
<stop offset="0.12" stop-color="#9377AD"/>
<stop offset="0.37" stop-color="#6F5A83"/>
<stop offset="0.7" stop-color="#362C40"/>
<stop offset="1"/>
</linearGradient>
<linearGradient id="paint44_linear_244_2262" x1="20.2108" y1="89.0545" x2="83.1674" y2="15.4877" gradientUnits="userSpaceOnUse">
<stop stop-color="#E5DCF4"/>
<stop offset="1" stop-color="#2128A9"/>
</linearGradient>
<linearGradient id="paint45_linear_244_2262" x1="-20.8214" y1="144.866" x2="42.151" y2="71.2803" gradientUnits="userSpaceOnUse">
<stop/>
<stop offset="0.3" stop-color="#362C40"/>
<stop offset="0.63" stop-color="#6F5A83"/>
<stop offset="0.88" stop-color="#9377AD"/>
<stop offset="1" stop-color="#A183BE"/>
</linearGradient>
<radialGradient id="paint46_radial_244_2262" cx="0" cy="0" r="1" gradientUnits="userSpaceOnUse" gradientTransform="translate(67.7264 95.9466) rotate(47.7163) scale(7.03779 7.03695)">
<stop stop-color="#006BFF"/>
<stop offset="0.06" stop-color="#0063EC"/>
<stop offset="0.33" stop-color="#004099"/>
<stop offset="0.56" stop-color="#002457"/>
<stop offset="0.76" stop-color="#001028"/>
<stop offset="0.91" stop-color="#00040A"/>
<stop offset="1"/>
</radialGradient>
<radialGradient id="paint47_radial_244_2262" cx="0" cy="0" r="1" gradientUnits="userSpaceOnUse" gradientTransform="translate(63.4757 57.2416) rotate(47.7163) scale(4.99785 4.99725)">
<stop stop-color="#006BFF"/>
<stop offset="0.06" stop-color="#0063EC"/>
<stop offset="0.33" stop-color="#004099"/>
<stop offset="0.56" stop-color="#002457"/>
<stop offset="0.76" stop-color="#001028"/>
<stop offset="0.91" stop-color="#00040A"/>
<stop offset="1"/>
</radialGradient>
<radialGradient id="paint48_radial_244_2262" cx="0" cy="0" r="1" gradientUnits="userSpaceOnUse" gradientTransform="translate(107.926 71.0284) rotate(47.7163) scale(4.99785 4.99726)">
<stop stop-color="#006BFF"/>
<stop offset="0.06" stop-color="#0063EC"/>
<stop offset="0.33" stop-color="#004099"/>
<stop offset="0.56" stop-color="#002457"/>
<stop offset="0.76" stop-color="#001028"/>
<stop offset="0.91" stop-color="#00040A"/>
<stop offset="1"/>
</radialGradient>
<linearGradient id="paint49_linear_244_2262" x1="12.7789" y1="76.3033" x2="36.1655" y2="48.9754" gradientUnits="userSpaceOnUse">
<stop/>
<stop offset="0.3" stop-color="#362C40"/>
<stop offset="0.63" stop-color="#6F5A83"/>
<stop offset="0.88" stop-color="#9377AD"/>
<stop offset="1" stop-color="#A183BE"/>
</linearGradient>
<linearGradient id="paint50_linear_244_2262" x1="126.106" y1="147.816" x2="86.0246" y2="113.603" gradientUnits="userSpaceOnUse">
<stop stop-color="#E5DCF4"/>
<stop offset="1" stop-color="#2128A9"/>
</linearGradient>
<linearGradient id="paint51_linear_244_2262" x1="129.842" y1="55.6558" x2="90.2982" y2="21.9016" gradientUnits="userSpaceOnUse">
<stop/>
<stop offset="0.3" stop-color="#362C40"/>
<stop offset="0.63" stop-color="#6F5A83"/>
<stop offset="0.88" stop-color="#9377AD"/>
<stop offset="1" stop-color="#A183BE"/>
</linearGradient>
<radialGradient id="paint52_radial_244_2262" cx="0" cy="0" r="1" gradientUnits="userSpaceOnUse" gradientTransform="translate(123.534 109.868) rotate(47.7163) scale(14.6876 14.6858)">
<stop stop-color="#FF5115"/>
<stop offset="0.06" stop-color="#EC4B13"/>
<stop offset="0.33" stop-color="#99300C"/>
<stop offset="0.56" stop-color="#571B07"/>
<stop offset="0.76" stop-color="#280C03"/>
<stop offset="0.91" stop-color="#0A0300"/>
<stop offset="1"/>
</radialGradient>
<linearGradient id="paint53_linear_244_2262" x1="151" y1="142" x2="215.5" y2="280" gradientUnits="userSpaceOnUse">
<stop stop-color="#3EE4EF"/>
<stop offset="1" stop-color="#3EE4EF" stop-opacity="0"/>
</linearGradient>
<linearGradient id="paint54_linear_244_2262" x1="76.2883" y1="22.5721" x2="75.3031" y2="20.5813" gradientUnits="userSpaceOnUse">
<stop stop-color="#634BDE"/>
<stop offset="1" stop-color="#CCC4FF"/>
</linearGradient>
<linearGradient id="paint55_linear_244_2262" x1="24.7794" y1="82.5953" x2="23.7942" y2="80.6044" gradientUnits="userSpaceOnUse">
<stop stop-color="#634BDE"/>
<stop offset="1" stop-color="#CCC4FF"/>
</linearGradient>
<linearGradient id="paint56_linear_244_2262" x1="33.2598" y1="90.4089" x2="32.2746" y2="88.4181" gradientUnits="userSpaceOnUse">
<stop stop-color="#634BDE"/>
<stop offset="1" stop-color="#CCC4FF"/>
</linearGradient>
<linearGradient id="paint57_linear_244_2262" x1="84.7214" y1="29.0206" x2="83.7362" y2="27.0298" gradientUnits="userSpaceOnUse">
<stop stop-color="#634BDE"/>
<stop offset="1" stop-color="#CCC4FF"/>
</linearGradient>
<linearGradient id="paint58_linear_244_2262" x1="113.772" y1="102.258" x2="112.786" y2="100.267" gradientUnits="userSpaceOnUse">
<stop stop-color="#634BDE"/>
<stop offset="1" stop-color="#CCC4FF"/>
</linearGradient>
<linearGradient id="paint59_linear_244_2262" x1="87.5622" y1="132.432" x2="31.6335" y2="84.6914" gradientUnits="userSpaceOnUse">
<stop/>
<stop offset="0.3" stop-color="#362C40"/>
<stop offset="0.63" stop-color="#6F5A83"/>
<stop offset="0.88" stop-color="#9377AD"/>
<stop offset="1" stop-color="#A183BE"/>
</linearGradient>
<linearGradient id="paint60_linear_244_2262" x1="52.1713" y1="16.9136" x2="64.0254" y2="11.0624" gradientUnits="userSpaceOnUse">
<stop stop-color="#FFFF56"/>
<stop offset="1" stop-color="#FFA500"/>
</linearGradient>
<linearGradient id="paint61_linear_244_2262" x1="11.8232" y1="61.5818" x2="17.4878" y2="58.7857" gradientUnits="userSpaceOnUse">
<stop stop-color="#FFFF56"/>
<stop offset="1" stop-color="#FFA500"/>
</linearGradient>
</defs>
</svg>
