<svg width="81" height="91" viewBox="0 0 81 91" fill="none" xmlns="http://www.w3.org/2000/svg">
<g style="mix-blend-mode:multiply">
<path d="M40.5 90.6919C62.8675 90.6919 81 88.0056 81 84.6919C81 81.3782 62.8675 78.6919 40.5 78.6919C18.1325 78.6919 0 81.3782 0 84.6919C0 88.0056 18.1325 90.6919 40.5 90.6919Z" fill="#6B54A1"/>
</g>
<path d="M59.1416 41.8227C59.1416 62.6464 53.8094 80.1468 39.2145 82.6469C37.9957 82.8603 30.7744 82.6469 29.5251 82.6469C13.1934 82.5859 0 64.2928 0 41.7312C0 19.1697 13.2848 0.907014 29.6165 0.937503C30.6525 0.937503 39.6106 0.815548 40.6161 0.937503C55.5157 3.04121 59.1721 20.6636 59.1416 41.7922V41.8227Z" fill="url(#paint0_radial_521_10481)"/>
<path d="M69.9991 41.5771C69.9991 64.1387 56.7143 82.4013 40.3826 82.3709C24.0508 82.3404 10.827 64.0472 10.8575 41.5162C10.8879 18.9546 24.1422 0.661444 40.474 0.691933C56.8057 0.722421 70.0296 19.0156 69.9991 41.5771Z" fill="url(#paint1_linear_521_10481)"/>
<path style="mix-blend-mode:screen" d="M15.1133 20.7551L58.0146 74.7504L64.2304 66.2746L30.7137 3.28516C30.7137 3.28516 22.0604 6.85232 15.1133 20.7551Z" fill="url(#paint2_linear_521_10481)"/>
<path d="M61.427 41.8222C61.427 57.7372 52.0728 70.6339 40.5248 70.6034C40.0983 70.6034 39.6717 70.6034 39.2756 70.5424C28.337 69.6583 19.6836 57.097 19.6836 41.7612C19.6836 26.4559 28.3674 13.9861 39.2451 13.041C39.7022 13.0105 40.1287 12.98 40.5858 12.98C52.1033 12.98 61.427 25.9071 61.3966 41.8222H61.427Z" fill="url(#paint3_radial_521_10481)"/>
<path d="M58.7457 41.8222C58.7457 57.0665 50.1228 69.5669 39.2756 70.5425C28.337 69.6583 19.6836 57.097 19.6836 41.7613C19.6836 26.456 28.3674 13.9862 39.2451 13.041C50.1228 14.0167 58.7457 26.517 58.7152 41.8222H58.7457Z" fill="url(#paint4_linear_521_10481)"/>
<path d="M37.6641 17.0259L39.5646 34.8684L27.9913 42.9177L37.6641 17.0259Z" fill="white"/>
<path d="M37.6636 17.0264L53.6908 40.1807L39.5641 34.8689L37.6636 17.0264Z" fill="#505967"/>
<path d="M41.5872 53.8654L42.9001 66.1913L28.3474 46.2702L41.5872 53.8654Z" fill="white"/>
<path d="M42.9006 66.182L41.5877 53.8561L54.0488 43.5322L42.9016 66.1909L42.9006 66.182Z" fill="#4E4D4D"/>
<path d="M41.2347 50.5482L28.0012 43.0117L39.5684 34.9048L41.2347 50.5482Z" fill="#545659"/>
<path d="M53.7006 40.2737L41.2342 50.5478L39.5679 34.9044L53.7006 40.2737Z" fill="#48494B"/>
<path d="M66.271 39.5063C67.825 39.5672 69.0438 41.0612 68.9828 42.8905C68.9219 44.7198 67.6117 46.1528 66.0577 46.0918C64.5038 46.0308 63.285 44.5369 63.3459 42.7076C63.4069 40.8783 64.7171 39.4453 66.271 39.5063Z" fill="url(#paint5_radial_521_10481)"/>
<path d="M65.8449 39.9639C67.1856 39.9944 68.1911 41.3054 68.1606 42.8604C68.1301 44.4153 67.0027 45.6348 65.6621 45.6043C64.3214 45.5738 63.3159 44.2628 63.3464 42.7079C63.4073 41.153 64.5042 39.9334 65.8449 39.9639Z" fill="url(#paint6_linear_521_10481)"/>
<path d="M42.1675 5.05315C43.7215 5.11412 44.9402 6.60806 44.8793 8.43738C44.8184 10.2667 43.5082 11.6997 41.9542 11.6387C40.4003 11.5777 39.1815 10.0838 39.2424 8.25445C39.3034 6.42513 40.6136 4.99217 42.1675 5.05315Z" fill="url(#paint7_radial_521_10481)"/>
<path d="M41.7726 5.51033C43.1133 5.54081 44.1188 6.85182 44.0883 8.40674C44.0578 9.96166 42.9305 11.1812 41.5898 11.1507C40.2491 11.1202 39.2436 9.80922 39.2741 8.2543C39.3351 6.69938 40.432 5.47984 41.7726 5.51033Z" fill="url(#paint8_linear_521_10481)"/>
<path d="M42.1089 73.1952C43.6629 73.2562 44.8817 74.7502 44.8207 76.5795C44.7598 78.4088 43.4496 79.8417 41.8956 79.7808C40.3417 79.7198 39.1229 78.2259 39.1838 76.3965C39.2448 74.5672 40.555 73.1343 42.1089 73.1952Z" fill="url(#paint9_radial_521_10481)"/>
<path d="M41.6808 73.6827C43.0215 73.7132 44.027 75.0242 43.9965 76.5791C43.9356 78.134 42.8387 79.3536 41.498 79.3231C40.1573 79.2926 39.1518 77.9816 39.1823 76.4267C39.2128 74.8717 40.3402 73.6522 41.6808 73.6827Z" fill="url(#paint10_linear_521_10481)"/>
<path d="M15.6011 39.4447C17.1551 39.5057 18.3738 40.9997 18.3129 42.829C18.252 44.6583 16.9418 46.0913 15.3878 46.0303C13.8339 45.9693 12.6151 44.4754 12.676 42.646C12.737 40.8167 14.0472 39.3838 15.6011 39.4447Z" fill="url(#paint11_radial_521_10481)"/>
<path d="M15.173 39.9024C16.5137 39.9329 17.5192 41.2439 17.4887 42.7988C17.4278 44.3537 16.3309 45.5733 14.9902 45.5428C13.6495 45.5123 12.644 44.2013 12.6745 42.6464C12.705 41.0915 13.8324 39.8719 15.173 39.9024Z" fill="url(#paint12_linear_521_10481)"/>
<path style="mix-blend-mode:screen" d="M4.26562 20.7551H15.1128C15.1128 20.7551 18.0074 11.5476 29.6469 3.28516L18.8606 3.712C18.8606 3.712 7.37353 10.9988 4.26562 20.7551Z" fill="url(#paint13_linear_521_10481)"/>
<path d="M16.9424 17.2789C16.5159 18.1936 24.4075 13.8947 26.0833 10.6934C27.7592 7.4921 28.8256 5.29693 28.0334 4.8396C27.2412 4.38227 19.5324 11.5776 16.9424 17.2789Z" fill="white"/>
<path d="M57.222 74.2934C54.3579 75.0556 61.305 67.8603 62.0362 68.1652C62.7675 68.4701 59.812 73.5922 57.222 74.2934Z" fill="white"/>
<defs>
<radialGradient id="paint0_radial_521_10481" cx="0" cy="0" r="1" gradientUnits="userSpaceOnUse" gradientTransform="translate(29.5336 41.7877) rotate(0.0700435) scale(35.68 35.7021)">
<stop stop-color="#6100FF"/>
<stop offset="1" stop-color="#571BA5"/>
</radialGradient>
<linearGradient id="paint1_linear_521_10481" x1="40.3412" y1="82.3797" x2="40.4411" y2="0.670377" gradientUnits="userSpaceOnUse">
<stop stop-color="#7000FF"/>
<stop offset="1" stop-color="#9E62EA"/>
</linearGradient>
<linearGradient id="paint2_linear_521_10481" x1="15.0338" y1="38.965" x2="64.2118" y2="39.0251" gradientUnits="userSpaceOnUse">
<stop stop-color="#7D40FF"/>
<stop offset="0.1" stop-color="#8A3BEE"/>
<stop offset="0.29" stop-color="#7231C4"/>
<stop offset="0.55" stop-color="#502080"/>
<stop offset="0.88" stop-color="#180924"/>
<stop offset="1"/>
</linearGradient>
<radialGradient id="paint3_radial_521_10481" cx="0" cy="0" r="1" gradientUnits="userSpaceOnUse" gradientTransform="translate(40.5334 41.7701) rotate(0.0700435) scale(25.1375 25.1531)">
<stop stop-color="#6100FF"/>
<stop offset="1" stop-color="#6717A6"/>
</radialGradient>
<linearGradient id="paint4_linear_521_10481" x1="39.1576" y1="70.5192" x2="39.2279" y2="13.0178" gradientUnits="userSpaceOnUse">
<stop stop-color="#9E70FE"/>
<stop offset="1" stop-color="#9E62EA"/>
</linearGradient>
<radialGradient id="paint5_radial_521_10481" cx="0" cy="0" r="1" gradientUnits="userSpaceOnUse" gradientTransform="translate(72.5014 42.9888) rotate(-88.0712) scale(3.29277 2.79711)">
<stop stop-color="#8000FF"/>
<stop offset="1" stop-color="#7519BE"/>
</radialGradient>
<linearGradient id="paint6_linear_521_10481" x1="71.8265" y1="45.7732" x2="71.7645" y2="40.1611" gradientUnits="userSpaceOnUse">
<stop stop-color="#00FFF4"/>
<stop offset="1" stop-color="#30A7FB"/>
</linearGradient>
<radialGradient id="paint7_radial_521_10481" cx="0" cy="0" r="1" gradientUnits="userSpaceOnUse" gradientTransform="translate(48.3978 8.53567) rotate(-88.0712) scale(3.29277 2.79712)">
<stop stop-color="#8000FF"/>
<stop offset="1" stop-color="#7519BE"/>
</radialGradient>
<linearGradient id="paint8_linear_521_10481" x1="47.8751" y1="11.3161" x2="47.8141" y2="5.67354" gradientUnits="userSpaceOnUse">
<stop stop-color="#00FFF4"/>
<stop offset="1" stop-color="#30A7FB"/>
</linearGradient>
<radialGradient id="paint9_radial_521_10481" cx="0" cy="0" r="1" gradientUnits="userSpaceOnUse" gradientTransform="translate(48.3393 76.6778) rotate(-88.0712) scale(3.29277 2.79712)">
<stop stop-color="#8000FF"/>
<stop offset="1" stop-color="#7519BE"/>
</radialGradient>
<linearGradient id="paint10_linear_521_10481" x1="47.7824" y1="79.463" x2="47.7204" y2="73.851" gradientUnits="userSpaceOnUse">
<stop stop-color="#00FFF4"/>
<stop offset="1" stop-color="#30A7FB"/>
</linearGradient>
<radialGradient id="paint11_radial_521_10481" cx="0" cy="0" r="1" gradientUnits="userSpaceOnUse" gradientTransform="translate(21.8314 42.9273) rotate(-88.0712) scale(3.29277 2.79712)">
<stop stop-color="#8000FF"/>
<stop offset="1" stop-color="#7519BE"/>
</radialGradient>
<linearGradient id="paint12_linear_521_10481" x1="21.4249" y1="45.7205" x2="21.3629" y2="40.1084" gradientUnits="userSpaceOnUse">
<stop stop-color="#00FFF4"/>
<stop offset="1" stop-color="#30A7FB"/>
</linearGradient>
<linearGradient id="paint13_linear_521_10481" x1="4.22455" y1="12.0072" x2="29.6371" y2="12.0728" gradientUnits="userSpaceOnUse">
<stop stop-color="#7D40FF"/>
<stop offset="0.1" stop-color="#8A3BEE"/>
<stop offset="0.29" stop-color="#7231C4"/>
<stop offset="0.55" stop-color="#502080"/>
<stop offset="0.88" stop-color="#180924"/>
<stop offset="1"/>
</linearGradient>
</defs>
</svg>
