<svg width="80" height="69" viewBox="0 0 80 69" fill="none" xmlns="http://www.w3.org/2000/svg">
<path d="M1.32168 56.0928C4.03972 66.7103 71.9369 74.7003 77.5614 63.6806C82.6745 53.6529 78.8262 12.7112 74.4396 5.5524C68.4923 -4.20713 9.74492 2.6299 4.9278 10.3249C0.433612 17.4837 -1.504 45.0999 1.32168 56.0928Z" fill="url(#paint0_radial_426_7720)"/>
<path d="M1.53703 54.216C4.25507 64.4582 71.7486 70.1959 77.3461 59.5516C82.4323 49.8725 78.6648 12.8721 74.3051 5.95464C68.3847 -3.42952 9.85262 3.1662 5.06241 10.5663C0.568225 17.4838 -1.26174 43.5985 1.53703 54.216Z" fill="url(#paint1_linear_426_7720)"/>
<path d="M2.37107 53.3314C5.03529 63.2786 71.1025 68.9895 76.5924 58.6669C81.571 49.2828 77.8303 13.2208 73.5783 6.5178C67.7655 -2.62506 10.4983 3.78299 5.7888 10.9686C1.40226 17.6715 -0.400793 43.0088 2.37107 53.3314Z" fill="url(#paint2_linear_426_7720)"/>
<path d="M21.6496 33.9977C21.6496 24.9196 28.3978 17.3917 37.1794 16.0365V19.9993L48.47 12.9987L37.1772 6V10.3754C25.2686 11.7737 16 21.8255 16 33.998C16 42.5534 20.5878 50.0429 27.4311 54.2346L32.9694 50.8071C26.3277 48.061 21.6496 41.565 21.6496 33.9977Z" fill="#0029FE"/>
<path d="M52.5676 13.7642L47.03 17.1966C53.6742 19.9322 58.3525 26.4298 58.3525 33.9977C58.3525 43.0832 51.6056 50.6062 42.8237 51.9632V47.9985L31.5313 55.0019L42.8237 62V57.6178C54.7317 56.2242 64 46.1736 64 33.9977C64.0003 25.4456 59.4125 17.9568 52.5676 13.7642Z" fill="#0029FE"/>
<path d="M39.954 45.0991C39.2021 45.008 38.4266 44.8207 37.7282 44.4706C42.786 46.0257 46.9981 42.5194 46.9981 42.5194C43.1203 43.9607 36.7136 44.0027 33.8887 39.2858C30.2451 33.2006 33.7281 28.7462 36.9683 27.7634C41.4221 26.4123 46.9271 31.0607 44.3369 36.2043C45.4192 33.2045 43.1878 28.7572 39.3849 28.478C35.59 28.1996 33.5193 31.251 32.7666 34.0747C32.7666 34.0747 33.2096 33.2412 33.974 32.2883C33.5961 33.1853 33.0551 35.0735 33.7697 36.9986C34.5866 39.2006 36.155 40.6796 37.6538 41.4207C42.009 43.5756 47.1197 41.4802 47.1197 41.4802C44.155 42.278 39.9345 41.8468 37.438 39.9251C36.4562 39.1689 35.5043 37.9249 35.0914 36.7215C34.7561 35.7465 34.7165 34.6899 34.9316 33.7189C35.1389 32.7838 35.6241 31.7222 36.5505 31.1204C37.7092 30.3689 39.4987 30.3022 40.9835 31.494C42.093 32.3846 42.426 33.7561 42.3089 35.168C42.0848 33.7271 40.9922 32.4226 39.6639 32.0082C38.3356 31.5938 36.7025 31.9876 36.0716 33.2222C34.6939 35.9163 37.0194 39.1939 39.7565 40.2824C41.8325 41.1081 44.5686 41.2866 46.5368 40.6251C50.8713 39.1676 51.8808 35.2076 52 33.4482C52 33.4482 51.1199 36.6685 49.1595 38.126C52.0454 34.7328 52.709 29.4255 48.9782 24.5163C48.9782 24.5163 50.7813 27.6017 50.6131 31.1632C49.2271 22.6264 40.7563 19.3698 35.799 21.7648C35.799 21.7648 39.3951 20.6667 42.3941 22.3811C37.4658 21.0847 31.9633 23.4414 29.0145 28.1614C29.0145 28.1614 34.2701 22.4337 40.5947 23.9959C44.2175 24.8913 46.4012 27.2022 47.5825 29.8453C47.8868 30.526 48.0187 31.1656 48.0892 31.7345C46.8882 28.1787 43.2262 24.5836 39.1283 24.4396C36.085 24.178 33.1596 25.2578 30.9661 27.5745C29.2603 29.3779 28.2045 32.0098 28.023 34.6488C27.9021 36.4053 28.2786 38.0282 28.6591 39.753C28.6591 39.753 27.9636 36.6039 28.6834 34.4914C28.3785 39.1292 30.6893 44.3897 36.1144 47C36.1144 47 33.551 45.4253 31.9554 42.6832C36.5659 47.5595 46.1078 48.5888 51.3996 40.7073C51.3996 40.7073 46.1263 45.8477 39.9548 45.1001L39.954 45.0991ZM42.7713 37.8849C42.7682 38.0312 42.6531 38.1395 42.5149 38.1262L42.3439 38.1098C42.2057 38.0965 42.0906 38.2048 42.0875 38.3512L42.0777 38.8089C42.0746 38.9553 41.9595 39.0636 41.8213 39.0503C41.6831 39.037 41.5731 38.9071 41.5762 38.7607L41.586 38.3029C41.5891 38.1566 41.4791 38.0266 41.3409 38.0134L41.1699 37.9969C41.0317 37.9836 40.9217 37.8537 40.9248 37.7073C40.9279 37.561 41.043 37.4527 41.1812 37.466L41.3522 37.4824C41.4904 37.4957 41.6055 37.3874 41.6086 37.241L41.6184 36.7833C41.6215 36.6369 41.7366 36.5286 41.8748 36.5419C42.013 36.5552 42.123 36.6851 42.1199 36.8315L42.1101 37.2893C42.107 37.4356 42.217 37.5656 42.3552 37.5788L42.5262 37.5953C42.6644 37.6086 42.7744 37.7385 42.7713 37.8849ZM44.3173 39.6607C44.3162 39.7122 44.2764 39.7498 44.2276 39.7451L44.1683 39.7394C44.1196 39.7347 44.0797 39.7722 44.0786 39.8238L44.0752 39.9833C44.0741 40.0349 44.0342 40.0724 43.9855 40.0677C43.9368 40.063 43.8987 40.018 43.8998 39.9664L43.9032 39.8069C43.9043 39.7554 43.8661 39.7103 43.8174 39.7056L43.7581 39.6999C43.7093 39.6953 43.6712 39.6502 43.6723 39.5986C43.6734 39.547 43.7133 39.5095 43.762 39.5142L43.8214 39.5199C43.8692 39.5245 43.91 39.4871 43.9111 39.4355L43.9145 39.276C43.9156 39.2244 43.9554 39.1869 44.0042 39.1916C44.0529 39.1963 44.091 39.2413 44.0899 39.2929L44.0865 39.4523C44.0854 39.5039 44.1235 39.549 44.1722 39.5536L44.2316 39.5594C44.2803 39.564 44.3184 39.6091 44.3173 39.6607ZM45.789 24.8526C45.7879 24.9041 45.748 24.9417 45.6993 24.937L45.6399 24.9313C45.5912 24.9266 45.5513 24.9641 45.5502 25.0157L45.5468 25.1752C45.5457 25.2268 45.5058 25.2643 45.4571 25.2596C45.4084 25.2549 45.3703 25.2099 45.3714 25.1583L45.3748 24.9988C45.3759 24.9473 45.3378 24.9022 45.289 24.8975L45.2297 24.8918C45.1809 24.8871 45.1428 24.8421 45.1439 24.7905C45.145 24.7389 45.1849 24.7014 45.2336 24.7061L45.293 24.7118C45.3417 24.7165 45.3816 24.679 45.3827 24.6274L45.3861 24.4679C45.3872 24.4163 45.427 24.3788 45.4758 24.3835C45.5245 24.3882 45.5626 24.4332 45.5615 24.4848L45.5581 24.6442C45.557 24.6958 45.5951 24.7409 45.6439 24.7455L45.7032 24.7513C45.752 24.7559 45.7901 24.801 45.789 24.8526ZM50.6122 31.164C50.6086 31.2473 50.6033 31.3305 50.5971 31.4135C50.5782 31.2999 50.5566 31.1869 50.5333 31.0728L50.6122 31.164ZM48.5516 36.4883C48.5527 36.4367 48.5926 36.3992 48.6413 36.4039L48.7007 36.4096C48.7494 36.4143 48.7893 36.3768 48.7904 36.3252L48.7938 36.1657C48.7949 36.1141 48.8347 36.0766 48.8835 36.0813C48.9322 36.0859 48.9703 36.131 48.9692 36.1826L48.9658 36.342C48.9647 36.3936 49.0028 36.4386 49.0515 36.4433L49.1109 36.449C49.1596 36.4537 49.1977 36.4988 49.1966 36.5503C49.1955 36.6019 49.1557 36.6395 49.107 36.6348L49.0476 36.6291C48.9989 36.6244 48.959 36.6619 48.9579 36.7135L48.9545 36.873C48.9534 36.9246 48.9135 36.9621 48.8648 36.9574C48.8161 36.9527 48.778 36.9077 48.7791 36.8561L48.7825 36.6966C48.7836 36.645 48.7455 36.6 48.6967 36.5953L48.6374 36.5896C48.5886 36.5849 48.5505 36.5399 48.5516 36.4883ZM46.9205 34.5812C46.9222 34.5005 46.9856 34.4418 47.0609 34.449L47.1548 34.458C47.231 34.4654 47.2935 34.4056 47.2952 34.3259L47.3006 34.0745C47.3023 33.9938 47.3648 33.9349 47.441 33.9423C47.5172 33.9496 47.577 34.0211 47.5753 34.1009L47.5699 34.3523C47.5682 34.4329 47.6279 34.5035 47.7041 34.5109L47.7981 34.5199C47.8743 34.5272 47.934 34.5978 47.9323 34.6785C47.9306 34.7592 47.8672 34.8179 47.7919 34.8107L47.6979 34.8017C47.6217 34.7943 47.5592 34.8532 47.5575 34.9339L47.5522 35.1853C47.5504 35.2659 47.487 35.3247 47.4117 35.3175C47.3364 35.3102 47.2758 35.2386 47.2775 35.1589L47.2828 34.9075C47.2846 34.8268 47.2248 34.7562 47.1486 34.7489L47.0547 34.7398C46.9785 34.7325 46.9188 34.661 46.9205 34.5812ZM39.0547 26.0982C39.0562 26.0278 39.1115 25.9767 39.1771 25.983L39.2586 25.9909C39.325 25.9973 39.3794 25.9451 39.3809 25.8757L39.3856 25.6562C39.3871 25.5859 39.4423 25.5348 39.5079 25.5411C39.5734 25.5474 39.6263 25.6098 39.6248 25.6792L39.6201 25.8987C39.6186 25.9691 39.6715 26.0306 39.737 26.0369L39.8185 26.0447C39.885 26.0511 39.9369 26.1134 39.9355 26.1829C39.934 26.2532 39.8787 26.3043 39.8131 26.298L39.7316 26.2902C39.6652 26.2838 39.6108 26.3359 39.6093 26.4053L39.6046 26.6248C39.6031 26.6952 39.5479 26.7462 39.4823 26.7399C39.4168 26.7336 39.3639 26.6712 39.3654 26.6018L39.3701 26.3823C39.3716 26.3119 39.3187 26.2504 39.2532 26.2441L39.1717 26.2363C39.1052 26.2299 39.0533 26.1676 39.0547 26.0982ZM37.3322 25.7727C37.3333 25.7211 37.3731 25.6836 37.4219 25.6883L37.4812 25.694C37.5299 25.6987 37.5698 25.6612 37.5709 25.6096L37.5743 25.4501C37.5754 25.3985 37.6153 25.361 37.664 25.3657C37.7127 25.3704 37.7508 25.4154 37.7497 25.467L37.7463 25.6264C37.7452 25.678 37.7834 25.7231 37.8321 25.7277L37.8914 25.7335C37.9402 25.7381 37.9783 25.7832 37.9772 25.8348C37.9761 25.8863 37.9362 25.9239 37.8875 25.9192L37.8281 25.9135C37.7794 25.9088 37.7395 25.9463 37.7384 25.9979L37.735 26.1574C37.7339 26.209 37.6941 26.2465 37.6453 26.2418C37.5966 26.2371 37.5585 26.1921 37.5596 26.1405L37.563 25.981C37.5641 25.9295 37.526 25.8844 37.4773 25.8797L37.4179 25.874C37.3692 25.8694 37.3311 25.8243 37.3322 25.7727ZM30.9149 38.1416C30.9138 38.1932 30.8739 38.2308 30.8252 38.2261L30.7658 38.2204C30.7171 38.2157 30.6772 38.2532 30.6761 38.3048L30.6727 38.4643C30.6716 38.5159 30.6317 38.5534 30.583 38.5487C30.5343 38.544 30.4962 38.499 30.4973 38.4474L30.5007 38.2879C30.5018 38.2363 30.4637 38.1913 30.4149 38.1866L30.3556 38.1809C30.3068 38.1762 30.2687 38.1312 30.2698 38.0796C30.2709 38.028 30.3108 37.9905 30.3595 37.9952L30.4189 38.0009C30.4676 38.0056 30.5075 37.9681 30.5086 37.9165L30.512 37.757C30.5131 37.7054 30.5529 37.6679 30.6017 37.6726C30.6504 37.6772 30.6885 37.7223 30.6874 37.7739L30.684 37.9333C30.6829 37.9849 30.721 38.0299 30.7698 38.0346L30.8291 38.0403C30.8778 38.045 30.916 38.09 30.9149 38.1416ZM31.6469 29.9552L31.5876 29.9495C31.5388 29.9448 31.499 29.9823 31.4979 30.0339L31.4945 30.1934C31.4934 30.245 31.4535 30.2825 31.4048 30.2778C31.356 30.2731 31.3179 30.2281 31.319 30.1765L31.3224 30.017C31.3235 29.9654 31.2854 29.9204 31.2367 29.9157L31.1773 29.91C31.1286 29.9053 31.0905 29.8603 31.0916 29.8087C31.0927 29.7571 31.1326 29.7196 31.1813 29.7243L31.2406 29.73C31.2894 29.7347 31.3292 29.6971 31.3303 29.6455L31.3337 29.4861C31.3348 29.4345 31.3747 29.3969 31.4234 29.4016C31.4722 29.4063 31.5103 29.4513 31.5092 29.5029L31.5058 29.6624C31.5047 29.714 31.5428 29.759 31.5915 29.7637L31.6509 29.7694C31.6996 29.7741 31.7377 29.8191 31.7366 29.8707C31.7355 29.9223 31.6957 29.9598 31.6469 29.9552ZM32.5158 40.1756C32.5141 40.2562 32.4516 40.3151 32.3754 40.3078L32.2814 40.2987C32.2052 40.2914 32.1427 40.3503 32.141 40.4309L32.1356 40.6823C32.1339 40.763 32.0714 40.8218 31.9952 40.8145C31.919 40.8072 31.8593 40.7366 31.861 40.6559L31.8663 40.4045C31.8681 40.3238 31.8074 40.2531 31.7321 40.2459L31.6382 40.2369C31.562 40.2295 31.5022 40.1589 31.5039 40.0783C31.5057 39.9976 31.5682 39.9387 31.6444 39.9461L31.7383 39.9551C31.8145 39.9624 31.877 39.9036 31.8787 39.8229L31.8841 39.5715C31.8858 39.4908 31.9483 39.432 32.0245 39.4393C32.1007 39.4466 32.1605 39.5172 32.1588 39.5979L32.1534 39.8493C32.1517 39.93 32.2123 40.0007 32.2876 40.0079L32.3816 40.017C32.4578 40.0243 32.5175 40.0958 32.5158 40.1756Z" fill="#0029FE"/>
<path style="mix-blend-mode:screen" d="M75.2736 58.8277C75.2736 58.8277 43.5183 63.6807 5.73486 54.9668C5.73486 54.9668 30.278 58.935 41.177 54.9668C59.7189 48.2102 70.4027 51.2399 75.2736 58.8277Z" fill="url(#paint3_linear_426_7720)"/>
<path style="mix-blend-mode:screen" d="M23.3891 19.602C24.4386 19.5484 25.3536 20.3528 25.4074 21.3984C25.4613 22.4441 24.6539 23.3557 23.6044 23.4093C22.5548 23.4629 21.6399 22.6586 21.586 21.6129C21.5322 20.5672 22.3396 19.6556 23.3891 19.602Z" fill="url(#paint4_radial_426_7720)"/>
<path d="M23.6314 20.9695C23.9274 20.9695 24.1696 21.184 24.1965 21.4789C24.2234 21.7738 23.9812 22.0151 23.7121 22.042C23.443 22.0688 23.1739 21.8275 23.147 21.5325C23.147 21.2376 23.3623 20.9963 23.6583 20.9695H23.6314Z" fill="#FFFFAB"/>
<path style="mix-blend-mode:screen" d="M25.9994 11.3976C27.049 11.3439 27.964 12.1483 28.0178 13.1939C28.0716 14.2396 27.2643 15.1512 26.2147 15.2048C25.1652 15.2585 24.2502 14.4541 24.1964 13.4084C24.1426 12.3628 24.9499 11.4512 25.9994 11.3976Z" fill="url(#paint5_radial_426_7720)"/>
<path d="M26.2149 12.765C26.5109 12.765 26.7531 12.9795 26.78 13.2476C26.78 13.5426 26.5647 13.7839 26.2956 13.8107C26.0265 13.8375 25.7574 13.5962 25.7305 13.3281C25.7305 13.0331 25.9458 12.7918 26.2418 12.765H26.2149Z" fill="#FFFFAB"/>
<path style="mix-blend-mode:screen" d="M24.4653 34.9116C25.5148 34.858 26.4298 35.6623 26.4836 36.708C26.5374 37.7537 25.7301 38.6653 24.6806 38.7189C23.631 38.7725 22.716 37.9681 22.6622 36.9225C22.6084 35.8768 23.4157 34.9652 24.4653 34.9116Z" fill="url(#paint6_radial_426_7720)"/>
<path d="M24.6807 36.2791C24.9768 36.2791 25.219 36.4935 25.2459 36.7885C25.2728 37.0834 25.0306 37.3247 24.7346 37.3515C24.4385 37.3515 24.1963 37.137 24.1694 36.8421C24.1694 36.5472 24.3847 36.3059 24.6538 36.2791H24.6807Z" fill="#FFFFAB"/>
<path style="mix-blend-mode:screen" d="M15.4501 7.21491C18.4104 7.02723 20.94 9.27942 21.1284 12.2287C21.3168 15.178 19.0562 17.6984 16.096 17.886C13.1357 18.0737 10.6061 15.8215 10.4177 12.8722C10.2293 9.92291 12.4899 7.40259 15.4501 7.21491Z" fill="url(#paint7_radial_426_7720)"/>
<path d="M16.096 11.049C16.9033 10.9954 17.6299 11.6121 17.6569 12.4432C17.7107 13.2476 17.0917 13.9715 16.2575 13.9983C15.4501 14.052 14.7235 13.4353 14.6966 12.6041C14.6428 11.7998 15.2618 11.0758 16.096 11.049Z" fill="#FFFFAB"/>
<path style="mix-blend-mode:screen" d="M30.7358 47.9958C32.1352 47.9154 33.3731 48.9879 33.4538 50.3821C33.5346 51.7763 32.4581 53.0096 31.0587 53.0901C29.6593 53.1705 28.4214 52.098 28.3407 50.7038C28.26 49.3096 29.3364 48.0763 30.7358 47.9958Z" fill="url(#paint8_radial_426_7720)"/>
<path d="M31.0585 49.8191C31.4622 49.8191 31.7851 50.0872 31.812 50.4894C31.839 50.8916 31.5429 51.2133 31.1393 51.2401C30.7356 51.2401 30.4127 50.972 30.3857 50.5698C30.3857 50.1676 30.6549 49.8459 31.0585 49.8191Z" fill="#FFFFAB"/>
<path style="mix-blend-mode:screen" d="M7.99571 54.7256C8.69541 54.672 9.31437 55.2082 9.34128 55.9322C9.36819 56.6561 8.85687 57.2459 8.13027 57.2727C7.40367 57.2996 6.81162 56.7901 6.78471 56.0662C6.75779 55.3423 7.26911 54.7524 7.99571 54.7256Z" fill="url(#paint9_radial_426_7720)"/>
<path d="M8.15741 55.6372C8.34579 55.6372 8.50725 55.7713 8.53417 55.959C8.53417 56.1466 8.39961 56.3343 8.21123 56.3343C8.02285 56.3343 7.83447 56.2003 7.83447 56.0126C7.83447 55.8249 7.96903 55.6372 8.15741 55.6372Z" fill="#FFFFAB"/>
<path style="mix-blend-mode:screen" d="M43.9759 32.8202C44.6756 32.7666 45.2946 33.3028 45.3215 34.0268C45.3753 34.7239 44.8371 35.3405 44.1105 35.3674C43.3839 35.3942 42.7919 34.8847 42.7649 34.1608C42.7111 33.4637 43.2493 32.847 43.9759 32.8202Z" fill="url(#paint10_radial_426_7720)"/>
<path d="M44.1374 33.7318C44.3258 33.7318 44.4872 33.8659 44.5141 34.0536C44.5141 34.2412 44.3796 34.4021 44.1912 34.4289C44.0028 34.4289 43.8414 34.2949 43.8145 34.1072C43.8145 33.9195 43.949 33.7318 44.1374 33.7318Z" fill="#FFFFAB"/>
<path style="mix-blend-mode:screen" d="M26.2149 52.8488C26.7531 52.822 27.1837 53.2242 27.2375 53.7336C27.2644 54.2698 26.8608 54.6988 26.3495 54.7524C25.8112 54.7793 25.3806 54.3771 25.3268 53.8677C25.273 53.3582 25.7036 52.9024 26.2149 52.8488Z" fill="url(#paint11_radial_426_7720)"/>
<path d="M26.3228 53.519C26.4573 53.519 26.5919 53.6263 26.5919 53.7604C26.5919 53.8944 26.4842 54.0285 26.3497 54.0285C26.2151 54.0285 26.0806 53.9212 26.0806 53.7872C26.0806 53.6531 26.1882 53.519 26.3228 53.519Z" fill="#FFFFAB"/>
<path style="mix-blend-mode:screen" d="M41.043 52.0712C42.1464 52.0176 43.0883 52.8487 43.169 53.948C43.2228 55.0473 42.3886 55.9857 41.2852 56.0662C40.1818 56.1466 39.2399 55.2886 39.1592 54.1893C39.1054 53.09 39.9396 52.1516 41.043 52.0712Z" fill="url(#paint12_radial_426_7720)"/>
<path d="M41.2852 53.4922C41.5813 53.4922 41.8504 53.7067 41.8773 54.0016C41.8773 54.2965 41.662 54.5647 41.366 54.5915C41.07 54.5915 40.8008 54.377 40.7739 54.082C40.7739 53.7871 40.9892 53.519 41.2852 53.4922Z" fill="#FFFFAB"/>
<path d="M73.5245 60.7582C73.1746 59.6321 76.2156 54.4306 76.9691 54.4574C77.7227 54.4574 77.0499 57.8625 76.5924 58.6668C76.1349 59.4712 73.686 61.3212 73.5245 60.7582Z" fill="white"/>
<path style="mix-blend-mode:screen" d="M6.73096 10.7808C6.73096 10.7808 50.4618 -5.97661 73.7132 6.65179C73.7132 6.65179 75.7584 11.4511 76.7003 18.9853C76.7003 18.9853 69.3535 27.5114 55.4404 28.4767C43.4649 29.281 31.8123 14.0519 21.6936 12.175C11.6019 10.2982 6.73096 10.7808 6.73096 10.7808Z" fill="url(#paint13_linear_426_7720)"/>
<path d="M5.84286 13.8105C5.00861 13.9446 2.90953 20.4331 3.01717 21.5056C3.15173 22.578 5.68139 19.1997 6.05815 17.4033C6.43491 15.6069 5.81595 13.8105 5.81595 13.8105H5.84286Z" fill="white"/>
<path d="M6.19267 12.7649C5.17004 12.3627 6.9731 9.60107 8.53395 8.90396C10.0948 8.20685 13.9162 7.42931 14.3468 8.12642C14.7774 8.85034 7.34986 13.1939 6.19267 12.7649Z" fill="white"/>
<defs>
<radialGradient id="paint0_radial_426_7720" cx="0" cy="0" r="1" gradientUnits="userSpaceOnUse" gradientTransform="translate(40.5112 81.5014) scale(38.6955 48.7362)">
<stop stop-color="#008CCA"/>
<stop offset="1" stop-color="#003BF1"/>
</radialGradient>
<linearGradient id="paint1_linear_426_7720" x1="40.0202" y1="65.2625" x2="40.0202" y2="1.31618" gradientUnits="userSpaceOnUse">
<stop stop-color="#92FFF1"/>
<stop offset="1" stop-color="#0098FF"/>
</linearGradient>
<linearGradient id="paint2_linear_426_7720" x1="40.02" y1="64.1365" x2="40.02" y2="1.98659" gradientUnits="userSpaceOnUse">
<stop stop-color="#00EFF1"/>
<stop offset="1" stop-color="#0098FF"/>
</linearGradient>
<linearGradient id="paint3_linear_426_7720" x1="75.2736" y1="55.7175" x2="5.73486" y2="55.7175" gradientUnits="userSpaceOnUse">
<stop stop-color="#40FF79"/>
<stop offset="0.1" stop-color="#3BEE71"/>
<stop offset="0.29" stop-color="#31C45D"/>
<stop offset="0.56" stop-color="#20803D"/>
<stop offset="0.88" stop-color="#092411"/>
<stop offset="1"/>
</linearGradient>
<radialGradient id="paint4_radial_426_7720" cx="0" cy="0" r="1" gradientUnits="userSpaceOnUse" gradientTransform="translate(23.4665 21.4805) rotate(-93.4326) scale(1.90367 1.91067)">
<stop stop-color="#00B359"/>
<stop offset="0.13" stop-color="#009148"/>
<stop offset="0.34" stop-color="#005D2E"/>
<stop offset="0.54" stop-color="#00351A"/>
<stop offset="0.73" stop-color="#00170B"/>
<stop offset="0.89" stop-color="#000603"/>
<stop offset="1"/>
</radialGradient>
<radialGradient id="paint5_radial_426_7720" cx="0" cy="0" r="1" gradientUnits="userSpaceOnUse" gradientTransform="translate(26.0758 13.294) rotate(-93.4326) scale(1.90367 1.91068)">
<stop stop-color="#00B359"/>
<stop offset="0.13" stop-color="#009148"/>
<stop offset="0.34" stop-color="#005D2E"/>
<stop offset="0.54" stop-color="#00351A"/>
<stop offset="0.73" stop-color="#00170B"/>
<stop offset="0.89" stop-color="#000603"/>
<stop offset="1"/>
</radialGradient>
<radialGradient id="paint6_radial_426_7720" cx="0" cy="0" r="1" gradientUnits="userSpaceOnUse" gradientTransform="translate(24.5205 36.8083) rotate(-93.4326) scale(1.90367 1.91068)">
<stop stop-color="#00B359"/>
<stop offset="0.13" stop-color="#009148"/>
<stop offset="0.34" stop-color="#005D2E"/>
<stop offset="0.54" stop-color="#00351A"/>
<stop offset="0.73" stop-color="#00170B"/>
<stop offset="0.89" stop-color="#000603"/>
<stop offset="1"/>
</radialGradient>
<radialGradient id="paint7_radial_426_7720" cx="0" cy="0" r="1" gradientUnits="userSpaceOnUse" gradientTransform="translate(15.7035 12.5149) rotate(-93.4326) scale(5.33564 5.35527)">
<stop stop-color="#00B359"/>
<stop offset="0.13" stop-color="#009148"/>
<stop offset="0.34" stop-color="#005D2E"/>
<stop offset="0.54" stop-color="#00351A"/>
<stop offset="0.73" stop-color="#00170B"/>
<stop offset="0.89" stop-color="#000603"/>
<stop offset="1"/>
</radialGradient>
<radialGradient id="paint8_radial_426_7720" cx="0" cy="0" r="1" gradientUnits="userSpaceOnUse" gradientTransform="translate(30.842 50.5065) rotate(-93.4326) scale(2.54717 2.55654)">
<stop stop-color="#00B359"/>
<stop offset="0.13" stop-color="#009148"/>
<stop offset="0.34" stop-color="#005D2E"/>
<stop offset="0.54" stop-color="#00351A"/>
<stop offset="0.73" stop-color="#00170B"/>
<stop offset="0.89" stop-color="#000603"/>
<stop offset="1"/>
</radialGradient>
<radialGradient id="paint9_radial_426_7720" cx="0" cy="0" r="1" gradientUnits="userSpaceOnUse" gradientTransform="translate(8.03882 55.9737) rotate(-93.4326) scale(1.28699 1.29172)">
<stop stop-color="#00B359"/>
<stop offset="0.13" stop-color="#009148"/>
<stop offset="0.34" stop-color="#005D2E"/>
<stop offset="0.54" stop-color="#00351A"/>
<stop offset="0.73" stop-color="#00170B"/>
<stop offset="0.89" stop-color="#000603"/>
<stop offset="1"/>
</radialGradient>
<radialGradient id="paint10_radial_426_7720" cx="0" cy="0" r="1" gradientUnits="userSpaceOnUse" gradientTransform="translate(44.0107 34.09) rotate(-93.4326) scale(1.28699 1.29172)">
<stop stop-color="#00B359"/>
<stop offset="0.13" stop-color="#009148"/>
<stop offset="0.34" stop-color="#005D2E"/>
<stop offset="0.54" stop-color="#00351A"/>
<stop offset="0.73" stop-color="#00170B"/>
<stop offset="0.89" stop-color="#000603"/>
<stop offset="1"/>
</radialGradient>
<radialGradient id="paint11_radial_426_7720" cx="0" cy="0" r="1" gradientUnits="userSpaceOnUse" gradientTransform="translate(26.2403 53.7888) rotate(-93.4327) scale(0.938427 0.941883)">
<stop stop-color="#00B359"/>
<stop offset="0.13" stop-color="#009148"/>
<stop offset="0.34" stop-color="#005D2E"/>
<stop offset="0.54" stop-color="#00351A"/>
<stop offset="0.73" stop-color="#00170B"/>
<stop offset="0.89" stop-color="#000603"/>
<stop offset="1"/>
</radialGradient>
<radialGradient id="paint12_radial_426_7720" cx="0" cy="0" r="1" gradientUnits="userSpaceOnUse" gradientTransform="translate(41.1363 54.0299) rotate(-93.4327) scale(1.98411 1.99141)">
<stop stop-color="#00B359"/>
<stop offset="0.13" stop-color="#009148"/>
<stop offset="0.34" stop-color="#005D2E"/>
<stop offset="0.54" stop-color="#00351A"/>
<stop offset="0.73" stop-color="#00170B"/>
<stop offset="0.89" stop-color="#000603"/>
<stop offset="1"/>
</radialGradient>
<linearGradient id="paint13_linear_426_7720" x1="6.73096" y1="15.2316" x2="76.7003" y2="15.2316" gradientUnits="userSpaceOnUse">
<stop stop-color="#7ED140"/>
<stop offset="0.11" stop-color="#74C03B"/>
<stop offset="0.34" stop-color="#5A962E"/>
<stop offset="0.65" stop-color="#315219"/>
<stop offset="1"/>
</linearGradient>
</defs>
</svg>
