<svg width="71" height="66" viewBox="0 0 71 66" fill="none" xmlns="http://www.w3.org/2000/svg">
<path opacity="0.1" d="M64.7882 57.7452C64.6652 57.8777 64.5217 58.0103 64.3577 58.1326C52.2238 67.9924 18.794 67.6457 4.14919 58.7852C3.38057 58.3264 2.86816 57.8369 2.6222 57.3271C-2.57367 46.5701 0.244602 14.1972 8.49446 7.19238C17.349 -0.312025 51.3937 -3.70736 62.3286 5.83629C70.353 12.8309 74.1756 47.9364 64.7882 57.7452Z" fill="#3C3E48"/>
<path d="M62.8021 56.5434C62.6866 56.6686 62.5517 56.7938 62.3977 56.9093C50.9966 66.2209 19.5857 65.8935 5.82536 57.5256C5.10316 57.0923 4.6217 56.6301 4.39059 56.1486C-0.491479 45.9897 2.15659 15.4165 9.9082 8.80118C18.2279 1.71399 50.2166 -1.49258 60.4911 7.52048C68.0308 14.1262 71.6226 47.28 62.8021 56.5434Z" fill="url(#paint0_linear_89_2977)"/>
<path d="M4.38961 54.1392C9.09836 63.9418 53.1044 64.7218 62.8011 54.534C71.6216 45.2705 68.0299 12.1168 60.4901 5.51103C50.2156 -3.50202 18.227 -0.295457 9.90722 6.80136C2.15561 13.4071 -0.492456 43.9802 4.38961 54.1392Z" fill="url(#paint1_radial_89_2977)"/>
<g style="mix-blend-mode:multiply" filter="url(#filter0_f_89_2977)">
<path d="M44.7331 29.1717L46.9088 20.0887C47.0436 20.1025 47.1771 20.13 47.3169 20.13C49.5538 20.13 51.3737 18.3064 51.3737 16.065C51.3737 13.8236 49.5538 12 47.3169 12C45.0789 12 43.2602 13.8236 43.2602 16.065C43.2602 17.7285 44.265 19.1581 45.6955 19.7873L43.5423 28.7728C42.299 28.42 40.9909 28.2174 39.6353 28.2174C35.792 28.2174 32.3057 29.7458 29.7268 32.2174L22.3185 23.8698C23.6679 22.6665 24.5354 20.933 24.5354 18.9843C24.5354 15.3633 21.5958 12.4178 17.9821 12.4178C14.3685 12.4178 11.4289 15.3633 11.4289 18.9843C11.4289 22.6065 14.3685 25.5508 17.9821 25.5508C19.2004 25.5508 20.3276 25.1943 21.3049 24.6115L28.8605 33.1254C26.6786 35.6094 25.3368 38.8452 25.2831 42.3948L18.59 42.9151C18.5938 42.8576 18.61 42.8038 18.61 42.7463C18.61 39.8145 16.2309 37.4305 13.305 37.4305C10.3779 37.4305 8 39.8145 8 42.7463C8 45.6768 10.3779 48.062 13.305 48.062C15.7291 48.062 17.755 46.4148 18.3866 44.1847L25.328 43.6406C25.861 51.0939 32.066 57 39.6403 57C47.5616 57 54 50.5436 54 42.6075C53.9975 36.4737 50.1392 31.238 44.7331 29.1717ZM44.5084 16.0637C44.5084 14.5115 45.7691 13.2495 47.3169 13.2495C48.8648 13.2495 50.1255 14.5115 50.1255 16.0637C50.1255 17.6159 48.8648 18.878 47.3169 18.878C45.7691 18.878 44.5084 17.6147 44.5084 16.0637ZM12.6784 18.983C12.6784 16.0525 15.0575 13.6673 17.9834 13.6673C20.9093 13.6673 23.2884 16.0525 23.2884 18.983C23.2884 21.9136 20.9093 24.2988 17.9834 24.2988C15.0575 24.2988 12.6784 21.9148 12.6784 18.983ZM13.3025 46.8125C11.0657 46.8125 9.24574 44.9902 9.24574 42.7475C9.24574 40.5074 11.0657 38.6826 13.3025 38.6826C15.5393 38.6826 17.3593 40.5074 17.3593 42.7475C17.3593 44.9902 15.5393 46.8125 13.3025 46.8125ZM39.6378 55.4503C32.5603 55.4503 26.8234 49.6993 26.8234 42.6075C26.8234 35.5181 32.5603 29.7671 39.6378 29.7671C46.7128 29.7671 52.4497 35.5181 52.4497 42.6075C52.4484 49.7005 46.7128 55.4503 39.6378 55.4503ZM39.5641 41.5868H38.3871V38.9602H39.5641C40.2519 38.9602 40.73 39.0015 40.9946 39.0903C41.2618 39.1729 41.469 39.3204 41.6063 39.5181C41.7461 39.7182 41.821 39.9621 41.821 40.2435C41.821 40.5174 41.7436 40.7588 41.5963 40.9665C41.4452 41.1741 41.2243 41.3304 40.931 41.433C40.6376 41.5355 40.1808 41.5868 39.5641 41.5868ZM41.8072 43.8395C41.9558 44.0646 42.0294 44.3335 42.0294 44.65C42.0294 45.0264 41.9221 45.3491 41.7124 45.6143C41.5027 45.8795 41.2493 46.0571 40.9497 46.1446C40.6476 46.2259 40.2694 46.2747 39.8163 46.2747H39.0312C38.7703 46.2747 38.6092 46.2572 38.5506 46.2284C38.4919 46.2022 38.4482 46.1509 38.4233 46.0796C38.4008 46.0233 38.3896 45.8332 38.3871 45.5005V43.1703H39.7763C40.3855 43.1703 40.8374 43.2266 41.1369 43.3417C41.4365 43.453 41.6562 43.6193 41.8072 43.8395ZM39.6378 31.1179C33.3042 31.1179 28.169 36.2636 28.169 42.61C28.169 48.9563 33.3042 54.102 39.6378 54.102C45.9688 54.102 51.1041 48.9601 51.1041 42.61C51.1028 36.2636 45.9688 31.1179 39.6378 31.1179ZM44.3012 46.5148C43.9604 46.9989 43.4749 47.3654 42.8458 47.6168C42.6161 47.7068 42.3465 47.7831 42.0406 47.8444V49.7668H40.2195V47.9932C40.1758 47.9932 40.1321 47.9957 40.0859 47.9957H39.0524V49.7668H37.2312V47.9957H34.4539V46.5086H34.8783C35.1641 46.5086 35.3514 46.4823 35.4512 46.4323C35.5511 46.3823 35.6222 46.3147 35.6634 46.2247C35.7046 46.1346 35.7246 45.9345 35.7246 45.6193V39.6119C35.7246 39.2942 35.7046 39.0891 35.6634 39.0015C35.6222 38.9164 35.5511 38.8452 35.4512 38.7939C35.3514 38.7426 35.1641 38.7163 34.8783 38.7163H34.4539V37.2279H37.2312V35.4556H39.0524V37.2267H40.2207V35.4556H42.0419V37.3567C42.3103 37.4105 42.5562 37.4718 42.7634 37.5569C43.2976 37.777 43.7095 38.0897 43.9966 38.4974C44.28 38.9077 44.4235 39.358 44.4235 39.8458C44.4235 40.1997 44.3474 40.5399 44.1964 40.8576C44.0478 41.1778 43.8256 41.4568 43.541 41.7032C43.2552 41.9471 42.8782 42.1497 42.4076 42.3085C42.9119 42.4361 43.2976 42.5799 43.5635 42.7338C43.9517 42.9514 44.2538 43.2541 44.4797 43.6431C44.7069 44.0333 44.8205 44.4636 44.8205 44.9426C44.8205 45.508 44.6445 46.0358 44.3012 46.5148ZM47.3169 17.9924C46.2534 17.9924 45.3934 17.1294 45.3934 16.0637C45.3934 14.9993 46.2534 14.1363 47.3169 14.1363C48.3804 14.1363 49.243 14.9993 49.243 16.0637C49.243 17.1281 48.3804 17.9924 47.3169 17.9924ZM21.7793 18.983C21.7793 21.0843 20.0804 22.7878 17.9834 22.7878C15.8864 22.7878 14.185 21.0843 14.185 18.983C14.185 16.8805 15.8864 15.1782 17.9834 15.1782C20.0804 15.1782 21.7793 16.8817 21.7793 18.983ZM15.8502 42.7475C15.8502 44.1597 14.7093 45.3029 13.3025 45.3029C11.8957 45.3029 10.7524 44.1572 10.7524 42.7475C10.7524 41.3379 11.8957 40.1947 13.3025 40.1947C14.7093 40.1947 15.8502 41.3379 15.8502 42.7475Z" fill="#CED6FF"/>
</g>
<path d="M46.7331 27.1717L48.9088 18.0887C49.0436 18.1025 49.1771 18.13 49.3169 18.13C51.5538 18.13 53.3737 16.3064 53.3737 14.065C53.3737 11.8236 51.5538 10 49.3169 10C47.0789 10 45.2602 11.8236 45.2602 14.065C45.2602 15.7285 46.265 17.1581 47.6955 17.7873L45.5423 26.7728C44.299 26.42 42.9909 26.2174 41.6353 26.2174C37.792 26.2174 34.3057 27.7458 31.7268 30.2174L24.3185 21.8698C25.6679 20.6665 26.5354 18.933 26.5354 16.9843C26.5354 13.3633 23.5958 10.4178 19.9821 10.4178C16.3685 10.4178 13.4289 13.3633 13.4289 16.9843C13.4289 20.6065 16.3685 23.5508 19.9821 23.5508C21.2004 23.5508 22.3276 23.1943 23.3049 22.6115L30.8605 31.1254C28.6786 33.6094 27.3368 36.8452 27.2831 40.3948L20.59 40.9151C20.5938 40.8576 20.61 40.8038 20.61 40.7463C20.61 37.8145 18.2309 35.4305 15.305 35.4305C12.3779 35.4305 10 37.8145 10 40.7463C10 43.6768 12.3779 46.062 15.305 46.062C17.7291 46.062 19.755 44.4148 20.3866 42.1847L27.328 41.6406C27.861 49.0939 34.066 55 41.6403 55C49.5616 55 56 48.5436 56 40.6075C55.9975 34.4737 52.1392 29.238 46.7331 27.1717ZM46.5084 14.0637C46.5084 12.5115 47.7691 11.2495 49.3169 11.2495C50.8648 11.2495 52.1255 12.5115 52.1255 14.0637C52.1255 15.6159 50.8648 16.878 49.3169 16.878C47.7691 16.878 46.5084 15.6147 46.5084 14.0637ZM14.6784 16.983C14.6784 14.0525 17.0575 11.6673 19.9834 11.6673C22.9093 11.6673 25.2884 14.0525 25.2884 16.983C25.2884 19.9136 22.9093 22.2988 19.9834 22.2988C17.0575 22.2988 14.6784 19.9148 14.6784 16.983ZM15.3025 44.8125C13.0657 44.8125 11.2457 42.9902 11.2457 40.7475C11.2457 38.5074 13.0657 36.6826 15.3025 36.6826C17.5393 36.6826 19.3593 38.5074 19.3593 40.7475C19.3593 42.9902 17.5393 44.8125 15.3025 44.8125ZM41.6378 53.4503C34.5603 53.4503 28.8234 47.6993 28.8234 40.6075C28.8234 33.5181 34.5603 27.7671 41.6378 27.7671C48.7128 27.7671 54.4497 33.5181 54.4497 40.6075C54.4484 47.7005 48.7128 53.4503 41.6378 53.4503ZM41.6378 29.1179C35.3042 29.1179 30.169 34.2636 30.169 40.61C30.169 46.9563 35.3042 52.102 41.6378 52.102C47.9688 52.102 53.1041 46.9601 53.1041 40.61C53.1028 34.2636 47.9688 29.1179 41.6378 29.1179ZM49.3169 15.9924C48.2534 15.9924 47.3934 15.1294 47.3934 14.0637C47.3934 12.9993 48.2534 12.1363 49.3169 12.1363C50.3804 12.1363 51.243 12.9993 51.243 14.0637C51.243 15.1281 50.3804 15.9924 49.3169 15.9924ZM23.7793 16.983C23.7793 19.0843 22.0804 20.7878 19.9834 20.7878C17.8864 20.7878 16.185 19.0843 16.185 16.983C16.185 14.8805 17.8864 13.1782 19.9834 13.1782C22.0804 13.1782 23.7793 14.8817 23.7793 16.983ZM17.8502 40.7475C17.8502 42.1597 16.7093 43.3029 15.3025 43.3029C13.8957 43.3029 12.7524 42.1572 12.7524 40.7475C12.7524 39.3379 13.8957 38.1947 15.3025 38.1947C16.7093 38.1947 17.8502 39.3379 17.8502 40.7475Z" fill="white"/>
<path style="mix-blend-mode:screen" d="M9.5 8.50001C9.5 8.50001 22.5 -4 57 4C57 4 68 14 65.0251 20.7287C65.0251 20.7287 66 23 62 25C60.993 17.767 48 9.70387 39 7.70346C30.5 7.70346 8 10.5 8 10.5L9.5 8.50001Z" fill="url(#paint2_linear_89_2977)"/>
<path d="M7 11.5377C7 11.5377 8.47329 8.51406 11.8821 6.89633C15.3005 5.27861 25.0165 3.65125 25.575 4.06531C26.1239 4.47937 20.8373 6.38598 18.1026 7.39706C15.3679 8.40814 8.39625 12.3176 7 11.5473V11.5377Z" fill="white"/>
<path style="mix-blend-mode:screen" d="M62.311 54.1143C62.311 54.1143 58.4997 58.1686 50.9997 59.5C47.276 60.161 42.9295 61.0465 42.4997 60.5C42.0791 59.9561 47.6056 55.4426 50.51 55.1869C53.4144 54.9312 61.1692 52.9944 62.3135 54.1051L62.311 54.1143Z" fill="url(#paint3_linear_89_2977)"/>
<path d="M7.35415 13.0096C6.65121 13.1156 4.89867 18.5658 5.0046 19.4613C5.11052 20.3568 7.21934 17.5258 7.54674 16.014C7.87414 14.5118 7.35415 13 7.35415 13V13.0096Z" fill="white"/>
<path style="mix-blend-mode:screen" d="M63.4504 52.0184C64.1597 51.9703 66.3521 46.6817 66.3198 45.7805C66.2875 44.8793 63.9542 47.5284 63.5042 49.0083C63.055 50.4787 63.4496 52.028 63.4496 52.028L63.4504 52.0184Z" fill="url(#paint4_linear_89_2977)"/>
<path d="M60.0316 54.7213C59.6223 53.6892 63.3061 48.9776 64.246 49.0001C65.1859 49.0225 64.3521 52.0963 63.776 52.8142C63.2151 53.5322 60.2287 55.2373 60.0316 54.7213Z" fill="white"/>
<defs>
<filter id="filter0_f_89_2977" x="7" y="11" width="48" height="47" filterUnits="userSpaceOnUse" color-interpolation-filters="sRGB">
<feFlood flood-opacity="0" result="BackgroundImageFix"/>
<feBlend mode="normal" in="SourceGraphic" in2="BackgroundImageFix" result="shape"/>
<feGaussianBlur stdDeviation="0.5" result="effect1_foregroundBlur_89_2977"/>
</filter>
<linearGradient id="paint0_linear_89_2977" x1="38.1862" y1="63.8469" x2="38.1862" y2="2.00905" gradientUnits="userSpaceOnUse">
<stop stop-color="#C26900"/>
<stop offset="1" stop-color="#923D00"/>
</linearGradient>
<radialGradient id="paint1_radial_89_2977" cx="0" cy="0" r="1" gradientUnits="userSpaceOnUse" gradientTransform="translate(35.7326 57.4711) scale(25.3388 75.8087)">
<stop stop-color="#FFBD00"/>
<stop offset="1" stop-color="#FF772C"/>
</radialGradient>
<linearGradient id="paint2_linear_89_2977" x1="11.6763" y1="13.8808" x2="57.9957" y2="13.8808" gradientUnits="userSpaceOnUse">
<stop stop-color="#7ED140"/>
<stop offset="0.11" stop-color="#74C03B"/>
<stop offset="0.34" stop-color="#5A962E"/>
<stop offset="0.65" stop-color="#315219"/>
<stop offset="1"/>
</linearGradient>
<linearGradient id="paint3_linear_89_2977" x1="59.6271" y1="56.9107" x2="45.5873" y2="53.0805" gradientUnits="userSpaceOnUse">
<stop stop-color="#7ED140"/>
<stop offset="0.11" stop-color="#74C03B"/>
<stop offset="0.34" stop-color="#5A962E"/>
<stop offset="0.65" stop-color="#315219"/>
<stop offset="1"/>
</linearGradient>
<linearGradient id="paint4_linear_89_2977" x1="65.8257" y1="48.6257" x2="63.757" y2="48.4559" gradientUnits="userSpaceOnUse">
<stop stop-color="#7ED140"/>
<stop offset="0.11" stop-color="#74C03B"/>
<stop offset="0.34" stop-color="#5A962E"/>
<stop offset="0.65" stop-color="#315219"/>
<stop offset="1"/>
</linearGradient>
</defs>
</svg>
