<svg width="71" height="66" viewBox="0 0 71 66" fill="none" xmlns="http://www.w3.org/2000/svg">
<path opacity="0.1" d="M64.7882 57.7452C64.6652 57.8777 64.5217 58.0103 64.3577 58.1326C52.2238 67.9924 18.794 67.6457 4.14919 58.7852C3.38057 58.3264 2.86816 57.8369 2.6222 57.3271C-2.57367 46.5701 0.244602 14.1972 8.49446 7.19238C17.349 -0.312025 51.3937 -3.70736 62.3286 5.83629C70.353 12.8309 74.1756 47.9364 64.7882 57.7452Z" fill="#3C3E48"/>
<path d="M62.8021 56.5434C62.6866 56.6686 62.5517 56.7938 62.3977 56.9093C50.9966 66.2209 19.5857 65.8935 5.82536 57.5256C5.10316 57.0923 4.6217 56.6301 4.39059 56.1486C-0.491479 45.9897 2.15659 15.4166 9.9082 8.80121C18.2279 1.71402 50.2166 -1.49255 60.4911 7.52051C68.0308 14.1262 71.6226 47.28 62.8021 56.5434Z" fill="url(#paint0_linear_445_7230)"/>
<path d="M4.38962 54.1392C9.09836 63.9418 53.1044 64.7218 62.8011 54.534C71.6216 45.2705 68.0299 12.1168 60.4901 5.51103C50.2156 -3.50202 18.227 -0.295457 9.90722 6.80136C2.15561 13.4071 -0.492456 43.9802 4.38962 54.1392Z" fill="url(#paint1_radial_445_7230)"/>
<g style="mix-blend-mode:multiply" filter="url(#filter0_f_445_7230)">
<path d="M42.3426 28.066C42.3314 30.3055 41.9067 32.4479 41.1413 34.4191H48.7227V37.1419H39.8058C39.2204 38.1148 38.5447 39.0263 37.7907 39.8647H44.2305V42.5875H34.6971C31.884 44.5332 28.4836 45.6733 24.8242 45.6733C24.4337 45.6733 24.0443 45.6586 23.6562 45.6324V48.9406H43.2024L49.2617 57L56 48.0375V28.066H42.3426Z" fill="#CED6FF"/>
<path d="M24.8242 13C16.6501 13 10 19.7178 10 27.9752V46.0191L17.2822 40.8696C19.5615 42.2339 22.1497 42.9505 24.8242 42.9505C32.9983 42.9505 39.6484 36.2326 39.6484 27.9752C39.6484 19.7179 32.9983 13 24.8242 13ZM26.1719 35.6898H23.4766V32.967H26.1719V35.6898ZM26.1719 28.1958V30.2442H23.4766V25.7063H24.8242C25.5673 25.7063 26.1719 25.0956 26.1719 24.3449C26.1719 23.5942 25.5673 22.9835 24.8242 22.9835C24.0811 22.9835 23.4766 23.5942 23.4766 24.3449H20.7812C20.7812 22.0929 22.5949 20.2607 24.8242 20.2607C27.0535 20.2607 28.8672 22.0929 28.8672 24.3449C28.8672 26.1198 27.7406 27.6339 26.1719 28.1958Z" fill="#CED6FF"/>
</g>
<path d="M44.3426 26.066C44.3314 28.3055 43.9067 30.4479 43.1413 32.4191H50.7227V35.1419H41.8058C41.2204 36.1148 40.5447 37.0263 39.7907 37.8647H46.2305V40.5875H36.6971C33.884 42.5332 30.4836 43.6733 26.8242 43.6733C26.4337 43.6733 26.0443 43.6586 25.6562 43.6324V46.9406H45.2024L51.2617 55L58 46.0375V26.066H44.3426Z" fill="white"/>
<path d="M26.8242 11C18.6501 11 12 17.7178 12 25.9752V44.0191L19.2822 38.8696C21.5615 40.2339 24.1497 40.9505 26.8242 40.9505C34.9983 40.9505 41.6484 34.2326 41.6484 25.9752C41.6484 17.7179 34.9983 11 26.8242 11ZM28.1719 33.6898H25.4766V30.967H28.1719V33.6898ZM28.1719 26.1958V28.2442H25.4766V23.7063H26.8242C27.5673 23.7063 28.1719 23.0956 28.1719 22.3449C28.1719 21.5942 27.5673 20.9835 26.8242 20.9835C26.0811 20.9835 25.4766 21.5942 25.4766 22.3449H22.7812C22.7812 20.0929 24.5949 18.2607 26.8242 18.2607C29.0535 18.2607 30.8672 20.0929 30.8672 22.3449C30.8672 24.1198 29.7406 25.6339 28.1719 26.1958Z" fill="white"/>
<path style="mix-blend-mode:screen" d="M9.5 8.50001C9.5 8.50001 22.5 -4 57 4C57 4 68 14 65.0251 20.7287C65.0251 20.7287 66 23 62 25C60.993 17.767 48 9.70387 39 7.70346C30.5 7.70346 8 10.5 8 10.5L9.5 8.50001Z" fill="url(#paint2_linear_445_7230)"/>
<path d="M7 11.5377C7 11.5377 8.47329 8.51406 11.8821 6.89633C15.3005 5.27861 25.0165 3.65125 25.575 4.06531C26.1239 4.47937 20.8373 6.38598 18.1026 7.39706C15.3679 8.40814 8.39625 12.3176 7 11.5473V11.5377Z" fill="white"/>
<path style="mix-blend-mode:screen" d="M62.311 54.1143C62.311 54.1143 58.4997 58.1686 50.9997 59.5C47.276 60.161 42.9295 61.0465 42.4997 60.5C42.0791 59.9561 47.6056 55.4426 50.51 55.1869C53.4144 54.9312 61.1692 52.9944 62.3135 54.1051L62.311 54.1143Z" fill="url(#paint3_linear_445_7230)"/>
<path d="M7.35415 13.0096C6.65121 13.1156 4.89867 18.5658 5.0046 19.4613C5.11052 20.3568 7.21934 17.5258 7.54674 16.014C7.87414 14.5118 7.35415 13 7.35415 13V13.0096Z" fill="white"/>
<path style="mix-blend-mode:screen" d="M63.4504 52.0183C64.1597 51.9703 66.3521 46.6817 66.3198 45.7805C66.2875 44.8793 63.9542 47.5283 63.5042 49.0083C63.055 50.4787 63.4496 52.0279 63.4496 52.0279L63.4504 52.0183Z" fill="url(#paint4_linear_445_7230)"/>
<path d="M60.0316 54.7213C59.6223 53.6892 63.3061 48.9776 64.246 49.0001C65.1859 49.0225 64.3521 52.0963 63.776 52.8142C63.2151 53.5322 60.2287 55.2373 60.0316 54.7213Z" fill="white"/>
<defs>
<filter id="filter0_f_445_7230" x="9" y="12" width="48" height="46" filterUnits="userSpaceOnUse" color-interpolation-filters="sRGB">
<feFlood flood-opacity="0" result="BackgroundImageFix"/>
<feBlend mode="normal" in="SourceGraphic" in2="BackgroundImageFix" result="shape"/>
<feGaussianBlur stdDeviation="0.5" result="effect1_foregroundBlur_445_7230"/>
</filter>
<linearGradient id="paint0_linear_445_7230" x1="38.1862" y1="63.847" x2="38.1862" y2="2.00908" gradientUnits="userSpaceOnUse">
<stop stop-color="#C26900"/>
<stop offset="1" stop-color="#923D00"/>
</linearGradient>
<radialGradient id="paint1_radial_445_7230" cx="0" cy="0" r="1" gradientUnits="userSpaceOnUse" gradientTransform="translate(35.7326 57.4711) scale(25.3388 75.8087)">
<stop stop-color="#FFBD00"/>
<stop offset="1" stop-color="#FF772C"/>
</radialGradient>
<linearGradient id="paint2_linear_445_7230" x1="11.6763" y1="13.8808" x2="57.9957" y2="13.8808" gradientUnits="userSpaceOnUse">
<stop stop-color="#7ED140"/>
<stop offset="0.11" stop-color="#74C03B"/>
<stop offset="0.34" stop-color="#5A962E"/>
<stop offset="0.65" stop-color="#315219"/>
<stop offset="1"/>
</linearGradient>
<linearGradient id="paint3_linear_445_7230" x1="59.6271" y1="56.9107" x2="45.5873" y2="53.0805" gradientUnits="userSpaceOnUse">
<stop stop-color="#7ED140"/>
<stop offset="0.11" stop-color="#74C03B"/>
<stop offset="0.34" stop-color="#5A962E"/>
<stop offset="0.65" stop-color="#315219"/>
<stop offset="1"/>
</linearGradient>
<linearGradient id="paint4_linear_445_7230" x1="65.8257" y1="48.6256" x2="63.757" y2="48.4559" gradientUnits="userSpaceOnUse">
<stop stop-color="#7ED140"/>
<stop offset="0.11" stop-color="#74C03B"/>
<stop offset="0.34" stop-color="#5A962E"/>
<stop offset="0.65" stop-color="#315219"/>
<stop offset="1"/>
</linearGradient>
</defs>
</svg>
