<svg width="1923" height="183" viewBox="0 0 1923 183" fill="none" xmlns="http://www.w3.org/2000/svg">
<g clip-path="url(#clip0_521_10175)">
<path fill-rule="evenodd" clip-rule="evenodd" d="M0 0L260.821 8.72165L266.496 13.8093H332.779H414.421L497.685 6.89691L506.389 8.8299L532.245 7.79381L592.277 12.9278L1155.75 0L1167.06 6.89691H1171.65L1207.77 13.8093L1820.42 0H1920V63.6186H0V0Z" fill="url(#paint0_linear_521_10175)"/>
<g style="mix-blend-mode:soft-light">
<path fill-rule="evenodd" clip-rule="evenodd" d="M1155.75 0L1052.27 14.1495L881.855 7.77835L1155.75 0Z" fill="#B0A2C1"/>
</g>
<g style="mix-blend-mode:soft-light">
<path fill-rule="evenodd" clip-rule="evenodd" d="M1171.65 6.89697L1177.05 8.8145L1155.75 21.1856L1061.78 31.8093L1167.06 6.89697H1171.65Z" fill="#B0A2C1"/>
</g>
<g style="mix-blend-mode:soft-light">
<path fill-rule="evenodd" clip-rule="evenodd" d="M1207.77 13.8092L1149.55 23.8917L1093.78 29.9845L1375.66 12.1237L1566.17 13.3453L1539.39 6.32471L1207.77 13.8092Z" fill="#B0A2C1"/>
</g>
<g style="mix-blend-mode:soft-light">
<path fill-rule="evenodd" clip-rule="evenodd" d="M532.245 7.79395L588.01 12.5568L671.893 22.1445L444.607 25.3919L532.245 7.79395Z" fill="#B0A2C1"/>
</g>
<g style="mix-blend-mode:soft-light">
<path fill-rule="evenodd" clip-rule="evenodd" d="M497.686 6.89697L490.88 10.098L444.118 19.5619L353.963 18.866L414.422 13.8093L497.686 6.89697Z" fill="#B0A2C1"/>
</g>
<g style="mix-blend-mode:soft-light">
<path fill-rule="evenodd" clip-rule="evenodd" d="M260.821 8.72165L141.013 13.6546L70.6133 8.72165L114.624 6.47938L0 3.40206V0L260.821 8.72165Z" fill="#B0A2C1"/>
</g>
<g style="mix-blend-mode:soft-light">
<path fill-rule="evenodd" clip-rule="evenodd" d="M266.495 13.8091L114.623 18.8658L347.754 18.7266L295.124 13.8091H266.495Z" fill="#B0A2C1"/>
</g>
<g style="mix-blend-mode:soft-light">
<path fill-rule="evenodd" clip-rule="evenodd" d="M1200.51 25.7476L1012.8 39.5568L878.314 56.7682L1239.36 47.1496L1215.98 36.6342L1087.64 37.8094L1203.24 26.5981L1200.51 25.7476Z" fill="#B0A2C1"/>
</g>
<path fill-rule="evenodd" clip-rule="evenodd" d="M1920 39.5566L1473.77 49.3298L1469.99 53.0412L1127.23 46.2989L1122.92 49.3298L907.883 50.5051L887.403 43.8556L866.389 39.5566L772.075 50.103L744.043 46.2989H731.648H311.808L0 39.5566V158.474H1920V39.5566Z" fill="url(#paint1_linear_521_10175)"/>
<g style="mix-blend-mode:multiply" opacity="0.5">
<path fill-rule="evenodd" clip-rule="evenodd" d="M960.001 54.7267L792.363 59.6133L442.966 54.7267L368.939 47.1494L744.043 46.2989L772.075 50.103L866.39 39.5566L907.883 50.5051L960.001 54.7267Z" fill="#C8F4FF"/>
</g>
<path fill-rule="evenodd" clip-rule="evenodd" d="M866.39 39.5566L850.326 41.3505L866.39 54.7267L887.596 53.5669L873.387 47.1494L893.526 53.335L960.001 54.7267L907.884 50.5051L887.404 43.8556L866.39 39.5566Z" fill="#77337B"/>
<path fill-rule="evenodd" clip-rule="evenodd" d="M855.296 54.7266L847.019 50.9844L807.701 54.7266H855.296Z" fill="#77337B"/>
<path fill-rule="evenodd" clip-rule="evenodd" d="M772.075 50.103L803.712 54.7267L757.782 50.9844L773.419 54.7267L763.542 56.1648L708.459 46.2988H744.043L772.075 50.103Z" fill="#77337B"/>
<path fill-rule="evenodd" clip-rule="evenodd" d="M1127.23 46.2988L1185.02 54.7267L1383.27 51.3401L1127.23 46.2988Z" fill="#77337B"/>
<g style="mix-blend-mode:multiply" opacity="0.5">
<path fill-rule="evenodd" clip-rule="evenodd" d="M832.362 64.701V67.8247L803.711 68.6443L725.311 71.3041L730.132 73.9793V75.8968L503.274 70.9639L275.476 70.2989L45.9512 39.5566L672.895 58.5773L832.362 64.701Z" fill="#C8F4FF"/>
</g>
<path fill-rule="evenodd" clip-rule="evenodd" d="M551.125 46.8245L680.64 50.1647L832.362 64.7008L800.832 67.5307L356.693 65.8296L201.898 46.0049L551.125 46.8245Z" fill="#77337B"/>
<g style="mix-blend-mode:multiply" opacity="0.5">
<path fill-rule="evenodd" clip-rule="evenodd" d="M1920 73.9793L1830.38 68.7989L1566.04 67.0979L1545.62 63.6185L1500.2 65.0566L1413.29 57.3247V55.7628L1404.71 54.1855L1469.99 53.0412L1473.77 49.3298L1541.48 56.768L1920 47.1494V73.9793Z" fill="#C8F4FF"/>
</g>
<path fill-rule="evenodd" clip-rule="evenodd" d="M726.25 71.4275L663.53 68.644L606.229 69.8038L596.906 70.9018L730.133 73.9791L726.25 71.4275Z" fill="#77337B"/>
<path fill-rule="evenodd" clip-rule="evenodd" d="M1473.77 49.3298L1541.48 56.768L1733.12 53.5669L1558.21 59.1494L1569.66 62.4278L1920 68.7989V39.5566L1473.77 49.3298Z" fill="#77337B"/>
<path fill-rule="evenodd" clip-rule="evenodd" d="M1470 53.041L1545.62 61.6235H1499.22L1413.29 55.7627L1470 53.041Z" fill="#77337B"/>
<path fill-rule="evenodd" clip-rule="evenodd" d="M1404.71 54.1854L1448.17 52.608L1391.21 51.4946L1404.71 54.1854Z" fill="#77337B"/>
<g style="mix-blend-mode:multiply" opacity="0.5">
<path fill-rule="evenodd" clip-rule="evenodd" d="M1122.92 49.3298L1176.55 55.7627L1361.75 71.1029L1579.22 88.8091L1619.37 92.2731L1569.77 96.5566L1435.07 104.072L1667.41 127.067L1830.38 111.216L1567.81 103.407L1556.39 100.144L1583.79 96.4792L1636.16 92.5823L1567.81 84.3091L1127.23 46.2988L1122.92 49.3298Z" fill="#C8F4FF"/>
</g>
<g style="mix-blend-mode:multiply" opacity="0.5">
<path fill-rule="evenodd" clip-rule="evenodd" d="M1567.81 103.407L1568.85 117.309L1667.41 127.067L1830.38 111.216L1567.81 103.407Z" fill="#C8F4FF"/>
</g>
<g style="mix-blend-mode:multiply" opacity="0.5">
<path fill-rule="evenodd" clip-rule="evenodd" d="M1619.37 92.2731L1617.13 93.9896L1636.16 92.5824L1567.81 84.3092L1486.44 77.1958V81.2474L1619.37 92.2731Z" fill="#C8F4FF"/>
</g>
<g style="mix-blend-mode:multiply" opacity="0.5">
<path fill-rule="evenodd" clip-rule="evenodd" d="M1529.21 98.8298L1530.88 113.551L1555.24 115.964L1556.31 101.088L1556.39 100.144L1569.77 98.3505V96.5566L1529.21 98.8298Z" fill="#C8F4FF"/>
</g>
<g style="mix-blend-mode:multiply" opacity="0.5">
<path fill-rule="evenodd" clip-rule="evenodd" d="M1395.97 73.8864V69.4792L1341.27 64.7627V69.4173L1395.97 73.8864Z" fill="#C8F4FF"/>
</g>
<g style="mix-blend-mode:multiply" opacity="0.5">
<path fill-rule="evenodd" clip-rule="evenodd" d="M1334.68 68.8608L1332.88 64.0361L1322.94 63.1855L1325.4 68.1031L1334.68 68.8608Z" fill="#C8F4FF"/>
</g>
<g style="mix-blend-mode:multiply" opacity="0.5">
<path fill-rule="evenodd" clip-rule="evenodd" d="M1569.66 62.4277L1566.04 67.0978L1719.94 68.0875V64.7628L1569.66 62.4277Z" fill="#C8F4FF"/>
</g>
<g style="mix-blend-mode:multiply" opacity="0.5">
<path fill-rule="evenodd" clip-rule="evenodd" d="M1541.48 56.768V61.1443L1545.62 61.6237V63.6185L1556.39 65.4587L1558.21 59.1495L1603.58 57.6959V55.7319L1541.48 56.768Z" fill="#C8F4FF"/>
</g>
<g style="mix-blend-mode:multiply" opacity="0.5">
<path fill-rule="evenodd" clip-rule="evenodd" d="M1831.81 68.8763L1833.2 67.2217L1920 68.799V73.9794L1831.81 68.8763Z" fill="#C8F4FF"/>
</g>
<g style="mix-blend-mode:multiply" opacity="0.5">
<path fill-rule="evenodd" clip-rule="evenodd" d="M1499.22 61.6235L1500.2 65.0565L1545.62 63.6184V61.6235H1499.22Z" fill="#C8F4FF"/>
</g>
<g style="mix-blend-mode:multiply" opacity="0.5">
<path fill-rule="evenodd" clip-rule="evenodd" d="M763.542 56.1647V57.7265L680.641 50.1647L635.691 49.0049L638.145 46.0049L710.294 46.2987L763.542 56.1647Z" fill="#C8F4FF"/>
</g>
<g style="mix-blend-mode:multiply" opacity="0.5">
<path fill-rule="evenodd" clip-rule="evenodd" d="M773.419 54.7266L773.739 59.0875L784.661 59.505L786.795 53.3504L757.781 50.9844L773.419 54.7266Z" fill="#C8F4FF"/>
</g>
<g style="mix-blend-mode:multiply" opacity="0.5">
<path fill-rule="evenodd" clip-rule="evenodd" d="M839.636 54.7269V58.2372L802.239 59.5052L803.711 54.7269L772.287 50.9846L850.324 41.3506L866.388 54.7269V57.3867L854.164 57.8197L852.97 54.7887L839.636 54.7269Z" fill="#C8F4FF"/>
</g>
<g style="mix-blend-mode:multiply" opacity="0.5">
<path fill-rule="evenodd" clip-rule="evenodd" d="M356.693 65.83L358.315 69.8042L275.477 70.299L50.752 41.4897L201.899 46.0052L356.693 65.83Z" fill="#C8F4FF"/>
</g>
<g style="mix-blend-mode:multiply" opacity="0.5">
<path fill-rule="evenodd" clip-rule="evenodd" d="M1388.05 183L1395.6 150.046L1356.78 140.505L1105.13 118.531L1083.07 119.103L962.133 145.732L966.506 183H1000.4L967.637 153.464L965.439 148.484L1081.64 121.005L1102.16 119.459L1351.91 143.18L1368.51 155.227L1363.75 183H1388.05Z" fill="#C8F4FF"/>
</g>
<g style="mix-blend-mode:multiply">
<path fill-rule="evenodd" clip-rule="evenodd" d="M0 131.165L362.517 133.454L815.915 127.067L1012.14 117.155L1367.08 106.84L1429.12 108.433L1255.64 101.211L907.2 101.985L0 107.66V131.165Z" fill="#C8F4FF"/>
</g>
<path fill-rule="evenodd" clip-rule="evenodd" d="M1920 108.433L1483.58 121.964L1474.11 124.732L1398.38 129.418L1316.8 125.505L739.797 158.474H1920V108.433Z" fill="#1B082E"/>
<path fill-rule="evenodd" clip-rule="evenodd" d="M0 133.454L239.616 141.912L309.205 137.876L321.131 141.912L405.717 140.799L672.128 137.691L909.717 141.912H1029.59L955.029 150.51L903.104 147.526L668.672 138.99L315.584 143.428L255.744 141.974L234.624 142.624L0 135.371V133.454Z" fill="#1B082E"/>
<path fill-rule="evenodd" clip-rule="evenodd" d="M926.891 158.474L989.141 146.582L1033.86 150.51L1328.13 133.454L1425.94 136.84L1793.26 133.454H1888.77H1920V158.474H926.891Z" fill="#77337B"/>
<g style="mix-blend-mode:multiply" opacity="0.5">
<path fill-rule="evenodd" clip-rule="evenodd" d="M1483.58 121.964L1480.98 136.33L1474.41 136.392L1474.11 124.732L1483.58 121.964Z" fill="#8097FF"/>
</g>
<g style="mix-blend-mode:multiply" opacity="0.5">
<path fill-rule="evenodd" clip-rule="evenodd" d="M1398.38 129.418L1397.72 135.866L1328.13 133.454L1316.8 125.505L1398.38 129.418Z" fill="#8097FF"/>
</g>
<g style="mix-blend-mode:multiply" opacity="0.5">
<path fill-rule="evenodd" clip-rule="evenodd" d="M1737.11 133.964L1734.36 114.186L1790.04 112.469V133.454L1795.43 112.299L1805.38 111.99L1798.23 133.454L1737.11 133.964Z" fill="#8097FF"/>
</g>
<g style="mix-blend-mode:multiply" opacity="0.5">
<path fill-rule="evenodd" clip-rule="evenodd" d="M1857.64 133.964L1866.28 110.103L1880.68 108.433L1876.31 133.454L1857.64 133.964Z" fill="#8097FF"/>
</g>
<g style="mix-blend-mode:multiply" opacity="0.5">
<path fill-rule="evenodd" clip-rule="evenodd" d="M926.891 158.474L916.16 148.392L821.568 144.557L821.995 140.351L1029.59 141.912L1033.86 150.51L989.142 146.583L926.891 158.474Z" fill="#8097FF"/>
</g>
<g style="mix-blend-mode:multiply" opacity="0.5">
<path fill-rule="evenodd" clip-rule="evenodd" d="M1078.19 147.943V139.144L1091.63 138.371V147.155L1078.19 147.943Z" fill="#8097FF"/>
</g>
<g style="mix-blend-mode:multiply" opacity="0.5">
<path fill-rule="evenodd" clip-rule="evenodd" d="M1098.94 146.737L1102.95 137.722L1110.91 137.273L1104.06 146.737H1098.94Z" fill="#8097FF"/>
</g>
<path fill-rule="evenodd" clip-rule="evenodd" d="M1920 137.273L1413.29 138.371L1688.81 143.15L1292.07 140.351L1164.78 142.918L1078.19 147.944L1239.02 150.511L1026.84 149.413L989.142 146.583L918.4 150.511L926.891 158.474H1920V137.273Z" fill="#77337B"/>
<g style="mix-blend-mode:soft-light" opacity="0.5">
<path fill-rule="evenodd" clip-rule="evenodd" d="M1667.09 142.778L1734.36 140.149H1849.39L1809.26 141.464H1920V145.964L1667.09 142.778Z" fill="#E7BDE5"/>
</g>
<g style="mix-blend-mode:soft-light" opacity="0.5">
<path fill-rule="evenodd" clip-rule="evenodd" d="M1727.89 144.851H1754.96V145.964L1719.94 146.799L1727.89 144.851Z" fill="#E7BDE5"/>
</g>
<g style="mix-blend-mode:soft-light" opacity="0.5">
<path fill-rule="evenodd" clip-rule="evenodd" d="M1357.59 134.474L1367.08 132.34L1380.52 135.263L1357.59 134.474Z" fill="#E7BDE5"/>
</g>
<g style="mix-blend-mode:soft-light" opacity="0.5">
<path fill-rule="evenodd" clip-rule="evenodd" d="M1398.38 137.274L1403.31 136.392L1412.07 136.825L1409.77 138.109L1398.38 137.274Z" fill="#E7BDE5"/>
</g>
<g style="mix-blend-mode:soft-light" opacity="0.5">
<path fill-rule="evenodd" clip-rule="evenodd" d="M1416.51 137.243V136.841L1419.69 136.624L1420.48 136.933L1416.51 137.243Z" fill="#E7BDE5"/>
</g>
<g style="mix-blend-mode:soft-light" opacity="0.5">
<path fill-rule="evenodd" clip-rule="evenodd" d="M1199.87 144.062H1267.69L1310.02 140.351L1211.37 141.974L1199.87 144.062Z" fill="#E7BDE5"/>
</g>
<g style="mix-blend-mode:soft-light" opacity="0.5">
<path fill-rule="evenodd" clip-rule="evenodd" d="M1302.38 143.088L1323.95 140.583H1345.11L1308.46 143.088H1302.38Z" fill="#E7BDE5"/>
</g>
<g style="mix-blend-mode:soft-light" opacity="0.5">
<path fill-rule="evenodd" clip-rule="evenodd" d="M1029.59 158.474L1117.59 149.413L1239.02 150.511L1179.99 149.413L1212.72 146.737L1779.35 147.866L1801.98 158.474H1029.59Z" fill="#E7BDE5"/>
</g>
<g style="mix-blend-mode:soft-light" opacity="0.5">
<path fill-rule="evenodd" clip-rule="evenodd" d="M1647.1 105.773L1659.18 98.3042L1801.04 100.144L1830.38 108.433L1647.1 105.773Z" fill="#E7BDE5"/>
<path fill-rule="evenodd" clip-rule="evenodd" d="M1812.14 101.288L1780.1 94.9328L1790.04 93.9895L1806.7 96.0153L1800.23 93.9895L1840.38 91.7163L1870.57 99.0153L1812.14 101.288Z" fill="#E7BDE5"/>
<path fill-rule="evenodd" clip-rule="evenodd" d="M1831.81 106.562L1828.14 104.892H1851.99L1858.86 105.727L1831.81 106.562Z" fill="#E7BDE5"/>
<path fill-rule="evenodd" clip-rule="evenodd" d="M1495.61 100.701L1478.46 95.5208L1529.21 92.7373L1554.58 96.7115L1542.76 93.2476L1545.62 92.7373L1571.86 96.3868L1495.61 100.701Z" fill="#E7BDE5"/>
<path fill-rule="evenodd" clip-rule="evenodd" d="M1523.75 90.541L1536.19 92.2266H1541.48L1529.22 90.541H1523.75Z" fill="#E7BDE5"/>
<path fill-rule="evenodd" clip-rule="evenodd" d="M1544.3 82.2833L1606.63 80.1338H1679.19L1691.26 82.2833L1610.67 83.2111L1617.79 83.6596H1664.23L1669.67 84.6802L1596.01 87.7266L1544.3 82.2833Z" fill="#E7BDE5"/>
<path fill-rule="evenodd" clip-rule="evenodd" d="M1608.66 89.2577L1620.56 88.6392L1632.79 89.2577L1616.43 90.1856L1608.66 89.2577Z" fill="#E7BDE5"/>
<path fill-rule="evenodd" clip-rule="evenodd" d="M1628.35 105.216L1639.17 98.3041L1622.78 96.5566L1586.82 103.376L1628.35 105.216Z" fill="#E7BDE5"/>
<path fill-rule="evenodd" clip-rule="evenodd" d="M1328.13 125.505L1303.34 117.325L1341.27 115.887L1389.76 129L1328.13 125.505Z" fill="#E7BDE5"/>
<path fill-rule="evenodd" clip-rule="evenodd" d="M1369.36 121.964L1338.41 112.964L1352.94 111.495L1383.27 118.531L1369.36 121.964Z" fill="#E7BDE5"/>
<path fill-rule="evenodd" clip-rule="evenodd" d="M1403.11 123.356L1398.38 121.021H1405.23L1412.07 122.443L1403.11 123.356Z" fill="#E7BDE5"/>
<path fill-rule="evenodd" clip-rule="evenodd" d="M1371.78 101.598L1389.76 96.7114L1415.53 97.5465L1404.71 103.407L1371.78 101.598Z" fill="#E7BDE5"/>
<path fill-rule="evenodd" clip-rule="evenodd" d="M827.52 130.686L866.389 135.866L1007.59 129L994.24 127.562L924.714 129.943L918.4 129.077L1025.36 124.67L991.53 120.278L827.52 130.686Z" fill="#E7BDE5"/>
<path fill-rule="evenodd" clip-rule="evenodd" d="M879.85 139.67L937.172 137.273L964.458 139.67L929.066 140.35L879.85 139.67Z" fill="#E7BDE5"/>
<path fill-rule="evenodd" clip-rule="evenodd" d="M867.988 139.67L876.223 138.804H868.799H856.682L867.988 139.67Z" fill="#E7BDE5"/>
<path fill-rule="evenodd" clip-rule="evenodd" d="M457.023 158.474L751.039 152.598L800.831 154.98L742.954 158.474H457.023Z" fill="#E7BDE5"/>
<path fill-rule="evenodd" clip-rule="evenodd" d="M473.492 141.449L577.514 149.412L669.93 147.387L571.711 140.351L473.492 141.449Z" fill="#E7BDE5"/>
<path fill-rule="evenodd" clip-rule="evenodd" d="M513.387 150.511L530.347 149.413L570.219 152.598H537.579L513.387 150.511Z" fill="#E7BDE5"/>
<path fill-rule="evenodd" clip-rule="evenodd" d="M563.711 130.624L590.036 133.454H669.93L642.794 129.51L563.711 130.624Z" fill="#E7BDE5"/>
<path fill-rule="evenodd" clip-rule="evenodd" d="M847.017 65.5669L978.004 66.0308L965.481 70.1287L811.113 73.8865L847.017 65.5669Z" fill="#E7BDE5"/>
<path fill-rule="evenodd" clip-rule="evenodd" d="M865.706 73.8864L863.424 75.1081L908.693 75.8968L923.37 71.8916L865.706 73.8864Z" fill="#E7BDE5"/>
<path fill-rule="evenodd" clip-rule="evenodd" d="M997.076 50.5208L991.529 51.9898L1065.19 54.7269L1054.72 49.7012L997.076 50.5208Z" fill="#E7BDE5"/>
<path fill-rule="evenodd" clip-rule="evenodd" d="M1065.19 49.5928L1068.31 50.9845L1117.59 52.2062L1112.17 49.701L1065.19 49.5928Z" fill="#E7BDE5"/>
<path fill-rule="evenodd" clip-rule="evenodd" d="M1071.55 54.2784L1068.31 53.2578H1102.38L1104.7 54.2784H1071.55Z" fill="#E7BDE5"/>
</g>
<g style="mix-blend-mode:screen" opacity="0.55">
<path style="mix-blend-mode:screen" fill-rule="evenodd" clip-rule="evenodd" d="M1001.66 79.2061L1007.96 58.9948L1014.57 57.7422L1006.06 79.1752L1001.66 79.2061Z" fill="url(#paint2_radial_521_10175)"/>
<path style="mix-blend-mode:screen" fill-rule="evenodd" clip-rule="evenodd" d="M1025.09 66.1392L1031.51 58.268L1037.27 57.0928L1027.39 66.1546L1025.09 66.1392Z" fill="url(#paint3_radial_521_10175)"/>
<path style="mix-blend-mode:screen" fill-rule="evenodd" clip-rule="evenodd" d="M1786.5 121.701L1795.11 94.0515L1804.16 92.335L1792.49 121.67L1786.5 121.701Z" fill="url(#paint4_radial_521_10175)"/>
<path style="mix-blend-mode:screen" fill-rule="evenodd" clip-rule="evenodd" d="M1799.19 110.057L1807.98 99.2787L1815.87 97.6704L1802.35 110.057H1799.19Z" fill="url(#paint5_radial_521_10175)"/>
<path style="mix-blend-mode:screen" fill-rule="evenodd" clip-rule="evenodd" d="M921.3 67.0979L918.676 60.6185L919.828 58.7319L922.878 67.0979H921.3Z" fill="url(#paint6_radial_521_10175)"/>
<path style="mix-blend-mode:screen" opacity="0.55" fill-rule="evenodd" clip-rule="evenodd" d="M928.213 77.3507L907.072 57.2476L898.154 57.7269L921.216 79.8558L928.213 77.3507Z" fill="url(#paint7_radial_521_10175)"/>
<path style="mix-blend-mode:screen" opacity="0.55" fill-rule="evenodd" clip-rule="evenodd" d="M880.703 73.9179L870.634 64.3457L866.389 64.5777L877.354 75.1086L880.703 73.9179Z" fill="url(#paint8_radial_521_10175)"/>
<path style="mix-blend-mode:screen" fill-rule="evenodd" clip-rule="evenodd" d="M1457.07 81.7115L1466.07 75.1548L1469.95 74.9229L1458.11 83.0723L1457.07 81.7115Z" fill="url(#paint9_radial_521_10175)"/>
<path style="mix-blend-mode:screen" opacity="0.55" fill-rule="evenodd" clip-rule="evenodd" d="M1444.67 94.4847L1464 62.8455L1457.3 55.4229L1435.9 90.0466L1444.67 94.4847Z" fill="url(#paint10_radial_521_10175)"/>
<path style="mix-blend-mode:screen" opacity="0.55" fill-rule="evenodd" clip-rule="evenodd" d="M1439.23 74.4896L1448.43 59.4123L1445.25 55.8711L1435.05 72.3711L1439.23 74.4896Z" fill="url(#paint11_radial_521_10175)"/>
<path style="mix-blend-mode:screen" fill-rule="evenodd" clip-rule="evenodd" d="M1591.34 125.165L1603.6 104.567L1612.05 101.552L1595.37 127.578L1591.34 125.165Z" fill="url(#paint12_radial_521_10175)"/>
<path style="mix-blend-mode:screen" opacity="0.55" fill-rule="evenodd" clip-rule="evenodd" d="M1575.02 157.809L1621.87 81.0773L1605.63 63.0928L1553.77 147.046L1575.02 157.809Z" fill="url(#paint13_radial_521_10175)"/>
<path style="mix-blend-mode:screen" opacity="0.55" fill-rule="evenodd" clip-rule="evenodd" d="M1561.79 109.33L1584.11 72.7736L1576.38 64.2065L1551.66 104.196L1561.79 109.33Z" fill="url(#paint14_radial_521_10175)"/>
<path style="mix-blend-mode:screen" opacity="0.55" fill-rule="evenodd" clip-rule="evenodd" d="M1340.78 31.2218L1326.97 18.1084L1321.17 18.4177L1336.21 32.8455L1340.78 31.2218Z" fill="url(#paint15_radial_521_10175)"/>
</g>
</g>
<rect y="60" width="1923" height="121" fill="url(#paint16_linear_521_10175)"/>
<defs>
<linearGradient id="paint0_linear_521_10175" x1="960" y1="63.6186" x2="960" y2="0" gradientUnits="userSpaceOnUse">
<stop stop-color="#864582"/>
<stop offset="0.27" stop-color="#814990"/>
<stop offset="0.79" stop-color="#7454B6"/>
<stop offset="1" stop-color="#6F59C7"/>
</linearGradient>
<linearGradient id="paint1_linear_521_10175" x1="960" y1="158.474" x2="960" y2="39.5566" gradientUnits="userSpaceOnUse">
<stop stop-color="#3B0B50"/>
<stop offset="0.41" stop-color="#4B1460"/>
<stop offset="1" stop-color="#6A277E"/>
</linearGradient>
<radialGradient id="paint2_radial_521_10175" cx="0" cy="0" r="1" gradientUnits="userSpaceOnUse" gradientTransform="translate(1007.98 68.3671) rotate(-37.7716) scale(10.7488 10.4317)">
<stop offset="0.62" stop-color="#E72136"/>
<stop offset="0.67" stop-color="#AF1929"/>
<stop offset="0.73" stop-color="#7A111C"/>
<stop offset="0.78" stop-color="#4E0B12"/>
<stop offset="0.83" stop-color="#2C060A"/>
<stop offset="0.88" stop-color="#130204"/>
<stop offset="0.93" stop-color="#050001"/>
<stop offset="0.97"/>
</radialGradient>
<radialGradient id="paint3_radial_521_10175" cx="0" cy="0" r="1" gradientUnits="userSpaceOnUse" gradientTransform="translate(1031.31 61.8161) rotate(-11.509) scale(6.18315 4.64314)">
<stop offset="0.62" stop-color="#E72136"/>
<stop offset="0.67" stop-color="#AF1929"/>
<stop offset="0.73" stop-color="#7A111C"/>
<stop offset="0.78" stop-color="#4E0B12"/>
<stop offset="0.83" stop-color="#2C060A"/>
<stop offset="0.88" stop-color="#130204"/>
<stop offset="0.93" stop-color="#050001"/>
<stop offset="0.97"/>
</radialGradient>
<radialGradient id="paint4_radial_521_10175" cx="0" cy="0" r="1" gradientUnits="userSpaceOnUse" gradientTransform="translate(1795.14 106.898) rotate(-37.7715) scale(14.7129 14.2787)">
<stop offset="0.62" stop-color="#E72136"/>
<stop offset="0.67" stop-color="#AF1929"/>
<stop offset="0.73" stop-color="#7A111C"/>
<stop offset="0.78" stop-color="#4E0B12"/>
<stop offset="0.83" stop-color="#2C060A"/>
<stop offset="0.88" stop-color="#130204"/>
<stop offset="0.93" stop-color="#050001"/>
<stop offset="0.97"/>
</radialGradient>
<radialGradient id="paint5_radial_521_10175" cx="0" cy="0" r="1" gradientUnits="userSpaceOnUse" gradientTransform="translate(1807.71 104.123) rotate(-11.509) scale(8.44683 6.343)">
<stop offset="0.62" stop-color="#E72136"/>
<stop offset="0.67" stop-color="#AF1929"/>
<stop offset="0.73" stop-color="#7A111C"/>
<stop offset="0.78" stop-color="#4E0B12"/>
<stop offset="0.83" stop-color="#2C060A"/>
<stop offset="0.88" stop-color="#130204"/>
<stop offset="0.93" stop-color="#050001"/>
<stop offset="0.97"/>
</radialGradient>
<radialGradient id="paint6_radial_521_10175" cx="0" cy="0" r="1" gradientUnits="userSpaceOnUse" gradientTransform="translate(921.183 63.0976) rotate(-58.393) scale(3.41597 4.09825)">
<stop offset="0.62" stop-color="#E72136"/>
<stop offset="0.67" stop-color="#AF1929"/>
<stop offset="0.73" stop-color="#7A111C"/>
<stop offset="0.78" stop-color="#4E0B12"/>
<stop offset="0.83" stop-color="#2C060A"/>
<stop offset="0.88" stop-color="#130204"/>
<stop offset="0.93" stop-color="#050001"/>
<stop offset="0.97"/>
</radialGradient>
<radialGradient id="paint7_radial_521_10175" cx="0" cy="0" r="1" gradientUnits="userSpaceOnUse" gradientTransform="translate(912.885 68.2557) rotate(12.7906) scale(15.4902 11.7254)">
<stop offset="0.62" stop-color="#E72136"/>
<stop offset="0.67" stop-color="#AF1929"/>
<stop offset="0.73" stop-color="#7A111C"/>
<stop offset="0.78" stop-color="#4E0B12"/>
<stop offset="0.83" stop-color="#2C060A"/>
<stop offset="0.88" stop-color="#130204"/>
<stop offset="0.93" stop-color="#050001"/>
<stop offset="0.97"/>
</radialGradient>
<radialGradient id="paint8_radial_521_10175" cx="0" cy="0" r="1" gradientUnits="userSpaceOnUse" gradientTransform="translate(873.392 69.5802) rotate(12.7906) scale(7.39019 5.59408)">
<stop offset="0.62" stop-color="#E72136"/>
<stop offset="0.67" stop-color="#AF1929"/>
<stop offset="0.73" stop-color="#7A111C"/>
<stop offset="0.78" stop-color="#4E0B12"/>
<stop offset="0.83" stop-color="#2C060A"/>
<stop offset="0.88" stop-color="#130204"/>
<stop offset="0.93" stop-color="#050001"/>
<stop offset="0.97"/>
</radialGradient>
<radialGradient id="paint9_radial_521_10175" cx="0" cy="0" r="1" gradientUnits="userSpaceOnUse" gradientTransform="translate(1463.67 79.057) rotate(-3.46144) scale(6.0061 4.368)">
<stop offset="0.62" stop-color="#E72136"/>
<stop offset="0.67" stop-color="#AF1929"/>
<stop offset="0.73" stop-color="#7A111C"/>
<stop offset="0.78" stop-color="#4E0B12"/>
<stop offset="0.83" stop-color="#2C060A"/>
<stop offset="0.88" stop-color="#130204"/>
<stop offset="0.93" stop-color="#050001"/>
<stop offset="0.97"/>
</radialGradient>
<radialGradient id="paint10_radial_521_10175" cx="0" cy="0" r="1" gradientUnits="userSpaceOnUse" gradientTransform="translate(1449.64 75.0841) rotate(74.4152) scale(15.9875 21.3002)">
<stop offset="0.62" stop-color="#E72136"/>
<stop offset="0.67" stop-color="#AF1929"/>
<stop offset="0.73" stop-color="#7A111C"/>
<stop offset="0.78" stop-color="#4E0B12"/>
<stop offset="0.83" stop-color="#2C060A"/>
<stop offset="0.88" stop-color="#130204"/>
<stop offset="0.93" stop-color="#050001"/>
<stop offset="0.97"/>
</radialGradient>
<radialGradient id="paint11_radial_521_10175" cx="0" cy="0" r="1" gradientUnits="userSpaceOnUse" gradientTransform="translate(1441.62 65.2154) rotate(74.4152) scale(7.61611 10.147)">
<stop offset="0.62" stop-color="#E72136"/>
<stop offset="0.67" stop-color="#AF1929"/>
<stop offset="0.73" stop-color="#7A111C"/>
<stop offset="0.78" stop-color="#4E0B12"/>
<stop offset="0.83" stop-color="#2C060A"/>
<stop offset="0.88" stop-color="#130204"/>
<stop offset="0.93" stop-color="#050001"/>
<stop offset="0.97"/>
</radialGradient>
<radialGradient id="paint12_radial_521_10175" cx="0" cy="0" r="1" gradientUnits="userSpaceOnUse" gradientTransform="translate(1602.82 114.94) rotate(-19.6942) scale(13.8967 11.1066)">
<stop offset="0.62" stop-color="#E72136"/>
<stop offset="0.67" stop-color="#AF1929"/>
<stop offset="0.73" stop-color="#7A111C"/>
<stop offset="0.78" stop-color="#4E0B12"/>
<stop offset="0.83" stop-color="#2C060A"/>
<stop offset="0.88" stop-color="#130204"/>
<stop offset="0.93" stop-color="#050001"/>
<stop offset="0.97"/>
</radialGradient>
<radialGradient id="paint13_radial_521_10175" cx="0" cy="0" r="1" gradientUnits="userSpaceOnUse" gradientTransform="translate(1586.98 110.868) rotate(74.4152) scale(38.7415 51.6152)">
<stop offset="0.62" stop-color="#E72136"/>
<stop offset="0.67" stop-color="#AF1929"/>
<stop offset="0.73" stop-color="#7A111C"/>
<stop offset="0.78" stop-color="#4E0B12"/>
<stop offset="0.83" stop-color="#2C060A"/>
<stop offset="0.88" stop-color="#130204"/>
<stop offset="0.93" stop-color="#050001"/>
<stop offset="0.97"/>
</radialGradient>
<radialGradient id="paint14_radial_521_10175" cx="0" cy="0" r="1" gradientUnits="userSpaceOnUse" gradientTransform="translate(1567.51 86.9178) rotate(74.4152) scale(18.4581 24.5916)">
<stop offset="0.62" stop-color="#E72136"/>
<stop offset="0.67" stop-color="#AF1929"/>
<stop offset="0.73" stop-color="#7A111C"/>
<stop offset="0.78" stop-color="#4E0B12"/>
<stop offset="0.83" stop-color="#2C060A"/>
<stop offset="0.88" stop-color="#130204"/>
<stop offset="0.93" stop-color="#050001"/>
<stop offset="0.97"/>
</radialGradient>
<radialGradient id="paint15_radial_521_10175" cx="0" cy="0" r="1" gradientUnits="userSpaceOnUse" gradientTransform="translate(1330.76 25.271) rotate(12.7906) scale(10.1041 7.6484)">
<stop offset="0.62" stop-color="#E72136"/>
<stop offset="0.67" stop-color="#AF1929"/>
<stop offset="0.73" stop-color="#7A111C"/>
<stop offset="0.78" stop-color="#4E0B12"/>
<stop offset="0.83" stop-color="#2C060A"/>
<stop offset="0.88" stop-color="#130204"/>
<stop offset="0.93" stop-color="#050001"/>
<stop offset="0.97"/>
</radialGradient>
<linearGradient id="paint16_linear_521_10175" x1="961.5" y1="60" x2="961.5" y2="181" gradientUnits="userSpaceOnUse">
<stop stop-color="#121144" stop-opacity="0"/>
<stop offset="1" stop-color="#121144"/>
</linearGradient>
<clipPath id="clip0_521_10175">
<rect width="1920" height="183" fill="white"/>
</clipPath>
</defs>
</svg>
