<svg width="781" height="310" viewBox="0 0 781 310" fill="none" xmlns="http://www.w3.org/2000/svg">
<g opacity="0.2">
<path d="M704.65 58.4882C720.929 67.8586 736.558 81.8621 735.361 101.019C732.891 140.167 660.884 149.485 563.782 69.3682C466.68 -10.7485 490.214 12.3114 401.408 1.69165C312.601 -8.87606 376.149 37.6131 275.667 51.8248C175.184 65.9845 149.205 56.7183 149.205 44.0162C149.205 31.3141 175.886 8.14841 177.577 6.69079C173.546 7.73195 18.0632 49.274 0.977991 137.408C-16.3152 226.739 200.227 212.15 294.572 217.408C388.892 222.665 317.5 279.692 401.408 306.074C562.429 333.092 472.245 200.762 490.76 172.963C509.276 145.164 652.588 208.31 751.406 158.179C821.333 122.675 751.484 80.3003 704.624 58.5402L704.65 58.4882ZM178.253 132.827C173.416 135.117 168.501 136.419 163.612 137.98C157.761 139.906 152.092 141.989 146.189 142.665C135.995 143.863 125.931 145.164 115.711 145.06C105.127 144.956 94.5693 146.986 84.0113 148.184C75.2997 149.173 65.886 153.65 57.2264 149.849C55.25 149.016 53.5337 146.882 52.1295 143.863C50.1531 139.646 51.4273 135.638 52.7536 131.213C56.5503 118.667 63.7016 110.962 70.1768 105.132C79.7726 96.5424 89.6804 89.7748 99.7963 84.465C102.085 88.109 104.165 86.0788 106.662 85.0376C110.9 83.3197 115.529 84.7773 119.846 84.3609C127.907 83.58 135.657 81.81 143.77 82.8512C147.255 83.2677 150.714 83.58 154.172 84.3088C159.243 85.35 164.08 88.109 168.969 90.6078C176.745 94.5121 184.702 97.7397 192.321 102.997C194.324 104.351 202.151 108.516 201.709 115.075C195.156 125.33 186.158 128.922 178.253 132.722V132.827ZM236.53 129.755C232.863 133.555 228.182 136.939 224.073 137.72C220.095 138.449 216.116 140.271 212.111 140.167C210.395 140.167 208.184 140.948 207.066 137.72C205.688 133.712 207.066 130.536 207.846 129.026C209.147 124.549 209.277 124.393 211.409 121.738C214.633 117.834 217.468 115.908 221.135 114.19C225.998 111.899 231.407 108.464 236.452 110.65C238.298 111.431 241.314 114.815 241.132 119.344C240.95 123.404 238.142 127.985 236.478 129.703L236.53 129.755ZM531.224 150.63C528.363 153.233 525.347 155.211 522.278 156.305C519.99 157.085 517.545 157.502 515.439 155.055C514.347 153.806 514.008 151.307 513.852 148.964C513.748 147.715 513.618 146.986 513.852 145.841C514.061 144.956 514.581 144.175 516.115 144.487C517.519 141.312 518.923 139.23 521.056 138.032C524.072 136.262 527.375 135.534 530.34 137.772C531.744 138.865 533.824 140.115 534.266 143.394C534.708 146.57 532.42 149.537 531.224 150.578V150.63ZM517.493 125.695C514.555 127.569 511.616 129.235 508.599 130.328C505.739 131.369 502.852 131.837 499.966 132.462C496.689 133.139 493.439 134.024 490.136 134.492C487.068 134.909 483.999 135.69 480.93 135.794C476.223 136.054 471.517 137.408 466.836 138.657C463.741 139.49 460.699 140.687 457.604 141.624C455.472 142.249 453.313 142.353 451.181 142.926C447.748 143.863 443.509 143.186 440.493 139.594C437.97 136.627 435.812 132.618 433.68 128.714C432.691 126.944 431.963 124.914 431.443 122.467C431.131 120.957 431.261 120.229 431.495 118.563C430.559 118.927 430.507 117.417 431.105 115.595C431.599 114.034 432.405 112.524 433.108 111.275C433.55 110.494 434.044 110.286 434.512 109.765C434.954 109.296 435.266 108.568 435.682 108.047C437.06 106.537 438.126 104.351 439.557 102.945C441.117 101.54 442.547 99.6658 444.056 98.1561C446.084 96.1259 448.19 94.46 450.245 92.586C454.899 88.3693 459.528 84.2047 464.209 80.1962C467.668 77.229 471.309 74.8864 474.819 72.2314C478.382 69.5244 482.075 67.338 485.767 65.4639C489.07 63.8501 492.477 62.7569 495.805 61.7678C499.212 60.7787 502.644 59.7376 506.103 59.8417C510.394 59.9458 514.763 60.5705 518.975 62.1843C522.044 63.3296 525.087 64.7872 528.129 66.4009C533.356 69.16 538.661 72.9082 543.004 79.6236C544.512 81.9662 546.124 85.1938 546.749 89.046C547.165 91.6489 546.827 94.2518 546.15 96.5944C544.096 104.039 539.415 108.88 535.645 111.951C529.637 116.793 523.708 121.79 517.519 125.643L517.493 125.695ZM648.739 153.754C647.075 161.562 640.912 164.269 637.453 166.3C630.718 170.152 623.645 169.423 616.701 170.204C609.004 171.089 601.385 171.141 593.635 171.141C585.886 171.141 578.734 171.662 571.349 167.445C566.304 164.53 561.077 163.176 556.006 160.521C553.796 159.324 551.69 157.658 549.531 156.253C548.205 155.368 546.333 154.483 545.24 152.556C542.146 147.247 546.437 144.123 548.777 142.093C553.016 138.345 557.229 135.325 561.883 135.273C563.522 135.273 564.978 134.076 566.616 134.024C568.099 133.92 569.607 134.024 566.798 132.774C573.299 132.879 579.671 131.057 586.172 131.629C596.184 132.462 606.091 134.596 616.077 137.043C620.784 138.241 625.491 139.75 630.224 140.791C634.073 141.624 637.973 142.197 641.744 144.071C643.98 145.216 650.274 146.674 648.791 153.65L648.739 153.754ZM768.7 126.788C767.997 136.783 764.643 143.134 760.378 147.403C757.362 150.422 754.787 151.411 751.432 152.296C747.896 153.233 744.463 155.003 740.952 156.096C737.546 157.19 733.645 156.617 730.212 156.357C728.08 156.2 725.454 155.628 723.659 153.181C718.874 146.57 723.763 136.471 726.78 131.942C731.123 125.33 736.142 121.582 740.874 116.376C744.073 112.888 746.725 108.776 749.56 104.403C748.936 106.433 750.626 104.715 752.395 104.403C753.643 104.143 754.527 104.091 755.671 103.466C758.532 101.904 762.874 103.258 765.163 107.11C768.023 112.003 769.168 119.5 768.674 126.892L768.7 126.788Z" fill="url(#paint0_linear_521_10385)" style="mix-blend-mode:screen"/>
</g>
<defs>
<linearGradient id="paint0_linear_521_10385" x1="-159.984" y1="158.178" x2="781.026" y2="158.178" gradientUnits="userSpaceOnUse">
<stop stop-color="#001619"/>
<stop offset="1" stop-color="#1DAEA5"/>
</linearGradient>
</defs>
</svg>
