<svg width="105" height="97" viewBox="0 0 105 97" fill="none" xmlns="http://www.w3.org/2000/svg">
<path opacity="0.1" d="M95.9082 85.4817C95.7261 85.6779 95.5137 85.8741 95.271 86.0552C77.3087 100.651 27.8214 100.138 6.14219 87.0213C5.00438 86.342 4.24583 85.6175 3.88173 84.8628C-3.8099 68.9389 0.362092 21.0161 12.5746 10.6466C25.6823 -0.46239 76.0799 -5.48862 92.2672 8.63917C104.146 18.9935 109.805 70.9615 95.9082 85.4817Z" fill="#3C3E48"/>
<path d="M92.9675 83.7028C92.7964 83.8881 92.5968 84.0734 92.3688 84.2445C75.4913 98.0287 28.9927 97.5441 8.6228 85.1568C7.5537 84.5153 6.84097 83.8311 6.49886 83.1184C-0.728238 68.0797 3.19179 22.8213 14.6668 13.0283C26.9828 2.53692 74.3367 -2.20987 89.5464 11.1325C100.708 20.9111 106.025 69.9898 92.9675 83.7028Z" fill="url(#paint0_linear_233_1577)"/>
<path d="M6.49886 80.1436C13.4694 94.6548 78.613 95.8094 92.9675 80.728C106.025 67.0151 100.708 17.9364 89.5464 8.15768C74.3367 -5.18466 26.9828 -0.437864 14.6668 10.0678C3.19179 19.8465 -0.728238 65.1049 6.49886 80.1436Z" fill="url(#paint1_radial_233_1577)"/>
<g style="mix-blend-mode:multiply" filter="url(#filter0_f_233_1577)">
<path d="M48.4884 60.8892C48.1395 60.8892 47.907 61.1204 47.907 61.3515C47.907 61.4671 47.907 61.5827 48.0233 61.6983C48.1395 61.8138 48.2558 61.8138 48.4884 61.9294V60.8777V60.8892Z" fill="#CED6FF"/>
<path d="M33.9419 64.9806C35.1163 64.9806 36.1744 64.0444 36.1744 62.7616C36.1744 61.4787 35.2326 60.5425 33.9419 60.5425C32.6512 60.5425 31.7093 61.5942 31.7093 62.7616C31.7093 63.9289 32.7674 64.9806 33.9419 64.9806Z" fill="#CED6FF"/>
<path d="M49.5465 64.0444C49.5465 63.9289 49.4302 63.8133 49.314 63.6977C49.1977 63.5822 49.0814 63.5821 48.8488 63.4666V64.5183C49.314 64.5183 49.5581 64.4027 49.5581 64.056L49.5465 64.0444Z" fill="#CED6FF"/>
<path d="M48.6163 67.8931C51.4302 67.8931 53.7791 65.5585 53.7791 62.7616C53.7791 59.9646 51.4302 57.63 48.6163 57.63C45.8023 57.63 43.4535 59.9646 43.4535 62.7616C43.4535 65.5585 45.8023 67.8931 48.6163 67.8931ZM48.0349 63.2239C47.8023 63.1083 47.5698 62.9927 47.3256 62.9927C47.093 62.8771 46.9767 62.7616 46.8605 62.646C46.7442 62.5304 46.6279 62.4148 46.5116 62.1837C46.3953 62.0681 46.3953 61.8369 46.3953 61.6058C46.3953 61.2591 46.3953 61.0279 46.5116 60.7852C46.6279 60.5425 46.7442 60.3229 46.9767 60.2073C47.093 60.0917 47.3256 59.9762 47.5581 59.8606C47.7907 59.745 48.0233 59.745 48.2674 59.6294V58.8089H48.9767V59.6294C49.3256 59.6294 49.686 59.745 50.0349 59.8606C50.3837 59.9762 50.6163 60.0917 50.8605 60.2073L50.2791 61.3746L50.1628 61.2591C50.0465 61.2591 49.9302 61.1435 49.814 61.1435C49.6977 61.0279 49.5814 61.0279 49.3488 61.0279C49.2326 61.0279 49 60.9123 48.8837 60.9123V62.0797L49.1163 62.1952C49.3488 62.3108 49.6977 62.3108 49.9419 62.4264C50.1744 62.542 50.407 62.6575 50.5233 62.7731C50.6395 62.8887 50.7558 63.1198 50.8721 63.2354C50.9884 63.4666 50.9884 63.6977 50.9884 63.9404C50.9884 64.2872 50.9884 64.5183 50.8721 64.761C50.7558 64.9922 50.6395 65.2233 50.407 65.3389C50.1744 65.4545 50.0581 65.5701 49.6977 65.6856C49.4651 65.8012 49.2326 65.8012 48.8721 65.8012V66.7374H48.2907V65.8012C47.9419 65.8012 47.4651 65.6856 47.1163 65.5701C46.7674 65.4545 46.407 65.3389 46.0581 65.1077L46.6395 63.9404C46.6395 63.9404 46.7558 64.056 46.8721 64.056C46.9884 64.1716 47.1047 64.1716 47.2209 64.2872C47.3372 64.4027 47.5698 64.4027 47.686 64.5183C47.9186 64.6339 48.0349 64.6339 48.2674 64.6339V63.4666L48.0349 63.2354V63.2239Z" fill="#CED6FF"/>
<path d="M63.3953 64.9806C64.5698 64.9806 65.6279 64.0444 65.6279 62.7616C65.6279 61.4787 64.686 60.5425 63.3953 60.5425C62.1046 60.5425 61.1628 61.5942 61.1628 62.7616C61.1628 63.9289 62.2209 64.9806 63.3953 64.9806Z" fill="#CED6FF"/>
<path d="M49.314 20.53C50.1395 20.53 50.8372 19.825 50.8372 19.016C50.8372 18.207 50.1279 17.502 49.314 17.502C48.5 17.502 47.7907 18.207 47.7907 19.016C47.907 19.8366 48.5 20.53 49.314 20.53Z" fill="#CED6FF"/>
<path d="M68.3256 42.6975C68.3256 43.5181 69.0349 44.2116 69.8488 44.2116C70.6628 44.2116 71.3721 43.5066 71.3721 42.6975C71.3721 41.8885 70.6628 41.1835 69.8488 41.1835C69.0349 41.1835 68.3256 41.8885 68.3256 42.6975Z" fill="#CED6FF"/>
<path d="M24.4302 32.1917C26.0698 32.1917 27.3605 30.9088 27.3605 29.2792C27.3605 27.6495 26.0698 26.3666 24.4302 26.3666C22.7907 26.3666 21.5 27.6495 21.5 29.2792C21.5 30.7932 22.7907 32.1917 24.4302 32.1917Z" fill="#CED6FF"/>
<path d="M49.0814 33.4746C50.7209 33.4746 52.0116 32.1917 52.0116 30.5621C52.0116 28.9324 50.7209 27.6495 49.0814 27.6495C47.4419 27.6495 46.1512 28.9324 46.1512 30.5621C46.1512 32.1917 47.4419 33.4746 49.0814 33.4746Z" fill="#CED6FF"/>
<path d="M74.7791 46.7774H55.5349L51.1977 51.0884H67.0465C67.3954 51.0884 67.7558 51.4351 67.7558 51.7934C67.7558 54.128 69.7558 56.1159 72.093 56.1159C72.4419 56.1159 72.8023 56.4627 72.8023 56.8209V68.5982C72.8023 68.9449 72.4535 69.3032 72.093 69.3032C69.7442 69.3032 67.7558 71.2911 67.7558 73.6142C67.7558 73.9609 67.407 74.3192 67.0465 74.3192H30.1977C29.8488 74.3192 29.4884 73.9724 29.4884 73.6142C29.4884 71.2795 27.4884 69.3032 25.1512 69.3032C24.8023 69.3032 24.4419 68.9564 24.4419 68.5982V61.9525C24.4419 61.6058 24.7907 61.2475 25.1512 61.2475C25.5116 61.2475 25.8605 61.5942 25.8605 61.9525V67.9047C28.4419 68.2514 30.5581 70.3549 30.907 72.9207H66.3488C66.6977 70.3549 68.814 68.2514 71.3953 67.9047V57.526C68.814 57.1792 66.6977 55.0757 66.3488 52.51H49.686L48.0465 54.1396C47.814 54.3707 47.3372 54.3707 46.9884 54.1396L39.2442 46.4422L30.4419 55.1913C30.3256 55.3069 30.093 55.4225 29.9767 55.4225C29.7442 55.4225 29.6279 55.3069 29.5116 55.1913L23.1744 49.1236C23.0581 49.008 22.9419 48.7769 22.9419 48.6613C22.9419 48.5457 23.0581 48.3145 23.1744 48.199L24.4651 46.9161H22.4651C21.1744 46.9161 20 47.9678 20 49.3663V76.5498C20 77.8327 21.0581 79 22.4651 79H74.814C76.1047 79 77.2791 77.9483 77.2791 76.5498V49.1351C77.2791 47.8522 76.1047 46.8005 74.814 46.8005L74.7791 46.7774ZM63.3953 59.144C65.3953 59.144 67.0349 60.7736 67.0349 62.7616C67.0349 64.7495 65.3953 66.3791 63.3953 66.3791C61.3953 66.3791 59.7558 64.7495 59.7558 62.7616C59.7558 60.7736 61.3953 59.144 63.3953 59.144ZM48.6047 56.2315C52.2442 56.2315 55.1744 59.144 55.1744 62.7616C55.1744 66.3791 52.2442 69.2916 48.6047 69.2916C44.9651 69.2916 42.0349 66.3791 42.0349 62.7616C42.0349 59.144 44.9651 56.2315 48.6047 56.2315ZM33.9302 59.144C35.9302 59.144 37.5698 60.7736 37.5698 62.7616C37.5698 64.7495 35.9302 66.3791 33.9302 66.3791C31.9302 66.3791 30.2907 64.7495 30.2907 62.7616C30.2907 60.7736 31.9302 59.144 33.9302 59.144ZM23.6047 57.63C23.6047 56.8094 24.314 56.1159 25.1279 56.1159C25.9419 56.1159 26.6512 56.8209 26.6512 57.63C26.6512 58.439 25.9419 59.144 25.1279 59.144C24.314 59.144 23.6047 58.439 23.6047 57.63Z" fill="#CED6FF"/>
<path d="M26.7791 46.5462L24.6628 48.6497L29.8256 53.7813L38.6279 45.0322C38.8605 44.801 39.3372 44.801 39.686 45.0322L47.4302 52.7295L75.4767 24.8526L70.314 19.721L48.0116 41.8885C47.8953 42.0041 47.6628 42.1197 47.5465 42.1197C47.4302 42.1197 47.1977 42.0041 47.0814 41.8885L39.3372 34.1911L26.7791 46.5578V46.5462Z" fill="#CED6FF"/>
<path d="M81 28.2274L80.7674 14L66.9186 14.2312L81 28.2274Z" fill="#CED6FF"/>
</g>
<path d="M50.4884 58.8892C50.1395 58.8892 49.907 59.1204 49.907 59.3515C49.907 59.4671 49.907 59.5827 50.0233 59.6983C50.1395 59.8138 50.2558 59.8138 50.4884 59.9294V58.8777V58.8892Z" fill="#00FEEF"/>
<path d="M35.9419 62.9806C37.1163 62.9806 38.1744 62.0444 38.1744 60.7616C38.1744 59.4787 37.2326 58.5425 35.9419 58.5425C34.6512 58.5425 33.7093 59.5942 33.7093 60.7616C33.7093 61.9289 34.7674 62.9806 35.9419 62.9806Z" fill="#00FEEF"/>
<path d="M51.5465 62.0444C51.5465 61.9289 51.4302 61.8133 51.314 61.6977C51.1977 61.5822 51.0814 61.5821 50.8488 61.4666V62.5183C51.314 62.5183 51.5581 62.4027 51.5581 62.056L51.5465 62.0444Z" fill="#00FEEF"/>
<path d="M50.6163 65.8931C53.4302 65.8931 55.7791 63.5585 55.7791 60.7616C55.7791 57.9646 53.4302 55.63 50.6163 55.63C47.8023 55.63 45.4535 57.9646 45.4535 60.7616C45.4535 63.5585 47.8023 65.8931 50.6163 65.8931ZM50.0349 61.2239C49.8023 61.1083 49.5698 60.9927 49.3256 60.9927C49.093 60.8771 48.9767 60.7616 48.8605 60.646C48.7442 60.5304 48.6279 60.4148 48.5116 60.1837C48.3953 60.0681 48.3953 59.8369 48.3953 59.6058C48.3953 59.2591 48.3953 59.0279 48.5116 58.7852C48.6279 58.5425 48.7442 58.3229 48.9767 58.2073C49.093 58.0917 49.3256 57.9762 49.5581 57.8606C49.7907 57.745 50.0233 57.745 50.2674 57.6294V56.8089H50.9767V57.6294C51.3256 57.6294 51.686 57.745 52.0349 57.8606C52.3837 57.9762 52.6163 58.0917 52.8605 58.2073L52.2791 59.3746L52.1628 59.2591C52.0465 59.2591 51.9302 59.1435 51.814 59.1435C51.6977 59.0279 51.5814 59.0279 51.3488 59.0279C51.2326 59.0279 51 58.9123 50.8837 58.9123V60.0797L51.1163 60.1952C51.3488 60.3108 51.6977 60.3108 51.9419 60.4264C52.1744 60.542 52.407 60.6575 52.5233 60.7731C52.6395 60.8887 52.7558 61.1198 52.8721 61.2354C52.9884 61.4666 52.9884 61.6977 52.9884 61.9404C52.9884 62.2872 52.9884 62.5183 52.8721 62.761C52.7558 62.9922 52.6395 63.2233 52.407 63.3389C52.1744 63.4545 52.0581 63.5701 51.6977 63.6856C51.4651 63.8012 51.2326 63.8012 50.8721 63.8012V64.7374H50.2907V63.8012C49.9419 63.8012 49.4651 63.6856 49.1163 63.5701C48.7674 63.4545 48.407 63.3389 48.0581 63.1077L48.6395 61.9404C48.6395 61.9404 48.7558 62.056 48.8721 62.056C48.9884 62.1716 49.1047 62.1716 49.2209 62.2872C49.3372 62.4027 49.5698 62.4027 49.686 62.5183C49.9186 62.6339 50.0349 62.6339 50.2674 62.6339V61.4666L50.0349 61.2354V61.2239Z" fill="#00FEEF"/>
<path d="M65.3953 62.9806C66.5698 62.9806 67.6279 62.0444 67.6279 60.7616C67.6279 59.4787 66.686 58.5425 65.3953 58.5425C64.1046 58.5425 63.1628 59.5942 63.1628 60.7616C63.1628 61.9289 64.2209 62.9806 65.3953 62.9806Z" fill="#00FEEF"/>
<path d="M51.314 18.53C52.1395 18.53 52.8372 17.825 52.8372 17.016C52.8372 16.207 52.1279 15.502 51.314 15.502C50.5 15.502 49.7907 16.207 49.7907 17.016C49.907 17.8366 50.5 18.53 51.314 18.53Z" fill="#00FEEF"/>
<path d="M70.3256 40.6975C70.3256 41.5181 71.0349 42.2116 71.8488 42.2116C72.6628 42.2116 73.3721 41.5066 73.3721 40.6975C73.3721 39.8885 72.6628 39.1835 71.8488 39.1835C71.0349 39.1835 70.3256 39.8885 70.3256 40.6975Z" fill="#00FEEF"/>
<path d="M26.4302 30.1917C28.0698 30.1917 29.3605 28.9088 29.3605 27.2792C29.3605 25.6495 28.0698 24.3666 26.4302 24.3666C24.7907 24.3666 23.5 25.6495 23.5 27.2792C23.5 28.7932 24.7907 30.1917 26.4302 30.1917Z" fill="#00FEEF"/>
<path d="M51.0814 31.4746C52.7209 31.4746 54.0116 30.1917 54.0116 28.5621C54.0116 26.9324 52.7209 25.6495 51.0814 25.6495C49.4419 25.6495 48.1512 26.9324 48.1512 28.5621C48.1512 30.1917 49.4419 31.4746 51.0814 31.4746Z" fill="#00FEEF"/>
<path d="M76.7791 44.7774H57.5349L53.1977 49.0884H69.0465C69.3954 49.0884 69.7558 49.4351 69.7558 49.7934C69.7558 52.128 71.7558 54.1159 74.093 54.1159C74.4419 54.1159 74.8023 54.4627 74.8023 54.8209V66.5982C74.8023 66.9449 74.4535 67.3032 74.093 67.3032C71.7442 67.3032 69.7558 69.2911 69.7558 71.6142C69.7558 71.9609 69.407 72.3192 69.0465 72.3192H32.1977C31.8488 72.3192 31.4884 71.9724 31.4884 71.6142C31.4884 69.2795 29.4884 67.3032 27.1512 67.3032C26.8023 67.3032 26.4419 66.9564 26.4419 66.5982V59.9525C26.4419 59.6058 26.7907 59.2475 27.1512 59.2475C27.5116 59.2475 27.8605 59.5942 27.8605 59.9525V65.9047C30.4419 66.2514 32.5581 68.3549 32.907 70.9207H68.3488C68.6977 68.3549 70.814 66.2514 73.3953 65.9047V55.526C70.814 55.1792 68.6977 53.0757 68.3488 50.51H51.686L50.0465 52.1396C49.814 52.3707 49.3372 52.3707 48.9884 52.1396L41.2442 44.4422L32.4419 53.1913C32.3256 53.3069 32.093 53.4225 31.9767 53.4225C31.7442 53.4225 31.6279 53.3069 31.5116 53.1913L25.1744 47.1236C25.0581 47.008 24.9419 46.7769 24.9419 46.6613C24.9419 46.5457 25.0581 46.3145 25.1744 46.199L26.4651 44.9161H24.4651C23.1744 44.9161 22 45.9678 22 47.3663V74.5498C22 75.8327 23.0581 77 24.4651 77H76.814C78.1047 77 79.2791 75.9483 79.2791 74.5498V47.1351C79.2791 45.8522 78.1047 44.8005 76.814 44.8005L76.7791 44.7774ZM65.3953 57.144C67.3953 57.144 69.0349 58.7736 69.0349 60.7616C69.0349 62.7495 67.3953 64.3791 65.3953 64.3791C63.3953 64.3791 61.7558 62.7495 61.7558 60.7616C61.7558 58.7736 63.3953 57.144 65.3953 57.144ZM50.6047 54.2315C54.2442 54.2315 57.1744 57.144 57.1744 60.7616C57.1744 64.3791 54.2442 67.2916 50.6047 67.2916C46.9651 67.2916 44.0349 64.3791 44.0349 60.7616C44.0349 57.144 46.9651 54.2315 50.6047 54.2315ZM35.9302 57.144C37.9302 57.144 39.5698 58.7736 39.5698 60.7616C39.5698 62.7495 37.9302 64.3791 35.9302 64.3791C33.9302 64.3791 32.2907 62.7495 32.2907 60.7616C32.2907 58.7736 33.9302 57.144 35.9302 57.144ZM25.6047 55.63C25.6047 54.8094 26.314 54.1159 27.1279 54.1159C27.9419 54.1159 28.6512 54.8209 28.6512 55.63C28.6512 56.439 27.9419 57.144 27.1279 57.144C26.314 57.144 25.6047 56.439 25.6047 55.63Z" fill="#00FEEF"/>
<path d="M28.7791 44.5462L26.6628 46.6497L31.8256 51.7813L40.6279 43.0322C40.8605 42.801 41.3372 42.801 41.686 43.0322L49.4302 50.7295L77.4767 22.8526L72.314 17.721L50.0116 39.8885C49.8953 40.0041 49.6628 40.1197 49.5465 40.1197C49.4302 40.1197 49.1977 40.0041 49.0814 39.8885L41.3372 32.1911L28.7791 44.5578V44.5462Z" fill="#00FEEF"/>
<path d="M83 26.2274L82.7674 12L68.9186 12.2312L83 26.2274Z" fill="#00FEEF"/>
<path style="mix-blend-mode:screen" d="M14.0643 12.5824C14.0643 12.5824 33.3086 -5.92184 84.3801 5.92083C84.3801 5.92083 100.664 20.7242 96.2599 30.6849C96.2599 30.6849 97.7032 34.0472 91.7818 37.0079C90.2911 26.3006 71.0571 14.3645 57.7341 11.4032C45.1513 11.4032 11.8438 15.543 11.8438 15.543L14.0643 12.5824Z" fill="url(#paint2_linear_233_1577)"/>
<path d="M10.3633 17.0792C10.3633 17.0792 12.5442 12.6032 17.5904 10.2084C22.6508 7.81366 37.0337 5.40463 37.8605 6.01758C38.673 6.63053 30.8472 9.45295 26.7989 10.9497C22.7506 12.4464 12.4302 18.2338 10.3633 17.0934V17.0792Z" fill="white"/>
<path style="mix-blend-mode:screen" d="M92.2422 80.1067C92.2422 80.1067 86.6003 86.1084 75.4978 88.0793C69.9855 89.0578 63.5512 90.3685 62.9149 89.5596C62.2924 88.7544 70.4734 82.0729 74.7729 81.6944C79.0724 81.3159 90.5521 78.4488 92.246 80.0929L92.2422 80.1067Z" fill="url(#paint3_linear_233_1577)"/>
<path d="M10.8873 19.2582C9.84669 19.415 7.25235 27.4831 7.40915 28.8088C7.56595 30.1344 10.6877 25.9436 11.1724 23.7056C11.657 21.4819 10.8873 19.2439 10.8873 19.2439V19.2582Z" fill="white"/>
<path style="mix-blend-mode:screen" d="M93.9283 77.004C94.9782 76.9328 98.2238 69.1039 98.1759 67.7699C98.1281 66.4358 94.674 70.3573 94.0079 72.5481C93.343 74.7247 93.9271 77.0182 93.9271 77.0182L93.9283 77.004Z" fill="url(#paint4_linear_233_1577)"/>
<path d="M88.8671 81.0053C88.2612 79.4775 93.7144 72.5028 95.1058 72.536C96.4972 72.5692 95.2629 77.1194 94.4101 78.1822C93.5798 79.245 89.1588 81.7692 88.8671 81.0053Z" fill="white"/>
<defs>
<filter id="filter0_f_233_1577" x="19" y="13" width="63" height="67" filterUnits="userSpaceOnUse" color-interpolation-filters="sRGB">
<feFlood flood-opacity="0" result="BackgroundImageFix"/>
<feBlend mode="normal" in="SourceGraphic" in2="BackgroundImageFix" result="shape"/>
<feGaussianBlur stdDeviation="0.5" result="effect1_foregroundBlur_233_1577"/>
</filter>
<linearGradient id="paint0_linear_233_1577" x1="56.5277" y1="94.5145" x2="56.5277" y2="2.97371" gradientUnits="userSpaceOnUse">
<stop stop-color="#008EC2"/>
<stop offset="1" stop-color="#002092"/>
</linearGradient>
<radialGradient id="paint1_radial_233_1577" cx="0" cy="0" r="1" gradientUnits="userSpaceOnUse" gradientTransform="translate(56.5561 82.8368) rotate(-3.94662) scale(49.6068 418.696)">
<stop stop-color="#00D3C2"/>
<stop offset="1" stop-color="#0083C2"/>
</radialGradient>
<linearGradient id="paint2_linear_233_1577" x1="17.286" y1="20.5477" x2="85.8541" y2="20.5477" gradientUnits="userSpaceOnUse">
<stop stop-color="#7ED140"/>
<stop offset="0.11" stop-color="#74C03B"/>
<stop offset="0.34" stop-color="#5A962E"/>
<stop offset="0.65" stop-color="#315219"/>
<stop offset="1"/>
</linearGradient>
<linearGradient id="paint3_linear_233_1577" x1="88.2692" y1="84.2462" x2="67.4857" y2="78.5763" gradientUnits="userSpaceOnUse">
<stop stop-color="#7ED140"/>
<stop offset="0.11" stop-color="#74C03B"/>
<stop offset="0.34" stop-color="#5A962E"/>
<stop offset="0.65" stop-color="#315219"/>
<stop offset="1"/>
</linearGradient>
<linearGradient id="paint4_linear_233_1577" x1="97.4445" y1="71.9816" x2="94.3822" y2="71.7303" gradientUnits="userSpaceOnUse">
<stop stop-color="#7ED140"/>
<stop offset="0.11" stop-color="#74C03B"/>
<stop offset="0.34" stop-color="#5A962E"/>
<stop offset="0.65" stop-color="#315219"/>
<stop offset="1"/>
</linearGradient>
</defs>
</svg>
