<svg width="105" height="97" viewBox="0 0 105 97" fill="none" xmlns="http://www.w3.org/2000/svg">
<path opacity="0.1" d="M95.9082 85.4822C95.7261 85.6784 95.5137 85.8746 95.271 86.0557C77.3087 100.651 27.8214 100.138 6.14219 87.0217C5.00438 86.3425 4.24583 85.618 3.88173 84.8633C-3.8099 68.9394 0.362092 21.0166 12.5746 10.6471C25.6823 -0.461901 76.0799 -5.48814 92.2672 8.63966C104.146 18.994 109.805 70.9619 95.9082 85.4822Z" fill="#3C3E48"/>
<path d="M92.9675 83.7033C92.7964 83.8886 92.5968 84.0739 92.3688 84.245C75.4913 98.0292 28.9927 97.5445 8.6228 85.1573C7.5537 84.5158 6.84097 83.8316 6.49886 83.1189C-0.728238 68.0802 3.19179 22.8218 14.6668 13.0288C26.9828 2.53741 74.3367 -2.20938 89.5464 11.133C100.708 20.9116 106.025 69.9903 92.9675 83.7033Z" fill="url(#paint0_linear_233_1541)"/>
<path d="M6.49886 80.1441C13.4694 94.6553 78.613 95.8099 92.9675 80.7285C106.025 67.0155 100.708 17.9368 89.5464 8.15817C74.3367 -5.18417 26.9828 -0.437375 14.6668 10.0683C3.19179 19.847 -0.728238 65.1054 6.49886 80.1441Z" fill="url(#paint1_radial_233_1541)"/>
<g style="mix-blend-mode:multiply" filter="url(#filter0_f_233_1541)">
<path d="M51.3282 58.8372C51.2185 58.7263 50.9991 58.6155 50.7797 58.5047V59.8457C51.3282 59.8457 51.6682 59.624 51.6682 59.2916C51.5585 59.0699 51.4488 58.9591 51.3391 58.8482L51.3282 58.8372Z" fill="#CED6FF"/>
<path d="M49.4524 55.8116C49.4524 56.0332 49.5621 56.1441 49.6718 56.2549C49.7815 56.3657 50.0009 56.4766 50.2203 56.5874V55.2464C49.6718 55.2464 49.4415 55.3572 49.4415 55.8005L49.4524 55.8116Z" fill="#CED6FF"/>
<path d="M41.4778 73.9318C41.4778 75.3836 42.5857 76.503 44.0227 76.503H56.8676C58.3046 76.503 59.4125 75.3836 59.4125 73.9318V72.2583H41.4778V73.9318Z" fill="#CED6FF"/>
<path d="M50.3409 51.3342C46.9076 51.3342 44.1433 54.127 44.1433 57.5959C44.1433 61.0648 46.9076 63.8576 50.3409 63.8576C53.7743 63.8576 56.5386 61.0648 56.5386 57.5959C56.5386 54.127 53.7743 51.3342 50.3409 51.3342ZM53.2149 60.1671C53.1052 60.4996 52.8858 60.7212 52.6664 60.8431C52.447 61.0648 52.118 61.1756 51.7779 61.2864C51.5585 61.3973 51.2295 61.5081 50.7797 61.5081V62.7383H50.0009V61.5081C49.4524 61.5081 49.0027 61.3973 48.5639 61.1756C48.1252 61.0648 47.6754 60.8431 47.2367 60.4996L48.0155 58.9369C48.0155 58.9369 48.1252 59.0477 48.2349 59.1586C48.3445 59.2694 48.5639 59.3802 48.6736 59.3802C48.893 59.491 49.1124 59.6019 49.3427 59.6019C49.5621 59.7127 49.8912 59.7127 50.1216 59.8235V58.3717L49.5731 58.2609C49.244 58.15 48.904 58.0392 48.6846 57.9284C48.4652 57.8176 48.2458 57.7067 48.0155 57.4851C47.7961 57.2634 47.6864 57.1526 47.6864 56.9309C47.5767 56.7093 47.5767 56.4876 47.5767 56.1441C47.5767 55.8005 47.6864 55.468 47.7961 55.1356C47.9058 54.8031 48.1252 54.5814 48.3445 54.3487C48.5639 54.127 48.7833 54.0162 49.1234 53.9054C49.4524 53.7945 49.7925 53.6837 50.1216 53.6837V52.5644H50.9004V53.6837C51.3391 53.6837 51.7889 53.7945 52.2277 54.0162C52.6664 54.2379 53.0065 54.3487 53.3356 54.5703L52.447 55.9113C52.447 55.9113 52.3373 55.8005 52.2277 55.8005C52.118 55.6897 52.0083 55.6897 51.7889 55.5789C51.6792 55.468 51.4598 55.468 51.2404 55.3572C51.021 55.2464 50.8017 55.2464 50.692 55.2464V56.6982L51.021 56.809C51.3501 56.9199 51.6902 57.0307 52.0192 57.1415C52.3483 57.2523 52.5677 57.3632 52.7981 57.5848C53.0174 57.8065 53.1271 58.0281 53.2368 58.2609C53.3465 58.4825 53.4562 58.815 53.4562 59.1586C53.4562 59.5021 53.4562 59.8346 53.2368 60.1671H53.2149Z" fill="#CED6FF"/>
<path d="M50.4506 31.7621C47.7961 31.7621 45.5803 34.0009 45.5803 36.6829C45.5803 39.3649 47.7961 41.6036 50.4506 41.6036C53.1052 41.6036 55.321 39.3649 55.321 36.6829C55.321 34.0009 53.1052 31.7621 50.4506 31.7621Z" fill="#CED6FF"/>
<path d="M45.5803 78.0767C45.5803 79.5286 46.7979 80.7587 48.2349 80.7587H52.6664C54.1034 80.7587 55.321 79.5286 55.321 78.0767V77.9659H45.5803V78.0767Z" fill="#CED6FF"/>
<path d="M28.9728 61.8517V68.1134H37.2766V52.6752C32.6256 53.1185 28.9728 57.0418 28.9728 61.8517Z" fill="#CED6FF"/>
<path d="M63.6247 52.6863V68.0136H71.9284V61.7519C71.9284 57.0529 68.2757 53.1407 63.6247 52.6863Z" fill="#CED6FF"/>
<path d="M50.4506 18.0085L43.2548 25.2788C40.2602 28.2933 38.6038 32.3274 38.6038 36.572V44.4075H43.4742C43.8033 44.4075 44.1433 44.74 44.1433 45.0835C44.1433 45.4271 43.8142 45.7596 43.4742 45.7596H38.6038V70.9284H62.1877V45.7596H57.3174C56.9883 45.7596 56.6483 45.4271 56.6483 45.0835C56.6483 44.74 56.9773 44.4075 57.3174 44.4075H62.1877V36.572C62.1877 32.3163 60.5314 28.2933 57.5368 25.2788L50.4506 18.0085ZM57.9755 57.607C57.9755 61.8517 54.5422 65.3205 50.3409 65.3205C46.1397 65.3205 42.7063 61.8517 42.7063 57.607C42.7063 53.3623 46.1397 49.8934 50.3409 49.8934C54.5422 49.8934 57.9755 53.3623 57.9755 57.607ZM50.4506 42.9557C47.0173 42.9557 44.253 40.1628 44.253 36.6939C44.253 33.2251 47.0173 30.4322 50.4506 30.4322C53.884 30.4322 56.6483 33.2251 56.6483 36.6939C56.6483 40.1628 53.884 42.9557 50.4506 42.9557Z" fill="#CED6FF"/>
<path d="M65.7308 75.0511C65.4017 75.0511 65.0617 75.3836 65.0617 75.7272V79.9829C65.0617 80.3154 65.3908 80.659 65.7308 80.659C66.0709 80.659 66.3999 80.3265 66.3999 79.9829V75.7272C66.3999 75.3947 66.0709 75.0511 65.7308 75.0511Z" fill="#CED6FF"/>
<path d="M69.8223 72.2583C69.4933 72.2583 69.1532 72.5908 69.1532 72.9344V75.7272C69.1532 76.0597 69.4823 76.4032 69.8223 76.4032C70.1624 76.4032 70.4915 76.0708 70.4915 75.7272V72.9344C70.4915 72.6019 70.1624 72.2583 69.8223 72.2583Z" fill="#CED6FF"/>
<path d="M74.0345 75.0511C73.7055 75.0511 73.3654 75.3836 73.3654 75.7272V81.324C73.3654 81.6564 73.6945 82 74.0345 82C74.3746 82 74.7037 81.6675 74.7037 81.324V75.7272C74.7037 75.3947 74.3746 75.0511 74.0345 75.0511Z" fill="#CED6FF"/>
<path d="M26.9764 75.0511C26.6474 75.0511 26.3073 75.3836 26.3073 75.7272V79.9829C26.3073 80.3154 26.6364 80.659 26.9764 80.659C27.3165 80.659 27.6456 80.3265 27.6456 79.9829V75.7272C27.6456 75.3947 27.3165 75.0511 26.9764 75.0511Z" fill="#CED6FF"/>
<path d="M31.068 72.2583C30.7389 72.2583 30.3988 72.5908 30.3988 72.9344V75.7272C30.3988 76.0597 30.7279 76.4032 31.068 76.4032C31.408 76.4032 31.7371 76.0708 31.7371 75.7272V72.9344C31.7371 72.6019 31.408 72.2583 31.068 72.2583Z" fill="#CED6FF"/>
<path d="M35.2802 75.0511C34.9511 75.0511 34.611 75.3836 34.611 75.7272V81.324C34.611 81.6564 34.9401 82 35.2802 82C35.6202 82 35.9493 81.6675 35.9493 81.324V75.7272C35.9493 75.3947 35.6202 75.0511 35.2802 75.0511Z" fill="#CED6FF"/>
<path d="M25.5395 42.9446C23.6528 42.9446 22.1061 44.5072 22.1061 46.4135C22.1061 48.3197 23.6528 49.8824 25.5395 49.8824C27.4262 49.8824 28.9728 48.3197 28.9728 46.4135C28.9728 44.5072 27.4262 42.9446 25.5395 42.9446Z" fill="#CED6FF"/>
<path d="M30.4098 26.1654C31.9565 26.1654 33.1741 24.9352 33.1741 23.3725C33.1741 21.8099 31.9565 20.5797 30.4098 20.5797C28.8632 20.5797 27.6456 21.8099 27.6456 23.3725C27.6456 24.9352 28.8632 26.1654 30.4098 26.1654Z" fill="#CED6FF"/>
<path d="M78.7952 37.3589C78.7952 35.0094 76.9085 33.1142 74.583 33.1142C72.2575 33.1142 70.3708 35.0205 70.3708 37.3589C70.3708 39.6974 72.2575 41.6147 74.583 41.6147C76.9085 41.6147 78.7952 39.5976 78.7952 37.3589Z" fill="#CED6FF"/>
<path d="M79.563 25.3896C80.3528 25.3896 81 26.0435 81 26.8414C81 27.6394 80.3528 28.2933 79.563 28.2933C78.7732 28.2933 78.1261 27.6394 78.1261 26.8414C78.1261 26.0435 78.7732 25.3896 79.563 25.3896Z" fill="#CED6FF"/>
<path d="M78.1261 50.5584C78.9268 50.5584 79.563 51.2123 79.563 52.0102C79.563 52.8082 78.9158 53.4621 78.1261 53.4621C77.3363 53.4621 76.6891 52.8082 76.6891 52.0102C76.6891 51.2123 77.3363 50.5584 78.1261 50.5584Z" fill="#CED6FF"/>
<path d="M67.0581 42.1688C67.8479 42.1688 68.4951 42.8227 68.4951 43.6206C68.4951 44.4186 67.8479 45.0725 67.0581 45.0725C66.2683 45.0725 65.6211 44.4186 65.6211 43.6206C65.6211 42.8227 66.2683 42.1688 67.0581 42.1688Z" fill="#CED6FF"/>
<path d="M64.2829 17C65.0727 17 65.7198 17.6539 65.7198 18.4518C65.7198 19.2498 65.0727 19.9037 64.2829 19.9037C63.4931 19.9037 62.8459 19.2498 62.8459 18.4518C62.8459 17.6539 63.4931 17 64.2829 17Z" fill="#CED6FF"/>
<path d="M38.0444 18.4518C38.8342 18.4518 39.4814 19.1057 39.4814 19.9037C39.4814 20.7016 38.8342 21.3555 38.0444 21.3555C37.2546 21.3555 36.6074 20.7016 36.6074 19.9037C36.6074 19.1057 37.2546 18.4518 38.0444 18.4518Z" fill="#CED6FF"/>
<path d="M31.068 30.9753C31.8578 30.9753 32.5049 31.6292 32.5049 32.4271C32.5049 33.2251 31.8578 33.8789 31.068 33.8789C30.2782 33.8789 29.631 33.2251 29.631 32.4271C29.631 31.6292 30.2782 30.9753 31.068 30.9753Z" fill="#CED6FF"/>
<path d="M21.437 54.8031C22.2268 54.8031 22.8739 55.4569 22.8739 56.2549C22.8739 57.0529 22.2268 57.7067 21.437 57.7067C20.6472 57.7067 20 57.0529 20 56.2549C20 55.4569 20.6472 54.8031 21.437 54.8031Z" fill="#CED6FF"/>
</g>
<path d="M53.3282 56.8372C53.2185 56.7263 52.9991 56.6155 52.7797 56.5047V57.8457C53.3282 57.8457 53.6682 57.624 53.6682 57.2916C53.5585 57.0699 53.4488 56.9591 53.3391 56.8482L53.3282 56.8372Z" fill="#00FEEF"/>
<path d="M51.4524 53.8116C51.4524 54.0332 51.5621 54.1441 51.6718 54.2549C51.7815 54.3657 52.0009 54.4766 52.2203 54.5874V53.2464C51.6718 53.2464 51.4415 53.3572 51.4415 53.8005L51.4524 53.8116Z" fill="#00FEEF"/>
<path d="M43.4778 71.9318C43.4778 73.3836 44.5857 74.503 46.0227 74.503H58.8676C60.3046 74.503 61.4125 73.3836 61.4125 71.9318V70.2583H43.4778V71.9318Z" fill="#00FEEF"/>
<path d="M52.3409 49.3342C48.9076 49.3342 46.1433 52.127 46.1433 55.5959C46.1433 59.0648 48.9076 61.8576 52.3409 61.8576C55.7743 61.8576 58.5386 59.0648 58.5386 55.5959C58.5386 52.127 55.7743 49.3342 52.3409 49.3342ZM55.2149 58.1671C55.1052 58.4996 54.8858 58.7212 54.6664 58.8431C54.447 59.0648 54.118 59.1756 53.7779 59.2864C53.5585 59.3973 53.2295 59.5081 52.7797 59.5081V60.7383H52.0009V59.5081C51.4524 59.5081 51.0027 59.3973 50.5639 59.1756C50.1252 59.0648 49.6754 58.8431 49.2367 58.4996L50.0155 56.9369C50.0155 56.9369 50.1252 57.0477 50.2349 57.1586C50.3445 57.2694 50.5639 57.3802 50.6736 57.3802C50.893 57.491 51.1124 57.6019 51.3427 57.6019C51.5621 57.7127 51.8912 57.7127 52.1216 57.8235V56.3717L51.5731 56.2609C51.244 56.15 50.904 56.0392 50.6846 55.9284C50.4652 55.8176 50.2458 55.7067 50.0155 55.4851C49.7961 55.2634 49.6864 55.1526 49.6864 54.9309C49.5767 54.7093 49.5767 54.4876 49.5767 54.1441C49.5767 53.8005 49.6864 53.468 49.7961 53.1356C49.9058 52.8031 50.1252 52.5814 50.3445 52.3487C50.5639 52.127 50.7833 52.0162 51.1234 51.9054C51.4524 51.7945 51.7925 51.6837 52.1216 51.6837V50.5644H52.9004V51.6837C53.3391 51.6837 53.7889 51.7945 54.2277 52.0162C54.6664 52.2379 55.0065 52.3487 55.3356 52.5703L54.447 53.9113C54.447 53.9113 54.3373 53.8005 54.2277 53.8005C54.118 53.6897 54.0083 53.6897 53.7889 53.5789C53.6792 53.468 53.4598 53.468 53.2404 53.3572C53.021 53.2464 52.8017 53.2464 52.692 53.2464V54.6982L53.021 54.809C53.3501 54.9199 53.6902 55.0307 54.0192 55.1415C54.3483 55.2523 54.5677 55.3632 54.7981 55.5848C55.0174 55.8065 55.1271 56.0281 55.2368 56.2609C55.3465 56.4825 55.4562 56.815 55.4562 57.1586C55.4562 57.5021 55.4562 57.8346 55.2368 58.1671H55.2149Z" fill="#00FEEF"/>
<path d="M52.4506 29.7621C49.7961 29.7621 47.5803 32.0009 47.5803 34.6829C47.5803 37.3649 49.7961 39.6036 52.4506 39.6036C55.1052 39.6036 57.321 37.3649 57.321 34.6829C57.321 32.0009 55.1052 29.7621 52.4506 29.7621Z" fill="#00FEEF"/>
<path d="M47.5803 76.0767C47.5803 77.5286 48.7979 78.7587 50.2349 78.7587H54.6664C56.1034 78.7587 57.321 77.5286 57.321 76.0767V75.9659H47.5803V76.0767Z" fill="#00FEEF"/>
<path d="M30.9728 59.8517V66.1134H39.2766V50.6752C34.6256 51.1185 30.9728 55.0418 30.9728 59.8517Z" fill="#00FEEF"/>
<path d="M65.6247 50.6863V66.0136H73.9284V59.7519C73.9284 55.0529 70.2757 51.1407 65.6247 50.6863Z" fill="#00FEEF"/>
<path d="M52.4506 16.0085L45.2548 23.2788C42.2602 26.2933 40.6038 30.3274 40.6038 34.572V42.4075H45.4742C45.8033 42.4075 46.1433 42.74 46.1433 43.0835C46.1433 43.4271 45.8142 43.7596 45.4742 43.7596H40.6038V68.9284H64.1877V43.7596H59.3174C58.9883 43.7596 58.6483 43.4271 58.6483 43.0835C58.6483 42.74 58.9773 42.4075 59.3174 42.4075H64.1877V34.572C64.1877 30.3163 62.5314 26.2933 59.5368 23.2788L52.4506 16.0085ZM59.9755 55.607C59.9755 59.8517 56.5422 63.3205 52.3409 63.3205C48.1397 63.3205 44.7063 59.8517 44.7063 55.607C44.7063 51.3623 48.1397 47.8934 52.3409 47.8934C56.5422 47.8934 59.9755 51.3623 59.9755 55.607ZM52.4506 40.9557C49.0173 40.9557 46.253 38.1628 46.253 34.6939C46.253 31.2251 49.0173 28.4322 52.4506 28.4322C55.884 28.4322 58.6483 31.2251 58.6483 34.6939C58.6483 38.1628 55.884 40.9557 52.4506 40.9557Z" fill="#00FEEF"/>
<path d="M67.7308 73.0511C67.4017 73.0511 67.0617 73.3836 67.0617 73.7272V77.9829C67.0617 78.3154 67.3908 78.659 67.7308 78.659C68.0709 78.659 68.3999 78.3265 68.3999 77.9829V73.7272C68.3999 73.3947 68.0709 73.0511 67.7308 73.0511Z" fill="#00FEEF"/>
<path d="M71.8223 70.2583C71.4933 70.2583 71.1532 70.5908 71.1532 70.9344V73.7272C71.1532 74.0597 71.4823 74.4032 71.8223 74.4032C72.1624 74.4032 72.4915 74.0708 72.4915 73.7272V70.9344C72.4915 70.6019 72.1624 70.2583 71.8223 70.2583Z" fill="#00FEEF"/>
<path d="M76.0345 73.0511C75.7055 73.0511 75.3654 73.3836 75.3654 73.7272V79.324C75.3654 79.6564 75.6945 80 76.0345 80C76.3746 80 76.7037 79.6675 76.7037 79.324V73.7272C76.7037 73.3947 76.3746 73.0511 76.0345 73.0511Z" fill="#00FEEF"/>
<path d="M28.9764 73.0511C28.6474 73.0511 28.3073 73.3836 28.3073 73.7272V77.9829C28.3073 78.3154 28.6364 78.659 28.9764 78.659C29.3165 78.659 29.6456 78.3265 29.6456 77.9829V73.7272C29.6456 73.3947 29.3165 73.0511 28.9764 73.0511Z" fill="#00FEEF"/>
<path d="M33.068 70.2583C32.7389 70.2583 32.3988 70.5908 32.3988 70.9344V73.7272C32.3988 74.0597 32.7279 74.4032 33.068 74.4032C33.408 74.4032 33.7371 74.0708 33.7371 73.7272V70.9344C33.7371 70.6019 33.408 70.2583 33.068 70.2583Z" fill="#00FEEF"/>
<path d="M37.2802 73.0511C36.9511 73.0511 36.611 73.3836 36.611 73.7272V79.324C36.611 79.6564 36.9401 80 37.2802 80C37.6202 80 37.9493 79.6675 37.9493 79.324V73.7272C37.9493 73.3947 37.6202 73.0511 37.2802 73.0511Z" fill="#00FEEF"/>
<path d="M27.5395 40.9446C25.6528 40.9446 24.1061 42.5072 24.1061 44.4135C24.1061 46.3197 25.6528 47.8824 27.5395 47.8824C29.4262 47.8824 30.9728 46.3197 30.9728 44.4135C30.9728 42.5072 29.4262 40.9446 27.5395 40.9446Z" fill="#00FEEF"/>
<path d="M32.4098 24.1654C33.9565 24.1654 35.1741 22.9352 35.1741 21.3725C35.1741 19.8099 33.9565 18.5797 32.4098 18.5797C30.8632 18.5797 29.6456 19.8099 29.6456 21.3725C29.6456 22.9352 30.8632 24.1654 32.4098 24.1654Z" fill="#00FEEF"/>
<path d="M80.7952 35.3589C80.7952 33.0094 78.9085 31.1142 76.583 31.1142C74.2575 31.1142 72.3708 33.0205 72.3708 35.3589C72.3708 37.6974 74.2575 39.6147 76.583 39.6147C78.9085 39.6147 80.7952 37.5976 80.7952 35.3589Z" fill="#00FEEF"/>
<path d="M81.563 23.3896C82.3528 23.3896 83 24.0435 83 24.8414C83 25.6394 82.3528 26.2933 81.563 26.2933C80.7732 26.2933 80.1261 25.6394 80.1261 24.8414C80.1261 24.0435 80.7732 23.3896 81.563 23.3896Z" fill="#00FEEF"/>
<path d="M80.1261 48.5584C80.9268 48.5584 81.563 49.2123 81.563 50.0102C81.563 50.8082 80.9158 51.4621 80.1261 51.4621C79.3363 51.4621 78.6891 50.8082 78.6891 50.0102C78.6891 49.2123 79.3363 48.5584 80.1261 48.5584Z" fill="#00FEEF"/>
<path d="M69.0581 40.1688C69.8479 40.1688 70.4951 40.8227 70.4951 41.6206C70.4951 42.4186 69.8479 43.0725 69.0581 43.0725C68.2683 43.0725 67.6211 42.4186 67.6211 41.6206C67.6211 40.8227 68.2683 40.1688 69.0581 40.1688Z" fill="#00FEEF"/>
<path d="M66.2829 15C67.0727 15 67.7198 15.6539 67.7198 16.4518C67.7198 17.2498 67.0727 17.9037 66.2829 17.9037C65.4931 17.9037 64.8459 17.2498 64.8459 16.4518C64.8459 15.6539 65.4931 15 66.2829 15Z" fill="#00FEEF"/>
<path d="M40.0444 16.4518C40.8342 16.4518 41.4814 17.1057 41.4814 17.9037C41.4814 18.7016 40.8342 19.3555 40.0444 19.3555C39.2546 19.3555 38.6074 18.7016 38.6074 17.9037C38.6074 17.1057 39.2546 16.4518 40.0444 16.4518Z" fill="#00FEEF"/>
<path d="M33.068 28.9753C33.8578 28.9753 34.5049 29.6292 34.5049 30.4271C34.5049 31.2251 33.8578 31.8789 33.068 31.8789C32.2782 31.8789 31.631 31.2251 31.631 30.4271C31.631 29.6292 32.2782 28.9753 33.068 28.9753Z" fill="#00FEEF"/>
<path d="M23.437 52.8031C24.2268 52.8031 24.8739 53.4569 24.8739 54.2549C24.8739 55.0529 24.2268 55.7067 23.437 55.7067C22.6472 55.7067 22 55.0529 22 54.2549C22 53.4569 22.6472 52.8031 23.437 52.8031Z" fill="#00FEEF"/>
<path style="mix-blend-mode:screen" d="M14.0643 12.5828C14.0643 12.5828 33.3086 -5.92135 84.3801 5.92132C84.3801 5.92132 100.664 20.7247 96.2599 30.6854C96.2599 30.6854 97.7032 34.0477 91.7818 37.0084C90.2911 26.3011 71.0571 14.365 57.7341 11.4037C45.1513 11.4037 11.8438 15.5435 11.8438 15.5435L14.0643 12.5828Z" fill="url(#paint2_linear_233_1541)"/>
<path d="M10.3633 17.0797C10.3633 17.0797 12.5442 12.6037 17.5904 10.2089C22.6508 7.81415 37.0337 5.40512 37.8605 6.01807C38.673 6.63102 30.8472 9.45343 26.7989 10.9502C22.7506 12.4469 12.4302 18.2343 10.3633 17.0939V17.0797Z" fill="white"/>
<path style="mix-blend-mode:screen" d="M92.2422 80.1072C92.2422 80.1072 86.6003 86.1089 75.4978 88.0797C69.9855 89.0583 63.5512 90.369 62.9149 89.5601C62.2924 88.7549 70.4734 82.0734 74.7729 81.6949C79.0724 81.3164 90.5521 78.4493 92.246 80.0934L92.2422 80.1072Z" fill="url(#paint3_linear_233_1541)"/>
<path d="M10.8873 19.2586C9.84669 19.4154 7.25235 27.4836 7.40915 28.8092C7.56595 30.1349 10.6877 25.9441 11.1724 23.7061C11.657 21.4824 10.8873 19.2444 10.8873 19.2444V19.2586Z" fill="white"/>
<path style="mix-blend-mode:screen" d="M93.9283 77.0045C94.9782 76.9333 98.2238 69.1044 98.1759 67.7703C98.1281 66.4363 94.674 70.3578 94.0079 72.5486C93.343 74.7252 93.9271 77.0187 93.9271 77.0187L93.9283 77.0045Z" fill="url(#paint4_linear_233_1541)"/>
<path d="M88.8671 81.0058C88.2612 79.478 93.7144 72.5033 95.1058 72.5365C96.4972 72.5697 95.2629 77.1199 94.4101 78.1827C93.5798 79.2455 89.1588 81.7697 88.8671 81.0058Z" fill="white"/>
<defs>
<filter id="filter0_f_233_1541" x="19" y="16" width="63" height="67" filterUnits="userSpaceOnUse" color-interpolation-filters="sRGB">
<feFlood flood-opacity="0" result="BackgroundImageFix"/>
<feBlend mode="normal" in="SourceGraphic" in2="BackgroundImageFix" result="shape"/>
<feGaussianBlur stdDeviation="0.5" result="effect1_foregroundBlur_233_1541"/>
</filter>
<linearGradient id="paint0_linear_233_1541" x1="56.5277" y1="94.515" x2="56.5277" y2="2.9742" gradientUnits="userSpaceOnUse">
<stop stop-color="#008EC2"/>
<stop offset="1" stop-color="#002092"/>
</linearGradient>
<radialGradient id="paint1_radial_233_1541" cx="0" cy="0" r="1" gradientUnits="userSpaceOnUse" gradientTransform="translate(56.5561 82.8372) rotate(-3.94662) scale(49.6068 418.696)">
<stop stop-color="#00D3C2"/>
<stop offset="1" stop-color="#0083C2"/>
</radialGradient>
<linearGradient id="paint2_linear_233_1541" x1="17.286" y1="20.5482" x2="85.8541" y2="20.5482" gradientUnits="userSpaceOnUse">
<stop stop-color="#7ED140"/>
<stop offset="0.11" stop-color="#74C03B"/>
<stop offset="0.34" stop-color="#5A962E"/>
<stop offset="0.65" stop-color="#315219"/>
<stop offset="1"/>
</linearGradient>
<linearGradient id="paint3_linear_233_1541" x1="88.2692" y1="84.2467" x2="67.4857" y2="78.5768" gradientUnits="userSpaceOnUse">
<stop stop-color="#7ED140"/>
<stop offset="0.11" stop-color="#74C03B"/>
<stop offset="0.34" stop-color="#5A962E"/>
<stop offset="0.65" stop-color="#315219"/>
<stop offset="1"/>
</linearGradient>
<linearGradient id="paint4_linear_233_1541" x1="97.4445" y1="71.9821" x2="94.3822" y2="71.7308" gradientUnits="userSpaceOnUse">
<stop stop-color="#7ED140"/>
<stop offset="0.11" stop-color="#74C03B"/>
<stop offset="0.34" stop-color="#5A962E"/>
<stop offset="0.65" stop-color="#315219"/>
<stop offset="1"/>
</linearGradient>
</defs>
</svg>
