<svg width="105" height="97" viewBox="0 0 105 97" fill="none" xmlns="http://www.w3.org/2000/svg">
<path opacity="0.1" d="M95.9082 85.4822C95.7261 85.6784 95.5137 85.8746 95.271 86.0557C77.3087 100.651 27.8214 100.138 6.14219 87.0217C5.00438 86.3425 4.24583 85.618 3.88173 84.8633C-3.8099 68.9394 0.362092 21.0166 12.5746 10.6471C25.6823 -0.461901 76.0799 -5.48814 92.2672 8.63966C104.146 18.994 109.805 70.9619 95.9082 85.4822Z" fill="#3C3E48"/>
<path d="M92.9675 83.7033C92.7964 83.8886 92.5968 84.0739 92.3688 84.245C75.4913 98.0292 28.9927 97.5445 8.6228 85.1573C7.5537 84.5158 6.84097 83.8316 6.49886 83.1189C-0.728238 68.0802 3.19179 22.8218 14.6668 13.0288C26.9828 2.53741 74.3367 -2.20938 89.5464 11.133C100.708 20.9116 106.025 69.9903 92.9675 83.7033Z" fill="url(#paint0_linear_233_1559)"/>
<path d="M6.49886 80.1441C13.4694 94.6553 78.613 95.8099 92.9675 80.7285C106.025 67.0155 100.708 17.9368 89.5464 8.15817C74.3367 -5.18417 26.9828 -0.437375 14.6668 10.0683C3.19179 19.847 -0.728238 65.1054 6.49886 80.1441Z" fill="url(#paint1_radial_233_1559)"/>
<g style="mix-blend-mode:multiply" filter="url(#filter0_f_233_1559)">
<path d="M47.4196 69.0908L50.4174 64.1468L42.8514 53.9125L41.174 56.1935L47.4196 69.0908Z" fill="#CED6FF"/>
<path d="M67.5957 77.2949H34.5716V82H67.5957V77.2949Z" fill="#CED6FF"/>
<path d="M52.2138 64.1468L54.8548 69.0908L61.4572 56.1935L59.5419 53.9125L52.2138 64.1468Z" fill="#CED6FF"/>
<path d="M55.5804 71.0254C55.4615 71.2642 55.2235 71.3836 54.9856 71.3836C54.7477 71.3836 54.5098 71.2642 54.3908 71.0254L51.3929 65.6037L48.1452 71.0254C48.0263 71.2642 47.7884 71.3836 47.5504 71.3836C47.3125 71.3836 47.0746 71.2642 46.9556 71.0254L40.1152 56.9219L37.1174 58.1281L25.8278 62.1047V81.9881H33.3938V73.4257C33.3938 73.0674 33.7507 72.6972 34.1195 72.6972C34.4883 72.6972 34.8452 73.0555 34.8452 73.4257V75.7185H67.8693V73.4257C67.8693 73.0674 68.2262 72.6972 68.595 72.6972C68.9638 72.6972 69.3207 73.0555 69.3207 73.4257V81.9881H76.7678V62.2241L62.8372 57.0413L55.628 71.0254H55.5804Z" fill="#CED6FF"/>
<path d="M50.0605 30.8885C50.0605 31.2467 50.1795 31.4856 50.4174 31.7364C50.6554 31.9752 51.0123 32.0946 51.5 32.214V29.5629C50.5364 29.6823 50.0605 30.16 50.0605 30.8885Z" fill="#CED6FF"/>
<path d="M54.141 37.6357C54.141 37.2774 54.022 37.0386 53.6651 36.7878C53.4272 36.549 52.9395 36.4295 52.4636 36.1907V38.7224C53.6651 38.7224 54.141 38.3641 54.141 37.6357Z" fill="#CED6FF"/>
<path d="M32.4064 17.7523C33.263 17.7523 33.9648 18.4569 33.9648 19.3167C33.9648 20.1766 33.263 20.8811 32.4064 20.8811C31.5499 20.8811 30.848 20.1766 30.848 19.3167C30.848 18.4569 31.5499 17.7523 32.4064 17.7523Z" fill="#CED6FF"/>
<path d="M24.8404 26.7924C25.6969 26.7924 26.3988 27.497 26.3988 28.3568C26.3988 29.2166 25.6969 29.9212 24.8404 29.9212C23.9838 29.9212 23.282 29.2166 23.282 28.3568C23.282 27.497 23.9838 26.7924 24.8404 26.7924Z" fill="#CED6FF"/>
<path d="M72.8658 19.1973C73.7223 19.1973 74.4242 19.9019 74.4242 20.7617C74.4242 21.6215 73.7223 22.3261 72.8658 22.3261C72.0092 22.3261 71.3074 21.6215 71.3074 20.7617C71.3074 19.9019 72.0092 19.1973 72.8658 19.1973Z" fill="#CED6FF"/>
<path d="M78.8734 31.2467C79.7299 31.2467 80.4318 31.9513 80.4318 32.8111C80.4318 33.671 79.7299 34.3755 78.8734 34.3755C78.0169 34.3755 77.315 33.671 77.315 32.8111C77.315 31.9513 78.0169 31.2467 78.8734 31.2467Z" fill="#CED6FF"/>
<path d="M83.4416 50.8912C84.2981 50.8912 85 51.5958 85 52.4556C85 53.3155 84.2981 54.02 83.4416 54.02C82.5851 54.02 81.8832 53.3155 81.8832 52.4556C81.8832 51.5958 82.5851 50.8912 83.4416 50.8912Z" fill="#CED6FF"/>
<path d="M30.848 48.0013C31.6451 48.0013 32.2875 48.6462 32.2875 49.4463C32.2875 50.2464 31.6451 50.8912 30.848 50.8912C30.051 50.8912 29.4086 50.2464 29.4086 49.4463C29.4086 48.6462 30.051 48.0013 30.848 48.0013Z" fill="#CED6FF"/>
<path d="M37.6884 35.104C37.8074 38.4836 39.2468 41.4929 41.293 43.9052L39.6156 45.589C39.3777 45.8279 39.3777 46.3175 39.6156 46.6757C39.7346 46.7951 39.9725 46.9146 40.0914 46.9146C40.2104 46.9146 40.4483 46.7951 40.5673 46.6757L42.2447 44.9919C44.7667 47.2848 48.1333 48.6103 51.726 48.6103C55.3187 48.6103 58.6854 47.1653 61.2074 44.9919L62.8848 46.6757C63.0037 46.7951 63.2417 46.9146 63.3606 46.9146C63.4796 46.9146 63.7175 46.7951 63.8365 46.6757C64.0744 46.4369 64.0744 45.9473 63.8365 45.589L62.1591 43.9052C64.3242 41.4929 65.6447 38.4836 65.7637 35.104H68.1667C68.5236 35.104 68.8924 34.7457 68.8924 34.3755C68.8924 34.0053 68.5355 33.6471 68.1667 33.6471H65.7637C65.6447 30.2675 64.2053 27.2581 62.1591 24.8459L63.8365 23.162C64.0744 22.9232 64.0744 22.4336 63.8365 22.0753C63.5985 21.8365 63.1108 21.8365 62.7539 22.0753L61.3145 23.7591C58.9114 21.5857 55.9135 20.2601 52.5469 20.1407V17.7285C52.5469 17.3702 52.19 17 51.8212 17C51.4524 17 51.0955 17.3583 51.0955 17.7285V20.1407C47.7289 20.2601 44.731 21.7051 42.3279 23.7591L40.6506 22.0753C40.4126 21.8365 39.9249 21.8365 39.568 22.0753C39.3301 22.3142 39.3301 22.8038 39.568 23.162L41.2454 24.8459C39.0803 27.2581 37.7598 30.2675 37.6408 33.6471H35.2377C34.8809 33.6471 34.5121 34.0053 34.5121 34.3755C34.5121 34.8532 34.869 35.104 35.2377 35.104H37.6884ZM50.5364 35.5817C49.8107 35.3428 49.2159 35.104 48.7401 34.8532C48.2642 34.6024 47.7765 34.3755 47.5385 34.0053C47.1816 33.6471 46.9437 33.2769 46.8129 32.9186C46.6939 32.4409 46.5749 31.9513 46.5749 31.4736C46.5749 30.7452 46.6939 30.0287 46.9318 29.551C47.1697 28.9539 47.5266 28.4643 48.0144 28.106C48.4902 27.7477 48.978 27.3775 49.5728 27.1387C50.1676 26.8999 50.7743 26.7805 51.5 26.661V24.4876H52.9395V26.661C53.9031 26.7805 54.7358 26.8999 55.4615 27.2581C56.3061 27.6164 57.0199 27.8552 57.5076 28.2254L55.9492 31.1154C55.9492 31.1154 55.8303 30.996 55.5923 30.8765C55.3544 30.7571 55.1165 30.6377 54.7477 30.5183C54.3908 30.3989 54.022 30.2794 53.6651 30.0406C53.3082 29.9212 52.9395 29.8018 52.4636 29.8018V32.6917L53.1893 32.8111C53.915 33.05 54.5098 33.1694 55.1165 33.4082C55.7113 33.6471 56.199 33.8859 56.5559 34.2561C56.9128 34.6144 57.2816 34.9846 57.5195 35.4622C57.7575 35.9399 57.8764 36.549 57.8764 37.2655C57.8764 38.1134 57.7575 38.7105 57.4006 39.3195C57.1626 39.9166 56.8058 40.4062 56.318 40.7645C55.8422 41.1227 55.3544 41.3616 54.6406 41.6123C53.915 41.8512 53.4391 41.8512 52.7253 41.9706V44.3829H51.2859V41.8512C50.3223 41.7318 49.3706 41.6123 48.407 41.2541C47.4434 40.8958 46.6106 40.5256 45.8849 40.048L47.4434 37.0386C47.4434 37.158 47.6813 37.2774 47.9192 37.3968C48.1571 37.5163 48.514 37.7551 48.8828 37.8745C49.2397 37.9939 49.7275 38.2328 50.2033 38.3522C50.6792 38.4716 51.1669 38.591 51.6428 38.7105V35.9399L50.5602 35.5817H50.5364Z" fill="#CED6FF"/>
<path d="M27.1245 42.6991C27.1245 40.1674 25.0783 38.1134 22.5563 38.1134C20.0343 38.1134 18 40.1674 18 42.6991C18 45.2308 20.0462 47.2848 22.5563 47.2848C25.0664 47.2848 27.1245 45.1113 27.1245 42.6991Z" fill="#CED6FF"/>
<path d="M75.8755 41.1347C73.8294 41.1347 72.152 42.8185 72.152 44.8725C72.152 46.9265 73.8294 48.6103 75.8755 48.6103C77.9217 48.6103 79.5991 46.9265 79.5991 44.8725C79.5991 42.8185 77.9217 41.1347 75.8755 41.1347Z" fill="#CED6FF"/>
</g>
<path d="M49.4196 67.0908L52.4174 62.1468L44.8514 51.9125L43.174 54.1935L49.4196 67.0908Z" fill="#00FEEF"/>
<path d="M69.5957 75.2949H36.5716V80H69.5957V75.2949Z" fill="#00FEEF"/>
<path d="M54.2138 62.1468L56.8548 67.0908L63.4572 54.1935L61.5419 51.9125L54.2138 62.1468Z" fill="#00FEEF"/>
<path d="M57.5804 69.0254C57.4615 69.2642 57.2235 69.3836 56.9856 69.3836C56.7477 69.3836 56.5098 69.2642 56.3908 69.0254L53.3929 63.6037L50.1452 69.0254C50.0263 69.2642 49.7884 69.3836 49.5504 69.3836C49.3125 69.3836 49.0746 69.2642 48.9556 69.0254L42.1152 54.9219L39.1174 56.1281L27.8278 60.1047V79.9881H35.3938V71.4257C35.3938 71.0674 35.7507 70.6972 36.1195 70.6972C36.4883 70.6972 36.8452 71.0555 36.8452 71.4257V73.7185H69.8693V71.4257C69.8693 71.0674 70.2262 70.6972 70.595 70.6972C70.9638 70.6972 71.3207 71.0555 71.3207 71.4257V79.9881H78.7678V60.2241L64.8372 55.0413L57.628 69.0254H57.5804Z" fill="#00FEEF"/>
<path d="M52.0605 28.8885C52.0605 29.2467 52.1795 29.4856 52.4174 29.7364C52.6554 29.9752 53.0123 30.0946 53.5 30.214V27.5629C52.5364 27.6823 52.0605 28.16 52.0605 28.8885Z" fill="#00FEEF"/>
<path d="M56.141 35.6357C56.141 35.2774 56.022 35.0386 55.6651 34.7878C55.4272 34.549 54.9395 34.4295 54.4636 34.1907V36.7224C55.6651 36.7224 56.141 36.3641 56.141 35.6357Z" fill="#00FEEF"/>
<path d="M34.4064 15.7523C35.263 15.7523 35.9648 16.4569 35.9648 17.3167C35.9648 18.1766 35.263 18.8811 34.4064 18.8811C33.5499 18.8811 32.848 18.1766 32.848 17.3167C32.848 16.4569 33.5499 15.7523 34.4064 15.7523Z" fill="#00FEEF"/>
<path d="M26.8404 24.7924C27.6969 24.7924 28.3988 25.497 28.3988 26.3568C28.3988 27.2166 27.6969 27.9212 26.8404 27.9212C25.9838 27.9212 25.282 27.2166 25.282 26.3568C25.282 25.497 25.9838 24.7924 26.8404 24.7924Z" fill="#00FEEF"/>
<path d="M74.8658 17.1973C75.7223 17.1973 76.4242 17.9019 76.4242 18.7617C76.4242 19.6215 75.7223 20.3261 74.8658 20.3261C74.0092 20.3261 73.3074 19.6215 73.3074 18.7617C73.3074 17.9019 74.0092 17.1973 74.8658 17.1973Z" fill="#00FEEF"/>
<path d="M80.8734 29.2467C81.7299 29.2467 82.4318 29.9513 82.4318 30.8111C82.4318 31.671 81.7299 32.3755 80.8734 32.3755C80.0169 32.3755 79.315 31.671 79.315 30.8111C79.315 29.9513 80.0169 29.2467 80.8734 29.2467Z" fill="#00FEEF"/>
<path d="M85.4416 48.8912C86.2981 48.8912 87 49.5958 87 50.4556C87 51.3155 86.2981 52.02 85.4416 52.02C84.5851 52.02 83.8832 51.3155 83.8832 50.4556C83.8832 49.5958 84.5851 48.8912 85.4416 48.8912Z" fill="#00FEEF"/>
<path d="M32.848 46.0013C33.6451 46.0013 34.2875 46.6462 34.2875 47.4463C34.2875 48.2464 33.6451 48.8912 32.848 48.8912C32.051 48.8912 31.4086 48.2464 31.4086 47.4463C31.4086 46.6462 32.051 46.0013 32.848 46.0013Z" fill="#00FEEF"/>
<path d="M39.6884 33.104C39.8074 36.4836 41.2468 39.4929 43.293 41.9052L41.6156 43.589C41.3777 43.8279 41.3777 44.3175 41.6156 44.6757C41.7346 44.7951 41.9725 44.9146 42.0914 44.9146C42.2104 44.9146 42.4483 44.7951 42.5673 44.6757L44.2447 42.9919C46.7667 45.2848 50.1333 46.6103 53.726 46.6103C57.3187 46.6103 60.6854 45.1653 63.2074 42.9919L64.8848 44.6757C65.0037 44.7951 65.2417 44.9146 65.3606 44.9146C65.4796 44.9146 65.7175 44.7951 65.8365 44.6757C66.0744 44.4369 66.0744 43.9473 65.8365 43.589L64.1591 41.9052C66.3242 39.4929 67.6447 36.4836 67.7637 33.104H70.1667C70.5236 33.104 70.8924 32.7457 70.8924 32.3755C70.8924 32.0053 70.5355 31.6471 70.1667 31.6471H67.7637C67.6447 28.2675 66.2053 25.2581 64.1591 22.8459L65.8365 21.162C66.0744 20.9232 66.0744 20.4336 65.8365 20.0753C65.5985 19.8365 65.1108 19.8365 64.7539 20.0753L63.3145 21.7591C60.9114 19.5857 57.9135 18.2601 54.5469 18.1407V15.7285C54.5469 15.3702 54.19 15 53.8212 15C53.4524 15 53.0955 15.3583 53.0955 15.7285V18.1407C49.7289 18.2601 46.731 19.7051 44.3279 21.7591L42.6506 20.0753C42.4126 19.8365 41.9249 19.8365 41.568 20.0753C41.3301 20.3142 41.3301 20.8038 41.568 21.162L43.2454 22.8459C41.0803 25.2581 39.7598 28.2675 39.6408 31.6471H37.2377C36.8809 31.6471 36.5121 32.0053 36.5121 32.3755C36.5121 32.8532 36.869 33.104 37.2377 33.104H39.6884ZM52.5364 33.5817C51.8107 33.3428 51.2159 33.104 50.7401 32.8532C50.2642 32.6024 49.7765 32.3755 49.5385 32.0053C49.1816 31.6471 48.9437 31.2769 48.8129 30.9186C48.6939 30.4409 48.5749 29.9513 48.5749 29.4736C48.5749 28.7452 48.6939 28.0287 48.9318 27.551C49.1697 26.9539 49.5266 26.4643 50.0144 26.106C50.4902 25.7477 50.978 25.3775 51.5728 25.1387C52.1676 24.8999 52.7743 24.7805 53.5 24.661V22.4876H54.9395V24.661C55.9031 24.7805 56.7358 24.8999 57.4615 25.2581C58.3061 25.6164 59.0199 25.8552 59.5076 26.2254L57.9492 29.1154C57.9492 29.1154 57.8303 28.996 57.5923 28.8765C57.3544 28.7571 57.1165 28.6377 56.7477 28.5183C56.3908 28.3989 56.022 28.2794 55.6651 28.0406C55.3082 27.9212 54.9395 27.8018 54.4636 27.8018V30.6917L55.1893 30.8111C55.915 31.05 56.5098 31.1694 57.1165 31.4082C57.7113 31.6471 58.199 31.8859 58.5559 32.2561C58.9128 32.6144 59.2816 32.9846 59.5195 33.4622C59.7575 33.9399 59.8764 34.549 59.8764 35.2655C59.8764 36.1134 59.7575 36.7105 59.4006 37.3195C59.1626 37.9166 58.8058 38.4062 58.318 38.7645C57.8422 39.1227 57.3544 39.3616 56.6406 39.6123C55.915 39.8512 55.4391 39.8512 54.7253 39.9706V42.3829H53.2859V39.8512C52.3223 39.7318 51.3706 39.6123 50.407 39.2541C49.4434 38.8958 48.6106 38.5256 47.8849 38.048L49.4434 35.0386C49.4434 35.158 49.6813 35.2774 49.9192 35.3968C50.1571 35.5163 50.514 35.7551 50.8828 35.8745C51.2397 35.9939 51.7275 36.2328 52.2033 36.3522C52.6792 36.4716 53.1669 36.591 53.6428 36.7105V33.9399L52.5602 33.5817H52.5364Z" fill="#00FEEF"/>
<path d="M29.1245 40.6991C29.1245 38.1674 27.0783 36.1134 24.5563 36.1134C22.0343 36.1134 20 38.1674 20 40.6991C20 43.2308 22.0462 45.2848 24.5563 45.2848C27.0664 45.2848 29.1245 43.1113 29.1245 40.6991Z" fill="#00FEEF"/>
<path d="M77.8755 39.1347C75.8294 39.1347 74.152 40.8185 74.152 42.8725C74.152 44.9265 75.8294 46.6103 77.8755 46.6103C79.9217 46.6103 81.5991 44.9265 81.5991 42.8725C81.5991 40.8185 79.9217 39.1347 77.8755 39.1347Z" fill="#00FEEF"/>
<path style="mix-blend-mode:screen" d="M14.0643 12.5828C14.0643 12.5828 33.3086 -5.92135 84.3801 5.92132C84.3801 5.92132 100.664 20.7247 96.2599 30.6854C96.2599 30.6854 97.7032 34.0477 91.7818 37.0084C90.2911 26.3011 71.0571 14.365 57.7341 11.4037C45.1513 11.4037 11.8438 15.5435 11.8438 15.5435L14.0643 12.5828Z" fill="url(#paint2_linear_233_1559)"/>
<path d="M10.3633 17.0797C10.3633 17.0797 12.5442 12.6037 17.5904 10.2089C22.6508 7.81415 37.0337 5.40512 37.8605 6.01807C38.673 6.63102 30.8472 9.45343 26.7989 10.9502C22.7506 12.4469 12.4302 18.2343 10.3633 17.0939V17.0797Z" fill="white"/>
<path style="mix-blend-mode:screen" d="M92.2422 80.1072C92.2422 80.1072 86.6003 86.1089 75.4978 88.0797C69.9855 89.0583 63.5512 90.369 62.9149 89.5601C62.2924 88.7549 70.4734 82.0734 74.7729 81.6949C79.0724 81.3164 90.5521 78.4493 92.246 80.0934L92.2422 80.1072Z" fill="url(#paint3_linear_233_1559)"/>
<path d="M10.8873 19.2586C9.84669 19.4154 7.25235 27.4836 7.40915 28.8092C7.56595 30.1349 10.6877 25.9441 11.1724 23.7061C11.657 21.4824 10.8873 19.2444 10.8873 19.2444V19.2586Z" fill="white"/>
<path style="mix-blend-mode:screen" d="M93.9283 77.0045C94.9782 76.9333 98.2238 69.1044 98.1759 67.7703C98.1281 66.4363 94.674 70.3578 94.0079 72.5486C93.343 74.7252 93.9271 77.0187 93.9271 77.0187L93.9283 77.0045Z" fill="url(#paint4_linear_233_1559)"/>
<path d="M88.8671 81.0058C88.2612 79.478 93.7144 72.5033 95.1058 72.5365C96.4972 72.5697 95.2629 77.1199 94.4101 78.1827C93.5798 79.2455 89.1588 81.7697 88.8671 81.0058Z" fill="white"/>
<defs>
<filter id="filter0_f_233_1559" x="17" y="16" width="69" height="67" filterUnits="userSpaceOnUse" color-interpolation-filters="sRGB">
<feFlood flood-opacity="0" result="BackgroundImageFix"/>
<feBlend mode="normal" in="SourceGraphic" in2="BackgroundImageFix" result="shape"/>
<feGaussianBlur stdDeviation="0.5" result="effect1_foregroundBlur_233_1559"/>
</filter>
<linearGradient id="paint0_linear_233_1559" x1="56.5277" y1="94.515" x2="56.5277" y2="2.9742" gradientUnits="userSpaceOnUse">
<stop stop-color="#008EC2"/>
<stop offset="1" stop-color="#002092"/>
</linearGradient>
<radialGradient id="paint1_radial_233_1559" cx="0" cy="0" r="1" gradientUnits="userSpaceOnUse" gradientTransform="translate(56.5561 82.8372) rotate(-3.94662) scale(49.6068 418.696)">
<stop stop-color="#00D3C2"/>
<stop offset="1" stop-color="#0083C2"/>
</radialGradient>
<linearGradient id="paint2_linear_233_1559" x1="17.286" y1="20.5482" x2="85.8541" y2="20.5482" gradientUnits="userSpaceOnUse">
<stop stop-color="#7ED140"/>
<stop offset="0.11" stop-color="#74C03B"/>
<stop offset="0.34" stop-color="#5A962E"/>
<stop offset="0.65" stop-color="#315219"/>
<stop offset="1"/>
</linearGradient>
<linearGradient id="paint3_linear_233_1559" x1="88.2692" y1="84.2467" x2="67.4857" y2="78.5768" gradientUnits="userSpaceOnUse">
<stop stop-color="#7ED140"/>
<stop offset="0.11" stop-color="#74C03B"/>
<stop offset="0.34" stop-color="#5A962E"/>
<stop offset="0.65" stop-color="#315219"/>
<stop offset="1"/>
</linearGradient>
<linearGradient id="paint4_linear_233_1559" x1="97.4445" y1="71.9821" x2="94.3822" y2="71.7308" gradientUnits="userSpaceOnUse">
<stop stop-color="#7ED140"/>
<stop offset="0.11" stop-color="#74C03B"/>
<stop offset="0.34" stop-color="#5A962E"/>
<stop offset="0.65" stop-color="#315219"/>
<stop offset="1"/>
</linearGradient>
</defs>
</svg>
