<svg width="105" height="97" viewBox="0 0 105 97" fill="none" xmlns="http://www.w3.org/2000/svg">
<path opacity="0.1" d="M95.9082 85.4822C95.7261 85.6784 95.5137 85.8746 95.271 86.0557C77.3087 100.651 27.8214 100.138 6.14219 87.0217C5.00438 86.3425 4.24583 85.618 3.88173 84.8633C-3.8099 68.9394 0.362092 21.0166 12.5746 10.6471C25.6823 -0.461901 76.0799 -5.48814 92.2672 8.63966C104.146 18.994 109.805 70.9619 95.9082 85.4822Z" fill="#3C3E48"/>
<path d="M92.9675 83.7033C92.7964 83.8886 92.5968 84.0739 92.3688 84.245C75.4913 98.0292 28.9927 97.5445 8.6228 85.1573C7.5537 84.5158 6.84097 83.8316 6.49886 83.1189C-0.728238 68.0802 3.19179 22.8218 14.6668 13.0288C26.9828 2.53741 74.3367 -2.20938 89.5464 11.133C100.708 20.9116 106.025 69.9903 92.9675 83.7033Z" fill="url(#paint0_linear_233_1595)"/>
<path d="M6.49886 80.1441C13.4694 94.6553 78.613 95.8099 92.9675 80.7285C106.025 67.0155 100.708 17.9368 89.5464 8.15817C74.3367 -5.18417 26.9828 -0.437375 14.6668 10.0683C3.19179 19.847 -0.728238 65.1054 6.49886 80.1441Z" fill="url(#paint1_radial_233_1595)"/>
<g style="mix-blend-mode:multiply" filter="url(#filter0_f_233_1595)">
<path d="M57.9733 49.1667C57.9733 45.0654 54.5476 41.6419 50.4435 41.6419C46.3394 41.6419 42.9136 45.0654 42.9136 49.1667C42.9136 53.268 46.3394 56.6915 50.4435 56.6915C54.5476 56.6915 57.9733 53.268 57.9733 49.1667ZM48.3858 53.381C47.8205 53.155 47.2438 52.9291 46.7916 52.5788L47.7074 50.7598C47.7074 50.7598 47.8205 50.8728 47.9335 50.9857C48.0466 51.0987 48.2727 51.2117 48.4988 51.3247C48.7249 51.4377 48.9511 51.5507 49.3016 51.6637C49.6407 51.7766 49.8669 51.7766 50.2173 51.8896V50.1836L49.652 49.9576C49.1998 49.8446 48.8493 49.7316 48.5101 49.5056C48.1709 49.3927 47.9448 49.1667 47.7074 48.9407C47.4813 48.7148 47.3682 48.4888 47.2551 48.2515C47.1421 48.0256 47.1421 47.6866 47.1421 47.3363C47.1421 46.8844 47.2551 46.5342 47.3682 46.1952C47.4813 45.8562 47.7074 45.506 47.9335 45.28C48.1596 45.0541 48.4988 44.8281 48.8493 44.7151C49.1885 44.6021 49.652 44.4891 49.9912 44.4891V43.235H50.907V44.4891C51.4723 44.4891 52.0489 44.7151 52.5012 44.8281C52.9534 45.0541 53.417 45.28 53.7562 45.393L52.8404 47.0991C52.8404 47.0991 52.7273 46.9861 52.6142 46.9861C52.5012 46.8731 52.3881 46.8731 52.162 46.7601C51.9359 46.6471 51.7098 46.5342 51.4723 46.5342C51.2462 46.4212 51.0201 46.4212 50.7827 46.3082V48.0143L51.2349 48.1272C51.6871 48.2402 52.0376 48.3532 52.3768 48.4662C52.716 48.5792 53.0665 48.8051 53.2926 49.0311C53.5187 49.2571 53.7449 49.483 53.8579 49.8333C53.971 50.1723 54.084 50.5225 54.084 50.9744C54.084 51.4264 53.971 51.8896 53.8579 52.2286C53.6318 52.5675 53.4057 52.7935 53.1682 53.0308C52.8291 53.2567 52.6029 53.3697 52.1394 53.4827C51.8002 53.5957 51.3367 53.7087 50.9975 53.7087V55.1888H50.0817V53.7087C49.5164 53.5957 48.9398 53.4827 48.3745 53.3697L48.3858 53.381Z" fill="#CED6FF"/>
<path d="M51.8115 51.0987C51.8115 50.8728 51.6984 50.7598 51.5854 50.5338C51.3593 50.4208 51.1331 50.3078 50.8957 50.1949V51.7879C51.461 51.7879 51.8115 51.562 51.8115 51.0987Z" fill="#CED6FF"/>
<path d="M49.3016 46.9974C49.3016 47.2234 49.4146 47.3363 49.5277 47.4493C49.6407 47.5623 49.8669 47.6753 50.2173 47.7883V46.1952C49.652 46.3082 49.3016 46.5342 49.3016 46.9974Z" fill="#CED6FF"/>
<path d="M71.8912 48.4775C71.552 48.4775 71.2015 48.8164 71.2015 49.1667C71.2015 60.3409 62.3036 69.47 51.2349 69.809V64.6795C59.4544 64.3405 66.0685 57.4937 66.0685 49.1667C66.0685 40.8397 59.4544 34.0042 51.2349 33.6539V27.7222C51.2349 27.3833 50.8957 27.033 50.5452 27.033C38.3346 27.033 28.4079 36.9531 28.4079 49.1554C28.4079 49.4944 28.747 49.8446 29.0975 49.8446C29.448 49.8446 29.7872 49.5056 29.7872 49.1554C29.7872 37.9812 38.6851 28.8521 49.7538 28.5131V33.6426C41.5343 33.9816 34.9202 40.8284 34.9202 49.1554C34.9202 57.4824 41.5343 64.3179 49.7538 64.6682V70.5999C49.7538 70.9388 50.093 71.2891 50.4435 71.2891C62.6541 71.2891 72.5808 61.369 72.5808 49.1667C72.5808 48.7148 72.2416 48.4775 71.8912 48.4775ZM41.5343 49.1667C41.5343 44.2632 45.5253 40.2748 50.4322 40.2748C55.339 40.2748 59.3301 44.2632 59.3301 49.1667C59.3301 54.0702 55.339 58.0586 50.4322 58.0586C45.5253 58.0586 41.5343 54.0702 41.5343 49.1667Z" fill="#CED6FF"/>
<path d="M75.6561 30.5694C75.3169 30.7954 75.3169 31.2586 75.43 31.5976C79.0818 36.7271 81.0265 42.8848 81.0265 49.2684C81.0265 55.0871 79.4323 60.7815 76.2327 65.6963L75.3169 62.8491C75.2038 62.5102 74.7516 62.2842 74.4011 62.3972C74.0619 62.5102 73.8358 62.9621 73.9489 63.3124L75.43 67.651V67.8769L75.543 67.9899H80.1107C80.4499 67.9899 80.8004 67.651 80.8004 67.3007C80.8004 66.9505 80.4612 66.6115 80.1107 66.6115H77.1485C80.4612 61.482 82.2815 55.4373 82.2815 49.2797C82.2815 42.6701 80.2238 36.2752 76.4588 30.8067C76.4588 30.3548 76.0066 30.3548 75.6561 30.5807V30.5694Z" fill="#CED6FF"/>
<path d="M32.4102 24.1858C32.5233 24.1858 32.6363 24.1858 32.8625 24.0728C37.9954 20.4234 44.1573 18.4801 50.5565 18.4801C56.3792 18.4801 62.0775 20.0732 66.9843 23.2706L64.1352 24.1858C63.796 24.2988 63.5699 24.7507 63.6829 25.101C63.796 25.4399 64.0221 25.5529 64.3726 25.5529H64.5987L68.9403 24.0728H69.1664L69.2794 23.9598V19.2823C69.2794 18.9433 68.9403 18.5931 68.5898 18.5931C68.2393 18.5931 67.9001 18.932 67.9001 19.2823V22.1295C62.7671 18.819 56.7184 17 50.5565 17C43.9425 17 37.5432 19.0563 32.071 22.8187C31.7319 23.0447 31.6188 23.5079 31.8449 23.8469C31.958 24.0728 32.1841 24.1858 32.4102 24.1858Z" fill="#CED6FF"/>
<path d="M69.042 74.3622C68.8159 74.0233 68.3523 74.0233 68.0132 74.1363C62.8802 77.7857 56.7184 79.729 50.3304 79.729C44.5078 79.729 38.8095 78.1359 33.9026 74.9385L36.7518 74.0233C37.091 73.9103 37.3171 73.4584 37.204 73.1081C37.091 72.7692 36.6387 72.5432 36.2882 72.6562L32.1841 74.1363H31.958L31.8449 74.2493V78.9268C31.8449 79.2658 32.1841 79.616 32.5346 79.616C32.8851 79.616 33.2243 79.2771 33.2243 78.9268V75.9666C38.3572 79.2771 44.406 81.0961 50.5678 81.0961C57.1819 81.0961 63.5812 79.0398 69.0533 75.2774C69.2794 75.1644 69.2794 74.7125 69.0533 74.3622H69.042Z" fill="#CED6FF"/>
<path d="M26.8137 35.134L25.3326 30.7954V30.5694L25.2195 30.4565H20.5388C20.1996 30.4565 19.8491 30.7954 19.8491 31.1457C19.8491 31.4959 20.1883 31.8349 20.5388 31.8349H23.501C20.1883 36.9644 18.368 43.009 18.368 49.1667C18.368 55.7763 20.4258 62.1712 24.1907 67.6397C24.3037 67.8656 24.5299 67.9786 24.756 67.9786C24.8691 67.9786 24.9821 67.9786 25.2082 67.8656C25.5474 67.6397 25.6605 67.1764 25.4344 66.8375C21.7825 61.708 19.8378 55.5503 19.8378 49.1667C19.8378 43.348 21.432 37.6536 24.6316 32.7387L25.5474 35.586C25.6605 35.9249 25.8866 36.0379 26.2371 36.0379H26.4632C26.8024 35.9249 27.0285 35.586 26.8024 35.1227L26.8137 35.134Z" fill="#CED6FF"/>
<path d="M27.6164 20.6494C28.4344 20.6494 29.0975 19.9867 29.0975 19.1693C29.0975 18.3519 28.4344 17.6892 27.6164 17.6892C26.7984 17.6892 26.1353 18.3519 26.1353 19.1693C26.1353 19.9867 26.7984 20.6494 27.6164 20.6494Z" fill="#CED6FF"/>
<path d="M80.4499 71.854C81.2639 71.854 81.931 72.5206 81.931 73.3341C81.931 74.1476 81.2639 74.8142 80.4499 74.8142C79.6358 74.8142 78.9688 74.1476 78.9688 73.3341C78.9688 72.5206 79.6358 71.854 80.4499 71.854Z" fill="#CED6FF"/>
<path d="M70.4101 82C71.228 82 71.8912 81.3373 71.8912 80.5199C71.8912 79.7025 71.228 79.0398 70.4101 79.0398C69.5921 79.0398 68.929 79.7025 68.929 80.5199C68.929 81.3373 69.5921 82 70.4101 82Z" fill="#CED6FF"/>
<path d="M19.0577 23.3836C19.8718 23.3836 20.5388 24.0502 20.5388 24.8637C20.5388 25.6772 19.8718 26.3438 19.0577 26.3438C18.2437 26.3438 17.5766 25.6772 17.5766 24.8637C17.5766 24.0502 18.2437 23.3836 19.0577 23.3836Z" fill="#CED6FF"/>
<path d="M27.6164 79.1528C28.4344 79.1528 29.0975 78.4901 29.0975 77.6727C29.0975 76.8553 28.4344 76.1926 27.6164 76.1926C26.7984 76.1926 26.1353 76.8553 26.1353 77.6727C26.1353 78.4901 26.7984 79.1528 27.6164 79.1528Z" fill="#CED6FF"/>
<path d="M20.5388 69.7977C18.5942 69.7977 17 71.3907 17 73.3341C17 75.2774 18.5942 76.8705 20.5388 76.8705C22.4835 76.8705 24.0776 75.2774 24.0776 73.3341C24.0776 71.3907 22.4835 69.7977 20.5388 69.7977Z" fill="#CED6FF"/>
<path d="M79.6585 17.113C77.2616 17.113 75.3169 19.0563 75.3169 21.4516C75.3169 23.8469 77.2616 25.7902 79.6585 25.7902C82.0553 25.7902 84 23.8469 84 21.4516C84 19.0563 82.0553 17.113 79.6585 17.113Z" fill="#CED6FF"/>
</g>
<path d="M59.9733 47.1667C59.9733 43.0654 56.5476 39.6419 52.4435 39.6419C48.3394 39.6419 44.9136 43.0654 44.9136 47.1667C44.9136 51.268 48.3394 54.6915 52.4435 54.6915C56.5476 54.6915 59.9733 51.268 59.9733 47.1667ZM50.3858 51.381C49.8205 51.155 49.2438 50.9291 48.7916 50.5788L49.7074 48.7598C49.7074 48.7598 49.8205 48.8728 49.9335 48.9857C50.0466 49.0987 50.2727 49.2117 50.4988 49.3247C50.7249 49.4377 50.9511 49.5507 51.3016 49.6637C51.6407 49.7766 51.8669 49.7766 52.2173 49.8896V48.1836L51.652 47.9576C51.1998 47.8446 50.8493 47.7316 50.5101 47.5056C50.1709 47.3927 49.9448 47.1667 49.7074 46.9407C49.4813 46.7148 49.3682 46.4888 49.2551 46.2515C49.1421 46.0256 49.1421 45.6866 49.1421 45.3363C49.1421 44.8844 49.2551 44.5342 49.3682 44.1952C49.4813 43.8562 49.7074 43.506 49.9335 43.28C50.1596 43.0541 50.4988 42.8281 50.8493 42.7151C51.1885 42.6021 51.652 42.4891 51.9912 42.4891V41.235H52.907V42.4891C53.4723 42.4891 54.0489 42.7151 54.5012 42.8281C54.9534 43.0541 55.417 43.28 55.7562 43.393L54.8404 45.0991C54.8404 45.0991 54.7273 44.9861 54.6142 44.9861C54.5012 44.8731 54.3881 44.8731 54.162 44.7601C53.9359 44.6471 53.7098 44.5342 53.4723 44.5342C53.2462 44.4212 53.0201 44.4212 52.7827 44.3082V46.0143L53.2349 46.1272C53.6871 46.2402 54.0376 46.3532 54.3768 46.4662C54.716 46.5792 55.0665 46.8051 55.2926 47.0311C55.5187 47.2571 55.7449 47.483 55.8579 47.8333C55.971 48.1723 56.084 48.5225 56.084 48.9744C56.084 49.4264 55.971 49.8896 55.8579 50.2286C55.6318 50.5675 55.4057 50.7935 55.1682 51.0308C54.8291 51.2567 54.6029 51.3697 54.1394 51.4827C53.8002 51.5957 53.3367 51.7087 52.9975 51.7087V53.1888H52.0817V51.7087C51.5164 51.5957 50.9398 51.4827 50.3745 51.3697L50.3858 51.381Z" fill="#00FEEF"/>
<path d="M53.8115 49.0987C53.8115 48.8728 53.6984 48.7598 53.5854 48.5338C53.3593 48.4208 53.1331 48.3078 52.8957 48.1949V49.7879C53.461 49.7879 53.8115 49.562 53.8115 49.0987Z" fill="#00FEEF"/>
<path d="M51.3016 44.9974C51.3016 45.2234 51.4146 45.3363 51.5277 45.4493C51.6407 45.5623 51.8669 45.6753 52.2173 45.7883V44.1952C51.652 44.3082 51.3016 44.5342 51.3016 44.9974Z" fill="#00FEEF"/>
<path d="M73.8912 46.4775C73.552 46.4775 73.2015 46.8164 73.2015 47.1667C73.2015 58.3409 64.3036 67.47 53.2349 67.809V62.6795C61.4544 62.3405 68.0685 55.4937 68.0685 47.1667C68.0685 38.8397 61.4544 32.0042 53.2349 31.6539V25.7222C53.2349 25.3833 52.8957 25.033 52.5452 25.033C40.3346 25.033 30.4079 34.9531 30.4079 47.1554C30.4079 47.4944 30.747 47.8446 31.0975 47.8446C31.448 47.8446 31.7872 47.5056 31.7872 47.1554C31.7872 35.9812 40.6851 26.8521 51.7538 26.5131V31.6426C43.5343 31.9816 36.9202 38.8284 36.9202 47.1554C36.9202 55.4824 43.5343 62.3179 51.7538 62.6682V68.5999C51.7538 68.9388 52.093 69.2891 52.4435 69.2891C64.6541 69.2891 74.5808 59.369 74.5808 47.1667C74.5808 46.7148 74.2416 46.4775 73.8912 46.4775ZM43.5343 47.1667C43.5343 42.2632 47.5253 38.2748 52.4322 38.2748C57.339 38.2748 61.3301 42.2632 61.3301 47.1667C61.3301 52.0702 57.339 56.0586 52.4322 56.0586C47.5253 56.0586 43.5343 52.0702 43.5343 47.1667Z" fill="#00FEEF"/>
<path d="M77.6561 28.5694C77.3169 28.7954 77.3169 29.2586 77.43 29.5976C81.0818 34.7271 83.0265 40.8848 83.0265 47.2684C83.0265 53.0871 81.4323 58.7815 78.2327 63.6963L77.3169 60.8491C77.2038 60.5102 76.7516 60.2842 76.4011 60.3972C76.0619 60.5102 75.8358 60.9621 75.9489 61.3124L77.43 65.651V65.8769L77.543 65.9899H82.1107C82.4499 65.9899 82.8004 65.651 82.8004 65.3007C82.8004 64.9505 82.4612 64.6115 82.1107 64.6115H79.1485C82.4612 59.482 84.2815 53.4373 84.2815 47.2797C84.2815 40.6701 82.2238 34.2752 78.4588 28.8067C78.4588 28.3548 78.0066 28.3548 77.6561 28.5807V28.5694Z" fill="#00FEEF"/>
<path d="M34.4102 22.1858C34.5233 22.1858 34.6363 22.1858 34.8625 22.0728C39.9954 18.4234 46.1573 16.4801 52.5565 16.4801C58.3792 16.4801 64.0775 18.0732 68.9843 21.2706L66.1352 22.1858C65.796 22.2988 65.5699 22.7507 65.6829 23.101C65.796 23.4399 66.0221 23.5529 66.3726 23.5529H66.5987L70.9403 22.0728H71.1664L71.2794 21.9598V17.2823C71.2794 16.9433 70.9403 16.5931 70.5898 16.5931C70.2393 16.5931 69.9001 16.932 69.9001 17.2823V20.1295C64.7671 16.819 58.7184 15 52.5565 15C45.9425 15 39.5432 17.0563 34.071 20.8187C33.7319 21.0447 33.6188 21.5079 33.8449 21.8469C33.958 22.0728 34.1841 22.1858 34.4102 22.1858Z" fill="#00FEEF"/>
<path d="M71.042 72.3622C70.8159 72.0233 70.3523 72.0233 70.0132 72.1363C64.8802 75.7857 58.7184 77.729 52.3304 77.729C46.5078 77.729 40.8095 76.1359 35.9026 72.9385L38.7518 72.0233C39.091 71.9103 39.3171 71.4584 39.204 71.1081C39.091 70.7692 38.6387 70.5432 38.2882 70.6562L34.1841 72.1363H33.958L33.8449 72.2493V76.9268C33.8449 77.2658 34.1841 77.616 34.5346 77.616C34.8851 77.616 35.2243 77.2771 35.2243 76.9268V73.9666C40.3572 77.2771 46.406 79.0961 52.5678 79.0961C59.1819 79.0961 65.5812 77.0398 71.0533 73.2774C71.2794 73.1644 71.2794 72.7125 71.0533 72.3622H71.042Z" fill="#00FEEF"/>
<path d="M28.8137 33.134L27.3326 28.7954V28.5694L27.2195 28.4565H22.5388C22.1996 28.4565 21.8491 28.7954 21.8491 29.1457C21.8491 29.4959 22.1883 29.8349 22.5388 29.8349H25.501C22.1883 34.9644 20.368 41.009 20.368 47.1667C20.368 53.7763 22.4258 60.1712 26.1907 65.6397C26.3037 65.8656 26.5299 65.9786 26.756 65.9786C26.8691 65.9786 26.9821 65.9786 27.2082 65.8656C27.5474 65.6397 27.6605 65.1764 27.4344 64.8375C23.7825 59.708 21.8378 53.5503 21.8378 47.1667C21.8378 41.348 23.432 35.6536 26.6316 30.7387L27.5474 33.586C27.6605 33.9249 27.8866 34.0379 28.2371 34.0379H28.4632C28.8024 33.9249 29.0285 33.586 28.8024 33.1227L28.8137 33.134Z" fill="#00FEEF"/>
<path d="M29.6164 18.6494C30.4344 18.6494 31.0975 17.9867 31.0975 17.1693C31.0975 16.3519 30.4344 15.6892 29.6164 15.6892C28.7984 15.6892 28.1353 16.3519 28.1353 17.1693C28.1353 17.9867 28.7984 18.6494 29.6164 18.6494Z" fill="#00FEEF"/>
<path d="M82.4499 69.854C83.2639 69.854 83.931 70.5206 83.931 71.3341C83.931 72.1476 83.2639 72.8142 82.4499 72.8142C81.6358 72.8142 80.9688 72.1476 80.9688 71.3341C80.9688 70.5206 81.6358 69.854 82.4499 69.854Z" fill="#00FEEF"/>
<path d="M72.4101 80C73.228 80 73.8912 79.3373 73.8912 78.5199C73.8912 77.7025 73.228 77.0398 72.4101 77.0398C71.5921 77.0398 70.929 77.7025 70.929 78.5199C70.929 79.3373 71.5921 80 72.4101 80Z" fill="#00FEEF"/>
<path d="M21.0577 21.3836C21.8718 21.3836 22.5388 22.0502 22.5388 22.8637C22.5388 23.6772 21.8718 24.3438 21.0577 24.3438C20.2437 24.3438 19.5766 23.6772 19.5766 22.8637C19.5766 22.0502 20.2437 21.3836 21.0577 21.3836Z" fill="#00FEEF"/>
<path d="M29.6164 77.1528C30.4344 77.1528 31.0975 76.4901 31.0975 75.6727C31.0975 74.8553 30.4344 74.1926 29.6164 74.1926C28.7984 74.1926 28.1353 74.8553 28.1353 75.6727C28.1353 76.4901 28.7984 77.1528 29.6164 77.1528Z" fill="#00FEEF"/>
<path d="M22.5388 67.7977C20.5942 67.7977 19 69.3907 19 71.3341C19 73.2774 20.5942 74.8705 22.5388 74.8705C24.4835 74.8705 26.0776 73.2774 26.0776 71.3341C26.0776 69.3907 24.4835 67.7977 22.5388 67.7977Z" fill="#00FEEF"/>
<path d="M81.6585 15.113C79.2616 15.113 77.3169 17.0563 77.3169 19.4516C77.3169 21.8469 79.2616 23.7902 81.6585 23.7902C84.0553 23.7902 86 21.8469 86 19.4516C86 17.0563 84.0553 15.113 81.6585 15.113Z" fill="#00FEEF"/>
<path style="mix-blend-mode:screen" d="M14.0643 12.5828C14.0643 12.5828 33.3086 -5.92135 84.3801 5.92132C84.3801 5.92132 100.664 20.7247 96.2599 30.6854C96.2599 30.6854 97.7032 34.0477 91.7818 37.0084C90.2911 26.3011 71.0571 14.365 57.7341 11.4037C45.1513 11.4037 11.8438 15.5435 11.8438 15.5435L14.0643 12.5828Z" fill="url(#paint2_linear_233_1595)"/>
<path d="M10.3633 17.0797C10.3633 17.0797 12.5442 12.6037 17.5904 10.2089C22.6508 7.81415 37.0337 5.40512 37.8605 6.01807C38.673 6.63102 30.8472 9.45343 26.7989 10.9502C22.7506 12.4469 12.4302 18.2343 10.3633 17.0939V17.0797Z" fill="white"/>
<path style="mix-blend-mode:screen" d="M92.2422 80.1072C92.2422 80.1072 86.6003 86.1089 75.4978 88.0797C69.9855 89.0583 63.5512 90.369 62.9149 89.5601C62.2924 88.7549 70.4734 82.0734 74.7729 81.6949C79.0724 81.3164 90.5521 78.4493 92.246 80.0934L92.2422 80.1072Z" fill="url(#paint3_linear_233_1595)"/>
<path d="M10.8873 19.2586C9.84669 19.4154 7.25235 27.4836 7.40915 28.8092C7.56595 30.1349 10.6877 25.9441 11.1724 23.7061C11.657 21.4824 10.8873 19.2444 10.8873 19.2444V19.2586Z" fill="white"/>
<path style="mix-blend-mode:screen" d="M93.9283 77.0045C94.9782 76.9333 98.2238 69.1044 98.1759 67.7703C98.1281 66.4363 94.674 70.3578 94.0079 72.5486C93.343 74.7252 93.9271 77.0187 93.9271 77.0187L93.9283 77.0045Z" fill="url(#paint4_linear_233_1595)"/>
<path d="M88.8671 81.0058C88.2612 79.478 93.7144 72.5033 95.1058 72.5365C96.4972 72.5697 95.2629 77.1199 94.4101 78.1827C93.5798 79.2455 89.1588 81.7697 88.8671 81.0058Z" fill="white"/>
<defs>
<filter id="filter0_f_233_1595" x="16" y="16" width="69" height="67" filterUnits="userSpaceOnUse" color-interpolation-filters="sRGB">
<feFlood flood-opacity="0" result="BackgroundImageFix"/>
<feBlend mode="normal" in="SourceGraphic" in2="BackgroundImageFix" result="shape"/>
<feGaussianBlur stdDeviation="0.5" result="effect1_foregroundBlur_233_1595"/>
</filter>
<linearGradient id="paint0_linear_233_1595" x1="56.5277" y1="94.515" x2="56.5277" y2="2.9742" gradientUnits="userSpaceOnUse">
<stop stop-color="#008EC2"/>
<stop offset="1" stop-color="#002092"/>
</linearGradient>
<radialGradient id="paint1_radial_233_1595" cx="0" cy="0" r="1" gradientUnits="userSpaceOnUse" gradientTransform="translate(56.5561 82.8372) rotate(-3.94662) scale(49.6068 418.696)">
<stop stop-color="#00D3C2"/>
<stop offset="1" stop-color="#0083C2"/>
</radialGradient>
<linearGradient id="paint2_linear_233_1595" x1="17.286" y1="20.5482" x2="85.8541" y2="20.5482" gradientUnits="userSpaceOnUse">
<stop stop-color="#7ED140"/>
<stop offset="0.11" stop-color="#74C03B"/>
<stop offset="0.34" stop-color="#5A962E"/>
<stop offset="0.65" stop-color="#315219"/>
<stop offset="1"/>
</linearGradient>
<linearGradient id="paint3_linear_233_1595" x1="88.2692" y1="84.2467" x2="67.4857" y2="78.5768" gradientUnits="userSpaceOnUse">
<stop stop-color="#7ED140"/>
<stop offset="0.11" stop-color="#74C03B"/>
<stop offset="0.34" stop-color="#5A962E"/>
<stop offset="0.65" stop-color="#315219"/>
<stop offset="1"/>
</linearGradient>
<linearGradient id="paint4_linear_233_1595" x1="97.4445" y1="71.9821" x2="94.3822" y2="71.7308" gradientUnits="userSpaceOnUse">
<stop stop-color="#7ED140"/>
<stop offset="0.11" stop-color="#74C03B"/>
<stop offset="0.34" stop-color="#5A962E"/>
<stop offset="0.65" stop-color="#315219"/>
<stop offset="1"/>
</linearGradient>
</defs>
</svg>
