<svg width="105" height="97" viewBox="0 0 105 97" fill="none" xmlns="http://www.w3.org/2000/svg">
<path opacity="0.1" d="M95.9082 85.4822C95.7261 85.6784 95.5137 85.8746 95.271 86.0557C77.3087 100.651 27.8214 100.138 6.14219 87.0217C5.00438 86.3425 4.24583 85.618 3.88173 84.8633C-3.8099 68.9394 0.362092 21.0166 12.5746 10.6471C25.6823 -0.461901 76.0799 -5.48814 92.2672 8.63966C104.146 18.994 109.805 70.9619 95.9082 85.4822Z" fill="#3C3E48"/>
<path d="M92.9675 83.7033C92.7964 83.8886 92.5968 84.0739 92.3688 84.245C75.4913 98.0292 28.9927 97.5445 8.6228 85.1573C7.5537 84.5158 6.84097 83.8316 6.49886 83.1189C-0.728238 68.0802 3.19179 22.8218 14.6668 13.0288C26.9828 2.53741 74.3367 -2.20938 89.5464 11.133C100.708 20.9116 106.025 69.9903 92.9675 83.7033Z" fill="url(#paint0_linear_233_1613)"/>
<path d="M6.49886 80.1441C13.4694 94.6553 78.613 95.8099 92.9675 80.7285C106.025 67.0155 100.708 17.9368 89.5464 8.15817C74.3367 -5.18417 26.9828 -0.437375 14.6668 10.0683C3.19179 19.847 -0.728238 65.1054 6.49886 80.1441Z" fill="url(#paint1_radial_233_1613)"/>
<g style="mix-blend-mode:multiply" filter="url(#filter0_f_233_1613)">
<path d="M53.0829 39.8378C52.8512 39.723 52.6196 39.6082 52.2605 39.4934V41.1123C52.967 41.1123 53.3145 40.8827 53.3145 40.4119C53.3145 40.0675 53.3145 39.9527 53.0829 39.8378Z" fill="#CED6FF"/>
<path d="M50.6274 36.0143C50.6274 36.2439 50.7432 36.4736 50.8591 36.5884C50.9749 36.7032 51.2065 36.8181 51.5656 36.9329V35.3139C50.9865 35.3139 50.6274 35.5435 50.6274 36.0143Z" fill="#CED6FF"/>
<path d="M59.8585 38.2189C59.8585 33.8098 56.2333 30.2273 51.7972 30.2273C47.3612 30.2273 43.7359 33.8212 43.7359 38.2189C43.7359 42.6165 47.3612 46.2104 51.7972 46.2104C56.2333 46.2104 59.8585 42.6165 59.8585 38.2189ZM55.5383 41.4683C55.3067 41.8128 55.075 42.1687 54.8318 42.3983C54.4843 42.628 54.1253 42.8576 53.7778 42.9724C53.4303 43.0873 52.9555 43.2021 52.4922 43.2021V44.8211H51.554V43.2021C50.9749 43.2021 50.2684 42.9724 49.6892 42.8576C49.1101 42.628 48.5194 42.3983 48.0561 42.0424L48.9943 40.0675C48.9943 40.0675 49.1101 40.1823 49.3418 40.2971C49.4576 40.4119 49.6892 40.5268 49.9209 40.6416C50.1525 40.7564 50.5 40.8712 50.7432 40.986C51.0907 41.1009 51.3223 41.2157 51.6814 41.2157V39.3556L50.9749 39.1259C50.5116 39.0111 50.1525 38.8963 49.8051 38.6667C49.4576 38.5518 49.2259 38.3222 48.9827 38.0926C48.7511 37.8629 48.6352 37.6333 48.5194 37.3922C48.4036 37.1625 48.4036 36.8181 48.4036 36.4621C48.4036 36.0028 48.5194 35.5321 48.6352 35.1876C48.7511 34.8431 48.9827 34.4872 49.3418 34.2576C49.5734 34.0279 49.9209 33.7983 50.2799 33.6834C50.6274 33.5686 51.1023 33.4538 51.5656 33.339V31.9497H52.5037V33.339C53.0829 33.339 53.6736 33.5686 54.1369 33.6834C54.6001 33.9131 55.075 34.1427 55.5383 34.3839L54.6001 36.2439C54.6001 36.2439 54.4843 36.1291 54.3685 36.0143C54.2527 35.8995 54.021 35.8995 53.9052 35.7847C53.6736 35.6698 53.4419 35.555 53.1987 35.555C52.967 35.4402 52.7354 35.4402 52.3763 35.3254V37.1855L52.8396 37.3003C53.3029 37.4151 53.7778 37.5299 54.1253 37.7596C54.4727 37.8744 54.8318 38.104 55.0634 38.3337C55.2951 38.5633 55.5267 38.793 55.6426 39.1489C55.7584 39.5049 55.8742 39.8493 55.8742 40.3086C55.7584 40.6531 55.6426 41.1238 55.5267 41.4683H55.5383Z" fill="#CED6FF"/>
<path d="M51.913 17C40.3423 17 30.868 26.3923 30.868 37.8629C30.868 49.3335 40.0991 59.0703 51.2065 59.4148C51.0907 66.7174 48.0445 72.1599 42.4387 75.4093C37.9911 77.9583 33.5551 78.188 33.4392 78.188C33.0918 78.188 32.7327 78.5324 32.7327 79.0032C32.7327 79.3476 33.0802 79.7036 33.4392 79.7036C33.6709 79.7036 38.2343 79.4739 43.0294 76.6953C47.3496 74.2611 52.3763 69.2779 52.6196 59.4262C63.727 58.967 72.9581 49.345 72.9581 37.8744C72.9581 26.4038 63.4838 17.0115 51.913 17.0115V17ZM51.913 53.5015C51.5656 53.5015 51.2065 53.157 51.2065 52.8011V47.7031C46.1798 47.2438 42.3229 43.1791 42.3229 38.1959C42.3229 33.2127 46.1798 29.1595 51.0907 28.8036V24.3945C43.7243 24.7389 37.8753 30.767 37.8753 38.1844C37.8753 38.5289 37.5278 38.8848 37.1687 38.8848C36.8097 38.8848 36.4622 38.6552 36.4622 38.1844C36.4622 29.837 43.3653 23.0051 51.7741 23.0051C52.1215 23.0051 52.4806 23.3496 52.4806 23.7055V28.8036C57.3915 29.148 61.2484 33.2127 61.2484 38.1959C61.2484 43.1791 57.5073 47.2323 52.5964 47.5882V51.9859C59.8469 51.6414 65.6844 45.6133 65.6844 38.1959C65.6844 37.8514 66.0319 37.4955 66.3909 37.4955C66.75 37.4955 67.0975 37.84 67.0975 38.1959C67.2133 46.6582 60.3218 53.49 51.9015 53.49L51.913 53.5015Z" fill="#CED6FF"/>
<path d="M36.358 74.3759C39.52 74.3759 42.5545 72.5273 43.956 69.7371C43.956 69.6223 44.0718 69.5075 44.0718 69.3927C44.1876 69.163 44.1876 68.9334 44.0718 68.6923C43.956 68.4626 43.7243 68.3478 43.4927 68.3478C40.4581 68.233 37.5278 67.1881 35.4314 66.0284C36.1379 66.1433 36.8329 66.1433 37.6552 66.1433C39.879 66.1433 42.1028 65.684 44.1992 64.8688C44.5467 64.7539 44.7783 64.4095 44.6625 64.0535C44.0834 61.6193 42.4387 59.5296 40.2149 58.4847C39.1609 57.9106 37.8753 57.6695 36.5896 57.6695C34.5975 57.6695 32.7327 58.2436 30.8564 58.7144C29.3391 59.1736 27.8218 59.5296 26.5362 59.5296C25.8297 59.5296 25.2505 59.4148 24.6714 59.0703C24.4398 58.8407 23.9649 58.9555 23.7333 59.1851C23.5016 59.4148 23.5016 59.7592 23.6174 60.1152C24.0807 61.0452 24.5556 62.2049 25.0189 63.3646C26.3045 66.7288 27.9376 71.0117 32.6169 73.4459C33.7867 74.02 35.0723 74.3759 36.358 74.3759Z" fill="#CED6FF"/>
<path d="M61.26 62.3197C59.3952 62.3197 57.5189 62.8938 56.0016 64.0535C55.8858 64.1684 55.77 64.1683 55.77 64.2832C55.5383 64.398 55.5383 64.6276 55.5383 64.8573C55.5383 65.0869 55.6541 65.3166 55.8858 65.4314C58.5729 66.8207 60.6809 69.0253 62.1982 70.8739C60.206 69.5994 57.4031 68.4397 53.7778 68.21C53.4303 68.21 53.0713 68.4397 52.9555 68.7841C52.3763 71.2183 52.9555 73.7674 54.5886 75.7423C56.6965 78.4061 60.0786 78.9917 63.1247 79.451C65.5802 79.9103 67.9198 80.2662 68.858 81.6555C68.9738 81.8852 69.2055 82 69.4371 82H69.6688C70.0162 81.8852 70.132 81.5407 70.132 81.2996C70.0162 80.2547 70.132 78.9802 70.2479 77.7057C70.5953 74.1118 70.9544 69.5879 67.6766 65.4199C66.2751 63.445 63.9355 62.2853 61.2484 62.2853L61.26 62.3197Z" fill="#CED6FF"/>
<path d="M78.6798 56.5213C76.6876 56.5213 75.0545 58.1403 75.0545 60.1152C75.0545 62.0901 76.6876 63.7091 78.6798 63.7091C80.672 63.7091 82.3051 62.0901 82.3051 60.1152C82.3051 58.1403 80.672 56.5213 78.6798 56.5213Z" fill="#CED6FF"/>
<path d="M27.4743 24.3026C29.4665 24.3026 31.0996 22.6836 31.0996 20.7087C31.0996 18.7338 29.4665 17.1148 27.4743 17.1148C25.4822 17.1148 23.8491 18.7338 23.8491 20.7087C23.8491 22.6836 25.3664 24.3026 27.4743 24.3026Z" fill="#CED6FF"/>
<path d="M26.8952 49.345C26.8952 46.9108 24.9031 45.0622 22.4476 45.0622C19.9922 45.0622 18 47.0371 18 49.345C18 51.7792 19.9922 53.7541 22.4476 53.7541C24.9031 53.7541 26.8952 51.6644 26.8952 49.345Z" fill="#CED6FF"/>
<path d="M23.1541 71.7121C23.9881 71.7121 24.6714 72.3895 24.6714 73.2162C24.6714 74.0429 23.9881 74.7204 23.1541 74.7204C22.3202 74.7204 21.6369 74.0429 21.6369 73.2162C21.6369 72.3895 22.3202 71.7121 23.1541 71.7121Z" fill="#CED6FF"/>
<path d="M68.5105 55.7175C69.3444 55.7175 70.0278 56.395 70.0278 57.2217C70.0278 58.0484 69.3444 58.7258 68.5105 58.7258C67.6766 58.7258 66.9932 58.0484 66.9932 57.2217C66.9932 56.395 67.6766 55.7175 68.5105 55.7175Z" fill="#CED6FF"/>
<path d="M29.0032 52.8126C29.8371 52.8126 30.5205 53.49 30.5205 54.3167C30.5205 55.1434 29.8371 55.8209 29.0032 55.8209C28.1693 55.8209 27.4859 55.1434 27.4859 54.3167C27.4859 53.49 28.1693 52.8126 29.0032 52.8126Z" fill="#CED6FF"/>
<path d="M74.2438 19.0897C75.0777 19.0897 75.761 19.7672 75.761 20.5939C75.761 21.4206 75.0777 22.098 74.2438 22.098C73.4098 22.098 72.7265 21.4206 72.7265 20.5939C72.7265 19.7672 73.4098 19.0897 74.2438 19.0897Z" fill="#CED6FF"/>
<path d="M81.4827 35.0843C82.3166 35.0843 83 35.7617 83 36.5884C83 37.4151 82.3166 38.0926 81.4827 38.0926C80.6488 38.0926 79.9654 37.4151 79.9654 36.5884C79.9654 35.7617 80.6488 35.0843 81.4827 35.0843Z" fill="#CED6FF"/>
<path d="M25.9571 32.1908C26.791 32.1908 27.4743 32.8682 27.4743 33.6949C27.4743 34.5216 26.791 35.1991 25.9571 35.1991C25.1231 35.1991 24.4398 34.5216 24.4398 33.6949C24.4398 32.8682 25.1231 32.1908 25.9571 32.1908Z" fill="#CED6FF"/>
<path d="M78.6798 71.7121C79.5137 71.7121 80.1971 72.3895 80.1971 73.2162C80.1971 74.0429 79.5137 74.7204 78.6798 74.7204C77.8459 74.7204 77.1625 74.0429 77.1625 73.2162C77.1625 72.3895 77.8459 71.7121 78.6798 71.7121Z" fill="#CED6FF"/>
<path d="M49.4576 75.9949C50.2915 75.9949 50.9749 76.6723 50.9749 77.499C50.9749 78.3257 50.2915 79.0032 49.4576 79.0032C48.6237 79.0032 47.9403 78.3257 47.9403 77.499C47.9403 76.6723 48.6237 75.9949 49.4576 75.9949Z" fill="#CED6FF"/>
</g>
<path d="M55.0829 37.8378C54.8512 37.723 54.6196 37.6082 54.2605 37.4934V39.1123C54.967 39.1123 55.3145 38.8827 55.3145 38.4119C55.3145 38.0675 55.3145 37.9527 55.0829 37.8378Z" fill="#00FEEF"/>
<path d="M52.6274 34.0143C52.6274 34.2439 52.7432 34.4736 52.8591 34.5884C52.9749 34.7032 53.2065 34.8181 53.5656 34.9329V33.3139C52.9865 33.3139 52.6274 33.5435 52.6274 34.0143Z" fill="#00FEEF"/>
<path d="M61.8585 36.2189C61.8585 31.8098 58.2333 28.2273 53.7972 28.2273C49.3612 28.2273 45.7359 31.8212 45.7359 36.2189C45.7359 40.6165 49.3612 44.2104 53.7972 44.2104C58.2333 44.2104 61.8585 40.6165 61.8585 36.2189ZM57.5383 39.4683C57.3067 39.8128 57.075 40.1687 56.8318 40.3983C56.4843 40.628 56.1253 40.8576 55.7778 40.9724C55.4303 41.0873 54.9555 41.2021 54.4922 41.2021V42.8211H53.554V41.2021C52.9749 41.2021 52.2684 40.9724 51.6892 40.8576C51.1101 40.628 50.5194 40.3983 50.0561 40.0424L50.9943 38.0675C50.9943 38.0675 51.1101 38.1823 51.3418 38.2971C51.4576 38.4119 51.6892 38.5268 51.9209 38.6416C52.1525 38.7564 52.5 38.8712 52.7432 38.986C53.0907 39.1009 53.3223 39.2157 53.6814 39.2157V37.3556L52.9749 37.1259C52.5116 37.0111 52.1525 36.8963 51.8051 36.6667C51.4576 36.5518 51.2259 36.3222 50.9827 36.0926C50.7511 35.8629 50.6352 35.6333 50.5194 35.3922C50.4036 35.1625 50.4036 34.8181 50.4036 34.4621C50.4036 34.0028 50.5194 33.5321 50.6352 33.1876C50.7511 32.8431 50.9827 32.4872 51.3418 32.2576C51.5734 32.0279 51.9209 31.7983 52.2799 31.6834C52.6274 31.5686 53.1023 31.4538 53.5656 31.339V29.9497H54.5037V31.339C55.0829 31.339 55.6736 31.5686 56.1369 31.6834C56.6001 31.9131 57.075 32.1427 57.5383 32.3839L56.6001 34.2439C56.6001 34.2439 56.4843 34.1291 56.3685 34.0143C56.2527 33.8995 56.021 33.8995 55.9052 33.7847C55.6736 33.6698 55.4419 33.555 55.1987 33.555C54.967 33.4402 54.7354 33.4402 54.3763 33.3254V35.1855L54.8396 35.3003C55.3029 35.4151 55.7778 35.5299 56.1253 35.7596C56.4727 35.8744 56.8318 36.104 57.0634 36.3337C57.2951 36.5633 57.5267 36.793 57.6426 37.1489C57.7584 37.5049 57.8742 37.8493 57.8742 38.3086C57.7584 38.6531 57.6426 39.1238 57.5267 39.4683H57.5383Z" fill="#00FEEF"/>
<path d="M53.913 15C42.3423 15 32.868 24.3923 32.868 35.8629C32.868 47.3335 42.0991 57.0703 53.2065 57.4148C53.0907 64.7174 50.0445 70.1599 44.4387 73.4093C39.9911 75.9583 35.5551 76.188 35.4392 76.188C35.0918 76.188 34.7327 76.5324 34.7327 77.0032C34.7327 77.3476 35.0802 77.7036 35.4392 77.7036C35.6709 77.7036 40.2343 77.4739 45.0294 74.6953C49.3496 72.2611 54.3763 67.2779 54.6196 57.4262C65.727 56.967 74.9581 47.345 74.9581 35.8744C74.9581 24.4038 65.4838 15.0115 53.913 15.0115V15ZM53.913 51.5015C53.5656 51.5015 53.2065 51.157 53.2065 50.8011V45.7031C48.1798 45.2438 44.3229 41.1791 44.3229 36.1959C44.3229 31.2127 48.1798 27.1595 53.0907 26.8036V22.3945C45.7243 22.7389 39.8753 28.767 39.8753 36.1844C39.8753 36.5289 39.5278 36.8848 39.1687 36.8848C38.8097 36.8848 38.4622 36.6552 38.4622 36.1844C38.4622 27.837 45.3653 21.0051 53.7741 21.0051C54.1215 21.0051 54.4806 21.3496 54.4806 21.7055V26.8036C59.3915 27.148 63.2484 31.2127 63.2484 36.1959C63.2484 41.1791 59.5073 45.2323 54.5964 45.5882V49.9859C61.8469 49.6414 67.6844 43.6133 67.6844 36.1959C67.6844 35.8514 68.0319 35.4955 68.3909 35.4955C68.75 35.4955 69.0975 35.84 69.0975 36.1959C69.2133 44.6582 62.3218 51.49 53.9015 51.49L53.913 51.5015Z" fill="#00FEEF"/>
<path d="M38.358 72.3759C41.52 72.3759 44.5545 70.5273 45.956 67.7371C45.956 67.6223 46.0718 67.5075 46.0718 67.3927C46.1876 67.163 46.1876 66.9334 46.0718 66.6923C45.956 66.4626 45.7243 66.3478 45.4927 66.3478C42.4581 66.233 39.5278 65.1881 37.4314 64.0284C38.1379 64.1433 38.8329 64.1433 39.6552 64.1433C41.879 64.1433 44.1028 63.684 46.1992 62.8688C46.5467 62.7539 46.7783 62.4095 46.6625 62.0535C46.0834 59.6193 44.4387 57.5296 42.2149 56.4847C41.1609 55.9106 39.8753 55.6695 38.5896 55.6695C36.5975 55.6695 34.7327 56.2436 32.8564 56.7144C31.3391 57.1736 29.8218 57.5296 28.5362 57.5296C27.8297 57.5296 27.2505 57.4148 26.6714 57.0703C26.4398 56.8407 25.9649 56.9555 25.7333 57.1851C25.5016 57.4148 25.5016 57.7592 25.6174 58.1152C26.0807 59.0452 26.5556 60.2049 27.0189 61.3646C28.3045 64.7288 29.9376 69.0117 34.6169 71.4459C35.7867 72.02 37.0723 72.3759 38.358 72.3759Z" fill="#00FEEF"/>
<path d="M63.26 60.3197C61.3952 60.3197 59.5189 60.8938 58.0016 62.0535C57.8858 62.1684 57.77 62.1683 57.77 62.2832C57.5383 62.398 57.5383 62.6276 57.5383 62.8573C57.5383 63.0869 57.6541 63.3166 57.8858 63.4314C60.5729 64.8207 62.6809 67.0253 64.1982 68.8739C62.206 67.5994 59.4031 66.4397 55.7778 66.21C55.4303 66.21 55.0713 66.4397 54.9555 66.7841C54.3763 69.2183 54.9555 71.7674 56.5886 73.7423C58.6965 76.4061 62.0786 76.9917 65.1247 77.451C67.5802 77.9103 69.9198 78.2662 70.858 79.6555C70.9738 79.8852 71.2055 80 71.4371 80H71.6688C72.0162 79.8852 72.132 79.5407 72.132 79.2996C72.0162 78.2547 72.132 76.9802 72.2479 75.7057C72.5953 72.1118 72.9544 67.5879 69.6766 63.4199C68.2751 61.445 65.9355 60.2853 63.2484 60.2853L63.26 60.3197Z" fill="#00FEEF"/>
<path d="M80.6798 54.5213C78.6876 54.5213 77.0545 56.1403 77.0545 58.1152C77.0545 60.0901 78.6876 61.7091 80.6798 61.7091C82.672 61.7091 84.3051 60.0901 84.3051 58.1152C84.3051 56.1403 82.672 54.5213 80.6798 54.5213Z" fill="#00FEEF"/>
<path d="M29.4743 22.3026C31.4665 22.3026 33.0996 20.6836 33.0996 18.7087C33.0996 16.7338 31.4665 15.1148 29.4743 15.1148C27.4822 15.1148 25.8491 16.7338 25.8491 18.7087C25.8491 20.6836 27.3664 22.3026 29.4743 22.3026Z" fill="#00FEEF"/>
<path d="M28.8952 47.345C28.8952 44.9108 26.9031 43.0622 24.4476 43.0622C21.9922 43.0622 20 45.0371 20 47.345C20 49.7792 21.9922 51.7541 24.4476 51.7541C26.9031 51.7541 28.8952 49.6644 28.8952 47.345Z" fill="#00FEEF"/>
<path d="M25.1541 69.7121C25.9881 69.7121 26.6714 70.3895 26.6714 71.2162C26.6714 72.0429 25.9881 72.7204 25.1541 72.7204C24.3202 72.7204 23.6369 72.0429 23.6369 71.2162C23.6369 70.3895 24.3202 69.7121 25.1541 69.7121Z" fill="#00FEEF"/>
<path d="M70.5105 53.7175C71.3444 53.7175 72.0278 54.395 72.0278 55.2217C72.0278 56.0484 71.3444 56.7258 70.5105 56.7258C69.6766 56.7258 68.9932 56.0484 68.9932 55.2217C68.9932 54.395 69.6766 53.7175 70.5105 53.7175Z" fill="#00FEEF"/>
<path d="M31.0032 50.8126C31.8371 50.8126 32.5205 51.49 32.5205 52.3167C32.5205 53.1434 31.8371 53.8209 31.0032 53.8209C30.1693 53.8209 29.4859 53.1434 29.4859 52.3167C29.4859 51.49 30.1693 50.8126 31.0032 50.8126Z" fill="#00FEEF"/>
<path d="M76.2438 17.0897C77.0777 17.0897 77.761 17.7672 77.761 18.5939C77.761 19.4206 77.0777 20.098 76.2438 20.098C75.4098 20.098 74.7265 19.4206 74.7265 18.5939C74.7265 17.7672 75.4098 17.0897 76.2438 17.0897Z" fill="#00FEEF"/>
<path d="M83.4827 33.0843C84.3166 33.0843 85 33.7617 85 34.5884C85 35.4151 84.3166 36.0926 83.4827 36.0926C82.6488 36.0926 81.9654 35.4151 81.9654 34.5884C81.9654 33.7617 82.6488 33.0843 83.4827 33.0843Z" fill="#00FEEF"/>
<path d="M27.9571 30.1908C28.791 30.1908 29.4743 30.8682 29.4743 31.6949C29.4743 32.5216 28.791 33.1991 27.9571 33.1991C27.1231 33.1991 26.4398 32.5216 26.4398 31.6949C26.4398 30.8682 27.1231 30.1908 27.9571 30.1908Z" fill="#00FEEF"/>
<path d="M80.6798 69.7121C81.5137 69.7121 82.1971 70.3895 82.1971 71.2162C82.1971 72.0429 81.5137 72.7204 80.6798 72.7204C79.8459 72.7204 79.1625 72.0429 79.1625 71.2162C79.1625 70.3895 79.8459 69.7121 80.6798 69.7121Z" fill="#00FEEF"/>
<path d="M51.4576 73.9949C52.2915 73.9949 52.9749 74.6723 52.9749 75.499C52.9749 76.3257 52.2915 77.0032 51.4576 77.0032C50.6237 77.0032 49.9403 76.3257 49.9403 75.499C49.9403 74.6723 50.6237 73.9949 51.4576 73.9949Z" fill="#00FEEF"/>
<path style="mix-blend-mode:screen" d="M14.0643 12.5828C14.0643 12.5828 33.3086 -5.92135 84.3801 5.92132C84.3801 5.92132 100.664 20.7247 96.2599 30.6854C96.2599 30.6854 97.7032 34.0477 91.7818 37.0084C90.2911 26.3011 71.0571 14.365 57.7341 11.4037C45.1513 11.4037 11.8438 15.5435 11.8438 15.5435L14.0643 12.5828Z" fill="url(#paint2_linear_233_1613)"/>
<path d="M10.3633 17.0797C10.3633 17.0797 12.5442 12.6037 17.5904 10.2089C22.6508 7.81415 37.0337 5.40512 37.8605 6.01807C38.673 6.63102 30.8472 9.45343 26.7989 10.9502C22.7506 12.4469 12.4302 18.2343 10.3633 17.0939V17.0797Z" fill="white"/>
<path style="mix-blend-mode:screen" d="M92.2422 80.1072C92.2422 80.1072 86.6003 86.1089 75.4978 88.0797C69.9855 89.0583 63.5512 90.369 62.9149 89.5601C62.2924 88.7549 70.4734 82.0734 74.7729 81.6949C79.0724 81.3164 90.5521 78.4493 92.246 80.0934L92.2422 80.1072Z" fill="url(#paint3_linear_233_1613)"/>
<path d="M10.8873 19.2586C9.84669 19.4154 7.25235 27.4836 7.40915 28.8092C7.56595 30.1349 10.6877 25.9441 11.1724 23.7061C11.657 21.4824 10.8873 19.2444 10.8873 19.2444V19.2586Z" fill="white"/>
<path style="mix-blend-mode:screen" d="M93.9283 77.0045C94.9782 76.9333 98.2238 69.1044 98.1759 67.7703C98.1281 66.4363 94.674 70.3578 94.0079 72.5486C93.343 74.7252 93.9271 77.0187 93.9271 77.0187L93.9283 77.0045Z" fill="url(#paint4_linear_233_1613)"/>
<path d="M88.8671 81.0058C88.2612 79.478 93.7144 72.5033 95.1058 72.5365C96.4972 72.5697 95.2629 77.1199 94.4101 78.1827C93.5798 79.2455 89.1588 81.7697 88.8671 81.0058Z" fill="white"/>
<defs>
<filter id="filter0_f_233_1613" x="17" y="16" width="67" height="67" filterUnits="userSpaceOnUse" color-interpolation-filters="sRGB">
<feFlood flood-opacity="0" result="BackgroundImageFix"/>
<feBlend mode="normal" in="SourceGraphic" in2="BackgroundImageFix" result="shape"/>
<feGaussianBlur stdDeviation="0.5" result="effect1_foregroundBlur_233_1613"/>
</filter>
<linearGradient id="paint0_linear_233_1613" x1="56.5277" y1="94.515" x2="56.5277" y2="2.9742" gradientUnits="userSpaceOnUse">
<stop stop-color="#008EC2"/>
<stop offset="1" stop-color="#002092"/>
</linearGradient>
<radialGradient id="paint1_radial_233_1613" cx="0" cy="0" r="1" gradientUnits="userSpaceOnUse" gradientTransform="translate(56.5561 82.8372) rotate(-3.94662) scale(49.6068 418.696)">
<stop stop-color="#00D3C2"/>
<stop offset="1" stop-color="#0083C2"/>
</radialGradient>
<linearGradient id="paint2_linear_233_1613" x1="17.286" y1="20.5482" x2="85.8541" y2="20.5482" gradientUnits="userSpaceOnUse">
<stop stop-color="#7ED140"/>
<stop offset="0.11" stop-color="#74C03B"/>
<stop offset="0.34" stop-color="#5A962E"/>
<stop offset="0.65" stop-color="#315219"/>
<stop offset="1"/>
</linearGradient>
<linearGradient id="paint3_linear_233_1613" x1="88.2692" y1="84.2467" x2="67.4857" y2="78.5768" gradientUnits="userSpaceOnUse">
<stop stop-color="#7ED140"/>
<stop offset="0.11" stop-color="#74C03B"/>
<stop offset="0.34" stop-color="#5A962E"/>
<stop offset="0.65" stop-color="#315219"/>
<stop offset="1"/>
</linearGradient>
<linearGradient id="paint4_linear_233_1613" x1="97.4445" y1="71.9821" x2="94.3822" y2="71.7308" gradientUnits="userSpaceOnUse">
<stop stop-color="#7ED140"/>
<stop offset="0.11" stop-color="#74C03B"/>
<stop offset="0.34" stop-color="#5A962E"/>
<stop offset="0.65" stop-color="#315219"/>
<stop offset="1"/>
</linearGradient>
</defs>
</svg>
