<svg width="40" height="35" viewBox="0 0 40 35" fill="none" xmlns="http://www.w3.org/2000/svg">
<path d="M0.660842 27.6819C2.01986 32.9907 35.9684 36.9856 38.7807 31.4758C41.3372 26.462 39.4131 5.99108 37.2198 2.4117C34.2461 -2.46807 4.87246 0.950448 2.4639 4.79795C0.216806 8.37734 -0.752 22.1855 0.660842 27.6819Z" fill="url(#paint0_radial_630_9904)"/>
<path d="M0.76842 26.7435C2.12744 31.8646 35.8742 34.7335 38.673 29.4113C41.2161 24.5718 39.3323 6.07155 37.1525 2.61282C34.1922 -2.07926 4.92621 1.2186 2.53111 4.91864C0.284017 8.37737 -0.630967 21.4348 0.76842 26.7435Z" fill="url(#paint1_linear_630_9904)"/>
<path d="M1.18553 26.3012C2.51764 31.2748 35.5512 34.1303 38.2962 28.969C40.7855 24.2769 38.9152 6.24588 36.7892 2.8944C33.8827 -1.67703 5.24914 1.52699 2.8944 5.11978C0.701132 8.47127 -0.200397 21.1399 1.18553 26.3012Z" fill="url(#paint2_linear_630_9904)"/>
<path d="M34.6486 25.0878C24.6547 19.4684 14.6697 30.7342 4.6757 25.0878V6.29045C14.6697 11.9278 24.6547 0.662065 34.6486 6.29045V25.0878Z" fill="#28292B"/>
<path d="M34.6486 25.0878C24.6546 19.4685 14.6697 30.7343 4.67569 25.0878V15.3825C14.6697 21.0199 24.6546 9.75411 34.6486 15.3825V25.0969V25.0878Z" fill="#FFF915"/>
<path d="M4.67569 18.801C14.6697 24.4474 24.6637 13.1546 34.6667 18.801V12.4691C24.6637 6.83167 14.6697 18.1155 4.67569 12.4691V18.801Z" fill="#DD3131"/>
<path style="mix-blend-mode:multiply" d="M34.6396 12.6224V18.9543V25.2502C24.6456 19.6308 14.6516 30.8966 4.66667 25.2502V6.43476C14.6516 12.0812 24.6456 0.806377 34.6396 6.43476V12.6224Z" fill="url(#paint3_linear_630_9904)"/>
<path style="mix-blend-mode:overlay" opacity="0.25" d="M34.6396 12.6224V18.9543V25.2502C24.6456 19.6308 14.6516 30.8966 4.66667 25.2502V6.43476C14.6516 12.0812 24.6456 0.806377 34.6396 6.43476V12.6224Z" fill="url(#paint4_linear_630_9904)"/>
<path style="mix-blend-mode:screen" d="M37.6369 29.0494C37.6369 29.0494 21.7592 31.4758 2.86748 27.1189C2.86748 27.1189 15.139 29.103 20.5886 27.1189C29.8595 23.7406 35.2014 25.2555 37.6369 29.0494Z" fill="url(#paint5_linear_630_9904)"/>
<path style="mix-blend-mode:screen" d="M11.6944 9.43645C12.2191 9.40964 12.6766 9.81181 12.7035 10.3346C12.7305 10.8575 12.3268 11.3133 11.802 11.3401C11.2772 11.3669 10.8198 10.9647 10.7928 10.4419C10.7659 9.91906 11.1696 9.46326 11.6944 9.43645Z" fill="url(#paint6_radial_630_9904)"/>
<path d="M11.8155 10.1202C11.9635 10.1202 12.0846 10.2275 12.098 10.375C12.1115 10.5224 11.9904 10.6431 11.8558 10.6565C11.7213 10.6699 11.5867 10.5492 11.5732 10.4018C11.5732 10.2543 11.6809 10.1336 11.8289 10.1202H11.8155Z" fill="#FFFFAB"/>
<path style="mix-blend-mode:screen" d="M12.9996 5.33427C13.5244 5.30746 13.9819 5.70964 14.0088 6.23247C14.0357 6.7553 13.6321 7.21111 13.1073 7.23792C12.5825 7.26473 12.125 6.86255 12.0981 6.33972C12.0712 5.81689 12.4749 5.36109 12.9996 5.33427Z" fill="url(#paint7_radial_630_9904)"/>
<path d="M13.1073 6.01794C13.2553 6.01794 13.3764 6.12519 13.3899 6.25925C13.3899 6.40672 13.2822 6.52737 13.1477 6.54078C13.0131 6.55418 12.8785 6.43353 12.8651 6.29947C12.8651 6.152 12.9727 6.03135 13.1207 6.01794H13.1073Z" fill="#FFFFAB"/>
<path style="mix-blend-mode:screen" d="M12.2326 17.0912C12.7574 17.0644 13.2149 17.4666 13.2418 17.9894C13.2687 18.5123 12.865 18.9681 12.3403 18.9949C11.8155 19.0217 11.358 18.6195 11.3311 18.0967C11.3042 17.5738 11.7078 17.118 12.2326 17.0912Z" fill="url(#paint8_radial_630_9904)"/>
<path d="M12.3403 17.775C12.4883 17.775 12.6094 17.8823 12.6229 18.0297C12.6363 18.1772 12.5152 18.2979 12.3672 18.3113C12.2192 18.3113 12.0981 18.204 12.0846 18.0565C12.0846 17.9091 12.1923 17.7884 12.3269 17.775H12.3403Z" fill="#FFFFAB"/>
<path style="mix-blend-mode:screen" d="M7.72503 3.24289C9.20515 3.14905 10.47 4.27515 10.5642 5.7498C10.6584 7.22446 9.52808 8.48462 8.04796 8.57846C6.56784 8.6723 5.30301 7.5462 5.20882 6.07155C5.11463 4.59689 6.24491 3.33673 7.72503 3.24289Z" fill="url(#paint9_radial_630_9904)"/>
<path d="M8.04798 5.15995C8.45165 5.13314 8.81496 5.44147 8.82841 5.85706C8.85532 6.25924 8.54584 6.6212 8.12872 6.6346C7.72505 6.66141 7.36175 6.35308 7.34829 5.93749C7.32138 5.53532 7.63086 5.17335 8.04798 5.15995Z" fill="#FFFFAB"/>
<path style="mix-blend-mode:screen" d="M15.3678 23.6335C16.0675 23.5933 16.6865 24.1295 16.7268 24.8266C16.7672 25.5237 16.229 26.1404 15.5293 26.1806C14.8296 26.2208 14.2106 25.6846 14.1703 24.9875C14.1299 24.2904 14.6681 23.6737 15.3678 23.6335Z" fill="url(#paint10_radial_630_9904)"/>
<path d="M15.5293 24.545C15.7311 24.545 15.8926 24.6791 15.9061 24.8802C15.9195 25.0813 15.7715 25.2422 15.5697 25.2556C15.3678 25.2556 15.2064 25.1215 15.1929 24.9204C15.1929 24.7193 15.3275 24.5584 15.5293 24.545Z" fill="#FFFFAB"/>
<path style="mix-blend-mode:screen" d="M3.99778 26.9983C4.34763 26.9715 4.65711 27.2396 4.67056 27.6016C4.68402 27.9635 4.42836 28.2585 4.06506 28.2719C3.70176 28.2853 3.40573 28.0306 3.39228 27.6686C3.37882 27.3066 3.63448 27.0117 3.99778 26.9983Z" fill="url(#paint11_radial_630_9904)"/>
<path d="M4.07856 27.4541C4.17274 27.4541 4.25348 27.5211 4.26693 27.615C4.26693 27.7088 4.19966 27.8027 4.10547 27.8027C4.01128 27.8027 3.91709 27.7356 3.91709 27.6418C3.91709 27.5479 3.98437 27.4541 4.07856 27.4541Z" fill="#FFFFAB"/>
<path style="mix-blend-mode:screen" d="M21.9879 16.0457C22.3378 16.0189 22.6473 16.287 22.6607 16.6489C22.6876 16.9975 22.4185 17.3058 22.0552 17.3192C21.6919 17.3326 21.3959 17.0779 21.3824 16.716C21.3555 16.3674 21.6246 16.0591 21.9879 16.0457Z" fill="url(#paint12_radial_630_9904)"/>
<path d="M22.0687 16.5013C22.1629 16.5013 22.2437 16.5684 22.2571 16.6622C22.2571 16.7561 22.1898 16.8365 22.0956 16.8499C22.0015 16.8499 21.9207 16.7829 21.9073 16.689C21.9073 16.5952 21.9745 16.5013 22.0687 16.5013Z" fill="#FFFFAB"/>
<path style="mix-blend-mode:screen" d="M13.1073 26.0598C13.3764 26.0464 13.5917 26.2475 13.6186 26.5022C13.632 26.7704 13.4302 26.9848 13.1746 27.0117C12.9054 27.0251 12.6901 26.824 12.6632 26.5693C12.6363 26.3145 12.8516 26.0866 13.1073 26.0598Z" fill="url(#paint13_radial_630_9904)"/>
<path d="M13.1611 26.395C13.2284 26.395 13.2957 26.4486 13.2957 26.5157C13.2957 26.5827 13.2418 26.6497 13.1746 26.6497C13.1073 26.6497 13.04 26.5961 13.04 26.5291C13.04 26.462 13.0938 26.395 13.1611 26.395Z" fill="#FFFFAB"/>
<path style="mix-blend-mode:screen" d="M20.5213 25.671C21.073 25.6442 21.544 26.0598 21.5843 26.6094C21.6112 27.1591 21.1941 27.6283 20.6424 27.6685C20.0907 27.7087 19.6198 27.2797 19.5794 26.7301C19.5525 26.1805 19.9696 25.7112 20.5213 25.671Z" fill="url(#paint14_radial_630_9904)"/>
<path d="M20.6424 26.3816C20.7904 26.3816 20.925 26.4888 20.9384 26.6363C20.9384 26.7838 20.8308 26.9178 20.6828 26.9312C20.5347 26.9312 20.4002 26.824 20.3867 26.6765C20.3867 26.5291 20.4944 26.395 20.6424 26.3816Z" fill="#FFFFAB"/>
<path d="M36.7623 30.0146C36.5874 29.4515 38.1079 26.8508 38.4846 26.8642C38.8614 26.8642 38.525 28.5667 38.2962 28.9689C38.0675 29.3711 36.843 30.2961 36.7623 30.0146Z" fill="white"/>
<path style="mix-blend-mode:screen" d="M3.36538 5.02597C3.36538 5.02597 25.2308 -3.35274 36.8565 2.96146C36.8565 2.96146 37.8791 5.36112 38.3501 9.12819C38.3501 9.12819 34.6767 13.3913 27.7201 13.8739C21.7323 14.2761 15.906 6.6615 10.8467 5.72308C5.80086 4.78467 3.36538 5.02597 3.36538 5.02597Z" fill="url(#paint15_linear_630_9904)"/>
<path d="M2.92133 6.54077C2.5042 6.6078 1.45466 9.85204 1.50848 10.3883C1.57576 10.9245 2.84059 9.23537 3.02897 8.33717C3.21735 7.43897 2.90787 6.54077 2.90787 6.54077H2.92133Z" fill="white"/>
<path d="M3.09629 6.01794C2.58497 5.81685 3.4865 4.43603 4.26693 4.08748C5.04736 3.73893 6.95806 3.35015 7.17335 3.69871C7.38864 4.06067 3.67488 6.23243 3.09629 6.01794Z" fill="white"/>
<defs>
<radialGradient id="paint0_radial_630_9904" cx="0" cy="0" r="1" gradientUnits="userSpaceOnUse" gradientTransform="translate(20.2556 40.3862) scale(19.3477 24.3681)">
<stop stop-color="#008CCA"/>
<stop offset="1" stop-color="#003BF1"/>
</radialGradient>
<linearGradient id="paint1_linear_630_9904" x1="20.01" y1="32.2668" x2="20.01" y2="0.29359" gradientUnits="userSpaceOnUse">
<stop stop-color="#92FFF1"/>
<stop offset="1" stop-color="#0098FF"/>
</linearGradient>
<linearGradient id="paint2_linear_630_9904" x1="20.01" y1="31.7038" x2="20.01" y2="0.628792" gradientUnits="userSpaceOnUse">
<stop stop-color="#00EFF1"/>
<stop offset="1" stop-color="#0098FF"/>
</linearGradient>
<linearGradient id="paint3_linear_630_9904" x1="4.65765" y1="15.8425" x2="34.6396" y2="15.8425" gradientUnits="userSpaceOnUse">
<stop stop-color="white"/>
<stop offset="0.13" stop-color="#F6F6F6"/>
<stop offset="0.34" stop-color="#DFE0E0"/>
<stop offset="0.54" stop-color="#C4C5C6"/>
<stop offset="0.57" stop-color="#C1C2C3"/>
<stop offset="0.69" stop-color="#BEBFC0"/>
<stop offset="0.91" stop-color="white"/>
</linearGradient>
<linearGradient id="paint4_linear_630_9904" x1="4.65765" y1="15.8425" x2="34.6396" y2="15.8425" gradientUnits="userSpaceOnUse">
<stop stop-color="white"/>
<stop offset="0.13" stop-color="#F6F6F6"/>
<stop offset="0.34" stop-color="#DFE0E0"/>
<stop offset="0.54" stop-color="#C4C5C6"/>
<stop offset="0.57" stop-color="#C1C2C3"/>
<stop offset="0.69" stop-color="#BEBFC0"/>
<stop offset="0.91" stop-color="white"/>
</linearGradient>
<linearGradient id="paint5_linear_630_9904" x1="37.6369" y1="27.4943" x2="2.86748" y2="27.4943" gradientUnits="userSpaceOnUse">
<stop stop-color="#40FF79"/>
<stop offset="0.1" stop-color="#3BEE71"/>
<stop offset="0.29" stop-color="#31C45D"/>
<stop offset="0.56" stop-color="#20803D"/>
<stop offset="0.88" stop-color="#092411"/>
<stop offset="1"/>
</linearGradient>
<radialGradient id="paint6_radial_630_9904" cx="0" cy="0" r="1" gradientUnits="userSpaceOnUse" gradientTransform="translate(11.7331 10.3757) rotate(-93.4326) scale(0.951835 0.955337)">
<stop stop-color="#00B359"/>
<stop offset="0.13" stop-color="#009148"/>
<stop offset="0.34" stop-color="#005D2E"/>
<stop offset="0.54" stop-color="#00351A"/>
<stop offset="0.73" stop-color="#00170B"/>
<stop offset="0.89" stop-color="#000603"/>
<stop offset="1"/>
</radialGradient>
<radialGradient id="paint7_radial_630_9904" cx="0" cy="0" r="1" gradientUnits="userSpaceOnUse" gradientTransform="translate(13.0378 6.28252) rotate(-93.4326) scale(0.951835 0.955338)">
<stop stop-color="#00B359"/>
<stop offset="0.13" stop-color="#009148"/>
<stop offset="0.34" stop-color="#005D2E"/>
<stop offset="0.54" stop-color="#00351A"/>
<stop offset="0.73" stop-color="#00170B"/>
<stop offset="0.89" stop-color="#000603"/>
<stop offset="1"/>
</radialGradient>
<radialGradient id="paint8_radial_630_9904" cx="0" cy="0" r="1" gradientUnits="userSpaceOnUse" gradientTransform="translate(12.2602 18.0396) rotate(-93.4326) scale(0.951835 0.955338)">
<stop stop-color="#00B359"/>
<stop offset="0.13" stop-color="#009148"/>
<stop offset="0.34" stop-color="#005D2E"/>
<stop offset="0.54" stop-color="#00351A"/>
<stop offset="0.73" stop-color="#00170B"/>
<stop offset="0.89" stop-color="#000603"/>
<stop offset="1"/>
</radialGradient>
<radialGradient id="paint9_radial_630_9904" cx="0" cy="0" r="1" gradientUnits="userSpaceOnUse" gradientTransform="translate(7.85172 5.89289) rotate(-93.4326) scale(2.66782 2.67764)">
<stop stop-color="#00B359"/>
<stop offset="0.13" stop-color="#009148"/>
<stop offset="0.34" stop-color="#005D2E"/>
<stop offset="0.54" stop-color="#00351A"/>
<stop offset="0.73" stop-color="#00170B"/>
<stop offset="0.89" stop-color="#000603"/>
<stop offset="1"/>
</radialGradient>
<radialGradient id="paint10_radial_630_9904" cx="0" cy="0" r="1" gradientUnits="userSpaceOnUse" gradientTransform="translate(15.4209 24.8888) rotate(-93.4326) scale(1.27358 1.27827)">
<stop stop-color="#00B359"/>
<stop offset="0.13" stop-color="#009148"/>
<stop offset="0.34" stop-color="#005D2E"/>
<stop offset="0.54" stop-color="#00351A"/>
<stop offset="0.73" stop-color="#00170B"/>
<stop offset="0.89" stop-color="#000603"/>
<stop offset="1"/>
</radialGradient>
<radialGradient id="paint11_radial_630_9904" cx="0" cy="0" r="1" gradientUnits="userSpaceOnUse" gradientTransform="translate(4.01933 27.6224) rotate(-93.4326) scale(0.643494 0.645862)">
<stop stop-color="#00B359"/>
<stop offset="0.13" stop-color="#009148"/>
<stop offset="0.34" stop-color="#005D2E"/>
<stop offset="0.54" stop-color="#00351A"/>
<stop offset="0.73" stop-color="#00170B"/>
<stop offset="0.89" stop-color="#000603"/>
<stop offset="1"/>
</radialGradient>
<radialGradient id="paint12_radial_630_9904" cx="0" cy="0" r="1" gradientUnits="userSpaceOnUse" gradientTransform="translate(22.0053 16.6805) rotate(-93.4326) scale(0.643494 0.645862)">
<stop stop-color="#00B359"/>
<stop offset="0.13" stop-color="#009148"/>
<stop offset="0.34" stop-color="#005D2E"/>
<stop offset="0.54" stop-color="#00351A"/>
<stop offset="0.73" stop-color="#00170B"/>
<stop offset="0.89" stop-color="#000603"/>
<stop offset="1"/>
</radialGradient>
<radialGradient id="paint13_radial_630_9904" cx="0" cy="0" r="1" gradientUnits="userSpaceOnUse" gradientTransform="translate(13.12 26.5298) rotate(-93.4327) scale(0.469214 0.470941)">
<stop stop-color="#00B359"/>
<stop offset="0.13" stop-color="#009148"/>
<stop offset="0.34" stop-color="#005D2E"/>
<stop offset="0.54" stop-color="#00351A"/>
<stop offset="0.73" stop-color="#00170B"/>
<stop offset="0.89" stop-color="#000603"/>
<stop offset="1"/>
</radialGradient>
<radialGradient id="paint14_radial_630_9904" cx="0" cy="0" r="1" gradientUnits="userSpaceOnUse" gradientTransform="translate(20.568 26.6504) rotate(-93.4327) scale(0.992053 0.995705)">
<stop stop-color="#00B359"/>
<stop offset="0.13" stop-color="#009148"/>
<stop offset="0.34" stop-color="#005D2E"/>
<stop offset="0.54" stop-color="#00351A"/>
<stop offset="0.73" stop-color="#00170B"/>
<stop offset="0.89" stop-color="#000603"/>
<stop offset="1"/>
</radialGradient>
<linearGradient id="paint15_linear_630_9904" x1="3.36538" y1="7.25136" x2="38.3501" y2="7.25136" gradientUnits="userSpaceOnUse">
<stop stop-color="#7ED140"/>
<stop offset="0.11" stop-color="#74C03B"/>
<stop offset="0.34" stop-color="#5A962E"/>
<stop offset="0.65" stop-color="#315219"/>
<stop offset="1"/>
</linearGradient>
</defs>
</svg>
