<svg width="71" height="66" viewBox="0 0 71 66" fill="none" xmlns="http://www.w3.org/2000/svg">
<path opacity="0.1" d="M64.7882 57.7452C64.6652 57.8777 64.5217 58.0103 64.3577 58.1326C52.2238 67.9924 18.794 67.6457 4.14919 58.7852C3.38057 58.3264 2.86816 57.8369 2.6222 57.3271C-2.57367 46.5701 0.244602 14.1972 8.49446 7.19238C17.349 -0.312025 51.3937 -3.70736 62.3286 5.83629C70.353 12.8309 74.1756 47.9364 64.7882 57.7452Z" fill="#3C3E48"/>
<path d="M62.8031 56.5434C62.6875 56.6686 62.5527 56.7938 62.3987 56.9093C50.9975 66.2209 19.5867 65.8935 5.82634 57.5256C5.10414 57.0923 4.62267 56.6301 4.39157 56.1486C-0.490503 45.9897 2.15756 15.4166 9.90917 8.80121C18.2289 1.71402 50.2176 -1.49255 60.4921 7.52051C68.0318 14.1262 71.6236 47.28 62.8031 56.5434Z" fill="url(#paint0_linear_421_6868)"/>
<path d="M4.46383 54.1392C9.17258 63.9418 53.1786 64.7218 62.8754 54.534C71.6958 45.2705 68.1041 12.1168 60.5643 5.51103C50.2898 -3.50202 18.3012 -0.295457 9.98144 6.80136C2.22983 13.4071 -0.418237 43.9802 4.46383 54.1392Z" fill="url(#paint1_radial_421_6868)"/>
<g style="mix-blend-mode:multiply" filter="url(#filter0_f_421_6868)">
<path d="M47.3121 47.8965L42.1447 40.7532C41.8775 40.384 41.7466 39.9329 41.7744 39.4773L42.3063 30.7539C42.3724 29.6698 43.3024 28.8451 44.3806 28.9113C45.4601 28.9776 46.2816 29.9102 46.2155 30.9941L45.7265 39.0129L50.4807 45.5851C51.1164 46.4638 50.9222 47.6935 50.0473 48.3318C49.1669 48.974 47.9437 48.7698 47.3121 47.8965Z" fill="#CED6FF"/>
<path d="M50.9193 37.213L45.7797 30.0223C45.1492 29.14 45.3501 27.9114 46.2287 27.2782C47.1072 26.6451 48.3306 26.8466 48.9614 27.729L53.2398 33.7149L59.0743 31.6152C60.0923 31.2488 61.2135 31.7805 61.5783 32.803C61.9432 33.8254 61.4136 34.9512 60.3955 35.3176L53.1708 37.9176C52.3513 38.2123 51.4313 37.9293 50.9193 37.213Z" fill="#CED6FF"/>
<path d="M47.0904 13.4808C41.8481 11.0511 37.8838 12.6343 36.6074 13.2957C36.7607 13.6286 36.8638 13.9899 36.9099 14.367C37.1779 14.4475 37.4295 14.5619 37.6608 14.706C37.658 14.7005 37.6556 14.6949 37.6527 14.6893C38.8868 14.1152 42.1096 13.0617 46.3746 15.0384C48.9391 16.227 52.5032 16.8692 56.968 16.9472C58.6932 16.9771 60.4494 16.9181 62 16.795V15.0722C59.6437 15.2631 51.853 15.6882 47.0904 13.4808Z" fill="#CED6FF"/>
<path d="M25.4316 29.2867C25.2563 28.3989 25.8308 27.5366 26.7149 27.3606L33.8284 25.9444L37.2124 19.7689C37.6468 18.9759 38.6393 18.6869 39.4287 19.1232C40.2184 19.5596 40.5062 20.556 40.0717 21.349L36.3212 28.1934C36.0888 28.6175 35.6816 28.9168 35.2088 29.0109L27.3495 30.5756C26.4659 30.7514 25.6068 30.1749 25.4316 29.2867Z" fill="#CED6FF"/>
<path d="M35.0687 24.1086C34.1972 23.0815 34.32 21.5394 35.3429 20.6642L37.2418 19.0396C38.0811 18.3215 39.1809 17.9879 40.2757 18.1194C41.3705 18.2509 42.361 18.8354 43.008 19.732L43.6323 20.597L49.2387 28.1116L42.1458 33.1801L35.0687 24.1086Z" fill="#CED6FF"/>
<path d="M50.0974 24.312L45.9856 20.9454L38.9203 22.1737C38.0315 22.3277 37.1876 21.7302 37.0339 20.8385C36.8802 19.9467 37.4755 19.0986 38.3634 18.9443L46.1618 17.5885C46.6274 17.5077 47.1051 17.6333 47.4714 17.9332L52.1596 21.7719C52.8582 22.3438 52.9626 23.3761 52.3932 24.0775C51.8222 24.781 50.794 24.8825 50.0974 24.312Z" fill="#CED6FF"/>
<path d="M38.0487 17.3011L38.9768 18.424L35.0958 21.6589L34.503 20.9417C33.8339 21.2231 33.1103 21.1672 32.086 20.8649C33.2703 19.8253 33.9475 18.5443 33.9029 17.5736C34.0961 17.5511 34.2851 17.4747 34.4459 17.3406C34.8875 16.9725 34.9484 16.3146 34.5818 15.8711C34.2152 15.4276 33.56 15.3666 33.1184 15.7347C32.9577 15.8687 32.848 16.0412 32.7904 16.2277C31.8119 15.9964 30.3615 16.4707 29.0902 17.5304C29.0346 17.5768 28.98 17.6238 28.9265 17.6712C28.7685 15.6334 28.5115 14.7196 30.3598 13.1367C32.295 11.4793 35.2467 11.6549 36.9523 13.529C37.9272 14.6 38.283 15.9937 38.0487 17.3011Z" fill="#CED6FF"/>
<path d="M28.8788 30.271L30.3748 29.9732L29.8156 26.7433L28.3196 27.0412L28.8788 30.271Z" fill="#CED6FF"/>
<path d="M39.7686 30.1331L40.7093 31.3389L47.7548 26.1226L46.8406 24.8972L39.7686 30.1331Z" fill="#CED6FF"/>
<path d="M47.9348 22.5413L49.1168 23.5092L51.2453 21.0232L50.0632 20.0554L47.9348 22.5413Z" fill="#CED6FF"/>
<path d="M17.2867 54.1307C16.2186 53.7904 15.6275 52.6449 15.9663 51.5724L18.4776 43.6253L13.3379 37.6183C12.6077 36.7647 12.7046 35.4784 13.5545 34.745C14.4046 34.0116 15.6856 34.1091 16.4158 34.9626L22.2925 41.8311C22.7508 42.3666 22.9003 43.1022 22.6877 43.7752L19.8343 52.8049C19.4953 53.8772 18.3549 54.4711 17.2867 54.1307Z" fill="#CED6FF"/>
<path d="M12.4608 24.9423C9.73698 24.6302 8.23906 22.2901 8.36453 20.2081C8.49033 18.1216 10.2533 15.697 14.808 15.7304L14.7953 17.4802C11.4637 17.4558 10.1874 18.928 10.1038 20.3138C10.0273 21.5818 10.962 23.0095 12.6584 23.2039L12.4608 24.9423Z" fill="#CED6FF"/>
<path d="M6.52505 36.937C5.5998 36.8455 4.92093 36.0203 5.00743 35.0896L5.58934 28.8226C5.64233 28.2523 5.97799 27.7474 6.48208 27.4794L15.1743 22.8611C15.9998 22.4227 17.0228 22.739 17.4597 23.5679C17.8964 24.3967 17.5813 25.4243 16.7559 25.8627L8.87162 30.0517L8.37454 35.4047C8.28793 36.3384 7.46388 37.0247 6.53407 36.9376C6.53095 36.9375 6.52795 36.9373 6.52505 36.937Z" fill="#CED6FF"/>
<path d="M21.0959 25.5456C21.4093 24.1832 20.5635 22.8238 19.2069 22.5091L16.6884 21.9248C14.3625 21.3853 12.0679 22.9517 11.7142 25.3248L11.551 26.4196L9.96832 36.9489L18.7725 37.8194L21.0959 25.5456Z" fill="#CED6FF"/>
<path d="M27.5526 27.7694C27.1544 26.9212 26.1467 26.5578 25.3022 26.9577L20.5802 29.1696L18.0497 24.3558C17.6767 23.6463 16.8384 23.3233 16.0885 23.6003C15.1643 23.9417 14.766 25.0342 15.2521 25.8941L18.9026 32.3531C19.2501 32.9679 20.0104 33.2103 20.6473 32.9094L26.7442 30.0292C27.589 29.6293 27.9508 28.6175 27.5526 27.7694Z" fill="#CED6FF"/>
<path d="M9.2577 55.9885C10.3376 56.1033 11.316 55.3438 11.4774 54.2653L14.2153 35.963C14.376 34.8493 13.6073 33.8156 12.4982 33.6543C11.3885 33.4926 10.36 34.2648 10.1992 35.3785L7.46521 53.6602C7.29366 54.8072 8.10913 55.8665 9.2577 55.9885Z" fill="#CED6FF"/>
<path d="M5.1133 33.9487L8.47885 34.2805L8.62547 32.701L5.26003 32.3691L5.1133 33.9487Z" fill="#CED6FF"/>
<path d="M10.3733 34.2551L19.2806 35.1357L19.5767 33.571L10.6093 32.6844L10.3733 34.2551Z" fill="#CED6FF"/>
<path d="M24.2089 31.2296L25.6382 30.5529L24.1281 27.5135L22.6989 28.1902L24.2089 31.2296Z" fill="#CED6FF"/>
<path d="M22.7936 16.1911C22.7232 16.1826 22.6523 16.1749 22.5807 16.1684C20.9466 16.0183 19.4897 16.4088 18.8123 17.0936C18.6615 16.981 18.4755 16.9059 18.2688 16.887C17.7012 16.8349 17.1956 17.2217 17.1398 17.7509C17.0839 18.2801 17.4988 18.7513 18.0665 18.8034C18.2733 18.8224 18.4717 18.7825 18.6433 18.6992C19.1449 19.4642 20.4113 20.093 21.9627 20.2729C22.4927 19.6773 22.8597 18.9488 22.987 18.1407C23.0947 17.4572 23.018 16.794 22.7936 16.1911Z" fill="#CED6FF"/>
<path d="M28.9578 17.7352C29.0139 17.6895 29.0708 17.6441 29.1288 17.5993C30.4544 16.5765 31.9161 16.1075 32.8646 16.3146C32.9341 16.1368 33.0541 15.9714 33.2217 15.8421C33.6822 15.4869 34.2269 15.5523 34.5576 15.9687C34.8882 16.3852 34.8511 16.8991 34.3906 17.2544C34.2228 17.3839 34.026 17.4542 33.8339 17.478C33.811 18.3993 33.2356 19.7733 31.997 20.776C31.2231 20.5634 30.3737 20.1014 29.8326 19.4885C29.375 18.97 29.0868 18.3677 28.9578 17.7352Z" fill="#CED6FF"/>
<path d="M13.678 17.1106C14.0586 14.5079 16.4902 12.6366 19.1093 12.931C21.5322 13.3974 22.2002 14.18 22.9608 15.9873C22.8874 15.9777 22.8135 15.9691 22.7389 15.9618C21.0352 15.7933 19.5164 16.2318 18.8101 17.0008C18.6529 16.8743 18.459 16.7901 18.2435 16.7688C17.6517 16.7104 17.1247 17.1447 17.0665 17.739C17.0083 18.3333 17.4408 18.8625 18.0326 18.921C18.2482 18.9423 18.4551 18.8975 18.634 18.8041C19.1569 19.6631 20.4771 20.3693 22.0946 20.5713C21.1982 21.6703 20.8642 21.6703 20.0652 22.045L19.971 23.0061L14.7701 22.4919L14.9176 20.9871C13.9608 20.0016 13.4604 18.598 13.678 17.1106Z" fill="#CED6FF"/>
</g>
<path d="M49.3121 45.8965L44.1447 38.7532C43.8775 38.384 43.7466 37.9329 43.7744 37.4773L44.3063 28.7539C44.3724 27.6698 45.3024 26.8451 46.3806 26.9113C47.4601 26.9776 48.2816 27.9102 48.2155 28.9941L47.7265 37.0129L52.4807 43.5851C53.1164 44.4638 52.9222 45.6935 52.0473 46.3318C51.1669 46.974 49.9437 46.7698 49.3121 45.8965Z" fill="white"/>
<path d="M52.9193 35.213L47.7797 28.0223C47.1492 27.14 47.3501 25.9114 48.2287 25.2782C49.1072 24.6451 50.3306 24.8466 50.9614 25.729L55.2398 31.7149L61.0743 29.6152C62.0923 29.2488 63.2135 29.7805 63.5783 30.803C63.9432 31.8254 63.4136 32.9512 62.3955 33.3176L55.1708 35.9176C54.3513 36.2123 53.4313 35.9293 52.9193 35.213Z" fill="white"/>
<path d="M49.0904 11.4808C43.8481 9.05113 39.8838 10.6343 38.6074 11.2957C38.7607 11.6286 38.8638 11.9899 38.9099 12.367C39.1779 12.4475 39.4295 12.5619 39.6608 12.706C39.658 12.7005 39.6556 12.6949 39.6527 12.6893C40.8868 12.1152 44.1096 11.0617 48.3746 13.0384C50.9391 14.227 54.5032 14.8692 58.968 14.9472C60.6932 14.9771 62.4494 14.9181 64 14.795V13.0722C61.6437 13.2631 53.853 13.6882 49.0904 11.4808Z" fill="white"/>
<path d="M27.4316 27.2867C27.2563 26.3989 27.8308 25.5366 28.7149 25.3606L35.8284 23.9444L39.2124 17.7689C39.6468 16.9759 40.6393 16.6869 41.4287 17.1232C42.2184 17.5596 42.5062 18.556 42.0717 19.349L38.3212 26.1934C38.0888 26.6175 37.6816 26.9168 37.2088 27.0109L29.3495 28.5756C28.4659 28.7514 27.6068 28.1749 27.4316 27.2867Z" fill="white"/>
<path d="M37.0687 22.1086C36.1972 21.0815 36.32 19.5394 37.3429 18.6642L39.2418 17.0396C40.0811 16.3215 41.1809 15.9879 42.2757 16.1194C43.3705 16.2509 44.361 16.8354 45.008 17.732L45.6323 18.597L51.2387 26.1116L44.1458 31.1801L37.0687 22.1086Z" fill="white"/>
<path d="M52.0974 22.312L47.9856 18.9454L40.9203 20.1737C40.0315 20.3277 39.1876 19.7302 39.0339 18.8385C38.8802 17.9467 39.4755 17.0986 40.3634 16.9443L48.1618 15.5885C48.6274 15.5077 49.1051 15.6333 49.4714 15.9332L54.1596 19.7719C54.8582 20.3438 54.9626 21.3761 54.3932 22.0775C53.8222 22.781 52.794 22.8825 52.0974 22.312Z" fill="white"/>
<path d="M40.0487 15.3011L40.9768 16.424L37.0958 19.6589L36.503 18.9417C35.8339 19.2231 35.1103 19.1672 34.086 18.8649C35.2703 17.8253 35.9475 16.5443 35.9029 15.5736C36.0961 15.5511 36.2851 15.4747 36.4459 15.3406C36.8875 14.9725 36.9484 14.3146 36.5818 13.8711C36.2152 13.4276 35.56 13.3666 35.1184 13.7347C34.9577 13.8687 34.848 14.0412 34.7904 14.2277C33.8119 13.9964 32.3615 14.4707 31.0902 15.5304C31.0346 15.5768 30.98 15.6238 30.9265 15.6712C30.7685 13.6334 30.5115 12.7196 32.3598 11.1367C34.295 9.47931 37.2467 9.65495 38.9523 11.529C39.9272 12.6 40.283 13.9937 40.0487 15.3011Z" fill="white"/>
<path d="M30.8788 28.271L32.3748 27.9732L31.8156 24.7433L30.3196 25.0412L30.8788 28.271Z" fill="white"/>
<path d="M41.7686 28.1331L42.7093 29.3389L49.7548 24.1226L48.8406 22.8972L41.7686 28.1331Z" fill="white"/>
<path d="M49.9348 20.5413L51.1168 21.5092L53.2453 19.0232L52.0632 18.0554L49.9348 20.5413Z" fill="white"/>
<path d="M19.2867 52.1307C18.2186 51.7904 17.6275 50.6449 17.9663 49.5724L20.4776 41.6253L15.3379 35.6183C14.6077 34.7647 14.7046 33.4784 15.5545 32.745C16.4046 32.0116 17.6856 32.1091 18.4158 32.9626L24.2925 39.8311C24.7508 40.3666 24.9003 41.1022 24.6877 41.7752L21.8343 50.8049C21.4953 51.8772 20.3549 52.4711 19.2867 52.1307Z" fill="white"/>
<path d="M14.4608 22.9423C11.737 22.6302 10.2391 20.2901 10.3645 18.2081C10.4903 16.1216 12.2533 13.697 16.808 13.7304L16.7953 15.4802C13.4637 15.4558 12.1874 16.928 12.1038 18.3138C12.0273 19.5818 12.962 21.0095 14.6584 21.2039L14.4608 22.9423Z" fill="white"/>
<path d="M8.52505 34.937C7.5998 34.8455 6.92093 34.0203 7.00743 33.0896L7.58934 26.8226C7.64233 26.2523 7.97799 25.7474 8.48208 25.4794L17.1743 20.8611C17.9998 20.4227 19.0228 20.739 19.4597 21.5679C19.8964 22.3967 19.5813 23.4243 18.7559 23.8627L10.8716 28.0517L10.3745 33.4047C10.2879 34.3384 9.46388 35.0247 8.53407 34.9376C8.53095 34.9375 8.52795 34.9373 8.52505 34.937Z" fill="white"/>
<path d="M23.0959 23.5456C23.4093 22.1832 22.5635 20.8238 21.2069 20.5091L18.6884 19.9248C16.3625 19.3853 14.0679 20.9517 13.7142 23.3248L13.551 24.4196L11.9683 34.9489L20.7725 35.8194L23.0959 23.5456Z" fill="white"/>
<path d="M29.5526 25.7694C29.1544 24.9212 28.1467 24.5578 27.3022 24.9577L22.5802 27.1696L20.0497 22.3558C19.6767 21.6463 18.8384 21.3233 18.0885 21.6003C17.1643 21.9417 16.766 23.0342 17.2521 23.8941L20.9026 30.3531C21.2501 30.9679 22.0104 31.2103 22.6473 30.9094L28.7442 28.0292C29.589 27.6293 29.9508 26.6175 29.5526 25.7694Z" fill="white"/>
<path d="M11.2577 53.9885C12.3376 54.1033 13.316 53.3438 13.4774 52.2653L16.2153 33.963C16.376 32.8493 15.6073 31.8156 14.4982 31.6543C13.3885 31.4926 12.36 32.2648 12.1992 33.3785L9.46521 51.6602C9.29366 52.8072 10.1091 53.8665 11.2577 53.9885Z" fill="white"/>
<path d="M7.1133 31.9487L10.4789 32.2805L10.6255 30.701L7.26003 30.3691L7.1133 31.9487Z" fill="white"/>
<path d="M12.3733 32.2551L21.2806 33.1357L21.5767 31.571L12.6093 30.6844L12.3733 32.2551Z" fill="white"/>
<path d="M26.2089 29.2296L27.6382 28.5529L26.1281 25.5135L24.6989 26.1902L26.2089 29.2296Z" fill="white"/>
<path d="M24.7936 14.1911C24.7232 14.1826 24.6523 14.1749 24.5807 14.1684C22.9466 14.0183 21.4897 14.4088 20.8123 15.0936C20.6615 14.981 20.4755 14.9059 20.2688 14.887C19.7012 14.8349 19.1956 15.2217 19.1398 15.7509C19.0839 16.2801 19.4988 16.7513 20.0665 16.8034C20.2733 16.8224 20.4717 16.7825 20.6433 16.6992C21.1449 17.4642 22.4113 18.093 23.9627 18.2729C24.4927 17.6773 24.8597 16.9488 24.987 16.1407C25.0947 15.4572 25.018 14.794 24.7936 14.1911Z" fill="white"/>
<path d="M30.9578 15.7352C31.0139 15.6895 31.0708 15.6441 31.1288 15.5993C32.4544 14.5765 33.9161 14.1075 34.8646 14.3146C34.9341 14.1368 35.0541 13.9714 35.2217 13.8421C35.6822 13.4869 36.2269 13.5523 36.5576 13.9687C36.8882 14.3852 36.8511 14.8991 36.3906 15.2544C36.2228 15.3839 36.026 15.4542 35.8339 15.478C35.811 16.3993 35.2356 17.7733 33.997 18.776C33.2231 18.5634 32.3737 18.1014 31.8326 17.4885C31.375 16.97 31.0868 16.3677 30.9578 15.7352Z" fill="white"/>
<path d="M15.678 15.1106C16.0586 12.5079 18.4902 10.6366 21.1093 10.931C23.5322 11.3974 24.2002 12.18 24.9608 13.9873C24.8874 13.9777 24.8135 13.9691 24.7389 13.9618C23.0352 13.7933 21.5164 14.2318 20.8101 15.0008C20.6529 14.8743 20.459 14.7901 20.2435 14.7688C19.6517 14.7104 19.1247 15.1447 19.0665 15.739C19.0083 16.3333 19.4408 16.8625 20.0326 16.921C20.2482 16.9423 20.4551 16.8975 20.634 16.8041C21.1569 17.6631 22.4771 18.3693 24.0946 18.5713C23.1982 19.6703 22.8642 19.6703 22.0652 20.045L21.971 21.0061L16.7701 20.4919L16.9176 18.9871C15.9608 18.0016 15.4604 16.598 15.678 15.1106Z" fill="white"/>
<path style="mix-blend-mode:screen" d="M9.5 8.50001C9.5 8.50001 22.5 -4 57 4C57 4 68 14 65.0251 20.7287C65.0251 20.7287 66 23 62 25C60.993 17.767 48 9.70387 39 7.70346C30.5 7.70346 8 10.5 8 10.5L9.5 8.50001Z" fill="url(#paint2_linear_421_6868)"/>
<path d="M7 11.5377C7 11.5377 8.47329 8.51406 11.8821 6.89633C15.3005 5.27861 25.0165 3.65125 25.575 4.06531C26.1239 4.47937 20.8373 6.38598 18.1026 7.39706C15.3679 8.40814 8.39625 12.3176 7 11.5473V11.5377Z" fill="white"/>
<path style="mix-blend-mode:screen" d="M62.311 54.1143C62.311 54.1143 58.4997 58.1686 50.9997 59.5C47.276 60.161 42.9295 61.0465 42.4997 60.5C42.0791 59.9561 47.6056 55.4426 50.51 55.1869C53.4144 54.9312 61.1692 52.9944 62.3135 54.1051L62.311 54.1143Z" fill="url(#paint3_linear_421_6868)"/>
<path d="M7.35415 13.0096C6.65121 13.1156 4.89867 18.5658 5.0046 19.4613C5.11052 20.3568 7.21934 17.5258 7.54674 16.014C7.87414 14.5118 7.35415 13 7.35415 13V13.0096Z" fill="white"/>
<path style="mix-blend-mode:screen" d="M63.4514 52.0183C64.1606 51.9703 66.3531 46.6817 66.3208 45.7805C66.2885 44.8793 63.9551 47.5283 63.5052 49.0083C63.056 50.4787 63.4506 52.0279 63.4506 52.0279L63.4514 52.0183Z" fill="url(#paint4_linear_421_6868)"/>
<path d="M60.0316 54.7213C59.6223 53.6892 63.3061 48.9776 64.246 49.0001C65.1859 49.0225 64.3521 52.0963 63.776 52.8142C63.2151 53.5322 60.2287 55.2373 60.0316 54.7213Z" fill="white"/>
<defs>
<filter id="filter0_f_421_6868" x="4" y="11" width="59" height="46" filterUnits="userSpaceOnUse" color-interpolation-filters="sRGB">
<feFlood flood-opacity="0" result="BackgroundImageFix"/>
<feBlend mode="normal" in="SourceGraphic" in2="BackgroundImageFix" result="shape"/>
<feGaussianBlur stdDeviation="0.5" result="effect1_foregroundBlur_421_6868"/>
</filter>
<linearGradient id="paint0_linear_421_6868" x1="38.1872" y1="63.847" x2="38.1872" y2="2.00908" gradientUnits="userSpaceOnUse">
<stop stop-color="#C26900"/>
<stop offset="1" stop-color="#923D00"/>
</linearGradient>
<radialGradient id="paint1_radial_421_6868" cx="0" cy="0" r="1" gradientUnits="userSpaceOnUse" gradientTransform="translate(35.8068 57.4711) scale(25.3388 75.8087)">
<stop stop-color="#FFBD00"/>
<stop offset="1" stop-color="#FF772C"/>
</radialGradient>
<linearGradient id="paint2_linear_421_6868" x1="11.6763" y1="13.8808" x2="57.9957" y2="13.8808" gradientUnits="userSpaceOnUse">
<stop stop-color="#7ED140"/>
<stop offset="0.11" stop-color="#74C03B"/>
<stop offset="0.34" stop-color="#5A962E"/>
<stop offset="0.65" stop-color="#315219"/>
<stop offset="1"/>
</linearGradient>
<linearGradient id="paint3_linear_421_6868" x1="59.6271" y1="56.9107" x2="45.5873" y2="53.0805" gradientUnits="userSpaceOnUse">
<stop stop-color="#7ED140"/>
<stop offset="0.11" stop-color="#74C03B"/>
<stop offset="0.34" stop-color="#5A962E"/>
<stop offset="0.65" stop-color="#315219"/>
<stop offset="1"/>
</linearGradient>
<linearGradient id="paint4_linear_421_6868" x1="65.8267" y1="48.6256" x2="63.758" y2="48.4559" gradientUnits="userSpaceOnUse">
<stop stop-color="#7ED140"/>
<stop offset="0.11" stop-color="#74C03B"/>
<stop offset="0.34" stop-color="#5A962E"/>
<stop offset="0.65" stop-color="#315219"/>
<stop offset="1"/>
</linearGradient>
</defs>
</svg>
