<svg width="72" height="59" viewBox="0 0 72 59" fill="none" xmlns="http://www.w3.org/2000/svg">
<path d="M1.19878 50.3312C3.67458 59.9896 63.5291 62.6966 68.6304 52.6574C73.2555 43.5432 71.3782 10.8816 67.4197 4.37926C62.0191 -4.49009 8.83023 1.74022 4.46357 8.71871C0.382581 15.2347 -1.35864 40.3192 1.19878 50.3312Z" fill="url(#paint0_radial_107_1747)"/>
<path d="M1.40343 48.6172C3.86563 57.9219 63.3665 58.5884 68.4405 48.9165C73.052 40.1288 71.2428 11.0449 67.2978 4.76017C61.9245 -3.78271 8.92605 2.21635 4.573 8.94998C0.519213 15.2347 -1.15399 38.9725 1.40343 48.6172Z" fill="url(#paint1_linear_107_1747)"/>
<path d="M2.13733 47.801C4.54511 56.8336 62.7673 57.4729 67.7325 48.0866C72.2487 39.5574 70.4667 11.3305 66.617 5.23623C61.3525 -3.06178 9.51032 2.77403 5.25248 9.30362C1.28032 15.3979 -0.352078 38.4419 2.13733 47.801Z" fill="url(#paint2_linear_107_1747)"/>
<path style="mix-blend-mode:screen" d="M66.5491 48.2635C66.5491 48.2635 39.3969 57.2281 5.19824 49.3245C5.19824 49.3245 27.4124 52.9294 37.302 49.3245C54.0885 43.1895 62.1417 41.3802 66.5491 48.2635Z" fill="url(#paint3_linear_107_1747)"/>
<path style="mix-blend-mode:screen" d="M21.1817 17.1528C22.1339 17.0983 22.9637 17.8193 23.0181 18.7852C23.0725 19.7374 22.3516 20.5672 21.3857 20.6216C20.4199 20.676 19.6037 19.955 19.5493 18.9892C19.4949 18.0234 20.2158 17.2072 21.1817 17.1528Z" fill="url(#paint4_radial_107_1747)"/>
<path d="M21.3856 18.3907C21.644 18.3771 21.8753 18.5812 21.8889 18.8396C21.9025 19.0981 21.6985 19.3293 21.44 19.3429C21.1815 19.3566 20.9503 19.1525 20.9367 18.894C20.9231 18.6356 21.1271 18.4043 21.3856 18.3907Z" fill="#FFFFAB"/>
<path style="mix-blend-mode:screen" d="M23.5352 9.69814C24.4874 9.64373 25.3172 10.3647 25.3716 11.3305C25.426 12.2828 24.7051 13.1126 23.7392 13.167C22.787 13.2214 21.9572 12.5004 21.9028 11.5346C21.8484 10.5824 22.5693 9.75255 23.5352 9.69814Z" fill="url(#paint5_radial_107_1747)"/>
<path d="M23.7533 10.9496C24.0117 10.936 24.243 11.14 24.2566 11.3985C24.2702 11.6569 24.0661 11.8882 23.8077 11.9018C23.5492 11.9154 23.318 11.7113 23.3044 11.4529C23.2908 11.1944 23.4948 10.9632 23.7533 10.9496Z" fill="#FFFFAB"/>
<path style="mix-blend-mode:screen" d="M22.1475 31.0689C23.0997 31.0145 23.9295 31.7354 23.9839 32.7013C24.0383 33.6535 23.3174 34.4833 22.3515 34.5377C21.3993 34.5921 20.5695 33.8711 20.5151 32.9053C20.4607 31.9531 21.1817 31.1233 22.1475 31.0689Z" fill="url(#paint6_radial_107_1747)"/>
<path d="M22.3514 32.3203C22.6099 32.3067 22.8411 32.5108 22.8547 32.7693C22.8683 33.0277 22.6643 33.259 22.4058 33.2726C22.1474 33.2862 21.9161 33.0821 21.9025 32.8237C21.8889 32.5652 22.0929 32.3339 22.3514 32.3203Z" fill="#FFFFAB"/>
<path style="mix-blend-mode:screen" d="M13.9857 5.88922C16.6655 5.72598 18.9645 7.76647 19.1277 10.4463C19.291 13.1262 17.2505 15.4251 14.5706 15.5884C11.8908 15.7516 9.59182 13.7111 9.42858 11.0313C9.26534 8.35141 11.3058 6.05246 13.9857 5.88922Z" fill="url(#paint7_radial_107_1747)"/>
<path d="M14.5704 9.37164C15.305 9.33083 15.9444 9.88857 15.9988 10.6367C16.0396 11.3713 15.4819 12.0107 14.7337 12.0651C13.9991 12.1059 13.3597 11.5482 13.3053 10.8C13.2645 10.0654 13.8223 9.42605 14.5704 9.37164Z" fill="#FFFFAB"/>
<path style="mix-blend-mode:screen" d="M27.8341 42.9582C29.1128 42.8766 30.2147 43.856 30.2827 45.1347C30.3643 46.4135 29.3849 47.5153 28.1062 47.5833C26.8275 47.665 25.7256 46.6855 25.6576 45.4068C25.576 44.1281 26.5554 43.0262 27.8341 42.9582Z" fill="url(#paint8_radial_107_1747)"/>
<path d="M28.1068 44.6178C28.4605 44.5906 28.7597 44.8626 28.7869 45.2163C28.8141 45.57 28.5421 45.8693 28.1884 45.8965C27.8347 45.9237 27.5354 45.6516 27.5082 45.2979C27.481 44.9443 27.7531 44.645 28.1068 44.6178Z" fill="#FFFFAB"/>
<path style="mix-blend-mode:screen" d="M7.23859 49.0797C7.87795 49.0389 8.42208 49.5286 8.46289 50.168C8.5037 50.8073 8.01398 51.3515 7.37462 51.3923C6.73527 51.4331 6.19114 50.9434 6.15033 50.304C6.10952 49.6646 6.59923 49.1205 7.23859 49.0797Z" fill="url(#paint9_radial_107_1747)"/>
<path d="M7.38863 49.9095C7.56547 49.9095 7.71511 50.0319 7.72871 50.2088C7.72871 50.3856 7.60628 50.5352 7.42944 50.5488C7.2526 50.5488 7.10296 50.4264 7.08936 50.2496C7.08936 50.0727 7.21178 49.9231 7.38863 49.9095Z" fill="#FFFFAB"/>
<path style="mix-blend-mode:screen" d="M39.8187 29.1781C40.458 29.1373 41.0022 29.627 41.043 30.2663C41.0838 30.9057 40.5941 31.4498 39.9547 31.4906C39.3153 31.5314 38.7712 31.0417 38.7304 30.4024C38.6896 29.763 39.1793 29.2189 39.8187 29.1781Z" fill="url(#paint10_radial_107_1747)"/>
<path d="M39.9687 30.0079C40.1455 30.0079 40.2952 30.1303 40.3088 30.3072C40.3088 30.484 40.1864 30.6337 40.0095 30.6473C39.8327 30.6609 39.683 30.5248 39.6694 30.348C39.6694 30.1711 39.7919 30.0215 39.9687 30.0079Z" fill="#FFFFAB"/>
<path style="mix-blend-mode:screen" d="M23.7395 47.3656C24.2156 47.3384 24.6237 47.7057 24.6509 48.1818C24.6781 48.658 24.3108 49.0661 23.8347 49.0933C23.3586 49.1205 22.9505 48.7532 22.9233 48.2771C22.8961 47.801 23.2634 47.3929 23.7395 47.3656Z" fill="url(#paint11_radial_107_1747)"/>
<path d="M23.8484 47.9915C23.9845 47.9915 24.0933 48.0867 24.1069 48.2227C24.1205 48.3587 24.0117 48.4676 23.8756 48.4812C23.7396 48.4812 23.6308 48.386 23.6172 48.2499C23.6172 48.1139 23.7124 48.0051 23.8484 47.9915Z" fill="#FFFFAB"/>
<path style="mix-blend-mode:screen" d="M37.1665 46.6583C38.1596 46.6039 39.0166 47.3657 39.0846 48.3587C39.139 49.3517 38.3772 50.2088 37.3842 50.2768C36.3911 50.3312 35.5341 49.5694 35.4661 48.5764C35.4117 47.5833 36.1735 46.7263 37.1665 46.6583Z" fill="url(#paint12_radial_107_1747)"/>
<path d="M37.384 47.9642C37.6561 47.9506 37.9009 48.1547 37.9145 48.4404C37.9281 48.7124 37.7241 48.9573 37.4384 48.9709C37.1663 48.9845 36.9215 48.7804 36.9079 48.4948C36.8943 48.2227 37.0983 47.9778 37.384 47.9642Z" fill="#FFFFAB"/>
<path d="M55.5 29.6917L50.373 30.5872L47.9268 48.0002H41.6605C41.4594 44.1196 40.5547 34.3683 36.5335 34.8327C32.7469 35.2639 31.8422 43.4894 31.6076 48.0002H25.9444C25.9444 48.0002 23.1966 38.3816 22.0238 30.5872H17.5C17.5 30.5872 29.3959 8.49769 35.1596 8.00018C40.9233 7.53583 55.5 29.6917 55.5 29.6917Z" fill="#FF5200"/>
<path d="M64.9574 49.9911C64.6446 48.9573 67.3788 44.2505 68.0726 44.2641C68.7664 44.2777 68.1542 47.3657 67.7325 48.0867C67.3108 48.8076 65.1071 50.508 64.9574 49.9911Z" fill="white"/>
<path style="mix-blend-mode:screen" d="M6.09612 9.14044C6.09612 9.14044 45.6953 -6.09526 66.7532 5.38593C66.7532 5.38593 68.6033 9.73899 69.4467 16.5951C69.4467 16.5951 62.7811 24.3489 50.1844 25.2196C39.3426 25.9677 28.7728 12.1196 19.6314 10.3919C10.49 8.67793 6.08252 9.12684 6.08252 9.12684L6.09612 9.14044Z" fill="url(#paint13_linear_107_1747)"/>
<path d="M5.29285 11.8882C4.53107 11.9971 2.62661 17.9145 2.73543 18.8939C2.84426 19.8598 5.14322 16.7854 5.4969 15.153C5.85059 13.5206 5.29285 11.8882 5.29285 11.8882Z" fill="white"/>
<path d="M5.61964 10.9496C4.69461 10.5959 6.34061 8.06573 7.74175 7.43997C9.14289 6.81422 12.6117 6.09325 13.0062 6.74621C13.4007 7.39916 6.66709 11.3577 5.61964 10.9496Z" fill="white"/>
<defs>
<radialGradient id="paint0_radial_107_1747" cx="0" cy="0" r="1" gradientUnits="userSpaceOnUse" gradientTransform="translate(36.5177 54.8322) scale(27.3706 72.3278)">
<stop stop-color="#FFBD00"/>
<stop offset="1" stop-color="#FF772C"/>
</radialGradient>
<linearGradient id="paint1_linear_107_1747" x1="35.6804" y1="55.8846" x2="35.6804" y2="0.545409" gradientUnits="userSpaceOnUse">
<stop stop-color="#FFF300"/>
<stop offset="1" stop-color="#FF9700"/>
</linearGradient>
<linearGradient id="paint2_linear_107_1747" x1="35.6798" y1="54.8535" x2="35.6798" y2="1.13983" gradientUnits="userSpaceOnUse">
<stop stop-color="#FFCC00"/>
<stop offset="1" stop-color="#FF9700"/>
</linearGradient>
<linearGradient id="paint3_linear_107_1747" x1="66.5491" y1="48.2182" x2="5.19824" y2="48.2182" gradientUnits="userSpaceOnUse">
<stop stop-color="#FF6140"/>
<stop offset="0.1" stop-color="#EE5A3B"/>
<stop offset="0.29" stop-color="#C44A31"/>
<stop offset="0.55" stop-color="#803020"/>
<stop offset="0.88" stop-color="#240D09"/>
<stop offset="1"/>
</linearGradient>
<radialGradient id="paint4_radial_107_1747" cx="0" cy="0" r="1" gradientUnits="userSpaceOnUse" gradientTransform="translate(21.2853 18.9008) rotate(-93.42) scale(1.74122)">
<stop stop-color="#00B359"/>
<stop offset="0.13" stop-color="#009148"/>
<stop offset="0.34" stop-color="#005D2E"/>
<stop offset="0.54" stop-color="#00351A"/>
<stop offset="0.73" stop-color="#00170B"/>
<stop offset="0.89" stop-color="#000603"/>
<stop offset="1"/>
</radialGradient>
<radialGradient id="paint5_radial_107_1747" cx="0" cy="0" r="1" gradientUnits="userSpaceOnUse" gradientTransform="translate(23.6334 11.4425) rotate(-93.42) scale(1.74122)">
<stop stop-color="#00B359"/>
<stop offset="0.13" stop-color="#009148"/>
<stop offset="0.34" stop-color="#005D2E"/>
<stop offset="0.54" stop-color="#00351A"/>
<stop offset="0.73" stop-color="#00170B"/>
<stop offset="0.89" stop-color="#000603"/>
<stop offset="1"/>
</radialGradient>
<radialGradient id="paint6_radial_107_1747" cx="0" cy="0" r="1" gradientUnits="userSpaceOnUse" gradientTransform="translate(22.2401 32.8256) rotate(-93.42) scale(1.74122)">
<stop stop-color="#00B359"/>
<stop offset="0.13" stop-color="#009148"/>
<stop offset="0.34" stop-color="#005D2E"/>
<stop offset="0.54" stop-color="#00351A"/>
<stop offset="0.73" stop-color="#00170B"/>
<stop offset="0.89" stop-color="#000603"/>
<stop offset="1"/>
</radialGradient>
<radialGradient id="paint7_radial_107_1747" cx="0" cy="0" r="1" gradientUnits="userSpaceOnUse" gradientTransform="translate(14.2706 10.7483) rotate(-93.42) scale(4.85638)">
<stop stop-color="#00B359"/>
<stop offset="0.13" stop-color="#009148"/>
<stop offset="0.34" stop-color="#005D2E"/>
<stop offset="0.54" stop-color="#00351A"/>
<stop offset="0.73" stop-color="#00170B"/>
<stop offset="0.89" stop-color="#000603"/>
<stop offset="1"/>
</radialGradient>
<radialGradient id="paint8_radial_107_1747" cx="0" cy="0" r="1" gradientUnits="userSpaceOnUse" gradientTransform="translate(27.9725 45.2794) rotate(-93.42) scale(2.31256)">
<stop stop-color="#00B359"/>
<stop offset="0.13" stop-color="#009148"/>
<stop offset="0.34" stop-color="#005D2E"/>
<stop offset="0.54" stop-color="#00351A"/>
<stop offset="0.73" stop-color="#00170B"/>
<stop offset="0.89" stop-color="#000603"/>
<stop offset="1"/>
</radialGradient>
<radialGradient id="paint9_radial_107_1747" cx="0" cy="0" r="1" gradientUnits="userSpaceOnUse" gradientTransform="translate(7.31008 50.2482) rotate(-93.42) scale(1.15628 1.15628)">
<stop stop-color="#00B359"/>
<stop offset="0.13" stop-color="#009148"/>
<stop offset="0.34" stop-color="#005D2E"/>
<stop offset="0.54" stop-color="#00351A"/>
<stop offset="0.73" stop-color="#00170B"/>
<stop offset="0.89" stop-color="#000603"/>
<stop offset="1"/>
</radialGradient>
<radialGradient id="paint10_radial_107_1747" cx="0" cy="0" r="1" gradientUnits="userSpaceOnUse" gradientTransform="translate(39.8896 30.34) rotate(-93.42) scale(1.15628 1.15628)">
<stop stop-color="#00B359"/>
<stop offset="0.13" stop-color="#009148"/>
<stop offset="0.34" stop-color="#005D2E"/>
<stop offset="0.54" stop-color="#00351A"/>
<stop offset="0.73" stop-color="#00170B"/>
<stop offset="0.89" stop-color="#000603"/>
<stop offset="1"/>
</radialGradient>
<radialGradient id="paint11_radial_107_1747" cx="0" cy="0" r="1" gradientUnits="userSpaceOnUse" gradientTransform="translate(23.7886 48.2413) rotate(-93.42) scale(0.870612)">
<stop stop-color="#00B359"/>
<stop offset="0.13" stop-color="#009148"/>
<stop offset="0.34" stop-color="#005D2E"/>
<stop offset="0.54" stop-color="#00351A"/>
<stop offset="0.73" stop-color="#00170B"/>
<stop offset="0.89" stop-color="#000603"/>
<stop offset="1"/>
</radialGradient>
<radialGradient id="paint12_radial_107_1747" cx="0" cy="0" r="1" gradientUnits="userSpaceOnUse" gradientTransform="translate(37.2678 48.4851) rotate(-93.42) scale(1.80924)">
<stop stop-color="#00B359"/>
<stop offset="0.13" stop-color="#009148"/>
<stop offset="0.34" stop-color="#005D2E"/>
<stop offset="0.54" stop-color="#00351A"/>
<stop offset="0.73" stop-color="#00170B"/>
<stop offset="0.89" stop-color="#000603"/>
<stop offset="1"/>
</radialGradient>
<linearGradient id="paint13_linear_107_1747" x1="6.09017" y1="13.1798" x2="69.4544" y2="13.1798" gradientUnits="userSpaceOnUse">
<stop stop-color="#FF9840"/>
<stop offset="0.1" stop-color="#EE8E3B"/>
<stop offset="0.29" stop-color="#C47531"/>
<stop offset="0.55" stop-color="#804C20"/>
<stop offset="0.88" stop-color="#241509"/>
<stop offset="1"/>
</linearGradient>
</defs>
</svg>
