<svg width="690" height="158" viewBox="0 0 690 158" fill="none" xmlns="http://www.w3.org/2000/svg">
<mask id="path-1-outside-1_236_1626" maskUnits="userSpaceOnUse" x="28" y="99.4999" width="637" height="58" fill="black">
<rect fill="white" x="28" y="99.4999" width="637" height="58"/>
<path d="M35.7536 134.045L29 100.697H35.5573L38.8556 116.82L42.8607 100.697L48.829 100.5L41.6042 132.157L41.4471 156.225L35.7536 156.421V134.045Z"/>
<path d="M72.5453 148.241C72.3359 153.354 69.7313 155.91 64.7315 155.91H59.9019C54.6665 155.779 52.1142 153.144 52.2451 148.005L52.7948 108.365C52.7948 103.751 55.2947 101.313 60.2945 101.05L64.7315 100.854C69.4695 100.985 71.9694 103.62 72.2312 108.758L72.5453 148.241ZM66.6555 108.562C66.6555 107.408 65.9487 106.7 64.5352 106.438H60.0982C59.0773 106.438 58.5668 107.211 58.5668 108.758L58.3705 148.399C58.2396 149.683 58.9464 150.326 60.4908 150.326H64.3389C65.7524 150.588 66.5901 149.88 66.8518 148.202L66.6555 108.562Z"/>
<path d="M81.7334 101.05L82.1261 147.652C81.9952 149.434 82.6365 150.195 84.0501 149.932L88.2907 149.579C89.3116 149.814 89.8875 149.29 90.0184 148.005L89.6258 100.697L95.3978 100.5L95.7904 147.652C95.5287 153.288 92.9633 156.107 88.0944 156.107L83.8538 155.91C79.1157 155.91 76.6158 153.406 76.3541 148.399L76.0007 100.854L81.7334 101.05Z"/>
<path d="M105.646 132.472L105.882 156.107H99.5599L99.3636 100.697L103.212 100.932V100.854L111.85 100.697C116.85 100.565 119.35 103.187 119.35 108.562L119.507 124.725C119.742 129.496 117.831 131.961 113.774 132.118L120.528 155.517L113.695 156.303L107.492 132.354L105.646 132.472ZM105.371 106.792L105.568 126.534L111.261 126.258C112.805 126.127 113.512 124.908 113.381 122.601L112.989 108.562C112.858 107.146 111.968 106.504 110.319 106.635L105.371 106.792Z"/>
<path d="M140.828 100.854L141.221 150.129L154.689 149.539L154.885 156.303H135.291L135.095 100.697L140.828 100.854Z"/>
<path d="M178.405 148.241C178.195 153.354 175.591 155.91 170.591 155.91H165.761C160.526 155.779 157.974 153.144 158.105 148.005L158.654 108.365C158.654 103.751 161.154 101.313 166.154 101.05L170.591 100.854C175.329 100.985 177.829 103.62 178.091 108.758L178.405 148.241ZM172.515 108.562C172.515 107.408 171.808 106.7 170.395 106.438H165.958C164.937 106.438 164.426 107.211 164.426 108.758L164.23 148.399C164.099 149.683 164.806 150.326 166.35 150.326H170.198C171.612 150.588 172.45 149.88 172.711 148.202L172.515 108.562Z"/>
<path d="M182.017 156.5L182.214 101.05L188.967 100.854L195.878 137.82L196.074 101.05L201.807 100.854L201.65 155.713L194.543 156.107L187.986 124.725L187.789 155.91L182.017 156.5Z"/>
<path d="M225.209 125.511L215.589 125.314L215 131.646L219.633 131.292L219.83 148.202C219.568 149.88 218.73 150.588 217.317 150.326H213.469C211.924 150.326 211.218 149.683 211.348 148.399L211.545 108.758C211.545 107.211 212.055 106.438 213.076 106.438H217.513C218.927 106.7 219.633 107.408 219.633 108.562L219.241 112.809H225.366L225.209 108.758C224.947 103.62 222.448 100.985 217.709 100.854L213.273 101.05C208.273 101.313 205.773 103.751 205.773 108.365L205.223 148.005C205.092 153.144 207.644 155.779 212.88 155.91H217.709C222.709 155.91 225.209 153.406 225.209 148.399V125.511Z"/>
<path d="M253.323 125.197L253.166 131.331L229.214 131.607L229.018 125.472L253.323 125.197Z"/>
<path d="M256.7 101.247L277.432 100.5L277.236 106.438H269.579L270.129 156.107L264.003 155.91L263.807 106.241L257.093 106.438L256.7 101.247Z"/>
<path d="M300.049 107.225L286.777 107.814V124.921L298.125 125.708L297.929 132.236L286.974 131.489L286.777 149.579L301.188 149.932L300.442 156.5L280.259 155.713L281.005 101.247L300.442 100.854L300.049 107.225Z"/>
<path d="M310.297 132.472L310.533 156.107H304.211L304.015 100.697L307.863 100.932V100.854L316.501 100.697C321.501 100.565 324.001 103.187 324.001 108.562L324.158 124.725C324.394 129.496 322.483 131.961 318.425 132.118L325.179 155.517L318.347 156.303L312.143 132.354L310.297 132.472ZM310.022 106.792L310.219 126.534L315.912 126.258C317.457 126.127 318.163 124.908 318.033 122.601L317.64 108.562C317.509 107.146 316.619 106.504 314.97 106.635L310.022 106.792Z"/>
<path d="M327.77 156.303L328.32 101.247L335.427 101.05L341.788 136.286L347.717 101.05L355.217 101.247L355.61 156.107H349.288L349.641 128.579L344.458 149.579L338.883 149.736L334.092 128.579L333.896 155.32L327.77 156.303Z"/>
<path d="M376.891 132.472L376.734 155.91L370.805 156.107L370.609 100.697L375.988 100.814L383.095 100.697C388.095 100.565 390.595 103.187 390.595 108.562L390.752 124.725C391.014 130.125 388.527 132.564 383.292 132.039L376.891 132.472ZM377.088 106.753L376.931 126.534L382.506 126.258C384.051 126.127 384.758 124.908 384.627 122.601L384.234 108.562C384.103 107.146 383.213 106.504 381.564 106.635L377.088 106.753Z"/>
<path d="M390.674 156.107L398.37 100.697L403.906 100.854L411.209 155.517L404.888 156.107L403.906 146.472L397.781 147.062L397.192 155.91L390.674 156.107ZM403.16 140.691L400.843 123.388L398.37 141.281L403.16 140.691Z"/>
<path d="M435.122 112.612L429.193 112.809L428.8 109.348C428.8 107.67 428.028 106.7 426.484 106.438L422.832 107.028C421.942 107.421 421.431 108.195 421.301 109.348L421.104 122.798C421.104 124.476 421.876 125.249 423.421 125.118L427.465 125.314C432.439 125.446 434.86 128.657 434.729 134.949L434.572 147.652C434.441 153.55 431.811 156.238 426.68 155.713L422.243 155.91C416.746 156.041 414.259 153.288 414.783 147.652L415.332 143.601L421.497 143.994L421.104 147.652C421.104 149.041 421.746 149.736 423.028 149.736L426.484 149.932C428.028 149.801 428.866 147.822 428.997 143.994V134.556C428.866 132.511 428.028 131.541 426.484 131.646L422.243 131.489C417.374 130.833 415.005 128.198 415.136 123.584V108.562C415.398 103.554 417.832 101.05 422.439 101.05L427.073 100.697C432.177 100.801 434.86 103.554 435.122 108.955V112.612Z"/>
<path d="M458.838 112.612L452.909 112.809L452.517 109.348C452.517 107.67 451.744 106.7 450.2 106.438L446.548 107.028C445.658 107.421 445.148 108.195 445.017 109.348L444.821 122.798C444.821 124.476 445.593 125.249 447.137 125.118L451.182 125.314C456.155 125.446 458.577 128.657 458.446 134.949L458.289 147.652C458.158 153.55 455.527 156.238 450.396 155.713L445.959 155.91C440.462 156.041 437.975 153.288 438.499 147.652L439.049 143.601L445.213 143.994L444.821 147.652C444.821 149.041 445.462 149.736 446.745 149.736L450.2 149.932C451.744 149.801 452.582 147.822 452.713 143.994V134.556C452.582 132.511 451.744 131.541 450.2 131.646L445.959 131.489C441.09 130.833 438.721 128.198 438.852 123.584V108.562C439.114 103.554 441.548 101.05 446.156 101.05L450.789 100.697C455.893 100.801 458.577 103.554 458.838 108.955V112.612Z"/>
<path d="M462.019 100.697L468.144 100.854L468.341 155.91L462.215 156.107L462.019 100.697Z"/>
<path d="M492.489 100.697L484.793 156.107L479.256 155.949L471.953 101.286L478.275 100.697L482.123 131.095L485.971 100.893L492.489 100.697Z"/>
<path d="M515.459 107.225L502.187 107.814V124.921L513.535 125.708L513.339 132.236L502.384 131.489L502.187 149.579L516.598 149.932L515.852 156.5L495.669 155.713L496.415 101.247L515.852 100.854L515.459 107.225Z"/>
<path d="M531.047 100.697L537.173 100.854L537.369 155.91L531.244 156.107L531.047 100.697Z"/>
<path d="M541.531 156.5L541.728 101.05L548.481 100.854L555.392 137.82L555.588 101.05L561.321 100.854L561.164 155.713L554.057 156.107L547.5 124.725L547.303 155.91L541.531 156.5Z"/>
<path d="M584.88 112.809H578.755L579.147 108.562C579.147 107.408 578.441 106.7 577.027 106.438H572.59C571.569 106.438 571.059 107.211 571.059 108.758L570.862 148.399C570.732 149.683 571.438 150.326 572.983 150.326H576.831C578.244 150.588 579.082 149.88 579.344 148.202V143.798L584.88 143.994L584.723 148.399C584.723 153.406 582.223 155.91 577.223 155.91H572.394C567.158 155.779 564.606 153.144 564.737 148.005L565.287 108.365C565.287 103.751 567.787 101.313 572.786 101.05L577.223 100.854C581.961 100.985 584.461 103.62 584.723 108.758L584.88 112.809Z"/>
<path d="M608.596 148.241C608.387 153.354 605.782 155.91 600.783 155.91H595.953C590.718 155.779 588.165 153.144 588.296 148.005L588.846 108.365C588.846 103.751 591.346 101.313 596.346 101.05L600.783 100.854C605.521 100.985 608.021 103.62 608.282 108.758L608.596 148.241ZM602.707 108.562C602.707 107.408 602 106.7 600.586 106.438H596.149C595.128 106.438 594.618 107.211 594.618 108.758L594.422 148.399C594.291 149.683 594.998 150.326 596.542 150.326H600.39C601.804 150.588 602.641 149.88 602.903 148.202L602.707 108.562Z"/>
<path d="M612.052 156.303L612.602 101.247L619.709 101.05L626.07 136.286L631.999 101.05L639.498 101.247L639.891 156.107H633.569L633.923 128.579L628.74 149.579L623.164 149.736L618.374 128.579L618.177 155.32L612.052 156.303Z"/>
<path d="M662.861 107.225L649.59 107.814V124.921L660.937 125.708L660.741 132.236L649.786 131.489L649.59 149.579L664 149.932L663.254 156.5L643.072 155.713L643.818 101.247L663.254 100.854L662.861 107.225Z"/>
</mask>
<path d="M35.7536 134.045L29 100.697H35.5573L38.8556 116.82L42.8607 100.697L48.829 100.5L41.6042 132.157L41.4471 156.225L35.7536 156.421V134.045Z" fill="url(#paint0_linear_236_1626)"/>
<path d="M72.5453 148.241C72.3359 153.354 69.7313 155.91 64.7315 155.91H59.9019C54.6665 155.779 52.1142 153.144 52.2451 148.005L52.7948 108.365C52.7948 103.751 55.2947 101.313 60.2945 101.05L64.7315 100.854C69.4695 100.985 71.9694 103.62 72.2312 108.758L72.5453 148.241ZM66.6555 108.562C66.6555 107.408 65.9487 106.7 64.5352 106.438H60.0982C59.0773 106.438 58.5668 107.211 58.5668 108.758L58.3705 148.399C58.2396 149.683 58.9464 150.326 60.4908 150.326H64.3389C65.7524 150.588 66.5901 149.88 66.8518 148.202L66.6555 108.562Z" fill="url(#paint1_linear_236_1626)"/>
<path d="M81.7334 101.05L82.1261 147.652C81.9952 149.434 82.6365 150.195 84.0501 149.932L88.2907 149.579C89.3116 149.814 89.8875 149.29 90.0184 148.005L89.6258 100.697L95.3978 100.5L95.7904 147.652C95.5287 153.288 92.9633 156.107 88.0944 156.107L83.8538 155.91C79.1157 155.91 76.6158 153.406 76.3541 148.399L76.0007 100.854L81.7334 101.05Z" fill="url(#paint2_linear_236_1626)"/>
<path d="M105.646 132.472L105.882 156.107H99.5599L99.3636 100.697L103.212 100.932V100.854L111.85 100.697C116.85 100.565 119.35 103.187 119.35 108.562L119.507 124.725C119.742 129.496 117.831 131.961 113.774 132.118L120.528 155.517L113.695 156.303L107.492 132.354L105.646 132.472ZM105.371 106.792L105.568 126.534L111.261 126.258C112.805 126.127 113.512 124.908 113.381 122.601L112.989 108.562C112.858 107.146 111.968 106.504 110.319 106.635L105.371 106.792Z" fill="url(#paint3_linear_236_1626)"/>
<path d="M140.828 100.854L141.221 150.129L154.689 149.539L154.885 156.303H135.291L135.095 100.697L140.828 100.854Z" fill="url(#paint4_linear_236_1626)"/>
<path d="M178.405 148.241C178.195 153.354 175.591 155.91 170.591 155.91H165.761C160.526 155.779 157.974 153.144 158.105 148.005L158.654 108.365C158.654 103.751 161.154 101.313 166.154 101.05L170.591 100.854C175.329 100.985 177.829 103.62 178.091 108.758L178.405 148.241ZM172.515 108.562C172.515 107.408 171.808 106.7 170.395 106.438H165.958C164.937 106.438 164.426 107.211 164.426 108.758L164.23 148.399C164.099 149.683 164.806 150.326 166.35 150.326H170.198C171.612 150.588 172.45 149.88 172.711 148.202L172.515 108.562Z" fill="url(#paint5_linear_236_1626)"/>
<path d="M182.017 156.5L182.214 101.05L188.967 100.854L195.878 137.82L196.074 101.05L201.807 100.854L201.65 155.713L194.543 156.107L187.986 124.725L187.789 155.91L182.017 156.5Z" fill="url(#paint6_linear_236_1626)"/>
<path d="M225.209 125.511L215.589 125.314L215 131.646L219.633 131.292L219.83 148.202C219.568 149.88 218.73 150.588 217.317 150.326H213.469C211.924 150.326 211.218 149.683 211.348 148.399L211.545 108.758C211.545 107.211 212.055 106.438 213.076 106.438H217.513C218.927 106.7 219.633 107.408 219.633 108.562L219.241 112.809H225.366L225.209 108.758C224.947 103.62 222.448 100.985 217.709 100.854L213.273 101.05C208.273 101.313 205.773 103.751 205.773 108.365L205.223 148.005C205.092 153.144 207.644 155.779 212.88 155.91H217.709C222.709 155.91 225.209 153.406 225.209 148.399V125.511Z" fill="url(#paint7_linear_236_1626)"/>
<path d="M253.323 125.197L253.166 131.331L229.214 131.607L229.018 125.472L253.323 125.197Z" fill="url(#paint8_linear_236_1626)"/>
<path d="M256.7 101.247L277.432 100.5L277.236 106.438H269.579L270.129 156.107L264.003 155.91L263.807 106.241L257.093 106.438L256.7 101.247Z" fill="url(#paint9_linear_236_1626)"/>
<path d="M300.049 107.225L286.777 107.814V124.921L298.125 125.708L297.929 132.236L286.974 131.489L286.777 149.579L301.188 149.932L300.442 156.5L280.259 155.713L281.005 101.247L300.442 100.854L300.049 107.225Z" fill="url(#paint10_linear_236_1626)"/>
<path d="M310.297 132.472L310.533 156.107H304.211L304.015 100.697L307.863 100.932V100.854L316.501 100.697C321.501 100.565 324.001 103.187 324.001 108.562L324.158 124.725C324.394 129.496 322.483 131.961 318.425 132.118L325.179 155.517L318.347 156.303L312.143 132.354L310.297 132.472ZM310.022 106.792L310.219 126.534L315.912 126.258C317.457 126.127 318.163 124.908 318.033 122.601L317.64 108.562C317.509 107.146 316.619 106.504 314.97 106.635L310.022 106.792Z" fill="url(#paint11_linear_236_1626)"/>
<path d="M327.77 156.303L328.32 101.247L335.427 101.05L341.788 136.286L347.717 101.05L355.217 101.247L355.61 156.107H349.288L349.641 128.579L344.458 149.579L338.883 149.736L334.092 128.579L333.896 155.32L327.77 156.303Z" fill="url(#paint12_linear_236_1626)"/>
<path d="M376.891 132.472L376.734 155.91L370.805 156.107L370.609 100.697L375.988 100.814L383.095 100.697C388.095 100.565 390.595 103.187 390.595 108.562L390.752 124.725C391.014 130.125 388.527 132.564 383.292 132.039L376.891 132.472ZM377.088 106.753L376.931 126.534L382.506 126.258C384.051 126.127 384.758 124.908 384.627 122.601L384.234 108.562C384.103 107.146 383.213 106.504 381.564 106.635L377.088 106.753Z" fill="url(#paint13_linear_236_1626)"/>
<path d="M390.674 156.107L398.37 100.697L403.906 100.854L411.209 155.517L404.888 156.107L403.906 146.472L397.781 147.062L397.192 155.91L390.674 156.107ZM403.16 140.691L400.843 123.388L398.37 141.281L403.16 140.691Z" fill="url(#paint14_linear_236_1626)"/>
<path d="M435.122 112.612L429.193 112.809L428.8 109.348C428.8 107.67 428.028 106.7 426.484 106.438L422.832 107.028C421.942 107.421 421.431 108.195 421.301 109.348L421.104 122.798C421.104 124.476 421.876 125.249 423.421 125.118L427.465 125.314C432.439 125.446 434.86 128.657 434.729 134.949L434.572 147.652C434.441 153.55 431.811 156.238 426.68 155.713L422.243 155.91C416.746 156.041 414.259 153.288 414.783 147.652L415.332 143.601L421.497 143.994L421.104 147.652C421.104 149.041 421.746 149.736 423.028 149.736L426.484 149.932C428.028 149.801 428.866 147.822 428.997 143.994V134.556C428.866 132.511 428.028 131.541 426.484 131.646L422.243 131.489C417.374 130.833 415.005 128.198 415.136 123.584V108.562C415.398 103.554 417.832 101.05 422.439 101.05L427.073 100.697C432.177 100.801 434.86 103.554 435.122 108.955V112.612Z" fill="url(#paint15_linear_236_1626)"/>
<path d="M458.838 112.612L452.909 112.809L452.517 109.348C452.517 107.67 451.744 106.7 450.2 106.438L446.548 107.028C445.658 107.421 445.148 108.195 445.017 109.348L444.821 122.798C444.821 124.476 445.593 125.249 447.137 125.118L451.182 125.314C456.155 125.446 458.577 128.657 458.446 134.949L458.289 147.652C458.158 153.55 455.527 156.238 450.396 155.713L445.959 155.91C440.462 156.041 437.975 153.288 438.499 147.652L439.049 143.601L445.213 143.994L444.821 147.652C444.821 149.041 445.462 149.736 446.745 149.736L450.2 149.932C451.744 149.801 452.582 147.822 452.713 143.994V134.556C452.582 132.511 451.744 131.541 450.2 131.646L445.959 131.489C441.09 130.833 438.721 128.198 438.852 123.584V108.562C439.114 103.554 441.548 101.05 446.156 101.05L450.789 100.697C455.893 100.801 458.577 103.554 458.838 108.955V112.612Z" fill="url(#paint16_linear_236_1626)"/>
<path d="M462.019 100.697L468.144 100.854L468.341 155.91L462.215 156.107L462.019 100.697Z" fill="url(#paint17_linear_236_1626)"/>
<path d="M492.489 100.697L484.793 156.107L479.256 155.949L471.953 101.286L478.275 100.697L482.123 131.095L485.971 100.893L492.489 100.697Z" fill="url(#paint18_linear_236_1626)"/>
<path d="M515.459 107.225L502.187 107.814V124.921L513.535 125.708L513.339 132.236L502.384 131.489L502.187 149.579L516.598 149.932L515.852 156.5L495.669 155.713L496.415 101.247L515.852 100.854L515.459 107.225Z" fill="url(#paint19_linear_236_1626)"/>
<path d="M531.047 100.697L537.173 100.854L537.369 155.91L531.244 156.107L531.047 100.697Z" fill="url(#paint20_linear_236_1626)"/>
<path d="M541.531 156.5L541.728 101.05L548.481 100.854L555.392 137.82L555.588 101.05L561.321 100.854L561.164 155.713L554.057 156.107L547.5 124.725L547.303 155.91L541.531 156.5Z" fill="url(#paint21_linear_236_1626)"/>
<path d="M584.88 112.809H578.755L579.147 108.562C579.147 107.408 578.441 106.7 577.027 106.438H572.59C571.569 106.438 571.059 107.211 571.059 108.758L570.862 148.399C570.732 149.683 571.438 150.326 572.983 150.326H576.831C578.244 150.588 579.082 149.88 579.344 148.202V143.798L584.88 143.994L584.723 148.399C584.723 153.406 582.223 155.91 577.223 155.91H572.394C567.158 155.779 564.606 153.144 564.737 148.005L565.287 108.365C565.287 103.751 567.787 101.313 572.786 101.05L577.223 100.854C581.961 100.985 584.461 103.62 584.723 108.758L584.88 112.809Z" fill="url(#paint22_linear_236_1626)"/>
<path d="M608.596 148.241C608.387 153.354 605.782 155.91 600.783 155.91H595.953C590.718 155.779 588.165 153.144 588.296 148.005L588.846 108.365C588.846 103.751 591.346 101.313 596.346 101.05L600.783 100.854C605.521 100.985 608.021 103.62 608.282 108.758L608.596 148.241ZM602.707 108.562C602.707 107.408 602 106.7 600.586 106.438H596.149C595.128 106.438 594.618 107.211 594.618 108.758L594.422 148.399C594.291 149.683 594.998 150.326 596.542 150.326H600.39C601.804 150.588 602.641 149.88 602.903 148.202L602.707 108.562Z" fill="url(#paint23_linear_236_1626)"/>
<path d="M612.052 156.303L612.602 101.247L619.709 101.05L626.07 136.286L631.999 101.05L639.498 101.247L639.891 156.107H633.569L633.923 128.579L628.74 149.579L623.164 149.736L618.374 128.579L618.177 155.32L612.052 156.303Z" fill="url(#paint24_linear_236_1626)"/>
<path d="M662.861 107.225L649.59 107.814V124.921L660.937 125.708L660.741 132.236L649.786 131.489L649.59 149.579L664 149.932L663.254 156.5L643.072 155.713L643.818 101.247L663.254 100.854L662.861 107.225Z" fill="url(#paint25_linear_236_1626)"/>
<path d="M35.7536 134.045L29 100.697H35.5573L38.8556 116.82L42.8607 100.697L48.829 100.5L41.6042 132.157L41.4471 156.225L35.7536 156.421V134.045Z" stroke="black" stroke-width="2" stroke-linejoin="round" mask="url(#path-1-outside-1_236_1626)"/>
<path d="M72.5453 148.241C72.3359 153.354 69.7313 155.91 64.7315 155.91H59.9019C54.6665 155.779 52.1142 153.144 52.2451 148.005L52.7948 108.365C52.7948 103.751 55.2947 101.313 60.2945 101.05L64.7315 100.854C69.4695 100.985 71.9694 103.62 72.2312 108.758L72.5453 148.241ZM66.6555 108.562C66.6555 107.408 65.9487 106.7 64.5352 106.438H60.0982C59.0773 106.438 58.5668 107.211 58.5668 108.758L58.3705 148.399C58.2396 149.683 58.9464 150.326 60.4908 150.326H64.3389C65.7524 150.588 66.5901 149.88 66.8518 148.202L66.6555 108.562Z" stroke="black" stroke-width="2" stroke-linejoin="round" mask="url(#path-1-outside-1_236_1626)"/>
<path d="M81.7334 101.05L82.1261 147.652C81.9952 149.434 82.6365 150.195 84.0501 149.932L88.2907 149.579C89.3116 149.814 89.8875 149.29 90.0184 148.005L89.6258 100.697L95.3978 100.5L95.7904 147.652C95.5287 153.288 92.9633 156.107 88.0944 156.107L83.8538 155.91C79.1157 155.91 76.6158 153.406 76.3541 148.399L76.0007 100.854L81.7334 101.05Z" stroke="black" stroke-width="2" stroke-linejoin="round" mask="url(#path-1-outside-1_236_1626)"/>
<path d="M105.646 132.472L105.882 156.107H99.5599L99.3636 100.697L103.212 100.932V100.854L111.85 100.697C116.85 100.565 119.35 103.187 119.35 108.562L119.507 124.725C119.742 129.496 117.831 131.961 113.774 132.118L120.528 155.517L113.695 156.303L107.492 132.354L105.646 132.472ZM105.371 106.792L105.568 126.534L111.261 126.258C112.805 126.127 113.512 124.908 113.381 122.601L112.989 108.562C112.858 107.146 111.968 106.504 110.319 106.635L105.371 106.792Z" stroke="black" stroke-width="2" stroke-linejoin="round" mask="url(#path-1-outside-1_236_1626)"/>
<path d="M140.828 100.854L141.221 150.129L154.689 149.539L154.885 156.303H135.291L135.095 100.697L140.828 100.854Z" stroke="black" stroke-width="2" stroke-linejoin="round" mask="url(#path-1-outside-1_236_1626)"/>
<path d="M178.405 148.241C178.195 153.354 175.591 155.91 170.591 155.91H165.761C160.526 155.779 157.974 153.144 158.105 148.005L158.654 108.365C158.654 103.751 161.154 101.313 166.154 101.05L170.591 100.854C175.329 100.985 177.829 103.62 178.091 108.758L178.405 148.241ZM172.515 108.562C172.515 107.408 171.808 106.7 170.395 106.438H165.958C164.937 106.438 164.426 107.211 164.426 108.758L164.23 148.399C164.099 149.683 164.806 150.326 166.35 150.326H170.198C171.612 150.588 172.45 149.88 172.711 148.202L172.515 108.562Z" stroke="black" stroke-width="2" stroke-linejoin="round" mask="url(#path-1-outside-1_236_1626)"/>
<path d="M182.017 156.5L182.214 101.05L188.967 100.854L195.878 137.82L196.074 101.05L201.807 100.854L201.65 155.713L194.543 156.107L187.986 124.725L187.789 155.91L182.017 156.5Z" stroke="black" stroke-width="2" stroke-linejoin="round" mask="url(#path-1-outside-1_236_1626)"/>
<path d="M225.209 125.511L215.589 125.314L215 131.646L219.633 131.292L219.83 148.202C219.568 149.88 218.73 150.588 217.317 150.326H213.469C211.924 150.326 211.218 149.683 211.348 148.399L211.545 108.758C211.545 107.211 212.055 106.438 213.076 106.438H217.513C218.927 106.7 219.633 107.408 219.633 108.562L219.241 112.809H225.366L225.209 108.758C224.947 103.62 222.448 100.985 217.709 100.854L213.273 101.05C208.273 101.313 205.773 103.751 205.773 108.365L205.223 148.005C205.092 153.144 207.644 155.779 212.88 155.91H217.709C222.709 155.91 225.209 153.406 225.209 148.399V125.511Z" stroke="black" stroke-width="2" stroke-linejoin="round" mask="url(#path-1-outside-1_236_1626)"/>
<path d="M253.323 125.197L253.166 131.331L229.214 131.607L229.018 125.472L253.323 125.197Z" stroke="black" stroke-width="2" stroke-linejoin="round" mask="url(#path-1-outside-1_236_1626)"/>
<path d="M256.7 101.247L277.432 100.5L277.236 106.438H269.579L270.129 156.107L264.003 155.91L263.807 106.241L257.093 106.438L256.7 101.247Z" stroke="black" stroke-width="2" stroke-linejoin="round" mask="url(#path-1-outside-1_236_1626)"/>
<path d="M300.049 107.225L286.777 107.814V124.921L298.125 125.708L297.929 132.236L286.974 131.489L286.777 149.579L301.188 149.932L300.442 156.5L280.259 155.713L281.005 101.247L300.442 100.854L300.049 107.225Z" stroke="black" stroke-width="2" stroke-linejoin="round" mask="url(#path-1-outside-1_236_1626)"/>
<path d="M310.297 132.472L310.533 156.107H304.211L304.015 100.697L307.863 100.932V100.854L316.501 100.697C321.501 100.565 324.001 103.187 324.001 108.562L324.158 124.725C324.394 129.496 322.483 131.961 318.425 132.118L325.179 155.517L318.347 156.303L312.143 132.354L310.297 132.472ZM310.022 106.792L310.219 126.534L315.912 126.258C317.457 126.127 318.163 124.908 318.033 122.601L317.64 108.562C317.509 107.146 316.619 106.504 314.97 106.635L310.022 106.792Z" stroke="black" stroke-width="2" stroke-linejoin="round" mask="url(#path-1-outside-1_236_1626)"/>
<path d="M327.77 156.303L328.32 101.247L335.427 101.05L341.788 136.286L347.717 101.05L355.217 101.247L355.61 156.107H349.288L349.641 128.579L344.458 149.579L338.883 149.736L334.092 128.579L333.896 155.32L327.77 156.303Z" stroke="black" stroke-width="2" stroke-linejoin="round" mask="url(#path-1-outside-1_236_1626)"/>
<path d="M376.891 132.472L376.734 155.91L370.805 156.107L370.609 100.697L375.988 100.814L383.095 100.697C388.095 100.565 390.595 103.187 390.595 108.562L390.752 124.725C391.014 130.125 388.527 132.564 383.292 132.039L376.891 132.472ZM377.088 106.753L376.931 126.534L382.506 126.258C384.051 126.127 384.758 124.908 384.627 122.601L384.234 108.562C384.103 107.146 383.213 106.504 381.564 106.635L377.088 106.753Z" stroke="black" stroke-width="2" stroke-linejoin="round" mask="url(#path-1-outside-1_236_1626)"/>
<path d="M390.674 156.107L398.37 100.697L403.906 100.854L411.209 155.517L404.888 156.107L403.906 146.472L397.781 147.062L397.192 155.91L390.674 156.107ZM403.16 140.691L400.843 123.388L398.37 141.281L403.16 140.691Z" stroke="black" stroke-width="2" stroke-linejoin="round" mask="url(#path-1-outside-1_236_1626)"/>
<path d="M435.122 112.612L429.193 112.809L428.8 109.348C428.8 107.67 428.028 106.7 426.484 106.438L422.832 107.028C421.942 107.421 421.431 108.195 421.301 109.348L421.104 122.798C421.104 124.476 421.876 125.249 423.421 125.118L427.465 125.314C432.439 125.446 434.86 128.657 434.729 134.949L434.572 147.652C434.441 153.55 431.811 156.238 426.68 155.713L422.243 155.91C416.746 156.041 414.259 153.288 414.783 147.652L415.332 143.601L421.497 143.994L421.104 147.652C421.104 149.041 421.746 149.736 423.028 149.736L426.484 149.932C428.028 149.801 428.866 147.822 428.997 143.994V134.556C428.866 132.511 428.028 131.541 426.484 131.646L422.243 131.489C417.374 130.833 415.005 128.198 415.136 123.584V108.562C415.398 103.554 417.832 101.05 422.439 101.05L427.073 100.697C432.177 100.801 434.86 103.554 435.122 108.955V112.612Z" stroke="black" stroke-width="2" stroke-linejoin="round" mask="url(#path-1-outside-1_236_1626)"/>
<path d="M458.838 112.612L452.909 112.809L452.517 109.348C452.517 107.67 451.744 106.7 450.2 106.438L446.548 107.028C445.658 107.421 445.148 108.195 445.017 109.348L444.821 122.798C444.821 124.476 445.593 125.249 447.137 125.118L451.182 125.314C456.155 125.446 458.577 128.657 458.446 134.949L458.289 147.652C458.158 153.55 455.527 156.238 450.396 155.713L445.959 155.91C440.462 156.041 437.975 153.288 438.499 147.652L439.049 143.601L445.213 143.994L444.821 147.652C444.821 149.041 445.462 149.736 446.745 149.736L450.2 149.932C451.744 149.801 452.582 147.822 452.713 143.994V134.556C452.582 132.511 451.744 131.541 450.2 131.646L445.959 131.489C441.09 130.833 438.721 128.198 438.852 123.584V108.562C439.114 103.554 441.548 101.05 446.156 101.05L450.789 100.697C455.893 100.801 458.577 103.554 458.838 108.955V112.612Z" stroke="black" stroke-width="2" stroke-linejoin="round" mask="url(#path-1-outside-1_236_1626)"/>
<path d="M462.019 100.697L468.144 100.854L468.341 155.91L462.215 156.107L462.019 100.697Z" stroke="black" stroke-width="2" stroke-linejoin="round" mask="url(#path-1-outside-1_236_1626)"/>
<path d="M492.489 100.697L484.793 156.107L479.256 155.949L471.953 101.286L478.275 100.697L482.123 131.095L485.971 100.893L492.489 100.697Z" stroke="black" stroke-width="2" stroke-linejoin="round" mask="url(#path-1-outside-1_236_1626)"/>
<path d="M515.459 107.225L502.187 107.814V124.921L513.535 125.708L513.339 132.236L502.384 131.489L502.187 149.579L516.598 149.932L515.852 156.5L495.669 155.713L496.415 101.247L515.852 100.854L515.459 107.225Z" stroke="black" stroke-width="2" stroke-linejoin="round" mask="url(#path-1-outside-1_236_1626)"/>
<path d="M531.047 100.697L537.173 100.854L537.369 155.91L531.244 156.107L531.047 100.697Z" stroke="black" stroke-width="2" stroke-linejoin="round" mask="url(#path-1-outside-1_236_1626)"/>
<path d="M541.531 156.5L541.728 101.05L548.481 100.854L555.392 137.82L555.588 101.05L561.321 100.854L561.164 155.713L554.057 156.107L547.5 124.725L547.303 155.91L541.531 156.5Z" stroke="black" stroke-width="2" stroke-linejoin="round" mask="url(#path-1-outside-1_236_1626)"/>
<path d="M584.88 112.809H578.755L579.147 108.562C579.147 107.408 578.441 106.7 577.027 106.438H572.59C571.569 106.438 571.059 107.211 571.059 108.758L570.862 148.399C570.732 149.683 571.438 150.326 572.983 150.326H576.831C578.244 150.588 579.082 149.88 579.344 148.202V143.798L584.88 143.994L584.723 148.399C584.723 153.406 582.223 155.91 577.223 155.91H572.394C567.158 155.779 564.606 153.144 564.737 148.005L565.287 108.365C565.287 103.751 567.787 101.313 572.786 101.05L577.223 100.854C581.961 100.985 584.461 103.62 584.723 108.758L584.88 112.809Z" stroke="black" stroke-width="2" stroke-linejoin="round" mask="url(#path-1-outside-1_236_1626)"/>
<path d="M608.596 148.241C608.387 153.354 605.782 155.91 600.783 155.91H595.953C590.718 155.779 588.165 153.144 588.296 148.005L588.846 108.365C588.846 103.751 591.346 101.313 596.346 101.05L600.783 100.854C605.521 100.985 608.021 103.62 608.282 108.758L608.596 148.241ZM602.707 108.562C602.707 107.408 602 106.7 600.586 106.438H596.149C595.128 106.438 594.618 107.211 594.618 108.758L594.422 148.399C594.291 149.683 594.998 150.326 596.542 150.326H600.39C601.804 150.588 602.641 149.88 602.903 148.202L602.707 108.562Z" stroke="black" stroke-width="2" stroke-linejoin="round" mask="url(#path-1-outside-1_236_1626)"/>
<path d="M612.052 156.303L612.602 101.247L619.709 101.05L626.07 136.286L631.999 101.05L639.498 101.247L639.891 156.107H633.569L633.923 128.579L628.74 149.579L623.164 149.736L618.374 128.579L618.177 155.32L612.052 156.303Z" stroke="black" stroke-width="2" stroke-linejoin="round" mask="url(#path-1-outside-1_236_1626)"/>
<path d="M662.861 107.225L649.59 107.814V124.921L660.937 125.708L660.741 132.236L649.786 131.489L649.59 149.579L664 149.932L663.254 156.5L643.072 155.713L643.818 101.247L663.254 100.854L662.861 107.225Z" stroke="black" stroke-width="2" stroke-linejoin="round" mask="url(#path-1-outside-1_236_1626)"/>
<path d="M110.169 3.7977C110.169 2.26643 109.016 0.980913 107.494 0.815294L100 0C86.4065 0 33 15.2553 33 32.8085V43.234C33 60.7872 43.9572 74.9362 57.5507 74.9362L101.264 75.8847L107.487 75.2219C109.012 75.0594 110.169 73.7726 110.169 72.2388V55.8936H67.5762C59.9144 55.8936 53.7355 47.9149 53.7355 38.0213C53.7355 28.1277 59.9144 20.1489 67.5762 20.1489H110.169V3.7977ZM81.6588 47.2968C83.451 46.8604 84.7123 45.255 84.7123 43.4104V33.2305C84.7123 31.8466 83.7656 30.6422 82.4208 30.3154L75.4289 28.616L75.4447 48.8102L81.6588 47.2968Z" fill="url(#paint26_linear_236_1626)"/>
<path d="M168.603 0.209511L160.689 27.0638L132.019 1.10638L131.855 1L123.5 0C119.298 0 111.201 5.46809 111.201 11L123.342 76.34L129.17 75.6702C130.696 75.4949 131.843 74.1953 131.827 72.6595L131.36 26.5319L154.865 52.1702L168.608 76.5512L173.797 75.9028C175.298 75.7152 176.425 74.439 176.425 72.926V3.85253C176.425 2.34323 175.304 1.06894 173.807 0.876915L168.603 0.209511Z" fill="url(#paint27_linear_236_1626)"/>
<path d="M227.645 38.0213L244.817 5.04649C245.768 3.22013 244.638 1.00041 242.602 0.694178L240.03 0.307427L214.792 27.383L202.002 2.8106C201.55 1.9425 200.704 1.34937 199.733 1.22147L193.845 0.445248L197.023 38.1277L193.273 77.0103L199.168 76.2089C200.132 76.0779 200.972 75.4876 201.423 74.6254L214.71 49.1915H215.04L240.587 76.8876L243.101 76.5128C245.136 76.2092 246.268 73.9936 245.322 72.1663L227.645 38.0213Z" fill="url(#paint28_linear_236_1626)"/>
<path d="M331.176 76.2504C332.274 75.7755 332.985 74.6934 332.985 73.4968V31.1141C332.985 29.7777 331.98 28.6554 330.651 28.5095H314.824C313.916 28.6574 313.25 29.4414 313.25 30.361V73.7748C313.25 74.8257 313.8 75.8 314.699 76.3431L314.828 76.4211L330.735 76.4412L331.176 76.2504ZM358.243 20.6808C359.9 20.6808 361.243 19.3377 361.243 17.6808V3.33256C361.243 2.22428 360.632 1.20629 359.654 0.685055L359.225 0.456416L286.277 0.591755L285.897 0.754183C284.791 1.22587 284.074 2.31167 284.074 3.51345V17.6808C284.074 19.3377 285.417 20.6808 287.074 20.6808H358.243Z" fill="url(#paint29_linear_236_1626)"/>
<path d="M419.65 1.21276L383.061 0.204006C373.257 0.204006 360.276 11.4255 360.276 24.0851V52.4894C360.276 65.1489 372.704 76.111 382.508 76.111L419.65 75.3617C429.453 75.3617 437.445 65.1489 437.445 52.4894V24.0851C437.445 11.4255 429.453 1.21276 419.65 1.21276ZM403.198 55.4681H394.44C387.108 55.4681 381.176 47.8085 381.176 38.3404C381.176 28.8723 387.108 21.2128 394.44 21.2128H403.198C410.53 21.2128 416.462 28.8723 416.462 38.3404C416.462 47.8085 410.53 55.4681 403.198 55.4681Z" fill="url(#paint30_linear_236_1626)"/>
<path d="M480.138 35.7872L482 4.64916e-06L476.225 0.785081C475.236 0.91945 474.379 1.53633 473.938 2.431L461.215 28.234H459.13L445.063 0.244896L441.041 0.836005C439.568 1.0524 438.477 2.31574 438.477 3.80413V72.3452C438.477 73.8334 439.568 75.0967 441.04 75.3133L445.065 75.9053L459.13 48.234H462.863L483.694 74.4139C484.177 75.0219 484.878 75.4185 485.649 75.5202L491.79 76.3311L480.138 35.7872ZM474.124 48.234H474.042L474.124 48.0213V48.234Z" fill="url(#paint31_linear_236_1626)"/>
<path d="M589.744 1.10638L538 0C524.406 0 512.575 15.2553 512.575 32.8085V43.234C512.575 60.7872 523.906 76 537.5 76L589.744 74.9362L591.5 56L547.151 55.8936C539.49 55.8936 533.311 47.9149 533.311 38.0213C533.311 28.1277 539.49 20.1489 547.151 20.1489H589.744V1.10638ZM544.129 48.8212L543.998 28.6312L535.808 28.8723V48.5532L544.129 48.8212Z" fill="url(#paint32_linear_236_1626)"/>
<path d="M637.961 0.93881C636.43 1.09439 635.264 2.384 635.264 3.92345V27.0638L608.5 0L599 0.5C594.562 2 590.777 5.46809 590.777 11V72.6677C590.777 74.2001 591.931 75.4862 593.455 75.6504L599.794 76.3338L610.935 26.5319L634.441 52.1702L635.172 72.9376C635.225 74.4454 636.389 75.6792 637.892 75.8192L645.087 76.4893L644.973 0.226562L637.961 0.93881Z" fill="url(#paint33_linear_236_1626)"/>
<mask id="path-3-inside-2_236_1626" fill="white">
<path d="M101.321 0.109218H52.9424C39.132 0.109218 28 14.6354 28 32.6567V43.3602C28 61.3815 39.132 75.9077 52.9424 75.9077H101.321V56.3574H58.0481C50.264 56.3574 43.9866 48.1659 43.9866 38.0085C43.9866 27.851 50.264 19.6596 58.0481 19.6596H101.321V0.109218ZM75.4576 48.8212V28.6156H51.6032V48.8212H75.4576Z"/>
<path d="M152.647 0.218437V26.7588L123.519 0.109218L123.352 0H115.233C110.964 0 107.449 4.58723 107.449 10.2667V76.3446H123.352L122.85 26.2127L151.81 52.5347L152.647 76.563H168.633V0.218437H152.647Z"/>
<path d="M220.67 38.0085L240.088 0.327662H221.423L207.613 27.0865L193.886 0.43688H175.221L194.64 38.1177L174.719 76.9999H193.3L207.529 49.4765H207.864L222.009 76.8907H240.591L220.67 38.0085Z"/>
<path d="M330.739 76.4538V28.5064H314.753V76.4538H330.739ZM359.448 20.2057V0.546098H286.128V20.2057H359.448Z"/>
<path d="M420.818 0.218437H383.572C373.612 0.218437 365.577 10.7035 365.577 23.7007V52.8624C365.577 65.8595 373.612 76.3446 383.572 76.3446H420.818C430.778 76.3446 438.897 65.8595 438.897 52.8624V23.7007C438.897 10.7035 430.778 0.218437 420.818 0.218437ZM409.184 55.9205H395.206C387.757 55.9205 381.731 48.0567 381.731 38.3361C381.731 28.6156 387.757 20.7518 395.206 20.7518H409.184C416.633 20.7518 422.66 28.6156 422.66 38.3361C422.66 48.0567 416.633 55.9205 409.184 55.9205Z"/>
<path d="M482.272 35.7149L499.681 0H481.77L468.127 27.9603H460.929V0.218437H445.026V75.9077H460.929V48.4936H469.801L491.73 76.3446H514.161L482.272 35.7149Z"/>
<path d="M593.627 0.109218H545.249C531.438 0.109218 520.306 14.6354 520.306 32.6567V43.3602C520.306 61.3815 531.438 75.9077 545.249 75.9077H593.627V56.3574H550.354C542.57 56.3574 536.293 48.1659 536.293 38.0085C536.293 27.851 542.57 19.6596 550.354 19.6596H593.627V0.109218ZM567.764 48.8212V28.6156H543.909V48.8212H567.764Z"/>
<path d="M644.953 0.218437V26.7588L615.825 0.109218L615.658 0H607.539C603.271 0 599.755 4.58723 599.755 10.2667V76.3446H615.658L615.156 26.2127L644.116 52.5347L644.953 76.563H660.939V0.218437H644.953Z"/>
</mask>
<path d="M101.321 0.109218H52.9424C39.132 0.109218 28 14.6354 28 32.6567V43.3602C28 61.3815 39.132 75.9077 52.9424 75.9077H101.321V56.3574H58.0481C50.264 56.3574 43.9866 48.1659 43.9866 38.0085C43.9866 27.851 50.264 19.6596 58.0481 19.6596H101.321V0.109218ZM75.4576 48.8212V28.6156H51.6032V48.8212H75.4576Z" fill="url(#paint34_linear_236_1626)"/>
<path d="M152.647 0.218437V26.7588L123.519 0.109218L123.352 0H115.233C110.964 0 107.449 4.58723 107.449 10.2667V76.3446H123.352L122.85 26.2127L151.81 52.5347L152.647 76.563H168.633V0.218437H152.647Z" fill="url(#paint35_linear_236_1626)"/>
<path d="M220.67 38.0085L240.088 0.327662H221.423L207.613 27.0865L193.886 0.43688H175.221L194.64 38.1177L174.719 76.9999H193.3L207.529 49.4765H207.864L222.009 76.8907H240.591L220.67 38.0085Z" fill="url(#paint36_linear_236_1626)"/>
<path d="M330.739 76.4538V28.5064H314.753V76.4538H330.739ZM359.448 20.2057V0.546098H286.128V20.2057H359.448Z" fill="url(#paint37_linear_236_1626)"/>
<path d="M420.818 0.218437H383.572C373.612 0.218437 365.577 10.7035 365.577 23.7007V52.8624C365.577 65.8595 373.612 76.3446 383.572 76.3446H420.818C430.778 76.3446 438.897 65.8595 438.897 52.8624V23.7007C438.897 10.7035 430.778 0.218437 420.818 0.218437ZM409.184 55.9205H395.206C387.757 55.9205 381.731 48.0567 381.731 38.3361C381.731 28.6156 387.757 20.7518 395.206 20.7518H409.184C416.633 20.7518 422.66 28.6156 422.66 38.3361C422.66 48.0567 416.633 55.9205 409.184 55.9205Z" fill="url(#paint38_linear_236_1626)"/>
<path d="M482.272 35.7149L499.681 0H481.77L468.127 27.9603H460.929V0.218437H445.026V75.9077H460.929V48.4936H469.801L491.73 76.3446H514.161L482.272 35.7149Z" fill="url(#paint39_linear_236_1626)"/>
<path d="M593.627 0.109218H545.249C531.438 0.109218 520.306 14.6354 520.306 32.6567V43.3602C520.306 61.3815 531.438 75.9077 545.249 75.9077H593.627V56.3574H550.354C542.57 56.3574 536.293 48.1659 536.293 38.0085C536.293 27.851 542.57 19.6596 550.354 19.6596H593.627V0.109218ZM567.764 48.8212V28.6156H543.909V48.8212H567.764Z" fill="url(#paint40_linear_236_1626)"/>
<path d="M644.953 0.218437V26.7588L615.825 0.109218L615.658 0H607.539C603.271 0 599.755 4.58723 599.755 10.2667V76.3446H615.658L615.156 26.2127L644.116 52.5347L644.953 76.563H660.939V0.218437H644.953Z" fill="url(#paint41_linear_236_1626)"/>
<path d="M101.321 0.109218H52.9424C39.132 0.109218 28 14.6354 28 32.6567V43.3602C28 61.3815 39.132 75.9077 52.9424 75.9077H101.321V56.3574H58.0481C50.264 56.3574 43.9866 48.1659 43.9866 38.0085C43.9866 27.851 50.264 19.6596 58.0481 19.6596H101.321V0.109218ZM75.4576 48.8212V28.6156H51.6032V48.8212H75.4576Z" stroke="#04E1FF" stroke-linejoin="round" mask="url(#path-3-inside-2_236_1626)"/>
<path d="M152.647 0.218437V26.7588L123.519 0.109218L123.352 0H115.233C110.964 0 107.449 4.58723 107.449 10.2667V76.3446H123.352L122.85 26.2127L151.81 52.5347L152.647 76.563H168.633V0.218437H152.647Z" stroke="#04E1FF" stroke-linejoin="round" mask="url(#path-3-inside-2_236_1626)"/>
<path d="M220.67 38.0085L240.088 0.327662H221.423L207.613 27.0865L193.886 0.43688H175.221L194.64 38.1177L174.719 76.9999H193.3L207.529 49.4765H207.864L222.009 76.8907H240.591L220.67 38.0085Z" stroke="#04E1FF" stroke-linejoin="round" mask="url(#path-3-inside-2_236_1626)"/>
<path d="M330.739 76.4538V28.5064H314.753V76.4538H330.739ZM359.448 20.2057V0.546098H286.128V20.2057H359.448Z" stroke="#04E1FF" stroke-linejoin="round" mask="url(#path-3-inside-2_236_1626)"/>
<path d="M420.818 0.218437H383.572C373.612 0.218437 365.577 10.7035 365.577 23.7007V52.8624C365.577 65.8595 373.612 76.3446 383.572 76.3446H420.818C430.778 76.3446 438.897 65.8595 438.897 52.8624V23.7007C438.897 10.7035 430.778 0.218437 420.818 0.218437ZM409.184 55.9205H395.206C387.757 55.9205 381.731 48.0567 381.731 38.3361C381.731 28.6156 387.757 20.7518 395.206 20.7518H409.184C416.633 20.7518 422.66 28.6156 422.66 38.3361C422.66 48.0567 416.633 55.9205 409.184 55.9205Z" stroke="#04E1FF" stroke-linejoin="round" mask="url(#path-3-inside-2_236_1626)"/>
<path d="M482.272 35.7149L499.681 0H481.77L468.127 27.9603H460.929V0.218437H445.026V75.9077H460.929V48.4936H469.801L491.73 76.3446H514.161L482.272 35.7149Z" stroke="#04E1FF" stroke-linejoin="round" mask="url(#path-3-inside-2_236_1626)"/>
<path d="M593.627 0.109218H545.249C531.438 0.109218 520.306 14.6354 520.306 32.6567V43.3602C520.306 61.3815 531.438 75.9077 545.249 75.9077H593.627V56.3574H550.354C542.57 56.3574 536.293 48.1659 536.293 38.0085C536.293 27.851 542.57 19.6596 550.354 19.6596H593.627V0.109218ZM567.764 48.8212V28.6156H543.909V48.8212H567.764Z" stroke="#04E1FF" stroke-linejoin="round" mask="url(#path-3-inside-2_236_1626)"/>
<path d="M644.953 0.218437V26.7588L615.825 0.109218L615.658 0H607.539C603.271 0 599.755 4.58723 599.755 10.2667V76.3446H615.658L615.156 26.2127L644.116 52.5347L644.953 76.563H660.939V0.218437H644.953Z" stroke="#04E1FF" stroke-linejoin="round" mask="url(#path-3-inside-2_236_1626)"/>
<g style="mix-blend-mode:soft-light" opacity="0.5">
<path d="M90.6875 0.629822H76.459C72.3857 7.59949 68.1094 14.1252 63.7715 20.1802H78.2178C82.9727 13.28 87.1494 6.65167 90.6875 0.629822Z" fill="white"/>
<path d="M71.8213 29.1362H57.0557C55.4111 31.233 53.7676 33.2609 52.1328 35.2186V49.3419H55.4766C61.3848 42.6811 66.8506 35.8505 71.8213 29.1362Z" fill="white"/>
<path d="M51.1377 54.1147C48.1738 51.706 45.9521 47.8967 45.0107 43.3881C40.0176 48.8718 35.2227 53.6437 30.8555 57.6598C32.2949 61.6906 34.3477 65.2683 36.8584 68.1907C41.8389 63.7074 46.6055 58.9766 51.1377 54.1147Z" fill="white"/>
<path d="M98.3604 76.4283H85.1318C89.9189 72.5229 96.0742 67.943 101.539 64.0435C101.642 63.991 101.745 63.9378 101.85 63.8837V74.6119C101.151 74.9843 100.451 75.3511 99.752 75.7125C99.2793 75.9564 98.8154 76.1949 98.3604 76.4283Z" fill="white"/>
<path d="M123.725 61.2155C118.56 64.7658 113.295 68.1251 107.979 71.2033V60.465C112.372 57.8652 117.678 54.4487 123.614 50.2407L123.725 61.2155Z" fill="white"/>
<path d="M169.162 23.7095C161.676 30.8962 153.282 38.4402 144.301 45.7493L137.624 39.6807C142.472 35.8092 147.54 31.5342 152.723 26.8651L153.176 27.2795V26.4562C158.428 21.7068 163.794 16.554 169.162 11.0074V23.7095Z" fill="white"/>
<path d="M191.14 0.95752C188.261 4.19812 184.944 7.79633 181.253 11.6341L176.75 2.89606C177.33 2.25446 177.909 1.60828 178.487 0.95752H191.14Z" fill="white"/>
<path d="M359.978 1.83252V1.06671H346.203C342.084 8.08179 337.761 14.6442 333.379 20.7263H347.841C352.436 14.087 356.5 7.69043 359.978 1.83252Z" fill="white"/>
<path d="M331.269 42.5948V29.027H327.141C323.144 34.1274 319.155 38.8218 315.282 43.0897V60.1851C320.948 54.5137 326.29 48.5834 331.269 42.5948Z" fill="white"/>
<path d="M520.835 39.0897C530.051 28.4889 539.722 15.5807 548.459 0.629822H562.688C559.146 6.65778 554.965 13.2934 550.204 20.2011C542.812 20.6572 536.941 28.5095 536.824 38.2334C532.307 43.8835 527.461 49.525 522.317 54.9909C521.358 51.5265 520.835 47.7857 520.835 43.8809V39.0897Z" fill="white"/>
<path d="M448.682 0.739075H461.334C457.007 5.61884 451.673 11.3239 445.555 17.4448V4.21124C446.599 3.06866 447.642 1.91125 448.682 0.739075Z" fill="white"/>
<path d="M374.436 73.2086C372.201 71.3533 370.303 68.8718 368.886 65.9514C369.782 65.3018 370.669 64.664 371.539 64.0435C375.692 61.9182 381.555 58.4678 388.554 53.7431C390.632 55.4525 393.094 56.4412 395.735 56.4412H400.459C392.045 62.5853 383.296 68.3121 374.436 73.2086Z" fill="white"/>
<path d="M439.418 23.4641C439.325 19.6745 438.543 16.1152 437.229 12.9886C431.661 18.6446 426.111 23.8755 420.702 28.6705C422.189 31.4003 423.095 34.7095 423.182 38.2909C428.942 33.3041 434.388 28.3015 439.418 23.4641Z" fill="white"/>
<path d="M487.318 70.5908C487.715 70.1893 488.109 69.7921 488.5 69.4003C491.799 67.121 496.072 63.7571 500.964 59.3766L508.285 68.7048C505.116 71.5363 501.862 74.2662 498.528 76.8652H492.259L487.318 70.5908Z" fill="white"/>
<path d="M570.36 76.4283H557.132C561.919 72.5229 568.074 67.943 573.539 64.0435C576.711 62.4203 580.879 60.0243 585.79 56.878H594.156V62.2853C586.832 67.2451 579.317 71.8057 571.752 75.7125C571.279 75.9564 570.815 76.1949 570.36 76.4283Z" fill="white"/>
<path d="M615.879 46.0916C610.844 50.1768 605.627 54.1855 600.284 58.0141V46.86C605.149 43.2647 610.354 39.192 615.765 34.6539L615.879 46.0916Z" fill="white"/>
<path d="M650.682 0.739075H661.469V2.8241C656.994 7.78339 651.597 13.4687 645.482 19.504V6.4574C647.22 4.59222 648.954 2.68597 650.682 0.739075Z" fill="white"/>
<path d="M634.746 17.4565C629.835 22.2595 624.963 26.7272 620.217 30.8522L626.826 36.8593C631.961 32.3654 636.831 27.8726 641.366 23.5135L634.746 17.4565Z" fill="white"/>
</g>
<g filter="url(#filter0_f_236_1626)">
<ellipse cx="344.94" cy="88.5898" rx="324.94" ry="5.38999" fill="#00D1FF"/>
</g>
<g filter="url(#filter1_f_236_1626)">
<ellipse cx="344.939" cy="88.5898" rx="295.68" ry="5.38999" fill="#81D9FF"/>
</g>
<g filter="url(#filter2_f_236_1626)">
<path d="M669.879 88.5898C647.549 89.3598 524.399 93.9798 344.94 93.9798C165.48 93.9798 50.8 90.1298 20 88.5898C50.8 88.5898 165.48 83.1998 344.94 83.1998C524.399 83.1998 649.859 87.0498 669.879 88.5898Z" fill="white"/>
</g>
<defs>
<filter id="filter0_f_236_1626" x="0" y="63.1998" width="689.879" height="50.78" filterUnits="userSpaceOnUse" color-interpolation-filters="sRGB">
<feFlood flood-opacity="0" result="BackgroundImageFix"/>
<feBlend mode="normal" in="SourceGraphic" in2="BackgroundImageFix" result="shape"/>
<feGaussianBlur stdDeviation="10" result="effect1_foregroundBlur_236_1626"/>
</filter>
<filter id="filter1_f_236_1626" x="34.2598" y="68.1998" width="621.359" height="40.78" filterUnits="userSpaceOnUse" color-interpolation-filters="sRGB">
<feFlood flood-opacity="0" result="BackgroundImageFix"/>
<feBlend mode="normal" in="SourceGraphic" in2="BackgroundImageFix" result="shape"/>
<feGaussianBlur stdDeviation="7.5" result="effect1_foregroundBlur_236_1626"/>
</filter>
<filter id="filter2_f_236_1626" x="18" y="81.1998" width="653.879" height="14.78" filterUnits="userSpaceOnUse" color-interpolation-filters="sRGB">
<feFlood flood-opacity="0" result="BackgroundImageFix"/>
<feBlend mode="normal" in="SourceGraphic" in2="BackgroundImageFix" result="shape"/>
<feGaussianBlur stdDeviation="1" result="effect1_foregroundBlur_236_1626"/>
</filter>
<linearGradient id="paint0_linear_236_1626" x1="346.5" y1="100.5" x2="346.5" y2="156.5" gradientUnits="userSpaceOnUse">
<stop stop-color="white"/>
<stop offset="1" stop-color="#019DFE"/>
</linearGradient>
<linearGradient id="paint1_linear_236_1626" x1="346.5" y1="100.5" x2="346.5" y2="156.5" gradientUnits="userSpaceOnUse">
<stop stop-color="white"/>
<stop offset="1" stop-color="#019DFE"/>
</linearGradient>
<linearGradient id="paint2_linear_236_1626" x1="346.5" y1="100.5" x2="346.5" y2="156.5" gradientUnits="userSpaceOnUse">
<stop stop-color="white"/>
<stop offset="1" stop-color="#019DFE"/>
</linearGradient>
<linearGradient id="paint3_linear_236_1626" x1="346.5" y1="100.5" x2="346.5" y2="156.5" gradientUnits="userSpaceOnUse">
<stop stop-color="white"/>
<stop offset="1" stop-color="#019DFE"/>
</linearGradient>
<linearGradient id="paint4_linear_236_1626" x1="346.5" y1="100.5" x2="346.5" y2="156.5" gradientUnits="userSpaceOnUse">
<stop stop-color="white"/>
<stop offset="1" stop-color="#019DFE"/>
</linearGradient>
<linearGradient id="paint5_linear_236_1626" x1="346.5" y1="100.5" x2="346.5" y2="156.5" gradientUnits="userSpaceOnUse">
<stop stop-color="white"/>
<stop offset="1" stop-color="#019DFE"/>
</linearGradient>
<linearGradient id="paint6_linear_236_1626" x1="346.5" y1="100.5" x2="346.5" y2="156.5" gradientUnits="userSpaceOnUse">
<stop stop-color="white"/>
<stop offset="1" stop-color="#019DFE"/>
</linearGradient>
<linearGradient id="paint7_linear_236_1626" x1="346.5" y1="100.5" x2="346.5" y2="156.5" gradientUnits="userSpaceOnUse">
<stop stop-color="white"/>
<stop offset="1" stop-color="#019DFE"/>
</linearGradient>
<linearGradient id="paint8_linear_236_1626" x1="346.5" y1="100.5" x2="346.5" y2="156.5" gradientUnits="userSpaceOnUse">
<stop stop-color="white"/>
<stop offset="1" stop-color="#019DFE"/>
</linearGradient>
<linearGradient id="paint9_linear_236_1626" x1="346.5" y1="100.5" x2="346.5" y2="156.5" gradientUnits="userSpaceOnUse">
<stop stop-color="white"/>
<stop offset="1" stop-color="#019DFE"/>
</linearGradient>
<linearGradient id="paint10_linear_236_1626" x1="346.5" y1="100.5" x2="346.5" y2="156.5" gradientUnits="userSpaceOnUse">
<stop stop-color="white"/>
<stop offset="1" stop-color="#019DFE"/>
</linearGradient>
<linearGradient id="paint11_linear_236_1626" x1="346.5" y1="100.5" x2="346.5" y2="156.5" gradientUnits="userSpaceOnUse">
<stop stop-color="white"/>
<stop offset="1" stop-color="#019DFE"/>
</linearGradient>
<linearGradient id="paint12_linear_236_1626" x1="346.5" y1="100.5" x2="346.5" y2="156.5" gradientUnits="userSpaceOnUse">
<stop stop-color="white"/>
<stop offset="1" stop-color="#019DFE"/>
</linearGradient>
<linearGradient id="paint13_linear_236_1626" x1="346.5" y1="100.5" x2="346.5" y2="156.5" gradientUnits="userSpaceOnUse">
<stop stop-color="white"/>
<stop offset="1" stop-color="#019DFE"/>
</linearGradient>
<linearGradient id="paint14_linear_236_1626" x1="346.5" y1="100.5" x2="346.5" y2="156.5" gradientUnits="userSpaceOnUse">
<stop stop-color="white"/>
<stop offset="1" stop-color="#019DFE"/>
</linearGradient>
<linearGradient id="paint15_linear_236_1626" x1="346.5" y1="100.5" x2="346.5" y2="156.5" gradientUnits="userSpaceOnUse">
<stop stop-color="white"/>
<stop offset="1" stop-color="#019DFE"/>
</linearGradient>
<linearGradient id="paint16_linear_236_1626" x1="346.5" y1="100.5" x2="346.5" y2="156.5" gradientUnits="userSpaceOnUse">
<stop stop-color="white"/>
<stop offset="1" stop-color="#019DFE"/>
</linearGradient>
<linearGradient id="paint17_linear_236_1626" x1="346.5" y1="100.5" x2="346.5" y2="156.5" gradientUnits="userSpaceOnUse">
<stop stop-color="white"/>
<stop offset="1" stop-color="#019DFE"/>
</linearGradient>
<linearGradient id="paint18_linear_236_1626" x1="346.5" y1="100.5" x2="346.5" y2="156.5" gradientUnits="userSpaceOnUse">
<stop stop-color="white"/>
<stop offset="1" stop-color="#019DFE"/>
</linearGradient>
<linearGradient id="paint19_linear_236_1626" x1="346.5" y1="100.5" x2="346.5" y2="156.5" gradientUnits="userSpaceOnUse">
<stop stop-color="white"/>
<stop offset="1" stop-color="#019DFE"/>
</linearGradient>
<linearGradient id="paint20_linear_236_1626" x1="346.5" y1="100.5" x2="346.5" y2="156.5" gradientUnits="userSpaceOnUse">
<stop stop-color="white"/>
<stop offset="1" stop-color="#019DFE"/>
</linearGradient>
<linearGradient id="paint21_linear_236_1626" x1="346.5" y1="100.5" x2="346.5" y2="156.5" gradientUnits="userSpaceOnUse">
<stop stop-color="white"/>
<stop offset="1" stop-color="#019DFE"/>
</linearGradient>
<linearGradient id="paint22_linear_236_1626" x1="346.5" y1="100.5" x2="346.5" y2="156.5" gradientUnits="userSpaceOnUse">
<stop stop-color="white"/>
<stop offset="1" stop-color="#019DFE"/>
</linearGradient>
<linearGradient id="paint23_linear_236_1626" x1="346.5" y1="100.5" x2="346.5" y2="156.5" gradientUnits="userSpaceOnUse">
<stop stop-color="white"/>
<stop offset="1" stop-color="#019DFE"/>
</linearGradient>
<linearGradient id="paint24_linear_236_1626" x1="346.5" y1="100.5" x2="346.5" y2="156.5" gradientUnits="userSpaceOnUse">
<stop stop-color="white"/>
<stop offset="1" stop-color="#019DFE"/>
</linearGradient>
<linearGradient id="paint25_linear_236_1626" x1="346.5" y1="100.5" x2="346.5" y2="156.5" gradientUnits="userSpaceOnUse">
<stop stop-color="white"/>
<stop offset="1" stop-color="#019DFE"/>
</linearGradient>
<linearGradient id="paint26_linear_236_1626" x1="340.169" y1="76.9522" x2="340.169" y2="-0.523886" gradientUnits="userSpaceOnUse">
<stop stop-color="#008CCA"/>
<stop offset="1" stop-color="#003BF1"/>
</linearGradient>
<linearGradient id="paint27_linear_236_1626" x1="340.169" y1="76.9522" x2="340.169" y2="-0.523886" gradientUnits="userSpaceOnUse">
<stop stop-color="#008CCA"/>
<stop offset="1" stop-color="#003BF1"/>
</linearGradient>
<linearGradient id="paint28_linear_236_1626" x1="340.169" y1="76.9522" x2="340.169" y2="-0.523886" gradientUnits="userSpaceOnUse">
<stop stop-color="#008CCA"/>
<stop offset="1" stop-color="#003BF1"/>
</linearGradient>
<linearGradient id="paint29_linear_236_1626" x1="340.169" y1="76.9522" x2="340.169" y2="-0.523886" gradientUnits="userSpaceOnUse">
<stop stop-color="#008CCA"/>
<stop offset="1" stop-color="#003BF1"/>
</linearGradient>
<linearGradient id="paint30_linear_236_1626" x1="340.169" y1="76.9522" x2="340.169" y2="-0.523886" gradientUnits="userSpaceOnUse">
<stop stop-color="#008CCA"/>
<stop offset="1" stop-color="#003BF1"/>
</linearGradient>
<linearGradient id="paint31_linear_236_1626" x1="340.169" y1="76.9522" x2="340.169" y2="-0.523886" gradientUnits="userSpaceOnUse">
<stop stop-color="#008CCA"/>
<stop offset="1" stop-color="#003BF1"/>
</linearGradient>
<linearGradient id="paint32_linear_236_1626" x1="340.169" y1="76.9522" x2="340.169" y2="-0.523886" gradientUnits="userSpaceOnUse">
<stop stop-color="#008CCA"/>
<stop offset="1" stop-color="#003BF1"/>
</linearGradient>
<linearGradient id="paint33_linear_236_1626" x1="340.169" y1="76.9522" x2="340.169" y2="-0.523886" gradientUnits="userSpaceOnUse">
<stop stop-color="#008CCA"/>
<stop offset="1" stop-color="#003BF1"/>
</linearGradient>
<linearGradient id="paint34_linear_236_1626" x1="344.328" y1="76.9655" x2="344.328" y2="-0.0114613" gradientUnits="userSpaceOnUse">
<stop stop-color="#00EFF1"/>
<stop offset="1" stop-color="#0098FF"/>
</linearGradient>
<linearGradient id="paint35_linear_236_1626" x1="344.328" y1="76.9655" x2="344.328" y2="-0.0114613" gradientUnits="userSpaceOnUse">
<stop stop-color="#00EFF1"/>
<stop offset="1" stop-color="#0098FF"/>
</linearGradient>
<linearGradient id="paint36_linear_236_1626" x1="344.328" y1="76.9655" x2="344.328" y2="-0.0114613" gradientUnits="userSpaceOnUse">
<stop stop-color="#00EFF1"/>
<stop offset="1" stop-color="#0098FF"/>
</linearGradient>
<linearGradient id="paint37_linear_236_1626" x1="344.328" y1="76.9655" x2="344.328" y2="-0.0114613" gradientUnits="userSpaceOnUse">
<stop stop-color="#00EFF1"/>
<stop offset="1" stop-color="#0098FF"/>
</linearGradient>
<linearGradient id="paint38_linear_236_1626" x1="344.328" y1="76.9655" x2="344.328" y2="-0.0114613" gradientUnits="userSpaceOnUse">
<stop stop-color="#00EFF1"/>
<stop offset="1" stop-color="#0098FF"/>
</linearGradient>
<linearGradient id="paint39_linear_236_1626" x1="344.328" y1="76.9655" x2="344.328" y2="-0.0114613" gradientUnits="userSpaceOnUse">
<stop stop-color="#00EFF1"/>
<stop offset="1" stop-color="#0098FF"/>
</linearGradient>
<linearGradient id="paint40_linear_236_1626" x1="344.328" y1="76.9655" x2="344.328" y2="-0.0114613" gradientUnits="userSpaceOnUse">
<stop stop-color="#00EFF1"/>
<stop offset="1" stop-color="#0098FF"/>
</linearGradient>
<linearGradient id="paint41_linear_236_1626" x1="344.328" y1="76.9655" x2="344.328" y2="-0.0114613" gradientUnits="userSpaceOnUse">
<stop stop-color="#00EFF1"/>
<stop offset="1" stop-color="#0098FF"/>
</linearGradient>
</defs>
</svg>
