<svg width="176" height="278" viewBox="0 0 176 278" fill="none" xmlns="http://www.w3.org/2000/svg">
<path d="M33.8113 273.688C33.8113 273.688 0.245436 174.445 3.78302 138.233L73.4011 130.239L93.6709 124L94.7911 140.941L173.849 126.607C173.849 126.607 178.889 156.219 168.204 180.392L146.906 222.913C146.906 222.913 134.277 252.071 119.047 260.578C119.047 260.578 91.1874 286.171 33.8053 273.714L33.8113 273.688Z" fill="#5B254E"/>
<path d="M0 139.154C0 139.154 5.01155 176.307 42.086 203.897C42.086 203.897 92.261 195.477 133.432 169.942L131.329 155.58L146.719 158.89C146.719 158.89 162.038 145.873 173.415 127.224C173.415 127.224 129.072 126.12 83.4397 136.339L91.6532 124.515C91.6532 124.515 54.2521 122.94 0.00608216 139.127L0 139.154Z" fill="#985965"/>
<path d="M41.8645 198.028C41.8645 198.028 29.2194 244.946 31.1311 268.65C31.1311 268.65 6.61701 203.21 2.48299 136.533C2.48299 136.533 23.2945 180.153 41.887 198.031L41.8645 198.028Z" fill="#461642"/>
<path d="M134.886 158.479L140.665 172.679L131.7 238.053C131.7 238.053 148.647 184.864 148.486 161.595L134.907 158.483L134.886 158.479Z" fill="#461642"/>
<path d="M7.1012 149.056C7.1012 149.056 34.6206 187.438 46.0057 190.248C57.3909 193.059 110.817 182.627 135.242 167.459C135.242 167.459 95.0293 194.772 42.8917 202.359C42.8917 202.359 20.7792 176.822 7.1012 149.056Z" fill="#B06979"/>
<path d="M39.2653 193.85L42.3883 205.373L50.269 198.148L39.2653 193.85Z" fill="#D27F7C"/>
<path d="M143.602 161.256L147.497 172.199L152.366 157.792C152.366 157.792 145.654 159.008 143.624 161.259L143.602 161.256Z" fill="#B06979"/>
<path style="mix-blend-mode:multiply" d="M57.7997 143.669C57.7097 145.799 72.6797 148.149 91.2397 148.909C109.8 149.679 124.91 148.579 125 146.449C125.02 145.899 124.04 145.339 122.26 144.789L91.2397 142.5C91.2397 142.5 79.8597 142.989 67.4697 141.369C61.5297 141.819 57.8397 142.619 57.7997 143.669Z" fill="url(#paint0_linear_521_9830)"/>
<path d="M74.1599 52.099C72.5999 49.499 69.9699 41.979 72.3099 30.469C73.0799 26.669 74.3899 22.439 76.4599 17.799C84.7899 -0.880987 93.8999 -2.17099 91.1999 1.88901C91.1999 1.88901 91.1899 1.90901 91.1599 1.94901C82.2299 15.419 72.2099 37.859 73.4099 42.149C74.6099 46.449 74.8899 46.029 74.8899 46.029C76.3599 48.819 74.9199 53.779 74.1699 52.099H74.1599Z" fill="url(#paint1_linear_521_9830)"/>
<g style="mix-blend-mode:multiply" opacity="0.3">
<path d="M74.1602 52.0992C72.6002 49.4992 69.9702 41.9792 72.3102 30.4692C72.4702 33.5892 73.7302 33.5092 79.3002 21.6592C84.6102 10.3692 90.6002 2.63922 91.1602 1.94922C82.2302 15.4192 72.2102 37.8592 73.4102 42.1492C74.6102 46.4492 74.8902 46.0292 74.8902 46.0292C76.3602 48.8192 74.9202 53.7792 74.1702 52.0992H74.1602Z" fill="#AB2781"/>
</g>
<path d="M90.2886 139.889C90.2886 139.889 90.4686 142.319 90.4586 142.539C90.4586 142.759 83.7486 143.089 74.4586 143.839C65.1686 144.589 60.8886 142.329 60.8886 142.329L61.5286 139.539C61.5286 139.539 69.6986 140.599 76.3786 140.799C83.0586 140.999 90.2886 139.879 90.2886 139.879V139.889Z" fill="url(#paint2_linear_521_9830)"/>
<path d="M54.3991 68.0888C55.1991 72.6088 58.8791 77.4088 64.5691 80.8188C66.4391 81.9488 68.5291 82.9188 70.7991 83.6788C79.9791 86.7488 80.4891 87.5988 80.4891 87.5988L86.6191 76.8288C85.1391 75.7188 76.5291 73.9988 69.6191 70.5488C69.2591 70.3788 68.9191 70.1988 68.5691 70.0088C68.5691 70.0088 68.5891 68.4088 67.3491 66.5588C66.1091 64.7088 65.0791 62.7188 64.0991 61.4688C63.5991 60.8188 62.7191 61.9688 62.8591 64.3388C62.8591 64.3388 59.7791 61.0888 57.1991 60.3388C54.7491 59.6288 53.3391 62.0788 54.4091 68.0788L54.3991 68.0888Z" fill="url(#paint3_linear_521_9830)"/>
<path d="M77.0788 99.449C77.0788 99.449 73.6088 109.549 72.7588 115.279C71.9088 121.009 70.5388 126.629 68.9788 128.579C67.4088 130.519 62.7788 136.889 61.5388 139.539C61.5388 139.539 65.8488 141.549 73.1388 141.129C80.4288 140.709 83.9588 140.989 86.9188 140.779C89.8788 140.569 90.2988 139.869 90.2988 139.869C90.2988 139.869 89.3688 133.869 89.1188 130.449C88.8688 127.029 89.5988 114.809 89.4488 114.049C89.2988 113.289 77.0888 99.439 77.0888 99.439L77.0788 99.449Z" fill="url(#paint4_linear_521_9830)"/>
<path d="M99.0288 75.5488C100.329 76.2188 100.339 93.9688 101.039 99.5888C101.749 105.209 91.5888 116.239 87.3188 115.889C83.0488 115.539 76.5188 106.529 77.1388 97.9088C77.7588 89.2888 83.4688 79.2888 85.5488 77.1088C87.6188 74.9288 97.1188 74.5788 99.0188 75.5488H99.0288Z" fill="url(#paint5_linear_521_9830)"/>
<path d="M64.1294 54.3791C64.2194 54.7391 64.3294 55.0791 64.4394 55.4191C64.5694 55.7891 64.7194 56.1591 64.8994 56.5191C68.5294 63.9591 82.9794 72.1791 87.4794 75.5691C87.4794 75.5691 90.3394 78.0891 96.9494 76.3791C96.9494 76.3791 96.9694 76.3691 96.9794 76.3691C97.2994 76.2891 97.6194 76.1991 97.9494 76.0991C97.9494 76.0991 111.219 75.3991 116.619 71.9691C117.749 71.2491 119.179 69.9291 120.689 68.1891C122.649 65.9391 124.769 62.9591 126.619 59.6191C126.619 59.6091 126.629 59.5991 126.629 59.5991C130.219 53.1491 132.789 45.3691 131.329 38.7691C128.529 26.0791 112.379 14.0991 96.7894 13.1191C86.1694 12.4391 77.8594 14.7691 72.7294 17.8791C70.3194 19.3391 68.6194 20.9791 67.7094 22.5691C64.9594 27.3591 61.7794 45.3991 64.1294 54.3791Z" fill="url(#paint6_linear_521_9830)"/>
<g style="mix-blend-mode:multiply" opacity="0.5">
<path d="M96.9889 76.3691C97.3089 76.2891 97.6289 76.1991 97.9589 76.0991C97.9589 76.0991 111.229 75.3991 116.629 71.9691C117.759 71.2491 119.189 69.9291 120.699 68.1891C122.659 65.9391 124.779 62.9591 126.629 59.6191C126.279 60.0191 120.689 66.3891 116.259 68.4091C111.829 70.4291 97.8589 76.0391 96.9889 76.3891V76.3691Z" fill="#AB2781"/>
</g>
<path style="mix-blend-mode:multiply" opacity="0.5" d="M64.1289 54.3789L68.8889 56.4989L117.389 49.9589C117.389 49.9589 122.029 42.9289 121.309 34.4889C120.579 26.0489 113.829 21.1189 109.769 20.4789C105.699 19.8389 93.0989 22.6389 86.0289 21.8889C78.9589 21.1289 77.0489 17.2489 72.7189 17.8789C70.3089 19.3389 68.6089 20.9789 67.6989 22.5689C64.9489 27.3589 61.7689 45.3989 64.1189 54.3789H64.1289Z" fill="url(#paint7_linear_521_9830)"/>
<path d="M65.4888 51.3992C65.8288 52.3692 66.2288 53.2992 66.6988 54.1792C67.0688 54.8592 67.5088 55.4992 68.0188 56.0992C75.6688 65.2092 98.0688 66.3192 104.969 63.1892C108.039 61.7992 111.759 58.2992 114.829 54.0092C114.839 53.9892 114.859 53.9792 114.859 53.9492C117.529 50.1992 119.709 45.8392 120.509 41.7292C122.219 32.9092 117.289 23.4992 111.109 22.0392C104.939 20.5792 96.3388 24.7992 88.2188 25.0992C80.0988 25.3992 78.2888 21.1392 76.7588 20.3892C75.6688 19.8592 73.7188 18.4492 70.0388 21.5892C65.9588 25.0892 61.7488 40.7192 65.4688 51.3892L65.4888 51.3992Z" fill="url(#paint8_radial_521_9830)"/>
<path style="mix-blend-mode:multiply" opacity="0.5" d="M64.8992 56.519C68.5292 63.959 82.9792 72.179 87.4792 75.569C87.4792 75.569 90.6292 78.349 97.9592 76.089C97.9592 76.089 111.229 75.389 116.629 71.959C117.759 71.239 119.189 69.919 120.699 68.179C117.359 68.799 107.869 70.239 96.4492 69.289C81.0792 67.999 71.3792 64.869 64.8992 56.519Z" fill="url(#paint9_linear_521_9830)"/>
<g style="mix-blend-mode:multiply" opacity="0.5">
<path d="M65.4902 51.3989L68.0102 56.0689C67.5702 55.0989 60.4402 38.6989 77.4602 37.1289C94.9602 35.5189 120.51 46.0589 114.88 53.9589C117.55 50.2089 119.73 45.8489 120.53 41.7389C122.24 32.9189 117.31 23.5089 111.13 22.0489C104.96 20.5889 96.3602 24.8089 88.2402 25.1089C80.1203 25.4089 78.3102 21.1489 76.7802 20.3989C75.6902 19.8689 73.7402 18.4589 70.0602 21.5989C65.9802 25.0989 61.7702 40.7289 65.4902 51.3989Z" fill="#AB2781"/>
</g>
<path d="M84.5487 35.2991C95.4087 35.4791 100.799 24.3291 97.4287 18.8791C97.0487 18.2591 96.5487 17.7191 95.9287 17.2691C90.5487 13.3891 82.5287 14.9091 78.9787 18.8491C77.9687 19.9691 77.1687 21.4091 76.6487 22.9891C74.8987 28.3591 76.4987 35.1691 84.5487 35.2991Z" fill="url(#paint10_linear_521_9830)"/>
<path d="M84.6698 29.2691C90.5098 29.3691 93.9398 22.7591 91.9898 19.6391C91.7698 19.2891 91.4798 18.9891 91.1198 18.7591C88.0698 16.8091 83.7498 18.1991 81.9598 20.5691C81.4698 21.2191 81.0798 22.0291 80.8298 22.8791C80.0098 25.7291 80.7598 29.2091 84.6698 29.2791V29.2691Z" fill="#36ACE3"/>
<path d="M84.8699 29.2691C89.8599 29.3591 92.7299 23.7691 91.0899 21.1091C90.9099 20.8091 90.6599 20.5491 90.3599 20.3491C87.7799 18.6491 84.0899 19.7791 82.5399 21.7791C82.1099 22.3291 81.7699 23.0191 81.5599 23.7491C80.8399 26.1991 81.4799 29.2091 84.8799 29.2691H84.8699Z" fill="#75E4FF"/>
<path d="M84.6536 27.5359C84.4623 27.3934 84.2804 27.2209 84.1464 27.0162C85.278 28.2318 87.0104 27.9376 87.0104 27.9376C85.7095 27.7223 83.9451 26.7299 83.9463 25.0038C83.9481 22.7771 85.6365 22.1107 86.6871 22.351C88.1312 22.6812 88.8764 24.8085 87.3195 25.8023C88.11 25.1556 88.2297 23.5959 87.2324 22.9241C86.2372 22.2537 85.1671 22.7596 84.496 23.41C84.496 23.41 84.7547 23.2526 85.1211 23.1131C84.8699 23.298 84.4108 23.727 84.29 24.3628C84.1518 25.09 84.3386 25.7381 84.6279 26.1746C85.468 27.4433 87.2147 27.6739 87.2147 27.6739C86.2702 27.4265 85.1834 26.6479 84.8148 25.7338C84.6699 25.3743 84.6134 24.8866 84.6982 24.4945C84.7667 24.1766 84.9297 23.8829 85.1484 23.6524C85.3592 23.4304 85.667 23.2176 86.0201 23.199C86.4616 23.176 86.9635 23.4383 87.1747 23.9952C87.3325 24.4114 87.1982 24.8368 86.9337 25.2026C87.1093 24.7754 87.0243 24.2492 86.7281 23.9284C86.4319 23.6075 85.9191 23.4588 85.5429 23.6959C84.7217 24.2131 84.8203 25.4693 85.392 26.1943C85.8256 26.7443 86.5468 27.2215 87.1955 27.3499C88.6244 27.6324 89.5529 26.7131 89.8752 26.253C89.8752 26.253 89.1038 26.9914 88.3262 27.0808C89.6762 26.6097 90.7316 25.2695 90.5159 23.3491C90.5159 23.3491 90.5029 24.4712 89.8707 25.4139C90.8952 22.8739 89.1074 20.6605 87.3534 20.5355C87.3534 20.5355 88.5206 20.8002 89.0612 21.7365C87.9226 20.6116 86.0253 20.3908 84.4397 21.2131C84.4397 21.2131 86.8239 20.478 88.3018 21.894C89.1483 22.7053 89.3671 23.6762 89.2562 24.5805C89.2277 24.8134 89.1586 25.0081 89.0843 25.1739C89.34 24.0182 88.927 22.4662 87.8266 21.785C87.0348 21.237 86.0546 21.0724 85.0717 21.3592C84.307 21.5826 83.5843 22.1334 83.1003 22.823C82.7781 23.282 82.6143 23.7826 82.4349 24.3116C82.4349 24.3116 82.7623 23.3457 83.3073 22.8836C82.4606 24.0978 82.2288 25.8913 83.2875 27.4516C83.2875 27.4516 82.8434 26.6215 82.857 25.6253C83.3193 27.6746 85.7674 29.4497 88.516 28.1342C88.516 28.1342 86.2236 28.7067 84.6536 27.5363L84.6536 27.5359ZM86.6135 26.0143C86.5886 26.0536 86.5392 26.0651 86.5034 26.0398L86.4592 26.0085C86.4235 25.9833 86.3741 25.9947 86.3492 26.034L86.2712 26.1571C86.2462 26.1964 86.1969 26.2079 86.1611 26.1826C86.1254 26.1573 86.1166 26.1047 86.1415 26.0654L86.2196 25.9423C86.2445 25.903 86.2357 25.8504 86.2 25.8252L86.1558 25.7939C86.12 25.7686 86.1113 25.716 86.1362 25.6767C86.1611 25.6374 86.2105 25.6259 86.2462 25.6512L86.2904 25.6825C86.3262 25.7077 86.3756 25.6963 86.4005 25.6569L86.4785 25.5339C86.5034 25.4946 86.5528 25.4831 86.5885 25.5084C86.6243 25.5337 86.6331 25.5863 86.6081 25.6256L86.5301 25.7486C86.5052 25.788 86.514 25.8406 86.5497 25.8658L86.5939 25.8971C86.6296 25.9224 86.6384 25.975 86.6135 26.0143ZM86.7454 26.7397C86.7366 26.7536 86.7195 26.7576 86.7069 26.7487L86.6916 26.7378C86.679 26.7289 86.6619 26.7329 86.6531 26.7467L86.6259 26.7896C86.6171 26.8035 86.6 26.8074 86.5874 26.7985C86.5748 26.7896 86.5717 26.7714 86.5805 26.7575L86.6077 26.7147C86.6165 26.7008 86.6135 26.6826 86.6009 26.6737L86.5855 26.6628C86.5729 26.6539 86.5699 26.6357 86.5787 26.6218C86.5875 26.6079 86.6046 26.604 86.6172 26.6129L86.6325 26.6237C86.6449 26.6325 86.6622 26.6287 86.671 26.6148L86.6982 26.572C86.707 26.5581 86.7241 26.5541 86.7367 26.563C86.7493 26.5719 86.7523 26.5902 86.7435 26.604L86.7164 26.6469C86.7076 26.6608 86.7106 26.679 86.7232 26.6879L86.7386 26.6987C86.7512 26.7077 86.7542 26.7259 86.7454 26.7397ZM89.5857 22.9409C89.577 22.9548 89.5598 22.9588 89.5472 22.9499L89.5319 22.939C89.5193 22.9301 89.5022 22.9341 89.4934 22.9479L89.4662 22.9908C89.4574 23.0046 89.4403 23.0086 89.4277 22.9997C89.4151 22.9908 89.4121 22.9726 89.4209 22.9587L89.4481 22.9158C89.4568 22.902 89.4538 22.8838 89.4412 22.8748L89.4259 22.864C89.4133 22.8551 89.4102 22.8369 89.419 22.823C89.4278 22.8091 89.4449 22.8052 89.4575 22.8141L89.4728 22.8249C89.4854 22.8338 89.5026 22.8299 89.5113 22.816L89.5385 22.7731C89.5473 22.7593 89.5644 22.7553 89.577 22.7642C89.5896 22.7731 89.5927 22.7914 89.5839 22.8052L89.5567 22.8481C89.5479 22.8619 89.551 22.8802 89.5635 22.8891L89.5789 22.8999C89.5915 22.9088 89.5945 22.9271 89.5857 22.9409ZM89.8703 25.414C89.8556 25.4361 89.8405 25.4579 89.8251 25.4795C89.8386 25.4457 89.8513 25.4115 89.8637 25.3768L89.8703 25.414ZM88.4289 26.54C88.4377 26.5261 88.4548 26.5221 88.4674 26.531L88.4828 26.5419C88.4954 26.5508 88.5125 26.5468 88.5213 26.533L88.5485 26.4901C88.5573 26.4762 88.5744 26.4723 88.587 26.4812C88.5996 26.4901 88.6026 26.5083 88.5938 26.5222L88.5666 26.565C88.5578 26.5789 88.5609 26.5971 88.5735 26.606L88.5888 26.6169C88.6014 26.6258 88.6045 26.644 88.5957 26.6579C88.5869 26.6718 88.5698 26.6757 88.5572 26.6668L88.5418 26.656C88.5292 26.647 88.5121 26.651 88.5033 26.6649L88.4762 26.7077C88.4674 26.7216 88.4503 26.7256 88.4377 26.7167C88.4251 26.7078 88.422 26.6895 88.4308 26.6757L88.458 26.6328C88.4668 26.6189 88.4637 26.6007 88.4511 26.5918L88.4358 26.5809C88.4232 26.572 88.4202 26.5538 88.4289 26.54ZM88.2953 25.7654C88.309 25.7438 88.3361 25.7377 88.3556 25.7515L88.3799 25.7687C88.3995 25.7826 88.4265 25.7761 88.4401 25.7547L88.483 25.6871C88.4967 25.6654 88.5235 25.6592 88.5432 25.6731C88.5629 25.6871 88.5676 25.7159 88.554 25.7373L88.5111 25.8049C88.4974 25.8266 88.5022 25.8552 88.5219 25.8691L88.5461 25.8863C88.5658 25.9002 88.5706 25.9288 88.5569 25.9505C88.5431 25.9721 88.516 25.9782 88.4966 25.9644L88.4723 25.9473C88.4526 25.9333 88.4258 25.9395 88.412 25.9612L88.3692 26.0288C88.3554 26.0505 88.3284 26.0565 88.3089 26.0428C88.2894 26.029 88.2846 26 88.2982 25.9786L88.341 25.911C88.3548 25.8893 88.35 25.8607 88.3303 25.8468L88.306 25.8296C88.2863 25.8157 88.2817 25.7869 88.2953 25.7654ZM87.5335 22.2248C87.5455 22.2059 87.569 22.2006 87.586 22.2126L87.607 22.2275C87.6242 22.2396 87.6477 22.234 87.6595 22.2153L87.6969 22.1563C87.7089 22.1374 87.7325 22.1322 87.7494 22.1442C87.7664 22.1562 87.7706 22.1814 87.7588 22.2001L87.7214 22.2591C87.7094 22.278 87.7138 22.303 87.7307 22.315L87.7518 22.3299C87.769 22.342 87.773 22.3671 87.7611 22.3858C87.7491 22.4047 87.7256 22.4099 87.7086 22.398L87.6876 22.3831C87.6704 22.3709 87.6469 22.3766 87.6351 22.3952L87.5977 22.4542C87.5857 22.4731 87.5621 22.4784 87.5452 22.4664C87.5282 22.4544 87.524 22.4291 87.5358 22.4105L87.5732 22.3515C87.5852 22.3326 87.5808 22.3076 87.5639 22.2956L87.5428 22.2807C87.5256 22.2685 87.5216 22.2434 87.5335 22.2248ZM87.1145 21.8663C87.1233 21.8524 87.1404 21.8485 87.153 21.8574L87.1683 21.8682C87.1809 21.8772 87.198 21.8732 87.2068 21.8593L87.234 21.8165C87.2428 21.8026 87.2599 21.7986 87.2725 21.8075C87.2851 21.8165 87.2881 21.8347 87.2793 21.8485L87.2522 21.8914C87.2434 21.9053 87.2464 21.9235 87.259 21.9324L87.2744 21.9433C87.287 21.9522 87.29 21.9704 87.2812 21.9843C87.2724 21.9981 87.2553 22.0021 87.2427 21.9932L87.2274 21.9823C87.2148 21.9734 87.1977 21.9774 87.1889 21.9912L87.1617 22.0341C87.1529 22.048 87.1358 22.0519 87.1232 22.043C87.1106 22.0341 87.1076 22.0159 87.1163 22.002L87.1435 21.9592C87.1523 21.9453 87.1493 21.9271 87.1367 21.9182L87.1213 21.9073C87.1087 21.8984 87.1057 21.8802 87.1145 21.8663ZM83.3188 24.2265C83.31 24.2404 83.2929 24.2444 83.2803 24.2354L83.265 24.2246C83.2524 24.2157 83.2353 24.2196 83.2265 24.2335L83.1993 24.2764C83.1905 24.2902 83.1734 24.2942 83.1608 24.2853C83.1482 24.2764 83.1452 24.2582 83.1539 24.2443L83.1811 24.2014C83.1899 24.1876 83.1869 24.1693 83.1743 24.1604L83.1589 24.1496C83.1463 24.1407 83.1433 24.1224 83.1521 24.1086C83.1609 24.0947 83.178 24.0907 83.1906 24.0997L83.2059 24.1105C83.2185 24.1194 83.2356 24.1155 83.2444 24.1016L83.2716 24.0587C83.2804 24.0449 83.2975 24.0409 83.3101 24.0498C83.3227 24.0587 83.3257 24.0769 83.3169 24.0908L83.2898 24.1337C83.281 24.1475 83.284 24.1658 83.2966 24.1747L83.312 24.1855C83.3246 24.1944 83.3276 24.2127 83.3188 24.2265ZM84.8667 22.1136L84.8514 22.1028C84.8388 22.0939 84.8217 22.0978 84.8129 22.1117L84.7857 22.1546C84.7769 22.1684 84.7598 22.1724 84.7472 22.1635C84.7346 22.1546 84.7315 22.1363 84.7403 22.1225L84.7675 22.0796C84.7763 22.0657 84.7733 22.0475 84.7607 22.0386L84.7453 22.0278C84.7327 22.0189 84.7297 22.0006 84.7385 21.9868C84.7473 21.9729 84.7644 21.9689 84.777 21.9778L84.7923 21.9887C84.8049 21.9976 84.822 21.9936 84.8308 21.9798L84.858 21.9369C84.8668 21.923 84.8839 21.9191 84.8965 21.928C84.9091 21.9369 84.9121 21.9551 84.9033 21.969L84.8762 22.0119C84.8674 22.0257 84.8704 22.0439 84.883 22.0528L84.8984 22.0637C84.9109 22.0726 84.914 22.0908 84.9052 22.1047C84.8964 22.1186 84.8793 22.1225 84.8667 22.1136ZM83.4233 25.0308C83.4096 25.0525 83.3827 25.0587 83.363 25.0448L83.3387 25.0276C83.319 25.0137 83.2922 25.0199 83.2785 25.0416L83.2356 25.1091C83.2219 25.1308 83.1951 25.137 83.1754 25.1231C83.1557 25.1092 83.1509 25.0806 83.1646 25.0589L83.2075 24.9913C83.2212 24.9697 83.2162 24.9409 83.1967 24.9271L83.1725 24.91C83.1528 24.896 83.148 24.8675 83.1617 24.8458C83.1755 24.8241 83.2023 24.8179 83.222 24.8318L83.2463 24.849C83.266 24.8629 83.2928 24.8567 83.3066 24.835L83.3494 24.7675C83.3632 24.7458 83.39 24.7396 83.4097 24.7535C83.4294 24.7674 83.4342 24.796 83.4204 24.8177L83.3776 24.8852C83.3638 24.9069 83.3688 24.9357 83.3883 24.9494L83.4126 24.9666C83.4323 24.9805 83.4369 25.0094 83.4233 25.0308Z" fill="#000AFF"/>
<path style="mix-blend-mode:multiply" opacity="0.5" d="M84.5487 35.2989C95.4087 35.4789 100.799 24.3289 97.4287 18.8789C98.9287 22.7989 95.1787 30.9989 87.2487 33.0589C79.3287 35.1189 75.1987 29.6689 76.6387 23.0289C76.6387 23.0189 76.6387 22.9989 76.6387 22.9789C74.8887 28.3489 76.4887 35.1589 84.5387 35.2889L84.5487 35.2989Z" fill="url(#paint11_linear_521_9830)"/>
<g style="mix-blend-mode:overlay">
<path d="M105.97 64.729C106.84 65.109 102.91 69.199 96.6896 68.769C90.4696 68.339 90.2696 67.089 90.3896 66.269C90.5196 65.449 104.46 64.069 105.97 64.729Z" fill="white"/>
</g>
<g style="mix-blend-mode:soft-light" opacity="0.5">
<path d="M107.969 46.7492C111.139 48.7992 106.859 57.4492 99.9693 56.3692C93.0793 55.2892 101.229 42.3892 107.969 46.7492Z" fill="white"/>
</g>
<path d="M105.699 34.4889C107.039 34.9789 104.789 38.2589 103.389 37.6889C101.989 37.1189 103.569 33.7089 105.699 34.4889Z" fill="white"/>
<path d="M90.6402 28.279C92.0902 28.409 91.1002 31.009 88.8202 30.729C86.5502 30.449 89.3202 28.159 90.6402 28.279Z" fill="white"/>
<path d="M79.9096 28.0788C80.7396 28.0888 80.2196 29.5888 79.9096 29.5488C79.5996 29.5088 78.3296 28.0588 79.9096 28.0788Z" fill="white"/>
<g style="mix-blend-mode:overlay">
<path d="M73.1595 63.169C74.2095 63.609 71.1095 59.299 68.4195 57.709C65.7295 56.119 65.5495 56.949 65.5495 56.949C65.5495 56.949 68.3695 61.159 73.1495 63.169H73.1595Z" fill="white"/>
</g>
<g style="mix-blend-mode:multiply" opacity="0.3">
<path d="M96.7787 75.1189C97.6887 74.2289 99.3487 72.3489 96.0887 70.3089C92.8287 68.2689 89.1487 69.3589 82.6187 67.2089C76.0887 65.0589 73.8187 64.1289 73.8187 64.1289C73.8187 64.1289 80.7087 72.0689 86.5687 74.5289C92.4287 76.9889 96.7887 75.1289 96.7887 75.1289L96.7787 75.1189Z" fill="#E767A7"/>
</g>
<g style="mix-blend-mode:soft-light">
<path d="M119.929 42.6691C119.929 42.6691 120.849 32.3691 116.749 27.9291C112.649 23.4891 109.629 22.9991 106.789 22.8191C103.949 22.6391 99.9093 23.9191 99.9093 23.9191C99.9093 23.9191 106.079 22.8291 109.799 24.4091C113.509 25.9891 118.629 32.5091 119.939 42.6691H119.929Z" fill="white"/>
</g>
<g style="mix-blend-mode:soft-light">
<path d="M75.5801 21.979C75.5801 21.979 72.1001 21.199 69.2801 24.539C66.4601 27.879 66.2501 30.849 66.2501 30.849C66.2501 30.849 71.3701 22.909 75.5801 21.979Z" fill="white"/>
</g>
<path d="M101.09 100.029C102.4 100.609 109.06 113.989 111.11 118.199C113.16 122.409 118.61 126.899 120.13 133.059C121.64 139.219 123.19 144.649 122.9 145.359C122.61 146.069 115.08 145.819 110.24 145.689C105.4 145.559 100.12 143.169 99.8203 142.639C99.5103 142.099 97.7503 134.169 96.2503 130.829C94.7503 127.489 89.0503 119.719 89.0903 115.559C89.1303 111.399 101.11 100.029 101.11 100.029H101.09Z" fill="url(#paint12_linear_521_9830)"/>
<path d="M97.3002 88.2491C98.6402 92.5791 106.53 101.459 109.71 105.749C110.37 106.629 110.82 107.319 110.98 107.739C111.88 110.179 111.95 112.359 113.92 113.879C115.88 115.399 117.83 116.859 118.21 116.399C118.58 115.929 118.66 114.909 118.13 114.059C117.62 113.259 116.87 112.669 116.73 112.519C116.88 112.649 118.15 113.759 121.38 114.839C124.83 115.989 127.82 115.549 128.21 114.599C128.6 113.649 126.94 107.289 122.99 102.759C122.03 101.659 120.93 100.449 119.76 99.1691C116.1 95.1691 111.81 90.5491 109.45 86.8091C106.33 81.8791 102.31 77.6891 100.23 77.2891C100.23 77.2891 95.7102 83.0091 97.3302 88.2291L97.3002 88.2491Z" fill="url(#paint13_linear_521_9830)"/>
<path d="M94.4586 87.2589C94.2686 98.2589 102.809 97.0089 102.809 97.0089L101.299 94.9989C101.299 94.9989 99.2686 91.3389 100.829 85.1989C102.399 79.0589 104.589 80.5289 104.589 80.5289L107.579 84.1289C107.579 84.1289 107.649 81.3689 106.819 78.8489C106.189 76.9189 105.019 75.1189 102.879 74.7989C99.8686 74.3389 95.9686 75.7289 94.7986 83.0889C94.7786 83.2089 94.7586 83.3189 94.7486 83.4289C94.7486 83.4289 94.7486 83.4489 94.7486 83.4589C94.6686 83.9989 94.6086 84.5689 94.5686 85.1789C94.5186 85.8289 94.4786 86.5289 94.4686 87.2589H94.4586Z" fill="url(#paint14_linear_521_9830)"/>
<path d="M77.5901 89.3792C77.7601 91.4392 78.0101 92.8692 78.0101 92.8692C78.0101 92.8692 83.3601 78.2392 88.0801 75.9692L87.4901 75.5792C87.4901 75.5792 84.6601 72.7592 81.4101 74.9692C80.8801 75.3192 80.3401 75.8192 79.8001 76.4692C77.2901 79.5292 77.2901 85.5492 77.6001 89.3792H77.5901Z" fill="url(#paint15_linear_521_9830)"/>
<path d="M87.0597 111.969C87.1297 113.719 87.4797 115.119 87.9297 116.209C88.7497 118.189 89.8397 119.119 89.9397 119.199C89.9397 119.199 89.9297 113.029 94.8997 107.309C99.8697 101.589 102.64 102.089 102.64 102.089L104.58 105.479C104.58 105.479 105.46 98.6291 100.83 97.5091C100.58 97.4491 100.31 97.4191 100.03 97.4291C95.1997 97.4291 86.8197 106.369 87.0397 111.959L87.0597 111.969Z" fill="url(#paint16_linear_521_9830)"/>
<path d="M73.849 104.989C73.609 112.389 81.959 119.179 89.959 119.209L88.329 115.929L87.939 116.219C87.839 116.169 86.719 115.649 85.239 114.519C82.409 112.359 78.249 107.979 77.339 100.429C77.239 99.6188 77.179 98.7788 77.159 97.8988C77.159 97.8988 74.089 97.5888 73.849 104.979V104.989Z" fill="url(#paint17_linear_521_9830)"/>
<path d="M109.71 105.749C110.37 106.639 110.82 107.329 110.98 107.749C111.88 110.189 110.74 111.009 113.92 113.889C115.76 115.559 117.83 116.869 118.21 116.409C118.58 115.939 118.66 114.919 118.13 114.069C117.62 113.269 116.87 112.679 116.73 112.529C116.88 112.659 118.15 113.769 121.38 114.849C124.83 115.999 127.82 115.559 128.21 114.609C128.6 113.659 126.94 107.299 122.99 102.769C122.03 101.669 120.93 100.459 119.76 99.1789C119.76 99.1789 111.21 99.0589 109.73 105.739L109.71 105.749Z" fill="url(#paint18_linear_521_9830)"/>
<path d="M54.3994 68.0891C55.1994 72.6091 58.8794 77.4091 64.5694 80.8191C62.4794 72.7591 69.4294 70.6091 69.6094 70.5591C69.2494 70.3891 68.9094 70.2091 68.5594 70.0191C68.5594 70.0191 68.5794 68.4191 67.3394 66.5691C66.0994 64.7191 65.2994 62.2491 64.3194 60.9891C63.8194 60.3391 62.2794 61.1091 62.8594 64.3491C62.8594 64.3491 59.7794 61.0991 57.1994 60.3491C54.7494 59.6391 53.3394 62.0891 54.4094 68.0891H54.3994Z" fill="url(#paint19_linear_521_9830)"/>
<path d="M82.9891 88.3389C84.1291 88.1489 87.3391 84.7889 87.8791 80.9789C88.0091 80.0989 87.5091 79.8089 87.2991 79.7289C86.2391 79.3289 84.2891 80.5789 83.0291 82.4689C81.6091 84.6089 81.3791 86.9289 81.9791 87.8689C82.1691 88.1689 82.4591 88.3389 82.7791 88.3489C82.8491 88.3489 82.9191 88.3489 82.9891 88.3389ZM87.0491 80.3789C87.0991 80.3989 87.2591 80.4589 87.1991 80.8889C86.6891 84.4489 83.6791 87.5289 82.8791 87.6589C82.7791 87.6689 82.6691 87.6589 82.5591 87.4989C82.1491 86.8589 82.2791 84.8389 83.5991 82.8589C84.7091 81.1989 86.1991 80.3189 86.8791 80.3489C86.9391 80.3489 86.9991 80.3589 87.0491 80.3789Z" fill="url(#paint20_linear_521_9830)"/>
<path d="M122.57 142.879C122.57 142.879 120.31 143.459 112.4 143.439C104.49 143.419 99.5297 141.759 99.5297 141.759C99.5297 141.759 99.6997 143.259 99.7297 143.439C99.7697 143.619 106.09 146.019 113.97 146.649C121.85 147.279 123.22 145.899 123.31 145.769C123.4 145.639 122.56 142.879 122.56 142.879H122.57Z" fill="url(#paint21_linear_521_9830)"/>
<path d="M89.8301 136.679C89.8301 136.679 79.8601 127.989 69.3601 128.029L69.8701 127.049C69.8701 127.049 77.7301 125.749 89.8301 136.669V136.679Z" fill="url(#paint22_linear_521_9830)"/>
<path d="M120.39 134.119C120.39 134.119 115.98 129.809 107.92 130.389C99.8501 130.969 98.8101 139.029 98.8101 139.029C98.8101 139.029 100.68 131.259 108.35 131.119C116.02 130.979 121.08 136.829 121.08 136.829L120.39 134.109V134.119Z" fill="url(#paint23_linear_521_9830)"/>
<path d="M99.0901 129.309C93.6501 129.419 93.2101 119.969 95.0301 117.099C96.8401 114.229 101.17 115.379 103.4 120.619C105.63 125.859 100.86 129.269 99.1001 129.309H99.0901Z" fill="url(#paint24_linear_521_9830)"/>
<path d="M96.4686 127.349C94.1986 125.579 92.9386 119.099 95.5286 116.849C98.1186 114.599 100.679 118.159 101.529 120.829C102.879 125.099 99.8786 129.999 96.4686 127.339V127.349Z" fill="url(#paint25_linear_521_9830)"/>
<path d="M72.0693 114.269C73.3393 112.029 75.9393 116.939 75.4793 120.819C75.0393 124.579 72.1393 125.539 71.0093 125.499C69.8793 125.459 70.0493 117.829 72.0693 114.269Z" fill="url(#paint26_linear_521_9830)"/>
<path d="M72.3199 113.909C73.3799 113.479 75.3299 117.509 74.7499 120.549C74.1799 123.589 71.6599 124.999 70.8799 124.779C70.0999 124.549 70.1899 120.949 70.4999 118.499C70.7999 116.049 71.8499 114.099 72.3199 113.909Z" fill="url(#paint27_linear_521_9830)"/>
<g style="mix-blend-mode:multiply" opacity="0.5">
<path d="M79.7384 74.4392C79.7384 74.4392 69.8384 74.7092 73.7084 84.7192L77.4484 86.0792C77.4484 86.0792 76.6684 77.8492 81.3984 74.9492L79.7384 74.4292V74.4392Z" fill="#AB2781"/>
</g>
<g style="mix-blend-mode:multiply" opacity="0.5">
<path d="M107.77 84.3992C107.77 84.3992 105.78 81.4592 102.91 83.6292C99.3495 86.3192 101.33 94.3092 102.29 96.4092C102.29 96.4092 100.95 95.3492 100.65 94.3592C100.36 93.3592 98.8895 82.5092 102.18 79.9792C105.47 77.4492 107.77 84.3992 107.77 84.3992Z" fill="#AB2781"/>
</g>
<g style="mix-blend-mode:multiply" opacity="0.5">
<path d="M94.7488 83.4391C94.7788 83.2991 94.7988 83.1891 94.7988 83.0991C94.7788 83.2091 94.7588 83.3191 94.7488 83.4391Z" fill="#AB2781"/>
</g>
<g style="mix-blend-mode:multiply" opacity="0.5">
<path d="M94.4586 87.2591C94.2686 98.2591 102.809 97.0091 102.809 97.0091L101.299 94.9991C101.299 94.9991 99.2686 91.3391 100.829 85.1991C102.399 79.0591 104.589 80.5291 104.589 80.5291L107.579 84.1291C107.579 84.1291 107.649 81.3691 106.819 78.8491C106.619 78.7791 102.609 77.3791 100.819 81.3591C98.9886 85.4291 100.109 91.1991 97.7186 92.7991C95.6986 94.1591 94.4486 88.7691 94.5586 85.1691C94.5086 85.8191 94.4686 86.5191 94.4586 87.2491V87.2591Z" fill="#AB2781"/>
</g>
<g style="mix-blend-mode:multiply" opacity="0.5">
<path d="M77.5901 89.3792C77.7601 91.4392 78.0101 92.8692 78.0101 92.8692C78.0101 92.8692 83.3601 78.2392 88.0801 75.9692L87.4901 75.5792C87.4901 75.5792 84.6601 72.7592 81.4101 74.9692C83.7001 75.1592 82.8301 78.3692 81.0301 84.0892C79.2301 89.8092 77.5901 89.3892 77.5901 89.3892V89.3792Z" fill="#AB2781"/>
</g>
<g style="mix-blend-mode:multiply" opacity="0.5">
<path d="M89.0903 130.089C89.0903 130.089 86.6903 130.759 80.9303 124.819C75.1703 118.879 73.6003 110.819 73.6003 110.819L74.3303 108.389C74.3303 108.389 77.6303 113.559 82.3603 116.239C87.0803 118.919 89.3203 119.179 89.3203 119.179C89.3203 119.179 88.9503 128.319 89.0903 130.089Z" fill="#AB2781"/>
</g>
<g style="mix-blend-mode:multiply" opacity="0.5">
<path d="M105.439 107.029C105.439 107.029 103.739 103.679 97.6195 106.009C91.4895 108.329 90.9095 119.399 92.0495 123.449L89.9595 119.209C89.9595 119.209 89.8095 110.929 95.1795 105.779C100.549 100.629 102.659 102.099 102.659 102.099L105.439 107.039V107.029Z" fill="#AB2781"/>
</g>
<g style="mix-blend-mode:multiply" opacity="0.5">
<path d="M73.8493 104.989C73.6093 112.389 81.9593 119.179 89.9593 119.209C89.9593 119.209 89.9493 113.029 94.9193 107.319C99.8893 101.609 102.659 102.099 102.659 102.099L104.599 105.489C104.599 105.489 105.479 98.6389 100.849 97.5189C100.599 97.4589 100.329 97.4289 100.049 97.4389C102.659 98.4489 93.5393 106.359 90.9393 110.929C88.3493 115.499 87.0593 111.969 87.0593 111.969C87.1293 113.719 87.4793 115.119 87.9293 116.209C87.8293 116.159 86.7093 115.649 85.2293 114.509C84.8593 115.169 83.8593 115.749 81.1693 114.869C76.4693 113.329 72.7793 106.449 74.5393 102.939C75.7193 100.599 76.7593 100.329 77.3393 100.419C77.2393 99.6089 77.1793 98.7689 77.1593 97.8889C77.1593 97.8889 74.0893 97.5789 73.8493 104.969V104.989Z" fill="#AB2781"/>
</g>
<g style="mix-blend-mode:multiply" opacity="0.3">
<path d="M93.24 101.029C93.24 101.029 88.96 104.689 86.44 107.729C83.92 110.769 77.75 102.789 77.75 102.789C77.75 102.789 78.84 112.159 87.94 116.209C87.94 116.209 85.36 108.179 93.25 101.029H93.24Z" fill="#C72781"/>
</g>
<g style="mix-blend-mode:multiply" opacity="0.8">
<path d="M62.8488 64.349C62.8488 64.349 63.0588 65.629 61.8388 66.949C60.6188 68.279 63.5488 71.939 63.5488 71.939C63.5488 71.939 60.7288 70.479 60.1188 67.669C59.5188 64.859 60.8388 62.519 60.8388 62.519L62.8488 64.359V64.349Z" fill="#AB2781"/>
</g>
<g style="mix-blend-mode:multiply" opacity="0.3">
<path d="M63.0802 71.649C63.3002 73.099 58.7702 74.869 56.7002 70.369C54.6302 65.869 55.1402 62.849 57.6102 62.559C60.0802 62.259 62.4902 65.349 62.4602 65.739C62.4302 66.129 61.8402 66.439 61.6002 67.339C61.3702 68.249 63.0702 71.659 63.0702 71.659L63.0802 71.649Z" fill="#AB2781"/>
</g>
<g style="mix-blend-mode:soft-light" opacity="0.4">
<path d="M122.499 102.489C124.759 105.159 127.899 109.919 126.889 112.169C125.879 114.419 115.679 110.589 112.729 105.949C109.779 101.309 117.689 99.899 119.369 100.259C121.049 100.619 122.499 102.489 122.499 102.489Z" fill="white"/>
</g>
<g style="mix-blend-mode:soft-light">
<path d="M87.42 134.829C89.06 136.449 78.01 140.359 71.58 139.569C65.15 138.779 63.84 137.589 63.84 137.589C63.84 137.589 67.11 128.739 70.93 128.729C74.75 128.719 87.41 134.829 87.41 134.829H87.42Z" fill="white"/>
</g>
<g style="mix-blend-mode:soft-light">
<path d="M120.32 136.349C121.39 137.409 116.89 142.469 111.09 142.459C105.29 142.449 101.5 139.769 101.01 138.269C100.51 136.769 101.94 131.819 108.69 131.579C115.44 131.329 120.32 136.349 120.32 136.349Z" fill="white"/>
</g>
<g style="mix-blend-mode:multiply" opacity="0.5">
<path d="M118.84 132.949C118.84 132.949 113.67 128.299 106.06 129.129C98.4398 129.959 99.0598 138.249 99.0598 138.249C99.0598 138.249 100.06 131.899 106.89 130.849C113.72 129.799 118.84 132.939 118.84 132.939V132.949Z" fill="#D14894"/>
</g>
<g style="mix-blend-mode:multiply" opacity="0.5">
<path d="M88.25 135.429C88.25 135.429 84.08 129.899 78.1 127.259C72.12 124.619 69.87 127.059 69.87 127.059C69.87 127.059 78.88 127.029 88.25 135.429Z" fill="#D14894"/>
</g>
<g style="mix-blend-mode:multiply" opacity="0.3">
<path d="M120.389 134.119C120.389 134.119 116.609 131.059 113.859 127.709C111.119 124.359 109.339 114.619 109.339 114.619C109.339 114.619 110.129 116.709 112.219 119.819C114.309 122.929 118.709 127.479 120.389 134.119Z" fill="#E767A7"/>
</g>
<g style="mix-blend-mode:overlay">
<path d="M81.66 135.829C81.35 134.289 79.98 135.069 79.43 136.439C78.87 137.819 81.92 137.099 81.66 135.829Z" fill="white"/>
</g>
<g style="mix-blend-mode:overlay">
<path d="M105.24 140.509C105.76 140.179 104.72 138.009 102.8 138.409C100.88 138.819 104.13 141.209 105.24 140.509Z" fill="white"/>
</g>
<g style="mix-blend-mode:overlay">
<path d="M91.5795 94.3889C92.9395 96.0389 91.1695 98.6589 89.0695 97.9089C86.9695 97.1689 90.6095 93.2089 91.5795 94.3889Z" fill="white"/>
</g>
<g style="mix-blend-mode:multiply" opacity="0.5">
<path d="M100.81 96.9593L100.85 97.5193C100.85 97.5193 98.2596 97.5793 95.8296 99.0093C95.8296 99.0093 94.7496 97.6093 94.2996 94.3093C93.8496 91.0193 94.4796 88.4893 94.4796 88.4893C94.4796 88.4893 94.0196 94.6093 100.81 96.9693V96.9593Z" fill="#AB2781"/>
</g>
<g style="mix-blend-mode:multiply" opacity="0.3">
<path d="M109.709 105.749C109.709 105.749 108.679 101.779 107.299 99.1488C105.919 96.5188 101.299 95.0088 101.299 95.0088C101.299 95.0088 107.479 103.159 109.709 105.759V105.749Z" fill="#E767A7"/>
</g>
<g style="mix-blend-mode:multiply" opacity="0.8">
<path d="M116.95 112.719C116.95 112.719 114.5 111.589 113.32 110.139C113.32 110.139 113.29 112.969 117.92 113.779L116.96 112.719H116.95Z" fill="#AB2781"/>
</g>
<path d="M117.09 28.2891C117.09 28.2891 115.95 28.6391 114.37 27.1091C112.79 25.5791 112.53 24.6191 112.53 24.6191C112.53 24.6191 114.83 24.8391 117.09 28.2791V28.2891Z" fill="white"/>
<g style="mix-blend-mode:overlay">
<path d="M107.479 123.559C109.149 124.899 107.189 126.559 106.179 125.929C105.179 125.299 106.269 122.589 107.479 123.559Z" fill="white"/>
</g>
<g style="mix-blend-mode:overlay">
<path d="M101.628 109.949C102.598 112.689 99.6384 112.099 99.1284 110.169C98.6184 108.249 101.298 109.009 101.628 109.949Z" fill="white"/>
</g>
<g style="mix-blend-mode:overlay">
<path d="M108.739 94.9092C109.479 97.2592 106.739 95.7392 106.449 94.8192C106.159 93.8892 107.989 92.5192 108.739 94.9092Z" fill="white"/>
</g>
<g style="mix-blend-mode:multiply" opacity="0.2">
<path d="M75.3301 143.769C76.9201 143.649 77.2801 139.919 82.2501 138.589C87.2201 137.259 89.5801 142.689 89.5801 142.689C89.5801 142.689 85.7301 142.409 75.3401 143.769H75.3301Z" fill="#C22781"/>
</g>
<g style="mix-blend-mode:multiply" opacity="0.2">
<path d="M100.01 143.599C100.01 143.599 99.4602 138.199 100.23 138.229C101 138.259 105.41 144.639 105.41 144.639C105.41 144.639 103.64 144.759 100.01 143.599Z" fill="#C22781"/>
</g>
<path d="M59.07 60.7473C61.6267 64.7829 62.8038 68.79 60.4515 70.9592C60.2556 71.1413 58.9136 71.9335 58.686 72.0777C55.7028 73.9511 51.0529 71.9289 48.2828 67.5564C45.5127 63.184 45.691 58.1112 48.6705 56.2319C48.8593 56.1123 50.4765 55.0546 50.6747 54.9622C53.6478 53.65 56.4776 56.6431 59.0662 60.7414L59.07 60.7473Z" fill="url(#paint28_radial_521_9830)"/>
<path d="M61.075 59.4775C63.8451 63.8499 63.6668 68.9227 60.6873 70.802C57.7079 72.6813 53.0524 70.6626 50.2916 66.2926C47.5271 61.9166 47.6961 56.8415 50.6756 54.9621C53.6551 53.0828 58.3105 55.1016 61.075 59.4775Z" fill="url(#paint29_linear_521_9830)"/>
<g style="mix-blend-mode:soft-light">
<path d="M48.4613 61.7465L62.9076 67.2585L62.9995 64.8984L49.1589 56.56C49.1589 56.56 48.0202 58.2502 48.4613 61.7465Z" fill="#00B2FF"/>
</g>
<path d="M59.4869 60.4834C61.4409 63.5678 61.32 67.1469 59.2121 68.474C59.1344 68.5233 59.0567 68.5725 58.977 68.6064C56.8754 69.6977 53.7565 68.2622 51.8736 65.2902C49.9944 62.324 50.0456 58.905 51.9115 57.4662C51.9911 57.4075 52.0651 57.3524 52.1483 57.2996C54.2469 55.9701 57.5329 57.3991 59.4814 60.487L59.4869 60.4834Z" fill="url(#paint30_radial_521_9830)"/>
<path d="M58.9987 60.7928C60.8704 63.7472 60.834 67.1651 58.9774 68.6063C56.8757 69.6976 53.7568 68.2621 51.8739 65.2901C49.9947 62.3239 50.0459 58.9049 51.9119 57.4661C54.0136 56.3995 57.1195 57.8267 58.9931 60.7964L58.9987 60.7928Z" fill="url(#paint31_linear_521_9830)"/>
<path d="M57.7562 66.4316C57.5419 66.5385 57.3016 66.6203 57.0477 66.639C58.6839 66.2062 59.0537 64.3892 59.0537 64.3892C58.3438 65.52 56.6872 66.6785 54.9776 65.7528C52.7723 64.5585 52.7566 62.5843 53.3956 61.7066C54.274 60.5002 56.666 60.9257 57.0563 62.9494C56.7173 61.8458 55.2178 60.8957 54.1715 61.4912C53.1275 62.0854 53.2202 63.3814 53.6084 64.3727C53.6084 64.3727 53.5513 64.0406 53.5529 63.6148C53.6402 63.9545 53.89 64.6241 54.4737 65.0803C55.1414 65.6022 55.8549 65.7704 56.3977 65.7271C57.9753 65.6019 58.8705 64.0522 58.8705 64.0522C58.2648 64.8244 57.0786 65.4485 56.0324 65.312C55.6208 65.2582 55.1162 65.0511 54.76 64.7598C54.4713 64.524 54.2425 64.2106 54.0976 63.8775C53.9582 63.5568 53.8648 63.148 53.9811 62.7997C54.1269 62.3645 54.5783 62.0242 55.2107 62.1202C55.6832 62.192 56.0534 62.5485 56.3149 62.9977C55.9587 62.6007 55.4049 62.4004 54.974 62.5122C54.543 62.624 54.2 63.0356 54.2912 63.523C54.4902 64.5866 55.7724 65.165 56.7089 65.0057C57.4192 64.8849 58.1673 64.4497 58.5422 63.8971C59.3675 62.6797 58.8111 61.2978 58.4783 60.7428C58.4783 60.7428 58.9154 61.8771 58.7072 62.6698C58.7557 61.1243 57.8308 59.3956 55.846 58.5736C55.846 58.5736 56.9526 59.1871 57.6453 60.2976C55.5199 57.9558 52.6447 58.4828 51.8514 60.096C51.8514 60.096 52.5591 59.1197 53.6931 59.1034C52.144 59.5915 51.201 61.2906 51.4105 63.2498C51.4105 63.2498 51.5923 60.5723 53.5592 59.9151C54.6861 59.5388 55.7315 59.8493 56.5851 60.4398C56.8049 60.5919 56.9715 60.7624 57.1074 60.9223C56.06 60.0584 54.3648 59.6228 53.2698 60.312C52.4247 60.7769 51.8875 61.6277 51.7964 62.7228C51.7259 63.5749 51.9956 64.5622 52.4941 65.3952C52.8259 65.9497 53.2593 66.3747 53.7149 66.8299C53.7149 66.8299 52.8829 65.9989 52.6332 65.2294C53.5129 66.6908 55.2013 67.8734 57.1512 67.695C57.1512 67.695 56.1593 67.6757 55.1775 67.1292C57.3842 67.784 60.0773 66.3897 59.8232 63.0523C59.8232 63.0523 59.5153 65.5548 57.7566 66.4318L57.7562 66.4316ZM56.9968 63.7392C57.0262 63.7842 57.0187 63.8376 56.9801 63.8583L56.9322 63.8839C56.8935 63.9046 56.886 63.958 56.9155 64.003L57.0076 64.1436C57.037 64.1885 57.0295 64.242 56.9908 64.2627C56.9522 64.2834 56.8967 64.2636 56.8673 64.2187L56.7751 64.078C56.7457 64.0331 56.6902 64.0133 56.6516 64.034L56.6037 64.0596C56.565 64.0803 56.5096 64.0606 56.4801 64.0156C56.4507 63.9707 56.4582 63.9172 56.4969 63.8965L56.5447 63.8709C56.5834 63.8502 56.5909 63.7968 56.5615 63.7519L56.4693 63.6112C56.4399 63.5663 56.4474 63.5128 56.4861 63.4922C56.5248 63.4715 56.5802 63.4912 56.6097 63.5362L56.7018 63.6768C56.7312 63.7217 56.7867 63.7415 56.8254 63.7208L56.8732 63.6952C56.9119 63.6745 56.9674 63.6943 56.9968 63.7392ZM57.7659 64.0014C57.7762 64.0173 57.7736 64.0358 57.76 64.0431L57.7434 64.052C57.7297 64.0593 57.7271 64.0778 57.7375 64.0936L57.7696 64.1426C57.78 64.1585 57.7774 64.177 57.7638 64.1843C57.7501 64.1916 57.7309 64.1847 57.7205 64.1689L57.6884 64.1199C57.6781 64.104 57.6588 64.0972 57.6452 64.1045L57.6286 64.1134C57.615 64.1207 57.5957 64.1138 57.5854 64.098C57.575 64.0821 57.5776 64.0636 57.5912 64.0563L57.6078 64.0474C57.6212 64.0403 57.6241 64.0216 57.6137 64.0058L57.5816 63.9568C57.5712 63.9409 57.5738 63.9224 57.5875 63.9151C57.6011 63.9078 57.6203 63.9147 57.6307 63.9305L57.6628 63.9795C57.6732 63.9954 57.6924 64.0022 57.706 63.9949L57.7226 63.986C57.7363 63.9787 57.7555 63.9856 57.7659 64.0014ZM55.0865 59.246C55.0969 59.2619 55.0943 59.2804 55.0807 59.2877L55.0641 59.2965C55.0504 59.3038 55.0478 59.3224 55.0582 59.3382L55.0903 59.3872C55.1007 59.403 55.0981 59.4215 55.0844 59.4288C55.0708 59.4361 55.0516 59.4293 55.0412 59.4134L55.0091 59.3645C54.9987 59.3486 54.9795 59.3418 54.9659 59.3491L54.9493 59.3579C54.9356 59.3652 54.9164 59.3584 54.906 59.3426C54.8957 59.3267 54.8983 59.3082 54.9119 59.3009L54.9285 59.292C54.9421 59.2847 54.9447 59.2662 54.9344 59.2504L54.9023 59.2014C54.8919 59.1855 54.8945 59.167 54.9081 59.1597C54.9218 59.1524 54.941 59.1593 54.9514 59.1751L54.9835 59.2241C54.9938 59.2399 55.013 59.2468 55.0267 59.2395L55.0433 59.2306C55.0569 59.2233 55.0761 59.2302 55.0865 59.246ZM57.6452 60.298C57.6615 60.324 57.6774 60.3501 57.6929 60.3764C57.6645 60.3453 57.6355 60.3149 57.6059 60.2845L57.6452 60.298ZM58.2105 62.2818C58.2002 62.2659 58.2028 62.2474 58.2164 62.2401L58.233 62.2312C58.2466 62.2239 58.2492 62.2054 58.2389 62.1896L58.2068 62.1406C58.1964 62.1247 58.199 62.1062 58.2126 62.0989C58.2263 62.0916 58.2455 62.0985 58.2559 62.1143L58.288 62.1633C58.2983 62.1792 58.3175 62.186 58.3312 62.1787L58.3478 62.1698C58.3614 62.1625 58.3806 62.1694 58.391 62.1852C58.4014 62.2011 58.3988 62.2196 58.3852 62.2269L58.3686 62.2358C58.3549 62.2431 58.3523 62.2616 58.3627 62.2774L58.3948 62.3264C58.4052 62.3423 58.4026 62.3608 58.3889 62.3681C58.3753 62.3754 58.3561 62.3685 58.3457 62.3527L58.3136 62.3037C58.3032 62.2878 58.284 62.281 58.2704 62.2883L58.2538 62.2972C58.2401 62.3045 58.2209 62.2976 58.2105 62.2818ZM57.3922 61.995C57.376 61.9702 57.3803 61.941 57.4014 61.9297L57.4277 61.9157C57.449 61.9043 57.4529 61.8749 57.4368 61.8505L57.3862 61.7732C57.37 61.7484 57.3741 61.7194 57.3954 61.708C57.4167 61.6966 57.4471 61.7076 57.4631 61.7321L57.5137 61.8093C57.5299 61.8341 57.5601 61.8449 57.5814 61.8335L57.6077 61.8194C57.629 61.808 57.6591 61.8187 57.6753 61.8435C57.6916 61.8683 57.6872 61.8974 57.6662 61.9087L57.6399 61.9228C57.6186 61.9342 57.6145 61.9632 57.6307 61.988L57.6813 62.0652C57.6976 62.09 57.6932 62.1192 57.6721 62.1304C57.6511 62.1417 57.6205 62.1308 57.6045 62.1063L57.5539 62.0291C57.5376 62.0043 57.5075 61.9936 57.4862 62.005L57.4599 62.0191C57.4386 62.0305 57.4083 62.0194 57.3922 61.995ZM53.5936 60.8283C53.5795 60.8067 53.5833 60.7813 53.6016 60.7715L53.6244 60.7593C53.643 60.7493 53.6464 60.7238 53.6324 60.7025L53.5882 60.635C53.5741 60.6134 53.5779 60.588 53.5962 60.5782C53.6146 60.5684 53.6412 60.5779 53.6552 60.5992L53.6994 60.6667C53.7135 60.6883 53.74 60.6975 53.7583 60.6877L53.7811 60.6755C53.7997 60.6655 53.8261 60.6751 53.8401 60.6964C53.8542 60.7181 53.8504 60.7434 53.8321 60.7533L53.8093 60.7655C53.7907 60.7754 53.7873 60.8009 53.8013 60.8223L53.8455 60.8897C53.8596 60.9113 53.8558 60.9367 53.8375 60.9465C53.8191 60.9563 53.7925 60.9468 53.7785 60.9255L53.7344 60.8581C53.7202 60.8365 53.6937 60.8273 53.6754 60.8371L53.6526 60.8493C53.634 60.8592 53.6076 60.8496 53.5936 60.8283ZM53.0786 61.0376C53.0682 61.0218 53.0708 61.0033 53.0845 60.996L53.1011 60.9871C53.1147 60.9798 53.1173 60.9613 53.1069 60.9454L53.0748 60.8964C53.0644 60.8806 53.067 60.8621 53.0807 60.8548C53.0943 60.8475 53.1135 60.8543 53.1239 60.8702L53.156 60.9192C53.1664 60.935 53.1856 60.9419 53.1992 60.9346L53.2159 60.9257C53.2295 60.9184 53.2487 60.9252 53.2591 60.9411C53.2695 60.9569 53.2669 60.9754 53.2532 60.9827L53.2366 60.9916C53.223 60.9989 53.2204 61.0174 53.2308 61.0333L53.2628 61.0823C53.2732 61.0981 53.2706 61.1166 53.257 61.1239C53.2434 61.1312 53.2241 61.1244 53.2138 61.1085L53.1817 61.0595C53.1713 61.0437 53.1521 61.0368 53.1384 61.0441L53.1218 61.053C53.1082 61.0603 53.089 61.0535 53.0786 61.0376ZM53.968 65.9376C53.9784 65.9535 53.9758 65.972 53.9622 65.9793L53.9456 65.9882C53.9319 65.9954 53.9293 66.014 53.9397 66.0298L53.9718 66.0788C53.9822 66.0946 53.9796 66.1132 53.9659 66.1204C53.9523 66.1277 53.9331 66.1209 53.9227 66.1051L53.8906 66.0561C53.8802 66.0402 53.861 66.0334 53.8474 66.0407L53.8308 66.0496C53.8171 66.0568 53.7979 66.05 53.7875 66.0342C53.7772 66.0183 53.7798 65.9998 53.7934 65.9925L53.81 65.9836C53.8236 65.9763 53.8262 65.9578 53.8159 65.942L53.7838 65.893C53.7734 65.8771 53.776 65.8586 53.7896 65.8513C53.8033 65.844 53.8225 65.8509 53.8329 65.8667L53.865 65.9157C53.8753 65.9315 53.8945 65.9384 53.9082 65.9311L53.9248 65.9222C53.9384 65.9149 53.9576 65.9218 53.968 65.9376ZM52.4656 63.3232L52.449 63.3321C52.4354 63.3394 52.4328 63.3579 52.4431 63.3738L52.4752 63.4227C52.4856 63.4386 52.483 63.4571 52.4694 63.4644C52.4557 63.4717 52.4365 63.4648 52.4261 63.449L52.3941 63.4C52.3837 63.3842 52.3645 63.3773 52.3508 63.3846L52.3342 63.3935C52.3206 63.4008 52.3014 63.3939 52.291 63.3781C52.2806 63.3623 52.2832 63.3437 52.2968 63.3364L52.3134 63.3276C52.3271 63.3203 52.3297 63.3017 52.3193 63.2859L52.2872 63.2369C52.2768 63.2211 52.2794 63.2026 52.2931 63.1953C52.3067 63.188 52.3259 63.1948 52.3363 63.2107L52.3684 63.2596C52.3788 63.2755 52.398 63.2823 52.4116 63.275L52.4282 63.2662C52.4419 63.2589 52.4611 63.2657 52.4715 63.2816C52.4818 63.2974 52.4792 63.3159 52.4656 63.3232ZM54.8047 66.2683C54.8209 66.2931 54.8169 66.3221 54.7955 66.3335L54.7693 66.3476C54.7479 66.359 54.7439 66.388 54.7601 66.4128L54.8107 66.49C54.8269 66.5148 54.8228 66.5438 54.8015 66.5552C54.7802 66.5666 54.7501 66.5559 54.7338 66.5311L54.6832 66.4539C54.667 66.4291 54.6366 66.4185 54.6155 66.4298L54.5893 66.4439C54.5679 66.4553 54.5378 66.4445 54.5216 66.4198C54.5053 66.395 54.5094 66.3659 54.5308 66.3545L54.557 66.3405C54.5784 66.3291 54.5824 66.3 54.5662 66.2753L54.5156 66.198C54.4994 66.1733 54.5035 66.1442 54.5248 66.1328C54.5461 66.1214 54.5762 66.1321 54.5925 66.1569L54.6431 66.2341C54.6593 66.2589 54.6897 66.2695 54.7107 66.2583L54.737 66.2442C54.7583 66.2328 54.7887 66.2438 54.8047 66.2683Z" fill="url(#paint32_radial_521_9830)"/>
<path d="M60.0844 59.475C60.375 59.3074 60.7805 59.4562 60.994 59.8178C61.2075 60.1793 61.1447 60.6083 60.8541 60.7759C60.5634 60.9434 60.158 60.7946 59.9445 60.433C59.731 60.0715 59.7938 59.6425 60.0844 59.475Z" fill="url(#paint33_radial_521_9830)"/>
<path d="M60.0629 59.613C60.3109 59.4641 60.655 59.6021 60.8404 59.907C61.0258 60.2119 60.9701 60.5783 60.7221 60.7272C60.474 60.876 60.1299 60.738 59.9445 60.4332C59.7647 60.1248 59.8148 59.7618 60.0629 59.613Z" fill="url(#paint34_linear_521_9830)"/>
<path d="M51.4613 55.5809C51.752 55.4134 52.1574 55.5622 52.3709 55.9237C52.5844 56.2853 52.5217 56.7142 52.231 56.8818C51.9404 57.0494 51.5349 56.9005 51.3214 56.539C51.1079 56.1774 51.1707 55.7485 51.4613 55.5809Z" fill="url(#paint35_radial_521_9830)"/>
<path d="M51.4457 55.7145C51.6937 55.5657 52.0379 55.7037 52.2232 56.0086C52.4086 56.3134 52.3529 56.6799 52.1049 56.8288C51.8569 56.9776 51.5127 56.8396 51.3273 56.5347C51.1475 56.2264 51.1976 55.8634 51.4457 55.7145Z" fill="url(#paint36_linear_521_9830)"/>
<path d="M59.8188 68.7928C60.1094 68.6253 60.5149 68.7741 60.7284 69.1357C60.9419 69.4972 60.8791 69.9262 60.5885 70.0937C60.2978 70.2613 59.8923 70.1124 59.6788 69.7509C59.4653 69.3893 59.5281 68.9604 59.8188 68.7928Z" fill="url(#paint37_radial_521_9830)"/>
<path d="M59.8011 68.9372C60.0492 68.7884 60.3933 68.9264 60.5787 69.2312C60.7585 69.5396 60.7084 69.9026 60.4603 70.0514C60.2123 70.2003 59.8682 70.0623 59.6828 69.7574C59.4974 69.4525 59.5531 69.0861 59.8011 68.9372Z" fill="url(#paint38_linear_521_9830)"/>
<path d="M50.8441 65.3124C51.1348 65.1448 51.5403 65.2936 51.7538 65.6552C51.9673 66.0167 51.9045 66.4457 51.6138 66.6133C51.3232 66.7808 50.9177 66.632 50.7042 66.2704C50.4907 65.9089 50.5535 65.4799 50.8441 65.3124Z" fill="url(#paint39_radial_521_9830)"/>
<path d="M50.8226 65.4504C51.0706 65.3015 51.4148 65.4395 51.6002 65.7444C51.78 66.0528 51.7298 66.4157 51.4818 66.5646C51.2338 66.7134 50.8896 66.5754 50.7043 66.2706C50.5189 65.9657 50.5746 65.5992 50.8226 65.4504Z" fill="url(#paint40_linear_521_9830)"/>
<g style="mix-blend-mode:soft-light">
<path d="M46.4848 62.9989L48.4612 61.7468C48.4612 61.7468 47.8581 59.6283 48.9644 56.6835L47.0515 58.0113C47.0515 58.0113 45.8532 60.7494 46.4848 62.9989Z" fill="#00B2FF"/>
</g>
<path d="M48.3668 60.8621C48.4014 61.0886 49.3115 59.3445 49.2238 58.5306C49.1361 57.7168 49.0609 57.1682 48.8604 57.1711C48.6599 57.1739 48.1387 59.4582 48.3668 60.8621Z" fill="white"/>
<path d="M62.7072 67.2613C62.2789 67.7397 62.6613 65.5433 62.832 65.518C63.0026 65.4926 63.093 66.8265 62.7072 67.2613Z" fill="white"/>
<path d="M63.7002 70.1302C63.7002 70.1302 63.658 70.2163 63.847 70.1559C63.4357 69.9582 68.9102 70.4918 68.5073 70.2703C68.5073 70.2703 68.8775 68.8144 67.3055 66.6411C65.7335 64.4679 65.5868 62.4799 64.3693 61.0008C63.7472 60.2377 61.8088 61.5288 62.8357 65.3473C62.8357 65.3473 64.093 68.1954 63.7002 70.1302Z" fill="url(#paint41_linear_521_9830)"/>
<g style="mix-blend-mode:multiply" opacity="0.3">
<path d="M62.9835 67.3532C62.7451 67.4998 63.072 66.0886 63.0809 66.0999C62.2362 62.9989 62.658 62.2782 62.8456 61.7686C62.8633 62.2354 62.8129 62.0079 62.9295 63.577C63.4129 64.9881 63.5097 65.931 63.5097 65.931L62.9835 67.3532Z" fill="#AB2781"/>
</g>
<defs>
<linearGradient id="paint0_linear_521_9830" x1="125" y1="145.269" x2="57.7997" y2="145.269" gradientUnits="userSpaceOnUse">
<stop stop-color="#48365E"/>
<stop offset="1" stop-color="#685763"/>
</linearGradient>
<linearGradient id="paint1_linear_521_9830" x1="82.9396" y1="52.7966" x2="63.8393" y2="7.97231" gradientUnits="userSpaceOnUse">
<stop stop-color="#121936"/>
<stop offset="0.38" stop-color="#1A1F3A"/>
<stop offset="0.97" stop-color="#303146"/>
<stop offset="1" stop-color="#323247"/>
</linearGradient>
<linearGradient id="paint2_linear_521_9830" x1="78.9148" y1="143.867" x2="78.8528" y2="139.609" gradientUnits="userSpaceOnUse">
<stop stop-color="#E5222C"/>
<stop offset="1" stop-color="#801212"/>
</linearGradient>
<linearGradient id="paint3_linear_521_9830" x1="71.4697" y1="88.3693" x2="68.1062" y2="60.442" gradientUnits="userSpaceOnUse">
<stop stop-color="#121936"/>
<stop offset="0.38" stop-color="#1A1F3A"/>
<stop offset="0.97" stop-color="#303146"/>
<stop offset="1" stop-color="#323247"/>
</linearGradient>
<linearGradient id="paint4_linear_521_9830" x1="77.6304" y1="141.035" x2="63.5793" y2="101.442" gradientUnits="userSpaceOnUse">
<stop stop-color="#0E142B"/>
<stop offset="0.43" stop-color="#161A2F"/>
<stop offset="1" stop-color="#29293B"/>
</linearGradient>
<linearGradient id="paint5_linear_521_9830" x1="90.5128" y1="115.749" x2="75.0231" y2="78.5702" gradientUnits="userSpaceOnUse">
<stop stop-color="#0E142B"/>
<stop offset="0.43" stop-color="#161A2F"/>
<stop offset="1" stop-color="#29293B"/>
</linearGradient>
<linearGradient id="paint6_linear_521_9830" x1="102.273" y1="77.4111" x2="92.5391" y2="14.2984" gradientUnits="userSpaceOnUse">
<stop stop-color="#121936"/>
<stop offset="0.38" stop-color="#1A1F3A"/>
<stop offset="0.97" stop-color="#303146"/>
<stop offset="1" stop-color="#323247"/>
</linearGradient>
<linearGradient id="paint7_linear_521_9830" x1="92.4347" y1="56.2537" x2="92.2795" y2="17.584" gradientUnits="userSpaceOnUse">
<stop stop-color="white"/>
<stop offset="1" stop-color="#D91A81"/>
</linearGradient>
<radialGradient id="paint8_radial_521_9830" cx="0" cy="0" r="1" gradientUnits="userSpaceOnUse" gradientTransform="translate(102.475 61.3294) rotate(-8.23497) scale(36.4662 34.4957)">
<stop stop-color="#DC165F"/>
<stop offset="0.38" stop-color="#A91723"/>
<stop offset="1" stop-color="#6B1414"/>
</radialGradient>
<linearGradient id="paint9_linear_521_9830" x1="120.706" y1="66.4304" x2="64.9566" y2="66.6542" gradientUnits="userSpaceOnUse">
<stop stop-color="white"/>
<stop offset="1" stop-color="#D91A81"/>
</linearGradient>
<linearGradient id="paint10_linear_521_9830" x1="88.7718" y1="35.4951" x2="85.4688" y2="15.0295" gradientUnits="userSpaceOnUse">
<stop stop-color="#121936"/>
<stop offset="0.38" stop-color="#1A1F3A"/>
<stop offset="0.97" stop-color="#303146"/>
<stop offset="1" stop-color="#323247"/>
</linearGradient>
<linearGradient id="paint11_linear_521_9830" x1="87.2797" y1="35.1342" x2="87.214" y2="18.7643" gradientUnits="userSpaceOnUse">
<stop stop-color="#D91A81"/>
<stop offset="1" stop-color="white"/>
</linearGradient>
<linearGradient id="paint12_linear_521_9830" x1="108.027" y1="145.673" x2="93.437" y2="101.582" gradientUnits="userSpaceOnUse">
<stop stop-color="#0E142B"/>
<stop offset="0.43" stop-color="#161A2F"/>
<stop offset="1" stop-color="#29293B"/>
</linearGradient>
<linearGradient id="paint13_linear_521_9830" x1="114.484" y1="116.343" x2="102.764" y2="78.0774" gradientUnits="userSpaceOnUse">
<stop stop-color="#0E142B"/>
<stop offset="0.43" stop-color="#161A2F"/>
<stop offset="1" stop-color="#29293B"/>
</linearGradient>
<linearGradient id="paint14_linear_521_9830" x1="102.344" y1="97.4951" x2="97.3183" y2="75.042" gradientUnits="userSpaceOnUse">
<stop stop-color="#781515"/>
<stop offset="1" stop-color="#D90516"/>
</linearGradient>
<linearGradient id="paint15_linear_521_9830" x1="83.8432" y1="93.2414" x2="79.4828" y2="74.4623" gradientUnits="userSpaceOnUse">
<stop stop-color="#781515"/>
<stop offset="1" stop-color="#D90516"/>
</linearGradient>
<linearGradient id="paint16_linear_521_9830" x1="96.7783" y1="118.101" x2="91.5864" y2="98.981" gradientUnits="userSpaceOnUse">
<stop stop-color="#781515"/>
<stop offset="1" stop-color="#D90516"/>
</linearGradient>
<linearGradient id="paint17_linear_521_9830" x1="82.7591" y1="118.134" x2="77.3759" y2="99.6016" gradientUnits="userSpaceOnUse">
<stop stop-color="#781515"/>
<stop offset="1" stop-color="#D90516"/>
</linearGradient>
<linearGradient id="paint18_linear_521_9830" x1="119.29" y1="117.361" x2="115.069" y2="98.878" gradientUnits="userSpaceOnUse">
<stop stop-color="#B5041D"/>
<stop offset="1" stop-color="#C21D38"/>
</linearGradient>
<linearGradient id="paint19_linear_521_9830" x1="62.0817" y1="81.8401" x2="55.3109" y2="60.9181" gradientUnits="userSpaceOnUse">
<stop stop-color="#B5041D"/>
<stop offset="1" stop-color="#C21D38"/>
</linearGradient>
<linearGradient id="paint20_linear_521_9830" x1="85.05" y1="88.7796" x2="81.2328" y2="80.4657" gradientUnits="userSpaceOnUse">
<stop stop-color="#E5222C"/>
<stop offset="1" stop-color="#801212"/>
</linearGradient>
<linearGradient id="paint21_linear_521_9830" x1="114.03" y1="146.671" x2="113.931" y2="141.84" gradientUnits="userSpaceOnUse">
<stop stop-color="#E5222C"/>
<stop offset="1" stop-color="#801212"/>
</linearGradient>
<linearGradient id="paint22_linear_521_9830" x1="70.8026" y1="132.048" x2="75.8456" y2="123.332" gradientUnits="userSpaceOnUse">
<stop stop-color="#DB1F1F"/>
<stop offset="0.99" stop-color="#FF264E"/>
</linearGradient>
<linearGradient id="paint23_linear_521_9830" x1="100.379" y1="134.869" x2="104.444" y2="126.361" gradientUnits="userSpaceOnUse">
<stop stop-color="#DB1F1F"/>
<stop offset="0.99" stop-color="#FF264E"/>
</linearGradient>
<linearGradient id="paint24_linear_521_9830" x1="102.917" y1="124.846" x2="93.8425" y2="122.907" gradientUnits="userSpaceOnUse">
<stop stop-color="#781515"/>
<stop offset="1" stop-color="#D90516"/>
</linearGradient>
<linearGradient id="paint25_linear_521_9830" x1="100.915" y1="124.779" x2="93.9413" y2="123.59" gradientUnits="userSpaceOnUse">
<stop stop-color="#FF2643"/>
<stop offset="1" stop-color="#FF3B3E"/>
</linearGradient>
<linearGradient id="paint26_linear_521_9830" x1="74.9723" y1="121.669" x2="70.0618" y2="121.026" gradientUnits="userSpaceOnUse">
<stop stop-color="#781515"/>
<stop offset="1" stop-color="#D90516"/>
</linearGradient>
<linearGradient id="paint27_linear_521_9830" x1="74.2986" y1="121.773" x2="70.1193" y2="121.314" gradientUnits="userSpaceOnUse">
<stop stop-color="#FF2643"/>
<stop offset="1" stop-color="#FF3B3E"/>
</linearGradient>
<radialGradient id="paint28_radial_521_9830" cx="0" cy="0" r="1" gradientUnits="userSpaceOnUse" gradientTransform="translate(53.6709 64.1582) rotate(-32.2811) scale(7.69592 8.19072)">
<stop stop-color="#0500FF"/>
<stop offset="1" stop-color="#050031"/>
</radialGradient>
<linearGradient id="paint29_linear_521_9830" x1="60.6809" y1="70.8085" x2="50.6693" y2="54.9602" gradientUnits="userSpaceOnUse">
<stop stop-color="#0E0082"/>
<stop offset="1" stop-color="#1400FF"/>
</linearGradient>
<radialGradient id="paint30_radial_521_9830" cx="0" cy="0" r="1" gradientUnits="userSpaceOnUse" gradientTransform="translate(55.6736 62.8852) rotate(-32.2811) scale(5.42198 5.77058)">
<stop stop-color="#001AFF"/>
<stop offset="1" stop-color="#050030"/>
</radialGradient>
<linearGradient id="paint31_linear_521_9830" x1="58.953" y1="68.6154" x2="51.9076" y2="57.4625" gradientUnits="userSpaceOnUse">
<stop stop-color="#0E0082"/>
<stop offset="0.9999" stop-color="#012AFE"/>
<stop offset="1" stop-color="#0500FF"/>
</linearGradient>
<radialGradient id="paint32_radial_521_9830" cx="0" cy="0" r="1" gradientUnits="userSpaceOnUse" gradientTransform="translate(55.6103 63.1478) rotate(29.4838) scale(4.7049 3.96646)">
<stop offset="0.10409" stop-color="#14F1FF"/>
<stop offset="0.978353" stop-color="#13AAFF"/>
</radialGradient>
<radialGradient id="paint33_radial_521_9830" cx="0" cy="0" r="1" gradientUnits="userSpaceOnUse" gradientTransform="translate(61.5968 59.4602) rotate(-120.542) scale(0.755371 0.603358)">
<stop stop-color="#0500FF"/>
<stop offset="1" stop-color="#050030"/>
</radialGradient>
<linearGradient id="paint34_linear_521_9830" x1="61.866" y1="60.0483" x2="61.1642" y2="58.9688" gradientUnits="userSpaceOnUse">
<stop stop-color="#00FFF4"/>
<stop offset="1" stop-color="#30A7FB"/>
</linearGradient>
<radialGradient id="paint35_radial_521_9830" cx="0" cy="0" r="1" gradientUnits="userSpaceOnUse" gradientTransform="translate(52.9738 55.5661) rotate(-120.542) scale(0.755371 0.603358)">
<stop stop-color="#0500FF"/>
<stop offset="1" stop-color="#050030"/>
</radialGradient>
<linearGradient id="paint36_linear_521_9830" x1="53.2704" y1="56.1353" x2="52.565" y2="55.0497" gradientUnits="userSpaceOnUse">
<stop stop-color="#00FFF4"/>
<stop offset="1" stop-color="#30A7FB"/>
</linearGradient>
<radialGradient id="paint37_radial_521_9830" cx="0" cy="0" r="1" gradientUnits="userSpaceOnUse" gradientTransform="translate(61.3312 68.778) rotate(-120.542) scale(0.755371 0.603358)">
<stop stop-color="#0500FF"/>
<stop offset="1" stop-color="#050030"/>
</radialGradient>
<linearGradient id="paint38_linear_521_9830" x1="61.6226" y1="69.3531" x2="60.9208" y2="68.2736" gradientUnits="userSpaceOnUse">
<stop stop-color="#00FFF4"/>
<stop offset="1" stop-color="#30A7FB"/>
</linearGradient>
<radialGradient id="paint39_radial_521_9830" cx="0" cy="0" r="1" gradientUnits="userSpaceOnUse" gradientTransform="translate(52.3566 65.2976) rotate(-120.542) scale(0.755371 0.603358)">
<stop stop-color="#0500FF"/>
<stop offset="1" stop-color="#050030"/>
</radialGradient>
<linearGradient id="paint40_linear_521_9830" x1="52.6761" y1="65.8563" x2="51.9743" y2="64.7768" gradientUnits="userSpaceOnUse">
<stop stop-color="#00FFF4"/>
<stop offset="1" stop-color="#30A7FB"/>
</linearGradient>
<linearGradient id="paint41_linear_521_9830" x1="64.117" y1="86.3685" x2="54.841" y2="61.4971" gradientUnits="userSpaceOnUse">
<stop stop-color="#B5041D"/>
<stop offset="1" stop-color="#C21D38"/>
</linearGradient>
</defs>
</svg>
