<svg width="310" height="363" viewBox="0 0 310 363" fill="none" xmlns="http://www.w3.org/2000/svg">
<g style="mix-blend-mode:multiply">
<path d="M114.95 362.759C178.435 362.759 229.9 355.649 229.9 346.879C229.9 338.109 178.435 330.999 114.95 330.999C51.4649 330.999 0 338.109 0 346.879C0 355.649 51.4649 362.759 114.95 362.759Z" fill="#6B54A1"/>
</g>
<path d="M210.679 186.829C210.329 193.029 205.699 196.399 200.289 197.829H200.269C198.939 198.179 197.549 198.429 196.189 198.549C190.859 199.059 186.189 198.729 182.399 199.149C181.229 199.269 180.139 199.469 179.139 199.779C177.789 200.219 175.179 201.289 171.639 202.409H171.619C167.659 203.649 162.509 204.899 156.619 205.249C154.269 205.369 151.799 205.369 149.239 205.159C146.239 204.929 143.139 204.419 139.949 203.549C121.029 198.349 132.749 178.689 132.749 178.689C134.679 177.899 138.709 177.359 143.399 176.829C151.089 175.949 160.549 175.079 165.409 173.119C169.069 171.629 172.229 170.559 174.629 169.489C176.469 168.699 177.889 167.909 178.759 166.969C179.199 166.509 179.499 166.019 179.669 165.479C180.669 162.329 186.909 158.999 189.549 153.359C192.209 147.719 192.649 147.189 193.859 147.959C195.089 148.749 198.589 152.969 195.189 160.699C195.679 160.509 203.549 157.409 206.349 157.409C209.149 157.409 210.099 162.719 209.889 169.129C209.659 175.559 211.099 179.099 210.659 186.839L210.679 186.829Z" fill="url(#paint0_linear_238_3154)"/>
<path d="M210.679 186.829C210.679 186.939 210.659 187.029 210.659 187.109C210.199 193.139 205.629 196.409 200.289 197.839H200.269C198.939 198.179 197.569 198.429 196.199 198.549C190.859 199.049 186.189 198.729 182.409 199.139C178.759 192.739 176.309 182.219 176.819 174.379V174.329C176.999 171.359 177.639 168.799 178.779 166.969C179.209 166.509 179.509 166.029 179.689 165.479C180.689 162.329 186.929 159.009 189.559 153.369C192.229 147.729 192.669 147.199 193.879 147.959C195.109 148.759 198.579 152.939 195.249 160.609C195.229 160.649 195.229 160.659 195.209 160.699C195.259 160.679 195.419 160.609 195.649 160.519H195.669C195.669 160.519 195.689 160.519 195.709 160.499C197.579 159.789 203.909 157.399 206.369 157.399C209.229 157.399 210.119 162.719 209.909 169.119C209.679 175.559 211.119 179.099 210.669 186.839L210.679 186.829Z" fill="url(#paint1_linear_238_3154)"/>
<g style="mix-blend-mode:multiply" opacity="0.5">
<path d="M174.64 169.489V169.509C174.64 169.509 166.42 195.579 161.55 201.559C160.04 203.419 158.31 204.559 156.63 205.259C154.28 205.379 151.81 205.379 149.25 205.169L143.42 176.839C151.11 175.959 160.57 175.089 165.43 173.129C169.09 171.639 172.25 170.569 174.65 169.499L174.64 169.489Z" fill="#E767A7"/>
</g>
<path d="M108.568 346.569C107.148 346.889 98.5282 348.389 86.5782 352.539C74.6282 356.689 48.0682 353.539 46.6782 352.539C45.4882 351.679 46.3282 346.429 46.6082 344.919C46.6082 344.919 46.6082 344.889 46.6282 344.809C46.6582 344.619 46.6782 344.509 46.6782 344.509L51.7082 343.879L84.5282 339.759L108.898 336.689C108.898 336.689 108.898 336.739 108.918 336.849C108.918 336.899 108.938 336.959 108.938 337.029C108.938 337.059 108.938 337.119 108.958 337.189C108.958 337.259 108.978 337.349 108.978 337.439C108.978 337.489 108.978 337.549 108.998 337.599C109.228 339.979 109.738 346.309 108.578 346.569H108.568Z" fill="url(#paint2_linear_238_3154)"/>
<path d="M200.068 344.289C199.678 344.889 197.088 345.969 192.988 347.009C192.988 347.009 192.938 347.009 192.848 347.029C187.418 348.409 179.388 349.679 170.368 349.609C154.388 349.499 151.918 346.739 147.508 346.579C143.078 346.399 129.458 346.069 129.028 344.529C128.698 343.339 129.488 340.099 129.768 338.379C129.878 337.849 129.908 337.469 129.858 337.329L130.508 337.309L152.498 336.449L197.648 334.679L199.138 334.629C199.138 334.629 199.188 334.979 199.278 335.559C199.648 337.869 200.488 343.669 200.088 344.299L200.068 344.289Z" fill="url(#paint3_linear_238_3154)"/>
<path d="M199.12 334.619C198.3 336.269 194.48 339.089 182.69 341.419C170.9 343.749 151.49 342.909 147.67 341.419C143.85 339.929 130.9 338.929 130.08 337.929C129.24 336.929 130.24 330.619 130.08 327.469C130.03 326.449 129.78 324.789 129.31 322.739C128.35 318.499 126.42 312.609 123.27 307.549C118.63 300.089 112.99 292.959 111.83 290.429C111.72 290.179 111.6 289.819 111.48 289.309C110.29 284.469 108.59 268.719 108.59 268.719C108.59 268.719 140.32 240.059 139.88 245.749C139.69 248.239 141.35 253.969 144.1 260.359C144.22 260.659 144.36 260.959 144.49 261.249C148.05 269.259 153.23 278.119 158.63 282.979C168.6 291.949 174.91 305.719 181.71 311.699C188.53 317.669 199.97 332.949 199.14 334.619H199.12Z" fill="url(#paint4_linear_238_3154)"/>
<path d="M112.41 281.879C112.29 284.249 111.88 286.309 111.36 288.189C111.22 288.609 111.1 289.009 110.97 289.399C110.95 289.429 110.95 289.469 110.93 289.489V289.509C109.37 294.149 107.11 297.659 106.87 301.769C106.85 301.929 106.83 302.089 106.83 302.239C106.81 302.869 106.83 303.729 106.88 304.749C106.9 304.779 106.9 304.839 106.9 304.889C107.36 314.039 110.12 336.129 108.56 337.779C106.81 339.599 96.4699 340.989 84.2899 344.529C72.1299 348.069 46.6699 346.299 46.6699 344.529C46.6699 342.759 47.5499 336.559 52.6399 327.479C57.7199 318.399 57.7199 321.299 58.8399 312.429C59.9399 303.579 65.2499 289.429 65.6899 276.349C65.8799 270.379 66.3699 262.119 67.5499 254.449C68.0099 251.649 68.5299 248.909 69.1599 246.409C69.5299 244.969 69.9299 243.589 70.3899 242.329C70.5799 241.769 70.7899 241.229 70.9999 240.719C72.1899 237.789 73.6499 235.519 75.4299 234.309C75.4299 234.309 112.84 272.609 112.38 281.899L112.41 281.879Z" fill="url(#paint5_linear_238_3154)"/>
<path d="M99.6299 181.439C95.3699 182.299 98.0299 201.669 92.0499 214.109C86.0699 226.559 79.4299 227.439 75.4499 234.299C71.4699 241.159 97.7999 276.129 111.75 278.779C125.69 281.439 140.3 258.419 140.3 240.049C140.3 221.679 143.4 215.709 141.41 201.539C139.42 187.379 135.43 180.959 131.01 178.299C126.58 175.639 99.6399 181.429 99.6399 181.429L99.6299 181.439Z" fill="url(#paint6_linear_238_3154)"/>
<path d="M134.338 223.819C132.868 223.819 131.568 222.889 130.748 221.189C128.498 216.529 129.198 201.909 131.918 196.739C132.558 195.519 133.328 194.839 134.188 194.709C135.398 194.529 136.548 194.859 137.558 195.669C139.698 197.399 140.998 201.119 141.318 206.449C141.968 217.039 138.638 222.819 135.268 223.699C134.948 223.779 134.638 223.819 134.328 223.819H134.338ZM134.458 196.439C134.248 196.469 133.878 196.779 133.478 197.559C131.038 202.179 130.328 216.289 132.328 220.429C132.688 221.169 133.478 222.359 134.838 222.009C136.998 221.439 140.208 216.749 139.578 206.559C139.188 200.149 137.458 197.839 136.468 197.039C135.848 196.539 135.168 196.339 134.468 196.449L134.458 196.439Z" fill="url(#paint7_linear_238_3154)"/>
<path d="M111.378 288.329C111.188 288.859 111.048 289.219 110.978 289.399C110.958 289.429 110.958 289.469 110.938 289.489C110.518 288.769 101.388 273.069 87.2681 258.599C75.7881 246.839 71.6381 243.289 70.4081 242.319C70.0881 242.059 69.9681 241.989 69.9681 241.989L69.1781 246.409C68.2481 244.429 67.8281 242.419 67.8281 240.519C67.8481 232.739 74.8381 226.639 82.6481 231.089C92.3681 236.629 109.978 271.699 112.418 275.799C114.328 279.009 112.308 285.629 111.368 288.329H111.378Z" fill="url(#paint8_linear_238_3154)"/>
<g style="mix-blend-mode:multiply" opacity="0.5">
<path d="M97.4883 181.029C101.268 181.559 104.508 204.869 124.098 209.629C143.688 214.389 139.608 192.589 139.568 185.509C139.528 178.429 136.368 176.239 136.368 176.239C136.368 176.239 133.988 179.089 125.698 181.749C117.398 184.409 97.4883 181.039 97.4883 181.039V181.029Z" fill="#E767A7"/>
</g>
<path d="M78.8898 213.939C78.4498 214.309 78.9398 215.669 79.3098 216.529C79.4998 216.969 79.6598 217.269 79.6598 217.269C79.6598 217.269 84.8798 215.799 89.9398 218.369C94.9998 220.949 96.8598 222.149 96.6998 223.569C96.5198 224.969 93.8798 226.459 91.9698 225.879C90.0598 225.299 89.1498 225.629 89.1498 225.629C94.8998 228.499 99.7298 237.259 96.3698 242.639C90.5498 251.939 68.9798 246.299 61.8398 240.149C59.9698 238.539 57.6898 236.089 55.3398 233.229C53.5698 231.089 51.7698 228.729 50.0698 226.329C50.0698 226.329 50.0698 226.309 50.0498 226.289C45.4098 219.749 41.5898 212.989 41.5898 209.939C41.5898 204.299 44.7398 198.989 56.6898 194.989C64.9098 192.259 79.3398 185.559 89.4498 182.529C94.0798 181.149 97.7898 180.529 99.6298 181.409C106.66 184.759 103.55 206.059 95.3698 209.709C95.1198 209.819 94.8598 209.939 94.6198 210.029C86.7198 213.379 79.5298 213.389 78.8898 213.919V213.939Z" fill="url(#paint9_linear_238_3154)"/>
<path d="M189.539 126.329C189.309 127.239 189.049 128.119 188.769 128.959C188.449 129.889 188.069 130.829 187.609 131.759C178.479 150.669 141.949 171.659 130.559 180.289C130.559 180.289 123.339 186.719 106.569 182.449H106.549C106.549 182.449 106.499 182.409 106.459 182.409C105.649 182.219 104.829 181.989 103.989 181.729C103.989 181.729 70.3493 180.079 56.6293 171.449C53.7593 169.649 50.1293 166.319 46.2793 161.899H46.2593C41.2693 156.209 35.8693 148.669 31.1393 140.229C31.1193 140.189 31.0993 140.179 31.0993 140.179C21.9893 123.899 15.3793 104.209 19.0093 87.4591C25.9993 55.2491 66.8193 24.7091 106.329 22.0691C133.239 20.2491 154.339 26.0491 167.369 33.8991C173.479 37.5791 177.809 41.7091 180.139 45.7391C187.169 57.8591 195.399 103.559 189.529 126.339L189.539 126.329Z" fill="url(#paint10_linear_238_3154)"/>
<path d="M27.1795 103.589C18.3295 99.9189 27.9395 136.969 39.7795 149.499C51.6095 162.039 59.3095 162.899 61.8095 162.219C64.3095 161.539 58.7295 116.659 27.1795 103.579V103.589Z" fill="url(#paint11_linear_238_3154)"/>
<path d="M34.4689 107.449C34.4689 107.449 25.3189 117.769 39.8889 138.799C54.4589 159.839 62.0389 155.759 62.0389 155.759C62.0389 155.759 58.3989 121.519 34.4689 107.449Z" fill="url(#paint12_linear_238_3154)"/>
<g style="mix-blend-mode:multiply" opacity="0.5">
<path d="M106.468 182.419C105.658 182.229 104.838 181.999 103.998 181.739C103.998 181.739 70.3584 180.089 56.6384 171.459C53.7684 169.659 50.1384 166.329 46.2884 161.909H46.2684C41.2784 156.219 35.8784 148.679 31.1484 140.239C32.0384 141.239 46.2884 157.339 57.5384 162.399C68.7884 167.479 104.268 181.549 106.478 182.429L106.468 182.419Z" fill="#AB2781"/>
</g>
<path d="M33.0285 114.109C34.6385 108.829 53.5785 129.899 56.5685 150.409C56.5685 150.409 22.8285 147.589 33.0285 114.109Z" fill="url(#paint13_linear_238_3154)"/>
<path d="M31.9393 127.189C33.2693 121.809 41.9893 135.049 41.3093 143.139C41.0593 146.089 29.4593 137.209 31.9393 127.189Z" fill="#881A1A"/>
<path d="M105.939 207.749C105.869 207.869 105.819 207.999 105.749 208.119C105.749 208.139 105.729 208.159 105.729 208.169C105.329 208.909 104.919 209.619 104.499 210.309C104.499 210.329 104.469 210.339 104.449 210.359C101.699 214.829 98.4586 217.749 95.8986 218.029C89.9986 218.699 90.0486 211.669 90.0486 211.669C90.0486 211.669 94.2186 213.109 95.7086 201.319C97.1986 189.549 89.4386 182.559 89.4386 182.559L87.0586 183.309C87.9686 181.699 89.2186 180.329 90.6686 179.229C97.6986 173.919 109.499 175.059 110.309 187.609C110.799 194.969 108.799 202.189 105.949 207.759L105.939 207.749Z" fill="url(#paint14_linear_238_3154)"/>
<path d="M141.979 214.309C141.979 214.309 142.589 202.099 139.609 192.529C136.649 182.959 131.529 179.579 131.529 179.579L139.119 174.319C139.119 174.319 143.819 174.019 147.579 178.419L147.599 178.439C149.679 180.889 151.489 184.799 152.029 191.039C153.519 208.469 141.969 214.309 141.969 214.309H141.979Z" fill="url(#paint15_linear_238_3154)"/>
<g style="mix-blend-mode:multiply" opacity="0.3">
<path d="M140.449 233.289C140.449 233.289 136.909 256.409 120.049 260.859C105.019 264.819 93.4085 238.699 85.4785 233.289C85.4785 233.289 108.809 265.749 112.959 280.259C112.959 280.259 129.459 271.699 135.099 258.749C140.739 245.799 140.329 236.939 140.329 236.939L140.449 233.289Z" fill="#C72781"/>
</g>
<path d="M140.33 236.949C140.33 236.949 147.33 243.989 144.17 260.089C141.02 276.189 117.53 289.229 110.93 289.509C110.93 289.509 112.59 280.429 113.44 278.969C114.29 277.509 126.41 270.539 132.55 260.909C138.69 251.279 140.33 236.939 140.33 236.939V236.949Z" fill="url(#paint16_linear_238_3154)"/>
<path d="M73.3191 307.589C60.6891 304.369 65.7291 282.289 71.7391 276.829C77.7491 271.369 86.9991 276.769 88.7891 290.289C90.5791 303.809 77.3991 308.629 73.3191 307.589Z" fill="url(#paint17_linear_238_3154)"/>
<path d="M153.159 275.229C147.139 271.799 147.909 286.729 154.309 295.059C160.509 303.129 168.509 301.359 171.069 299.699C173.629 298.039 162.729 280.669 153.159 275.219V275.229Z" fill="url(#paint18_linear_238_3154)"/>
<path d="M69.2383 301.619C65.1283 296.089 66.3583 280.339 73.7783 276.809C81.1883 273.279 84.8283 283.129 85.0683 289.829C85.4483 300.539 75.4083 309.919 69.2483 301.629L69.2383 301.619Z" fill="url(#paint19_linear_238_3154)"/>
<path d="M152.078 274.739C149.038 275.189 150.088 287.189 155.598 293.419C161.108 299.659 168.858 299.459 170.358 297.849C171.858 296.249 166.668 288.059 162.598 282.819C158.538 277.579 153.418 274.529 152.078 274.729V274.739Z" fill="url(#paint20_linear_238_3154)"/>
<path style="mix-blend-mode:multiply" opacity="0.5" d="M189.54 126.329L177.49 131.759L54.4799 115.679C54.4799 115.679 42.6399 97.9089 44.3699 76.4989C46.1199 55.0889 63.1899 42.5289 73.4699 40.8689C83.7699 39.2089 115.74 46.1689 133.67 44.1889C151.59 42.1889 156.38 32.3489 167.38 33.8889C173.49 37.5689 177.82 41.6989 180.15 45.7289C187.18 57.8489 195.41 103.549 189.54 126.329Z" fill="url(#paint21_linear_238_3154)"/>
<g style="mix-blend-mode:multiply" opacity="0.5">
<path d="M90.3086 213.689C90.3086 213.689 98.1986 216.899 103.539 211.769C103.539 211.769 99.6986 226.309 94.1386 233.299C85.8786 243.679 79.5586 234.859 79.5586 234.859C79.5586 234.859 87.7186 223.479 91.1286 215.809L90.3186 213.689H90.3086Z" fill="#AB2781"/>
</g>
<path d="M186.068 118.799C185.228 121.269 184.208 123.639 183.018 125.859C182.088 127.579 180.988 129.209 179.688 130.749L179.668 130.789C160.378 153.939 103.588 156.979 86.0681 149.099C78.2681 145.599 68.8081 136.779 60.9781 125.939C60.9381 125.889 60.9081 125.849 60.8881 125.799C54.0681 116.319 48.5181 105.279 46.4481 94.8789C42.0281 72.5389 54.4181 48.6189 70.0681 44.8789C85.6981 41.1089 107.548 51.7289 128.118 52.3989C148.708 53.0689 153.238 42.2589 157.118 40.3489C159.868 38.9789 164.788 35.3889 174.168 43.3289C184.558 52.1589 195.388 91.7389 186.068 118.829V118.799Z" fill="url(#paint22_radial_238_3154)"/>
<path style="mix-blend-mode:multiply" opacity="0.5" d="M187.609 131.759C178.479 150.669 141.949 171.659 130.559 180.289C130.559 180.289 122.609 187.369 103.999 181.729C103.999 181.729 70.3591 180.079 56.6391 171.449C53.7691 169.649 50.1391 166.319 46.2891 161.899C54.7691 163.419 78.8391 166.999 107.769 164.459C146.719 161.039 171.279 152.999 187.609 131.769V131.759Z" fill="url(#paint23_linear_238_3154)"/>
<g style="mix-blend-mode:multiply" opacity="0.8">
<path d="M31.1097 125.479C31.1097 125.479 29.9697 117.669 37.9397 118.499C45.9097 119.329 59.7497 144.629 59.7497 144.629C59.7497 144.629 56.6497 129.459 45.5497 117.339C34.4497 105.219 27.8697 102.409 24.4297 104.379C20.9897 106.349 26.2397 124.079 27.3597 125.939C28.4797 127.799 31.5897 130.889 31.5897 130.889L31.1097 125.479Z" fill="#2927AB"/>
</g>
<path d="M37.5791 141.449C31.0591 137.019 16.6191 122.179 9.52909 92.479C7.17909 82.689 5.63909 71.259 5.44909 58.069C4.64909 4.88896 24.7191 -8.12104 22.7891 4.41896C22.7891 4.41896 22.7691 4.46896 22.7491 4.59896C16.4391 46.119 17.3891 110.019 24.9091 118.819C32.4391 127.629 32.6391 126.349 32.6391 126.349C39.1591 131.309 41.1891 144.589 37.5791 141.449Z" fill="url(#paint24_linear_238_3154)"/>
<g style="mix-blend-mode:multiply" opacity="0.3">
<path d="M37.5793 141.449C31.0593 137.019 16.6193 122.179 9.5293 92.4789C13.3093 99.6589 16.2093 98.0889 16.3593 64.0389C16.5293 31.6089 22.2093 6.82887 22.7593 4.58887C16.4493 46.1089 17.3993 110.009 24.9193 118.809C32.4493 127.619 32.6493 126.339 32.6493 126.339C39.1693 131.299 41.1993 144.579 37.5893 141.439L37.5793 141.449Z" fill="#AB2781"/>
</g>
<g style="mix-blend-mode:multiply">
<path d="M68.8086 247.989C76.9486 248.299 80.6486 252.129 87.2686 258.599C93.8886 265.069 97.5486 250.879 95.7586 246.059C93.9686 241.249 69.9786 241.079 69.9786 241.079L68.8086 247.989Z" fill="#AB2781"/>
</g>
<g style="mix-blend-mode:multiply" opacity="0.5">
<path d="M139.429 180.419C139.429 180.419 143.039 202.369 141.989 214.309C141.989 214.309 142.599 202.099 139.619 192.529C136.659 182.959 131.539 179.579 131.539 179.579L139.129 174.319C139.129 174.319 143.829 174.019 147.589 178.419C147.189 178.279 141.019 176.039 139.429 180.419Z" fill="#AB2781"/>
</g>
<g style="mix-blend-mode:multiply" opacity="0.5">
<path d="M104.449 210.359C101.699 214.829 98.4586 217.749 95.8986 218.029C89.9986 218.699 90.0486 211.669 90.0486 211.669C90.0486 211.669 94.2186 213.109 95.7086 201.319C97.1986 189.549 89.4386 182.559 89.4386 182.559L87.0586 183.309C87.9686 181.699 89.2186 180.329 90.6686 179.229C91.6286 179.619 95.9086 181.999 97.4886 194.319C99.2786 208.209 96.6286 210.789 96.4586 212.279C96.3386 213.519 101.769 213.279 104.469 210.369L104.449 210.359Z" fill="#AB2781"/>
</g>
<g style="mix-blend-mode:multiply" opacity="0.5">
<path d="M105.94 207.749C105.87 207.869 105.82 207.999 105.75 208.119C106.12 206.839 106.14 206.889 105.94 207.749Z" fill="#AB2781"/>
</g>
<g style="mix-blend-mode:multiply" opacity="0.5">
<path d="M94.6296 210.049C86.7296 213.399 79.5396 213.409 78.8996 213.939C78.8996 213.939 83.1396 202.559 75.0596 195.019C66.9796 187.499 46.9796 200.959 45.5696 207.129C44.1996 213.119 49.7496 225.519 50.0596 226.309C45.4196 219.769 41.5996 213.009 41.5996 209.959C41.5996 204.319 44.7496 199.009 56.6996 195.009C64.9196 192.279 79.3496 185.579 89.4596 182.549C89.9196 182.669 96.2196 184.529 96.9196 196.109C97.3796 203.569 96.0296 207.779 94.6196 210.039L94.6296 210.049Z" fill="#E767A7"/>
</g>
<path d="M130.08 328.799C130.08 328.799 159.79 300.409 179.54 309.539C179.54 309.539 156.46 300.909 129.77 334.609L130.09 328.799H130.08Z" fill="url(#paint25_linear_238_3154)"/>
<path d="M58.4395 315.539C58.4395 315.539 85.0395 302.749 109.299 331.129L109.039 334.619C109.039 334.619 93.3795 305.929 58.4395 315.539Z" fill="url(#paint26_linear_238_3154)"/>
<g style="mix-blend-mode:multiply" opacity="0.5">
<path d="M132.559 295.159C130.149 307.729 129.299 322.739 129.299 322.739C128.339 318.499 126.409 312.609 123.259 307.549C118.619 300.089 112.979 292.959 111.819 290.429C111.709 290.179 111.589 289.819 111.469 289.309C136.329 280.249 143.239 262.779 144.089 260.369C144.139 260.189 144.179 260.089 144.179 260.089C144.179 260.089 144.469 260.469 144.479 261.259C144.539 265.289 135.659 278.999 132.559 295.159Z" fill="#C72781"/>
</g>
<g style="mix-blend-mode:multiply" opacity="0.5">
<path d="M106.889 304.749C106.889 304.749 106.909 304.839 106.909 304.889L106.889 304.929V304.749Z" fill="#AB2781"/>
</g>
<g style="mix-blend-mode:multiply" opacity="0.5">
<path d="M111.378 288.329C111.188 288.859 111.048 289.219 110.978 289.399C110.958 289.429 110.958 289.469 110.938 289.489V289.509C109.378 294.149 107.118 297.659 106.878 301.769C106.558 295.809 101.838 277.919 90.5381 263.629C75.4381 244.549 67.5981 254.469 67.5981 254.469L67.5781 254.449C68.0381 251.649 68.5581 248.909 69.1881 246.409C68.2581 244.429 67.8381 242.419 67.8381 240.519C68.7681 240.399 69.8181 240.429 71.0281 240.709C75.7981 241.799 80.3581 247.109 92.1681 260.089C105.628 274.879 110.868 284.859 111.358 288.189C111.358 288.239 111.358 288.299 111.378 288.329Z" fill="#AB2781"/>
</g>
<path d="M96.7298 242.019L96.7098 242.039C96.7098 242.039 96.6798 242.089 96.6398 242.149C94.1698 246.059 90.8198 248.349 83.7098 248.349C75.7198 248.349 65.9398 243.689 61.8398 240.169C59.9698 238.559 57.6898 236.109 55.3398 233.249C55.3898 232.929 55.4498 232.619 55.4998 232.299C58.8498 214.619 79.3098 216.529 79.3098 216.529C79.4998 216.969 79.6598 217.269 79.6598 217.269C79.6598 217.269 80.0098 217.159 80.6098 217.079C82.3298 216.779 86.6298 215.829 90.3998 217.739C95.4598 220.319 96.8698 222.159 96.7098 223.579C96.5298 224.979 93.8898 226.469 91.9798 225.889C90.0698 225.309 89.1598 225.639 89.1598 225.639C94.6398 229.579 100.09 236.639 96.7298 242.019Z" fill="url(#paint27_linear_238_3154)"/>
<g style="mix-blend-mode:multiply" opacity="0.2">
<path d="M108.569 346.569C107.149 346.889 98.5294 348.389 86.5794 352.539C74.6294 356.689 48.0694 353.539 46.6794 352.539C46.6794 352.539 62.8294 354.519 72.2094 353.699C81.5994 352.879 82.8494 351.969 83.4194 351.119C83.9994 350.299 81.1794 347.389 80.1794 346.559C79.1794 345.719 71.0494 348.209 61.1694 347.469C51.3094 346.719 46.6094 344.909 46.6094 344.909C46.6094 344.909 46.6094 344.879 46.6294 344.799C46.6594 344.309 46.8794 342.309 47.0894 341.399C47.0894 341.399 48.3694 342.699 51.7194 343.869C55.1494 345.099 60.7594 346.179 69.3994 345.639C76.6694 345.179 81.1594 342.699 84.5394 339.749C89.0994 335.809 91.6394 331.079 96.2094 329.359C104.179 326.379 108.909 336.679 108.909 336.679C108.909 336.679 108.909 336.729 108.929 336.839C108.929 336.889 108.929 336.949 108.949 337.019C108.949 337.049 108.949 337.109 108.969 337.179C108.969 337.249 108.969 337.339 108.989 337.429C108.989 337.479 108.989 337.539 109.009 337.589C109.169 339.779 109.499 345.279 108.589 346.559L108.569 346.569Z" fill="#C22781"/>
</g>
<g style="mix-blend-mode:multiply" opacity="0.2">
<path d="M163.529 348.289C170.289 350.289 190.879 347.329 192.839 347.029C187.409 348.409 179.379 349.679 170.359 349.609C154.379 349.499 151.909 346.739 147.499 346.579C143.069 346.399 129.449 346.069 129.019 344.529C128.689 343.339 129.479 340.099 129.759 338.379L130.079 337.939C130.079 337.939 130.219 337.689 130.499 337.309C131.729 335.559 135.519 329.809 141.869 330.799C146.019 331.449 148.999 334.469 152.489 336.449C155.519 338.169 159.079 339.869 164.559 340.649C175.159 342.159 192.819 339.339 197.639 334.679C198.179 334.169 198.549 333.629 198.739 333.069C198.739 333.069 199.369 333.529 199.269 335.559C199.269 335.559 189.339 343.639 168.539 343.429C147.729 343.199 156.469 346.199 163.549 348.299L163.529 348.289Z" fill="#C22781"/>
</g>
<g style="mix-blend-mode:multiply" opacity="0.5">
<path d="M132.279 326.819C132.279 326.819 143.509 314.539 156.629 308.549C169.749 302.559 179.539 309.539 179.539 309.539C179.539 309.539 158.899 303.809 132.279 326.819Z" fill="#D14894"/>
</g>
<g style="mix-blend-mode:multiply" opacity="0.5">
<path d="M58.4395 315.539C58.4395 315.539 59.7495 308.699 77.8995 311.459C96.0495 314.229 109.299 331.129 109.299 331.129C109.299 331.129 83.5795 304.259 58.4395 315.539Z" fill="#D14894"/>
</g>
<g style="mix-blend-mode:multiply" opacity="0.5">
<path d="M186.07 118.799L179.73 130.659C180.83 128.189 198.74 86.5589 155.59 82.7389C111.21 78.8289 46.5596 105.819 60.9096 125.789C54.0896 116.309 48.5396 105.269 46.4696 94.8689C42.0496 72.5289 54.4396 48.6089 70.0896 44.8689C85.7196 41.0989 107.57 51.7189 128.14 52.3889C148.73 53.0589 153.26 42.2489 157.14 40.3389C159.89 38.9689 164.81 35.3789 174.19 43.3189C184.58 52.1489 195.41 91.7289 186.09 118.819L186.07 118.799Z" fill="#AB2781"/>
</g>
<g style="mix-blend-mode:multiply" opacity="0.8">
<path d="M195.678 160.509C195.678 160.509 190.918 163.569 189.618 168.419C188.318 173.269 188.298 183.089 192.138 188.269C195.618 192.959 203.808 190.189 203.808 190.189L208.288 190.779C208.288 190.779 203.638 190.839 202.868 191.489C202.098 192.139 203.758 195.529 203.758 195.529C203.758 195.529 200.608 194.209 199.778 192.429C198.948 190.649 190.788 200.749 186.698 188.379C182.608 176.009 189.088 161.289 195.678 160.499V160.509Z" fill="#AB2781"/>
</g>
<g style="mix-blend-mode:multiply" opacity="0.5">
<path d="M96.7084 223.569C96.5284 224.969 93.8884 226.459 91.9784 225.879C90.0684 225.299 89.1584 225.629 89.1584 225.629C85.0284 223.169 86.1784 216.449 89.9484 218.359C95.0084 220.939 96.8684 222.139 96.7084 223.559V223.569Z" fill="#AB2781"/>
</g>
<g style="mix-blend-mode:multiply" opacity="0.5">
<path d="M196.2 151.449C191.76 148.999 189.89 160.789 190.49 162.039C191.09 163.279 195.22 160.689 195.22 160.689C195.22 160.689 197.71 155.139 196.2 151.449Z" fill="#AB2781"/>
</g>
<g style="mix-blend-mode:multiply" opacity="0.5">
<path d="M200.278 197.839C198.948 198.189 197.558 198.439 196.198 198.559C190.868 199.069 186.198 198.739 182.408 199.159C181.238 199.279 180.148 199.479 179.148 199.789C177.798 200.229 175.188 201.299 171.648 202.419C171.998 202.169 177.498 200.369 178.658 198.429C180.148 195.939 175.378 184.699 176.828 174.379C176.898 175.409 177.918 188.999 181.438 193.269C185.798 198.559 199.678 197.819 200.278 197.839Z" fill="#AB2781"/>
</g>
<g style="mix-blend-mode:multiply" opacity="0.5">
<path d="M96.6398 242.149C94.1698 246.059 90.8198 248.349 83.7098 248.349C75.7198 248.349 65.9398 243.689 61.8398 240.169C59.9698 238.559 57.6898 236.109 55.3398 233.249C55.3898 232.929 55.4498 232.619 55.4998 232.299C60.8798 237.289 69.6198 245.069 78.4398 245.699C93.8798 246.809 95.9498 242.989 96.6398 242.149Z" fill="#AB2781"/>
</g>
<g style="mix-blend-mode:multiply" opacity="0.5">
<path d="M110.969 289.399C110.969 289.399 119.509 302.169 125.669 300.749C131.829 299.329 140.449 268.469 140.449 268.469C140.449 268.469 126.069 285.679 110.969 289.399Z" fill="#AB2781"/>
</g>
<g style="mix-blend-mode:soft-light" opacity="0.5">
<path d="M123.04 272.699C116.34 278.939 131.23 279.839 138.97 268.469C146.72 257.099 141.96 250.459 141.18 250.019C140.41 249.579 132.66 263.739 123.03 272.709L123.04 272.699Z" fill="white"/>
</g>
<g style="mix-blend-mode:soft-light" opacity="0.5">
<path d="M97.6488 256.889C93.8188 255.329 102.479 269.819 106.059 276.409C108.559 281.019 112.399 281.879 112.399 281.879C112.399 281.879 110.739 262.229 97.6388 256.889H97.6488Z" fill="white"/>
</g>
<g style="mix-blend-mode:soft-light">
<path d="M140.789 322.739C136.139 327.259 153.569 340.029 170.369 340.139C187.169 340.259 192.979 334.079 193.979 331.439C194.979 328.799 186.179 311.209 173.229 309.709C160.279 308.219 140.789 322.739 140.789 322.739Z" fill="white"/>
</g>
<g style="mix-blend-mode:soft-light">
<path d="M52.5491 343.409C41.4291 340.089 56.1291 321.869 62.8391 317.349C69.5491 312.829 90.3391 316.329 95.7491 322.739C95.7491 322.739 93.4491 333.559 77.8991 340.139C62.3391 346.729 52.5491 343.409 52.5491 343.409Z" fill="white"/>
</g>
<g style="mix-blend-mode:soft-light" opacity="0.5">
<path d="M96.2885 181.819C95.1885 182.519 100.358 197.019 100.188 202.409C100.018 207.799 110.308 198.119 109.398 189.819C108.318 179.939 97.8285 180.849 96.2885 181.819Z" fill="white"/>
</g>
<path d="M137.589 78.169C110.059 78.749 96.2793 50.519 104.769 36.679C105.729 35.099 106.999 33.719 108.549 32.579C122.149 22.679 142.489 26.449 151.549 36.419C154.129 39.259 156.179 42.899 157.489 46.879C161.989 60.479 157.999 77.749 137.589 78.169Z" fill="url(#paint28_linear_238_3154)"/>
<path d="M137.209 62.8791C122.399 63.2091 113.649 46.4791 118.559 38.5391C119.109 37.6491 119.839 36.8891 120.749 36.2991C128.459 31.3091 139.419 34.8091 143.999 40.7891C145.259 42.4391 146.249 44.4691 146.879 46.6291C148.989 53.8491 147.129 62.6791 137.209 62.8891V62.8791Z" fill="#36ACE3"/>
<path d="M136.708 62.8789C124.058 63.1589 116.728 49.0089 120.858 42.2489C121.318 41.4889 121.938 40.8389 122.708 40.3289C129.238 35.9989 138.598 38.8089 142.558 43.8689C143.648 45.2689 144.518 47.0089 145.068 48.8589C146.918 55.0689 145.318 62.6989 136.718 62.8889L136.708 62.8789Z" fill="#75E4FF"/>
<path d="M137.591 58.5831C137.078 58.8211 136.506 58.9999 135.908 59.0314C139.791 58.1032 140.82 53.9022 140.82 53.9022C139.052 56.4941 135.058 59.1063 131.121 56.8772C126.043 54.0012 126.18 49.4171 127.759 47.4095C129.928 44.6497 135.512 45.7497 136.252 50.466C135.552 47.8881 132.112 45.6122 129.601 46.9456C127.095 48.2764 127.199 51.2896 128.025 53.609C128.025 53.609 127.919 52.8353 127.961 51.8469C128.136 52.6396 128.664 54.2057 129.996 55.2923C131.519 56.5351 133.181 56.959 134.461 56.8839C138.179 56.6671 140.419 53.1112 140.419 53.1112C138.928 54.8757 136.085 56.2689 133.639 55.9031C132.676 55.7589 131.508 55.2545 130.697 54.5617C130.039 54.0007 129.529 53.2623 129.218 52.4823C128.918 51.7312 128.735 50.7777 129.039 49.9746C129.419 48.9711 130.51 48.2022 131.988 48.4546C133.092 48.6433 133.93 49.4883 134.505 50.5435C133.703 49.6051 132.42 49.1141 131.397 49.3536C130.374 49.5931 129.532 50.5325 129.704 51.6683C130.078 54.147 133.04 55.5498 135.255 55.2237C136.935 54.9765 138.731 54.0012 139.661 52.7356C141.707 49.948 140.521 46.7139 139.787 45.4096C139.787 45.4096 140.715 48.0636 140.156 49.8943C140.406 46.3085 138.384 42.2518 133.792 40.2506C133.792 40.2506 136.339 41.7267 137.869 44.3372C133.08 38.8009 126.277 39.89 124.271 43.5979C124.271 43.5979 126.02 41.3646 128.686 41.3798C125.003 42.4406 122.638 46.3409 122.958 50.8994C122.958 50.8994 123.62 44.6917 128.3 43.258C130.981 42.4371 133.411 43.2068 135.365 44.6178C135.868 44.9811 136.245 45.3846 136.55 45.7624C134.164 43.7077 130.219 42.617 127.585 44.1658C125.558 45.2056 124.221 47.1556 123.911 49.6938C123.671 51.6688 124.218 53.9735 125.316 55.9308C126.047 57.2336 127.029 58.2405 128.059 59.3186C128.059 59.3186 126.177 57.3506 125.658 55.5522C127.597 58.9862 131.461 61.8107 136.059 61.4878C136.059 61.4878 133.729 61.3967 131.47 60.082C136.599 61.7053 143.05 58.5943 142.745 50.8344C142.745 50.8344 141.802 56.6298 137.592 58.5835L137.591 58.5831ZM136.043 52.2969C136.108 52.4026 136.086 52.5264 135.993 52.5726L135.878 52.6298C135.786 52.676 135.763 52.7997 135.829 52.9054L136.033 53.2362C136.098 53.3419 136.076 53.4656 135.983 53.5119C135.89 53.5581 135.762 53.5096 135.696 53.4039L135.492 53.0731C135.427 52.9674 135.298 52.9189 135.206 52.9652L135.091 53.0223C134.998 53.0686 134.87 53.0201 134.805 52.9144C134.739 52.8086 134.762 52.6849 134.854 52.6387L134.969 52.5815C135.062 52.5353 135.084 52.4116 135.019 52.3058L134.815 51.9751C134.749 51.8693 134.772 51.7456 134.864 51.6994C134.957 51.6532 135.086 51.7016 135.151 51.8074L135.355 52.1382C135.42 52.2439 135.549 52.2923 135.642 52.2461L135.756 52.1889C135.849 52.1427 135.978 52.1912 136.043 52.2969ZM137.827 52.9416C137.85 52.9789 137.842 53.0217 137.81 53.038L137.77 53.0579C137.737 53.0742 137.73 53.1171 137.753 53.1543L137.824 53.2696C137.847 53.3068 137.839 53.3497 137.806 53.366C137.774 53.3823 137.729 53.3655 137.706 53.3282L137.635 53.213C137.612 53.1757 137.567 53.1589 137.535 53.1752L137.495 53.1951C137.462 53.2114 137.418 53.1946 137.395 53.1573C137.372 53.12 137.379 53.0772 137.412 53.0609L137.452 53.041C137.484 53.025 137.492 52.9819 137.469 52.9446L137.398 52.8294C137.375 52.7921 137.383 52.7492 137.416 52.7329C137.448 52.7166 137.493 52.7334 137.516 52.7707L137.587 52.8859C137.61 52.9232 137.654 52.94 137.687 52.9237L137.727 52.9038C137.76 52.8875 137.804 52.9043 137.827 52.9416ZM131.948 41.7761C131.971 41.8133 131.963 41.8562 131.931 41.8725L131.891 41.8924C131.858 41.9086 131.85 41.9515 131.873 41.9888L131.944 42.104C131.967 42.1413 131.96 42.1842 131.927 42.2005C131.894 42.2167 131.85 42.2 131.827 42.1627L131.756 42.0475C131.733 42.0102 131.688 41.9934 131.655 42.0097L131.616 42.0295C131.583 42.0458 131.538 42.029 131.515 41.9918C131.492 41.9545 131.5 41.9116 131.533 41.8953L131.573 41.8755C131.605 41.8592 131.613 41.8163 131.59 41.779L131.519 41.6638C131.496 41.6265 131.504 41.5837 131.536 41.5674C131.569 41.5511 131.614 41.5679 131.637 41.6052L131.708 41.7204C131.731 41.7577 131.775 41.7744 131.808 41.7581L131.848 41.7383C131.88 41.722 131.925 41.7388 131.948 41.7761ZM137.869 44.3382C137.905 44.3991 137.94 44.4606 137.974 44.5224C137.91 44.4489 137.844 44.3769 137.777 44.3049L137.869 44.3382ZM139.023 48.9701C139 48.9328 139.008 48.8899 139.041 48.8736L139.08 48.8538C139.113 48.8375 139.121 48.7946 139.098 48.7573L139.027 48.6421C139.004 48.6048 139.011 48.562 139.044 48.5457C139.077 48.5294 139.121 48.5462 139.144 48.5835L139.215 48.6987C139.238 48.736 139.283 48.7527 139.316 48.7364L139.355 48.7166C139.388 48.7003 139.433 48.7171 139.456 48.7544C139.479 48.7916 139.471 48.8345 139.438 48.8508L139.398 48.8707C139.366 48.8869 139.358 48.9298 139.381 48.9671L139.452 49.0823C139.475 49.1196 139.467 49.1625 139.435 49.1787C139.402 49.195 139.358 49.1783 139.335 49.141L139.263 49.0258C139.24 48.9885 139.196 48.9717 139.163 48.988L139.123 49.0078C139.091 49.0241 139.046 49.0073 139.023 48.9701ZM137.125 48.2659C137.089 48.2076 137.102 48.1401 137.152 48.1149L137.215 48.0835C137.267 48.058 137.278 47.9901 137.243 47.9325L137.131 47.7509C137.095 47.6926 137.107 47.6254 137.158 47.5999C137.209 47.5744 137.279 47.6014 137.315 47.659L137.427 47.8407C137.463 47.899 137.533 47.9253 137.584 47.8998L137.647 47.8684C137.698 47.8429 137.768 47.8693 137.804 47.9275C137.84 47.9858 137.827 48.0533 137.777 48.0785L137.714 48.1099C137.662 48.1354 137.65 48.2026 137.686 48.2609L137.798 48.4426C137.834 48.5009 137.822 48.5684 137.771 48.5936C137.721 48.6187 137.65 48.592 137.614 48.5344L137.502 48.3528C137.466 48.2945 137.396 48.2681 137.345 48.2936L137.282 48.325C137.231 48.3505 137.161 48.3235 137.125 48.2659ZM128.301 45.3796C128.27 45.3288 128.281 45.27 128.325 45.2481L128.379 45.2208C128.424 45.1986 128.434 45.1395 128.403 45.0893L128.305 44.9307C128.274 44.8799 128.285 44.8212 128.329 44.7992C128.373 44.7773 128.435 44.8006 128.466 44.8507L128.564 45.0093C128.595 45.0602 128.656 45.0828 128.7 45.0608L128.755 45.0336C128.799 45.0114 128.861 45.0349 128.892 45.0851C128.923 45.1359 128.912 45.1947 128.868 45.2166L128.813 45.2439C128.769 45.2661 128.758 45.3252 128.789 45.3754L128.887 45.534C128.919 45.5848 128.908 45.6435 128.864 45.6655C128.82 45.6874 128.758 45.6641 128.727 45.614L128.629 45.4554C128.598 45.4045 128.536 45.3819 128.492 45.4039L128.438 45.4311C128.393 45.4533 128.332 45.4298 128.301 45.3796ZM127.072 45.8415C127.049 45.8043 127.057 45.7614 127.09 45.7451L127.129 45.7253C127.162 45.709 127.17 45.6661 127.147 45.6288L127.076 45.5136C127.053 45.4763 127.06 45.4335 127.093 45.4172C127.126 45.4009 127.17 45.4177 127.193 45.4549L127.264 45.5702C127.287 45.6074 127.332 45.6242 127.365 45.6079L127.405 45.5881C127.437 45.5718 127.482 45.5886 127.505 45.6258C127.528 45.6631 127.52 45.706 127.487 45.7223L127.448 45.7421C127.415 45.7584 127.407 45.8013 127.43 45.8386L127.501 45.9538C127.524 45.9911 127.517 46.0339 127.484 46.0502C127.451 46.0665 127.407 46.0497 127.384 46.0125L127.312 45.8972C127.289 45.86 127.245 45.8432 127.212 45.8595L127.172 45.8793C127.14 45.8956 127.095 45.8788 127.072 45.8415ZM128.732 57.2589C128.755 57.2962 128.748 57.3391 128.715 57.3554L128.675 57.3752C128.643 57.3915 128.635 57.4344 128.658 57.4717L128.729 57.5869C128.752 57.6242 128.744 57.667 128.712 57.6833C128.679 57.6996 128.634 57.6828 128.611 57.6456L128.54 57.5303C128.517 57.4931 128.473 57.4763 128.44 57.4926L128.4 57.5124C128.367 57.5287 128.323 57.5119 128.3 57.4746C128.277 57.4374 128.285 57.3945 128.317 57.3782L128.357 57.3584C128.39 57.3421 128.398 57.2992 128.375 57.2619L128.303 57.1467C128.28 57.1094 128.288 57.0666 128.321 57.0503C128.353 57.034 128.398 57.0508 128.421 57.088L128.492 57.2033C128.515 57.2405 128.56 57.2573 128.592 57.241L128.632 57.2212C128.665 57.2049 128.709 57.2217 128.732 57.2589ZM125.431 51.1191L125.391 51.1389C125.359 51.1552 125.351 51.1981 125.374 51.2353L125.445 51.3506C125.468 51.3879 125.46 51.4307 125.428 51.447C125.395 51.4633 125.35 51.4465 125.327 51.4092L125.256 51.294C125.233 51.2567 125.189 51.2399 125.156 51.2562L125.116 51.2761C125.084 51.2924 125.039 51.2756 125.016 51.2383C124.993 51.201 125.001 51.1582 125.033 51.1419L125.073 51.122C125.106 51.1057 125.114 51.0629 125.091 51.0256L125.019 50.9104C124.996 50.8731 125.004 50.8302 125.037 50.8139C125.07 50.7976 125.114 50.8144 125.137 50.8517L125.208 50.9669C125.231 51.0042 125.276 51.021 125.309 51.0047L125.348 50.9849C125.381 50.9686 125.426 50.9853 125.449 51.0226C125.472 51.0599 125.464 51.1028 125.431 51.1191ZM130.67 58.0658C130.706 58.1241 130.694 58.1913 130.642 58.2168L130.579 58.2482C130.528 58.2737 130.516 58.3409 130.552 58.3992L130.664 58.5809C130.7 58.6391 130.688 58.7064 130.637 58.7318C130.586 58.7573 130.516 58.731 130.48 58.6727L130.368 58.4911C130.332 58.4328 130.261 58.4067 130.211 58.4319L130.148 58.4633C130.097 58.4888 130.027 58.4625 129.991 58.4042C129.955 58.3459 129.967 58.2787 130.018 58.2532L130.081 58.2218C130.132 58.1963 130.145 58.1291 130.109 58.0708L129.996 57.8892C129.96 57.8309 129.973 57.7637 130.024 57.7382C130.075 57.7127 130.145 57.739 130.181 57.7973L130.293 57.979C130.329 58.0373 130.399 58.0633 130.45 58.0381L130.513 58.0067C130.564 57.9812 130.634 58.0082 130.67 58.0658Z" fill="#000AFF"/>
<path style="mix-blend-mode:multiply" opacity="0.5" d="M137.589 78.169C110.059 78.749 96.2793 50.519 104.769 36.679C101.019 46.629 110.599 67.379 130.719 72.529C150.819 77.659 161.219 63.799 157.509 46.999C157.489 46.969 157.489 46.909 157.489 46.879C161.989 60.479 157.999 77.749 137.589 78.169Z" fill="url(#paint29_linear_238_3154)"/>
<g style="mix-blend-mode:soft-light" opacity="0.5">
<path d="M139.929 179.229C138.449 180.129 141.429 196.679 142.599 200.249C143.759 203.819 151.949 198.559 151.699 190.599C151.449 182.629 146.939 179.389 144.919 178.589C142.899 177.789 140.909 178.629 139.929 179.229Z" fill="white"/>
</g>
<g style="mix-blend-mode:overlay">
<path d="M83.5899 152.999C81.3799 153.969 91.3899 164.309 107.16 163.149C122.93 161.989 123.43 158.819 123.09 156.749C122.76 154.679 87.3999 151.319 83.5799 152.999H83.5899Z" fill="white"/>
</g>
<g style="mix-blend-mode:soft-light" opacity="0.5">
<path d="M78.3286 107.449C70.3086 112.679 81.2486 134.569 98.7086 131.759C116.169 128.949 95.3686 96.339 78.3286 107.449Z" fill="white"/>
</g>
<path d="M83.9588 76.3491C80.5788 77.5991 86.3088 85.8891 89.8488 84.4391C93.3888 82.9891 89.3488 74.3591 83.9588 76.3491Z" fill="white"/>
<path d="M122.069 60.4391C118.389 60.7891 120.939 67.3591 126.699 66.6191C132.459 65.8891 125.399 60.1191 122.069 60.4391Z" fill="white"/>
<path d="M149.27 59.8291C147.17 59.8691 148.5 63.6691 149.27 63.5591C150.04 63.4491 153.25 59.7591 149.27 59.8291Z" fill="white"/>
<path d="M111.379 217.369C106.899 218.929 108.379 225.799 113.229 226.009C118.069 226.219 117.089 215.379 111.379 217.369Z" fill="white"/>
<path d="M54.8788 201.969C51.2288 204.629 59.0788 209.159 61.6888 207.499C64.2988 205.839 58.3588 199.429 54.8788 201.969Z" fill="white"/>
<g style="mix-blend-mode:multiply" opacity="0.5">
<path d="M78.8885 213.939C78.8885 213.939 79.0185 202.909 69.9785 200.419C69.9785 200.419 75.2885 199.529 78.6685 203.969C82.0485 208.409 78.8885 213.939 78.8885 213.939Z" fill="#AB0481"/>
</g>
<path d="M79.5493 327.919C76.3593 333.019 84.9292 336.539 87.0592 330.679C89.1792 324.819 81.2093 325.259 79.5493 327.919Z" fill="white"/>
<path d="M156.789 326.819C153.989 328.169 157.619 333.279 161.939 332.449C166.259 331.619 162.269 324.169 156.789 326.819Z" fill="white"/>
<path d="M139.028 291.829C135.108 293.939 140.018 304.429 143.338 304.749C146.658 305.069 142.798 289.799 139.028 291.829Z" fill="white"/>
<g style="mix-blend-mode:multiply" opacity="0.5">
<path d="M108.569 268.729C108.569 268.729 112.749 272.319 118.709 271.109C124.669 269.899 134.339 258.849 137.429 250.009C137.429 250.009 133.159 270.369 113.209 279.509L108.559 268.729H108.569Z" fill="#AB2781"/>
</g>
<path d="M79.5487 307.229C78.5387 307.969 81.9887 309.389 83.8687 306.729C85.7487 304.069 81.4887 305.819 79.5487 307.229Z" fill="white"/>
<g style="mix-blend-mode:overlay">
<path d="M166.749 148.709C164.079 149.839 171.899 138.869 178.699 134.829C185.499 130.789 185.959 132.869 185.959 132.869C185.959 132.869 178.869 143.559 166.749 148.709Z" fill="white"/>
</g>
<g style="mix-blend-mode:overlay">
<path d="M14.3695 85.2988C13.5995 87.7588 6.23953 72.5188 10.3895 59.0688C14.5395 45.6288 15.8695 51.4288 15.8695 51.4288C15.8695 51.4288 17.0295 76.8288 14.3795 85.2888L14.3695 85.2988Z" fill="white"/>
</g>
<path d="M35.5881 124.199C34.0781 125.019 37.3981 130.179 41.4881 130.059C45.5781 129.949 43.1781 120.099 35.5881 124.199Z" fill="white"/>
<g style="mix-blend-mode:multiply" opacity="0.3">
<path d="M106.999 179.229C104.669 176.979 100.459 172.229 108.699 167.019C116.939 161.809 126.289 164.539 142.819 159.009C159.349 153.479 165.099 151.119 165.099 151.119C165.099 151.119 147.719 171.319 132.899 177.609C118.079 183.909 107.009 179.229 107.009 179.229H106.999Z" fill="#E767A7"/>
</g>
<g style="mix-blend-mode:soft-light">
<path d="M173.889 69.6989C170.069 70.4089 174.219 75.5989 177.039 76.0489C179.859 76.4989 178.369 68.8689 173.889 69.6989Z" fill="white"/>
</g>
<g style="mix-blend-mode:soft-light">
<path d="M48.3281 86.5591C48.3281 86.5591 50.5381 67.5591 58.7081 58.1291C66.8881 48.6891 72.1581 46.4991 80.9481 46.8391C89.7481 47.1891 99.3181 50.4691 99.3181 50.4691C99.3181 50.4691 84.7081 46.9891 75.3081 49.0591C65.8981 51.1291 53.4881 67.1391 48.3281 86.5691V86.5591Z" fill="white"/>
</g>
<g style="mix-blend-mode:soft-light">
<path d="M156.949 43.6789C156.949 43.6789 161.849 40.1089 168.979 42.9289C176.119 45.7489 180.679 58.5289 180.679 58.5289C180.679 58.5289 170.549 40.5189 156.939 43.6689L156.949 43.6789Z" fill="white"/>
</g>
<g style="mix-blend-mode:soft-light" opacity="0.6">
<path d="M190.378 171.469C189.908 177.449 207.858 176.709 208.298 167.979C208.738 159.259 205.498 158.349 204.838 158.519C204.178 158.689 191.348 159.099 190.378 171.469Z" fill="white"/>
</g>
<g style="mix-blend-mode:soft-light" opacity="0.3">
<path d="M84.339 222.019C78.549 219.149 68.809 219.929 66.919 226.009C61.769 242.509 86.889 244.949 93.859 239.189C100.829 233.439 86.449 223.059 84.339 222.019Z" fill="white"/>
</g>
<path fill-rule="evenodd" clip-rule="evenodd" d="M301.31 138.989L302.92 138.679C302.92 138.679 303.66 123.569 302.52 113.999C301.39 104.429 300.48 91.459 302.03 84.949C303.82 77.409 309.57 68.679 309.57 68.679L297.35 76.659L291.08 90.789L301.31 138.979V138.989Z" fill="url(#paint30_linear_238_3154)"/>
<path fill-rule="evenodd" clip-rule="evenodd" d="M215.819 42.2689C215.819 43.6589 215.779 45.1489 215.679 46.6989C215.609 48.0689 215.479 49.4689 215.319 50.8989C214.109 62.3889 211.019 75.0389 210.659 75.3389C210.549 75.4289 208.929 85.9089 206.409 102.819C206.159 104.469 205.909 106.179 205.659 107.939C205.639 107.959 205.659 107.959 205.659 107.959C205.389 109.689 205.129 111.459 204.839 113.299C201.919 132.989 198.129 158.619 194.109 185.859C193.789 188.149 193.449 190.449 193.099 192.739C181.639 270.759 168.779 358.919 168.779 358.919L168.709 358.899L168.599 358.879L167.869 358.769L166.859 358.629L189.929 189.109V189.089L190.609 184.039L201.069 107.229L201.749 102.279L201.839 101.599L202.979 94.9289L207.429 68.8189L210.879 48.5589L211.409 45.3889L212.049 41.5689L212.069 41.5289L212.939 36.3889H215.229C215.619 37.9889 215.799 39.9989 215.819 42.2589V42.2689Z" fill="url(#paint31_radial_238_3154)"/>
<path fill-rule="evenodd" clip-rule="evenodd" d="M218.259 39.5989L217.819 42.5489L217.139 47.1389L216.479 51.5189L208.809 103.109L208.029 108.319V108.339L207.179 114.159L196.239 187.589L195.529 192.459L170.729 359.099L168.789 358.919L168.719 358.899L167.879 358.829V358.779L191.539 192.099L192.539 185.039L202.839 112.549L203.529 107.619L203.549 107.499L204.229 102.659C204.229 102.659 204.249 102.609 204.249 102.589V102.569L204.609 100.099L208.999 79.8689L210.729 71.9689L211.159 70.0089L211.479 68.5189L212.569 59.3089V59.2889L213.659 49.9989L214.099 46.2089V46.1889L214.579 42.0589L214.599 42.0389L215.259 36.3789L218.279 39.5789L218.259 39.5989Z" fill="url(#paint32_linear_238_3154)"/>
<path fill-rule="evenodd" clip-rule="evenodd" d="M301.309 138.989C301.309 138.989 268.029 124.409 242.089 116.409C216.149 108.419 210.569 108.719 210.569 108.719L199.699 107.019L200.279 102.109L210.749 103.339C210.749 103.339 223.009 66.559 221.079 48.329L209.999 44.969L210.439 41.209C210.439 41.209 218.339 43.129 223.799 42.849C223.799 42.849 248.259 40.699 269.529 47.009C290.809 53.319 303.609 64.829 309.589 68.679H309.579C309.319 69.049 300.879 80.759 299.949 88.679C299.159 95.409 304.149 114.149 302.869 130.069V130.099C302.619 133.209 302.129 136.209 301.319 138.989H301.309Z" fill="url(#paint33_linear_238_3154)"/>
<path d="M255.81 109.115C254.395 108.654 252.974 107.973 251.765 106.962C260.906 112.134 270.416 105.887 270.416 105.887C262.367 107.711 249.993 105.581 246.407 94.234C241.783 79.595 250.262 71.0117 256.9 69.975C266.025 68.5493 274.807 80.6754 267.778 91.0834C271.051 84.8649 268.504 74.3158 261.279 72.3835C254.069 70.4558 248.869 76.4449 246.302 82.3907C246.302 82.3907 247.486 80.7123 249.336 78.8826C248.253 80.7234 246.464 84.686 247.081 89.1654C247.787 94.2888 250.228 98.0835 252.826 100.232C260.375 106.479 271.061 103.645 271.061 103.645C265.028 104.371 257.057 101.959 253.001 96.8698C251.406 94.8673 250.061 91.803 249.74 89.0146C249.479 86.7552 249.82 84.419 250.618 82.3592C251.388 80.3757 252.743 78.2105 254.768 77.2089C257.3 75.9588 260.778 76.4327 263.171 79.5671C264.959 81.9095 265.06 85.0396 264.276 88.1024C264.413 84.8574 262.821 81.6112 260.422 80.2398C258.024 78.8683 254.718 79.1677 253.014 81.6627C249.292 87.1068 252.482 95.1176 257.332 98.4592C261.01 100.994 266.217 102.335 270.275 101.563C279.211 99.8624 282.723 91.5083 283.648 87.6822C283.648 87.6822 280.678 94.4556 276.321 96.9794C283.229 90.5216 286.605 79.086 281.349 67.0016C281.349 67.0016 283.608 74.4088 281.876 82.1787C282.576 62.9338 267.523 52.8386 257.015 56.3842C257.015 56.3842 264.385 55.2175 269.492 60.0255C260.499 55.4672 248.954 58.7395 241.401 68.0919C241.401 68.0919 253.801 57.3243 265.384 62.9511C272.018 66.1754 275.317 72.0119 276.551 78.2312C276.869 79.8328 276.871 81.2846 276.782 82.5595C275.87 74.3271 270.227 65.1552 262.38 63.4178C256.613 61.7876 250.543 63.1468 245.397 67.4786C241.394 70.851 238.318 76.2702 236.925 82.0079C235.998 85.8268 236.083 89.5246 236.135 93.4478C236.135 93.4478 236.038 86.2847 238.261 81.8909C235.841 91.9792 238.219 104.343 247.652 111.962C247.652 111.962 243.33 107.612 241.336 101.031C248.302 113.348 266.301 118.919 279.622 103.43C279.622 103.43 267.42 112.901 255.811 109.118L255.81 109.115ZM264.094 94.2345C264.03 94.5551 263.766 94.7533 263.504 94.6761L263.181 94.5807C262.92 94.5036 262.655 94.7018 262.591 95.0223L262.391 96.0252C262.328 96.3457 262.063 96.5439 261.801 96.4668C261.54 96.3897 261.379 96.0659 261.443 95.7453L261.643 94.7425C261.707 94.4219 261.546 94.0981 261.284 94.021L260.961 93.9255C260.7 93.8484 260.539 93.5246 260.603 93.204C260.667 92.8834 260.931 92.6853 261.193 92.7624L261.516 92.8578C261.777 92.935 262.042 92.7368 262.106 92.4162L262.306 91.4134C262.37 91.0928 262.634 90.8946 262.896 90.9717C263.157 91.0489 263.318 91.3727 263.254 91.6932L263.054 92.6961C262.99 93.0167 263.151 93.3404 263.413 93.4176L263.736 93.513C263.997 93.5901 264.158 93.9139 264.094 94.2345ZM266.375 98.6738C266.352 98.7869 266.261 98.8555 266.168 98.8283L266.056 98.7952C265.964 98.768 265.872 98.8367 265.85 98.9497L265.78 99.299C265.758 99.4121 265.666 99.4807 265.574 99.4535C265.482 99.4263 265.426 99.3142 265.449 99.2011L265.518 98.8518C265.541 98.7388 265.485 98.6266 265.393 98.5994L265.281 98.5663C265.188 98.5391 265.133 98.4269 265.155 98.3139C265.178 98.2008 265.269 98.1322 265.362 98.1594L265.474 98.1925C265.564 98.2192 265.658 98.151 265.68 98.038L265.75 97.6887C265.772 97.5756 265.864 97.507 265.956 97.5342C266.048 97.5614 266.104 97.6735 266.081 97.7866L266.012 98.1359C265.989 98.2489 266.045 98.3611 266.137 98.3883L266.25 98.4214C266.342 98.4486 266.397 98.5608 266.375 98.6738ZM275.064 66.635C275.042 66.748 274.95 66.8167 274.858 66.7895L274.746 66.7564C274.653 66.7292 274.562 66.7979 274.539 66.9109L274.47 67.2602C274.447 67.3733 274.355 67.4419 274.263 67.4147C274.171 67.3875 274.115 67.2753 274.138 67.1623L274.208 66.813C274.23 66.6999 274.174 66.5878 274.082 66.5606L273.97 66.5274C273.878 66.5002 273.822 66.3881 273.845 66.275C273.867 66.162 273.959 66.0934 274.051 66.1206L274.163 66.1537C274.255 66.1809 274.347 66.1122 274.37 65.9992L274.439 65.6498C274.462 65.5368 274.553 65.4682 274.645 65.4954C274.738 65.5225 274.793 65.6347 274.771 65.7477L274.701 66.0971C274.679 66.2101 274.734 66.3223 274.827 66.3495L274.939 66.3826C275.031 66.4098 275.087 66.522 275.064 66.635ZM281.874 82.1803C281.834 82.3622 281.791 82.5431 281.746 82.7235C281.755 82.4671 281.758 82.2113 281.758 81.9524L281.874 82.1803ZM275.796 93.169C275.818 93.056 275.91 92.9873 276.002 93.0145L276.114 93.0476C276.207 93.0748 276.298 93.0062 276.321 92.8931L276.39 92.5438C276.413 92.4308 276.505 92.3621 276.597 92.3893C276.689 92.4165 276.745 92.5287 276.722 92.6417L276.652 92.991C276.63 93.1041 276.686 93.2162 276.778 93.2434L276.89 93.2766C276.982 93.3038 277.038 93.4159 277.015 93.529C276.993 93.642 276.901 93.7107 276.809 93.6835L276.697 93.6503C276.605 93.6231 276.513 93.6918 276.49 93.8048L276.421 94.1542C276.398 94.2672 276.307 94.3359 276.214 94.3087C276.122 94.2815 276.067 94.1693 276.089 94.0563L276.159 93.7069C276.181 93.5939 276.125 93.4817 276.033 93.4545L275.921 93.4214C275.829 93.3942 275.773 93.282 275.796 93.169ZM273.403 88.4115C273.438 88.2348 273.584 88.1276 273.726 88.1696L273.904 88.222C274.048 88.2646 274.192 88.1548 274.227 87.9802L274.336 87.4294C274.372 87.2527 274.515 87.145 274.66 87.1875C274.804 87.2301 274.891 87.408 274.856 87.5827L274.746 88.1334C274.711 88.3102 274.798 88.4861 274.942 88.5286L275.12 88.581C275.264 88.6235 275.351 88.7995 275.316 88.9762C275.281 89.1529 275.136 89.2601 274.993 89.2181L274.816 89.1657C274.671 89.1231 274.528 89.2308 274.492 89.4075L274.383 89.9583C274.348 90.135 274.202 90.2422 274.06 90.2002C273.917 90.1581 273.829 89.9797 273.863 89.805L273.973 89.2542C274.008 89.0775 273.921 88.9016 273.777 88.8591L273.599 88.8067C273.455 88.7641 273.368 88.5862 273.403 88.4115ZM261.583 67.038C261.613 66.8839 261.74 66.7908 261.864 66.8274L262.018 66.8729C262.144 66.9099 262.269 66.8143 262.299 66.6622L262.395 66.1813C262.426 66.0272 262.553 65.9341 262.677 65.9706C262.801 66.0072 262.878 66.1628 262.848 66.3148L262.752 66.7957C262.721 66.9498 262.799 67.1033 262.923 67.1399L263.077 67.1854C263.203 67.2224 263.278 67.3775 263.248 67.5295C263.217 67.6837 263.09 67.7768 262.966 67.7402L262.812 67.6947C262.687 67.6576 262.561 67.7533 262.531 67.9054L262.435 68.3863C262.404 68.5404 262.278 68.6335 262.154 68.5969C262.03 68.5603 261.952 68.4048 261.983 68.2527L262.079 67.7719C262.109 67.6178 262.032 67.4643 261.908 67.4277L261.753 67.3822C261.628 67.3451 261.552 67.1901 261.583 67.038ZM258.388 65.7254C258.411 65.6124 258.503 65.5438 258.595 65.571L258.707 65.6041C258.799 65.6313 258.891 65.5626 258.913 65.4496L258.983 65.1002C259.005 64.9872 259.097 64.9186 259.189 64.9458C259.281 64.973 259.337 65.0851 259.315 65.1982L259.245 65.5475C259.223 65.6605 259.278 65.7727 259.37 65.7999L259.483 65.833C259.575 65.8602 259.631 65.9724 259.608 66.0854C259.586 66.1985 259.494 66.2671 259.402 66.2399L259.289 66.2068C259.197 66.1796 259.106 66.2483 259.083 66.3613L259.014 66.7106C258.991 66.8237 258.899 66.8923 258.807 66.8651C258.715 66.8379 258.659 66.7257 258.682 66.6127L258.751 66.2634C258.774 66.1503 258.718 66.0382 258.626 66.011L258.514 65.9778C258.422 65.9507 258.366 65.8385 258.388 65.7254ZM241.123 90.688C241.101 90.801 241.009 90.8697 240.917 90.8425L240.804 90.8094C240.712 90.7822 240.621 90.8508 240.598 90.9638L240.529 91.3132C240.506 91.4262 240.414 91.4949 240.322 91.4677C240.23 91.4405 240.174 91.3283 240.197 91.2153L240.266 90.8659C240.289 90.7529 240.233 90.6407 240.141 90.6135L240.029 90.5804C239.937 90.5532 239.881 90.441 239.903 90.328C239.926 90.215 240.018 90.1463 240.11 90.1735L240.222 90.2067C240.314 90.2339 240.406 90.1652 240.428 90.0522L240.498 89.7028C240.52 89.5898 240.612 89.5211 240.704 89.5483C240.796 89.5755 240.852 89.6877 240.83 89.8007L240.76 90.1501C240.738 90.2631 240.793 90.3753 240.885 90.4025L240.998 90.4356C241.09 90.4628 241.146 90.575 241.123 90.688ZM245.77 72.9475L245.657 72.9143C245.565 72.8871 245.474 72.9558 245.451 73.0688L245.382 73.4182C245.359 73.5312 245.267 73.5999 245.175 73.5727C245.083 73.5455 245.027 73.4333 245.05 73.3203L245.119 72.9709C245.142 72.8579 245.086 72.7457 244.994 72.7185L244.882 72.6854C244.79 72.6582 244.734 72.546 244.756 72.433C244.779 72.32 244.871 72.2513 244.963 72.2785L245.075 72.3116C245.167 72.3388 245.259 72.2702 245.281 72.1571L245.351 71.8078C245.373 71.6948 245.465 71.6261 245.557 71.6533C245.649 71.6805 245.705 71.7927 245.683 71.9057L245.613 72.255C245.591 72.3681 245.646 72.4802 245.738 72.5074L245.851 72.5406C245.943 72.5678 245.999 72.6799 245.976 72.793C245.954 72.906 245.862 72.9747 245.77 72.9475ZM243.407 95.7138C243.372 95.8905 243.228 95.9982 243.084 95.9556L242.907 95.9032C242.763 95.8607 242.619 95.9684 242.584 96.1451L242.474 96.6958C242.439 96.8726 242.295 96.9802 242.151 96.9377C242.007 96.8952 241.919 96.7193 241.955 96.5425L242.064 95.9918C242.1 95.8151 242.01 95.6387 241.868 95.5966L241.69 95.5442C241.546 95.5017 241.459 95.3258 241.494 95.1491C241.529 94.9723 241.673 94.8647 241.817 94.9072L241.995 94.9596C242.139 95.0021 242.283 94.8944 242.318 94.7177L242.428 94.167C242.463 93.9902 242.607 93.8826 242.751 93.9251C242.895 93.9676 242.982 94.1435 242.947 94.3203L242.837 94.871C242.802 95.0477 242.891 95.2241 243.034 95.2662L243.211 95.3186C243.355 95.3611 243.442 95.5391 243.407 95.7138Z" fill="url(#paint34_radial_238_3154)"/>
<path fill-rule="evenodd" clip-rule="evenodd" d="M302.869 130.069C302.869 129.489 302.739 120.269 295.039 107.749C287.079 94.799 281.609 91.849 285.239 85.979C288.809 80.199 309.009 68.999 309.579 68.689C309.319 69.049 300.879 80.759 299.949 88.679C299.159 95.409 304.149 114.149 302.869 130.069Z" fill="url(#paint35_linear_238_3154)"/>
<path fill-rule="evenodd" clip-rule="evenodd" d="M214.58 42.0487C214.58 42.0487 213.42 44.7887 213.69 46.0787L210 44.9587C210 44.9587 209.66 42.8287 210.44 41.1987L214.58 42.0387V42.0487Z" fill="#56546E"/>
<path fill-rule="evenodd" clip-rule="evenodd" d="M204.249 102.569C204.249 102.569 203.109 105.219 203.559 107.619L199.709 107.019C199.709 107.019 199.029 105.259 200.289 102.109L204.259 102.579L204.249 102.569Z" fill="#56546E"/>
<g style="mix-blend-mode:multiply" opacity="0.6">
<path fill-rule="evenodd" clip-rule="evenodd" d="M275.01 48.8088C275.01 48.8088 258.94 66.2788 236.74 78.4988C236.74 78.4988 271.26 63.5088 280.46 60.1888C289.66 56.8688 298.11 67.5688 298.57 68.6788C298.75 69.1088 295.2 74.3088 289.79 80.7688C281.06 91.1988 267.47 104.919 256.79 107.239C239.48 110.999 219.39 92.5388 219.56 83.2188C219.73 73.8988 219.84 67.3788 219.84 67.3788C219.84 67.3788 213.86 94.9888 210.75 103.329L214.51 109.169C214.51 109.169 253.76 117.459 301.31 138.979C301.31 138.979 306.62 125.499 295.03 107.739C283.44 89.9788 283.87 90.5888 284.7 88.1188C285.53 85.6488 299.31 71.4388 309.57 68.6788C309.57 68.6788 291.48 54.5488 275 48.7988L275.01 48.8088Z" fill="#A29BC9"/>
</g>
<path style="mix-blend-mode:screen" opacity="0.5" fill-rule="evenodd" clip-rule="evenodd" d="M259.639 44.4189C259.639 44.4189 245.389 69.0989 224.709 82.549C224.709 82.549 245.899 79.4189 275.009 48.8089C275.009 48.8089 261.759 44.5389 259.639 44.4189Z" fill="url(#paint36_linear_238_3154)"/>
<path style="mix-blend-mode:screen" opacity="0.5" fill-rule="evenodd" clip-rule="evenodd" d="M300.26 86.9187C300.26 86.9187 292.57 85.6287 284.6 90.8887C284.6 90.8887 281.52 83.7987 309.57 68.6987C309.57 68.6987 302.07 79.8287 300.26 86.9187Z" fill="url(#paint37_linear_238_3154)"/>
<g style="mix-blend-mode:soft-light" opacity="0.5">
<path fill-rule="evenodd" clip-rule="evenodd" d="M202.979 94.9389L205.629 94.2788L211.279 70.0688L207.419 68.8188L202.979 94.9389Z" fill="#F1E3D8"/>
</g>
<path fill-rule="evenodd" clip-rule="evenodd" d="M210.6 72.2588L211.52 64.4788L212.55 59.2988L211.88 68.6988L210.6 72.2588Z" fill="#F19A64"/>
<g style="mix-blend-mode:multiply" opacity="0.6">
<path fill-rule="evenodd" clip-rule="evenodd" d="M211.489 45.4189L210.869 48.5589L216.499 51.5289L217.139 47.1389L211.489 45.4189Z" fill="#704786"/>
</g>
<g style="mix-blend-mode:multiply" opacity="0.6">
<path fill-rule="evenodd" clip-rule="evenodd" d="M201.178 107.249L200.648 111.739L207.268 114.189L208.128 108.339L201.178 107.249Z" fill="#704786"/>
</g>
<g style="mix-blend-mode:multiply" opacity="0.8">
<path d="M196.239 187.579L195.529 192.449C194.889 192.659 193.999 192.859 193.109 192.729C192.579 192.639 192.019 192.459 191.539 192.089C190.649 191.409 190.189 190.219 189.939 189.099V189.079L190.619 184.029L192.539 185.029L194.119 185.849L196.219 186.939L196.239 187.579Z" fill="#AB2781"/>
</g>
<path d="M210.679 186.829C210.679 186.939 210.659 187.029 210.659 187.109C206.639 188.959 203.809 190.189 203.809 190.189C203.809 190.189 195.629 192.959 192.139 188.269C188.299 183.089 188.329 173.269 189.609 168.419C190.859 163.759 195.279 160.749 195.659 160.499H195.679C195.679 160.499 195.699 160.499 195.719 160.479C197.589 159.769 203.919 157.379 206.379 157.379C209.239 157.379 210.129 162.699 209.919 169.099C209.689 175.539 211.129 179.079 210.679 186.819V186.829Z" fill="url(#paint38_linear_238_3154)"/>
<defs>
<linearGradient id="paint0_linear_238_3154" x1="165.096" y1="205.121" x2="175.424" y2="145.344" gradientUnits="userSpaceOnUse">
<stop stop-color="#0E142B"/>
<stop offset="0.43" stop-color="#161A2F"/>
<stop offset="1" stop-color="#29293B"/>
</linearGradient>
<linearGradient id="paint1_linear_238_3154" x1="193.201" y1="201.69" x2="212.004" y2="150.889" gradientUnits="userSpaceOnUse">
<stop stop-color="#B5041D"/>
<stop offset="1" stop-color="#C21D38"/>
</linearGradient>
<linearGradient id="paint2_linear_238_3154" x1="70.7517" y1="354.125" x2="71.2216" y2="336.981" gradientUnits="userSpaceOnUse">
<stop stop-color="#E5222C"/>
<stop offset="1" stop-color="#801212"/>
</linearGradient>
<linearGradient id="paint3_linear_238_3154" x1="156.763" y1="349.193" x2="157.054" y2="334.868" gradientUnits="userSpaceOnUse">
<stop stop-color="#E5222C"/>
<stop offset="1" stop-color="#801212"/>
</linearGradient>
<linearGradient id="paint4_linear_238_3154" x1="148.495" y1="342.513" x2="174.296" y2="244.821" gradientUnits="userSpaceOnUse">
<stop stop-color="#0E142B"/>
<stop offset="0.43" stop-color="#161A2F"/>
<stop offset="1" stop-color="#29293B"/>
</linearGradient>
<linearGradient id="paint5_linear_238_3154" x1="75.6277" y1="346.166" x2="118.248" y2="244.079" gradientUnits="userSpaceOnUse">
<stop stop-color="#0E142B"/>
<stop offset="0.43" stop-color="#161A2F"/>
<stop offset="1" stop-color="#29293B"/>
</linearGradient>
<linearGradient id="paint6_linear_238_3154" x1="104.572" y1="278.622" x2="139.792" y2="183.378" gradientUnits="userSpaceOnUse">
<stop stop-color="#0E142B"/>
<stop offset="0.43" stop-color="#161A2F"/>
<stop offset="1" stop-color="#29293B"/>
</linearGradient>
<linearGradient id="paint7_linear_238_3154" x1="134.892" y1="225.263" x2="151.358" y2="204.675" gradientUnits="userSpaceOnUse">
<stop stop-color="#E5222C"/>
<stop offset="1" stop-color="#801212"/>
</linearGradient>
<linearGradient id="paint8_linear_238_3154" x1="88.1044" y1="286.467" x2="103.212" y2="234.361" gradientUnits="userSpaceOnUse">
<stop stop-color="#781515"/>
<stop offset="1" stop-color="#D90516"/>
</linearGradient>
<linearGradient id="paint9_linear_238_3154" x1="70.3982" y1="249.434" x2="80.7577" y2="182.151" gradientUnits="userSpaceOnUse">
<stop stop-color="#121936"/>
<stop offset="0.38" stop-color="#1A1F3A"/>
<stop offset="0.97" stop-color="#303146"/>
<stop offset="1" stop-color="#323247"/>
</linearGradient>
<linearGradient id="paint10_linear_238_3154" x1="92.7325" y1="185.021" x2="117.403" y2="25.0215" gradientUnits="userSpaceOnUse">
<stop stop-color="#121936"/>
<stop offset="0.38" stop-color="#1A1F3A"/>
<stop offset="0.97" stop-color="#303146"/>
<stop offset="1" stop-color="#323247"/>
</linearGradient>
<linearGradient id="paint11_linear_238_3154" x1="41.4508" y1="163.784" x2="47.0937" y2="102.078" gradientUnits="userSpaceOnUse">
<stop stop-color="#C3FFFA"/>
<stop offset="0.51" stop-color="#BAFFF7"/>
<stop offset="1" stop-color="#AEFFF3"/>
</linearGradient>
<linearGradient id="paint12_linear_238_3154" x1="45.6693" y1="157.141" x2="50.2277" y2="106.5" gradientUnits="userSpaceOnUse">
<stop stop-color="#7BBDFF"/>
<stop offset="0.19" stop-color="#78B4FC"/>
<stop offset="0.48" stop-color="#729EF4"/>
<stop offset="0.84" stop-color="#6879E8"/>
<stop offset="1" stop-color="#6367E3"/>
</linearGradient>
<linearGradient id="paint13_linear_238_3154" x1="43.0234" y1="151.418" x2="46.4542" y2="112.519" gradientUnits="userSpaceOnUse">
<stop stop-color="#121936"/>
<stop offset="0.38" stop-color="#1A1F3A"/>
<stop offset="0.97" stop-color="#303146"/>
<stop offset="1" stop-color="#323247"/>
</linearGradient>
<linearGradient id="paint14_linear_238_3154" x1="96.3635" y1="218.905" x2="106.238" y2="177.06" gradientUnits="userSpaceOnUse">
<stop stop-color="#781515"/>
<stop offset="1" stop-color="#D90516"/>
</linearGradient>
<linearGradient id="paint15_linear_238_3154" x1="139.761" y1="215.103" x2="149.87" y2="175.455" gradientUnits="userSpaceOnUse">
<stop stop-color="#781515"/>
<stop offset="1" stop-color="#D90516"/>
</linearGradient>
<linearGradient id="paint16_linear_238_3154" x1="126.147" y1="286.857" x2="141.22" y2="242.397" gradientUnits="userSpaceOnUse">
<stop stop-color="#781515"/>
<stop offset="1" stop-color="#D90516"/>
</linearGradient>
<linearGradient id="paint17_linear_238_3154" x1="68.0026" y1="297.006" x2="89.508" y2="292.478" gradientUnits="userSpaceOnUse">
<stop stop-color="#781515"/>
<stop offset="1" stop-color="#D90516"/>
</linearGradient>
<linearGradient id="paint18_linear_238_3154" x1="151.455" y1="292.541" x2="171.613" y2="287.476" gradientUnits="userSpaceOnUse">
<stop stop-color="#781515"/>
<stop offset="1" stop-color="#D90516"/>
</linearGradient>
<linearGradient id="paint19_linear_238_3154" x1="69.1199" y1="296.836" x2="85.443" y2="294.13" gradientUnits="userSpaceOnUse">
<stop stop-color="#FF2643"/>
<stop offset="1" stop-color="#FF3B3E"/>
</linearGradient>
<linearGradient id="paint20_linear_238_3154" x1="152.86" y1="292.129" x2="170.665" y2="288.21" gradientUnits="userSpaceOnUse">
<stop stop-color="#FF2643"/>
<stop offset="1" stop-color="#FF3B3E"/>
</linearGradient>
<linearGradient id="paint21_linear_238_3154" x1="117.86" y1="131.759" x2="117.86" y2="33.7289" gradientUnits="userSpaceOnUse">
<stop stop-color="white"/>
<stop offset="1" stop-color="#D91A81"/>
</linearGradient>
<radialGradient id="paint22_radial_238_3154" cx="0" cy="0" r="1" gradientUnits="userSpaceOnUse" gradientTransform="translate(92.1392 144.276) rotate(-171.753) scale(92.4658 87.5909)">
<stop stop-color="#DC165F"/>
<stop offset="0.38" stop-color="#A91723"/>
<stop offset="1" stop-color="#6B1414"/>
</radialGradient>
<linearGradient id="paint23_linear_238_3154" x1="46.2791" y1="157.839" x2="187.609" y2="157.839" gradientUnits="userSpaceOnUse">
<stop stop-color="white"/>
<stop offset="1" stop-color="#D91A81"/>
</linearGradient>
<linearGradient id="paint24_linear_238_3154" x1="25.5094" y1="148.469" x2="70.7551" y2="11.2659" gradientUnits="userSpaceOnUse">
<stop stop-color="#121936"/>
<stop offset="0.38" stop-color="#1A1F3A"/>
<stop offset="0.97" stop-color="#303146"/>
<stop offset="1" stop-color="#323247"/>
</linearGradient>
<linearGradient id="paint25_linear_238_3154" x1="176.032" y1="321.747" x2="161.169" y2="299.259" gradientUnits="userSpaceOnUse">
<stop stop-color="#DB1F1F"/>
<stop offset="0.99" stop-color="#FF264E"/>
</linearGradient>
<linearGradient id="paint26_linear_238_3154" x1="105.715" y1="324.113" x2="94.8159" y2="303.481" gradientUnits="userSpaceOnUse">
<stop stop-color="#DB1F1F"/>
<stop offset="0.99" stop-color="#FF264E"/>
</linearGradient>
<linearGradient id="paint27_linear_238_3154" x1="75.8603" y1="249.93" x2="82.224" y2="215.311" gradientUnits="userSpaceOnUse">
<stop stop-color="#B5041D"/>
<stop offset="1" stop-color="#C21D38"/>
</linearGradient>
<linearGradient id="paint28_linear_238_3154" x1="126.774" y1="78.6688" x2="135.13" y2="26.8159" gradientUnits="userSpaceOnUse">
<stop stop-color="#121936"/>
<stop offset="0.38" stop-color="#1A1F3A"/>
<stop offset="0.97" stop-color="#303146"/>
<stop offset="1" stop-color="#323247"/>
</linearGradient>
<linearGradient id="paint29_linear_238_3154" x1="130.719" y1="78.179" x2="130.719" y2="36.679" gradientUnits="userSpaceOnUse">
<stop stop-color="#D91A81"/>
<stop offset="1" stop-color="white"/>
</linearGradient>
<linearGradient id="paint30_linear_238_3154" x1="289.791" y1="101.984" x2="307.032" y2="104.013" gradientUnits="userSpaceOnUse">
<stop stop-color="#BCCCDB"/>
<stop offset="1" stop-color="#CFBCCA"/>
</linearGradient>
<radialGradient id="paint31_radial_238_3154" cx="0" cy="0" r="1" gradientUnits="userSpaceOnUse" gradientTransform="translate(178.999 133.509) scale(122.62 122.62)">
<stop stop-color="#E16419"/>
<stop offset="1" stop-color="#CF463E"/>
</radialGradient>
<linearGradient id="paint32_linear_238_3154" x1="193.069" y1="359.089" x2="193.069" y2="36.3989" gradientUnits="userSpaceOnUse">
<stop stop-color="#5F123E"/>
<stop offset="1" stop-color="#BE423B"/>
</linearGradient>
<linearGradient id="paint33_linear_238_3154" x1="202.605" y1="82.5342" x2="307.085" y2="94.8262" gradientUnits="userSpaceOnUse">
<stop stop-color="#DBFFFB"/>
<stop offset="1" stop-color="#FFE8F9"/>
</linearGradient>
<radialGradient id="paint34_radial_238_3154" cx="0" cy="0" r="1" gradientUnits="userSpaceOnUse" gradientTransform="translate(260.497 85.7186) rotate(73.5244) scale(28.7894 24.4931)">
<stop offset="0.10409" stop-color="#14F1FF"/>
<stop offset="0.978353" stop-color="#13AAFF"/>
</radialGradient>
<linearGradient id="paint35_linear_238_3154" x1="291.259" y1="128.689" x2="298.473" y2="67.372" gradientUnits="userSpaceOnUse">
<stop stop-color="#DBEDFF"/>
<stop offset="1" stop-color="#FFE8F9"/>
</linearGradient>
<linearGradient id="paint36_linear_238_3154" x1="227.186" y1="61.7137" x2="272.881" y2="67.0897" gradientUnits="userSpaceOnUse">
<stop/>
<stop offset="1" stop-color="#D7883D"/>
</linearGradient>
<linearGradient id="paint37_linear_238_3154" x1="285.883" y1="78.4564" x2="308.139" y2="81.0749" gradientUnits="userSpaceOnUse">
<stop/>
<stop offset="1" stop-color="#D7883D"/>
</linearGradient>
<linearGradient id="paint38_linear_238_3154" x1="199.443" y1="192.669" x2="211.852" y2="159.577" gradientUnits="userSpaceOnUse">
<stop stop-color="#B5041D"/>
<stop offset="1" stop-color="#C21D38"/>
</linearGradient>
</defs>
</svg>
