<svg width="118" height="179" viewBox="0 0 118 179" fill="none" xmlns="http://www.w3.org/2000/svg">
<path d="M109.655 138.321C109.655 138.321 111.875 137.701 112.455 137.961C113.045 138.211 114.475 145.421 114.895 150.821C115.315 156.221 116.995 164.381 116.995 166.651C116.995 168.921 117.665 169.261 116.995 169.511C116.325 169.761 113.795 168.951 113.795 168.951L109.645 138.331L109.655 138.321Z" fill="url(#paint0_linear_237_2264)"/>
<path d="M85.7149 132.451C85.7149 132.451 89.9249 135.631 94.4049 137.081C98.8949 138.541 108.425 137.531 109.655 138.311C110.885 139.101 112.125 147.381 112.015 151.431C111.905 155.471 115.695 162.901 113.805 168.931C113.245 170.721 99.8949 161.641 98.5549 161.531C97.2049 161.421 89.0149 161.751 84.5349 159.621C80.0549 157.491 75.2449 152.231 73.8949 146.891C72.5449 141.561 85.7149 132.441 85.7149 132.441V132.451Z" fill="url(#paint1_linear_237_2264)"/>
<path d="M104.945 137.891C104.945 137.891 104.355 143.791 101.915 152.561C99.8751 159.881 98.5551 161.531 98.5551 161.531L99.6251 161.981C99.6251 161.981 101.365 156.561 103.105 149.931C104.845 143.301 104.955 137.881 104.955 137.881L104.945 137.891Z" fill="url(#paint2_linear_237_2264)"/>
<path d="M93.3652 161.351C93.3652 161.351 88.8252 162.631 84.9152 161.231C81.0052 159.831 79.3252 155.851 79.3252 155.851C79.3252 155.851 89.4952 159.501 93.3652 161.351Z" fill="url(#paint3_linear_237_2264)"/>
<path d="M91.5352 161.711C91.5352 161.711 84.7852 158.231 79.9652 157.021C79.9652 157.021 82.9852 163.321 91.5352 161.711Z" fill="url(#paint4_linear_237_2264)"/>
<g style="mix-blend-mode:multiply" opacity="0.5">
<path d="M89.226 134.721C89.226 134.721 93.696 140.751 89.926 151.441C87.046 159.611 77.756 154.141 77.756 154.141C77.756 154.141 76.086 152.341 75.486 150.491L88.346 134.211L89.226 134.721Z" fill="#AB2781"/>
</g>
<path d="M39.5147 177.071C39.7947 177.211 42.7048 178.231 46.5547 178.611C47.1847 178.681 47.8547 178.731 48.5247 178.751C53.3148 178.921 61.9847 177.741 66.6147 176.391C71.2447 175.051 76.8747 175.391 77.4647 174.621C78.0547 173.871 77.0347 170.621 77.0347 170.621C77.0347 170.621 76.2747 170.671 74.9747 170.761C72.1847 170.961 66.9347 171.331 61.3047 171.761C51.0747 172.541 39.6147 173.531 39.5547 173.981C39.4447 174.801 39.1947 176.891 39.5147 177.061V177.071Z" fill="url(#paint5_linear_237_2264)"/>
<path d="M10.1755 108.221C10.1955 109.881 10.6655 111.881 11.5255 113.921C12.6955 116.721 18.2455 121.091 23.8755 124.181H23.8955C27.9755 126.431 32.0955 127.981 34.6055 127.761C35.1155 127.721 35.6355 127.611 36.1455 127.461C36.2655 127.421 36.3455 127.401 36.3755 127.381C36.3755 127.381 36.3955 127.381 36.4055 127.381C41.7555 125.591 46.7555 118.341 47.3955 114.271C48.0955 109.761 43.5455 100.871 43.5455 100.871C43.5455 100.871 35.4255 109.301 33.9355 110.071C32.8655 110.621 30.4055 110.531 29.3255 109.891C29.0655 109.751 28.8955 109.571 28.8155 109.371C28.4355 108.281 26.7455 107.031 24.7555 105.071C22.7455 103.131 21.1155 102.031 20.6455 102.111C20.1755 102.191 19.1655 103.561 20.1455 106.271C20.1455 106.271 21.2955 107.121 21.3455 107.871C21.3455 107.871 15.8855 103.991 12.7655 104.241C10.9755 104.391 10.1555 105.991 10.1755 108.241V108.221Z" fill="url(#paint6_linear_237_2264)"/>
<path d="M41.7158 98.6508C41.7158 98.6508 37.4058 101.031 38.1858 108.941C38.9658 116.841 44.0758 121.121 44.0758 121.121C44.0758 121.121 47.3858 114.161 47.7758 109.891C48.1658 105.621 43.8658 99.6808 43.8658 99.6808L41.7258 98.6608L41.7158 98.6508Z" fill="url(#paint7_linear_237_2264)"/>
<path d="M58.175 97.7808C62.835 99.0108 63.975 110.291 72.055 115.341C80.135 120.391 86.025 123.851 85.205 131.591C84.395 139.331 78.305 152.681 59.295 145.441C40.285 138.211 41.595 104.691 43.545 99.7408C45.495 94.7908 58.165 97.7708 58.165 97.7708L58.175 97.7808Z" fill="url(#paint8_linear_237_2264)"/>
<path d="M9.30583 78.1108C9.50583 78.5408 9.70583 78.9608 9.92583 79.3508C10.1658 79.7808 10.4458 80.2208 10.7558 80.6408C17.0058 89.2508 37.1058 96.4508 43.5558 99.7408C43.5558 99.7408 47.7358 102.301 55.7158 98.6708C55.7158 98.6708 55.7358 98.6508 55.7558 98.6408C56.1358 98.4708 56.5258 98.2808 56.9258 98.0808C56.9258 98.0808 73.5558 94.2508 79.6258 88.7108C80.8958 87.5508 82.4058 85.5708 83.9358 83.0208C85.9158 79.7308 87.9358 75.4908 89.5358 70.8508C89.5358 70.8308 89.5458 70.8208 89.5458 70.8208C92.6358 61.8908 94.1658 51.4708 90.8558 43.4408C84.4958 28.0008 61.3958 16.4208 41.4558 18.6408C27.8658 20.1408 17.8658 24.9208 12.0658 30.0008C9.34583 32.3808 7.55583 34.8308 6.75583 37.0508C4.33583 43.7308 4.31583 67.2608 9.28584 78.0908L9.30583 78.1108Z" fill="url(#paint9_linear_237_2264)"/>
<path d="M88.2551 52.2307C92.3451 49.6107 90.8651 68.9507 86.0851 76.2607C81.3051 83.5707 77.5451 84.6907 76.2351 84.5807C74.9251 84.4607 73.6951 61.5807 88.2651 52.2307H88.2551Z" fill="url(#paint10_linear_237_2264)"/>
<path d="M84.9559 54.8008C84.9559 54.8008 90.4459 59.1308 85.0559 70.9208C79.6759 82.7208 75.5259 81.3608 75.5259 81.3608C75.5259 81.3608 74.2759 63.9608 84.9559 54.7908V54.8008Z" fill="url(#paint11_linear_237_2264)"/>
<g style="mix-blend-mode:multiply" opacity="0.5">
<path d="M55.7552 98.6508C56.1352 98.4808 56.5252 98.2908 56.9252 98.0908C56.9252 98.0908 73.5552 94.2608 79.6252 88.7208C80.8952 87.5608 82.4052 85.5808 83.9352 83.0308C85.9152 79.7408 87.9352 75.5008 89.5352 70.8608C89.1752 71.4408 83.5152 80.7508 78.3552 84.2808C73.1952 87.8208 56.7652 98.0208 55.7352 98.6508H55.7552Z" fill="#AB2781"/>
</g>
<path d="M86.2757 58.0008C85.0057 55.5108 77.4357 67.7208 77.7857 78.2108C77.7857 78.2108 94.3657 73.7808 86.2757 58.0008Z" fill="url(#paint12_linear_237_2264)"/>
<path d="M87.996 64.4208C86.846 61.8608 83.686 69.2408 84.756 73.2108C85.146 74.6608 90.136 69.1908 87.996 64.4208Z" fill="#881A1A"/>
<path style="mix-blend-mode:multiply" opacity="0.5" d="M9.30494 78.1108L15.8049 79.7408L75.7249 60.7008C75.7249 60.7008 80.0449 50.7808 77.2549 40.2508C74.4649 29.7308 64.8249 24.9908 59.5449 25.0808C54.2549 25.1708 38.9349 31.5108 29.8149 32.1308C20.6949 32.7408 17.4249 28.2508 12.0749 30.0108C9.35493 32.3908 7.56494 34.8408 6.76494 37.0608C4.34494 43.7408 4.32494 67.2708 9.29494 78.1008L9.30494 78.1108Z" fill="url(#paint13_linear_237_2264)"/>
<path d="M10.3561 74.0408C10.9961 75.2008 11.7161 76.2908 12.5061 77.2908C13.1261 78.0608 13.8161 78.7808 14.6061 79.4308V79.4508C26.3161 89.2708 54.9061 85.7108 62.9461 80.2008C66.5261 77.7508 70.4561 72.5108 73.3861 66.4008C73.3961 66.3708 73.4161 66.3508 73.4161 66.3208C75.9661 60.9808 77.7461 54.9808 77.8461 49.6008C78.0461 38.0608 69.7261 27.2408 61.5861 26.7708C53.4561 26.2908 43.5061 33.5408 33.3061 35.7208C23.0961 37.9008 19.8661 32.9108 17.7661 32.3008C16.2761 31.8608 13.4961 30.5108 9.52608 35.3108C5.13608 40.6408 3.27608 61.3608 10.3461 74.0308L10.3561 74.0408Z" fill="url(#paint14_radial_237_2264)"/>
<path style="mix-blend-mode:multiply" opacity="0.5" d="M10.7455 80.6407C16.9955 89.2507 37.0955 96.4507 43.5455 99.7407C43.5455 99.7407 48.1455 102.561 56.9255 98.0807C56.9255 98.0807 73.5555 94.2507 79.6255 88.7107C80.8955 87.5507 82.4055 85.5707 83.9355 83.0207C79.8455 84.5407 68.1555 88.4808 53.4955 89.8008C33.7655 91.5808 20.7855 89.7707 10.7455 80.6407Z" fill="url(#paint15_linear_237_2264)"/>
<g style="mix-blend-mode:multiply" opacity="0.8">
<path d="M88.2449 63.5008C88.2449 63.5008 88.1149 59.5008 84.2149 60.6308C80.3149 61.7608 75.6749 75.6208 75.6749 75.6208C75.6749 75.6208 75.8649 67.7808 80.3149 60.7408C84.7649 53.7008 87.7949 51.7108 89.6849 52.3808C91.5749 53.0608 90.5449 62.3708 90.1549 63.3908C89.7649 64.4208 88.4849 66.2408 88.4849 66.2408L88.2349 63.5008H88.2449Z" fill="#2927AB"/>
</g>
<path d="M86.456 72.0508C89.306 69.2608 95.186 60.5608 96.066 45.1108C96.356 40.0108 96.106 34.1808 95.026 27.5808C90.656 0.980782 79.486 -3.71922 81.566 2.37078C81.566 2.37078 81.576 2.39078 81.596 2.45078C88.456 22.6008 93.706 54.5608 90.746 59.6208C87.776 64.6908 87.566 64.0708 87.566 64.0708C84.756 67.1308 84.936 73.9308 86.456 72.0508Z" fill="url(#paint16_linear_237_2264)"/>
<g style="mix-blend-mode:multiply" opacity="0.3">
<path d="M86.4545 72.0508C89.3045 69.2608 95.1845 60.5608 96.0645 45.1108C94.8245 49.0308 93.2345 48.5008 90.1145 31.5408C87.1145 15.3708 82.0645 3.52081 81.5945 2.45081C88.4545 22.6008 93.7045 54.5608 90.7445 59.6208C87.7745 64.6908 87.5645 64.0708 87.5645 64.0708C84.7545 67.1308 84.9345 73.9308 86.4545 72.0508Z" fill="#AB2781"/>
</g>
<g style="mix-blend-mode:multiply" opacity="0.5">
<path d="M10.3561 74.0408L14.5861 79.3908C13.8161 78.2608 1.15607 59.0908 22.3361 53.3308C44.1261 47.4108 78.7861 55.0808 73.4161 66.3308C75.9661 60.9908 77.7461 54.9908 77.8461 49.6108C78.0461 38.0708 69.7261 27.2508 61.5861 26.7808C53.4561 26.3008 43.5061 33.5508 33.3061 35.7308C23.0961 37.9108 19.8661 32.9208 17.7661 32.3108C16.2761 31.8708 13.4961 30.5208 9.52608 35.3208C5.13608 40.6508 3.27608 61.3708 10.3461 74.0408H10.3561Z" fill="#AB2781"/>
</g>
<path d="M30.9057 49.4307C44.6857 47.2507 49.0357 31.9407 43.5657 25.8007C42.9457 25.1007 42.1957 24.5207 41.3157 24.0907C33.6457 20.3707 23.8357 24.0707 20.2157 29.8507C19.1857 31.5007 18.4857 33.5007 18.1857 35.6007C17.1557 42.7907 20.6957 51.0407 30.9157 49.4307H30.9057Z" fill="url(#paint17_linear_237_2264)"/>
<path d="M29.7254 41.7708C37.1454 40.6108 40.0054 31.4808 36.8454 27.9608C36.4954 27.5608 36.0554 27.2508 35.5554 27.0408C31.2654 25.2408 26.1054 27.9708 24.3554 31.3608C23.8754 32.2908 23.5654 33.4008 23.4354 34.5308C23.0254 38.3208 24.7454 42.5608 29.7154 41.7808L29.7254 41.7708Z" fill="#36ACE3"/>
<path d="M29.9754 41.7308C36.3054 40.7408 38.6954 33.0208 36.0354 30.0208C35.7354 29.6808 35.3754 29.4108 34.9454 29.2308C31.3054 27.6508 26.8854 29.9008 25.3654 32.7708C24.9454 33.5708 24.6654 34.5108 24.5554 35.4808C24.1854 38.7408 25.6754 42.4108 29.9754 41.7308Z" fill="#75E4FF"/>
<path d="M28.0869 40.1091C27.8206 39.9346 27.565 39.7143 27.372 39.4376C28.9704 41.0183 31.2849 40.261 31.2849 40.261C29.5201 40.1865 27.0833 39.0532 26.9788 36.5083C26.8442 33.2253 29.0766 31.9275 30.5059 32.0854C32.4706 32.3024 33.605 35.2994 31.5698 37.0553C32.5944 35.9543 32.6596 33.6325 31.2754 32.8284C29.8942 32.0261 28.4844 32.9718 27.6208 34.056C27.6208 34.056 27.9594 33.7757 28.4443 33.5015C28.1174 33.821 27.5256 34.5392 27.4021 35.4991C27.2607 36.5969 27.5522 37.5176 27.9685 38.107C29.1777 39.8205 31.5439 39.8341 31.5439 39.8341C30.2569 39.6458 28.7456 38.701 28.193 37.4223C27.9758 36.9193 27.8698 36.2109 27.9598 35.617C28.0324 35.1356 28.2338 34.6722 28.5142 34.2915C28.7843 33.9249 29.1856 33.5536 29.66 33.4602C30.2531 33.3439 30.945 33.6367 31.2636 34.4183C31.5017 35.0024 31.347 35.6545 31.0134 36.2433C31.2236 35.5807 31.0767 34.8209 30.6581 34.4032C30.2396 33.9855 29.54 33.862 29.048 34.2818C27.9741 35.1978 28.1841 37.0313 28.9986 37.9934C29.6162 38.7231 30.6167 39.2919 31.4981 39.36C33.4394 39.5096 34.633 37.9808 35.0386 37.2423C35.0386 37.2423 34.0454 38.475 33.004 38.7521C34.7927 37.8053 36.1312 35.6324 35.7227 32.8416C35.7227 32.8416 35.7741 34.4983 34.9809 36.0062C36.2041 32.0701 33.6607 29.1412 31.2914 29.2845C31.2914 29.2845 32.8792 29.4567 33.6647 30.7361C32.0624 29.2904 29.4943 29.3192 27.4099 30.8277C27.4099 30.8277 30.5749 29.2986 32.652 31.1101C33.8416 32.148 34.1959 33.5385 34.1023 34.8923C34.0782 35.241 33.9972 35.5409 33.9074 35.7993C34.1805 34.0477 33.5289 31.8369 32.0053 31.0381C30.9055 30.3782 29.5756 30.3187 28.2698 30.925C27.2539 31.3973 26.3147 32.3442 25.7054 33.4514C25.2998 34.1882 25.1101 34.9568 24.9011 35.7701C24.9011 35.7701 25.2825 34.2851 25.9879 33.5021C24.9225 35.4503 24.7209 38.1376 26.2423 40.24C26.2423 40.24 25.5933 39.0992 25.5502 37.6281C26.2989 40.5628 29.7044 42.7223 33.3242 40.2695C33.3242 40.2695 30.2728 41.5418 28.087 40.1097L28.0869 40.1091ZM30.6322 37.4997C30.601 37.5624 30.5353 37.5885 30.4856 37.5579L30.4241 37.5201C30.3745 37.4895 30.3087 37.5156 30.2775 37.5782L30.1801 37.7742C30.1489 37.8368 30.0831 37.8629 30.0335 37.8323C29.9838 37.8018 29.9687 37.7259 29.9999 37.6632L30.0973 37.4673C30.1285 37.4046 30.1134 37.3287 30.0638 37.2981L30.0023 37.2603C29.9527 37.2297 29.9376 37.1538 29.9688 37.0912C29.9999 37.0286 30.0657 37.0025 30.1154 37.033L30.1768 37.0709C30.2265 37.1015 30.2923 37.0754 30.3234 37.0127L30.4209 36.8168C30.452 36.7541 30.5178 36.728 30.5675 36.7586C30.6172 36.7892 30.6322 36.8651 30.6011 36.9277L30.5036 37.1237C30.4725 37.1863 30.4875 37.2622 30.5372 37.2928L30.5986 37.3306C30.6483 37.3612 30.6634 37.4371 30.6322 37.4997ZM30.8545 38.5446C30.8435 38.5667 30.8207 38.5757 30.8032 38.5649L30.7818 38.5518C30.7643 38.541 30.7415 38.55 30.7305 38.5721L30.6966 38.6404C30.6856 38.6625 30.6628 38.6715 30.6453 38.6607C30.6278 38.6499 30.6226 38.6237 30.6336 38.6016L30.6675 38.5333C30.6785 38.5112 30.6733 38.4849 30.6558 38.4741L30.6344 38.461C30.6169 38.4502 30.6117 38.4239 30.6227 38.4018C30.6337 38.3798 30.6565 38.3707 30.674 38.3815L30.6953 38.3946C30.7125 38.4052 30.7356 38.3964 30.7466 38.3743L30.7805 38.306C30.7915 38.2839 30.8143 38.2749 30.8318 38.2857C30.8493 38.2965 30.8546 38.3228 30.8436 38.3448L30.8096 38.4131C30.7986 38.4352 30.8039 38.4615 30.8214 38.4723L30.8427 38.4854C30.8602 38.4962 30.8654 38.5225 30.8545 38.5446ZM34.4451 32.4136C34.4341 32.4357 34.4113 32.4448 34.3938 32.434L34.3725 32.4209C34.355 32.4101 34.3322 32.4191 34.3212 32.4412L34.2873 32.5095C34.2763 32.5316 34.2535 32.5406 34.236 32.5298C34.2185 32.519 34.2132 32.4927 34.2242 32.4706L34.2582 32.4024C34.2692 32.3803 34.2639 32.354 34.2464 32.3432L34.2251 32.3301C34.2076 32.3193 34.2024 32.293 34.2134 32.2709C34.2243 32.2488 34.2471 32.2398 34.2647 32.2506L34.286 32.2637C34.3035 32.2745 34.3263 32.2655 34.3373 32.2434L34.3712 32.1751C34.3822 32.153 34.405 32.144 34.4225 32.1548C34.44 32.1656 34.4452 32.1918 34.4343 32.2139L34.4003 32.2822C34.3893 32.3043 34.3945 32.3306 34.412 32.3414L34.4334 32.3545C34.4509 32.3653 34.4561 32.3916 34.4451 32.4136ZM34.9804 36.0064C34.962 36.0417 34.943 36.0767 34.9236 36.1114C34.9397 36.0589 34.9547 36.0063 34.9692 35.9528L34.9804 36.0064ZM33.109 37.9355C33.12 37.9134 33.1428 37.9044 33.1603 37.9152L33.1816 37.9283C33.1991 37.9391 33.2219 37.9301 33.2329 37.908L33.2668 37.8397C33.2778 37.8176 33.3006 37.8086 33.3181 37.8194C33.3356 37.8301 33.3409 37.8564 33.3299 37.8785L33.2959 37.9468C33.2849 37.9689 33.2902 37.9952 33.3077 38.006L33.329 38.0191C33.3465 38.0299 33.3517 38.0562 33.3407 38.0782C33.3298 38.1003 33.307 38.1094 33.2895 38.0986L33.2681 38.0855C33.2506 38.0747 33.2278 38.0837 33.2168 38.1058L33.1829 38.1741C33.1719 38.1961 33.1491 38.2052 33.1316 38.1944C33.1141 38.1836 33.1089 38.1573 33.1199 38.1352L33.1538 38.067C33.1648 38.0449 33.1596 38.0186 33.1421 38.0078L33.1207 37.9947C33.1032 37.9839 33.098 37.9576 33.109 37.9355ZM32.8814 36.8187C32.8986 36.7842 32.9346 36.7702 32.9617 36.7868L32.9954 36.8076C33.0228 36.8245 33.0587 36.8099 33.0757 36.7758L33.1292 36.6682C33.1464 36.6336 33.1822 36.6194 33.2095 36.6363C33.2369 36.6532 33.2449 36.6948 33.2279 36.7289L33.1744 36.8365C33.1572 36.8711 33.1654 36.9123 33.1928 36.9292L33.2265 36.95C33.2539 36.9668 33.2621 37.008 33.2449 37.0426C33.2278 37.0771 33.1917 37.0911 33.1646 37.0744L33.1309 37.0537C33.1035 37.0368 33.0678 37.051 33.0506 37.0855L32.9971 37.1931C32.9799 37.2277 32.9438 37.2416 32.9168 37.225C32.8897 37.2083 32.8814 37.1665 32.8984 37.1323L32.9519 37.0247C32.9691 36.9902 32.9609 36.949 32.9335 36.9321L32.8998 36.9113C32.8724 36.8945 32.8644 36.8528 32.8814 36.8187ZM31.6377 31.7412C31.6527 31.7111 31.6841 31.699 31.7077 31.7135L31.737 31.7315C31.7608 31.7462 31.7921 31.7335 31.8069 31.7038L31.8536 31.6098C31.8686 31.5797 31.9 31.5676 31.9236 31.5821C31.9471 31.5966 31.9544 31.633 31.9396 31.6628L31.8929 31.7567C31.8779 31.7868 31.8853 31.8229 31.9089 31.8374L31.9382 31.8554C31.962 31.8701 31.969 31.9064 31.9542 31.9361C31.9392 31.9662 31.9078 31.9784 31.8842 31.9639L31.855 31.9458C31.8311 31.9311 31.7998 31.9438 31.785 31.9736L31.7383 32.0675C31.7233 32.0976 31.6919 32.1098 31.6683 32.0953C31.6448 32.0808 31.6376 32.0443 31.6523 32.0146L31.6991 31.9206C31.714 31.8905 31.7066 31.8545 31.683 31.84L31.6538 31.8219C31.6299 31.8072 31.623 31.771 31.6377 31.7412ZM31.0515 31.2911C31.0625 31.269 31.0853 31.26 31.1028 31.2707L31.1242 31.2839C31.1417 31.2947 31.1645 31.2856 31.1754 31.2635L31.2094 31.1953C31.2204 31.1732 31.2432 31.1641 31.2607 31.1749C31.2782 31.1857 31.2834 31.212 31.2724 31.2341L31.2385 31.3023C31.2275 31.3244 31.2327 31.3507 31.2502 31.3615L31.2716 31.3746C31.2891 31.3854 31.2943 31.4117 31.2833 31.4338C31.2723 31.4559 31.2495 31.4649 31.232 31.4541L31.2107 31.441C31.1932 31.4302 31.1704 31.4393 31.1594 31.4614L31.1254 31.5296C31.1145 31.5517 31.0917 31.5607 31.0742 31.55C31.0566 31.5392 31.0514 31.5129 31.0624 31.4908L31.0964 31.4225C31.1073 31.4005 31.1021 31.3742 31.0846 31.3634L31.0633 31.3502C31.0458 31.3395 31.0406 31.3132 31.0515 31.2911ZM26.086 35.4796C26.0751 35.5017 26.0523 35.5108 26.0347 35.5L26.0134 35.4868C25.9959 35.4761 25.9731 35.4851 25.9621 35.5072L25.9282 35.5754C25.9172 35.5975 25.8944 35.6066 25.8769 35.5958C25.8594 35.585 25.8542 35.5587 25.8651 35.5366L25.8991 35.4684C25.9101 35.4463 25.9049 35.42 25.8874 35.4092L25.866 35.3961C25.8485 35.3853 25.8433 35.359 25.8543 35.3369C25.8653 35.3148 25.8881 35.3058 25.9056 35.3166L25.9269 35.3297C25.9444 35.3405 25.9672 35.3314 25.9782 35.3094L26.0121 35.2411C26.0231 35.219 26.0459 35.21 26.0634 35.2208C26.0809 35.2315 26.0862 35.2578 26.0752 35.2799L26.0412 35.3482C26.0302 35.3703 26.0355 35.3966 26.053 35.4073L26.0743 35.4205C26.0918 35.4313 26.097 35.4575 26.086 35.4796ZM28.0402 32.0756L28.0189 32.0624C28.0014 32.0517 27.9786 32.0607 27.9676 32.0828L27.9336 32.1511C27.9227 32.1731 27.8999 32.1822 27.8824 32.1714C27.8648 32.1606 27.8596 32.1343 27.8706 32.1122L27.9046 32.044C27.9155 32.0219 27.9103 31.9956 27.8928 31.9848L27.8715 31.9717C27.854 31.9609 27.8488 31.9346 27.8597 31.9125C27.8707 31.8904 27.8935 31.8814 27.911 31.8922L27.9324 31.9053C27.9499 31.9161 27.9727 31.907 27.9836 31.885L28.0176 31.8167C28.0286 31.7946 28.0514 31.7856 28.0689 31.7964C28.0864 31.8071 28.0916 31.8334 28.0806 31.8555L28.0467 31.9238C28.0357 31.9459 28.0409 31.9722 28.0584 31.9829L28.0798 31.9961C28.0973 32.0069 28.1025 32.0332 28.0915 32.0552C28.0805 32.0773 28.0577 32.0864 28.0402 32.0756ZM26.2762 36.6458C26.259 36.6803 26.2233 36.6945 26.1959 36.6777L26.1622 36.6569C26.1348 36.64 26.099 36.6542 26.0819 36.6887L26.0283 36.7963C26.0112 36.8309 25.9754 36.845 25.948 36.8282C25.9207 36.8113 25.9125 36.7701 25.9297 36.7356L25.9832 36.6279C26.0004 36.5934 25.9918 36.552 25.9648 36.5353L25.931 36.5145C25.9037 36.4977 25.8955 36.4564 25.9127 36.4219C25.9298 36.3874 25.9656 36.3732 25.993 36.3901L26.0267 36.4108C26.0541 36.4277 26.0898 36.4135 26.107 36.379L26.1605 36.2714C26.1777 36.2368 26.2134 36.2227 26.2408 36.2395C26.2682 36.2564 26.2764 36.2976 26.2592 36.3322L26.2057 36.4398C26.1885 36.4743 26.197 36.5157 26.2241 36.5324L26.2578 36.5532C26.2852 36.57 26.2932 36.6117 26.2762 36.6458Z" fill="#000AFF"/>
<path style="mix-blend-mode:multiply" opacity="0.5" d="M30.9057 49.4308C44.6857 47.2508 49.0357 31.9408 43.5657 25.8008C46.3257 30.4308 43.4057 41.6308 33.8357 46.0008C24.2757 50.3608 17.8357 44.3808 18.1857 35.6608C18.1857 35.6408 18.1857 35.6108 18.1857 35.6008C17.1557 42.7908 20.6957 51.0408 30.9157 49.4308H30.9057Z" fill="url(#paint18_linear_237_2264)"/>
<g style="mix-blend-mode:overlay">
<path d="M64.5344 81.9307C65.7244 82.2207 61.6544 88.2707 53.6844 89.1007C45.7144 89.9307 45.1844 88.4007 45.1644 87.3307C45.1444 86.2707 62.4844 81.4307 64.5344 81.9207V81.9307Z" fill="white"/>
</g>
<g style="mix-blend-mode:soft-light" opacity="0.5">
<path d="M63.0858 58.7307C67.5558 60.6207 64.0558 72.5207 55.0958 72.6807C46.1358 72.8407 53.5958 54.7107 63.0858 58.7307Z" fill="white"/>
</g>
<path d="M57.4953 43.7208C59.2953 44.0408 57.1753 48.6908 55.2853 48.2808C53.3853 47.8708 54.6353 43.2108 57.4953 43.7208Z" fill="white"/>
<path d="M37.0556 39.2009C38.9256 39.0409 38.2356 42.5509 35.2956 42.7009C32.3556 42.8509 35.3656 39.3409 37.0556 39.2009Z" fill="white"/>
<path d="M23.4358 41.3308C24.4858 41.1608 24.1658 43.1808 23.7658 43.1908C23.3658 43.2008 21.4358 41.6508 23.4358 41.3308Z" fill="white"/>
<g style="mix-blend-mode:overlay">
<path d="M22.6746 87.2307C24.1046 87.5607 19.2245 82.7807 15.4745 81.3707C11.7145 79.9607 11.6746 81.0407 11.6746 81.0407C11.6746 81.0407 16.1746 85.7407 22.6746 87.2207V87.2307Z" fill="white"/>
</g>
<g style="mix-blend-mode:overlay">
<path d="M93.0061 41.9608C93.6161 43.1208 95.9161 34.8608 92.6461 28.5208C89.3761 22.1808 89.2261 25.2008 89.2261 25.2008C89.2261 25.2008 90.9161 37.9708 93.0061 41.9608Z" fill="white"/>
</g>
<path d="M85.9043 63.2608C86.7343 63.5308 85.5343 66.4008 83.4843 66.7108C81.4343 67.0208 81.7443 61.8908 85.9043 63.2608Z" fill="white"/>
<g style="mix-blend-mode:multiply" opacity="0.3">
<path d="M55.2058 97.1008C56.1658 95.7708 57.8458 93.0208 53.2658 91.1608C48.6858 89.3008 44.2658 91.5008 35.5358 90.2208C26.7958 88.9408 23.7158 88.2808 23.7158 88.2808C23.7158 88.2808 34.1958 96.8008 42.1458 98.6108C50.0958 100.421 55.2058 97.1008 55.2058 97.1008Z" fill="#E767A7"/>
</g>
<path d="M11.5149 113.921C12.6849 116.711 18.2349 121.081 23.8649 124.181H23.8849C33.9149 120.111 31.1949 110.391 31.1949 110.391L29.3049 109.881C29.0449 109.741 28.8749 109.571 28.8049 109.361C28.4149 108.271 26.7349 107.011 24.7349 105.061C22.7349 103.121 21.0949 102.021 20.6249 102.111C20.1549 102.181 19.1449 103.561 20.1349 106.271C20.1349 106.271 21.2749 107.121 21.3249 107.871C21.3249 107.871 15.8649 103.981 12.7449 104.241C9.62491 104.501 9.4649 109.121 11.5049 113.941L11.5149 113.921Z" fill="url(#paint19_linear_237_2264)"/>
<path d="M15.5791 101.48C19.736 103.834 22.6395 106.854 21.5233 109.989C21.431 110.251 20.5893 111.638 20.451 111.882C18.6314 115.067 13.5195 115.577 9.01563 113.026C4.51176 110.475 2.33629 105.815 4.14981 102.627C4.26446 102.424 5.2315 100.66 5.36713 100.477C7.43603 97.8036 11.3586 99.0814 15.573 101.476L15.5791 101.48Z" fill="url(#paint20_radial_237_2264)"/>
<path d="M16.7968 99.33C21.3007 101.881 23.4761 106.542 21.6626 109.729C19.8491 112.917 14.7338 113.433 10.2394 110.88C5.73893 108.323 3.554 103.665 5.36751 100.477C7.18103 97.2892 12.2963 96.7733 16.7968 99.33Z" fill="url(#paint21_linear_237_2264)"/>
<g style="mix-blend-mode:soft-light">
<path d="M6.50113 107.701L22.0279 105.423L21.0238 103.25L4.74017 102.678C4.74017 102.678 4.4946 104.772 6.50113 107.701Z" fill="#00B2FF"/>
</g>
<path d="M15.8325 101.033C19.0095 102.832 20.5488 106.118 19.2647 108.371C19.2175 108.454 19.1703 108.538 19.1143 108.608C17.7272 110.646 14.262 110.917 11.2006 109.183C8.14523 107.452 6.61697 104.346 7.63212 102.113C7.67662 102.02 7.71774 101.934 7.76832 101.844C9.04297 99.5937 12.6554 99.2333 15.8291 101.039L15.8325 101.033Z" fill="url(#paint22_radial_237_2264)"/>
<path d="M15.5353 101.557C18.5784 103.281 20.1195 106.379 19.1138 108.609C17.7267 110.646 14.2615 110.917 11.2001 109.183C8.14477 107.453 6.61651 104.346 7.63167 102.114C9.03026 100.098 12.4799 99.8267 15.5319 101.563L15.5353 101.557Z" fill="url(#paint23_linear_237_2264)"/>
<path d="M17.0151 107.26C16.8717 107.464 16.6933 107.658 16.4736 107.803C17.7454 106.592 17.2413 104.769 17.2413 104.769C17.1237 106.144 16.1677 108.019 14.2043 108.042C11.6716 108.072 10.7484 106.301 10.9189 105.19C11.1531 103.662 13.4998 102.846 14.7824 104.474C13.9695 103.649 12.1838 103.545 11.5173 104.606C10.8523 105.665 11.5324 106.787 12.3378 107.485C12.3378 107.485 12.1335 107.215 11.9389 106.83C12.1738 107.093 12.7067 107.571 13.4416 107.689C14.2822 107.824 15.0012 107.618 15.4693 107.307C16.8301 106.403 16.9214 104.557 16.9214 104.557C16.7324 105.557 15.9532 106.714 14.9497 107.116C14.5549 107.274 14.0058 107.34 13.5515 107.257C13.1833 107.189 12.8332 107.021 12.5497 106.794C12.2766 106.575 12.0044 106.253 11.9486 105.881C11.8793 105.416 12.1285 104.883 12.7412 104.652C13.1992 104.48 13.6961 104.615 14.1381 104.889C13.635 104.71 13.0449 104.807 12.7089 105.124C12.373 105.441 12.254 105.984 12.5605 106.377C13.2291 107.236 14.6483 107.114 15.417 106.501C16 106.036 16.4722 105.268 16.5548 104.582C16.7362 103.071 15.5997 102.105 15.0449 101.772C15.0449 101.772 15.9602 102.575 16.138 103.394C15.47 101.977 13.8425 100.883 11.6794 101.137C11.6794 101.137 12.9569 101.135 14.091 101.788C11.1017 100.744 8.75933 102.661 8.78881 104.513C8.78881 104.513 8.97558 103.278 9.98767 102.695C8.81966 103.911 8.75413 105.915 9.84461 107.576C9.84461 107.576 8.77518 105.072 10.2411 103.493C11.081 102.589 12.1639 102.344 13.2032 102.448C13.4709 102.475 13.6991 102.545 13.895 102.621C12.5555 102.368 10.8307 102.826 10.1636 103.996C9.6178 104.839 9.5266 105.875 9.9489 106.907C10.2779 107.711 10.975 108.465 11.8068 108.966C12.3604 109.299 12.9458 109.465 13.5649 109.646C13.5649 109.646 12.4343 109.315 11.8555 108.747C13.3193 109.622 15.3819 109.841 17.0529 108.702C17.0529 108.702 16.1522 109.182 15.0179 109.182C17.3034 108.666 19.0827 106.058 17.3175 103.178C17.3175 103.178 18.1931 105.588 17.0156 107.26L17.0151 107.26ZM15.0926 105.215C15.1398 105.241 15.1577 105.293 15.1324 105.331L15.1012 105.378C15.0759 105.416 15.0938 105.468 15.141 105.494L15.2885 105.574C15.3357 105.6 15.3536 105.652 15.3283 105.69C15.3031 105.728 15.2441 105.738 15.1969 105.712L15.0494 105.632C15.0022 105.606 14.9432 105.616 14.918 105.654L14.8867 105.701C14.8615 105.739 14.8025 105.749 14.7554 105.723C14.7082 105.698 14.6903 105.646 14.7156 105.608L14.7468 105.561C14.7721 105.522 14.7542 105.471 14.707 105.445L14.5595 105.364C14.5123 105.339 14.4944 105.287 14.5197 105.249C14.5449 105.211 14.6039 105.201 14.6511 105.226L14.7986 105.307C14.8458 105.333 14.9048 105.323 14.93 105.284L14.9613 105.237C14.9865 105.199 15.0455 105.189 15.0926 105.215ZM15.9048 105.066C15.9215 105.075 15.9276 105.093 15.9187 105.106L15.9079 105.122C15.899 105.136 15.9052 105.154 15.9218 105.163L15.9732 105.191C15.9898 105.2 15.996 105.218 15.9871 105.231C15.9782 105.245 15.9578 105.248 15.9412 105.239L15.8898 105.211C15.8731 105.202 15.8527 105.206 15.8438 105.219L15.833 105.235C15.8241 105.249 15.8036 105.252 15.787 105.243C15.7704 105.234 15.7642 105.216 15.7731 105.203L15.7839 105.186C15.7927 105.173 15.7866 105.155 15.77 105.146L15.7186 105.118C15.702 105.109 15.6958 105.091 15.7047 105.077C15.7136 105.064 15.734 105.06 15.7507 105.07L15.8021 105.098C15.8187 105.107 15.8391 105.103 15.848 105.09L15.8589 105.073C15.8678 105.06 15.8882 105.057 15.9048 105.066ZM11.3062 102.124C11.3228 102.133 11.329 102.151 11.3201 102.165L11.3093 102.181C11.3004 102.194 11.3065 102.212 11.3232 102.221L11.3746 102.25C11.3912 102.259 11.3974 102.277 11.3885 102.29C11.3796 102.303 11.3592 102.307 11.3425 102.298L11.2911 102.27C11.2745 102.261 11.2541 102.264 11.2452 102.278L11.2343 102.294C11.2254 102.307 11.205 102.311 11.1884 102.302C11.1717 102.293 11.1655 102.275 11.1744 102.261L11.1853 102.245C11.1942 102.232 11.188 102.214 11.1714 102.204L11.12 102.176C11.1033 102.167 11.0972 102.149 11.1061 102.136C11.115 102.123 11.1354 102.119 11.152 102.128L11.2034 102.156C11.2201 102.165 11.2405 102.162 11.2494 102.148L11.2602 102.132C11.2691 102.119 11.2896 102.115 11.3062 102.124ZM14.0912 101.789C14.1177 101.804 14.144 101.82 14.1701 101.836C14.1302 101.822 14.0902 101.809 14.0495 101.796L14.0912 101.789ZM15.5128 103.293C15.4962 103.284 15.49 103.266 15.4989 103.252L15.5098 103.236C15.5187 103.223 15.5125 103.205 15.4958 103.196L15.4444 103.168C15.4278 103.159 15.4216 103.141 15.4305 103.127C15.4394 103.114 15.4598 103.11 15.4765 103.119L15.5279 103.147C15.5445 103.156 15.5649 103.153 15.5738 103.14L15.5847 103.123C15.5936 103.11 15.614 103.106 15.6306 103.115C15.6473 103.124 15.6535 103.142 15.6446 103.156L15.6337 103.172C15.6248 103.186 15.631 103.204 15.6476 103.213L15.699 103.241C15.7157 103.25 15.7219 103.268 15.713 103.281C15.7041 103.295 15.6836 103.298 15.667 103.289L15.6156 103.261C15.599 103.252 15.5785 103.255 15.5696 103.269L15.5588 103.285C15.5499 103.299 15.5295 103.302 15.5128 103.293ZM14.645 103.445C14.619 103.431 14.6095 103.402 14.6232 103.382L14.6404 103.356C14.6543 103.335 14.6443 103.306 14.6186 103.292L14.5375 103.248C14.5115 103.234 14.5018 103.206 14.5158 103.185C14.5297 103.164 14.562 103.158 14.5877 103.173L14.6688 103.217C14.6948 103.231 14.7268 103.225 14.7407 103.205L14.7579 103.179C14.7718 103.158 14.8038 103.152 14.8298 103.166C14.8558 103.181 14.8654 103.209 14.8516 103.23L14.8345 103.256C14.8205 103.277 14.8302 103.305 14.8562 103.319L14.9373 103.363C14.9633 103.377 14.9728 103.406 14.9591 103.427C14.9453 103.447 14.9128 103.453 14.8871 103.439L14.8061 103.395C14.7801 103.38 14.748 103.386 14.7341 103.407L14.717 103.433C14.703 103.454 14.6707 103.459 14.645 103.445ZM10.6925 104.299C10.6698 104.286 10.6615 104.262 10.6735 104.244L10.6884 104.221C10.7005 104.203 10.6918 104.178 10.6694 104.166L10.5987 104.127C10.576 104.115 10.5677 104.09 10.5797 104.072C10.5917 104.054 10.62 104.049 10.6424 104.062L10.7131 104.1C10.7358 104.113 10.7638 104.108 10.7758 104.09L10.7907 104.067C10.8028 104.049 10.831 104.044 10.8534 104.056C10.876 104.069 10.8843 104.094 10.8723 104.112L10.8574 104.134C10.8453 104.152 10.854 104.177 10.8764 104.189L10.9472 104.228C10.9699 104.24 10.9781 104.265 10.9662 104.283C10.9542 104.301 10.9259 104.306 10.9035 104.294L10.8327 104.255C10.81 104.243 10.782 104.248 10.77 104.266L10.7552 104.288C10.743 104.306 10.7149 104.311 10.6925 104.299ZM10.3258 104.746C10.3092 104.737 10.303 104.719 10.3119 104.705L10.3227 104.689C10.3316 104.676 10.3254 104.658 10.3088 104.649L10.2574 104.62C10.2408 104.611 10.2346 104.593 10.2435 104.58C10.2524 104.567 10.2728 104.563 10.2895 104.572L10.3409 104.6C10.3575 104.609 10.3779 104.606 10.3868 104.592L10.3977 104.576C10.4066 104.563 10.427 104.559 10.4436 104.568C10.4603 104.577 10.4664 104.595 10.4575 104.609L10.4467 104.625C10.4378 104.639 10.444 104.656 10.4606 104.666L10.512 104.694C10.5287 104.703 10.5348 104.721 10.5259 104.734C10.517 104.748 10.4966 104.751 10.48 104.742L10.4286 104.714C10.4119 104.705 10.3915 104.708 10.3826 104.722L10.3718 104.738C10.3629 104.751 10.3424 104.755 10.3258 104.746ZM13.3817 108.715C13.3983 108.724 13.4045 108.742 13.3956 108.756L13.3848 108.772C13.3759 108.785 13.3821 108.803 13.3987 108.813L13.4501 108.841C13.4667 108.85 13.4729 108.868 13.464 108.881C13.4551 108.894 13.4347 108.898 13.4181 108.889L13.3666 108.861C13.35 108.852 13.3296 108.855 13.3207 108.869L13.3098 108.885C13.3009 108.898 13.2805 108.902 13.2639 108.893C13.2473 108.884 13.2411 108.866 13.25 108.852L13.2608 108.836C13.2697 108.823 13.2635 108.805 13.2469 108.795L13.1955 108.767C13.1789 108.758 13.1727 108.74 13.1816 108.727C13.1905 108.714 13.2109 108.71 13.2275 108.719L13.2789 108.747C13.2956 108.756 13.316 108.753 13.3249 108.739L13.3357 108.723C13.3446 108.71 13.3651 108.706 13.3817 108.715ZM10.8271 107.113L10.8162 107.129C10.8073 107.143 10.8135 107.161 10.8301 107.17L10.8815 107.198C10.8982 107.207 10.9044 107.225 10.8955 107.238C10.8866 107.252 10.8661 107.255 10.8495 107.246L10.7981 107.218C10.7815 107.209 10.761 107.212 10.7521 107.226L10.7413 107.242C10.7324 107.256 10.712 107.259 10.6953 107.25C10.6787 107.241 10.6725 107.223 10.6814 107.209L10.6923 107.193C10.7012 107.18 10.695 107.162 10.6783 107.153L10.6269 107.125C10.6103 107.116 10.6041 107.098 10.613 107.084C10.6219 107.071 10.6424 107.067 10.659 107.076L10.7104 107.104C10.727 107.113 10.7474 107.11 10.7563 107.097L10.7672 107.08C10.7761 107.067 10.7965 107.063 10.8132 107.072C10.8298 107.081 10.836 107.099 10.8271 107.113ZM14.2862 108.594C14.3122 108.608 14.3219 108.636 14.308 108.657L14.2909 108.683C14.277 108.704 14.2866 108.732 14.3127 108.746L14.3937 108.79C14.4197 108.805 14.4294 108.833 14.4155 108.854C14.4016 108.875 14.3695 108.88 14.3435 108.866L14.2625 108.822C14.2365 108.808 14.2043 108.813 14.1905 108.834L14.1734 108.86C14.1595 108.881 14.1274 108.886 14.1014 108.872C14.0754 108.858 14.0657 108.83 14.0796 108.809L14.0968 108.783C14.1107 108.762 14.101 108.734 14.075 108.719L13.994 108.675C13.9679 108.661 13.9582 108.633 13.9722 108.612C13.9861 108.591 14.0181 108.585 14.0441 108.6L14.1252 108.644C14.1512 108.658 14.1834 108.652 14.1971 108.632L14.2143 108.606C14.2282 108.585 14.2605 108.58 14.2862 108.594Z" fill="url(#paint24_radial_237_2264)"/>
<path d="M15.9064 99.8238C16.0905 99.5271 16.5236 99.4578 16.8821 99.6765C17.2405 99.8953 17.3816 100.313 17.1974 100.61C17.0133 100.907 16.5801 100.976 16.2217 100.757C15.8633 100.539 15.7222 100.121 15.9064 99.8238Z" fill="url(#paint25_radial_237_2264)"/>
<path d="M15.9505 99.9588C16.105 99.7003 16.478 99.6521 16.785 99.8338C17.092 100.016 17.2107 100.374 17.0563 100.632C16.9018 100.891 16.5288 100.939 16.2218 100.757C15.9181 100.57 15.7961 100.217 15.9505 99.9588Z" fill="url(#paint26_linear_237_2264)"/>
<path d="M6.35949 100.64C6.54364 100.343 6.97675 100.273 7.33519 100.492C7.69362 100.711 7.83468 101.129 7.65053 101.426C7.46638 101.722 7.03327 101.792 6.67484 101.573C6.3164 101.354 6.17534 100.936 6.35949 100.64Z" fill="url(#paint27_radial_237_2264)"/>
<path d="M6.40756 100.768C6.56201 100.509 6.935 100.461 7.24203 100.643C7.54906 100.825 7.66775 101.183 7.51329 101.441C7.35883 101.7 6.98584 101.748 6.67881 101.566C6.37516 101.379 6.2531 101.026 6.40756 100.768Z" fill="url(#paint28_linear_237_2264)"/>
<path d="M19.9552 108.355C20.1393 108.058 20.5725 107.989 20.9309 108.207C21.2893 108.426 21.4304 108.844 21.2462 109.141C21.0621 109.438 20.629 109.507 20.2705 109.288C19.9121 109.069 19.771 108.651 19.9552 108.355Z" fill="url(#paint29_radial_237_2264)"/>
<path d="M20.0072 108.493C20.1616 108.235 20.5346 108.187 20.8416 108.368C21.1453 108.556 21.2674 108.908 21.1129 109.167C20.9584 109.425 20.5855 109.474 20.2784 109.292C19.9714 109.11 19.8527 108.752 20.0072 108.493Z" fill="url(#paint30_linear_237_2264)"/>
<path d="M10.2853 109.719C10.4694 109.422 10.9025 109.353 11.261 109.571C11.6194 109.79 11.7605 110.208 11.5763 110.505C11.3922 110.802 10.9591 110.871 10.6006 110.652C10.2422 110.434 10.1011 110.015 10.2853 109.719Z" fill="url(#paint31_radial_237_2264)"/>
<path d="M10.3294 109.854C10.4839 109.595 10.8569 109.547 11.1639 109.729C11.4676 109.917 11.5896 110.269 11.4352 110.527C11.2807 110.786 10.9077 110.834 10.6007 110.652C10.2937 110.471 10.175 110.112 10.3294 109.854Z" fill="url(#paint32_linear_237_2264)"/>
<g style="mix-blend-mode:soft-light">
<path d="M5.29996 109.821L6.50042 107.701C6.50042 107.701 4.9827 106.094 4.62144 102.886L3.51293 105.042C3.51293 105.042 3.69629 108.11 5.29996 109.821Z" fill="#00B2FF"/>
</g>
<path d="M6.00873 106.952C6.14411 107.138 6.15931 105.11 5.70571 104.421C5.25211 103.731 4.93192 103.275 4.75295 103.378C4.57398 103.481 5.15722 105.801 6.00873 106.952Z" fill="white"/>
<path d="M21.8503 105.525C21.6855 106.171 21.0179 104 21.1597 103.891C21.3015 103.783 21.9969 104.94 21.8503 105.525Z" fill="white"/>
<path d="M21.4079 105.319C21.2491 105.952 20.6045 103.846 20.7412 103.738C20.8779 103.63 21.5491 104.745 21.4079 105.319Z" fill="white"/>
<path d="M11.5266 113.815C12.6966 116.605 18.2466 120.975 23.8766 124.075H23.8966C33.9266 120.005 31.2066 110.285 31.2066 110.285L29.3166 109.775C29.0566 109.635 28.8866 109.465 28.8166 109.255C28.4266 108.165 26.7466 106.905 24.7466 104.955C22.7466 103.015 21.1066 101.915 20.6366 102.005C20.1666 102.075 19.176 103.29 20.166 106C20.166 106 21.616 107.75 21.666 108.5C21.666 108.5 19.786 113.74 16.666 114C13.546 114.26 13.166 114.5 11.5166 113.835L11.5266 113.815Z" fill="url(#paint33_linear_237_2264)"/>
<path d="M75.4858 127.771C83.0358 128.231 85.1058 128.281 86.1658 134.501C87.2258 140.721 83.0958 149.471 75.4858 150.481C75.4858 150.481 77.0858 159.171 77.2758 164.111C77.4658 169.051 77.4958 170.051 77.0358 170.621C76.5758 171.191 71.5258 172.411 68.0458 172.751C64.5658 173.091 58.7358 174.881 51.4458 175.111C44.1558 175.331 40.1158 174.321 39.5558 173.991C38.9958 173.651 44.3558 161.761 45.8558 159.411C47.3558 157.051 46.3058 144.521 48.9558 140.741C54.3658 133.001 65.8358 127.191 75.4858 127.781V127.771Z" fill="url(#paint34_linear_237_2264)"/>
<path d="M83.3048 145.621C83.3048 145.621 90.6448 141.881 87.6448 129.291C84.6348 116.631 70.7748 116.631 58.1948 132.451C58.1948 132.451 67.5248 126.241 77.6448 127.911C87.7648 129.571 87.1148 140.331 83.2948 145.621H83.3048Z" fill="url(#paint35_linear_237_2264)"/>
<path d="M77.0352 165.691C77.0352 165.691 58.8252 155.201 45.8552 159.411L46.4452 157.281C46.4452 157.281 58.7652 154.721 77.0352 165.691Z" fill="url(#paint36_linear_237_2264)"/>
<path d="M85.4353 134.281C85.4353 134.281 81.6853 139.891 70.7753 145.051V162.321L68.7053 161.361C68.7053 161.361 69.7153 145.451 69.8953 144.611C70.0753 143.771 80.2053 140.791 85.4453 134.291L85.4353 134.281Z" fill="url(#paint37_linear_237_2264)"/>
<path d="M57.7255 134.441C61.0155 134.241 60.4155 145.711 54.2955 148.991C48.1755 152.271 46.9355 146.521 47.7755 142.741C48.6155 138.961 53.3455 134.711 57.7255 134.441Z" fill="url(#paint38_linear_237_2264)"/>
<path d="M57.7253 134.441C59.4853 134.701 58.9253 143.841 53.6253 147.211C48.3253 150.581 46.8453 147.681 47.4953 143.011C48.1453 138.341 53.7653 133.841 57.7253 134.441Z" fill="url(#paint39_linear_237_2264)"/>
<path d="M45.6257 121.601C45.9357 121.601 46.2257 121.511 46.4857 121.341C47.3357 120.771 47.8957 119.291 48.2357 116.691C48.7857 112.551 46.3957 107.961 44.9357 107.141C44.4257 106.851 44.0757 107.051 43.9557 107.151C41.9957 108.741 42.1057 113.051 42.8557 116.561C43.0257 117.331 43.9157 121.201 45.1857 121.541C45.3357 121.581 45.4757 121.601 45.6257 121.601ZM44.4657 107.891C45.2457 108.151 47.9057 112.481 47.3557 116.571C46.9757 119.391 46.4057 120.321 45.9857 120.601C45.8157 120.721 45.6257 120.741 45.4157 120.691C45.0257 120.541 43.9857 118.381 43.4757 114.991C42.9557 111.531 43.3257 108.891 44.4657 107.901V107.891Z" fill="url(#paint40_linear_237_2264)"/>
<path d="M76.9152 107.111C77.2052 107.151 77.3652 107.871 77.4452 108.331C77.4852 108.571 77.4952 108.741 77.4952 108.741C77.4952 108.741 74.8652 109.541 73.4052 112.021C71.9452 114.501 71.4852 115.521 71.9352 116.091C72.3952 116.641 73.9252 116.561 74.5852 115.791C75.2452 115.021 75.7252 114.921 75.7252 114.921C74.4152 117.721 74.3752 122.781 77.2852 124.161C82.3052 126.551 89.9852 118.261 91.3552 113.681C91.7152 112.481 92.0252 110.811 92.2452 108.951C92.4152 107.551 92.5452 106.051 92.6152 104.561C92.6152 104.561 92.6152 104.561 92.6152 104.541C92.8152 100.481 92.6052 96.5508 91.7752 95.2508C90.2352 92.8408 87.4452 91.4308 81.2452 92.9808C76.9852 94.0508 68.9952 95.1308 63.8552 96.5908C61.5052 97.2608 59.7452 98.0108 59.2052 98.8908C57.1152 102.241 64.2552 110.491 68.7352 109.821C68.8652 109.801 69.0152 109.781 69.1452 109.751C73.4352 109.021 76.5052 107.071 76.9252 107.121L76.9152 107.111Z" fill="url(#paint41_linear_237_2264)"/>
<path d="M69.1354 109.741C73.4254 109.011 76.4954 107.061 76.9154 107.111C76.9154 107.111 72.0054 103.401 73.3954 97.9808C74.7954 92.5708 87.0054 92.8608 89.2954 95.1108C91.5154 97.3008 92.5254 104.101 92.6054 104.531C92.8054 100.471 92.5954 96.5408 91.7654 95.2408C90.2254 92.8308 87.4354 91.4208 81.2354 92.9708C76.9754 94.0408 67.8854 95.4208 62.7454 96.8808C62.5854 97.0608 60.5154 100.761 63.3754 105.891C65.2154 109.201 67.5854 109.871 69.1354 109.731V109.741Z" fill="url(#paint42_linear_237_2264)"/>
<g style="mix-blend-mode:overlay">
<path d="M83.9155 95.4607C86.2055 95.6007 84.0855 99.6807 82.5155 99.6807C80.9455 99.6807 81.7355 95.3307 83.9155 95.4607Z" fill="white"/>
</g>
<g style="mix-blend-mode:multiply" opacity="0.5">
<path d="M76.9152 107.111C76.9152 107.111 73.8452 102.431 77.0352 98.9008C77.0352 98.9008 74.5252 99.9708 74.2952 102.791C74.0652 105.611 76.9152 107.111 76.9152 107.111Z" fill="#AB0481"/>
</g>
<path d="M65.0246 96.2808C65.0246 96.2808 59.2546 91.4608 55.5046 96.6808C51.6046 102.111 60.8146 114.321 66.9846 114.321C71.7746 114.321 70.7746 109.401 70.7746 109.401L68.7346 109.821C68.7346 109.821 63.5546 108.641 62.5046 102.501C61.5746 97.1008 62.9046 96.8808 62.9046 96.8808L65.0246 96.2808Z" fill="url(#paint43_linear_237_2264)"/>
<g style="mix-blend-mode:multiply" opacity="0.5">
<path d="M54.7852 99.0708C54.7852 99.0708 54.7252 110.821 48.9552 115.131C43.1852 119.441 41.0852 111.711 40.0152 105.571C38.9452 99.4308 41.2352 98.6508 41.2352 98.6508C41.2352 98.6508 42.8052 99.1508 43.8552 99.6708C44.9052 100.191 51.3952 100.371 54.7852 99.0708Z" fill="#E767A7"/>
</g>
<g style="mix-blend-mode:multiply" opacity="0.5">
<path d="M76.0059 120.161C76.0059 120.161 71.8959 122.391 65.5659 118.811C56.8959 113.921 55.1259 102.401 55.1259 102.401C55.1259 102.401 56.7659 107.571 60.8859 110.111C65.0059 112.651 64.2059 108.761 63.1159 105.821C62.0259 102.881 62.3659 101.711 62.3659 101.711C62.3659 101.711 66.1059 108.011 68.1259 109.021C70.1459 110.031 70.7659 109.401 70.7659 109.401C70.7659 109.401 71.5159 111.991 69.6659 113.511C69.6659 113.511 71.3659 115.131 75.1959 117.331L76.0059 120.161Z" fill="#AB2781"/>
</g>
<g style="mix-blend-mode:multiply" opacity="0.5">
<path d="M38.1042 106.331C38.1042 106.331 36.4942 107.781 34.3142 115.131C32.1242 122.481 34.7542 126.371 36.2142 126.601C37.6742 126.831 40.0442 126.121 43.5742 121.781L43.3042 120.171C43.3042 120.171 38.8942 116.161 38.1142 106.341L38.1042 106.331Z" fill="#AB2781"/>
</g>
<g style="mix-blend-mode:multiply" opacity="0.5">
<path d="M21.5606 108.74C21.5606 108.74 22.3948 109.411 22.5648 109.761C22.7348 110.111 21.7248 113.531 23.9648 116.731C23.9648 116.731 20.5821 117.017 19.2321 112.647C20.167 111.5 21.5606 108.74 21.5606 108.74Z" fill="#AB2781"/>
</g>
<g style="mix-blend-mode:multiply" opacity="0.5">
<path d="M20.114 102.396C20.114 102.396 19.602 103.236 19.7815 104.357C20.114 106.436 22.3297 107.612 21.4555 108.966C21.4555 108.966 20.5176 109.87 19.1676 105.5C19.1408 103.432 20.114 102.396 20.114 102.396Z" fill="#AB2781"/>
</g>
<g style="mix-blend-mode:multiply" opacity="0.8">
<path d="M11.5245 113.921C12.6945 116.721 18.2445 121.091 23.8745 124.181H23.8945C27.9745 126.431 32.0945 127.981 34.6045 127.761C35.1145 127.721 35.6345 127.611 36.1445 127.461C35.0845 127.731 30.7745 128.301 22.6745 122.491C13.4045 115.821 13.5081 114.505 13.4181 114.285L12.4692 114.155L11.5245 113.921Z" fill="#AB2781"/>
</g>
<g style="mix-blend-mode:multiply" opacity="0.2">
<path d="M113.484 158.451C112.724 155.911 108.844 154.181 107.924 148.301C106.994 142.411 109.664 138.321 109.664 138.321C109.664 138.321 113.504 137.521 113.864 143.081C114.234 148.641 113.484 158.451 113.484 158.451Z" fill="#C22781"/>
</g>
<g style="mix-blend-mode:multiply" opacity="0.2">
<path d="M46.5548 178.611C47.1848 178.681 47.8548 178.731 48.5248 178.751C53.3148 178.921 61.9848 177.741 66.6148 176.391C71.2448 175.051 76.8748 175.391 77.4648 174.621C76.5748 174.881 76.2348 172.761 74.9748 170.761C74.0848 169.371 72.7548 168.061 70.4848 167.641C67.4048 167.081 64.1248 169.341 61.3048 171.761C59.0448 173.671 57.0648 175.681 55.6748 176.391C53.3548 177.581 48.7448 178.321 46.5548 178.611Z" fill="#C22781"/>
</g>
<g style="mix-blend-mode:multiply" opacity="0.5">
<path d="M68.7051 161.351C68.7051 161.351 61.0051 157.161 53.6251 155.641C46.2351 154.131 46.4551 157.271 46.4551 157.271C46.4551 157.271 55.1751 155.721 68.7051 161.341V161.351Z" fill="#D14894"/>
</g>
<g style="mix-blend-mode:multiply" opacity="0.5">
<path d="M83.3058 145.621C83.3058 145.621 85.9958 136.311 79.9658 131.141C73.2858 125.411 60.8258 130.731 58.2058 132.451C58.2058 132.451 67.6058 124.631 76.5758 125.481C85.5458 126.321 87.6258 130.921 88.2958 133.281C88.9658 135.641 89.3358 141.151 83.3058 145.631V145.621Z" fill="#AB2781"/>
</g>
<g style="mix-blend-mode:soft-light" opacity="0.5">
<path d="M72.7347 121.381C74.3147 121.051 75.5147 123.651 75.2347 124.411C74.9547 125.171 69.2147 126.391 65.5847 127.871C61.9547 129.351 61.8847 129.211 61.8847 129.211C61.8847 129.211 66.2647 122.731 72.7347 121.391V121.381Z" fill="white"/>
</g>
<path d="M76.9544 123.981H76.9644C76.9644 123.981 76.9944 124.001 77.0244 124.011C79.1444 125.011 81.2044 125.071 84.2344 123.131C87.6444 120.951 90.5544 116.291 91.3444 113.671C91.7044 112.471 92.0144 110.801 92.2344 108.941C92.1244 108.821 92.0144 108.701 91.9044 108.581C85.6544 101.941 77.1344 107.311 77.1344 107.311C77.1744 107.551 77.4844 108.751 77.4844 108.751C77.4844 108.751 77.3044 108.801 77.0244 108.931C76.2144 109.271 74.1144 110.041 73.0244 111.881C71.5644 114.361 71.4644 115.531 71.9144 116.091C72.3744 116.641 73.9044 116.561 74.5644 115.791C75.2244 115.021 75.7044 114.921 75.7044 114.921C74.4344 118.101 74.0344 122.601 76.9344 123.981H76.9544Z" fill="url(#paint44_linear_237_2264)"/>
<g style="mix-blend-mode:multiply" opacity="0.5">
<path d="M71.935 116.091C72.395 116.641 73.925 116.561 74.585 115.791C75.245 115.021 75.725 114.921 75.725 114.921C76.815 112.741 75.775 111.781 73.425 112.411C71.965 113.901 71.475 115.531 71.935 116.101V116.091Z" fill="#AB2781"/>
</g>
<g style="mix-blend-mode:multiply" opacity="0.5">
<path d="M77.0244 124.001C79.1444 125.001 81.2044 125.061 84.2344 123.121C87.6444 120.941 90.5544 116.281 91.3444 113.661C91.7044 112.461 92.0144 110.791 92.2344 108.931C92.1244 108.811 92.0144 108.691 91.9044 108.571C90.9644 112.171 89.3544 117.871 85.7544 120.551C79.4644 125.231 77.5344 124.171 77.0144 123.991L77.0244 124.001Z" fill="#AB2781"/>
</g>
<g style="mix-blend-mode:soft-light" opacity="0.5">
<path d="M61.365 95.4508C62.325 95.7208 61.745 103.421 61.025 106.151C60.305 108.881 54.125 103.791 54.885 99.3808C55.645 94.9608 60.585 95.2208 61.365 95.4508Z" fill="white"/>
</g>
<g style="mix-blend-mode:multiply" opacity="0.5">
<path d="M104.426 141.531C104.426 141.531 103.046 150.611 99.7358 155.231C96.4258 159.851 98.5558 161.531 98.5558 161.531C98.5558 161.531 102.046 156.521 104.416 141.531H104.426Z" fill="#D14894"/>
</g>
<g style="mix-blend-mode:multiply" opacity="0.5">
<path d="M62.7148 127.361C62.7148 127.361 51.4148 127.021 48.9548 129.461C46.5048 131.891 47.6748 134.391 47.6748 134.391L49.9548 138.101C49.9548 138.101 52.6148 135.621 55.4148 134.281C58.2248 132.941 58.8048 131.971 58.8048 131.971L62.7048 127.371L62.7148 127.361Z" fill="#E767A7"/>
</g>
<g style="mix-blend-mode:overlay">
<path d="M71.4161 132.891C75.4561 133.981 69.8161 135.941 67.9661 135.941C66.1161 135.941 68.2161 132.031 71.4161 132.891Z" fill="white"/>
</g>
<g style="mix-blend-mode:overlay">
<path d="M62.9255 162.851C65.5955 164.021 61.0255 167.171 59.6955 165.681C58.3755 164.191 61.5855 162.261 62.9255 162.851Z" fill="white"/>
</g>
<g style="mix-blend-mode:overlay">
<path d="M58.3461 117.291C58.6161 119.041 57.0461 120.601 56.3261 117.791C55.6061 114.991 57.8361 114.031 58.3461 117.291Z" fill="white"/>
</g>
<g style="mix-blend-mode:overlay">
<path d="M111.284 165.691C111.404 167.671 107.694 165.721 107.724 164.041C107.754 162.361 111.204 164.321 111.284 165.691Z" fill="white"/>
</g>
<g style="mix-blend-mode:soft-light">
<path d="M111.996 168.811C113.386 167.641 111.786 159.321 109.016 154.351C106.236 149.391 105.236 148.731 104.426 148.291C103.616 147.851 100.026 158.781 101.156 161.531C102.286 164.281 112.006 168.811 112.006 168.811H111.996Z" fill="white"/>
</g>
<g style="mix-blend-mode:soft-light">
<path d="M70.8645 163.381C71.9545 164.141 63.2245 170.891 54.5745 172.301C45.9245 173.701 42.0545 172.371 41.2145 171.771C40.3745 171.171 45.6545 160.131 47.2645 159.011C48.8745 157.891 62.4945 157.521 70.8645 163.381Z" fill="white"/>
</g>
<g style="mix-blend-mode:multiply" opacity="0.5">
<path d="M75.4844 150.491V148.371C75.4844 148.371 81.1844 147.751 83.9844 144.781C83.9844 144.781 81.6044 149.711 75.4844 150.491Z" fill="#E767A7"/>
</g>
<g style="mix-blend-mode:overlay">
<path d="M62.9244 157.021C63.8344 156.981 62.9744 155.771 62.0144 155.521C61.0544 155.271 61.0044 157.101 62.9244 157.021Z" fill="white"/>
</g>
<g style="mix-blend-mode:soft-light" opacity="0.5">
<path d="M104.756 137.961C105.156 138.211 103.896 146.281 102.166 147.631C100.426 148.981 93.4756 144.631 92.2456 141.911C91.0256 139.191 90.6156 136.191 90.6156 136.191C90.6156 136.191 98.4356 138.901 104.766 137.961H104.756Z" fill="white"/>
</g>
<g style="mix-blend-mode:multiply" opacity="0.5">
<path d="M31.3453 115.561C31.3453 115.561 28.0353 112.151 27.8653 110.971C27.6953 109.791 28.8053 109.351 28.8053 109.351C28.8053 109.351 28.9253 109.711 29.0553 109.771C29.4353 109.941 31.1953 110.381 31.1953 110.381C31.1953 110.381 31.6753 112.731 31.3353 115.551L31.3453 115.561Z" fill="#AB2781"/>
</g>
<g style="mix-blend-mode:soft-light">
<path d="M77.3047 50.9108C77.3047 50.9108 76.1847 37.6708 70.0147 32.9608C63.8447 28.2508 59.9147 28.3008 56.2747 28.7008C52.6347 29.0908 47.8047 31.6208 47.8047 31.6208C47.8047 31.6208 55.3747 28.8708 60.4247 30.0508C65.4747 31.2308 73.3947 38.3408 77.3047 50.9108Z" fill="white"/>
</g>
<g style="mix-blend-mode:soft-light">
<path d="M16.5957 34.5608C16.5957 34.5608 12.0257 34.3408 9.1957 39.1908C6.3657 44.0408 6.7557 47.8508 6.7557 47.8508C6.7557 47.8508 11.4657 36.6608 16.5957 34.5608Z" fill="white"/>
</g>
<defs>
<linearGradient id="paint0_linear_237_2264" x1="114.307" y1="168.674" x2="103.862" y2="142.57" gradientUnits="userSpaceOnUse">
<stop stop-color="#E5222C"/>
<stop offset="1" stop-color="#801212"/>
</linearGradient>
<linearGradient id="paint1_linear_237_2264" x1="96.4782" y1="169.031" x2="88.1989" y2="131.65" gradientUnits="userSpaceOnUse">
<stop stop-color="#0E142B"/>
<stop offset="0.43" stop-color="#161A2F"/>
<stop offset="1" stop-color="#29293B"/>
</linearGradient>
<linearGradient id="paint2_linear_237_2264" x1="99.0061" y1="150.449" x2="105.01" y2="149.146" gradientUnits="userSpaceOnUse">
<stop stop-color="#DB1F1F"/>
<stop offset="0.99" stop-color="#FF264E"/>
</linearGradient>
<linearGradient id="paint3_linear_237_2264" x1="91.8568" y1="159.926" x2="82.7454" y2="153.651" gradientUnits="userSpaceOnUse">
<stop stop-color="#781515"/>
<stop offset="1" stop-color="#D90516"/>
</linearGradient>
<linearGradient id="paint4_linear_237_2264" x1="90.1291" y1="160.601" x2="82.3604" y2="155.844" gradientUnits="userSpaceOnUse">
<stop stop-color="#FF2643"/>
<stop offset="1" stop-color="#FF3B3E"/>
</linearGradient>
<linearGradient id="paint5_linear_237_2264" x1="62.6998" y1="178.539" x2="62.5397" y2="170.751" gradientUnits="userSpaceOnUse">
<stop stop-color="#E5222C"/>
<stop offset="1" stop-color="#801212"/>
</linearGradient>
<linearGradient id="paint6_linear_237_2264" x1="31.0413" y1="127.684" x2="26.1248" y2="99.8148" gradientUnits="userSpaceOnUse">
<stop stop-color="#0E142B"/>
<stop offset="0.43" stop-color="#161A2F"/>
<stop offset="1" stop-color="#29293B"/>
</linearGradient>
<linearGradient id="paint7_linear_237_2264" x1="43.9273" y1="121.567" x2="37.3175" y2="99.8554" gradientUnits="userSpaceOnUse">
<stop stop-color="#781515"/>
<stop offset="1" stop-color="#D90516"/>
</linearGradient>
<linearGradient id="paint8_linear_237_2264" x1="66.4319" y1="147.34" x2="51.9941" y2="97.4391" gradientUnits="userSpaceOnUse">
<stop stop-color="#0E142B"/>
<stop offset="0.43" stop-color="#161A2F"/>
<stop offset="1" stop-color="#29293B"/>
</linearGradient>
<linearGradient id="paint9_linear_237_2264" x1="55.0109" y1="101.179" x2="42.4366" y2="20.0553" gradientUnits="userSpaceOnUse">
<stop stop-color="#121936"/>
<stop offset="0.38" stop-color="#1A1F3A"/>
<stop offset="0.97" stop-color="#303146"/>
<stop offset="1" stop-color="#323247"/>
</linearGradient>
<linearGradient id="paint10_linear_237_2264" x1="83.6866" y1="85.359" x2="79.3359" y2="51.5704" gradientUnits="userSpaceOnUse">
<stop stop-color="#C3FFFA"/>
<stop offset="0.51" stop-color="#BAFFF7"/>
<stop offset="1" stop-color="#AEFFF3"/>
</linearGradient>
<linearGradient id="paint11_linear_237_2264" x1="81.9116" y1="81.9903" x2="78.4612" y2="54.4795" gradientUnits="userSpaceOnUse">
<stop stop-color="#7BBDFF"/>
<stop offset="0.19" stop-color="#78B4FC"/>
<stop offset="0.48" stop-color="#729EF4"/>
<stop offset="0.84" stop-color="#6879E8"/>
<stop offset="1" stop-color="#6367E3"/>
</linearGradient>
<linearGradient id="paint12_linear_237_2264" x1="83.4801" y1="78.7692" x2="81.0015" y2="57.3688" gradientUnits="userSpaceOnUse">
<stop stop-color="#121936"/>
<stop offset="0.38" stop-color="#1A1F3A"/>
<stop offset="0.97" stop-color="#303146"/>
<stop offset="1" stop-color="#323247"/>
</linearGradient>
<linearGradient id="paint13_linear_237_2264" x1="45.5339" y1="74.4075" x2="36.7601" y2="25.4982" gradientUnits="userSpaceOnUse">
<stop stop-color="white"/>
<stop offset="1" stop-color="#D91A81"/>
</linearGradient>
<radialGradient id="paint14_radial_237_2264" cx="0" cy="0" r="1" gradientUnits="userSpaceOnUse" gradientTransform="translate(54.4922 81.1381) rotate(-8.44414) scale(46.374 44.9504)">
<stop stop-color="#DC165F"/>
<stop offset="0.38" stop-color="#A91723"/>
<stop offset="1" stop-color="#6B1414"/>
</radialGradient>
<linearGradient id="paint15_linear_237_2264" x1="83.5769" y1="81.0039" x2="13.0822" y2="93.6498" gradientUnits="userSpaceOnUse">
<stop stop-color="white"/>
<stop offset="1" stop-color="#D91A81"/>
</linearGradient>
<linearGradient id="paint16_linear_237_2264" x1="87.3765" y1="75.7119" x2="61.4287" y2="8.09398" gradientUnits="userSpaceOnUse">
<stop stop-color="#121936"/>
<stop offset="0.38" stop-color="#1A1F3A"/>
<stop offset="0.97" stop-color="#303146"/>
<stop offset="1" stop-color="#323247"/>
</linearGradient>
<linearGradient id="paint17_linear_237_2264" x1="33.8671" y1="49.8926" x2="29.1613" y2="22.7188" gradientUnits="userSpaceOnUse">
<stop stop-color="#121936"/>
<stop offset="0.38" stop-color="#1A1F3A"/>
<stop offset="0.97" stop-color="#303146"/>
<stop offset="1" stop-color="#323247"/>
</linearGradient>
<linearGradient id="paint18_linear_237_2264" x1="33.8648" y1="49.9468" x2="28.3798" y2="23.7642" gradientUnits="userSpaceOnUse">
<stop stop-color="#D91A81"/>
<stop offset="1" stop-color="white"/>
</linearGradient>
<linearGradient id="paint19_linear_237_2264" x1="21.8442" y1="125.276" x2="15.6152" y2="102.174" gradientUnits="userSpaceOnUse">
<stop stop-color="#B5041D"/>
<stop offset="1" stop-color="#C21D38"/>
</linearGradient>
<radialGradient id="paint20_radial_237_2264" cx="0" cy="0" r="1" gradientUnits="userSpaceOnUse" gradientTransform="translate(12.2954 107.261) rotate(-60.4034) scale(8.01271 8.19072)">
<stop stop-color="#0500FF"/>
<stop offset="1" stop-color="#050031"/>
</radialGradient>
<linearGradient id="paint21_linear_237_2264" x1="21.6598" y1="109.739" x2="5.36005" y2="100.48" gradientUnits="userSpaceOnUse">
<stop stop-color="#0E0082"/>
<stop offset="1" stop-color="#1400FF"/>
</linearGradient>
<radialGradient id="paint22_radial_237_2264" cx="0" cy="0" r="1" gradientUnits="userSpaceOnUse" gradientTransform="translate(13.5098 105.11) rotate(-60.4034) scale(5.64516 5.77058)">
<stop stop-color="#001AFF"/>
<stop offset="1" stop-color="#050030"/>
</radialGradient>
<linearGradient id="paint23_linear_237_2264" x1="19.0961" y1="108.629" x2="7.62547" y2="102.114" gradientUnits="userSpaceOnUse">
<stop stop-color="#0E0082"/>
<stop offset="0.9999" stop-color="#012AFE"/>
<stop offset="1" stop-color="#0500FF"/>
</linearGradient>
<radialGradient id="paint24_radial_237_2264" cx="0" cy="0" r="1" gradientUnits="userSpaceOnUse" gradientTransform="translate(13.5737 105.378) rotate(0.392203) scale(4.74872 4.09162)">
<stop offset="0.10409" stop-color="#14F1FF"/>
<stop offset="0.978353" stop-color="#13AAFF"/>
</radialGradient>
<radialGradient id="paint25_radial_237_2264" cx="0" cy="0" r="1" gradientUnits="userSpaceOnUse" gradientTransform="translate(17.2594 99.0519) rotate(-148.587) scale(0.755402 0.628167)">
<stop stop-color="#0500FF"/>
<stop offset="1" stop-color="#050030"/>
</radialGradient>
<linearGradient id="paint26_linear_237_2264" x1="17.7722" y1="99.4468" x2="16.6447" y2="98.8249" gradientUnits="userSpaceOnUse">
<stop stop-color="#00FFF4"/>
<stop offset="1" stop-color="#30A7FB"/>
</linearGradient>
<radialGradient id="paint27_radial_237_2264" cx="0" cy="0" r="1" gradientUnits="userSpaceOnUse" gradientTransform="translate(7.71253 99.8676) rotate(-148.587) scale(0.755402 0.628168)">
<stop stop-color="#0500FF"/>
<stop offset="1" stop-color="#050030"/>
</radialGradient>
<linearGradient id="paint28_linear_237_2264" x1="8.24189" y1="100.232" x2="7.10846" y2="99.6062" gradientUnits="userSpaceOnUse">
<stop stop-color="#00FFF4"/>
<stop offset="1" stop-color="#30A7FB"/>
</linearGradient>
<radialGradient id="paint29_radial_237_2264" cx="0" cy="0" r="1" gradientUnits="userSpaceOnUse" gradientTransform="translate(21.3082 107.583) rotate(-148.587) scale(0.755402 0.628168)">
<stop stop-color="#0500FF"/>
<stop offset="1" stop-color="#050030"/>
</radialGradient>
<linearGradient id="paint30_linear_237_2264" x1="21.8363" y1="107.955" x2="20.7089" y2="107.333" gradientUnits="userSpaceOnUse">
<stop stop-color="#00FFF4"/>
<stop offset="1" stop-color="#30A7FB"/>
</linearGradient>
<radialGradient id="paint31_radial_237_2264" cx="0" cy="0" r="1" gradientUnits="userSpaceOnUse" gradientTransform="translate(11.6383 108.947) rotate(-148.587) scale(0.755403 0.628168)">
<stop stop-color="#0500FF"/>
<stop offset="1" stop-color="#050030"/>
</radialGradient>
<linearGradient id="paint32_linear_237_2264" x1="12.1828" y1="109.29" x2="11.0553" y2="108.668" gradientUnits="userSpaceOnUse">
<stop stop-color="#00FFF4"/>
<stop offset="1" stop-color="#30A7FB"/>
</linearGradient>
<linearGradient id="paint33_linear_237_2264" x1="21.856" y1="125.17" x2="15.627" y2="102.068" gradientUnits="userSpaceOnUse">
<stop stop-color="#B5041D"/>
<stop offset="1" stop-color="#C21D38"/>
</linearGradient>
<linearGradient id="paint34_linear_237_2264" x1="65.7086" y1="174.97" x2="53.9017" y2="127.274" gradientUnits="userSpaceOnUse">
<stop stop-color="#0E142B"/>
<stop offset="0.43" stop-color="#161A2F"/>
<stop offset="1" stop-color="#29293B"/>
</linearGradient>
<linearGradient id="paint35_linear_237_2264" x1="74.8857" y1="144.336" x2="70.5827" y2="121.124" gradientUnits="userSpaceOnUse">
<stop stop-color="#781515"/>
<stop offset="1" stop-color="#D90516"/>
</linearGradient>
<linearGradient id="paint36_linear_237_2264" x1="48.0525" y1="161.542" x2="51.2304" y2="152.203" gradientUnits="userSpaceOnUse">
<stop stop-color="#DB1F1F"/>
<stop offset="0.99" stop-color="#FF264E"/>
</linearGradient>
<linearGradient id="paint37_linear_237_2264" x1="68.9876" y1="161.405" x2="85.5608" y2="161.237" gradientUnits="userSpaceOnUse">
<stop stop-color="#DB1F1F"/>
<stop offset="0.99" stop-color="#FF264E"/>
</linearGradient>
<linearGradient id="paint38_linear_237_2264" x1="58.3964" y1="144.921" x2="47.3537" y2="142.361" gradientUnits="userSpaceOnUse">
<stop stop-color="#781515"/>
<stop offset="1" stop-color="#D90516"/>
</linearGradient>
<linearGradient id="paint39_linear_237_2264" x1="57.2533" y1="144.712" x2="47.2747" y2="142.648" gradientUnits="userSpaceOnUse">
<stop stop-color="#FF2643"/>
<stop offset="1" stop-color="#FF3B3E"/>
</linearGradient>
<linearGradient id="paint40_linear_237_2264" x1="45.5892" y1="122.324" x2="37.3233" y2="112.074" gradientUnits="userSpaceOnUse">
<stop stop-color="#E5222C"/>
<stop offset="1" stop-color="#801212"/>
</linearGradient>
<linearGradient id="paint41_linear_237_2264" x1="76.9396" y1="125.492" x2="72.4669" y2="92.7265" gradientUnits="userSpaceOnUse">
<stop stop-color="#121936"/>
<stop offset="0.38" stop-color="#1A1F3A"/>
<stop offset="0.97" stop-color="#303146"/>
<stop offset="1" stop-color="#323247"/>
</linearGradient>
<linearGradient id="paint42_linear_237_2264" x1="78.3489" y1="110.238" x2="76.8967" y2="92.3227" gradientUnits="userSpaceOnUse">
<stop stop-color="#121936"/>
<stop offset="0.38" stop-color="#1A1F3A"/>
<stop offset="0.97" stop-color="#303146"/>
<stop offset="1" stop-color="#323247"/>
</linearGradient>
<linearGradient id="paint43_linear_237_2264" x1="64.3629" y1="114.719" x2="61.0168" y2="94.0733" gradientUnits="userSpaceOnUse">
<stop stop-color="#781515"/>
<stop offset="1" stop-color="#D90516"/>
</linearGradient>
<linearGradient id="paint44_linear_237_2264" x1="82.2908" y1="125.659" x2="77.5015" y2="104.949" gradientUnits="userSpaceOnUse">
<stop stop-color="#B5041D"/>
<stop offset="1" stop-color="#C21D38"/>
</linearGradient>
</defs>
</svg>
