<svg width="460" height="349" viewBox="0 0 460 349" fill="none" xmlns="http://www.w3.org/2000/svg">
<path fill-rule="evenodd" clip-rule="evenodd" d="M73.4027 77.4169C76.254 75.7954 87.724 68.1184 93.772 66.2437C98.6692 64.7252 104.965 65.1968 110.215 64.0551C116.555 62.6404 126.051 61.7513 131.993 59.0063C136.142 57.1201 136.792 53.4558 139.808 50.3355C143.277 46.73 150.273 42.1599 154.702 39.993C162.113 36.3862 167.537 33.1469 175.664 33.4812C198.163 34.3825 218.986 40.8702 240.399 46.8934C308.981 66.131 395.474 46.857 449.785 101.234C454.613 106.077 462.169 108.125 459.411 116.11C456.511 124.511 448.625 128.184 447.768 137.797C446.889 147.937 453.418 157.47 449.965 167.889C447.274 176.022 439.293 184.852 434.236 191.772C430.971 196.216 425.926 201.037 422.625 205.822C421.019 208.164 420.497 211.616 418.958 214.107C416.315 218.3 412.38 221.65 408.907 225.139C398.951 235.078 387.678 243.361 375.603 250.646C363.732 257.823 351.299 263.946 338.482 269.201C325.139 274.678 310.841 277.885 298.037 284.551C290.783 288.32 281.937 293.671 274.398 294.373C258.923 295.785 243.937 290.138 229.648 284.897C217.15 280.297 203.863 278.002 190.987 274.661C173.741 270.171 154.213 266.812 136.328 265.78C124.437 265.082 112.532 267.313 100.67 266.989C89.9417 266.675 84.1487 264.895 74.9155 258.967C47.9113 241.59 32.6681 216.327 17.3582 188.744C9.56487 174.678 3.98994 162.958 2.08356 146.738C0.579211 133.859 -1.62034 117.456 1.85338 104.617C4.74228 93.9745 13.776 85.766 23.4113 80.9502C33.3222 76.0147 46.9702 77.4186 73.3421 77.5001L73.4027 77.4169Z" fill="url(#paint0_linear_521_8545)"/>
<path fill-rule="evenodd" clip-rule="evenodd" d="M277.434 55.9366C267.337 56.2727 257.736 55.7379 247.924 58.4721C241.817 60.153 235.287 62.8089 229.904 66.2159C224.699 69.5345 219.837 73.5517 214.812 77.1746C209.865 80.7403 202.558 84.8247 204.57 91.8947C205.723 95.9945 208.466 99.0662 210.355 102.793C212.473 106.947 213.498 111.928 214.295 116.481C217.157 133.077 222.463 148.266 237.65 157.199C257.745 169.024 281.124 167.358 303.733 165.852C316.327 165.018 328.354 163.567 340.55 160.179C354.202 156.412 367.36 151.069 380.572 146.081C394.007 141.012 407.505 136.252 420.91 131.085C426.793 128.816 433.055 126.235 438.141 122.529C444.066 118.258 448.316 112.67 449.702 105.793C450.447 101.981 448.57 101.165 445.675 99.3864C438.29 94.8479 430.736 90.3528 422.984 86.4741C415.762 82.8836 408.173 81.5692 400.646 78.9482C397.518 77.8498 394.62 75.955 391.595 74.6644C386.629 72.5247 381.518 70.6863 376.669 68.2644C366.716 63.2895 356.897 60.7821 346.213 57.9124C338.123 55.7368 328.9 56.1134 320.574 55.4488C309.388 54.5576 297.957 52.9364 286.694 53.7187C281.484 54.0817 274.567 52.6385 277.445 56.0076L277.434 55.9366Z" fill="#2C0026"/>
<path fill-rule="evenodd" clip-rule="evenodd" d="M438.914 133.843C422.516 138.209 406.699 144.325 390.554 149.652C382.272 152.388 374.004 155.311 365.849 158.389C359.029 160.978 352.997 164.655 346.96 168.771C346.193 169.324 338.028 173.948 337.753 175.684C341.454 176.685 344.696 176.438 348.584 176.752C351.85 177.04 355.061 177.921 358.351 178.074C362.793 178.264 367.008 177.75 371.429 178.745C383.783 181.476 398.097 181.295 410.248 176.954C415.538 175.033 421.248 173.915 426.221 171.277C430.148 169.196 434.582 167.538 437.73 164.322C441.104 160.864 444.235 157.068 446.068 152.591C447.061 150.179 449.389 146.331 438.888 133.862L438.914 133.843Z" fill="#2C0026"/>
<path fill-rule="evenodd" clip-rule="evenodd" d="M427.877 188.151C424.003 188.971 419.786 190.039 415.786 190.517C413.256 190.802 411.372 190.7 408.908 191.688C406.043 192.846 403.478 194.418 400.498 195.305C397.295 196.273 393.958 196.666 390.684 197.369C382.93 199.054 375.283 201.332 367.528 203.017C355.829 205.534 344.475 205.356 332.631 206.281C315.407 207.612 298.287 209.698 281.046 210.726C264.2 211.745 247.745 213.193 231.042 215.689C217.761 217.688 204.532 221.15 191.223 222.776C185.59 223.444 178.166 222.524 173.116 225.612C174.472 226.765 177.58 227.167 179.316 227.454C186.332 228.589 193.452 228.309 200.55 227.887C213.991 227.112 226.866 223.827 240.064 221.492C251.92 219.415 263.948 218.91 275.828 219.26C280.188 219.392 282.526 219.955 285.442 223.099C288.471 226.399 291.513 229.215 294.141 232.962C296.083 235.704 298.165 239.253 301.487 240.565C304.81 241.878 308.979 239.741 312.133 238.65C319.771 236.024 327.352 233.321 335.29 231.779C346.943 229.533 358.755 228.118 370.294 225.323C375.88 223.978 380.773 223.567 385.474 220.218C390.624 216.545 394.943 212.445 399.572 208.162C402.245 205.682 405.02 203.287 407.675 200.781C409.305 199.251 411.301 196.669 427.911 188.087L427.877 188.151Z" fill="#2C0026"/>
<path fill-rule="evenodd" clip-rule="evenodd" d="M235.293 168.522C230.772 162.156 225.945 158.26 220.72 152.48C214.01 145.089 206.128 138.581 198.43 132.218C192.216 127.072 185.078 122.317 177.286 119.886C168.414 117.13 158.831 116.898 149.823 114.398C138.8 111.339 127.096 109.007 115.813 106.923C103.156 104.608 89.3693 104.014 76.4867 104.504C64.961 104.924 52.6778 105.297 41.6555 109.14C38.3048 110.294 30.7323 111.729 28.7687 114.801C25.9863 119.134 29.9745 128.882 31.3379 133.107C34.4002 142.575 37.0611 151.544 42.0632 160.246C47.5484 169.783 54.6152 178.614 64.2683 184.12C69.6572 187.178 75.3068 188.983 81.2509 190.694C87.9931 192.618 95.2425 194.966 102.295 195.484C112.415 196.236 122.739 195.657 132.868 194.864C149.884 193.525 165.422 187.412 181.886 183.472C193.73 180.654 205.663 178.127 217.537 175.406C223.983 173.915 234.59 173.171 235.293 168.522Z" fill="#1D0009"/>
<path fill-rule="evenodd" clip-rule="evenodd" d="M103.534 81.1395C115.029 84.9634 127.398 85.7112 139.143 89.1576C148.482 91.8923 159.263 96.2311 169.246 96.2932C177.374 96.3506 182.674 91.9382 188.129 86.3489C193.104 81.2638 198.278 77.1786 203.981 72.9889C213.111 66.2495 227.767 62.9814 234.118 52.8415C236.449 49.1095 233.534 48.8052 230.251 47.9371C222.887 45.9873 215.308 45.0207 208.132 42.3837C196.744 38.2066 183.853 32.7854 171.314 35.1976C161.844 37.0143 154.143 44.6171 147.404 50.9348C144.065 54.0521 140.37 56.3997 137.151 59.6276C133.932 62.8555 130.117 67.2626 126.042 69.5294C117.043 74.5572 107.333 77.0991 103.553 81.1653L103.534 81.1395Z" fill="#2C0026"/>
<path fill-rule="evenodd" clip-rule="evenodd" d="M96.5082 264.07C101.167 263.947 104.251 263.538 108.638 262.427C113.338 261.248 118.288 260.638 123.054 259.884C126.791 259.321 131.174 259.317 134.755 258.037C137.027 257.228 139.035 255.386 140.834 253.813C146.812 248.557 151.97 242.945 159.256 239.389C165.708 236.237 173.517 235.183 180.542 234.103C185.04 233.425 189.364 232.95 193.91 232.671C200.548 232.225 207.062 230.883 213.733 230.65C219.982 230.445 225.546 229.905 231.66 228.456C236.881 227.217 241.818 226.143 247.163 225.801C250.423 225.581 253.878 224.905 257.111 224.98C260.416 225.044 263.858 225.521 267.17 225.816C270.021 226.088 273.378 225.443 276.031 226.331C281.157 228.079 286.452 229.115 290.659 232.709C294.822 236.296 295.589 240.753 298.372 245.216C299.769 247.483 300.304 250.45 302.783 251.819C306.814 254.001 312.145 252.526 316.537 253.147C319.456 253.567 322.073 254.126 324.707 255.265C326.392 255.983 327.756 257.09 329.581 257.668C332.024 258.431 334.632 258.366 337.128 259.091C339.161 259.677 341.222 259.69 343.352 259.575C345.059 259.488 348.126 258.777 349.516 259.865C348.708 261.197 347.264 261.37 345.872 261.782C342.998 262.592 340.253 263.86 337.379 264.67C332.459 266.047 327.493 267.024 322.636 268.71C319.508 269.781 316.503 271.08 313.394 272.177C305.224 275.069 296.843 277.166 289.735 282.25C287.566 283.814 286.146 285.745 284.059 287.367C281.682 289.199 279.287 289.782 276.484 290.58C273.341 291.465 270.138 291.486 266.907 291.803C264.924 292.01 263.035 291.4 261.083 291.426C259.338 291.461 258.041 291.449 256.35 291.169C252.091 290.453 247.821 290.335 243.701 288.809C239.226 287.182 234.265 285.552 229.531 284.902C217.187 283.188 205.751 277.942 193.858 274.681C178.736 270.513 162.559 267.225 146.745 267.5C132.695 267.767 118.667 268.175 96.527 264.096L96.5082 264.07Z" fill="black"/>
<path fill-rule="evenodd" clip-rule="evenodd" d="M299.361 170.66C288.754 170.18 278.308 168.085 267.705 167.721C263.21 167.569 258.662 167.178 254.178 167.097C250.037 167.045 245.817 166.774 241.817 168.198C236.874 169.986 232.596 173.03 227.435 174.463C222.203 175.907 217.019 177.474 211.806 178.945C206.788 180.353 201.263 181.614 196.443 183.629C194.744 184.341 193.233 185.312 191.381 185.7C190.514 185.891 189.611 185.477 189.155 186.516C195.774 186.991 202.457 185.605 209.044 184.92C217.899 183.98 229.879 183.075 236.784 189.734C240.783 193.597 239.449 199.766 242.237 204.068C244.102 206.983 248.867 206.784 251.927 206.787C261.016 206.783 270.454 204.476 279.338 202.963C296.677 200.01 314.236 198.476 331.446 194.788C333.083 194.436 335.178 194.385 335.565 192.805C335.684 192.246 335.21 190.812 335.289 190.085C336.127 181.67 341.828 174.641 346.613 167.957C350.447 162.629 354.686 157.64 360.048 153.814C353.462 158.562 345.634 160.813 337.825 162.813C332.027 164.31 326.236 166.039 320.443 167.375C310.67 169.607 300.832 170.191 299.361 170.66Z" fill="black"/>
<path fill-rule="evenodd" clip-rule="evenodd" d="M238.082 56.3765C234.289 57.8088 231.227 59.3059 227.708 61.1723C224.366 62.9502 220.774 64.1592 217.556 66.1636C213.348 68.8026 209.054 70.9901 205.278 74.2256C201.554 77.4229 197.814 80.7104 194.481 84.3364C191.208 87.8793 187.458 90.8188 184.084 94.2771C180.929 97.5377 177.939 100.916 174.543 103.955C171.613 106.581 166.801 108.551 164.46 111.658C167.354 111.821 171.267 109.275 173.999 108.49C177.801 107.405 181.202 106.098 184.878 104.671C187.361 103.709 190.152 103.117 192.557 101.936C196.389 100.002 197.9 97.1376 200.073 93.5199C201.867 90.4911 203.656 87.6232 205.66 84.7187C207.631 81.8782 209.631 80.0813 212.258 77.8717C214.78 75.7383 217.118 73.4616 219.789 71.5357C222.857 69.3238 225.979 68.0203 229.407 66.4171C234.628 63.955 240.133 61.9979 245.175 59.2315C247.86 57.7694 251.062 57.0785 253.458 55.2724C255.404 53.7904 257.445 54.3313 259.537 52.9409C258.164 52.4321 255.416 53.5845 254.289 53.8057C247.078 55.2959 240.524 57.417 238.002 56.4337L238.082 56.3765Z" fill="black"/>
<path fill-rule="evenodd" clip-rule="evenodd" d="M451.001 132.586C447.19 136.832 442.821 142.309 442.252 148.202C441.962 151.252 442.417 154.553 443.578 157.384C444.632 159.899 445.959 162.571 445.779 165.383C445.599 168.195 443.531 171.067 442.188 173.495C439.399 178.543 436.534 183.764 433.332 188.518C430.122 193.317 427.186 198.273 424.315 203.262C423.253 205.133 421.389 206.673 420.974 208.827C421.911 208.23 422.363 207.352 422.912 206.443C423.997 204.715 425.49 203.441 426.74 201.83C429.542 198.193 431.499 193.942 434.53 190.454C440.28 183.825 446.205 177.384 451.706 170.578C452.994 169.019 454.309 167.833 454.63 165.827C455.032 163.21 453.29 160.245 452.493 157.861C451.747 155.716 450.832 153.615 450.237 151.401C448.531 144.977 449.114 138.325 449.843 131.764C450.061 129.95 450.298 128.162 451.114 126.508C453.172 122.342 457.954 119.605 458.845 114.939C459.706 110.453 455.991 106.425 452.945 103.492C451.353 101.957 449.814 100.385 448.188 98.9141C446.201 97.1117 445.592 94.7104 444.225 92.5403C442.329 89.5282 439.252 87.0523 436.437 84.9394C432.352 81.8486 428.102 78.6403 423.475 76.4137C420.455 74.9621 417.271 73.7859 414.231 72.3084C411.493 70.9689 408.72 69.6934 405.845 68.6103C402.579 67.3753 399.275 66.0884 395.875 65.2257C392.076 64.2561 388.279 63.9563 384.429 63.4177C377.318 62.4298 370.257 61.0109 363.16 60.2099C359.838 59.8436 356.532 60.0572 353.206 59.575C350.901 59.2249 348.582 58.6877 346.212 58.5817C343.959 58.4702 341.943 58.4643 339.717 58.0569C338.079 57.7388 336.26 57.3932 334.591 57.2551C333.4 57.1666 332.145 57.322 330.947 57.2785C330.027 57.2312 328.824 56.6791 327.936 57.1214C329.125 57.7637 331.628 57.4976 332.958 57.7226C338.332 58.7006 343.534 60.2756 348.767 61.6708C356.123 63.6656 363.426 65.6986 370.706 67.8666C374.237 68.9109 377.798 70.052 381.314 71.1863C384.829 72.3206 387.984 74.0696 391.458 75.313C397.642 77.5221 403.365 79.7076 409.085 83.0006C413.387 85.501 417.168 88.0607 421.065 91.169C424.51 93.9318 428.482 95.9205 431.901 98.7023C433.791 100.259 436.459 102.28 437.532 104.544C438.74 107.106 439.875 110.903 439.299 113.724C438.8 116.096 437.747 117.644 435.977 119.314C432.796 122.317 429.477 125.183 425.565 127.175C421.646 129.211 418.075 131.785 414.028 133.479C409.11 135.526 404.051 137.043 399.044 138.799C393.965 140.567 388.827 142.81 383.972 145.166C381.469 146.379 379.214 147.768 374.149 152.839C379.153 151.914 384.091 150.564 389.029 149.213C392.191 148.354 395.366 147.682 398.524 146.708C402.021 145.646 405.556 144.636 409.158 144.052C415.025 143.096 420.931 141.916 426.784 140.773C430.14 140.129 433.35 139.393 436.135 137.346C438.285 135.756 440.473 134.219 442.642 132.655C444.864 131.053 446.71 129.21 448.812 127.497C448.944 127.402 449.05 127.326 449.182 127.23L451.02 132.612L451.001 132.586Z" fill="#68005F"/>
<path fill-rule="evenodd" clip-rule="evenodd" d="M197.306 0.909241C199 5.54251 200.579 12.1907 204.35 15.6818C206.066 17.2765 208.767 15.2831 210.186 13.5591C211.68 11.7489 211.108 8.97974 209.604 7.25573C208.131 5.56404 205.96 4.27105 204.318 2.71944C202.74 1.23248 201.246 -0.405326 198.916 0.0903268L197.306 0.909241Z" fill="url(#paint1_linear_521_8545)"/>
<path fill-rule="evenodd" clip-rule="evenodd" d="M204.933 15.2078C203.333 13.4838 202.221 12.2555 201.405 10.0574C201.151 9.36775 200.664 8.60274 200.982 7.84848C201.405 6.85718 203.301 6.69555 204.234 6.59857C205.378 6.48005 206.543 6.97571 207.56 7.44981C208.767 7.99934 210.547 9.4324 210.536 10.9301C210.536 11.3073 210.314 11.3611 210.24 11.6198C210.144 11.9969 210.24 12.3848 210.091 12.7511C209.625 14.0226 207.666 14.6906 206.543 14.7876L204.933 15.1971V15.2078Z" fill="#2C0026"/>
<path fill-rule="evenodd" clip-rule="evenodd" d="M247.621 329.203C245.863 331.789 244.613 333.794 243.374 336.627C242.706 338.136 241.996 339.612 241.244 341.067C240.874 341.627 240.651 342.241 240.577 342.898C240.725 343.351 241.308 343.599 241.679 343.857C243.416 345.086 244.941 345.959 246.996 346.648C247.992 346.896 248.945 347.252 249.856 347.715C250.375 348.038 250.894 348.372 251.413 348.717C251.858 348.857 252.579 348.954 253.013 348.825C254.856 348.243 256.085 345.172 257.006 343.631C257.843 342.209 259.135 340.14 259.432 338.459C259.676 337.048 258.849 336.293 258.203 335.216C257.398 333.88 256.498 332.684 255.661 331.369C254.464 329.484 252.875 329.774 250.841 329.753L247.632 329.203H247.621Z" fill="url(#paint2_linear_521_8545)"/>
<path fill-rule="evenodd" clip-rule="evenodd" d="M249.486 329.203C247.589 330.184 246.477 330.658 245.46 332.49C245.1 333.136 244.39 333.772 244.274 334.516C244.041 335.97 245.905 337.888 246.678 338.901C247.24 339.634 247.759 340.474 248.384 341.153C249.125 341.95 249.263 342.694 249.856 343.523C250.566 344.504 251.774 344.59 252.684 343.933C253.691 343.211 254.92 341.703 255.513 340.636C256.064 339.655 257.102 338.147 257.123 336.94C257.144 335.884 256.614 334.666 256.191 333.718C255.322 331.757 254.739 330.583 252.684 329.613L249.475 329.203H249.486Z" fill="#2C0026"/>
<path fill-rule="evenodd" clip-rule="evenodd" d="M250.831 345.258C251.18 346.594 251.467 348.48 252.971 348.943C254.072 349.288 254.549 347.984 255.132 347.165C255.513 346.627 255.99 346.131 256.36 345.581C256.646 345.161 256.773 344.698 256.964 344.234C257.345 343.351 257.886 342.532 258.331 341.681C258.881 340.614 259.369 339.504 259.39 338.287C259.4 337.662 259.316 336.854 258.595 337.22C258.246 337.403 257.695 337.996 257.377 338.287C256.805 338.815 256.36 339.429 255.841 339.989C254.909 341.002 254.178 342.166 253.5 343.34C253.183 343.89 252.886 344.385 252.42 344.816C251.604 345.56 251.191 346.26 250.82 345.237L250.831 345.258Z" fill="black"/>
<path fill-rule="evenodd" clip-rule="evenodd" d="M356.259 304.701C354.734 308.429 353.156 310.993 354.289 314.905C355.02 317.437 355.507 318.202 357.859 318.697C362.424 319.656 366.46 319.387 371.121 318.665C372.466 318.46 373.017 318.913 373.102 317.404C373.155 316.445 371.926 314.743 371.375 313.956C370.051 312.038 368.536 309.98 366.725 308.504C365.189 307.254 362.35 304.948 360.285 304.711H356.27L356.259 304.701Z" fill="url(#paint3_linear_521_8545)"/>
<path fill-rule="evenodd" clip-rule="evenodd" d="M359.077 304.701C357.456 305.919 355.486 306.932 355.963 309.28C356.355 311.209 357.149 312.319 358.664 313.591C361.354 315.832 364.373 315.972 367.647 316.64C369.119 316.942 371.121 318.008 372.498 316.952C375.157 314.927 369.5 311.77 368.303 310.972C366.492 309.776 365.02 308.289 363.494 306.738C362.551 305.779 361.471 304.938 359.077 304.69V304.701Z" fill="#2C0026"/>
<path fill-rule="evenodd" clip-rule="evenodd" d="M356.799 318.59C358.526 317.588 360.38 316.715 362.403 316.694C363.949 316.672 365.538 316.144 367.106 316.435C368.112 316.618 369.172 316.92 370.189 316.963C370.994 316.996 371.661 317.254 372.498 317.211C372.159 317.427 371.883 317.394 371.534 317.48C370.919 317.642 370.326 317.879 369.712 318.051C368.42 318.407 366.958 318.547 365.634 318.569C364.225 318.601 362.837 318.849 361.407 318.849C359.956 318.849 358.505 318.849 356.789 318.579L356.799 318.59Z" fill="black"/>
<defs>
<linearGradient id="paint0_linear_521_8545" x1="229.974" y1="348.943" x2="229.974" y2="-0.00131032" gradientUnits="userSpaceOnUse">
<stop stop-color="#110015"/>
<stop offset="0.07" stop-color="#100012"/>
<stop offset="0.44" stop-color="#100009"/>
<stop offset="1" stop-color="#100007"/>
</linearGradient>
<linearGradient id="paint1_linear_521_8545" x1="230.271" y1="349.184" x2="230.271" y2="0.0885577" gradientUnits="userSpaceOnUse">
<stop stop-color="#110015"/>
<stop offset="0.07" stop-color="#100012"/>
<stop offset="0.44" stop-color="#100009"/>
<stop offset="1" stop-color="#100007"/>
</linearGradient>
<linearGradient id="paint2_linear_521_8545" x1="229.726" y1="349.071" x2="229.726" y2="0" gradientUnits="userSpaceOnUse">
<stop stop-color="#110015"/>
<stop offset="0.07" stop-color="#100012"/>
<stop offset="0.44" stop-color="#100009"/>
<stop offset="1" stop-color="#100007"/>
</linearGradient>
<linearGradient id="paint3_linear_521_8545" x1="230.033" y1="348.88" x2="230.033" y2="0" gradientUnits="userSpaceOnUse">
<stop stop-color="#110015"/>
<stop offset="0.07" stop-color="#100012"/>
<stop offset="0.44" stop-color="#100009"/>
<stop offset="1" stop-color="#100007"/>
</linearGradient>
</defs>
</svg>
