<svg width="424" height="311" viewBox="0 0 424 311" fill="none" xmlns="http://www.w3.org/2000/svg">
<path fill-rule="evenodd" clip-rule="evenodd" d="M375.975 64.0555C374.272 61.8603 367.889 51.7594 363.699 48.8137C360.301 46.4406 355.017 45.9869 351.171 43.91C346.575 41.423 339.204 38.9996 335.396 35.1339C332.774 32.4413 333.619 28.3462 332.392 24.4966C330.968 20.0325 327.015 14.027 324.244 11.0142C319.615 5.98256 316.442 1.60887 309.716 0.760746C291.098 -1.66231 271.683 2.18933 252.008 5.49706C188.911 15.9725 126.031 -18.1222 61.0709 32.6405C55.2862 37.1505 48.3648 38.2677 47.5498 47.3553C46.6618 56.9442 51.6973 62.1456 48.7101 72.7097C45.5562 83.8809 36.5852 93.2466 35.3842 105.074C34.4443 114.303 37.5593 125.163 39.0169 133.429C39.9552 138.721 42.2218 144.747 43.0489 150.444C43.4573 153.193 42.568 157.06 42.8549 160.017C43.4117 164.972 45.287 169.206 46.7703 173.533C51.0538 185.866 57.0378 196.558 64.0316 206.318C70.918 215.92 78.6755 224.468 87.082 232.144C95.8353 240.126 106.22 245.777 114.078 254.98C118.517 260.157 123.655 267.336 129.51 269.238C141.523 273.119 155.876 269.261 169.487 265.753C181.366 262.665 193.05 262.171 204.839 260.512C220.566 258.243 237.7 257.596 252.637 259.22C262.552 260.306 271.372 264.513 281.172 265.938C290.039 267.23 295.41 266.189 305.135 261.136C333.706 246.384 355.809 221.206 378.778 193.586C390.512 179.494 399.549 167.609 407.278 150.293C413.437 136.495 421.523 119.055 423.609 104.552C425.331 92.556 421.154 82.2662 415.179 75.5434C409.031 68.6675 397.392 68.1332 375.947 64.1567L375.975 64.0555Z" fill="url(#paint0_linear_521_8535)"/>
<path fill-rule="evenodd" clip-rule="evenodd" d="M218.484 9.65092C226.556 11.5617 234.542 12.4531 241.489 16.8911C245.8 19.6297 250.108 23.5595 253.187 28.0391C256.162 32.4267 258.546 37.5506 261.24 42.2557C263.896 46.8644 268.289 52.442 263.912 59.8296C261.389 64.0762 257.971 67.0299 255.024 70.7772C251.703 74.9479 248.967 80.2019 246.606 85.0325C237.9 102.616 227.771 118.315 212.015 125.712C191.159 135.52 172.816 130.134 155.017 125.04C145.11 122.2 135.901 118.782 127.279 113.305C117.661 107.137 109.015 99.3128 100.158 91.8674C91.1959 84.3302 82.019 77.1057 73.1164 69.432C69.2356 66.0675 65.0705 62.3262 62.4044 57.5199C59.2355 51.9551 57.9265 45.2666 59.4417 37.5519C60.3105 33.2898 62.1321 32.6981 65.1646 31.2271C72.9056 27.4389 80.7472 23.6768 88.5295 20.6796C95.7602 17.8867 102.459 17.5789 109.551 15.9204C112.524 15.2143 115.616 13.6068 118.575 12.6371C123.422 11.071 128.286 9.83439 133.151 7.96936C143.136 4.08886 152.101 2.82743 161.881 1.34299C169.298 0.223846 176.604 2.02345 183.677 2.54938C193.109 3.27258 203 3.26889 211.866 5.81823C215.963 6.98435 222.124 6.51605 218.487 9.71671L218.484 9.65092Z" fill="#1D0009"/>
<path fill-rule="evenodd" clip-rule="evenodd" d="M57.4212 69.7139C69.0472 76.9638 79.5764 86.0112 90.6574 94.2257C96.3696 98.4531 101.96 102.888 107.395 107.499C111.962 111.344 115.426 116.226 118.755 121.68C119.188 122.377 124.015 128.652 123.588 130.601C120.208 131.137 117.655 130.391 114.367 130.127C111.609 129.892 108.66 130.431 105.93 130.094C102.267 129.625 98.9957 128.434 95.0476 128.845C83.9564 129.926 72.3876 127.567 64.2027 120.968C60.6131 118.112 56.4337 115.992 53.3994 112.37C50.9998 109.496 48.0587 107.024 46.6932 103.052C45.2793 98.7859 44.1777 94.1667 44.405 89.0237C44.4927 86.2721 44.0885 81.7031 57.3899 69.7492L57.4212 69.7139Z" fill="#1D0009"/>
<path fill-rule="evenodd" clip-rule="evenodd" d="M45.6058 130.384C48.4292 131.871 51.4673 133.674 54.5024 134.783C56.424 135.474 57.9887 135.662 59.6534 137.132C61.5609 138.816 63.0276 140.929 65.119 142.336C67.3491 143.865 69.9123 144.809 72.2952 146.096C77.9766 149.102 83.2935 152.729 88.9437 155.77C97.4832 160.294 106.794 161.852 116.035 164.607C129.511 168.65 142.633 173.512 156.262 177.312C169.554 181.005 182.403 185.059 194.983 190.323C204.994 194.512 214.428 200.329 224.647 204.072C228.965 205.686 235.387 205.762 238.251 209.926C236.717 210.96 234.004 210.953 232.485 210.994C226.341 211.164 220.645 209.78 215.074 208.254C204.47 205.365 195.282 199.828 185.417 195.266C176.604 191.191 167.019 188.825 157.219 187.4C153.619 186.86 151.516 187.141 147.935 190.139C144.194 193.248 140.627 195.881 137.08 199.539C134.443 202.239 131.385 205.762 128.193 206.715C125.001 207.669 122.397 204.677 120.261 203.042C115.055 199.01 109.946 194.938 104.074 192.078C95.4511 187.858 86.4116 184.527 78.0908 179.756C74.0673 177.46 70.2656 176.24 67.6896 171.89C64.8917 167.093 62.9716 162.003 60.8712 156.627C59.6511 153.538 58.3027 150.524 57.1139 147.399C56.386 145.499 55.7591 142.368 45.5466 130.52L45.6058 130.384Z" fill="#1D0009"/>
<path fill-rule="evenodd" clip-rule="evenodd" d="M209.569 138.388C215.694 132.167 221.1 128.642 227.562 123.158C235.828 116.125 244.752 110.302 253.448 104.527C260.45 99.8984 268.077 95.8205 275.345 94.3811C283.595 92.7401 291.498 93.9352 299.765 92.6237C309.903 91.0148 320.314 90.2136 330.277 89.7085C341.459 89.0844 352.851 90.5953 363.167 93.0422C372.38 95.2694 382.225 97.5512 389.675 103.376C391.95 105.134 397.548 107.815 397.97 111.456C398.568 116.574 391.582 126.56 388.867 130.953C382.765 140.778 377.166 150.104 369.749 158.831C361.614 168.369 352.533 176.883 342.547 181.392C336.988 183.901 331.687 185.003 326.213 185.952C320.016 187.018 313.209 188.425 307.263 187.952C298.757 187.229 290.571 185.029 282.638 182.612C269.359 178.555 259.031 169.56 247.166 162.79C238.609 157.936 229.868 153.36 221.284 148.608C216.615 145.994 208.287 143.605 209.472 138.428L209.569 138.388Z" fill="#1D0009"/>
<path fill-rule="evenodd" clip-rule="evenodd" d="M350.11 63.4672C339.32 65.8829 328.975 64.7942 318.095 66.7532C309.443 68.2904 299.052 71.3726 290.903 69.8972C284.291 68.7102 281.684 63.1388 279.373 56.2566C277.259 49.9889 274.638 44.7824 271.639 39.3049C266.817 30.5823 256.161 24.8185 254.872 12.8034C254.408 8.3707 256.896 8.49272 259.917 8.08089C266.679 7.0742 273.17 7.21128 279.991 5.43963C290.861 2.65439 303.389 -1.30635 312.657 3.23233C319.65 6.64167 323.022 16.095 326.079 23.95C327.604 27.8115 329.719 30.9368 331.088 34.9748C332.488 38.9775 333.86 44.3384 336.305 47.4404C341.69 54.2709 348.627 58.511 350.113 63.533L350.11 63.4672Z" fill="#1D0009"/>
<path fill-rule="evenodd" clip-rule="evenodd" d="M285.736 263.367C282.021 262.537 279.624 261.615 276.516 259.751C273.169 257.738 269.357 256.32 265.77 254.787C262.961 253.563 259.388 252.922 256.939 251.011C255.386 249.765 254.474 247.514 253.608 245.491C250.748 238.879 248.7 231.979 244.14 227.008C240.072 222.599 234.161 220.27 228.882 217.997C225.5 216.582 222.132 215.431 218.538 214.394C213.3 212.912 208.507 210.439 203.214 209.159C198.257 207.987 193.914 206.541 189.516 204.04C185.732 201.892 182.159 199.995 177.927 198.772C175.374 198.026 172.828 196.783 170.161 196.376C167.458 195.939 164.482 195.95 161.693 195.75C159.302 195.588 156.791 194.377 154.307 194.949C149.471 196.084 144.756 196.384 139.999 199.664C135.241 202.944 132.94 207.638 128.973 212.119C126.974 214.377 125.418 217.53 122.861 218.603C118.753 220.382 114.987 217.936 111.15 217.942C108.603 217.956 106.265 218.155 103.729 218.995C102.07 219.542 100.565 220.475 98.8645 220.86C96.6059 221.317 94.497 220.838 92.2037 221.264C90.3025 221.597 88.6338 221.318 86.9549 220.841C85.6125 220.473 83.365 219.242 81.8278 220.211C81.9764 221.788 83.0551 222.175 84.0818 222.83C86.1038 224.176 87.817 225.94 89.8703 227.251C93.3629 229.518 96.9633 231.314 100.307 233.89C102.443 235.525 104.361 237.408 106.466 239.078C112.022 243.482 117.995 246.997 121.815 253.64C122.98 255.675 123.399 257.993 124.467 260.068C125.68 262.397 127.387 263.401 129.406 264.681C131.598 266.114 134.237 266.622 136.696 267.474C138.212 267.995 139.978 267.606 141.584 267.956C142.989 268.253 144.058 268.442 145.542 268.37C149.275 268.272 152.807 268.751 156.724 267.746C160.967 266.653 165.644 265.628 169.748 265.669C180.433 265.675 191.737 261.702 202.662 259.971C216.539 257.767 230.936 256.651 243.681 259.357C254.989 261.8 266.239 264.38 285.798 263.296L285.736 263.367Z" fill="black"/>
<path fill-rule="evenodd" clip-rule="evenodd" d="M156.682 130.975C165.473 132.075 174.767 131.418 183.529 132.619C187.262 133.149 191.047 133.411 194.752 134.042C198.155 134.596 201.679 134.943 204.374 137.134C207.724 139.841 210.016 143.814 213.675 146.102C217.404 148.452 220.976 150.978 224.673 153.363C228.232 155.626 232.221 157.892 235.349 160.78C236.493 161.791 237.322 163.088 238.65 163.821C239.295 164.14 240.173 163.846 240.169 165.037C234.619 164.536 229.725 162.037 224.636 160.246C217.796 157.852 208.388 155.076 200.244 161.274C195.535 164.848 194.242 171.753 190.331 176.032C187.704 178.93 183.916 177.973 181.412 177.522C174.061 176.122 167.273 172.202 160.6 169.2C147.624 163.336 133.967 159.008 121.38 152.355C120.19 151.744 118.483 151.369 118.786 149.561C118.887 148.959 119.834 147.469 120.057 146.66C122.582 137.385 120.649 128.889 119.337 120.877C118.278 114.535 116.736 108.459 113.862 103.468C117.36 109.638 122.909 113.282 128.445 116.662C132.579 119.182 136.627 121.939 140.852 124.287C147.938 128.219 155.69 130.35 156.721 131.072L156.682 130.975Z" fill="black"/>
<path fill-rule="evenodd" clip-rule="evenodd" d="M250.244 16.0737C252.769 18.1778 254.7 20.3236 256.85 22.851C258.896 25.2866 261.342 27.1317 263.169 29.8142C265.568 33.3164 268.207 36.3384 270.076 40.4403C271.875 44.481 273.646 48.623 274.97 53.0611C276.255 57.4026 278.207 61.2011 279.586 65.4368C280.889 69.4794 282.029 73.5666 283.62 77.4235C285.017 80.7318 288.176 83.5848 288.869 87.3398C286.44 87.0812 284.246 83.6969 282.328 82.4431C279.657 80.7132 277.372 78.7578 274.979 76.6444C273.349 75.2049 271.278 74.1935 269.801 72.5116C267.411 69.8357 267.302 66.4695 266.946 62.1946C266.628 58.6447 266.286 55.262 265.773 51.792C265.265 48.3879 264.322 46.1721 263.05 43.3512C261.815 40.6268 260.776 37.8224 259.354 35.3097C257.714 32.4155 255.665 30.5425 253.529 28.2787C250.238 24.8065 246.509 21.8282 243.468 18.0737C241.842 16.0716 239.494 14.8152 238.28 12.4862C237.254 10.574 235.384 10.8713 234.229 9.0344C235.534 8.67767 237.341 10.3363 238.156 10.7418C243.425 13.4459 247.965 16.7638 250.376 16.0643L250.244 16.0737Z" fill="black"/>
<path fill-rule="evenodd" clip-rule="evenodd" d="M48.0881 66.5009C49.5502 71.69 51.0223 78.3338 49.2438 84.8102C48.3268 88.1496 46.6603 91.7071 44.6611 94.5937C42.877 97.1674 40.7355 99.8655 39.8047 102.941C38.8739 106.017 39.4832 109.447 39.6314 112.281C39.9728 118.178 40.2934 124.308 41.0858 129.974C41.847 135.676 42.3168 141.497 42.7554 147.354C42.9038 149.56 43.833 151.512 43.3291 153.896C42.7917 153.107 42.7711 152.083 42.65 151.033C42.4114 148.999 41.6973 147.362 41.299 145.439C40.409 141.07 40.4488 136.138 39.3332 131.884C37.2234 123.797 34.8601 115.926 32.9723 107.658C32.5428 105.769 31.9017 104.26 32.4125 102.008C33.0865 99.0826 35.6129 96.1586 37.2027 93.6648C38.6397 91.4133 40.2155 89.2846 41.5173 86.9765C45.3669 80.2546 47.4647 72.9287 49.3683 65.6827C49.8929 63.6941 50.3828 61.6748 50.3488 59.7588C50.2603 54.9027 47.4549 51.2307 48.5044 45.9966C49.533 40.9954 54.0964 37.1671 57.6601 34.4678C59.5374 33.0452 61.4112 31.5567 63.292 30.2C65.6204 28.5471 67.009 26.0014 68.949 23.8797C71.6352 20.8454 75.0948 18.6828 78.2038 16.7764C82.6938 14.0778 87.4057 11.1979 92.0134 9.4833C95.0319 8.37707 98.0677 7.60056 101.083 6.42842C103.806 5.3761 106.568 4.42033 109.309 3.69756C112.442 2.88095 115.603 1.96317 118.722 1.51139C122.17 1.03635 125.358 1.2742 128.734 1.30047C134.888 1.32899 141.146 0.821029 147.245 1.05193C150.062 1.15072 152.681 1.8918 155.557 1.85411C157.572 1.81102 159.647 1.63155 161.611 1.85676C163.474 2.05599 165.146 2.40097 167.057 2.26599C168.507 2.16359 170.124 2.08245 171.518 2.18244C172.514 2.24445 173.461 2.64063 174.46 2.76855C175.227 2.8798 176.427 2.43126 176.958 3.08842C175.729 3.63823 173.839 2.91182 172.653 2.9956C167.934 3.22952 163.088 4.16702 158.296 4.90226C151.569 5.93958 144.846 7.04289 138.129 8.27794C134.819 8.8755 131.548 9.56957 128.245 10.299C124.942 11.0283 121.708 12.4475 118.409 13.2428C112.563 14.681 107.019 16.1969 101.141 18.9274C96.6824 20.9622 92.6642 23.1975 88.2782 25.988C84.4058 28.4776 80.4193 30.0492 76.5781 32.5036C74.4337 33.8788 71.519 35.7054 69.7524 37.9801C67.7707 40.5678 65.3996 44.5721 64.8019 47.6905C64.3118 50.3382 64.5403 52.1743 65.3444 54.2676C66.7654 58.0373 68.4086 61.6259 70.7701 64.4031C73.1663 67.2108 75.0939 70.5478 77.7365 73.0073C80.9687 75.9876 84.4682 78.3865 87.8497 81.0586C91.3318 83.7565 94.5779 87.0005 97.6608 90.289C99.2387 91.9968 100.525 93.8244 102.674 100.123C98.9414 98.3355 95.4522 96.1342 91.9943 93.8976C89.7363 92.4694 87.4229 91.2434 85.2275 89.7446C82.7893 88.0313 80.3232 86.4193 77.6143 85.2214C73.2126 83.2829 68.8318 81.1114 64.5516 78.9659C62.0716 77.7188 59.7234 76.4622 58.2951 73.8177C57.1614 71.7477 55.9652 69.7484 54.8003 67.7137C53.6007 65.6484 52.8175 63.3221 51.7463 61.1816C51.6735 61.0544 51.6355 60.958 51.5627 60.8309L47.9839 66.4089L48.0881 66.5009Z" fill="#68005F"/>
<path fill-rule="evenodd" clip-rule="evenodd" d="M0 50.5329C2.43636 57.1943 4.70527 66.7525 10.1262 71.7718C12.593 74.0646 16.4759 71.1986 18.5163 68.72C20.6634 66.1174 19.8411 62.136 17.6788 59.6574C15.5623 57.2252 12.4407 55.3662 10.0805 53.1355C7.81159 50.9976 5.66458 48.6429 2.31458 49.3555L0 50.5329Z" fill="url(#paint1_linear_521_8535)"/>
<path fill-rule="evenodd" clip-rule="evenodd" d="M10.9639 71.0903C8.66458 68.6117 7.06569 66.8456 5.89319 63.6853C5.52774 62.6939 4.82725 61.594 5.28406 60.5096C5.89315 59.0844 8.61885 58.852 9.95885 58.7126C11.6034 58.5422 13.2784 59.2548 14.7402 59.9364C16.4761 60.7265 19.0343 62.7868 19.0191 64.9402C19.0191 65.4824 18.6994 65.5598 18.5928 65.9316C18.4557 66.4738 18.5928 67.0315 18.3796 67.5582C17.7096 69.3862 14.8925 70.3467 13.2784 70.4862L10.9639 71.0749V71.0903Z" fill="#2C0026"/>
<path fill-rule="evenodd" clip-rule="evenodd" d="M107.274 282.538C104.746 286.256 102.949 289.137 101.168 293.212C100.209 295.381 99.1883 297.503 98.1072 299.594C97.5742 300.4 97.2545 301.283 97.1479 302.228C97.361 302.878 98.1986 303.235 98.7316 303.607C101.229 305.373 103.422 306.627 106.376 307.619C107.807 307.975 109.177 308.486 110.487 309.153C111.233 309.617 111.979 310.098 112.725 310.593C113.365 310.795 114.4 310.934 115.025 310.748C117.674 309.912 119.441 305.496 120.765 303.281C121.968 301.236 123.826 298.262 124.252 295.845C124.603 293.816 123.415 292.731 122.486 291.182C121.329 289.261 120.034 287.542 118.831 285.652C117.111 282.941 114.827 283.359 111.903 283.328L107.289 282.538H107.274Z" fill="url(#paint2_linear_521_8535)"/>
<path fill-rule="evenodd" clip-rule="evenodd" d="M109.955 282.538C107.229 283.948 105.63 284.629 104.168 287.263C103.651 288.192 102.63 289.106 102.463 290.175C102.128 292.267 104.808 295.024 105.92 296.48C106.727 297.534 107.473 298.742 108.371 299.718C109.437 300.865 109.635 301.933 110.488 303.126C111.508 304.536 113.244 304.66 114.553 303.715C116 302.677 117.766 300.508 118.619 298.975C119.411 297.565 120.903 295.396 120.934 293.661C120.964 292.143 120.203 290.392 119.594 289.029C118.345 286.21 117.507 284.521 114.553 283.127L109.94 282.538H109.955Z" fill="#2C0026"/>
<path fill-rule="evenodd" clip-rule="evenodd" d="M111.888 305.62C112.39 307.541 112.801 310.252 114.964 310.918C116.547 311.414 117.232 309.54 118.07 308.362C118.618 307.588 119.303 306.875 119.836 306.085C120.247 305.481 120.43 304.815 120.704 304.148C121.252 302.878 122.029 301.701 122.669 300.477C123.46 298.943 124.161 297.348 124.191 295.597C124.207 294.699 124.085 293.537 123.049 294.064C122.547 294.327 121.755 295.179 121.298 295.597C120.476 296.356 119.836 297.239 119.09 298.045C117.75 299.501 116.699 301.174 115.725 302.863C115.268 303.653 114.842 304.365 114.172 304.985C112.999 306.054 112.405 307.061 111.872 305.589L111.888 305.62Z" fill="black"/>
<path fill-rule="evenodd" clip-rule="evenodd" d="M381.063 249.845C378.87 255.206 376.601 258.893 378.23 264.516C379.281 268.156 379.982 269.256 383.362 269.969C389.925 271.348 395.727 270.96 402.427 269.923C404.36 269.628 405.152 270.279 405.274 268.11C405.35 266.731 403.584 264.284 402.792 263.153C400.889 260.395 398.711 257.436 396.107 255.314C393.899 253.517 389.818 250.202 386.849 249.861H381.078L381.063 249.845Z" fill="url(#paint3_linear_521_8535)"/>
<path fill-rule="evenodd" clip-rule="evenodd" d="M385.114 249.846C382.784 251.597 379.952 253.053 380.637 256.43C381.2 259.203 382.342 260.799 384.52 262.627C388.388 265.849 392.727 266.05 397.433 267.011C399.549 267.445 402.427 268.978 404.407 267.46C408.229 264.548 400.097 260.009 398.377 258.862C395.773 257.143 393.656 255.005 391.464 252.774C390.108 251.395 388.555 250.187 385.114 249.831V249.846Z" fill="#2C0026"/>
<path fill-rule="evenodd" clip-rule="evenodd" d="M381.839 269.815C384.321 268.374 386.986 267.119 389.894 267.088C392.117 267.057 394.401 266.298 396.655 266.717C398.101 266.98 399.624 267.414 401.086 267.476C402.243 267.522 403.203 267.894 404.406 267.832C403.918 268.142 403.522 268.095 403.02 268.219C402.137 268.452 401.284 268.792 400.401 269.04C398.543 269.552 396.442 269.753 394.538 269.784C392.513 269.831 390.518 270.187 388.463 270.187C386.376 270.187 384.29 270.187 381.824 269.799L381.839 269.815Z" fill="black"/>
<defs>
<linearGradient id="paint0_linear_521_8535" x1="443.856" y1="-303.768" x2="29.1891" y2="-335.096" gradientUnits="userSpaceOnUse">
<stop stop-color="#110015"/>
<stop offset="0.07" stop-color="#100012"/>
<stop offset="0.44" stop-color="#100009"/>
<stop offset="1" stop-color="#100007"/>
</linearGradient>
<linearGradient id="paint1_linear_521_8535" x1="212.25" y1="311.164" x2="212.25" y2="0.0789153" gradientUnits="userSpaceOnUse">
<stop stop-color="#110015"/>
<stop offset="0.07" stop-color="#100012"/>
<stop offset="0.44" stop-color="#100009"/>
<stop offset="1" stop-color="#100007"/>
</linearGradient>
<linearGradient id="paint2_linear_521_8535" x1="211.748" y1="311.063" x2="211.748" y2="0" gradientUnits="userSpaceOnUse">
<stop stop-color="#110015"/>
<stop offset="0.07" stop-color="#100012"/>
<stop offset="0.44" stop-color="#100009"/>
<stop offset="1" stop-color="#100007"/>
</linearGradient>
<linearGradient id="paint3_linear_521_8535" x1="212.03" y1="310.893" x2="212.03" y2="0" gradientUnits="userSpaceOnUse">
<stop stop-color="#110015"/>
<stop offset="0.07" stop-color="#100012"/>
<stop offset="0.44" stop-color="#100009"/>
<stop offset="1" stop-color="#100007"/>
</linearGradient>
</defs>
</svg>
