<svg width="386" height="355" viewBox="0 0 386 355" fill="none" xmlns="http://www.w3.org/2000/svg">
<path fill-rule="evenodd" clip-rule="evenodd" d="M47.3171 243.585C48.9945 245.75 55.2835 255.714 59.4114 258.619C62.7602 260.96 67.9656 261.408 71.7555 263.456C76.2835 265.91 83.5459 268.3 87.2976 272.113C89.8806 274.769 89.0486 278.809 90.2572 282.606C91.6605 287.009 95.555 292.933 98.2849 295.905C102.846 300.868 105.972 305.182 112.599 306.019C130.943 308.409 150.072 304.61 169.456 301.347C231.623 291.014 293.576 324.645 357.578 274.573C363.277 270.124 370.097 269.022 370.9 260.058C371.775 250.6 366.814 245.469 369.757 235.049C372.864 224.029 381.703 214.791 382.886 203.125C383.812 194.022 380.743 183.308 379.307 175.155C378.383 169.935 376.149 163.992 375.334 158.372C374.932 155.66 375.808 151.846 375.526 148.929C374.977 144.041 373.129 139.865 371.668 135.596C367.448 123.431 361.552 112.885 354.661 103.258C347.876 93.7864 340.233 85.3543 331.951 77.783C323.326 69.9097 313.095 64.3359 305.353 55.2582C300.979 50.1513 295.917 43.0703 290.148 41.1942C278.312 37.3652 264.171 41.1709 250.761 44.6312C239.057 47.6773 227.545 48.1647 215.93 49.8015C200.435 52.0388 183.553 52.6777 168.836 51.0753C159.068 50.004 150.377 45.8547 140.722 44.4492C131.986 43.1744 126.694 44.201 117.112 49.1852C88.9632 63.7366 67.1853 88.5719 44.5555 115.817C32.9944 129.717 24.09 141.44 16.4755 158.52C10.4073 172.131 2.44063 189.334 0.38484 203.639C-1.31121 215.472 2.804 225.622 8.6909 232.253C14.7486 239.036 26.2157 239.563 47.3444 243.485L47.3171 243.585Z" fill="url(#paint0_linear_521_8536)"/>
<path fill-rule="evenodd" clip-rule="evenodd" d="M202.486 297.249C194.533 295.365 186.665 294.485 179.82 290.108C175.573 287.406 171.329 283.53 168.295 279.111C165.364 274.784 163.014 269.729 160.36 265.088C157.743 260.542 153.415 255.041 157.727 247.753C160.214 243.565 163.581 240.651 166.485 236.955C169.757 232.841 172.452 227.658 174.778 222.893C183.357 205.549 193.336 190.064 208.859 182.767C229.408 173.093 247.481 178.406 265.017 183.43C274.778 186.231 283.851 189.603 292.346 195.006C301.822 201.09 310.341 208.807 319.068 216.151C327.897 223.586 336.939 230.712 345.71 238.282C349.534 241.6 353.638 245.291 356.264 250.032C359.386 255.521 360.676 262.118 359.183 269.728C358.327 273.932 356.533 274.516 353.545 275.967C345.918 279.703 338.192 283.414 330.524 286.371C323.4 289.126 316.8 289.429 309.813 291.065C306.884 291.762 303.838 293.347 300.922 294.304C296.146 295.849 291.354 297.068 286.561 298.908C276.723 302.736 267.89 303.98 258.254 305.444C250.946 306.548 243.749 304.773 236.78 304.254C227.486 303.541 217.741 303.545 209.006 301.03C204.97 299.88 198.899 300.342 202.483 297.185L202.486 297.249Z" fill="#1D0009"/>
<path fill-rule="evenodd" clip-rule="evenodd" d="M361.174 238.004C349.719 230.852 339.346 221.928 328.428 213.825C322.8 209.655 317.292 205.281 311.937 200.733C307.437 196.94 304.024 192.124 300.745 186.744C300.318 186.057 295.562 179.867 295.983 177.945C299.312 177.416 301.828 178.152 305.068 178.412C307.785 178.644 310.691 178.113 313.381 178.445C316.99 178.907 320.213 180.082 324.102 179.677C335.03 178.611 346.428 180.937 354.492 187.447C358.029 190.264 362.147 192.355 365.137 195.928C367.501 198.763 370.399 201.201 371.744 205.119C373.137 209.327 374.222 213.883 373.998 218.956C373.912 221.671 374.31 226.178 361.205 237.969L361.174 238.004Z" fill="#1D0009"/>
<path fill-rule="evenodd" clip-rule="evenodd" d="M372.815 178.159C370.033 176.692 367.04 174.913 364.05 173.82C362.156 173.138 360.615 172.953 358.975 171.503C357.095 169.841 355.65 167.757 353.59 166.37C351.392 164.861 348.867 163.93 346.519 162.661C340.922 159.696 335.683 156.118 330.116 153.119C321.703 148.656 312.529 147.119 303.425 144.402C290.147 140.414 277.219 135.618 263.791 131.869C250.694 128.227 238.035 124.228 225.64 119.035C215.777 114.904 206.482 109.166 196.414 105.473C192.159 103.881 185.833 103.807 183.011 99.6994C184.522 98.679 187.195 98.6857 188.692 98.6451C194.745 98.4782 200.357 99.8434 205.846 101.348C216.294 104.198 225.346 109.659 235.065 114.16C243.749 118.179 253.192 120.513 262.847 121.919C266.395 122.451 268.466 122.174 271.995 119.217C275.68 116.15 279.195 113.553 282.69 109.945C285.288 107.282 288.301 103.806 291.445 102.866C294.59 101.926 297.156 104.877 299.261 106.49C304.39 110.466 309.423 114.483 315.209 117.304C323.705 121.467 332.611 124.752 340.809 129.458C344.773 131.723 348.519 132.927 351.057 137.217C353.814 141.949 355.705 146.97 357.775 152.273C358.977 155.32 360.306 158.293 361.477 161.375C362.194 163.249 362.812 166.338 372.874 178.025L372.815 178.159Z" fill="#1D0009"/>
<path fill-rule="evenodd" clip-rule="evenodd" d="M211.27 170.264C205.235 176.4 199.908 179.877 193.542 185.286C185.398 192.224 176.605 197.968 168.037 203.664C161.138 208.23 153.624 212.252 146.463 213.672C138.334 215.291 130.549 214.112 122.403 215.405C112.415 216.992 102.157 217.783 92.3407 218.281C81.3243 218.897 70.1002 217.406 59.9359 214.993C50.8585 212.796 41.1589 210.545 33.819 204.799C31.5774 203.066 26.0618 200.421 25.646 196.829C25.0565 191.781 31.9404 181.93 34.6149 177.598C40.6271 167.906 46.1435 158.707 53.4508 150.099C61.4659 140.69 70.4137 132.292 80.2522 127.845C85.7287 125.37 90.9517 124.283 96.3456 123.347C102.451 122.295 109.157 120.907 115.016 121.374C123.396 122.087 131.462 124.257 139.278 126.641C152.361 130.643 162.536 139.516 174.227 146.194C182.658 150.981 191.269 155.495 199.727 160.183C204.327 162.761 212.533 165.118 211.365 170.225L211.27 170.264Z" fill="#1D0009"/>
<path fill-rule="evenodd" clip-rule="evenodd" d="M72.8009 244.165C83.4317 241.782 93.6237 242.856 104.343 240.924C112.868 239.408 123.106 236.367 131.135 237.823C137.649 238.994 140.217 244.489 142.495 251.278C144.577 257.46 147.16 262.596 150.114 267.999C154.866 276.603 165.364 282.288 166.635 294.14C167.091 298.512 164.64 298.392 161.663 298.798C155.001 299.791 148.606 299.656 141.886 301.403C131.176 304.151 118.832 308.058 109.701 303.581C102.812 300.218 99.4894 290.893 96.4774 283.145C94.9748 279.336 92.8908 276.253 91.5421 272.27C90.1626 268.322 88.8109 263.034 86.4023 259.974C81.0965 253.236 74.262 249.054 72.7974 244.1L72.8009 244.165Z" fill="#1D0009"/>
<path fill-rule="evenodd" clip-rule="evenodd" d="M136.225 46.9853C139.886 47.8032 142.247 48.713 145.309 50.552C148.607 52.5375 152.363 53.936 155.897 55.4481C158.665 56.6554 162.185 57.2874 164.597 59.1724C166.128 60.4019 167.026 62.6224 167.88 64.6175C170.698 71.1395 172.715 77.9464 177.208 82.8491C181.216 87.1988 187.04 89.4953 192.241 91.7377C195.573 93.1335 198.892 94.2693 202.432 95.2914C207.593 96.7537 212.316 99.1931 217.531 100.456C222.415 101.611 226.694 103.038 231.027 105.505C234.755 107.623 238.275 109.495 242.445 110.701C244.96 111.437 247.468 112.663 250.097 113.064C252.759 113.496 255.692 113.484 258.44 113.682C260.795 113.841 263.269 115.037 265.717 114.472C270.482 113.352 275.127 113.057 279.814 109.821C284.501 106.586 286.769 101.956 290.677 97.5361C292.647 95.3088 294.179 92.1987 296.699 91.1396C300.746 89.3853 304.457 91.7984 308.238 91.7922C310.746 91.7779 313.05 91.5824 315.549 90.7531C317.183 90.2135 318.667 89.2931 320.342 88.9136C322.567 88.4627 324.645 88.9355 326.904 88.5148C328.777 88.1866 330.422 88.462 332.076 88.9323C333.398 89.2956 335.613 90.5094 337.127 89.554C336.981 87.9983 335.918 87.6166 334.907 86.9703C332.914 85.6429 331.226 83.9026 329.203 82.61C325.762 80.3736 322.215 78.6014 318.921 76.061C316.816 74.4479 314.926 72.5912 312.852 70.9434C307.378 66.5994 301.494 63.1327 297.729 56.5798C296.582 54.5728 296.169 52.2855 295.117 50.2392C293.921 47.9419 292.24 46.9514 290.251 45.689C288.091 44.2756 285.491 43.7744 283.068 42.9343C281.574 42.4199 279.834 42.8037 278.252 42.4588C276.867 42.1652 275.815 41.9788 274.352 42.0496C270.674 42.1464 267.195 41.6745 263.335 42.6651C259.155 43.7437 254.547 44.7546 250.504 44.7142C239.976 44.708 228.839 48.6275 218.075 50.3346C204.402 52.5084 190.217 53.6091 177.66 50.9405C166.519 48.5307 155.435 45.9862 136.164 47.0548L136.225 46.9853Z" fill="black"/>
<path fill-rule="evenodd" clip-rule="evenodd" d="M263.376 177.576C254.715 176.491 245.558 177.139 236.925 175.955C233.247 175.432 229.518 175.173 225.868 174.55C222.515 174.004 219.043 173.662 216.388 171.501C213.087 168.83 210.829 164.912 207.224 162.654C203.55 160.336 200.031 157.845 196.388 155.492C192.882 153.26 188.952 151.025 185.87 148.176C184.742 147.179 183.926 145.9 182.617 145.176C181.981 144.862 181.117 145.152 181.12 143.977C186.589 144.471 191.411 146.936 196.424 148.703C203.164 151.065 212.433 153.803 220.457 147.689C225.096 144.164 226.37 137.352 230.224 133.132C232.812 130.274 236.544 131.217 239.012 131.663C246.254 133.043 252.942 136.91 259.517 139.871C272.302 145.655 285.757 149.925 298.158 156.487C299.33 157.089 301.012 157.46 300.714 159.243C300.615 159.837 299.681 161.306 299.462 162.104C296.974 171.253 298.878 179.634 300.171 187.536C301.215 193.792 302.734 199.786 305.565 204.708C302.119 198.622 296.651 195.028 291.197 191.694C287.124 189.209 283.136 186.489 278.974 184.173C271.992 180.295 264.354 178.192 263.339 177.481L263.376 177.576Z" fill="black"/>
<path fill-rule="evenodd" clip-rule="evenodd" d="M171.194 290.914C168.706 288.839 166.803 286.722 164.685 284.229C162.669 281.827 160.26 280.006 158.46 277.36C156.096 273.906 153.496 270.925 151.655 266.879C149.882 262.893 148.137 258.808 146.833 254.43C145.566 250.147 143.643 246.401 142.284 242.222C141.001 238.235 139.878 234.203 138.31 230.399C136.934 227.136 133.821 224.321 133.139 220.618C135.531 220.873 137.694 224.211 139.583 225.448C142.215 227.154 144.466 229.083 146.824 231.167C148.43 232.587 150.47 233.585 151.926 235.244C154.28 237.883 154.388 241.204 154.739 245.421C155.052 248.922 155.389 252.259 155.894 255.682C156.395 259.039 157.324 261.225 158.577 264.008C159.793 266.695 160.818 269.461 162.218 271.94C163.834 274.795 165.853 276.642 167.958 278.875C171.201 282.3 174.874 285.238 177.87 288.941C179.472 290.916 181.786 292.155 182.981 294.453C183.993 296.339 185.835 296.046 186.973 297.858C185.687 298.209 183.907 296.573 183.104 296.173C177.913 293.506 173.44 290.233 171.064 290.923L171.194 290.914Z" fill="black"/>
<path fill-rule="evenodd" clip-rule="evenodd" d="M370.37 241.173C368.929 236.054 367.479 229.501 369.231 223.113C370.134 219.819 371.776 216.31 373.746 213.462C375.504 210.924 377.614 208.262 378.531 205.228C379.448 202.194 378.848 198.811 378.702 196.015C378.365 190.199 378.049 184.153 377.269 178.563C376.519 172.939 376.056 167.197 375.624 161.42C375.477 159.244 374.562 157.318 375.058 154.967C375.588 155.745 375.608 156.755 375.727 157.791C375.963 159.797 376.666 161.411 377.059 163.309C377.935 167.619 377.896 172.483 378.995 176.679C381.074 184.657 383.402 192.42 385.262 200.576C385.686 202.439 386.317 203.927 385.814 206.149C385.15 209.034 382.661 211.919 381.094 214.379C379.679 216.599 378.126 218.699 376.843 220.976C373.051 227.606 370.984 234.833 369.108 241.98C368.591 243.941 368.109 245.933 368.142 247.823C368.229 252.613 370.993 256.235 369.959 261.398C368.946 266.331 364.45 270.108 360.939 272.77C359.089 274.173 357.243 275.642 355.39 276.98C353.096 278.61 351.728 281.121 349.816 283.214C347.17 286.207 343.761 288.34 340.698 290.221C336.274 292.883 331.632 295.724 327.092 297.415C324.118 298.506 321.127 299.272 318.156 300.428C315.473 301.466 312.752 302.409 310.051 303.122C306.964 303.927 303.85 304.833 300.777 305.278C297.38 305.747 294.239 305.512 290.913 305.486C284.849 305.458 278.683 305.959 272.674 305.731C269.899 305.634 267.319 304.903 264.485 304.94C262.499 304.983 260.455 305.16 258.521 304.938C256.685 304.741 255.038 304.401 253.154 304.534C251.726 304.635 250.133 304.715 248.759 304.616C247.778 304.555 246.845 304.164 245.861 304.038C245.106 303.928 243.923 304.371 243.4 303.723C244.61 303.18 246.473 303.897 247.642 303.814C252.29 303.584 257.066 302.659 261.786 301.934C268.414 300.91 275.038 299.822 281.656 298.604C284.917 298.014 288.14 297.33 291.394 296.61C294.649 295.891 297.835 294.491 301.085 293.706C306.845 292.288 312.308 290.793 318.099 288.099C322.492 286.092 326.451 283.887 330.772 281.135C334.587 278.679 338.515 277.129 342.3 274.708C344.412 273.351 347.284 271.549 349.025 269.306C350.977 266.753 353.313 262.803 353.902 259.727C354.385 257.116 354.16 255.305 353.368 253.24C351.968 249.521 350.349 245.982 348.022 243.242C345.661 240.473 343.762 237.181 341.158 234.755C337.974 231.815 334.526 229.449 331.194 226.813C327.763 224.152 324.565 220.952 321.528 217.708C319.973 216.024 318.706 214.221 316.589 208.008C320.266 209.771 323.704 211.943 327.111 214.149C329.335 215.558 331.615 216.767 333.778 218.245C336.18 219.935 338.61 221.525 341.279 222.707C345.615 224.619 349.932 226.761 354.149 228.877C356.592 230.108 358.906 231.347 360.313 233.956C361.43 235.997 362.609 237.97 363.756 239.977C364.938 242.014 365.71 244.308 366.765 246.42C366.837 246.545 366.874 246.64 366.946 246.766L370.472 241.264L370.37 241.173Z" fill="#68005F"/>
<path fill-rule="evenodd" clip-rule="evenodd" d="M310.203 353.711C307.803 347.14 305.567 337.712 300.226 332.761C297.796 330.499 293.97 333.326 291.96 335.771C289.844 338.338 290.654 342.265 292.785 344.71C294.87 347.109 297.946 348.943 300.271 351.143C302.507 353.252 304.622 355.575 307.923 354.872L310.203 353.711Z" fill="url(#paint1_linear_521_8536)"/>
<path fill-rule="evenodd" clip-rule="evenodd" d="M299.401 333.433C301.666 335.878 303.242 337.62 304.397 340.737C304.757 341.715 305.447 342.8 304.997 343.87C304.397 345.275 301.711 345.505 300.391 345.642C298.771 345.81 297.12 345.107 295.68 344.435C293.97 343.656 291.449 341.623 291.464 339.499C291.464 338.964 291.779 338.888 291.884 338.521C292.019 337.986 291.884 337.436 292.094 336.917C292.755 335.114 295.53 334.166 297.12 334.029L299.401 333.448L299.401 333.433Z" fill="#2C0026"/>
<path fill-rule="evenodd" clip-rule="evenodd" d="M312.056 28.0747C314.547 24.4073 316.317 21.5651 318.072 17.5463C319.018 15.407 320.023 13.3135 321.088 11.2506C321.613 10.456 321.928 9.58502 322.033 8.65289C321.823 8.01107 320.998 7.6596 320.473 7.29287C318.012 5.55087 315.852 4.31307 312.941 3.33511C311.531 2.98364 310.181 2.47939 308.891 1.82232C308.156 1.36388 307.42 0.890191 306.685 0.401208C306.055 0.202538 305.035 0.0650564 304.42 0.248406C301.809 1.07357 300.069 5.42864 298.764 7.61379C297.579 9.63088 295.748 12.5648 295.328 14.9486C294.983 16.9503 296.153 18.02 297.068 19.5481C298.209 21.4429 299.484 23.1391 300.669 25.0034C302.364 27.6775 304.615 27.2649 307.495 27.2955L312.041 28.0747L312.056 28.0747Z" fill="url(#paint2_linear_521_8536)"/>
<path fill-rule="evenodd" clip-rule="evenodd" d="M309.415 28.0747C312.1 26.6842 313.676 26.0118 315.116 23.4141C315.626 22.4972 316.631 21.5957 316.796 20.5413C317.126 18.4784 314.486 15.7584 313.391 14.322C312.596 13.2829 311.86 12.091 310.975 11.1284C309.925 9.99755 309.73 8.9432 308.89 7.76656C307.885 6.37603 306.174 6.25375 304.884 7.18588C303.459 8.20968 301.719 10.349 300.878 11.8618C300.098 13.2524 298.628 15.3917 298.598 17.1031C298.568 18.6006 299.318 20.3274 299.918 21.6721C301.148 24.4532 301.974 26.1188 304.884 27.494L309.43 28.0747L309.415 28.0747Z" fill="#2C0026"/>
<path fill-rule="evenodd" clip-rule="evenodd" d="M307.511 5.3066C307.016 3.41177 306.61 0.737664 304.48 0.0805898C302.92 -0.408393 302.245 1.44051 301.42 2.60186C300.879 3.3659 300.204 4.06887 299.679 4.8482C299.274 5.44415 299.094 6.10119 298.824 6.75826C298.284 8.01131 297.519 9.17266 296.889 10.3798C296.109 11.8926 295.418 13.4665 295.388 15.1932C295.373 16.0795 295.493 17.2255 296.514 16.706C297.009 16.4463 297.789 15.6058 298.239 15.1932C299.049 14.4445 299.679 13.5735 300.414 12.7789C301.735 11.3426 302.77 9.69213 303.73 8.02654C304.18 7.24722 304.6 6.54427 305.26 5.93304C306.415 4.87869 307 3.8854 307.526 5.33709L307.511 5.3066Z" fill="black"/>
<path fill-rule="evenodd" clip-rule="evenodd" d="M42.3041 60.3226C44.4645 55.0354 46.6999 51.3985 45.0946 45.8516C44.0594 42.2606 43.3693 41.1756 40.0387 40.4727C33.5725 39.1127 27.8565 39.4948 21.2553 40.5186C19.3499 40.8089 18.5697 40.1671 18.4497 42.3064C18.3747 43.6664 20.115 46.0808 20.8951 47.1963C22.7705 49.9163 24.9159 52.8349 27.4814 54.9284C29.6568 56.701 33.6776 59.9711 36.6031 60.3073L42.2891 60.3073L42.3041 60.3226Z" fill="url(#paint3_linear_521_8536)"/>
<path fill-rule="evenodd" clip-rule="evenodd" d="M38.3129 60.3218C40.6083 58.5951 43.3988 57.1587 42.7237 53.8275C42.1686 51.0922 41.0433 49.5183 38.8979 47.7151C35.0872 44.5367 30.8114 44.338 26.1756 43.3906C24.0902 42.9628 21.2546 41.4499 19.3043 42.9474C15.5385 45.8202 23.5501 50.2976 25.2454 51.4284C27.8108 53.1245 29.8962 55.2333 32.0566 57.4337C33.3919 58.7937 34.9222 59.9856 38.3129 60.337L38.3129 60.3218Z" fill="#2C0026"/>
<path fill-rule="evenodd" clip-rule="evenodd" d="M41.5396 40.6247C39.0941 42.0458 36.4687 43.2836 33.6031 43.3142C31.4127 43.3447 29.1623 44.0935 26.9419 43.6809C25.5166 43.4211 24.0163 42.9933 22.576 42.9322C21.4358 42.8863 20.4907 42.5195 19.3054 42.5806C19.7855 42.275 20.1757 42.3209 20.6707 42.1986C21.5409 41.9694 22.381 41.6333 23.2512 41.3888C25.0815 40.8845 27.152 40.6858 29.0273 40.6552C31.0227 40.6094 32.988 40.258 35.0134 40.258C37.0688 40.258 39.1241 40.258 41.5546 40.64L41.5396 40.6247Z" fill="black"/>
<defs>
<linearGradient id="paint0_linear_521_8536" x1="-18.0768" y1="701.744" x2="360.208" y2="724.538" gradientUnits="userSpaceOnUse">
<stop stop-color="#110015"/>
<stop offset="0.07" stop-color="#100012"/>
<stop offset="0.44" stop-color="#100009"/>
<stop offset="1" stop-color="#100007"/>
</linearGradient>
<linearGradient id="paint1_linear_521_8536" x1="192.773" y1="-0.187512" x2="192.773" y2="354.91" gradientUnits="userSpaceOnUse">
<stop stop-color="#110015"/>
<stop offset="0.07" stop-color="#100012"/>
<stop offset="0.44" stop-color="#100009"/>
<stop offset="1" stop-color="#100007"/>
</linearGradient>
<linearGradient id="paint2_linear_521_8536" x1="193.23" y1="-0.071859" x2="193.23" y2="355" gradientUnits="userSpaceOnUse">
<stop stop-color="#110015"/>
<stop offset="0.07" stop-color="#100012"/>
<stop offset="0.44" stop-color="#100009"/>
<stop offset="1" stop-color="#100007"/>
</linearGradient>
<linearGradient id="paint3_linear_521_8536" x1="192.973" y1="0.121682" x2="192.973" y2="355" gradientUnits="userSpaceOnUse">
<stop stop-color="#110015"/>
<stop offset="0.07" stop-color="#100012"/>
<stop offset="0.44" stop-color="#100009"/>
<stop offset="1" stop-color="#100007"/>
</linearGradient>
</defs>
</svg>
