<svg width="373" height="284" viewBox="0 0 373 284" fill="none" xmlns="http://www.w3.org/2000/svg">
<path fill-rule="evenodd" clip-rule="evenodd" d="M313.48 221.002C311.168 222.321 301.867 228.568 296.963 230.094C292.992 231.33 287.887 230.946 283.63 231.875C278.489 233.026 270.789 233.75 265.971 235.983C262.607 237.518 262.079 240.5 259.634 243.039C256.821 245.973 251.148 249.692 247.557 251.456C241.547 254.391 237.149 257.027 230.559 256.755C212.316 256.021 195.431 250.742 178.068 245.84C122.456 230.186 52.3224 245.87 8.28275 201.62C4.36771 197.679 -1.75887 196.013 0.477791 189.515C2.82877 182.679 9.22343 179.689 9.9188 171.868C10.6311 163.616 5.33677 155.858 8.13697 147.38C10.3191 140.762 16.7906 133.576 20.8911 127.945C23.5387 124.328 27.6298 120.406 30.306 116.512C31.6087 114.606 32.0317 111.796 33.2799 109.77C35.4225 106.358 38.6138 103.632 41.4297 100.792C49.5027 92.7048 58.6433 85.9638 68.4348 80.0358C78.0609 74.1954 88.1422 69.2132 98.5356 64.9363C109.354 60.48 120.949 57.8703 131.331 52.4457C137.213 49.3784 144.386 45.0238 150.499 44.453C163.048 43.3038 175.199 47.8991 186.785 52.1642C196.92 55.9072 207.694 57.7751 218.134 60.494C232.119 64.1477 247.953 66.881 262.456 67.7206C272.098 68.2887 281.752 66.4729 291.37 66.7369C300.069 66.9922 304.766 68.4411 312.253 73.2647C334.15 87.4052 346.51 107.963 358.925 130.409C365.244 141.855 369.765 151.393 371.311 164.591C372.53 175.072 374.314 188.419 371.497 198.867C369.155 207.528 361.829 214.208 354.016 218.126C345.98 222.143 334.913 221 313.529 220.934L313.48 221.002Z" fill="url(#paint0_linear_521_8546)"/>
<path fill-rule="evenodd" clip-rule="evenodd" d="M148.037 238.481C156.225 238.208 164.01 238.643 171.966 236.418C176.918 235.05 182.213 232.889 186.578 230.117C190.799 227.416 194.741 224.147 198.816 221.199C202.827 218.297 208.752 214.974 207.12 209.22C206.185 205.884 203.961 203.385 202.429 200.352C200.712 196.971 199.881 192.918 199.235 189.213C196.914 175.708 192.612 163.348 180.296 156.079C164.002 146.456 145.045 147.812 126.712 149.037C116.5 149.716 106.748 150.897 96.8583 153.654C85.788 156.719 75.1192 161.067 64.4058 165.126C53.5118 169.251 42.5668 173.125 31.697 177.329C26.9261 179.175 21.8487 181.276 17.7244 184.292C12.92 187.767 9.4744 192.314 8.35035 197.911C7.74595 201.012 9.26823 201.676 11.6158 203.124C17.6035 206.817 23.7289 210.475 30.0151 213.631C35.8713 216.553 42.0247 217.623 48.1283 219.756C50.6643 220.649 53.0145 222.191 55.4674 223.242C59.4945 224.983 63.6388 226.479 67.5703 228.45C75.6408 232.498 83.6027 234.538 92.2663 236.874C98.8266 238.644 106.305 238.338 113.056 238.878C122.126 239.604 131.396 240.923 140.529 240.286C144.753 239.991 150.362 241.165 148.028 238.424L148.037 238.481Z" fill="#2C0026"/>
<path fill-rule="evenodd" clip-rule="evenodd" d="M17.0977 175.085C30.3944 171.532 43.2199 166.555 56.3118 162.22C63.0275 159.994 69.7315 157.615 76.3445 155.11C81.8741 153.004 86.7654 150.011 91.661 146.662C92.283 146.212 98.9037 142.449 99.126 141.037C96.1252 140.222 93.4965 140.423 90.3439 140.168C87.6954 139.933 85.0915 139.217 82.4242 139.092C78.822 138.937 75.4041 139.355 71.8197 138.546C61.8019 136.324 50.1954 136.47 40.3426 140.003C36.0526 141.566 31.4227 142.476 27.3903 144.623C24.2059 146.316 20.6103 147.666 18.0581 150.282C15.3219 153.096 12.7833 156.185 11.2968 159.828C10.4919 161.791 8.60389 164.922 17.1191 175.069L17.0977 175.085Z" fill="#2C0026"/>
<path fill-rule="evenodd" clip-rule="evenodd" d="M26.0478 130.891C29.1886 130.224 32.6082 129.355 35.8519 128.966C37.9032 128.734 39.4308 128.817 41.4292 128.013C43.752 127.071 45.8316 125.791 48.2484 125.07C50.8457 124.283 53.5513 123.962 56.2059 123.39C62.4937 122.019 68.6947 120.165 74.9825 118.794C84.4692 116.746 93.6757 116.891 103.28 116.138C117.246 115.055 131.128 113.358 145.109 112.521C158.768 111.691 172.111 110.513 185.655 108.483C196.424 106.855 207.151 104.038 217.943 102.715C222.51 102.172 228.531 102.92 232.626 100.407C231.526 99.4693 229.006 99.1416 227.598 98.9082C221.909 97.9845 216.135 98.2126 210.38 98.5564C199.481 99.1867 189.042 101.86 178.339 103.76C168.726 105.451 158.973 105.861 149.339 105.576C145.804 105.469 143.908 105.011 141.543 102.453C139.087 99.7673 136.621 97.4752 134.49 94.4263C132.916 92.1948 131.227 89.3073 128.533 88.2391C125.839 87.1708 122.459 88.9098 119.901 89.7973C113.708 91.9342 107.561 94.1344 101.123 95.3887C91.6743 97.217 82.0962 98.3681 72.7401 100.643C68.2104 101.737 64.2428 102.071 60.4312 104.797C56.255 107.786 52.7527 111.122 48.9994 114.608C46.8314 116.626 44.5813 118.574 42.4285 120.613C41.1068 121.858 39.4886 123.96 26.0202 130.943L26.0478 130.891Z" fill="#2C0026"/>
<path fill-rule="evenodd" clip-rule="evenodd" d="M182.208 146.864C185.874 152.045 189.788 155.215 194.025 159.919C199.466 165.934 205.857 171.229 212.099 176.408C217.138 180.595 222.926 184.464 229.244 186.442C236.438 188.685 244.209 188.874 251.513 190.908C260.451 193.398 269.942 195.295 279.09 196.991C289.354 198.875 300.533 199.358 310.979 198.959C320.325 198.618 330.285 198.314 339.223 195.187C341.94 194.248 348.08 193.08 349.672 190.58C351.928 187.054 348.695 179.122 347.589 175.684C345.106 167.979 342.948 160.68 338.892 153.599C334.444 145.839 328.714 138.653 320.887 134.172C316.517 131.683 311.936 130.214 307.116 128.822C301.649 127.256 295.771 125.345 290.052 124.924C281.846 124.312 273.475 124.783 265.261 125.428C251.464 126.519 238.864 131.492 225.514 134.699C215.91 136.992 206.234 139.049 196.606 141.263C191.379 142.476 182.778 143.081 182.208 146.864Z" fill="#1D0009"/>
<path fill-rule="evenodd" clip-rule="evenodd" d="M289.047 217.972C279.726 214.861 269.697 214.252 260.173 211.448C252.6 209.222 243.858 205.692 235.764 205.641C229.173 205.594 224.875 209.185 220.452 213.733C216.418 217.871 212.222 221.196 207.598 224.605C200.195 230.089 188.31 232.749 183.161 241C181.27 244.037 183.635 244.285 186.297 244.991C192.268 246.578 198.413 247.364 204.232 249.51C213.467 252.909 223.919 257.321 234.087 255.358C241.766 253.879 248.01 247.693 253.475 242.552C256.182 240.015 259.178 238.105 261.789 235.478C264.399 232.851 267.492 229.265 270.796 227.42C278.094 223.329 285.967 221.26 289.032 217.951L289.047 217.972Z" fill="#2C0026"/>
<path fill-rule="evenodd" clip-rule="evenodd" d="M294.744 69.1117C290.967 69.2121 288.466 69.5448 284.909 70.449C281.098 71.4085 277.084 71.905 273.219 72.5181C270.189 72.9767 266.635 72.9796 263.731 74.0211C261.889 74.6796 260.261 76.1786 258.802 77.4591C253.955 81.7361 249.773 86.3024 243.864 89.1965C238.632 91.7617 232.3 92.6187 226.604 93.4975C222.957 94.0498 219.45 94.4357 215.764 94.6628C210.381 95.0258 205.1 96.1181 199.691 96.3079C194.624 96.4747 190.112 96.9142 185.154 98.0934C180.921 99.1013 176.917 99.9749 172.583 100.254C169.939 100.433 167.138 100.983 164.517 100.921C161.837 100.87 159.045 100.482 156.36 100.241C154.048 100.02 151.326 100.545 149.175 99.8223C145.018 98.3995 140.725 97.557 137.313 94.6323C133.938 91.7131 133.316 88.0865 131.059 84.4548C129.926 82.6101 129.492 80.1954 127.483 79.0812C124.213 77.3054 119.891 78.5063 116.33 78.001C113.963 77.6589 111.841 77.2039 109.705 76.2771C108.339 75.693 107.233 74.7917 105.752 74.3218C103.772 73.7004 101.657 73.7538 99.633 73.1635C97.9847 72.6867 96.3132 72.6761 94.5863 72.7698C93.2017 72.8406 90.7153 73.4197 89.588 72.5339C90.2429 71.4502 91.4138 71.3093 92.5427 70.9742C94.8736 70.3151 97.099 69.2829 99.43 68.6238C103.419 67.5035 107.446 66.7086 111.384 65.3363C113.921 64.4643 116.357 63.4079 118.878 62.5148C125.503 60.1619 132.299 58.4552 138.063 54.3178C139.821 53.0455 140.973 51.4739 142.665 50.1538C144.593 48.6629 146.535 48.1887 148.808 47.5395C151.356 46.8196 153.953 46.8023 156.573 46.5442C158.181 46.376 159.713 46.8726 161.296 46.8509C162.711 46.8224 163.762 46.8323 165.133 47.0601C168.587 47.643 172.049 47.7388 175.391 48.9808C179.019 50.3042 183.042 51.6313 186.881 52.1602C196.889 53.5545 206.163 57.824 215.806 60.4777C228.069 63.8689 241.186 66.545 254.009 66.3207C265.402 66.1037 276.777 65.7713 294.729 69.0906L294.744 69.1117Z" fill="black"/>
<path fill-rule="evenodd" clip-rule="evenodd" d="M130.258 145.125C138.858 145.516 147.328 147.22 155.926 147.517C159.571 147.64 163.259 147.958 166.895 148.024C170.253 148.066 173.674 148.287 176.918 147.129C180.926 145.673 184.395 143.196 188.579 142.03C192.822 140.855 197.026 139.58 201.253 138.383C205.322 137.237 209.802 136.211 213.711 134.571C215.088 133.992 216.313 133.202 217.815 132.886C218.518 132.73 219.25 133.067 219.62 132.222C214.253 131.836 208.833 132.963 203.493 133.521C196.312 134.286 186.598 135.022 180.999 129.603C177.756 126.46 178.838 121.44 176.578 117.939C175.065 115.566 171.202 115.729 168.72 115.726C161.35 115.73 153.697 117.607 146.493 118.838C132.434 121.241 118.195 122.489 104.241 125.491C102.913 125.777 101.214 125.818 100.901 127.104C100.804 127.559 101.188 128.726 101.125 129.318C100.445 136.165 95.8217 141.885 91.9419 147.324C88.8333 151.66 85.3956 155.72 81.0478 158.833C86.3885 154.969 92.7362 153.138 99.0677 151.511C103.769 150.292 108.465 148.885 113.163 147.798C121.087 145.981 129.064 145.507 130.258 145.125Z" fill="black"/>
<path fill-rule="evenodd" clip-rule="evenodd" d="M179.947 238.123C183.022 236.958 185.505 235.74 188.359 234.221C191.068 232.774 193.981 231.79 196.591 230.159C200.003 228.012 203.484 226.232 206.547 223.599C209.566 220.997 212.598 218.322 215.302 215.371C217.956 212.488 220.996 210.096 223.732 207.282C226.291 204.628 228.715 201.879 231.468 199.406C233.844 197.27 237.747 195.666 239.644 193.138C237.298 193.006 234.125 195.077 231.91 195.716C228.826 196.598 226.069 197.662 223.088 198.824C221.075 199.606 218.812 200.088 216.862 201.049C213.754 202.623 212.529 204.954 210.767 207.898C209.313 210.363 207.862 212.696 206.236 215.06C204.639 217.371 203.017 218.834 200.886 220.632C198.841 222.368 196.946 224.22 194.78 225.788C192.292 227.587 189.761 228.648 186.981 229.953C182.748 231.956 178.283 233.549 174.195 235.8C172.018 236.99 169.422 237.552 167.479 239.022C165.901 240.228 164.246 239.788 162.549 240.919C163.663 241.333 165.891 240.395 166.805 240.215C172.652 239.003 177.967 237.277 180.011 238.077L179.947 238.123Z" fill="black"/>
<path fill-rule="evenodd" clip-rule="evenodd" d="M7.29695 176.108C10.387 172.653 13.9301 168.195 14.3911 163.4C14.6264 160.919 14.2575 158.232 13.3158 155.928C12.4617 153.882 11.3851 151.707 11.5312 149.419C11.6772 147.13 13.3543 144.793 14.4434 142.818C16.7048 138.71 19.0278 134.462 21.6244 130.593C24.2272 126.688 26.6076 122.654 28.936 118.594C29.7973 117.073 31.3085 115.819 31.6451 114.067C30.8854 114.552 30.5191 115.266 30.0732 116.006C29.194 117.413 27.9831 118.449 26.9698 119.76C24.6975 122.72 23.1108 126.179 20.6525 129.017C15.9906 134.412 11.1857 139.653 6.72493 145.192C5.68123 146.46 4.61424 147.425 4.3545 149.057C4.02876 151.187 5.44059 153.6 6.08726 155.54C6.69191 157.285 7.43425 158.995 7.91642 160.797C9.29951 166.024 8.82704 171.438 8.23564 176.777C8.059 178.253 7.86723 179.708 7.20521 181.054C5.53629 184.444 1.65928 186.671 0.936165 190.468C0.238045 194.119 3.25101 197.396 5.72034 199.783C7.01133 201.032 8.25947 202.312 9.57816 203.508C11.1892 204.975 11.683 206.929 12.7918 208.695C14.3288 211.146 16.824 213.161 19.1063 214.88C22.4186 217.395 25.8649 220.006 29.6168 221.818C32.0662 222.999 34.6478 223.956 37.1123 225.159C39.3329 226.249 41.5811 227.287 43.9124 228.168C46.5611 229.173 49.2401 230.22 51.9969 230.922C55.0772 231.711 58.1566 231.955 61.278 232.394C67.0443 233.198 72.7696 234.352 78.5243 235.004C81.2184 235.302 83.8989 235.128 86.5956 235.521C88.4647 235.806 90.3455 236.243 92.2673 236.329C94.0943 236.42 95.7291 236.424 97.5338 236.756C98.8621 237.015 100.337 237.296 101.69 237.408C102.656 237.48 103.674 237.354 104.645 237.389C105.391 237.428 106.367 237.877 107.086 237.517C106.123 236.995 104.093 237.211 103.015 237.028C98.6572 236.232 94.4389 234.95 90.1957 233.815C84.2307 232.192 78.3087 230.537 72.4054 228.773C69.5423 227.924 66.6548 226.995 63.8042 226.072C60.9535 225.149 58.3952 223.726 55.5785 222.714C50.5645 220.916 45.9233 219.138 41.2854 216.458C37.7972 214.423 34.7309 212.34 31.5715 209.811C28.7778 207.563 25.557 205.944 22.7846 203.681C21.2523 202.414 19.0888 200.769 18.2187 198.927C17.2394 196.842 16.319 193.752 16.7859 191.456C17.1904 189.527 18.0445 188.267 19.4797 186.908C22.0587 184.464 24.7504 182.132 27.9223 180.511C31.1004 178.854 33.996 176.759 37.2769 175.381C41.2648 173.715 45.3673 172.481 49.4276 171.052C53.5461 169.613 57.7117 167.788 61.6486 165.87C63.6783 164.883 65.5069 163.753 69.614 159.626C65.5562 160.379 61.552 161.478 57.5479 162.577C54.9845 163.276 52.4096 163.823 49.8489 164.616C47.013 165.48 44.1466 166.302 41.2266 166.777C36.4689 167.555 31.6799 168.516 26.9339 169.445C24.2123 169.97 21.6095 170.569 19.3512 172.234C17.6076 173.528 15.8337 174.779 14.075 176.052C12.2733 177.355 10.7764 178.855 9.07221 180.249C8.96494 180.326 8.87913 180.388 8.77189 180.466L7.28175 176.087L7.29695 176.108Z" fill="#68005F"/>
<path fill-rule="evenodd" clip-rule="evenodd" d="M213.011 283.26C211.637 279.49 210.357 274.08 207.299 271.239C205.908 269.941 203.717 271.563 202.566 272.966C201.355 274.439 201.819 276.693 203.039 278.096C204.233 279.472 205.993 280.524 207.325 281.787C208.605 282.997 209.816 284.33 211.705 283.926L213.011 283.26Z" fill="url(#paint1_linear_521_8546)"/>
<path fill-rule="evenodd" clip-rule="evenodd" d="M206.826 271.625C208.123 273.027 209.025 274.027 209.687 275.816C209.893 276.377 210.288 276.999 210.03 277.613C209.687 278.42 208.149 278.551 207.393 278.63C206.466 278.727 205.521 278.323 204.696 277.938C203.717 277.49 202.274 276.324 202.283 275.106C202.283 274.799 202.463 274.755 202.523 274.544C202.6 274.237 202.523 273.922 202.643 273.624C203.021 272.589 204.61 272.045 205.521 271.967L206.826 271.633L206.826 271.625Z" fill="#2C0026"/>
<path fill-rule="evenodd" clip-rule="evenodd" d="M172.211 16.1095C173.637 14.0051 174.651 12.3743 175.656 10.0682C176.197 8.84068 176.772 7.63945 177.382 6.45573C177.683 5.99977 177.863 5.49998 177.923 4.9651C177.803 4.59685 177.331 4.39516 177.03 4.18474C175.621 3.18513 174.385 2.4749 172.718 1.91371C171.911 1.71205 171.138 1.42271 170.399 1.04567C169.978 0.782636 169.557 0.510816 169.137 0.230237C168.776 0.116254 168.192 0.0373661 167.84 0.142591C166.345 0.616071 165.349 3.115 164.601 4.36888C163.923 5.52629 162.875 7.20976 162.634 8.57762C162.437 9.72624 163.107 10.34 163.631 11.2169C164.284 12.3041 165.014 13.2774 165.692 14.3471C166.663 15.8816 167.951 15.6448 169.6 15.6624L172.203 16.1095L172.211 16.1095Z" fill="url(#paint2_linear_521_8546)"/>
<path fill-rule="evenodd" clip-rule="evenodd" d="M170.7 16.1095C172.237 15.3116 173.139 14.9258 173.964 13.4352C174.256 12.9091 174.831 12.3917 174.926 11.7867C175.115 10.603 173.603 9.04228 172.976 8.21806C172.521 7.62181 172.1 6.93794 171.593 6.38554C170.992 5.73668 170.88 5.13167 170.399 4.45653C169.824 3.65861 168.845 3.58845 168.106 4.1233C167.29 4.71077 166.293 5.93834 165.812 6.80641C165.366 7.60432 164.524 8.83186 164.507 9.81389C164.49 10.6732 164.919 11.664 165.263 12.4356C165.967 14.0314 166.44 14.9871 168.106 15.7763L170.708 16.1095L170.7 16.1095Z" fill="#2C0026"/>
<path fill-rule="evenodd" clip-rule="evenodd" d="M169.609 3.04497C169.325 1.95772 169.093 0.423292 167.874 0.0462467C166.98 -0.234332 166.594 0.826581 166.122 1.49296C165.812 1.93138 165.426 2.33473 165.125 2.7819C164.893 3.12388 164.79 3.50093 164.636 3.87794C164.326 4.59694 163.888 5.26332 163.528 5.95601C163.081 6.82408 162.686 7.72718 162.669 8.718C162.66 9.22654 162.729 9.88414 163.313 9.58604C163.596 9.43696 164.043 8.95472 164.301 8.718C164.764 8.28834 165.125 7.78859 165.546 7.33265C166.302 6.50844 166.895 5.56144 167.444 4.60569C167.702 4.15852 167.942 3.75517 168.32 3.40443C168.982 2.79942 169.317 2.22947 169.617 3.06245L169.609 3.04497Z" fill="black"/>
<path fill-rule="evenodd" clip-rule="evenodd" d="M84.1201 36.0488C85.357 33.015 86.6368 30.9281 85.7177 27.7452C85.1251 25.6847 84.7299 25.0621 82.8231 24.6588C79.1211 23.8784 75.8487 24.0977 72.0694 24.6851C70.9785 24.8517 70.5318 24.4834 70.4631 25.711C70.4202 26.4913 71.4165 27.8767 71.8632 28.5168C72.9368 30.0776 74.1651 31.7523 75.6339 32.9536C76.8793 33.9707 79.1813 35.8471 80.8562 36.04L84.1115 36.04L84.1201 36.0488Z" fill="url(#paint3_linear_521_8546)"/>
<path fill-rule="evenodd" clip-rule="evenodd" d="M81.8353 36.0484C83.1495 35.0576 84.7471 34.2334 84.3606 32.3219C84.0428 30.7524 83.3986 29.8492 82.1703 28.8146C79.9886 26.9908 77.5407 26.8768 74.8866 26.3332C73.6927 26.0877 72.0693 25.2195 70.9527 26.0788C68.7968 27.7273 73.3835 30.2964 74.3541 30.9452C75.8228 31.9185 77.0167 33.1285 78.2536 34.3912C79.018 35.1715 79.8942 35.8554 81.8353 36.0571L81.8353 36.0484Z" fill="#2C0026"/>
<path fill-rule="evenodd" clip-rule="evenodd" d="M83.6822 24.746C82.2822 25.5615 80.7791 26.2717 79.1385 26.2893C77.8845 26.3068 76.5961 26.7364 75.3249 26.4997C74.5089 26.3506 73.6499 26.1051 72.8254 26.07C72.1726 26.0437 71.6315 25.8333 70.9529 25.8683C71.2277 25.693 71.4511 25.7193 71.7346 25.6491C72.2327 25.5176 72.7137 25.3247 73.2119 25.1845C74.2598 24.8951 75.4451 24.7811 76.5188 24.7635C77.6612 24.7372 78.7864 24.5356 79.9459 24.5356C81.1227 24.5356 82.2994 24.5356 83.6908 24.7548L83.6822 24.746Z" fill="black"/>
<defs>
<linearGradient id="paint0_linear_521_8546" x1="186.521" y1="0.0465749" x2="186.521" y2="284.001" gradientUnits="userSpaceOnUse">
<stop stop-color="#110015"/>
<stop offset="0.07" stop-color="#100012"/>
<stop offset="0.44" stop-color="#100009"/>
<stop offset="1" stop-color="#100007"/>
</linearGradient>
<linearGradient id="paint1_linear_521_8546" x1="186.28" y1="-0.150007" x2="186.28" y2="283.928" gradientUnits="userSpaceOnUse">
<stop stop-color="#110015"/>
<stop offset="0.07" stop-color="#100012"/>
<stop offset="0.44" stop-color="#100009"/>
<stop offset="1" stop-color="#100007"/>
</linearGradient>
<linearGradient id="paint2_linear_521_8546" x1="186.722" y1="-0.0574839" x2="186.722" y2="284" gradientUnits="userSpaceOnUse">
<stop stop-color="#110015"/>
<stop offset="0.07" stop-color="#100012"/>
<stop offset="0.44" stop-color="#100009"/>
<stop offset="1" stop-color="#100007"/>
</linearGradient>
<linearGradient id="paint3_linear_521_8546" x1="186.474" y1="0.0973491" x2="186.473" y2="284" gradientUnits="userSpaceOnUse">
<stop stop-color="#110015"/>
<stop offset="0.07" stop-color="#100012"/>
<stop offset="0.44" stop-color="#100009"/>
<stop offset="1" stop-color="#100007"/>
</linearGradient>
</defs>
</svg>
