<svg width="81" height="69" viewBox="0 0 81 69" fill="none" xmlns="http://www.w3.org/2000/svg">
<path d="M1.82168 55.3638C4.53972 65.9813 72.4369 73.9713 78.0614 62.9516C83.1745 52.9239 79.3262 11.9822 74.9396 4.82339C68.9923 -4.93614 10.2449 1.9009 5.4278 9.59591C0.933612 16.7547 -1.004 44.3709 1.82168 55.3638Z" fill="url(#paint0_radial_50_1189)"/>
<path d="M2.03679 53.4871C4.75483 63.7292 72.2483 69.467 77.8459 58.8226C82.9321 49.1436 79.1645 12.1431 74.8049 5.22568C68.8844 -4.15848 10.3524 2.43725 5.56216 9.83733C1.06798 16.7548 -0.761987 42.8696 2.03679 53.4871Z" fill="url(#paint1_linear_50_1189)"/>
<path d="M2.87107 52.6023C5.53529 62.5495 71.6025 68.2604 77.0924 57.9379C82.071 48.5537 78.3303 12.4917 74.0783 5.78873C68.2655 -3.35412 10.9983 3.05392 6.2888 10.2395C1.90226 16.9425 0.099207 42.2797 2.87107 52.6023Z" fill="url(#paint2_linear_50_1189)"/>
<path d="M22.7108 37.9375L20.5162 50.6359C20.459 50.9758 20.5551 51.3225 20.7782 51.5857C21.0002 51.8489 21.3275 52 21.672 52H59.328C59.6725 52 59.9998 51.8489 60.2218 51.5857C60.4449 51.3225 60.5411 50.9757 60.4838 50.6359L58.2748 37.9375H22.7108ZM52.2188 41.4531C52.8659 41.4531 53.3906 41.9778 53.3906 42.625C53.3906 43.2722 52.8659 43.7969 52.2188 43.7969C51.5716 43.7969 51.0469 43.2722 51.0469 42.625C51.0469 41.9778 51.5716 41.4531 52.2188 41.4531ZM42.8438 41.4531C43.491 41.4531 44.0157 41.9778 44.0157 42.625C44.0157 43.2722 43.491 43.7969 42.8438 43.7969C42.1966 43.7969 41.6719 43.2722 41.6719 42.625C41.6719 41.9778 42.1966 41.4531 42.8438 41.4531ZM31.1251 48.4844C29.1865 48.4844 27.6095 46.9073 27.6095 44.9688C27.6095 43.0302 29.1865 41.4531 31.1251 41.4531C33.0637 41.4531 34.6407 43.0302 34.6407 44.9688C34.6407 46.9073 33.0638 48.4844 31.1251 48.4844ZM45.1875 48.4844H40.5001C39.8523 48.4844 39.3282 47.9602 39.3282 47.3125C39.3282 46.6648 39.8523 46.1406 40.5001 46.1406H45.1875C45.8353 46.1406 46.3594 46.6648 46.3594 47.3125C46.3594 47.9602 45.8353 48.4844 45.1875 48.4844ZM47.5313 43.7969C46.8841 43.7969 46.3594 43.2722 46.3594 42.625C46.3594 41.9778 46.8841 41.4531 47.5313 41.4531C48.1785 41.4531 48.7032 41.9778 48.7032 42.625C48.7032 43.2722 48.1785 43.7969 47.5313 43.7969ZM54.5625 48.4844H49.875C49.2273 48.4844 48.7032 47.9602 48.7032 47.3125C48.7032 46.6648 49.2273 46.1406 49.875 46.1406H54.5625C55.2102 46.1406 55.7344 46.6648 55.7344 47.3125C55.7344 47.9602 55.2102 48.4844 54.5625 48.4844Z" fill="#0029FE"/>
<path d="M45.1876 25.0469C45.8348 25.0469 46.3594 24.5222 46.3594 23.875C46.3594 23.2278 45.8348 22.7031 45.1876 22.7031C44.5403 22.7031 44.0157 23.2278 44.0157 23.875C44.0157 24.5222 44.5403 25.0469 45.1876 25.0469Z" fill="#0029FE"/>
<path d="M31.1251 46.1406C31.7723 46.1406 32.297 45.616 32.297 44.9688C32.297 44.3215 31.7723 43.7969 31.1251 43.7969C30.4779 43.7969 29.9532 44.3215 29.9532 44.9688C29.9532 45.616 30.4779 46.1406 31.1251 46.1406Z" fill="#0029FE"/>
<path d="M46.3594 20.5753C47.3522 20.9293 48.1332 21.7103 48.4873 22.7032H50.9283C50.4611 20.4107 48.6518 18.6014 46.3594 18.1342V20.5753Z" fill="#0029FE"/>
<path d="M58.0781 35.5938V13.1719C58.0781 12.5241 57.554 12 56.9063 12H24.0939C23.4462 12 22.922 12.5241 22.922 13.1719L22.9374 35.5938H58.0781ZM33.4689 32.0781C32.8217 32.0781 32.297 31.5534 32.297 30.9062C32.297 30.2591 32.8217 29.7344 33.4689 29.7344C34.1161 29.7344 34.6407 30.2591 34.6407 30.9062C34.6407 31.5534 34.1161 32.0781 33.4689 32.0781ZM45.1876 15.6719C49.7103 15.6719 53.3906 19.3523 53.3906 23.875C53.3906 28.3977 49.7103 32.0781 45.1876 32.0781C40.6648 32.0781 36.9845 28.3977 36.9845 23.875C36.9845 19.3523 40.6649 15.6719 45.1876 15.6719ZM28.7814 15.6719H33.4689C34.1166 15.6719 34.6407 16.196 34.6407 16.8438C34.6407 17.4915 34.1166 18.0156 33.4689 18.0156H28.7814C28.1337 18.0156 27.6095 17.4915 27.6095 16.8438C27.6095 16.196 28.1337 15.6719 28.7814 15.6719ZM28.7814 20.3594H33.4689C34.1166 20.3594 34.6407 20.8835 34.6407 21.5312C34.6407 22.179 34.1166 22.7031 33.4689 22.7031H28.7814C28.1337 22.7031 27.6095 22.179 27.6095 21.5312C27.6095 20.8835 28.1337 20.3594 28.7814 20.3594ZM28.7814 29.7344C29.4286 29.7344 29.9533 30.2591 29.9533 30.9062C29.9533 31.5534 29.4286 32.0781 28.7814 32.0781C28.1342 32.0781 27.6095 31.5534 27.6095 30.9062C27.6095 30.2591 28.1342 29.7344 28.7814 29.7344Z" fill="#0029FE"/>
<path d="M45.1875 29.7344C48.0169 29.7344 50.3838 27.718 50.9283 25.0469H48.4873C48.0019 26.408 46.7133 27.3906 45.1875 27.3906C43.249 27.3906 41.6719 25.8136 41.6719 23.875C41.6719 22.3492 42.6546 21.0606 44.0157 20.5752V18.1342C41.3445 18.6787 39.3282 21.0456 39.3282 23.875C39.3282 27.1057 41.9569 29.7344 45.1875 29.7344Z" fill="#0029FE"/>
<path style="mix-blend-mode:screen" d="M75.7736 58.0987C75.7736 58.0987 44.0183 62.9517 6.23486 54.2378C6.23486 54.2378 30.778 58.206 41.677 54.2378C60.2189 47.4812 70.9027 50.511 75.7736 58.0987Z" fill="url(#paint3_linear_50_1189)"/>
<path style="mix-blend-mode:screen" d="M23.8886 18.8729C24.9381 18.8193 25.8531 19.6237 25.9069 20.6693C25.9608 21.715 25.1534 22.6266 24.1039 22.6802C23.0544 22.7338 22.1394 21.9295 22.0855 20.8838C22.0317 19.8382 22.8391 18.9266 23.8886 18.8729Z" fill="url(#paint4_radial_50_1189)"/>
<path d="M24.1309 20.2403C24.4269 20.2403 24.6691 20.4548 24.696 20.7498C24.7229 21.0447 24.4807 21.286 24.2116 21.3128C23.9425 21.3396 23.6734 21.0983 23.6465 20.8034C23.6465 20.5085 23.8618 20.2672 24.1578 20.2403H24.1309Z" fill="#FFFFAB"/>
<path style="mix-blend-mode:screen" d="M26.4992 10.6685C27.5487 10.6149 28.4637 11.4192 28.5175 12.4649C28.5714 13.5106 27.764 14.4222 26.7145 14.4758C25.665 14.5294 24.75 13.7251 24.6961 12.6794C24.6423 11.6337 25.4497 10.7221 26.4992 10.6685Z" fill="url(#paint5_radial_50_1189)"/>
<path d="M26.7144 12.0359C27.0104 12.0359 27.2526 12.2504 27.2795 12.5185C27.2795 12.8135 27.0642 13.0548 26.7951 13.0816C26.526 13.1084 26.2569 12.8671 26.23 12.599C26.23 12.304 26.4453 12.0627 26.7413 12.0359H26.7144Z" fill="#FFFFAB"/>
<path style="mix-blend-mode:screen" d="M24.9653 34.1825C26.0148 34.1289 26.9298 34.9333 26.9836 35.9789C27.0374 37.0246 26.2301 37.9362 25.1806 37.9898C24.131 38.0434 23.216 37.2391 23.1622 36.1934C23.1084 35.1478 23.9157 34.2361 24.9653 34.1825Z" fill="url(#paint6_radial_50_1189)"/>
<path d="M25.1807 35.5499C25.4768 35.5499 25.719 35.7644 25.7459 36.0594C25.7728 36.3543 25.5306 36.5956 25.2346 36.6224C24.9385 36.6224 24.6963 36.4079 24.6694 36.113C24.6694 35.8181 24.8847 35.5767 25.1538 35.5499H25.1807Z" fill="#FFFFAB"/>
<path style="mix-blend-mode:screen" d="M15.9501 6.48584C18.9104 6.29816 21.44 8.55036 21.6284 11.4997C21.8168 14.449 19.5562 16.9693 16.596 17.157C13.6357 17.3447 11.1061 15.0925 10.9177 12.1432C10.7293 9.19384 12.9899 6.67353 15.9501 6.48584Z" fill="url(#paint7_radial_50_1189)"/>
<path d="M16.596 10.3199C17.4033 10.2663 18.1299 10.883 18.1569 11.7142C18.2107 12.5185 17.5917 13.2424 16.7575 13.2693C15.9501 13.3229 15.2235 12.7062 15.1966 11.875C15.1428 11.0707 15.7618 10.3468 16.596 10.3199Z" fill="#FFFFAB"/>
<path style="mix-blend-mode:screen" d="M31.2355 47.2667C32.6349 47.1863 33.8729 48.2588 33.9536 49.653C34.0343 51.0472 32.9579 52.2806 31.5585 52.361C30.1591 52.4414 28.9212 51.3689 28.8404 49.9747C28.7597 48.5805 29.8362 47.3472 31.2355 47.2667Z" fill="url(#paint8_radial_50_1189)"/>
<path d="M31.5585 49.0899C31.9622 49.0899 32.2851 49.3581 32.312 49.7602C32.339 50.1624 32.0429 50.4842 31.6393 50.511C31.2356 50.511 30.9127 50.2428 30.8857 49.8407C30.8857 49.4385 31.1549 49.1167 31.5585 49.0899Z" fill="#FFFFAB"/>
<path style="mix-blend-mode:screen" d="M8.49547 53.9965C9.19516 53.9429 9.81412 54.4791 9.84103 55.203C9.86794 55.927 9.35663 56.5168 8.63003 56.5436C7.90342 56.5705 7.31137 56.061 7.28446 55.3371C7.25755 54.6132 7.76886 54.0233 8.49547 53.9965Z" fill="url(#paint9_radial_50_1189)"/>
<path d="M8.65692 54.9081C8.8453 54.9081 9.00677 55.0422 9.03368 55.2299C9.03368 55.4175 8.89912 55.6052 8.71074 55.6052C8.52236 55.6052 8.33398 55.4712 8.33398 55.2835C8.33398 55.0958 8.46854 54.9081 8.65692 54.9081Z" fill="#FFFFAB"/>
<path style="mix-blend-mode:screen" d="M44.4759 32.0912C45.1756 32.0376 45.7946 32.5738 45.8215 33.2977C45.8753 33.9948 45.3371 34.6115 44.6105 34.6383C43.8839 34.6651 43.2919 34.1557 43.2649 33.4318C43.2111 32.7347 43.7493 32.118 44.4759 32.0912Z" fill="url(#paint10_radial_50_1189)"/>
<path d="M44.6374 33.0028C44.8258 33.0028 44.9872 33.1369 45.0141 33.3245C45.0141 33.5122 44.8796 33.6731 44.6912 33.6999C44.5028 33.6999 44.3414 33.5659 44.3145 33.3782C44.3145 33.1905 44.449 33.0028 44.6374 33.0028Z" fill="#FFFFAB"/>
<path style="mix-blend-mode:screen" d="M26.7144 52.1197C27.2526 52.0929 27.6832 52.495 27.737 53.0045C27.7639 53.5407 27.3603 53.9697 26.849 54.0233C26.3107 54.0501 25.8802 53.648 25.8263 53.1385C25.7725 52.6291 26.2031 52.1733 26.7144 52.1197Z" fill="url(#paint11_radial_50_1189)"/>
<path d="M26.822 52.79C26.9566 52.79 27.0911 52.8972 27.0911 53.0313C27.0911 53.1653 26.9835 53.2994 26.8489 53.2994C26.7144 53.2994 26.5798 53.1922 26.5798 53.0581C26.5798 52.924 26.6875 52.79 26.822 52.79Z" fill="#FFFFAB"/>
<path style="mix-blend-mode:screen" d="M41.5425 51.3421C42.6459 51.2885 43.5878 52.1197 43.6685 53.219C43.7223 54.3183 42.8881 55.2567 41.7847 55.3371C40.6813 55.4175 39.7394 54.5596 39.6587 53.4603C39.6049 52.361 40.4391 51.4226 41.5425 51.3421Z" fill="url(#paint12_radial_50_1189)"/>
<path d="M41.7848 52.7632C42.0808 52.7632 42.3499 52.9777 42.3768 53.2726C42.3768 53.5675 42.1615 53.8356 41.8655 53.8624C41.5695 53.8624 41.3003 53.648 41.2734 53.353C41.2734 53.0581 41.4887 52.79 41.7848 52.7632Z" fill="#FFFFAB"/>
<path d="M74.0245 60.0292C73.6746 58.9031 76.7156 53.7016 77.4691 53.7284C78.2227 53.7284 77.5499 57.1335 77.0924 57.9379C76.6349 58.7422 74.186 60.5922 74.0245 60.0292Z" fill="white"/>
<path style="mix-blend-mode:screen" d="M7.23071 10.0518C7.23071 10.0518 50.9616 -6.70561 74.2129 5.92279C74.2129 5.92279 76.2582 10.7221 77.2001 18.2563C77.2001 18.2563 69.8533 26.7824 55.9401 27.7477C43.9646 28.552 32.312 13.3229 22.1934 11.446C12.1017 9.56921 7.23071 10.0518 7.23071 10.0518Z" fill="url(#paint13_linear_50_1189)"/>
<path d="M6.34261 13.0816C5.50836 13.2156 3.40928 19.7041 3.51693 20.7766C3.65149 21.8491 6.18115 18.4708 6.5579 16.6744C6.93466 14.878 6.3157 13.0816 6.3157 13.0816H6.34261Z" fill="white"/>
<path d="M6.69267 12.0359C5.67004 11.6337 7.4731 8.8721 9.03395 8.17499C10.5948 7.47788 14.4162 6.70034 14.8468 7.39745C15.2774 8.12137 7.84986 12.4649 6.69267 12.0359Z" fill="white"/>
<defs>
<radialGradient id="paint0_radial_50_1189" cx="0" cy="0" r="1" gradientUnits="userSpaceOnUse" gradientTransform="translate(41.0112 80.7724) scale(38.6955 48.7362)">
<stop stop-color="#008CCA"/>
<stop offset="1" stop-color="#003BF1"/>
</radialGradient>
<linearGradient id="paint1_linear_50_1189" x1="40.5199" y1="64.5336" x2="40.5199" y2="0.587225" gradientUnits="userSpaceOnUse">
<stop stop-color="#92FFF1"/>
<stop offset="1" stop-color="#0098FF"/>
</linearGradient>
<linearGradient id="paint2_linear_50_1189" x1="40.52" y1="63.4075" x2="40.52" y2="1.25752" gradientUnits="userSpaceOnUse">
<stop stop-color="#00EFF1"/>
<stop offset="1" stop-color="#0098FF"/>
</linearGradient>
<linearGradient id="paint3_linear_50_1189" x1="75.7736" y1="54.9886" x2="6.23486" y2="54.9886" gradientUnits="userSpaceOnUse">
<stop stop-color="#40FF79"/>
<stop offset="0.1" stop-color="#3BEE71"/>
<stop offset="0.29" stop-color="#31C45D"/>
<stop offset="0.56" stop-color="#20803D"/>
<stop offset="0.88" stop-color="#092411"/>
<stop offset="1"/>
</linearGradient>
<radialGradient id="paint4_radial_50_1189" cx="0" cy="0" r="1" gradientUnits="userSpaceOnUse" gradientTransform="translate(23.966 20.7514) rotate(-93.4326) scale(1.90367 1.91067)">
<stop stop-color="#00B359"/>
<stop offset="0.13" stop-color="#009148"/>
<stop offset="0.34" stop-color="#005D2E"/>
<stop offset="0.54" stop-color="#00351A"/>
<stop offset="0.73" stop-color="#00170B"/>
<stop offset="0.89" stop-color="#000603"/>
<stop offset="1"/>
</radialGradient>
<radialGradient id="paint5_radial_50_1189" cx="0" cy="0" r="1" gradientUnits="userSpaceOnUse" gradientTransform="translate(26.5755 12.565) rotate(-93.4326) scale(1.90367 1.91068)">
<stop stop-color="#00B359"/>
<stop offset="0.13" stop-color="#009148"/>
<stop offset="0.34" stop-color="#005D2E"/>
<stop offset="0.54" stop-color="#00351A"/>
<stop offset="0.73" stop-color="#00170B"/>
<stop offset="0.89" stop-color="#000603"/>
<stop offset="1"/>
</radialGradient>
<radialGradient id="paint6_radial_50_1189" cx="0" cy="0" r="1" gradientUnits="userSpaceOnUse" gradientTransform="translate(25.0205 36.0792) rotate(-93.4326) scale(1.90367 1.91068)">
<stop stop-color="#00B359"/>
<stop offset="0.13" stop-color="#009148"/>
<stop offset="0.34" stop-color="#005D2E"/>
<stop offset="0.54" stop-color="#00351A"/>
<stop offset="0.73" stop-color="#00170B"/>
<stop offset="0.89" stop-color="#000603"/>
<stop offset="1"/>
</radialGradient>
<radialGradient id="paint7_radial_50_1189" cx="0" cy="0" r="1" gradientUnits="userSpaceOnUse" gradientTransform="translate(16.2035 11.7858) rotate(-93.4326) scale(5.33564 5.35527)">
<stop stop-color="#00B359"/>
<stop offset="0.13" stop-color="#009148"/>
<stop offset="0.34" stop-color="#005D2E"/>
<stop offset="0.54" stop-color="#00351A"/>
<stop offset="0.73" stop-color="#00170B"/>
<stop offset="0.89" stop-color="#000603"/>
<stop offset="1"/>
</radialGradient>
<radialGradient id="paint8_radial_50_1189" cx="0" cy="0" r="1" gradientUnits="userSpaceOnUse" gradientTransform="translate(31.3418 49.7774) rotate(-93.4326) scale(2.54717 2.55654)">
<stop stop-color="#00B359"/>
<stop offset="0.13" stop-color="#009148"/>
<stop offset="0.34" stop-color="#005D2E"/>
<stop offset="0.54" stop-color="#00351A"/>
<stop offset="0.73" stop-color="#00170B"/>
<stop offset="0.89" stop-color="#000603"/>
<stop offset="1"/>
</radialGradient>
<radialGradient id="paint9_radial_50_1189" cx="0" cy="0" r="1" gradientUnits="userSpaceOnUse" gradientTransform="translate(8.53857 55.2446) rotate(-93.4326) scale(1.28699 1.29172)">
<stop stop-color="#00B359"/>
<stop offset="0.13" stop-color="#009148"/>
<stop offset="0.34" stop-color="#005D2E"/>
<stop offset="0.54" stop-color="#00351A"/>
<stop offset="0.73" stop-color="#00170B"/>
<stop offset="0.89" stop-color="#000603"/>
<stop offset="1"/>
</radialGradient>
<radialGradient id="paint10_radial_50_1189" cx="0" cy="0" r="1" gradientUnits="userSpaceOnUse" gradientTransform="translate(44.5107 33.3609) rotate(-93.4326) scale(1.28699 1.29172)">
<stop stop-color="#00B359"/>
<stop offset="0.13" stop-color="#009148"/>
<stop offset="0.34" stop-color="#005D2E"/>
<stop offset="0.54" stop-color="#00351A"/>
<stop offset="0.73" stop-color="#00170B"/>
<stop offset="0.89" stop-color="#000603"/>
<stop offset="1"/>
</radialGradient>
<radialGradient id="paint11_radial_50_1189" cx="0" cy="0" r="1" gradientUnits="userSpaceOnUse" gradientTransform="translate(26.7398 53.0597) rotate(-93.4327) scale(0.938427 0.941883)">
<stop stop-color="#00B359"/>
<stop offset="0.13" stop-color="#009148"/>
<stop offset="0.34" stop-color="#005D2E"/>
<stop offset="0.54" stop-color="#00351A"/>
<stop offset="0.73" stop-color="#00170B"/>
<stop offset="0.89" stop-color="#000603"/>
<stop offset="1"/>
</radialGradient>
<radialGradient id="paint12_radial_50_1189" cx="0" cy="0" r="1" gradientUnits="userSpaceOnUse" gradientTransform="translate(41.6358 53.3008) rotate(-93.4327) scale(1.98411 1.99141)">
<stop stop-color="#00B359"/>
<stop offset="0.13" stop-color="#009148"/>
<stop offset="0.34" stop-color="#005D2E"/>
<stop offset="0.54" stop-color="#00351A"/>
<stop offset="0.73" stop-color="#00170B"/>
<stop offset="0.89" stop-color="#000603"/>
<stop offset="1"/>
</radialGradient>
<linearGradient id="paint13_linear_50_1189" x1="7.23071" y1="14.5026" x2="77.2001" y2="14.5026" gradientUnits="userSpaceOnUse">
<stop stop-color="#7ED140"/>
<stop offset="0.11" stop-color="#74C03B"/>
<stop offset="0.34" stop-color="#5A962E"/>
<stop offset="0.65" stop-color="#315219"/>
<stop offset="1"/>
</linearGradient>
</defs>
</svg>
