<svg width="146" height="51" viewBox="0 0 146 51" fill="none" xmlns="http://www.w3.org/2000/svg">
<path d="M5.11567 6.84021C0.215047 12.4784 -0.571674 38.2271 3.70612 45.4715C7.6889 52.2078 132.411 53.0273 140.098 46.0288C147.785 39.0302 146.999 11.8228 139.836 5.34872C132.69 -1.10895 13.1304 -2.37099 5.11567 6.84021Z" fill="url(#paint0_linear_429_6748)"/>
<path d="M8.95179 10.0523C4.46092 15.0677 5.42794 36.8337 9.36154 43.2749C13.0165 49.2573 129.194 49.9948 136.258 43.7666C143.322 37.5384 144.437 13.1501 137.881 7.41355C131.325 1.67704 16.2945 1.87372 8.95179 10.0523Z" fill="url(#paint1_radial_429_6748)"/>
<defs>
<linearGradient id="paint0_linear_429_6748" x1="222.945" y1="50.913" x2="222.945" y2="0.218637" gradientUnits="userSpaceOnUse">
<stop stop-color="#008EC2"/>
<stop offset="1" stop-color="#002092"/>
</linearGradient>
<radialGradient id="paint1_radial_429_6748" cx="0" cy="0" r="1" gradientUnits="userSpaceOnUse" gradientTransform="translate(222.651 43.865) rotate(-0.477872) scale(199.674 204.701)">
<stop stop-color="#00D3C2"/>
<stop offset="1" stop-color="#0083C2"/>
</radialGradient>
</defs>
</svg>
