<svg width="80" height="69" viewBox="0 0 80 69" fill="none" xmlns="http://www.w3.org/2000/svg">
<path d="M1.32168 55.6067C4.03972 66.2242 71.9369 74.2142 77.5614 63.1945C82.6745 53.1668 78.8262 12.2251 74.4396 5.06631C68.4923 -4.69322 9.74492 2.14382 4.9278 9.83883C0.433612 16.9976 -1.504 44.6139 1.32168 55.6067Z" fill="url(#paint0_radial_426_7642)"/>
<path d="M1.53703 53.7299C4.25507 63.9721 71.7486 69.7098 77.3461 59.0655C82.4323 49.3864 78.6648 12.386 74.3051 5.46856C68.3847 -3.9156 9.85262 2.68012 5.06241 10.0802C0.568225 16.9977 -1.26174 43.1124 1.53703 53.7299Z" fill="url(#paint1_linear_426_7642)"/>
<path d="M2.37107 52.8453C5.03529 62.7925 71.1025 68.5034 76.5924 58.1808C81.571 48.7967 77.8303 12.7347 73.5783 6.03171C67.7655 -3.11114 10.4983 3.2969 5.7888 10.4825C1.40226 17.1855 -0.400793 42.5227 2.37107 52.8453Z" fill="url(#paint2_linear_426_7642)"/>
<path d="M51.0426 18C52.2171 18.3595 53.2226 18.8587 53.9294 19.5061H63.4516V35.5435C63.9518 36.101 64.242 36.755 64.242 37.5122V38.2145C64.242 38.6238 64.1499 39.0033 63.9928 39.3561L64.242 39.3627V41.19C64.242 41.5827 64.1601 41.9472 64.015 42.285L64.242 42.2916V44.1205C64.242 44.4783 64.1686 44.8112 64.0457 45.124H65V18H51.0426Z" fill="#0029FE"/>
<path d="M40.7385 18H14V45.1174H37.5206C37.1382 44.6764 36.8958 44.1755 36.8139 43.613H15.5449V19.5077H37.8484C38.5568 18.8587 39.5657 18.3611 40.7385 18Z" fill="#0029FE"/>
<path d="M53.4633 23.6032C53.4633 25.2341 50.073 26.5554 45.8906 26.5554C41.7064 26.5554 38.3161 25.2341 38.3161 23.6032V25.4288C38.3161 27.0596 41.7013 28.381 45.8906 28.381C50.0696 28.381 53.4633 27.0596 53.4633 25.4288V23.6032Z" fill="#0029FE"/>
<path d="M53.4633 26.5338C53.4633 28.1646 50.073 29.4843 45.8906 29.4843C41.7064 29.4843 38.3161 28.1646 38.3161 26.5338V28.361C38.3161 29.9919 41.7013 31.3132 45.8906 31.3132C50.0696 31.3132 53.4633 29.9919 53.4633 28.361V26.5338Z" fill="#0029FE"/>
<path d="M53.4633 29.461C53.4633 31.0919 50.073 32.4132 45.8906 32.4132C41.7064 32.4132 38.3161 31.0919 38.3161 29.461V31.2883C38.3161 32.9191 41.7013 34.2405 45.8906 34.2405C50.0696 34.2405 53.4633 32.9208 53.4633 31.2883V29.461Z" fill="#0029FE"/>
<path d="M53.4633 21.7543C53.4633 20.1235 50.073 18.8021 45.8906 18.8021C41.7064 18.8021 38.3161 20.1235 38.3161 21.7543V22.4549C38.3161 24.0858 41.7013 25.4071 45.8906 25.4071C50.0696 25.4071 53.4633 24.0875 53.4633 22.4549V21.7543ZM45.8923 23.9693C41.7303 23.9693 39.0758 22.658 39.0758 21.7543C39.0758 20.8507 41.7303 19.5393 45.8923 19.5393C50.0525 19.5393 52.7037 20.8507 52.7037 21.7543C52.7037 22.658 50.0508 23.9693 45.8923 23.9693Z" fill="#0029FE"/>
<path d="M53.4633 33.5033V32.3916C53.4633 32.8093 53.2363 33.2054 52.8351 33.5682C53.0434 33.5432 53.2516 33.5199 53.4633 33.5033Z" fill="#0029FE"/>
<path d="M45.8923 35.3438C41.7082 35.3438 38.3178 34.0241 38.3178 32.3933V34.2205C38.3178 35.8514 41.703 37.1727 45.8923 37.1727C46.0732 37.1727 46.2559 37.1644 46.4351 37.1611C46.5478 36.4155 47.0139 35.7765 47.7274 35.2539C47.1385 35.3105 46.5256 35.3438 45.8923 35.3438Z" fill="#0029FE"/>
<path d="M38.3195 35.5219V37.3508C38.3195 38.98 41.7064 40.3013 45.8923 40.3013C46.0664 40.3013 46.232 40.2947 46.4027 40.2913C46.4027 39.4709 46.4027 38.8086 46.4027 38.4641C46.232 38.4674 46.0664 38.4741 45.8923 38.4741C41.7064 38.4741 38.3195 37.1544 38.3195 35.5219Z" fill="#0029FE"/>
<path d="M38.3195 38.4491V40.278C38.3195 41.9072 41.7064 43.2286 45.8923 43.2286C46.0664 43.2286 46.232 43.2219 46.4027 43.2186C46.4027 42.6078 46.4027 41.9871 46.4027 41.3913C46.232 41.3947 46.0664 41.4013 45.8923 41.4013C41.7064 41.4046 38.3195 40.0833 38.3195 38.4491Z" fill="#0029FE"/>
<path d="M38.3195 41.3797V43.2086C38.3195 44.8378 41.7064 46.1608 45.8923 46.1608C46.0664 46.1608 46.232 46.1541 46.4027 46.1508C46.4027 45.6699 46.4027 45.0342 46.4027 44.3236C46.232 44.3269 46.0664 44.3336 45.8923 44.3336C41.7064 44.3319 38.3195 43.0122 38.3195 41.3797Z" fill="#0029FE"/>
<path d="M55.1244 42.3149C50.9436 42.3149 47.5516 40.9936 47.5516 39.3627V41.19C47.5516 42.8208 50.9419 44.1422 55.1244 44.1422C59.3085 44.1422 62.6971 42.8208 62.6971 41.19V39.3627C62.6954 40.9936 59.3085 42.3149 55.1244 42.3149Z" fill="#0029FE"/>
<path d="M55.1244 45.2422C50.9436 45.2422 47.5516 43.9225 47.5516 42.29V44.1189C47.5516 45.7481 50.9419 47.0711 55.1244 47.0711C59.3085 47.0711 62.6971 45.7481 62.6971 44.1189V42.29C62.6954 43.9208 59.3085 45.2422 55.1244 45.2422Z" fill="#0029FE"/>
<path d="M55.1244 48.1728C50.9436 48.1728 47.5516 46.8498 47.5516 45.2206V47.0478C47.5516 48.677 50.9419 50 55.1244 50C59.3085 50 62.6971 48.677 62.6971 47.0478V45.2206C62.6954 46.8498 59.3085 48.1728 55.1244 48.1728Z" fill="#0029FE"/>
<path d="M55.1244 34.5567C50.9436 34.5567 47.5516 35.878 47.5516 37.5072V38.2111C47.5516 39.8403 50.9419 41.1633 55.1244 41.1633C59.3085 41.1633 62.6971 39.8437 62.6971 38.2111V37.5105C62.6954 35.878 59.3085 34.5567 55.1244 34.5567ZM55.1244 39.7255C50.9624 39.7255 48.313 38.4125 48.313 37.5089C48.313 36.6052 50.9675 35.2955 55.1244 35.2955C59.2863 35.2955 61.9391 36.6052 61.9391 37.5089C61.9391 38.4125 59.2846 39.7255 55.1244 39.7255Z" fill="#0029FE"/>
<path d="M36.7729 42.8591V21.7543C36.7729 21.2018 36.9317 20.7076 37.2082 20.2632H16.3183V42.8608L36.7729 42.8591ZM23.8005 26.5654C24.4697 25.9164 25.3557 25.5403 26.4585 25.4338V23.7946H27.7781V25.3988C29.0499 25.4571 29.9991 25.6568 30.6256 25.9979V28.376C29.7823 27.8784 28.8314 27.5722 27.7781 27.4607V30.8007C29.0977 31.265 30.0434 31.7942 30.617 32.3916C31.1889 32.9874 31.4757 33.7096 31.4757 34.555C31.4757 35.5285 31.1548 36.3173 30.5163 36.9114C29.8779 37.5055 28.9646 37.87 27.7781 37.9998V39.9102H26.4568V38.0514C25.2328 38.0447 24.0959 37.7751 23.0409 37.2426V34.798C23.3908 35.0742 23.9115 35.3305 24.6046 35.5651C25.296 35.8014 25.9156 35.9362 26.4568 35.9712V32.7627C25.0484 32.2518 24.0822 31.6976 23.5701 31.1019C23.0545 30.5061 22.7968 29.7789 22.7968 28.9202C22.7968 27.9999 23.1313 27.2128 23.8005 26.5654Z" fill="#0029FE"/>
<path d="M55.1244 33.0523C57.9599 33.0523 60.9251 33.638 62.68 34.8728V20.2616H54.5747C54.8512 20.7076 55.0083 21.2018 55.0083 21.7527V33.0539C55.0458 33.0556 55.0868 33.0523 55.1244 33.0523Z" fill="#0029FE"/>
<path d="M26.4568 30.2881V27.4957C25.6203 27.6421 25.2004 28.0681 25.2004 28.7721C25.2004 29.3778 25.6203 29.8804 26.4568 30.2881Z" fill="#0029FE"/>
<path d="M29.0704 34.6765C29.0704 34.099 28.6402 33.6314 27.7781 33.2669V35.9362C28.6402 35.8048 29.0704 35.3871 29.0704 34.6765Z" fill="#0029FE"/>
<path style="mix-blend-mode:screen" d="M75.2736 58.3416C75.2736 58.3416 43.5183 63.1946 5.73486 54.4807C5.73486 54.4807 30.278 58.4489 41.177 54.4807C59.7189 47.7241 70.4027 50.7539 75.2736 58.3416Z" fill="url(#paint3_linear_426_7642)"/>
<path style="mix-blend-mode:screen" d="M23.3891 19.1159C24.4386 19.0623 25.3536 19.8667 25.4074 20.9123C25.4613 21.958 24.6539 22.8696 23.6044 22.9232C22.5548 22.9768 21.6399 22.1725 21.586 21.1268C21.5322 20.0812 22.3396 19.1696 23.3891 19.1159Z" fill="url(#paint4_radial_426_7642)"/>
<path d="M23.6314 20.4834C23.9274 20.4834 24.1696 20.6979 24.1965 20.9928C24.2234 21.2878 23.9812 21.5291 23.7121 21.5559C23.443 21.5827 23.1739 21.3414 23.147 21.0464C23.147 20.7515 23.3623 20.5102 23.6583 20.4834H23.6314Z" fill="#FFFFAB"/>
<path style="mix-blend-mode:screen" d="M25.9994 10.9115C27.049 10.8578 27.964 11.6622 28.0178 12.7079C28.0716 13.7535 27.2643 14.6651 26.2147 14.7188C25.1652 14.7724 24.2502 13.968 24.1964 12.9224C24.1426 11.8767 24.9499 10.9651 25.9994 10.9115Z" fill="url(#paint5_radial_426_7642)"/>
<path d="M26.2149 12.2789C26.5109 12.2789 26.7531 12.4934 26.78 12.7615C26.78 13.0565 26.5647 13.2978 26.2956 13.3246C26.0265 13.3514 25.7574 13.1101 25.7305 12.842C25.7305 12.547 25.9458 12.3057 26.2418 12.2789H26.2149Z" fill="#FFFFAB"/>
<path style="mix-blend-mode:screen" d="M24.4653 34.4255C25.5148 34.3719 26.4298 35.1762 26.4836 36.2219C26.5374 37.2676 25.7301 38.1792 24.6806 38.2328C23.631 38.2864 22.716 37.4821 22.6622 36.4364C22.6084 35.3907 23.4157 34.4791 24.4653 34.4255Z" fill="url(#paint6_radial_426_7642)"/>
<path d="M24.6807 35.793C24.9768 35.793 25.219 36.0075 25.2459 36.3024C25.2728 36.5973 25.0306 36.8386 24.7346 36.8654C24.4385 36.8654 24.1963 36.6509 24.1694 36.356C24.1694 36.0611 24.3847 35.8198 24.6538 35.793H24.6807Z" fill="#FFFFAB"/>
<path style="mix-blend-mode:screen" d="M15.4501 6.72882C18.4104 6.54114 20.94 8.79334 21.1284 11.7426C21.3168 14.692 19.0562 17.2123 16.096 17.4C13.1357 17.5876 10.6061 15.3354 10.4177 12.3861C10.2293 9.43683 12.4899 6.91651 15.4501 6.72882Z" fill="url(#paint7_radial_426_7642)"/>
<path d="M16.096 10.5629C16.9033 10.5093 17.6299 11.126 17.6569 11.9572C17.7107 12.7615 17.0917 13.4854 16.2575 13.5122C15.4501 13.5659 14.7235 12.9492 14.6966 12.118C14.6428 11.3137 15.2618 10.5898 16.096 10.5629Z" fill="#FFFFAB"/>
<path style="mix-blend-mode:screen" d="M30.7358 47.5097C32.1352 47.4293 33.3731 48.5018 33.4538 49.896C33.5346 51.2902 32.4581 52.5236 31.0587 52.604C29.6593 52.6844 28.4214 51.612 28.3407 50.2177C28.26 48.8235 29.3364 47.5902 30.7358 47.5097Z" fill="url(#paint8_radial_426_7642)"/>
<path d="M31.0585 49.333C31.4622 49.333 31.7851 49.6011 31.812 50.0033C31.839 50.4055 31.5429 50.7272 31.1393 50.754C30.7356 50.754 30.4127 50.4859 30.3857 50.0837C30.3857 49.6816 30.6549 49.3598 31.0585 49.333Z" fill="#FFFFAB"/>
<path style="mix-blend-mode:screen" d="M7.99571 54.2395C8.69541 54.1859 9.31437 54.7222 9.34128 55.4461C9.36819 56.17 8.85687 56.7599 8.13027 56.7867C7.40367 56.8135 6.81162 56.304 6.78471 55.5801C6.75779 54.8562 7.26911 54.2663 7.99571 54.2395Z" fill="url(#paint9_radial_426_7642)"/>
<path d="M8.15741 55.1511C8.34579 55.1511 8.50725 55.2852 8.53417 55.4729C8.53417 55.6606 8.39961 55.8482 8.21123 55.8482C8.02285 55.8482 7.83447 55.7142 7.83447 55.5265C7.83447 55.3388 7.96903 55.1511 8.15741 55.1511Z" fill="#FFFFAB"/>
<path style="mix-blend-mode:screen" d="M43.9759 32.3341C44.6756 32.2805 45.2946 32.8168 45.3215 33.5407C45.3753 34.2378 44.8371 34.8545 44.1105 34.8813C43.3839 34.9081 42.7919 34.3987 42.7649 33.6747C42.7111 32.9776 43.2493 32.361 43.9759 32.3341Z" fill="url(#paint10_radial_426_7642)"/>
<path d="M44.1374 33.2457C44.3258 33.2457 44.4872 33.3798 44.5141 33.5675C44.5141 33.7552 44.3796 33.916 44.1912 33.9428C44.0028 33.9428 43.8414 33.8088 43.8145 33.6211C43.8145 33.4334 43.949 33.2457 44.1374 33.2457Z" fill="#FFFFAB"/>
<path style="mix-blend-mode:screen" d="M26.2149 52.3627C26.7531 52.3359 27.1837 52.7381 27.2375 53.2475C27.2644 53.7837 26.8608 54.2127 26.3495 54.2664C25.8112 54.2932 25.3806 53.891 25.3268 53.3816C25.273 52.8721 25.7036 52.4163 26.2149 52.3627Z" fill="url(#paint11_radial_426_7642)"/>
<path d="M26.3228 53.033C26.4573 53.033 26.5919 53.1402 26.5919 53.2743C26.5919 53.4083 26.4842 53.5424 26.3497 53.5424C26.2151 53.5424 26.0806 53.4351 26.0806 53.3011C26.0806 53.167 26.1882 53.033 26.3228 53.033Z" fill="#FFFFAB"/>
<path style="mix-blend-mode:screen" d="M41.043 51.5851C42.1464 51.5315 43.0883 52.3626 43.169 53.4619C43.2228 54.5612 42.3886 55.4996 41.2852 55.5801C40.1818 55.6605 39.2399 54.8025 39.1592 53.7032C39.1054 52.604 39.9396 51.6655 41.043 51.5851Z" fill="url(#paint12_radial_426_7642)"/>
<path d="M41.2852 53.0061C41.5813 53.0061 41.8504 53.2206 41.8773 53.5155C41.8773 53.8105 41.662 54.0786 41.366 54.1054C41.07 54.1054 40.8008 53.8909 40.7739 53.596C40.7739 53.301 40.9892 53.0329 41.2852 53.0061Z" fill="#FFFFAB"/>
<path d="M73.5245 60.2721C73.1746 59.146 76.2156 53.9445 76.9691 53.9713C77.7227 53.9713 77.0499 57.3764 76.5924 58.1808C76.1349 58.9851 73.686 60.8351 73.5245 60.2721Z" fill="white"/>
<path style="mix-blend-mode:screen" d="M6.73096 10.2947C6.73096 10.2947 50.4618 -6.46269 73.7132 6.16571C73.7132 6.16571 75.7584 10.965 76.7003 18.4992C76.7003 18.4992 69.3535 27.0254 55.4404 27.9906C43.4649 28.7949 31.8123 13.5658 21.6936 11.689C11.6019 9.81213 6.73096 10.2947 6.73096 10.2947Z" fill="url(#paint13_linear_426_7642)"/>
<path d="M5.84286 13.3245C5.00861 13.4585 2.90953 19.947 3.01717 21.0195C3.15173 22.092 5.68139 18.7137 6.05815 16.9173C6.43491 15.1209 5.81595 13.3245 5.81595 13.3245H5.84286Z" fill="white"/>
<path d="M6.19267 12.2788C5.17004 11.8766 6.9731 9.11499 8.53395 8.41788C10.0948 7.72077 13.9162 6.94323 14.3468 7.64034C14.7774 8.36426 7.34986 12.7078 6.19267 12.2788Z" fill="white"/>
<defs>
<radialGradient id="paint0_radial_426_7642" cx="0" cy="0" r="1" gradientUnits="userSpaceOnUse" gradientTransform="translate(40.5112 81.0153) scale(38.6955 48.7362)">
<stop stop-color="#008CCA"/>
<stop offset="1" stop-color="#003BF1"/>
</radialGradient>
<linearGradient id="paint1_linear_426_7642" x1="40.0202" y1="64.7765" x2="40.0202" y2="0.830099" gradientUnits="userSpaceOnUse">
<stop stop-color="#92FFF1"/>
<stop offset="1" stop-color="#0098FF"/>
</linearGradient>
<linearGradient id="paint2_linear_426_7642" x1="40.02" y1="63.6505" x2="40.02" y2="1.5005" gradientUnits="userSpaceOnUse">
<stop stop-color="#00EFF1"/>
<stop offset="1" stop-color="#0098FF"/>
</linearGradient>
<linearGradient id="paint3_linear_426_7642" x1="75.2736" y1="55.2314" x2="5.73486" y2="55.2314" gradientUnits="userSpaceOnUse">
<stop stop-color="#40FF79"/>
<stop offset="0.1" stop-color="#3BEE71"/>
<stop offset="0.29" stop-color="#31C45D"/>
<stop offset="0.56" stop-color="#20803D"/>
<stop offset="0.88" stop-color="#092411"/>
<stop offset="1"/>
</linearGradient>
<radialGradient id="paint4_radial_426_7642" cx="0" cy="0" r="1" gradientUnits="userSpaceOnUse" gradientTransform="translate(23.4665 20.9944) rotate(-93.4326) scale(1.90367 1.91067)">
<stop stop-color="#00B359"/>
<stop offset="0.13" stop-color="#009148"/>
<stop offset="0.34" stop-color="#005D2E"/>
<stop offset="0.54" stop-color="#00351A"/>
<stop offset="0.73" stop-color="#00170B"/>
<stop offset="0.89" stop-color="#000603"/>
<stop offset="1"/>
</radialGradient>
<radialGradient id="paint5_radial_426_7642" cx="0" cy="0" r="1" gradientUnits="userSpaceOnUse" gradientTransform="translate(26.0758 12.808) rotate(-93.4326) scale(1.90367 1.91068)">
<stop stop-color="#00B359"/>
<stop offset="0.13" stop-color="#009148"/>
<stop offset="0.34" stop-color="#005D2E"/>
<stop offset="0.54" stop-color="#00351A"/>
<stop offset="0.73" stop-color="#00170B"/>
<stop offset="0.89" stop-color="#000603"/>
<stop offset="1"/>
</radialGradient>
<radialGradient id="paint6_radial_426_7642" cx="0" cy="0" r="1" gradientUnits="userSpaceOnUse" gradientTransform="translate(24.5205 36.3222) rotate(-93.4326) scale(1.90367 1.91068)">
<stop stop-color="#00B359"/>
<stop offset="0.13" stop-color="#009148"/>
<stop offset="0.34" stop-color="#005D2E"/>
<stop offset="0.54" stop-color="#00351A"/>
<stop offset="0.73" stop-color="#00170B"/>
<stop offset="0.89" stop-color="#000603"/>
<stop offset="1"/>
</radialGradient>
<radialGradient id="paint7_radial_426_7642" cx="0" cy="0" r="1" gradientUnits="userSpaceOnUse" gradientTransform="translate(15.7035 12.0288) rotate(-93.4326) scale(5.33564 5.35527)">
<stop stop-color="#00B359"/>
<stop offset="0.13" stop-color="#009148"/>
<stop offset="0.34" stop-color="#005D2E"/>
<stop offset="0.54" stop-color="#00351A"/>
<stop offset="0.73" stop-color="#00170B"/>
<stop offset="0.89" stop-color="#000603"/>
<stop offset="1"/>
</radialGradient>
<radialGradient id="paint8_radial_426_7642" cx="0" cy="0" r="1" gradientUnits="userSpaceOnUse" gradientTransform="translate(30.842 50.0204) rotate(-93.4326) scale(2.54717 2.55654)">
<stop stop-color="#00B359"/>
<stop offset="0.13" stop-color="#009148"/>
<stop offset="0.34" stop-color="#005D2E"/>
<stop offset="0.54" stop-color="#00351A"/>
<stop offset="0.73" stop-color="#00170B"/>
<stop offset="0.89" stop-color="#000603"/>
<stop offset="1"/>
</radialGradient>
<radialGradient id="paint9_radial_426_7642" cx="0" cy="0" r="1" gradientUnits="userSpaceOnUse" gradientTransform="translate(8.03882 55.4876) rotate(-93.4326) scale(1.28699 1.29172)">
<stop stop-color="#00B359"/>
<stop offset="0.13" stop-color="#009148"/>
<stop offset="0.34" stop-color="#005D2E"/>
<stop offset="0.54" stop-color="#00351A"/>
<stop offset="0.73" stop-color="#00170B"/>
<stop offset="0.89" stop-color="#000603"/>
<stop offset="1"/>
</radialGradient>
<radialGradient id="paint10_radial_426_7642" cx="0" cy="0" r="1" gradientUnits="userSpaceOnUse" gradientTransform="translate(44.0107 33.6039) rotate(-93.4326) scale(1.28699 1.29172)">
<stop stop-color="#00B359"/>
<stop offset="0.13" stop-color="#009148"/>
<stop offset="0.34" stop-color="#005D2E"/>
<stop offset="0.54" stop-color="#00351A"/>
<stop offset="0.73" stop-color="#00170B"/>
<stop offset="0.89" stop-color="#000603"/>
<stop offset="1"/>
</radialGradient>
<radialGradient id="paint11_radial_426_7642" cx="0" cy="0" r="1" gradientUnits="userSpaceOnUse" gradientTransform="translate(26.2403 53.3027) rotate(-93.4327) scale(0.938427 0.941883)">
<stop stop-color="#00B359"/>
<stop offset="0.13" stop-color="#009148"/>
<stop offset="0.34" stop-color="#005D2E"/>
<stop offset="0.54" stop-color="#00351A"/>
<stop offset="0.73" stop-color="#00170B"/>
<stop offset="0.89" stop-color="#000603"/>
<stop offset="1"/>
</radialGradient>
<radialGradient id="paint12_radial_426_7642" cx="0" cy="0" r="1" gradientUnits="userSpaceOnUse" gradientTransform="translate(41.1363 53.5438) rotate(-93.4327) scale(1.98411 1.99141)">
<stop stop-color="#00B359"/>
<stop offset="0.13" stop-color="#009148"/>
<stop offset="0.34" stop-color="#005D2E"/>
<stop offset="0.54" stop-color="#00351A"/>
<stop offset="0.73" stop-color="#00170B"/>
<stop offset="0.89" stop-color="#000603"/>
<stop offset="1"/>
</radialGradient>
<linearGradient id="paint13_linear_426_7642" x1="6.73096" y1="14.7455" x2="76.7003" y2="14.7455" gradientUnits="userSpaceOnUse">
<stop stop-color="#7ED140"/>
<stop offset="0.11" stop-color="#74C03B"/>
<stop offset="0.34" stop-color="#5A962E"/>
<stop offset="0.65" stop-color="#315219"/>
<stop offset="1"/>
</linearGradient>
</defs>
</svg>
