<svg width="80" height="355" viewBox="0 0 80 355" fill="none" xmlns="http://www.w3.org/2000/svg">
<path d="M1.32168 341.364C4.03972 351.981 71.9369 359.971 77.5614 348.952C82.6745 338.924 78.8262 11.9822 74.4396 4.82339C68.4922 -4.93614 9.74492 1.9009 4.9278 9.59591C0.433612 16.7547 -1.504 330.371 1.32168 341.364Z" fill="url(#paint0_radial_641_11954)"/>
<path d="M1.53683 339.487C4.25487 349.729 71.7484 355.467 77.3459 344.823C82.4321 335.144 78.6646 12.1431 74.3049 5.22564C68.3845 -4.15852 9.85242 2.4372 5.06221 9.83728C0.568027 16.7547 -1.26194 328.87 1.53683 339.487Z" fill="url(#paint1_linear_641_11954)"/>
<path d="M2.37107 338.602C5.03529 348.55 71.1025 354.261 76.5924 343.938C81.571 334.554 77.8303 12.4918 73.5783 5.78879C67.7655 -3.35406 10.4983 3.05398 5.7888 10.2396C1.40226 16.9425 -0.400793 328.28 2.37107 338.602Z" fill="url(#paint2_linear_641_11954)"/>
<path d="M73.0278 345.301C72.678 344.175 75.719 338.973 76.4725 339C77.226 339 76.5532 342.405 76.0957 343.21C75.6382 344.014 73.1893 345.864 73.0278 345.301Z" fill="white"/>
<path style="mix-blend-mode:screen" d="M6.73076 10.0518C6.73076 10.0518 50.4616 -6.70561 73.713 5.92279C73.713 5.92279 75.7582 10.7221 76.7001 18.2563C76.7001 18.2563 69.3533 26.7824 55.4402 27.7477C43.4647 28.552 31.8121 13.3229 21.6934 11.446C11.6017 9.56921 6.73076 10.0518 6.73076 10.0518Z" fill="url(#paint3_linear_641_11954)"/>
<path d="M5.84266 13.0815C5.00841 13.2156 2.90933 19.7041 3.01698 20.7766C3.15153 21.849 5.68119 18.4707 6.05795 16.6743C6.43471 14.8779 5.81575 13.0815 5.81575 13.0815H5.84266Z" fill="white"/>
<path d="M6.19258 12.0359C5.16995 11.6337 6.97301 8.87207 8.53386 8.17496C10.0947 7.47785 13.9161 6.70031 14.3467 7.39742C14.7773 8.12134 7.34976 12.4649 6.19258 12.0359Z" fill="white"/>
<defs>
<radialGradient id="paint0_radial_641_11954" cx="0" cy="0" r="1" gradientUnits="userSpaceOnUse" gradientTransform="translate(40.5112 80.7723) scale(38.6955 48.7362)">
<stop stop-color="#008CCA"/>
<stop offset="1" stop-color="#003BF1"/>
</radialGradient>
<linearGradient id="paint1_linear_641_11954" x1="40.02" y1="64.5335" x2="40.02" y2="0.587179" gradientUnits="userSpaceOnUse">
<stop stop-color="#92FFF1"/>
<stop offset="1" stop-color="#0098FF"/>
</linearGradient>
<linearGradient id="paint2_linear_641_11954" x1="39.9999" y1="343" x2="40.02" y2="1.25758" gradientUnits="userSpaceOnUse">
<stop stop-color="#00EFF1"/>
<stop offset="1" stop-color="#0098FF"/>
</linearGradient>
<linearGradient id="paint3_linear_641_11954" x1="6.73076" y1="14.5026" x2="76.7001" y2="14.5026" gradientUnits="userSpaceOnUse">
<stop stop-color="#7ED140"/>
<stop offset="0.11" stop-color="#74C03B"/>
<stop offset="0.34" stop-color="#5A962E"/>
<stop offset="0.65" stop-color="#315219"/>
<stop offset="1"/>
</linearGradient>
</defs>
</svg>
