<svg width="390" height="307" viewBox="0 0 390 307" fill="none" xmlns="http://www.w3.org/2000/svg">
<g filter="url(#filter0_f_379_6914)">
<path d="M198.604 141.717L230.577 138.774L230.562 135.944L198.563 130.606L198.604 141.717Z" fill="url(#paint0_radial_379_6914)"/>
</g>
<mask id="mask0_379_6914" style="mask-type:luminance" maskUnits="userSpaceOnUse" x="67" y="85" width="12" height="98">
<path d="M78.0481 85.2965L78.4904 182.111C78.2511 181.372 55.0835 146.496 78.0481 85.2965Z" fill="white"/>
</mask>
<g mask="url(#mask0_379_6914)">
<path d="M78.0482 85.2964L30.6309 123.874L78.4903 182.111L125.908 143.533L78.0482 85.2964Z" fill="#270579"/>
<path d="M67.3307 75.1787C79.2113 74.0946 92.52 99.2395 97.0679 131.353C101.6 163.447 95.6624 190.366 83.766 191.431C71.8855 192.515 58.5767 167.37 54.0288 135.256C51.7641 119.192 52.1109 104.443 54.5172 93.5791L58.3322 98.2226L75.0717 84.6004L67.3307 75.1787Z" fill="#270579"/>
<path d="M67.4272 75.7431C79.2027 74.6801 92.374 99.5833 96.8763 131.38C101.378 163.178 95.4611 189.823 83.7014 190.905C71.9259 191.968 58.7546 167.065 54.2523 135.267C52.0091 119.378 52.3642 104.751 54.7287 93.9855L58.2747 98.3014L74.849 84.8137L67.4088 75.758L67.4272 75.7431Z" fill="#27067A"/>
<path d="M67.4894 76.3039C79.144 75.2429 92.1938 99.9235 96.6503 131.404C101.107 162.885 95.2597 189.28 83.6052 190.341C71.9506 191.402 58.9009 166.721 54.4443 135.24C52.2252 119.493 52.5676 105.036 54.9246 94.3734L58.2014 98.3617L74.6288 84.9935L67.4894 76.3039Z" fill="#27077B"/>
<path d="M95.549 131.39C91.3279 99.9819 78.9517 75.3811 67.9059 76.442C56.8601 77.5029 51.3275 103.824 55.5486 135.231C59.7696 166.639 72.1458 191.24 83.1916 190.179C94.2374 189.118 99.77 162.797 95.549 131.39Z" fill="#27087B"/>
<path d="M67.6605 77.4478C79.087 76.4101 91.878 100.588 96.2241 131.446C100.586 162.323 94.8487 188.175 83.4222 189.213C71.9957 190.251 59.2047 166.072 54.8586 135.215C50.5124 104.357 56.234 78.4855 67.6605 77.4478Z" fill="#27097C"/>
<path d="M95.1581 131.427C91.0205 100.641 78.8867 76.5267 68.0563 77.5669C57.226 78.6071 51.8004 104.408 55.938 135.194C60.0755 165.98 72.2094 190.094 83.0397 189.054C93.8701 188.014 99.2956 162.213 95.1581 131.427Z" fill="#270A7D"/>
<path d="M67.8188 78.5724C79.0193 77.5579 91.5537 101.238 95.8244 131.481C100.095 161.725 94.4981 187.077 83.2976 188.092C72.0971 189.107 59.5627 165.427 55.292 135.183C51.0055 104.92 56.6183 79.5869 67.8188 78.5724Z" fill="#270B7E"/>
<path d="M94.7442 131.467C90.6903 101.302 78.8096 77.6742 68.2079 78.6925C57.6063 79.7107 52.2983 104.989 56.3522 135.154C60.4061 165.319 72.2867 188.946 82.8884 187.928C93.4901 186.91 98.7981 161.631 94.7442 131.467Z" fill="#270C7E"/>
<path d="M67.9804 79.6627C78.955 78.6713 91.2306 101.887 95.41 131.498C99.6052 161.128 94.0986 185.957 83.124 186.948C72.1494 187.94 59.8739 164.724 55.6945 135.113C51.5151 105.502 57.0217 80.6733 67.9804 79.6627Z" fill="#270D7F"/>
<path d="M94.3543 131.504C90.3839 101.961 78.7455 78.82 68.3593 79.8175C57.9731 80.8151 52.7721 105.573 56.7425 135.117C60.713 164.66 72.3513 187.801 82.7375 186.803C93.1237 185.806 98.3247 161.047 94.3543 131.504Z" fill="#270E80"/>
<path d="M68.1392 80.7873C78.872 79.7998 90.9069 102.536 94.9925 131.548C99.0781 160.561 93.6961 184.87 82.9816 185.843C72.2488 186.83 60.2139 164.094 56.1284 135.082C52.0244 106.084 57.4064 81.7748 68.1392 80.7873Z" fill="#270F81"/>
<path d="M68.2158 81.367C78.8435 80.4007 90.7253 102.876 94.781 131.591C98.8368 160.306 93.5092 184.347 82.8814 185.313C72.2536 186.279 60.3719 163.804 56.2978 135.104C52.2603 106.373 57.588 82.3332 68.2158 81.367Z" fill="#271082"/>
<path d="M68.2976 81.9121C78.8044 80.9478 90.5644 103.2 94.5929 131.584C98.603 159.983 93.3456 183.773 82.823 184.718C72.3161 185.682 60.5561 163.43 56.5276 135.046C52.5175 106.647 57.7749 82.8572 68.2976 81.9121Z" fill="#271182"/>
<path d="M68.3589 82.4724C78.7607 81.5293 90.4017 103.525 94.3662 131.607C98.3307 159.69 93.1276 183.211 82.7417 184.173C72.3399 185.116 60.6989 163.12 56.7344 135.038C52.7699 106.956 57.973 83.4348 68.3589 82.4724Z" fill="#271283"/>
<path d="M68.4554 83.0367C78.7363 82.0955 90.24 103.85 94.1747 131.635C98.0935 159.401 92.9423 182.687 82.6614 183.628C72.3805 184.569 60.8768 162.815 56.9421 135.03C53.0233 107.264 58.1745 83.9779 68.4554 83.0367Z" fill="#271384"/>
<path d="M68.5361 83.5819C78.712 82.6619 90.0782 104.174 93.9672 131.643C97.8563 159.112 92.7594 182.128 82.5836 183.048C72.4078 183.968 61.0415 162.456 57.1525 134.987C53.2635 107.518 58.3603 84.5019 68.5361 83.5819Z" fill="#271485"/>
<path d="M68.6142 84.1613C78.6692 83.2433 89.9323 104.518 93.7573 131.685C97.6007 158.838 92.5582 181.585 82.5033 182.503C72.4483 183.421 61.1852 162.146 57.3602 134.979C53.5168 107.827 58.5593 85.0793 68.6142 84.1613Z" fill="#271585"/>
<path d="M68.694 84.7065C78.6281 83.7904 89.7538 104.824 93.549 131.694C97.3468 158.53 92.3561 181.042 82.422 181.958C72.4879 182.874 61.3622 161.841 57.567 134.971C53.7692 108.135 58.7599 85.6226 68.694 84.7065Z" fill="#271686"/>
<path d="M92.5632 131.676C88.9704 104.943 78.4401 84.0026 69.0432 84.9051C59.6462 85.8077 54.941 108.211 58.5337 134.945C62.1265 161.678 72.6568 182.618 82.0538 181.716C91.4508 180.813 96.156 158.41 92.5632 131.676Z" fill="#271887"/>
<path d="M68.8535 85.8311C78.5616 84.9381 89.4466 105.492 93.1505 131.729C96.8545 157.966 91.9909 179.925 82.2828 180.818C72.5747 181.711 61.6897 161.157 57.9858 134.92C54.2818 108.683 59.1453 86.724 68.8535 85.8311Z" fill="#271988"/>
<path d="M92.1733 131.714C88.664 105.602 78.376 85.1483 69.1945 86.0302C60.013 86.912 55.4148 108.795 58.9241 134.907C62.4335 161.019 72.7214 181.472 81.9029 180.591C91.0844 179.709 95.6826 157.826 92.1733 131.714Z" fill="#271A89"/>
<path d="M69.0113 86.9558C78.4935 86.086 89.1037 106.156 92.7164 131.761C96.3291 157.365 91.5876 178.839 82.1054 179.709C72.6232 180.578 62.0129 160.508 58.4002 134.904C54.7876 109.299 59.5291 87.8256 69.0113 86.9558Z" fill="#271B89"/>
<path d="M91.7824 131.751C88.3566 106.26 78.311 86.2941 69.3449 87.1552C60.3789 88.0164 55.8877 109.379 59.3135 134.87C62.7394 160.361 72.785 180.327 81.7511 179.466C90.7171 178.604 95.2083 157.242 91.7824 131.751Z" fill="#271C8A"/>
<path d="M69.1545 88.0616C78.4107 87.2149 88.7646 106.787 92.2834 131.792C95.8207 156.783 91.1695 177.733 81.9316 178.565C72.6754 179.412 62.3215 159.84 58.8027 134.834C55.2654 109.843 59.9166 88.8933 69.1545 88.0616Z" fill="#271D8B"/>
<path d="M69.2507 88.6257C78.386 87.781 88.6183 107.13 92.1098 131.805C95.6014 156.479 91.0205 177.179 81.8693 178.004C72.734 178.849 62.5017 159.5 59.0101 134.825C55.5186 110.151 60.0995 89.4511 69.2507 88.6257Z" fill="#271E8C"/>
<path d="M69.3127 89.1862C78.3429 88.3627 88.4377 107.47 91.8837 131.828C95.3271 156.22 90.8189 176.636 81.7886 177.459C72.7584 178.283 62.6635 159.175 59.2176 134.817C55.7742 110.426 60.2824 90.0097 69.3127 89.1862Z" fill="#271F8C"/>
<path d="M69.4093 89.7503C78.3187 88.9287 88.2945 107.78 91.6923 131.855C95.0901 155.931 90.6179 176.092 81.7268 176.899C72.8174 177.72 62.8416 158.869 59.4439 134.794C56.0461 110.718 60.5183 90.5568 69.4093 89.7503Z" fill="#27208D"/>
<path d="M69.4707 90.3109C78.275 89.5105 88.1135 108.12 91.4656 131.879C94.8177 155.638 90.4158 175.55 81.6114 176.35C72.807 177.15 62.9686 158.541 59.6164 134.782C56.2643 111.023 60.6663 91.1112 69.4707 90.3109Z" fill="#27218E"/>
<path d="M69.5515 90.8562C78.235 90.0578 87.9518 108.444 91.2583 131.887C94.5648 155.33 90.233 174.991 81.5337 175.77C72.8503 176.569 63.1334 158.182 59.8269 134.74C56.5204 111.297 60.8522 91.6353 69.5515 90.8562Z" fill="#27228F"/>
<path d="M69.6293 91.4354C78.2077 90.6582 87.7897 108.769 91.0481 131.929C94.3248 155.075 90.0132 174.463 81.4689 175.244C72.8905 176.022 63.3085 157.911 60.0502 134.75C56.7735 111.605 61.0851 92.2169 69.6293 91.4354Z" fill="#272390"/>
<path d="M69.7104 91.9806C78.1678 91.2054 87.6281 109.093 90.8591 131.922C94.0901 154.751 89.8488 173.889 81.4097 174.649C72.9706 175.409 63.492 157.536 60.261 134.708C57.0299 111.879 61.2713 92.7409 69.7104 91.9806Z" fill="#272490"/>
<path d="M69.8063 92.5449C78.1429 91.7716 87.4818 109.437 90.6671 131.95C93.8525 154.462 89.6814 173.35 81.3289 174.104C72.9923 174.877 63.6535 157.212 60.4681 134.699C57.2827 112.187 61.4539 93.2989 69.8063 92.5449Z" fill="#272591"/>
<path d="M69.8684 93.1054C78.1 92.3534 87.2856 109.758 90.4411 131.973C93.5967 154.188 89.4457 172.803 81.2325 173.54C73.001 174.292 63.8154 156.888 60.6598 134.672C57.5226 112.442 61.6552 93.8426 69.8684 93.1054Z" fill="#272692"/>
<path d="M69.9494 93.6504C78.06 92.9002 87.1424 110.067 90.234 131.981C93.3256 153.895 89.2631 172.244 81.1708 172.98C73.0602 173.73 63.9778 156.563 60.8862 134.649C57.7946 112.735 61.8571 94.3856 69.9494 93.6504Z" fill="#272793"/>
<path d="M70.0263 94.23C78.032 93.5011 86.977 110.426 90.0229 132.024C93.0689 153.621 89.0766 171.721 81.071 172.45C73.0654 173.179 64.1204 156.253 61.0744 134.656C58.0285 113.059 62.0207 94.959 70.0263 94.23Z" fill="#272893"/>
<path d="M70.1081 94.7752C77.9928 94.0482 86.8004 110.732 89.8166 132.032C92.8169 153.313 88.879 171.143 80.9943 171.87C73.1095 172.597 64.3019 155.914 61.2858 134.613C58.2855 113.333 62.2233 95.5022 70.1081 94.7752Z" fill="#272994"/>
<path d="M70.1854 95.3546C77.965 94.6488 86.6535 111.076 89.6239 132.059C92.5944 153.043 88.6926 170.619 80.9314 171.309C73.1701 172 64.4633 155.588 61.4928 134.605C58.5223 113.621 62.4241 96.0454 70.1854 95.3546Z" fill="#272A95"/>
<path d="M70.2662 95.9C77.9066 95.2111 86.4919 111.4 89.4009 132.048C92.3257 152.716 88.4941 170.042 80.8353 170.745C73.1949 171.434 64.6096 155.245 61.7006 134.597C58.7758 113.93 62.6074 96.6038 70.2662 95.9Z" fill="#272A95"/>
<path d="M70.3203 96.3384C77.874 95.6558 86.3535 111.642 89.2435 132.08C92.1335 152.519 88.3354 169.624 80.7817 170.307C73.228 170.99 64.7485 155.004 61.8585 134.565C58.9844 114.146 62.7667 97.0211 70.3203 96.3384Z" fill="#282A95"/>
<path d="M70.4085 96.7808C77.8755 96.1044 86.2468 111.921 89.1044 132.097C91.9621 152.272 88.2132 169.177 80.7279 169.869C73.2609 170.545 64.8897 154.728 62.032 134.552C59.1744 114.377 62.9232 97.472 70.3927 96.7615L70.4085 96.7808Z" fill="#292B96"/>
<path d="M70.4617 97.2189C77.8419 96.5488 86.1075 112.163 88.9303 132.109C91.753 152.056 88.0536 168.76 80.6733 169.43C73.293 170.1 65.0275 154.486 62.2047 134.54C59.3819 114.593 63.0814 97.889 70.4617 97.2189Z" fill="#2A2B96"/>
<path d="M70.5161 97.6574C77.8097 96.9936 85.9854 112.424 88.7575 132.122C91.5296 151.821 87.8794 168.324 80.5858 168.988C73.2922 169.652 65.1165 154.222 62.3444 134.523C59.5723 114.824 63.2225 98.3212 70.5161 97.6574Z" fill="#2B2B97"/>
<path d="M70.57 98.096C77.7768 97.4384 85.8283 112.68 88.5839 132.135C91.3395 151.59 87.7387 167.892 80.5318 168.55C73.325 169.207 65.2734 153.966 62.5178 134.511C59.7623 115.056 63.3631 98.7535 70.57 98.096Z" fill="#2C2B97"/>
<path d="M70.639 98.5532C77.7592 97.902 85.7209 112.96 88.4258 132.167C91.1307 151.374 87.5792 167.475 80.459 168.126C73.3388 168.778 65.3771 153.72 62.6722 134.513C59.9672 115.306 63.5188 99.2045 70.639 98.5532Z" fill="#2D2C98"/>
<path d="M70.7122 98.9766C77.7273 98.3465 85.6016 113.186 88.2716 132.164C90.96 151.127 87.4236 167.024 80.4085 167.654C73.3934 168.284 65.5192 153.444 62.8491 134.466C60.1607 115.503 63.6971 99.6066 70.7122 98.9766Z" fill="#2E2C98"/>
<path d="M70.7653 99.4151C77.6937 98.7913 85.4597 113.462 88.0974 132.177C90.7351 150.892 87.2822 166.592 80.3354 167.23C73.407 167.854 65.6411 153.184 63.0033 134.469C60.3656 115.754 63.8185 100.054 70.7653 99.4151Z" fill="#2F2C98"/>
<path d="M70.8351 99.8724C77.6768 99.2549 85.3371 113.722 87.9399 132.208C90.5428 150.695 87.1234 166.174 80.2817 166.792C73.44 167.409 65.7797 152.942 63.1769 134.456C60.574 115.97 63.9934 100.49 70.8351 99.8724Z" fill="#302D99"/>
<path d="M70.889 100.311C77.644 99.6996 85.196 113.998 87.7665 132.221C90.3529 150.464 86.9486 165.738 80.2094 166.369C73.4544 166.98 65.9024 152.682 63.3319 134.459C60.7455 116.216 64.1498 100.941 70.889 100.311Z" fill="#312D99"/>
<path d="M70.9424 100.749C77.6107 100.144 85.057 114.239 87.5926 132.234C90.1283 150.228 86.8075 165.307 80.1392 165.911C73.4709 166.516 66.0247 152.422 63.489 134.427C60.9534 116.432 64.2741 101.354 70.9424 100.749Z" fill="#322D9A"/>
<path d="M71.0152 101.172C77.5969 100.574 84.9533 114.485 87.4383 132.231C89.9233 149.978 86.6518 164.855 80.0702 165.454C73.4885 166.053 66.1321 152.142 63.6471 134.395C61.1279 116.644 64.4336 101.771 71.0152 101.172Z" fill="#332D9A"/>
<path d="M71.0849 101.63C77.5614 101.052 84.8119 114.76 87.2987 132.248C89.7671 149.75 86.5109 164.422 80.0502 165.019C73.5738 165.596 66.3232 151.889 63.8365 134.401C61.368 116.898 64.6243 102.227 71.0849 101.63Z" fill="#342E9A"/>
<path d="M71.1392 102.069C77.529 101.497 84.6897 115.021 87.1258 132.261C89.5594 149.535 86.3708 163.991 79.9626 164.577C73.5728 165.148 66.4122 151.625 63.9761 134.385C61.5425 117.111 64.7311 102.655 71.1392 102.069Z" fill="#352E9B"/>
<path d="M71.1925 102.507C77.4956 101.942 84.5505 115.262 86.9517 132.273C89.353 149.284 86.1953 163.554 79.9081 164.139C73.605 164.704 66.5501 151.383 64.1488 134.372C61.7476 117.361 64.9052 103.091 71.1925 102.507Z" fill="#362E9B"/>
<path d="M71.2659 102.93C77.4822 102.371 84.4288 115.523 86.8136 132.29C89.1983 149.057 86.0717 163.141 79.8553 163.7C73.639 164.259 66.6924 151.107 64.3076 134.34C61.9412 117.558 65.0495 103.489 71.2659 102.93Z" fill="#372F9C"/>
<path d="M71.3348 103.387C77.4644 102.835 84.3053 115.783 86.6552 132.321C89.005 148.86 85.9302 162.709 79.8006 163.261C73.6709 163.814 66.8301 150.866 64.4802 134.327C62.1303 117.789 65.2051 103.94 71.3348 103.387Z" fill="#382F9C"/>
<path d="M71.389 103.826C77.432 103.28 84.183 116.044 86.4822 132.334C88.7814 148.625 85.7559 162.273 79.7288 162.839C73.6858 163.385 66.9348 150.621 64.6355 134.33C62.3363 118.04 65.3618 104.391 71.389 103.826Z" fill="#392F9D"/>
<path d="M71.4425 104.265C77.3803 103.74 84.0255 116.3 86.3082 132.347C88.5725 148.409 85.5963 161.856 79.6585 162.381C73.7207 162.906 67.0755 150.345 64.7928 134.298C62.5285 118.237 65.5046 104.79 71.4425 104.265Z" fill="#3A2F9D"/>
<path d="M71.5114 104.722C77.3626 104.203 83.9179 116.58 86.1499 132.379C88.3819 148.177 85.455 161.424 79.6013 161.977C73.7501 162.495 67.1948 150.119 64.9628 134.32C62.7308 118.521 65.6577 105.275 71.5114 104.722Z" fill="#3B309D"/>
<path d="M71.5851 105.145C77.3338 104.613 83.7992 116.806 85.9963 132.376C88.1935 147.946 85.3001 160.972 79.5515 161.504C73.8028 162.036 67.3374 149.843 65.1403 134.273C62.9431 118.703 65.8365 105.677 71.5851 105.145Z" fill="#3C309E"/>
<path d="M71.6383 105.584C77.3003 105.058 83.6575 117.082 85.8223 132.389C87.9871 147.696 85.1405 160.556 79.4627 161.062C73.8008 161.587 67.4436 149.563 65.2788 134.256C63.114 118.95 65.9605 106.09 71.6383 105.584Z" fill="#3D309E"/>
<path d="M71.6924 106.022C77.2677 105.503 83.5191 117.323 85.649 132.402C87.779 147.48 84.9843 160.104 79.409 160.624C73.8338 161.143 67.5823 149.322 65.4524 134.244C63.3225 119.166 66.1172 106.541 71.6924 106.022Z" fill="#3E319F"/>
<path d="M71.7614 106.479C77.25 105.967 83.4115 117.603 85.4908 132.433C87.5859 147.283 84.8405 159.707 79.3361 160.2C73.8475 160.713 67.6859 149.077 65.6067 134.246C63.5116 119.397 66.257 106.973 71.7614 106.479Z" fill="#3F319F"/>
<path d="M71.8349 106.902C77.2367 106.396 83.2741 117.844 85.3369 132.431C87.3996 147.017 84.6852 159.255 79.3017 159.747C73.8999 160.253 67.8625 148.805 65.7997 134.218C63.737 119.632 66.4514 107.394 71.8349 106.902Z" fill="#40319F"/>
<path d="M71.8882 107.341C77.185 106.856 83.1509 118.105 85.163 132.444C87.1909 146.801 84.5283 158.804 79.2131 159.305C73.8979 159.805 67.9504 148.54 65.9383 134.202C63.9262 119.864 66.573 107.841 71.8882 107.341Z" fill="#4131A0"/>
<path d="M71.942 107.78C77.1521 107.3 83.0122 118.347 84.9894 132.456C86.985 146.551 84.3692 158.387 79.1433 158.847C73.9332 159.326 68.0731 148.28 66.0959 134.17C64.1004 120.076 66.7161 108.239 71.942 107.78Z" fill="#4232A0"/>
<path d="M72.0115 108.237C77.1349 107.764 82.8868 118.641 84.8316 132.488C86.7923 146.354 84.21 157.97 79.0866 158.443C73.9633 158.916 68.2114 148.039 66.2665 134.192C64.3058 120.326 66.8881 108.71 72.0115 108.237Z" fill="#4332A1"/>
<path d="M72.0655 108.675C77.1022 108.209 82.7483 118.883 84.6766 132.486C86.5866 146.103 84.072 157.504 79.0354 157.97C73.9987 158.437 68.3526 147.763 66.4243 134.16C64.5143 120.542 67.0289 109.142 72.0655 108.675Z" fill="#4432A1"/>
<path d="M72.1384 109.098C77.0884 108.638 82.6446 119.128 84.5223 132.483C86.4 145.838 83.9322 157.072 78.9664 157.513C74.0164 157.973 68.4602 147.483 66.5825 134.128C64.689 120.754 67.1726 109.539 72.1384 109.098Z" fill="#4533A2"/>
<path d="M72.2078 109.556C77.071 109.102 82.5031 119.403 84.38 132.534C86.2228 145.66 83.8069 156.658 78.9437 157.112C74.0805 157.566 68.6484 147.265 66.7715 134.134C64.9287 121.008 67.3446 110.01 72.2078 109.556Z" fill="#4633A2"/>
<path d="M72.2615 109.995C77.0197 109.562 82.3802 119.664 84.2065 132.547C86.0327 145.429 83.6319 156.222 78.8554 156.67C74.0973 157.103 68.7368 147 66.9105 134.118C65.0842 121.236 67.485 110.442 72.2615 109.995Z" fill="#4733A2"/>
<path d="M72.3157 110.433C76.9871 110.006 82.2418 119.906 84.0332 132.559C85.8246 145.213 83.4732 155.805 78.8018 156.231C74.1303 156.658 68.8756 146.759 67.0842 134.105C65.2928 121.452 67.6442 110.859 72.3157 110.433Z" fill="#4833A3"/>
<path d="M72.3688 110.871C76.9536 110.451 82.1001 120.182 83.8591 132.572C85.5999 144.978 83.3161 155.354 78.713 155.789C74.1282 156.21 68.9817 146.479 67.2226 134.089C65.4636 121.698 67.7657 111.307 72.3688 110.871Z" fill="#4934A3"/>
<path d="M72.4573 111.314C76.9553 110.9 81.9961 120.427 83.7203 132.588C85.4445 144.75 83.1917 154.941 78.6778 155.335C74.1798 155.749 69.1391 146.222 67.4149 134.061C65.6906 121.899 67.9434 111.708 72.4573 111.314Z" fill="#4A34A4"/>
<path d="M72.5115 111.752C76.9229 111.344 81.8738 120.687 83.5473 132.601C85.2209 144.515 83.0174 154.505 78.606 154.913C74.1946 155.32 69.2437 145.977 67.5702 134.063C65.8966 122.15 68.1002 112.159 72.5115 111.752Z" fill="#4B34A4"/>
<path d="M72.5655 112.19C76.8901 111.789 81.7169 120.944 83.3739 132.614C85.031 144.284 82.861 154.054 78.5363 154.455C74.2117 154.856 69.3849 145.702 67.7279 134.032C66.0708 122.362 68.2408 112.592 72.5655 112.19Z" fill="#4C35A4"/>
<path d="M72.6187 112.629C76.8383 112.249 81.5935 121.205 83.1999 132.627C84.8062 144.049 82.7013 153.637 78.4634 154.032C74.2255 154.427 69.4886 145.456 67.8823 134.034C66.2759 122.612 68.3808 113.024 72.6187 112.629Z" fill="#4D35A5"/>
<path d="M72.7077 113.071C76.8405 112.697 81.49 121.45 83.0614 132.643C84.6329 143.836 82.5615 153.204 78.4287 153.578C74.2958 153.952 69.6464 145.199 68.0749 134.006C66.5034 122.813 68.5748 113.445 72.7077 113.071Z" fill="#4E35A5"/>
<path d="M72.7608 113.509C76.807 113.142 81.3482 121.726 82.8874 132.656C84.4423 143.605 82.4045 152.753 78.3399 153.136C74.2937 153.503 69.7525 144.92 68.2133 133.99C66.6742 123.059 68.6962 113.892 72.7608 113.509Z" fill="#4F35A6"/>
<path d="M72.8149 113.948C76.7744 113.587 81.2098 121.967 82.7141 132.668C84.2184 143.37 82.2457 152.336 78.2862 152.698C74.3268 153.059 69.8913 144.679 68.3871 133.977C66.8828 123.276 68.8555 114.309 72.8149 113.948Z" fill="#5036A6"/>
<path d="M72.884 114.405C76.7568 114.05 81.1024 122.247 82.556 132.7C84.0096 143.154 82.0862 151.919 78.2134 152.274C74.3406 152.629 69.995 144.433 68.5414 133.98C67.0877 123.526 69.0112 114.76 72.884 114.405Z" fill="#5236A7"/>
<path d="M72.9379 114.844C76.7239 114.495 80.9454 122.503 82.3825 132.713C83.8195 142.922 81.9455 151.487 78.1594 151.836C74.3734 152.185 70.1519 144.177 68.7148 133.967C67.2777 123.757 69.1518 115.193 72.9379 114.844Z" fill="#5336A7"/>
<path d="M73.0107 115.267C76.7101 114.924 80.8417 122.749 82.2281 132.71C83.6487 142.676 81.7897 151.036 78.0903 151.379C74.3909 151.721 70.2593 143.897 68.8729 133.935C67.4523 123.969 69.3113 115.609 73.0107 115.267Z" fill="#5437A7"/>
<path d="M73.0651 115.706C76.6594 115.384 80.7035 122.99 82.0734 132.708C83.4433 142.426 81.6337 150.584 78.0394 150.906C74.4452 151.227 70.4011 143.621 69.0312 133.903C67.6613 124.185 69.4709 116.027 73.0651 115.706Z" fill="#5537A8"/>
<path d="M73.1348 116.163C76.6424 115.848 80.5782 123.285 81.9158 132.74C83.2508 142.229 81.5088 150.171 77.9829 150.501C74.4754 150.816 70.5395 143.38 69.202 133.925C67.8645 124.47 69.6089 116.493 73.1348 116.163Z" fill="#5637A8"/>
<path d="M73.1887 116.601C76.6095 116.293 80.4396 123.526 81.7581 132.771C83.0766 142.017 81.3499 149.754 77.929 150.063C74.5082 150.372 70.6782 143.138 69.3597 133.893C68.0412 124.648 69.7679 116.91 73.1887 116.601Z" fill="#5737A9"/>
<path d="M73.2606 117.024C76.5947 116.722 80.3349 123.771 81.6028 132.769C82.8706 141.766 81.1931 149.303 77.8748 149.625C74.5407 149.927 70.8004 142.878 69.5326 133.88C68.2648 124.883 69.9422 117.346 73.2606 117.024Z" fill="#5838A9"/>
<path d="M73.3146 117.463C76.562 117.167 80.1781 124.028 81.4294 132.782C82.6807 141.535 81.0526 148.871 77.8051 149.167C74.5577 149.463 70.9417 142.602 69.6904 133.849C68.4391 125.095 70.0672 117.759 73.3146 117.463Z" fill="#5938A9"/>
<path d="M73.3846 117.92C76.5454 117.63 80.0716 124.308 81.2722 132.813C82.4729 141.319 80.894 148.454 77.7333 148.744C74.5725 149.034 71.0463 142.357 69.8457 133.851C68.645 125.345 70.2238 118.21 73.3846 117.92Z" fill="#5A38AA"/>
<path d="M73.4381 118.359C76.4938 118.09 79.9326 124.549 81.0983 132.826C82.2641 141.103 80.7188 148.018 77.679 148.306C74.6233 148.574 71.1845 142.115 70.0188 133.838C68.853 125.562 70.3983 118.647 73.4381 118.359Z" fill="#5B39AA"/>
<path d="M73.4923 118.798C76.4613 118.535 79.7918 124.825 80.9252 132.839C82.0587 140.853 80.5785 147.586 77.5912 147.863C74.6222 148.126 71.2917 141.836 70.1583 133.822C69.0248 125.808 70.505 119.075 73.4923 118.798Z" fill="#5C39AB"/>
<path d="M73.5651 119.221C76.4473 118.964 79.6722 125.051 80.7707 132.836C81.8693 140.621 80.4226 147.134 77.5404 147.391C74.6581 147.647 71.4333 141.56 70.3348 133.775C69.2362 125.99 70.6829 119.477 73.5651 119.221Z" fill="#5D39AB"/>
<path d="M73.6341 119.678C76.4296 119.428 79.5645 125.331 80.6124 132.868C81.6603 140.405 80.2788 146.737 77.4832 146.987C74.6876 147.236 71.5527 141.334 70.5048 133.797C69.4386 126.275 70.8385 119.928 73.6341 119.678Z" fill="#5E39AC"/>
<path d="M73.688 120.116C76.3969 119.873 79.4077 125.587 80.439 132.881C81.4704 140.174 80.1224 146.285 77.4135 146.529C74.7047 146.773 71.6939 141.058 70.6625 133.765C69.6311 126.472 70.9792 120.36 73.688 120.116Z" fill="#5F3AAC"/>
<path d="M73.7412 120.555C76.3633 120.317 79.2843 125.848 80.265 132.893C81.2615 139.958 79.947 145.849 77.3406 146.106C74.7184 146.343 71.7975 140.813 70.8168 133.767C69.8202 126.703 71.1348 120.811 73.7412 120.555Z" fill="#603AAC"/>
<path d="M73.8302 120.997C76.3472 120.781 79.1807 126.093 80.1265 132.91C81.0907 139.711 79.823 145.436 77.3059 145.652C74.7889 145.868 71.9554 140.556 71.0096 133.739C70.0454 126.938 71.3131 121.213 73.8302 120.997Z" fill="#613AAD"/>
<path d="M73.8843 121.436C76.3147 121.226 79.0399 126.369 79.9534 132.923C80.8828 139.495 79.6669 144.985 77.2181 145.21C74.7877 145.42 72.0625 140.276 71.149 133.723C70.2355 127.169 71.4356 121.66 73.8843 121.436Z" fill="#623BAD"/>
<path d="M73.9374 121.874C76.2811 121.67 78.9006 126.61 79.7792 132.935C80.6762 139.245 79.4913 144.549 77.1634 144.771C74.8198 144.975 72.2003 140.035 71.3216 133.71C70.4246 127.401 71.6096 122.097 73.9374 121.874Z" fill="#633BAE"/>
<path d="M79.4523 132.935C78.6298 126.816 76.2153 122.023 74.0592 122.23C71.9032 122.437 70.8221 127.566 71.6446 133.685C72.467 139.805 74.8816 144.598 77.0377 144.391C79.1937 144.184 80.2748 139.055 79.4523 132.935Z" fill="#643BAE"/>
<path d="M74.061 122.77C76.2313 122.579 78.6368 127.147 79.4483 132.98C80.2597 138.812 79.1918 143.7 77.0373 143.91C74.867 144.101 72.4615 139.533 71.6317 133.715C70.8203 127.882 71.8882 122.995 74.0427 122.785L74.061 122.77Z" fill="#653BAE"/>
<path d="M74.1337 123.193C76.2172 123.008 78.5328 127.392 79.3277 132.981C80.1226 138.57 79.0856 143.271 77.0021 143.456C74.9186 143.641 72.6031 139.257 71.8082 133.668C71.0132 128.079 72.0502 123.378 74.1337 123.193Z" fill="#663CAF"/>
<path d="M74.1881 123.632C76.1665 123.468 78.3762 127.649 79.1546 132.994C79.9146 138.354 78.9112 142.835 76.9328 142.998C74.9544 143.162 72.7447 138.982 71.9663 133.636C71.1879 128.291 72.2097 123.795 74.1881 123.632Z" fill="#673CAF"/>
<path d="M74.2414 124.07C76.1173 123.894 78.253 127.909 78.9807 133.007C79.7084 138.104 78.7543 142.384 76.86 142.575C74.9841 142.752 72.8484 138.736 72.1207 133.639C71.393 128.542 72.3471 124.262 74.2414 124.07Z" fill="#683CB0"/>
<path d="M74.3113 124.528C76.1005 124.357 78.1304 128.17 78.8232 133.038C79.5161 137.907 78.6113 141.986 76.8063 142.137C75.0171 142.307 72.9872 138.495 72.2943 133.626C71.6015 128.758 72.5063 124.679 74.3113 124.528Z" fill="#693DB0"/>
<path d="M74.3643 124.966C76.0668 124.802 77.9885 128.445 78.649 133.051C79.2912 137.671 78.4357 141.55 76.7332 141.714C75.0307 141.878 73.109 138.234 72.4485 133.629C71.8063 129.008 72.6434 125.145 74.3643 124.966Z" fill="#6A3DB1"/>
<path d="M74.437 125.389C76.0528 125.231 77.8688 128.671 78.4945 133.048C79.1201 137.425 78.2981 141.083 76.6823 141.241C75.0665 141.399 73.2506 137.959 72.6249 133.582C71.9993 129.205 72.8212 125.547 74.437 125.389Z" fill="#6B3DB1"/>
<path d="M74.5071 125.846C76.0363 125.695 77.7624 128.951 78.3373 133.08C78.9123 137.209 78.1555 140.686 76.6105 140.818C75.0814 140.969 73.3553 137.713 72.7803 133.584C72.2053 129.455 72.9622 125.979 74.5071 125.846Z" fill="#6C3DB1"/>
<path d="M74.5609 126.285C76.0033 126.14 77.6053 129.208 78.1638 133.093C78.7222 136.978 77.9989 140.234 76.5565 140.38C75.1141 140.525 73.5121 137.457 72.9537 133.572C72.3952 129.687 73.1186 126.43 74.5609 126.285Z" fill="#6D3EB2"/>
<path d="M74.6141 126.724C75.9515 126.6 77.4819 129.469 77.9897 133.106C78.5133 136.762 77.8235 139.799 76.4678 139.938C75.112 140.077 73.5999 137.192 73.0921 133.555C72.5685 129.899 73.2584 126.862 74.6141 126.724Z" fill="#6E3EB2"/>
<path d="M74.6875 127.146C75.9381 127.029 77.3628 129.695 77.8357 133.103C78.3086 136.511 77.6839 139.366 76.4333 139.483C75.1827 139.601 73.758 136.935 73.2851 133.527C72.8122 130.119 73.4369 127.264 74.6875 127.146Z" fill="#6F3EB3"/>
<path d="M74.7563 127.604C75.9202 127.493 77.2366 129.989 77.6772 133.135C78.1178 136.28 77.5424 138.934 76.3601 139.06C75.1962 139.172 73.8798 136.675 73.4392 133.53C72.9986 130.384 73.574 127.73 74.7563 127.604Z" fill="#703FB3"/>
<path d="M74.8106 128.043C75.8878 127.937 77.0984 130.231 77.5042 133.147C77.9099 136.064 77.3838 138.517 76.2908 138.603C75.2136 138.708 74.0029 136.415 73.5972 133.498C73.1915 130.582 73.7175 128.129 74.8106 128.043Z" fill="#713FB3"/>
<path d="M74.8647 128.481C75.8552 128.382 76.976 130.492 77.3311 133.16C77.6861 135.829 77.2094 138.081 76.2188 138.18C75.2283 138.279 74.1074 136.169 73.7524 133.501C73.3632 130.828 73.8741 128.58 74.8647 128.481Z" fill="#723FB4"/>
<path d="M74.9188 128.919C75.8226 128.827 76.8193 130.748 77.1578 133.173C77.4964 135.598 77.0531 137.63 76.1493 137.723C75.2454 137.815 74.2487 135.894 73.9102 133.469C73.5717 131.044 74.0149 129.012 74.9188 128.919Z" fill="#733FB4"/>
<path d="M75.0068 129.362C75.8056 129.29 76.7307 131.013 77.0186 133.189C77.3222 135.385 76.9283 137.217 76.0954 137.284C75.2966 137.355 74.3715 135.633 74.0836 133.456C73.7958 131.279 74.1739 129.429 75.0068 129.362Z" fill="#7440B5"/>
<path d="M75.0606 129.8C75.7726 129.735 76.5919 131.254 76.8632 133.187C77.1346 135.12 76.7716 136.765 76.0596 136.83C75.3476 136.895 74.5283 135.376 74.257 133.443C73.9857 131.511 74.3486 129.865 75.0606 129.8Z" fill="#7540B5"/>
<path d="M75.1144 130.239C75.7397 130.18 76.4508 131.53 76.7056 133.219C76.942 134.923 76.6309 136.333 75.9873 136.407C75.362 136.466 74.6509 135.116 74.3961 133.427C74.1597 131.723 74.4708 130.312 75.1144 130.239Z" fill="#7640B6"/>
<path d="M75.1832 130.696C75.7218 130.643 76.327 131.79 76.547 133.25C76.7669 134.71 76.4868 135.935 75.9483 135.987C75.4097 136.04 74.8044 134.893 74.5845 133.433C74.3646 131.973 74.6447 130.748 75.1832 130.696Z" fill="#7741B6"/>
<path d="M75.257 131.119C75.7089 131.073 76.2242 132.035 76.3935 133.247C76.5627 134.46 76.3319 135.483 75.8984 135.515C75.4466 135.561 74.947 134.617 74.762 133.386C74.5769 132.154 74.8235 131.15 75.2754 131.104L75.257 131.119Z" fill="#7841B6"/>
<path d="M75.3103 131.558C75.6755 131.518 76.0668 132.292 76.2195 133.261C76.3539 134.244 76.1908 135.052 75.8098 135.073C75.4447 135.113 75.0534 134.338 74.9006 133.37C74.7479 132.401 74.9294 131.578 75.3103 131.558Z" fill="#7941B7"/>
<path d="M75.3643 131.996C75.6245 131.977 75.9442 132.553 76.0463 133.273C76.1483 133.994 76.0162 134.616 75.7377 134.65C75.4592 134.683 75.1737 134.112 75.0558 133.372C74.9537 132.652 75.0858 132.03 75.346 132.011L75.3643 131.996Z" fill="#7A41B7"/>
<path d="M75.4338 132.453C75.6072 132.441 75.8212 132.813 75.8883 133.305C75.9555 133.797 75.8569 134.198 75.6835 134.211C75.5101 134.223 75.2961 133.851 75.2289 133.359C75.1617 132.868 75.2603 132.466 75.4338 132.453Z" fill="#7B42B8"/>
<path d="M75.4866 132.893C75.4866 132.893 75.6789 133.09 75.7137 133.318C75.7485 133.547 75.7151 133.767 75.6101 133.788C75.5235 133.794 75.4178 133.591 75.383 133.362C75.3481 133.134 75.3816 132.914 75.4682 132.908L75.4866 132.893Z" fill="#7C42B8"/>
</g>
<path d="M81.0605 179.723L78.4395 178.7C78.4395 178.7 71.8744 169.104 71.7302 134.773C71.586 100.442 78.0767 89.8814 78.0767 89.8814L80.5928 89.9913L81.0605 179.723Z" fill="url(#paint1_radial_379_6914)"/>
<path d="M78.0234 85.3721C59.5193 138.227 78.157 181.555 78.3987 182.261C42.7416 167.635 31.6435 131.612 31.6435 131.612C31.6435 131.612 42.4656 96.6402 78.0234 85.3721Z" fill="url(#paint2_radial_379_6914)"/>
<path d="M193.038 106.255L193.3 169.606C193.3 169.606 141.176 195.357 94.8738 185.236C94.7707 185.223 94.7021 185.214 94.7021 185.214C90.065 184.179 85.7466 182.819 81.7443 181.17C81.5048 180.43 66.8021 136.698 81.3525 84.142C85.3474 82.8605 89.6468 81.9122 94.2825 81.3356C96.2597 81.0823 98.2319 80.8978 100.233 80.7862L100.252 80.7712C144.977 78.0753 193.035 106.289 193.035 106.289L193.038 106.255Z" fill="url(#paint3_radial_379_6914)"/>
<path style="mix-blend-mode:screen" opacity="0.5" d="M74.7275 132.452C74.7275 132.452 133.757 132.918 189.343 137.671L74.7275 132.452Z" fill="url(#paint4_linear_379_6914)"/>
<mask id="mask1_379_6914" style="mask-type:luminance" maskUnits="userSpaceOnUse" x="189" y="104" width="14" height="64">
<path d="M193.097 104.769C195.25 104.886 202.462 119.377 202.557 136.823C202.652 154.268 195.563 168.089 193.392 167.987C191.24 167.87 189.437 153.649 189.341 136.204C189.265 118.743 190.942 104.687 193.113 104.789L193.097 104.769Z" fill="white"/>
</mask>
<g mask="url(#mask1_379_6914)">
<path d="M193.443 102.648L159.995 129.86L193.079 170.116L226.527 142.904L193.443 102.648Z" fill="#270579"/>
<path d="M193.478 98.2464C201.715 97.4259 210.942 113.8 214.099 134.825C217.256 155.849 213.102 173.566 204.865 174.386C196.629 175.207 187.402 158.833 184.245 137.808C181.088 116.784 185.241 99.0669 193.478 98.2464Z" fill="#270579"/>
<path d="M193.521 98.5973C201.671 97.783 210.824 113.993 213.944 134.823C217.048 155.633 212.959 173.169 204.791 173.998C196.641 174.812 187.488 158.602 184.368 137.772C181.264 116.962 185.353 99.4265 193.521 98.5973Z" fill="#27067A"/>
<path d="M193.58 98.967C201.677 98.1634 210.72 114.238 213.805 134.839C216.889 155.441 212.829 172.824 204.732 173.628C196.634 174.431 187.592 158.357 184.507 137.755C181.441 117.139 185.483 99.7707 193.58 98.967Z" fill="#27077B"/>
<path d="M193.64 99.3368C201.65 98.5394 210.618 114.449 213.666 134.856C216.713 155.263 212.7 172.48 204.689 173.277C196.679 174.074 187.711 158.164 184.663 137.758C181.616 117.351 185.629 100.134 193.64 99.3368Z" fill="#27087B"/>
<path d="M193.699 99.7067C201.623 98.9156 210.498 114.676 213.527 134.873C216.537 155.085 212.573 172.101 204.649 172.892C196.725 173.683 187.849 157.923 184.821 137.726C181.811 117.514 185.775 100.498 193.699 99.7067Z" fill="#27097C"/>
<path d="M193.757 100.076C201.595 99.2916 210.396 114.887 213.387 134.89C216.378 154.892 212.443 171.756 204.605 172.541C196.768 173.326 187.967 157.73 184.976 137.728C181.985 117.725 185.92 100.861 193.757 100.076Z" fill="#270A7D"/>
<path d="M193.781 100.443C201.548 99.6837 210.241 115.11 213.213 134.903C216.167 154.711 212.278 171.408 204.512 172.167C196.745 172.927 188.052 157.5 185.08 137.707C182.126 117.9 186.015 101.202 193.781 100.443Z" fill="#270B7E"/>
<path d="M193.84 100.813C201.538 100.045 210.139 115.321 213.055 134.935C215.99 154.534 212.132 171.045 204.434 171.813C196.736 172.581 188.135 157.304 185.219 137.691C182.284 118.092 186.142 101.581 193.84 100.813Z" fill="#270C7E"/>
<path d="M193.899 101.183C201.51 100.421 210.019 115.548 212.916 134.952C215.813 154.356 212.002 170.701 204.391 171.462C196.78 172.224 188.271 157.097 185.374 137.693C182.477 118.289 186.288 101.944 193.899 101.183Z" fill="#270D7F"/>
<path d="M193.958 101.552C201.483 100.797 209.917 115.759 212.777 134.969C215.637 154.178 211.873 170.356 204.332 171.092C196.807 171.848 188.373 156.886 185.513 137.676C182.653 118.467 186.417 102.289 193.958 101.552Z" fill="#270E80"/>
<path d="M194.001 101.903C201.455 101.173 209.781 115.966 212.622 134.966C215.463 153.966 211.711 169.973 204.273 170.723C196.819 171.452 188.493 156.659 185.652 137.659C182.811 118.66 186.563 102.652 194.001 101.903Z" fill="#270F81"/>
<path d="M194.06 102.273C201.428 101.55 209.68 116.178 212.483 134.983C215.287 153.789 211.6 169.614 204.215 170.353C196.829 171.091 188.596 156.448 185.792 137.643C182.989 118.837 186.675 103.012 194.06 102.273Z" fill="#271082"/>
<path d="M194.12 102.643C201.418 101.911 209.56 116.404 212.344 135C215.129 153.596 211.455 169.25 204.174 169.968C196.876 170.7 188.734 156.206 185.95 137.611C183.165 119.015 186.839 103.36 194.12 102.643Z" fill="#271182"/>
<path d="M194.178 103.013C201.39 102.287 209.457 116.615 212.205 135.017C214.952 153.418 211.324 168.906 204.131 169.617C196.919 170.343 188.852 156.014 186.105 137.613C183.358 119.212 186.985 103.724 194.178 103.013Z" fill="#271283"/>
<path d="M194.237 103.382C201.378 102.682 209.372 116.846 212.065 135.033C214.759 153.221 211.213 168.546 204.072 169.247C196.931 169.947 188.938 155.783 186.244 137.596C183.55 119.409 187.096 104.083 194.237 103.382Z" fill="#271384"/>
<path d="M194.28 103.733C201.335 103.039 209.235 117.053 211.91 135.031C214.601 153.028 211.052 168.164 204.013 168.877C196.974 169.59 189.058 155.557 186.383 137.579C183.693 119.582 187.242 104.447 194.28 103.733Z" fill="#271485"/>
<path d="M194.339 104.103C201.307 103.415 209.134 117.265 211.771 135.048C214.443 152.836 210.922 167.819 203.954 168.507C196.986 169.195 189.16 155.345 186.522 137.562C183.851 119.775 187.372 104.791 194.339 104.103Z" fill="#271585"/>
<path d="M194.398 104.473C201.298 103.777 209.013 117.491 211.632 135.065C214.266 152.658 210.81 167.46 203.895 168.137C196.996 168.834 189.28 155.119 186.662 137.545C184.027 119.952 187.483 105.15 194.398 104.473Z" fill="#271686"/>
<path d="M194.457 104.843C201.269 104.152 208.911 117.703 211.492 135.082C214.073 152.461 210.664 167.096 203.852 167.787C197.039 168.477 189.397 154.927 186.816 137.548C184.235 120.168 187.644 105.533 194.457 104.843Z" fill="#271887"/>
<path d="M194.516 105.213C201.258 104.548 208.791 117.929 211.353 135.099C213.915 152.268 210.535 166.752 203.793 167.417C197.051 168.081 189.518 154.7 186.956 137.531C184.394 120.361 187.774 105.877 194.516 105.213Z" fill="#271988"/>
<path d="M194.559 105.564C201.214 104.905 208.673 118.121 211.198 135.096C213.723 152.071 210.407 166.374 203.734 167.047C197.079 167.705 189.62 154.489 187.095 137.514C184.57 120.539 187.886 106.237 194.559 105.564Z" fill="#271A89"/>
<path d="M194.619 105.933C201.187 105.281 208.554 118.348 211.06 135.113C213.565 151.878 210.263 166.009 203.694 166.662C197.126 167.314 189.759 154.247 187.254 137.482C184.748 120.717 188.051 106.586 194.619 105.933Z" fill="#271B89"/>
<path d="M194.678 106.303C201.178 105.642 208.452 118.559 210.92 135.13C213.389 151.701 210.133 165.665 203.635 166.292C197.135 166.953 189.861 154.036 187.393 137.465C184.924 120.894 188.18 106.93 194.678 106.303Z" fill="#271C8A"/>
<path d="M194.737 106.673C201.166 106.038 208.332 118.785 210.781 135.147C213.23 151.508 210.021 165.306 203.592 165.941C197.163 166.576 189.997 153.829 187.548 137.467C185.099 121.106 188.308 107.308 194.737 106.673Z" fill="#271D8B"/>
<path d="M194.78 107.024C201.122 106.395 208.214 118.978 210.626 135.145C213.038 151.311 209.86 164.923 203.517 165.552C197.175 166.181 190.083 153.598 187.671 137.432C185.259 121.265 188.437 107.653 194.78 107.024Z" fill="#271E8C"/>
<path d="M194.839 107.394C201.094 106.771 208.094 119.204 210.502 135.18C212.895 151.137 209.745 164.597 203.49 165.22C197.234 165.843 190.235 153.41 187.826 137.433C185.433 121.476 188.583 108.016 194.839 107.394Z" fill="#271F8C"/>
<path d="M194.897 107.763C201.066 107.147 208.008 119.435 210.363 135.197C212.718 150.96 209.618 164.219 203.431 164.85C197.262 165.467 190.32 153.179 187.965 137.417C185.61 121.654 188.71 108.395 194.897 107.763Z" fill="#27208D"/>
<path d="M194.956 108.133C201.072 107.527 207.887 119.661 210.223 135.214C212.541 150.782 209.488 163.874 203.387 164.5C197.287 165.125 190.456 152.972 188.12 137.419C185.802 121.851 188.855 108.758 194.956 108.133Z" fill="#27218E"/>
<path d="M195.015 108.503C201.045 107.903 207.785 119.872 210.084 135.231C212.383 150.589 209.358 163.53 203.328 164.13C197.299 164.729 190.558 152.761 188.259 137.402C185.96 122.044 188.985 109.103 195.015 108.503Z" fill="#27228F"/>
<path d="M195.059 108.854C201.002 108.261 207.65 120.08 209.93 135.229C212.192 150.392 209.198 163.147 203.273 163.726C197.33 164.319 190.682 152.5 188.402 137.351C186.141 122.187 189.135 109.432 195.059 108.854Z" fill="#272390"/>
<path d="M195.098 109.239C200.955 108.652 207.529 120.306 209.771 135.261C212.014 150.215 209.066 162.803 203.21 163.39C197.354 163.977 190.78 152.323 188.537 137.369C186.295 122.414 189.242 109.826 195.098 109.239Z" fill="#272490"/>
<path d="M195.158 109.609C200.943 109.048 207.409 120.533 209.632 135.278C211.837 150.037 208.937 162.459 203.152 163.02C197.366 163.582 190.9 152.096 188.677 137.352C186.472 122.592 189.372 110.171 195.158 109.609Z" fill="#272591"/>
<path d="M195.217 109.979C200.934 109.408 207.307 120.744 209.493 135.294C211.679 149.845 208.791 162.095 203.109 162.67C197.392 163.24 191.018 151.904 188.832 137.354C186.646 122.804 189.534 110.553 195.217 109.979Z" fill="#272692"/>
<path d="M195.276 110.349C200.906 109.785 207.205 120.955 209.354 135.311C211.503 149.667 208.68 161.736 203.05 162.3C197.419 162.864 191.12 151.693 188.971 137.337C186.823 122.981 189.645 110.912 195.276 110.349Z" fill="#272793"/>
<path d="M195.318 110.7C200.862 110.142 207.069 121.163 209.199 135.309C211.328 149.455 208.534 161.372 202.974 161.911C197.431 162.468 191.224 151.447 189.094 137.301C186.965 123.155 189.759 111.238 195.318 110.7Z" fill="#272893"/>
<path d="M195.378 111.069C200.835 110.518 206.968 121.374 209.06 135.326C211.136 149.258 208.389 161.009 202.932 161.56C197.475 162.111 191.342 151.255 189.25 137.303C187.158 123.352 189.921 111.621 195.378 111.069Z" fill="#272994"/>
<path d="M195.436 111.439C200.822 110.913 206.847 121.601 208.92 135.343C210.993 149.085 208.277 160.649 202.872 161.19C197.486 161.716 191.462 151.029 189.389 137.287C187.315 123.545 190.032 111.98 195.436 111.439Z" fill="#272A95"/>
<path d="M195.494 111.809C200.794 111.29 206.744 121.812 208.762 135.375C210.782 148.903 208.128 160.32 202.81 160.855C197.493 161.389 191.56 150.852 189.543 137.289C187.523 123.761 190.177 112.344 195.494 111.809Z" fill="#272A95"/>
<path d="M195.544 112.091C200.791 111.582 206.646 121.989 208.661 135.361C210.657 148.748 208.031 160.014 202.784 160.523C197.538 161.032 191.682 150.625 189.668 137.253C187.672 123.866 190.297 112.6 195.544 112.091Z" fill="#282A95"/>
<path d="M195.592 112.373C200.77 111.856 206.565 122.151 208.555 135.382C210.53 148.594 207.93 159.742 202.752 160.26C197.573 160.777 191.779 150.481 189.788 137.251C187.814 124.039 190.413 112.891 195.592 112.373Z" fill="#292B96"/>
<path d="M195.621 112.671C200.747 112.164 206.465 122.329 208.416 135.4C210.366 148.471 207.795 159.467 202.669 159.974C197.543 160.481 191.825 150.316 189.875 137.245C187.924 124.174 190.495 113.178 195.621 112.671Z" fill="#2A2B96"/>
<path d="M195.67 112.953C200.728 112.437 206.385 122.491 208.314 135.386C210.243 148.282 207.698 159.161 202.643 159.642C197.585 160.158 191.928 150.104 189.999 137.208C188.07 124.313 190.615 113.434 195.67 112.953Z" fill="#2B2B97"/>
<path d="M195.718 113.235C200.705 112.745 206.304 122.653 208.209 135.408C210.113 148.162 207.615 158.874 202.61 159.379C197.623 159.869 192.024 149.96 190.12 137.206C188.215 124.452 190.713 113.74 195.718 113.235Z" fill="#2C2B97"/>
<path d="M195.748 113.533C200.682 113.053 206.204 122.831 208.087 135.41C209.971 147.989 207.498 158.583 202.546 159.078C197.612 159.557 192.089 149.779 190.206 137.2C188.323 124.622 190.795 114.027 195.748 113.533Z" fill="#2D2C98"/>
<path d="M195.797 113.815C200.662 113.326 206.124 122.993 207.983 135.431C209.826 147.849 207.398 158.311 202.532 158.799C197.667 159.287 192.223 149.606 190.346 137.183C188.503 124.765 190.931 114.303 195.797 113.815Z" fill="#2E2C98"/>
<path d="M195.845 114.097C200.658 113.619 206.025 123.17 207.862 135.433C209.7 147.695 207.282 158.021 202.468 158.498C197.655 158.976 192.288 149.425 190.451 137.162C188.613 124.9 191.031 114.574 195.845 114.097Z" fill="#2F2C98"/>
<path d="M195.874 114.394C200.618 113.908 205.924 123.348 207.756 135.454C209.554 147.556 207.18 157.749 202.435 158.235C197.69 158.721 192.384 149.281 190.553 137.175C188.755 125.073 191.129 114.88 195.874 114.394Z" fill="#302D99"/>
<path d="M195.922 114.676C200.596 114.216 205.844 123.51 207.636 135.456C209.427 147.402 207.064 157.458 202.39 157.919C197.716 158.379 192.468 149.085 190.676 137.139C188.884 125.193 191.248 115.137 195.922 114.676Z" fill="#312D99"/>
<path d="M195.971 114.958C200.592 114.508 205.763 123.672 207.515 135.458C209.267 147.244 206.948 157.167 202.342 157.636C197.721 158.087 192.55 148.923 190.798 137.137C189.046 125.351 191.365 115.428 195.971 114.958Z" fill="#322D9A"/>
<path d="M196 115.256C200.553 114.797 205.663 123.85 207.41 135.479C209.156 147.109 206.847 156.896 202.293 157.354C197.74 157.813 192.63 148.76 190.884 137.131C189.138 125.501 191.447 115.715 196 115.256Z" fill="#332D9A"/>
<path d="M196.049 115.538C200.55 115.09 205.583 124.012 207.29 135.481C208.996 146.95 206.749 156.59 202.249 157.038C197.748 157.486 192.714 148.564 191.008 137.095C189.302 125.626 191.549 115.986 196.049 115.538Z" fill="#342E9A"/>
<path d="M196.113 115.839C200.561 115.401 205.499 124.208 207.2 135.521C208.901 146.834 206.664 156.337 202.232 156.794C197.8 157.25 192.845 148.425 191.144 137.112C189.444 125.798 191.68 116.296 196.113 115.839Z" fill="#352E9B"/>
<path d="M196.142 116.137C200.504 115.706 205.4 124.386 207.079 135.524C208.758 146.661 206.563 156.066 202.167 156.493C197.772 156.92 192.91 148.244 191.231 137.106C189.552 125.968 191.747 116.564 196.142 116.137Z" fill="#362E9B"/>
<path d="M196.19 116.419C200.499 115.998 205.319 124.548 206.974 135.544C208.613 146.522 206.462 155.793 202.153 156.214C197.845 156.635 193.025 148.085 191.37 137.088C189.731 126.111 191.882 116.839 196.19 116.419Z" fill="#372F9C"/>
<path d="M196.238 116.701C200.479 116.272 205.238 124.71 206.853 135.546C208.468 146.383 206.346 155.503 202.089 155.913C197.833 156.323 193.09 147.904 191.475 137.067C189.86 126.231 191.982 117.111 196.238 116.701Z" fill="#382F9C"/>
<path d="M196.268 116.998C200.456 116.58 205.139 124.888 206.732 135.549C208.326 146.21 206.229 155.212 202.042 155.631C197.854 156.05 193.171 147.742 191.578 137.081C189.984 126.42 192.081 117.417 196.268 116.998Z" fill="#392F9D"/>
<path d="M196.317 117.28C200.452 116.872 205.058 125.05 206.627 135.57C208.197 146.089 206.129 154.94 202.012 155.333C197.895 155.726 193.271 147.564 191.702 137.044C190.132 126.524 192.2 117.674 196.317 117.28Z" fill="#3A2F9D"/>
<path d="M196.365 117.563C200.414 117.161 204.958 125.227 206.506 135.572C208.054 145.916 206.012 154.649 201.964 155.051C197.915 155.453 193.37 147.387 191.822 137.042C190.274 126.698 192.316 117.965 196.365 117.563Z" fill="#3B309D"/>
<path d="M196.394 117.86C200.39 117.469 204.858 125.405 206.401 135.593C207.924 145.796 205.911 154.378 201.915 154.769C197.919 155.16 193.45 147.225 191.908 137.036C190.385 126.833 192.398 118.251 196.394 117.86Z" fill="#3C309E"/>
<path d="M196.443 118.142C200.371 117.742 204.778 125.567 206.28 135.595C207.782 145.623 205.813 154.072 201.886 154.472C197.958 154.872 193.55 147.047 192.048 137.019C190.546 126.991 192.515 118.542 196.443 118.142Z" fill="#3D309E"/>
<path d="M196.491 118.424C200.366 118.035 204.697 125.729 206.175 135.616C207.653 145.503 205.713 153.8 201.837 154.19C197.962 154.579 193.631 146.885 192.153 136.998C190.675 127.111 192.616 118.814 196.491 118.424Z" fill="#3E319F"/>
<path d="M196.52 118.722C200.343 118.343 204.597 125.907 206.054 135.618C207.51 145.33 205.596 153.51 201.773 153.889C197.95 154.267 193.696 146.704 192.239 136.992C190.783 127.28 192.697 119.101 196.52 118.722Z" fill="#3F319F"/>
<path d="M196.569 119.004C200.305 118.632 204.517 126.069 205.934 135.62C207.351 145.171 205.48 153.219 201.744 153.591C198.008 153.963 193.796 146.526 192.38 136.975C190.963 127.424 192.833 119.376 196.569 119.004Z" fill="#40319F"/>
<path d="M196.618 119.286C200.301 118.924 204.418 126.246 205.829 135.641C207.24 145.036 205.379 152.947 201.696 153.309C198.012 153.67 193.896 146.349 192.485 136.954C191.074 127.559 192.934 119.648 196.618 119.286Z" fill="#4131A0"/>
<path d="M196.647 119.584C200.262 119.213 204.318 126.423 205.707 135.643C207.078 144.878 205.262 152.656 201.647 153.027C198.032 153.397 193.976 146.187 192.587 136.967C191.197 127.747 193.032 119.954 196.647 119.584Z" fill="#4232A0"/>
<path d="M196.696 119.866C200.258 119.506 204.238 126.586 205.603 135.664C206.968 144.743 205.162 152.384 201.618 152.729C198.055 153.089 194.076 146.009 192.711 136.931C191.345 127.852 193.151 120.211 196.696 119.866Z" fill="#4332A1"/>
<path d="M196.743 120.148C200.254 119.798 204.156 126.748 205.482 135.666C206.807 144.585 205.045 152.094 201.57 152.447C198.059 152.796 194.156 145.847 192.831 136.929C191.506 128.01 193.267 120.501 196.743 120.148Z" fill="#4432A1"/>
<path d="M196.773 120.446C200.197 120.103 204.057 126.926 205.377 135.688C206.696 144.45 204.979 151.826 201.521 152.165C198.098 152.508 194.238 145.685 192.918 136.923C191.598 128.16 193.316 120.784 196.773 120.446Z" fill="#4533A2"/>
<path d="M196.837 120.746C200.207 120.414 203.991 127.107 205.271 135.708C206.551 144.31 204.877 151.554 201.507 151.886C198.136 152.219 194.352 145.526 193.072 136.924C191.793 128.323 193.466 121.079 196.837 120.746Z" fill="#4633A2"/>
<path d="M196.885 121.029C200.203 120.707 203.892 127.284 205.15 135.71C206.409 144.137 204.761 151.263 201.443 151.585C198.125 151.907 194.436 145.33 193.178 136.903C191.904 128.458 193.567 121.35 196.885 121.029Z" fill="#4733A2"/>
<path d="M196.915 121.326C200.165 120.996 203.793 127.461 205.045 135.732C206.279 144.017 204.661 150.992 201.411 151.322C198.161 151.653 194.533 145.187 193.28 136.916C192.046 128.631 193.665 121.656 196.915 121.326Z" fill="#4833A3"/>
<path d="M196.963 121.608C200.142 121.303 203.711 127.624 204.924 135.734C206.136 143.844 204.544 150.701 201.346 151.021C198.167 151.326 194.597 145.005 193.385 136.895C192.172 128.785 193.765 121.928 196.963 121.608Z" fill="#4934A3"/>
<path d="M197.011 121.89C200.122 121.577 203.631 127.786 204.82 135.755C206.008 143.724 204.444 150.429 201.317 150.723C198.206 151.037 194.697 144.828 193.509 136.859C192.321 128.89 193.885 122.185 197.011 121.89Z" fill="#4A34A4"/>
<path d="M197.04 122.188C200.099 121.885 203.531 127.963 204.698 135.757C205.865 143.551 204.326 150.139 201.268 150.442C198.21 150.744 194.778 144.666 193.611 136.872C192.444 129.079 193.982 122.491 197.04 122.188Z" fill="#4B34A4"/>
<path d="M197.089 122.47C200.095 122.178 203.451 128.126 204.594 135.778C205.736 143.431 204.226 149.867 201.221 150.159C198.215 150.452 194.859 144.504 193.716 136.851C192.574 129.199 194.084 122.762 197.089 122.47Z" fill="#4C35A4"/>
<path d="M197.137 122.752C200.074 122.451 203.37 128.288 204.472 135.78C205.594 143.257 204.11 149.576 201.191 149.862C198.253 150.163 194.958 144.326 193.855 136.834C192.734 129.357 194.218 123.038 197.137 122.752Z" fill="#4D35A5"/>
<path d="M197.167 123.05C200.034 122.774 203.252 128.48 204.352 135.782C205.449 143.118 204.012 149.27 201.127 149.561C198.26 149.836 195.042 144.13 193.942 136.828C192.845 129.492 194.283 123.34 197.167 123.05Z" fill="#4E35A5"/>
<path d="M197.215 123.332C200.013 123.048 203.171 128.643 204.247 135.803C205.322 142.964 203.911 148.999 201.094 149.298C198.278 149.597 195.139 143.987 194.063 136.826C192.987 129.665 194.399 123.631 197.215 123.332Z" fill="#4F35A6"/>
<path d="M197.264 123.614C200.01 123.34 203.091 128.805 204.126 135.805C205.162 142.806 203.795 148.708 201.049 148.981C198.304 149.255 195.223 143.79 194.187 136.79C193.151 129.789 194.518 123.887 197.264 123.614Z" fill="#5036A6"/>
<path d="M197.293 123.911C199.986 123.648 202.99 128.982 204.02 135.826C205.05 142.671 203.693 148.436 201.016 148.718C198.323 148.981 195.319 143.647 194.289 136.803C193.259 129.959 194.616 124.193 197.293 123.911Z" fill="#5236A7"/>
<path d="M197.341 124.193C199.966 123.922 202.909 129.145 203.899 135.829C204.89 142.513 203.577 148.145 200.952 148.417C198.327 148.689 195.384 143.466 194.394 136.782C193.404 130.098 194.716 124.465 197.341 124.193Z" fill="#5336A7"/>
<path d="M197.39 124.476C199.944 124.23 202.829 129.307 203.795 135.85C204.78 142.377 203.477 147.873 200.923 148.119C198.37 148.365 195.484 143.288 194.518 136.745C193.534 130.218 194.837 124.722 197.39 124.476Z" fill="#5437A7"/>
<path d="M197.42 124.773C199.921 124.538 202.711 129.499 203.674 135.852C204.637 142.204 203.36 147.583 200.875 147.837C198.373 148.073 195.583 143.111 194.62 136.759C193.676 130.391 194.934 125.028 197.42 124.773Z" fill="#5537A8"/>
<path d="M197.468 125.055C199.901 124.811 202.63 129.662 203.553 135.854C204.492 142.065 203.26 147.311 200.811 147.536C198.362 147.761 195.648 142.93 194.726 136.738C193.787 130.526 195.019 125.28 197.468 125.055Z" fill="#5637A8"/>
<path d="M197.531 125.356C199.912 125.123 202.564 129.843 203.463 135.894C204.362 141.945 203.192 147.043 200.812 147.277C198.432 147.51 195.779 142.79 194.88 136.739C193.981 130.688 195.151 125.59 197.531 125.356Z" fill="#5737A9"/>
<path d="M197.562 125.654C199.874 125.412 202.466 130.02 203.343 135.896C204.236 141.791 203.076 146.753 200.749 146.976C198.436 147.218 195.844 142.609 194.967 136.733C194.074 130.838 195.234 125.877 197.562 125.654Z" fill="#5838A9"/>
<path d="M197.609 125.936C199.85 125.719 202.384 130.182 203.237 135.917C204.09 141.651 202.975 146.481 200.715 146.712C198.474 146.929 195.94 142.466 195.087 136.731C194.234 130.997 195.349 126.167 197.609 125.936Z" fill="#5938A9"/>
<path d="M197.658 126.218C199.846 126.012 202.304 130.345 203.117 135.919C203.948 141.478 202.859 146.19 200.67 146.396C198.482 146.602 196.025 142.269 195.211 136.695C194.38 131.136 195.469 126.424 197.658 126.218Z" fill="#5A38AA"/>
<path d="M197.687 126.516C199.807 126.301 202.185 130.537 203.011 135.94C203.819 141.358 202.757 145.918 200.637 146.133C198.517 146.347 196.139 142.111 195.313 136.708C194.506 131.29 195.567 126.73 197.687 126.516Z" fill="#5B39AA"/>
<path d="M197.735 126.798C199.803 126.594 202.104 130.699 202.89 135.942C203.676 141.185 202.641 145.628 200.573 145.832C198.506 146.036 196.204 141.93 195.418 136.687C194.632 131.444 195.667 127.002 197.735 126.798Z" fill="#5C39AB"/>
<path d="M197.784 127.08C199.783 126.867 202.024 130.861 202.77 135.944C203.532 141.046 202.525 145.336 200.544 145.534C198.545 145.747 196.304 141.752 195.558 136.67C194.796 131.568 195.803 127.277 197.784 127.08Z" fill="#5D39AB"/>
<path d="M197.813 127.377C199.742 127.19 201.924 131.039 202.665 135.965C203.405 140.892 202.424 145.065 200.496 145.252C198.567 145.439 196.385 141.59 195.645 136.664C194.904 131.738 195.885 127.564 197.813 127.377Z" fill="#5E39AC"/>
<path d="M197.862 127.659C199.737 127.483 201.843 131.202 202.544 135.968C203.26 140.753 202.308 144.774 200.432 144.951C198.556 145.128 196.45 141.409 195.75 136.643C195.033 131.858 195.986 127.836 197.862 127.659Z" fill="#5F3AAC"/>
<path d="M197.91 127.941C199.718 127.756 201.763 131.363 202.439 135.988C203.134 140.598 202.226 144.487 200.418 144.672C198.611 144.858 196.581 141.27 195.889 136.625C195.195 132.016 196.103 128.127 197.91 127.941Z" fill="#603AAC"/>
<path d="M197.94 128.239C199.695 128.064 201.629 131.537 202.318 135.991C203.007 140.444 202.109 144.197 200.354 144.371C198.599 144.546 196.665 141.074 195.976 136.62C195.305 132.151 196.185 128.414 197.94 128.239Z" fill="#613AAD"/>
<path d="M197.987 128.521C199.674 128.338 201.548 131.699 202.213 136.012C202.862 140.305 202.008 143.925 200.321 144.108C198.635 144.292 196.761 140.93 196.096 136.618C195.447 132.324 196.301 128.704 197.987 128.521Z" fill="#623BAD"/>
<path d="M198.036 128.803C199.652 128.646 201.467 131.861 202.092 136.014C202.701 140.147 201.892 143.634 200.276 143.792C198.66 143.949 196.845 140.734 196.22 136.581C195.611 132.448 196.42 128.961 198.036 128.803Z" fill="#633BAE"/>
<path d="M198.066 129.101C199.629 128.953 201.368 132.039 201.971 136.016C202.575 139.993 201.775 143.343 200.228 143.51C198.665 143.657 196.926 140.572 196.323 136.595C195.719 132.618 196.519 129.267 198.066 129.101Z" fill="#643BAE"/>
<path d="M198.114 129.383C199.609 129.227 201.287 132.201 201.866 136.037C202.445 139.873 201.675 143.072 200.18 143.228C198.685 143.383 197.007 140.409 196.427 136.573C195.848 132.737 196.619 129.539 198.114 129.383Z" fill="#653BAE"/>
<path d="M198.162 129.665C199.605 129.52 201.206 132.363 201.745 136.039C202.303 139.699 201.574 142.8 200.15 142.93C198.726 143.06 197.106 140.232 196.567 136.556C196.009 132.896 196.738 129.795 198.162 129.665Z" fill="#663CAF"/>
<path d="M198.207 129.981C199.597 129.847 201.122 132.56 201.655 136.079C202.173 139.579 201.488 142.547 200.117 142.667C198.745 142.786 197.203 140.088 196.669 136.569C196.135 133.05 196.836 130.101 198.207 129.981Z" fill="#673CAF"/>
<path d="M198.256 130.264C199.559 130.135 201.023 132.737 201.535 136.081C202.047 139.425 201.391 142.242 200.069 142.385C198.748 142.528 197.302 139.911 196.79 136.567C196.278 133.223 196.934 130.407 198.256 130.264Z" fill="#683CB0"/>
<path d="M198.304 130.546C199.555 130.428 200.942 132.899 201.414 136.083C201.887 139.267 201.275 141.95 200.024 142.068C198.773 142.186 197.386 139.715 196.914 136.531C196.442 133.347 197.054 130.663 198.304 130.546Z" fill="#693DB0"/>
<path d="M198.334 130.843C199.516 130.717 200.842 133.077 201.309 136.104C201.775 139.132 201.173 141.679 199.975 141.786C198.793 141.912 197.466 139.552 197 136.525C196.534 133.497 197.135 130.95 198.334 130.843Z" fill="#6A3DB1"/>
<path d="M198.382 131.125C199.512 131.009 200.762 133.239 201.189 136.106C201.615 138.974 201.057 141.388 199.928 141.504C198.798 141.62 197.548 139.39 197.121 136.523C196.695 133.656 197.253 131.241 198.382 131.125Z" fill="#6B3DB1"/>
<path d="M198.431 131.407C199.49 131.317 200.681 133.401 201.084 136.127C201.489 138.819 200.957 141.116 199.898 141.206C198.839 141.297 197.648 139.213 197.245 136.487C196.84 133.795 197.372 131.498 198.431 131.407Z" fill="#6C3DB1"/>
<path d="M198.46 131.705C199.45 131.606 200.581 133.579 200.962 136.129C201.343 138.68 200.84 140.826 199.849 140.924C198.859 141.023 197.728 139.051 197.347 136.5C196.966 133.949 197.469 131.804 198.46 131.705Z" fill="#6D3EB2"/>
<path d="M198.508 131.987C199.446 131.899 200.482 133.756 200.857 136.151C201.216 138.526 200.739 140.554 199.801 140.642C198.863 140.73 197.827 138.873 197.452 136.479C197.093 134.103 197.57 132.075 198.508 131.987Z" fill="#6E3EB2"/>
<path d="M198.556 132.269C199.425 132.172 200.401 133.918 200.736 136.153C201.071 138.387 200.622 140.263 199.753 140.36C198.883 140.457 197.908 138.711 197.572 136.477C197.237 134.242 197.686 132.366 198.556 132.269Z" fill="#6F3EB3"/>
<path d="M198.586 132.566C199.403 132.48 200.302 134.096 200.615 136.155C200.929 138.214 200.506 139.972 199.707 140.044C198.89 140.13 197.992 138.515 197.678 136.456C197.364 134.397 197.787 132.638 198.586 132.566Z" fill="#703FB3"/>
<path d="M198.634 132.849C199.38 132.788 200.221 134.258 200.51 136.176C200.8 138.094 200.424 139.686 199.675 139.781C198.929 139.841 198.089 138.371 197.799 136.454C197.509 134.536 197.885 132.944 198.634 132.849Z" fill="#713FB3"/>
<path d="M198.682 133.131C199.36 133.061 200.14 134.42 200.389 136.178C200.658 137.921 200.307 139.395 199.611 139.479C198.933 139.549 198.154 138.19 197.904 136.432C197.636 134.69 197.986 133.215 198.682 133.131Z" fill="#723FB4"/>
<path d="M198.712 133.428C199.338 133.369 200.041 134.598 200.285 136.199C200.529 137.8 200.207 139.123 199.581 139.182C198.956 139.241 198.253 138.013 198.009 136.411C197.765 134.81 198.087 133.487 198.712 133.428Z" fill="#733FB4"/>
<path d="M198.761 133.71C199.318 133.643 199.941 134.775 200.164 136.201C200.386 137.627 200.09 138.832 199.533 138.9C198.976 138.967 198.353 137.836 198.13 136.409C197.908 134.983 198.204 133.778 198.761 133.71Z" fill="#7440B5"/>
<path d="M198.809 133.993C199.313 133.936 199.86 134.937 200.059 136.222C200.241 137.488 199.989 138.561 199.485 138.618C198.98 138.675 198.433 137.673 198.235 136.388C198.052 135.122 198.304 134.05 198.809 133.993Z" fill="#7540B5"/>
<path d="M198.838 134.29C199.272 134.259 199.76 135.115 199.937 136.224C200.114 137.334 199.888 138.289 199.455 138.32C199.021 138.352 198.533 137.496 198.356 136.386C198.179 135.277 198.405 134.322 198.838 134.29Z" fill="#7640B6"/>
<path d="M198.887 134.572C199.253 134.532 199.681 135.277 199.817 136.226C199.954 137.176 199.773 137.998 199.392 138.019C199.027 138.059 198.599 137.315 198.462 136.365C198.325 135.416 198.506 134.593 198.887 134.572Z" fill="#7741B6"/>
<path d="M198.95 134.873C199.263 134.844 199.615 135.458 199.727 136.266C199.859 137.06 199.687 137.745 199.375 137.775C199.062 137.804 198.71 137.19 198.598 136.382C198.466 135.589 198.638 134.903 198.95 134.873Z" fill="#7841B6"/>
<path d="M198.98 135.171C199.24 135.152 199.515 135.635 199.606 136.268C199.697 136.901 199.589 137.44 199.329 137.458C199.068 137.477 198.794 136.994 198.702 136.361C198.611 135.728 198.72 135.189 198.98 135.171Z" fill="#7941B7"/>
<path d="M199.029 135.453C199.221 135.425 199.416 135.813 199.502 136.289C199.587 136.766 199.489 137.168 199.297 137.195C199.105 137.223 198.909 136.836 198.824 136.359C198.738 135.882 198.837 135.48 199.029 135.453Z" fill="#7A41B7"/>
<path d="M199.076 135.736C199.076 135.736 199.334 135.976 199.38 136.292C199.425 136.608 199.371 136.877 199.232 136.894C199.111 136.896 198.974 136.655 198.928 136.338C198.883 136.022 198.937 135.753 199.076 135.736Z" fill="#7B42B8"/>
<path d="M199.106 136.033C199.106 136.033 199.235 136.152 199.274 136.312C199.314 136.472 199.27 136.604 199.217 136.615C199.165 136.626 199.089 136.496 199.049 136.336C199.009 136.176 199.054 136.044 199.106 136.033Z" fill="#7C42B8"/>
</g>
<path d="M200.297 122.541C201.382 122.592 202.278 128.914 202.308 136.649C202.338 144.384 201.495 150.608 200.409 150.558C199.324 150.507 198.428 144.185 198.398 136.45C198.368 128.715 199.211 122.491 200.297 122.541Z" fill="url(#paint5_radial_379_6914)"/>
<path d="M200.315 125.808C201.176 125.848 205.025 130.831 205.032 136.783C205.058 142.719 201.254 147.36 200.392 147.32C199.531 147.281 198.802 142.432 198.776 136.495C198.751 130.559 199.434 125.784 200.315 125.808Z" fill="url(#paint6_linear_379_6914)"/>
<path d="M114.558 105.41C130.579 106.183 144.581 119.888 144.651 135.96C144.702 152.047 130.82 164.436 114.8 163.663C98.7786 162.89 85.7427 149.237 85.6574 133.146C85.6064 117.059 98.5371 104.637 114.561 105.376L114.558 105.41Z" fill="url(#paint7_radial_379_6914)"/>
<path style="mix-blend-mode:multiply" opacity="0.5" d="M74.722 133.133C74.722 133.133 154.913 137.847 189.338 137.9C189.338 137.9 103.459 133.319 74.7203 132.455L74.722 133.133Z" fill="url(#paint8_linear_379_6914)"/>
<path d="M140.392 129.335C136.836 113.259 121.479 102.543 106.091 105.4C90.7033 108.257 81.1116 123.605 84.6677 139.681C88.2237 155.757 103.581 166.474 118.969 163.617C134.357 160.76 143.948 145.412 140.392 129.335Z" fill="url(#paint9_radial_379_6914)"/>
<path style="mix-blend-mode:screen" opacity="0.5" d="M113.081 163.271C97.1729 162.502 83.9842 148.525 83.9153 132.552C83.8922 125.454 87.0627 118.674 91.2578 113.848C86.3815 118.812 83.3764 125.682 83.4037 133.418C83.4542 149.405 96.414 162.992 112.34 163.746C121.186 164.174 129.095 160.523 134.346 154.452C129.117 159.768 121.274 163.685 113.063 163.286L113.081 163.271Z" fill="url(#paint10_linear_379_6914)"/>
<path d="M127.654 152.936C137.36 145.04 138.45 130.391 130.088 120.216C121.726 110.041 107.078 108.194 97.3723 116.09C87.6662 123.985 86.5767 138.634 94.9388 148.809C103.301 158.984 117.948 160.831 127.654 152.936Z" fill="url(#paint11_radial_379_6914)"/>
<path d="M113.766 111.879C126.214 112.461 136.356 123.079 136.395 135.594C136.453 148.094 126.396 157.758 113.933 157.156C101.486 156.574 92.9675 146.022 92.9096 133.522C92.8518 121.023 101.303 111.277 113.751 111.859L113.766 111.879Z" fill="url(#paint12_linear_379_6914)"/>
<path d="M138.709 132.794C139.504 132.826 140.163 133.516 140.173 134.314C140.184 135.112 139.531 135.74 138.736 135.709C137.942 135.678 137.282 134.988 137.272 134.189C137.262 133.391 137.914 132.763 138.709 132.794Z" fill="url(#paint13_radial_379_6914)"/>
<path d="M138.503 132.999C139.176 133.032 139.74 133.606 139.758 134.301C139.776 134.997 139.218 135.515 138.527 135.497C137.854 135.463 137.29 134.89 137.272 134.194C137.27 133.518 137.812 132.98 138.503 132.999Z" fill="url(#paint14_linear_379_6914)"/>
<path d="M87.0527 131.59C87.8473 131.622 88.5067 132.312 88.517 133.11C88.5274 133.908 87.8747 134.536 87.08 134.505C86.2854 134.474 85.626 133.784 85.6157 132.985C85.6053 132.187 86.2581 131.559 87.0527 131.59Z" fill="url(#paint15_radial_379_6914)"/>
<path d="M86.8474 131.795C87.5207 131.828 88.0847 132.402 88.1026 133.097C88.1047 133.773 87.5625 134.311 86.8709 134.293C86.1792 134.275 85.6336 133.686 85.6156 132.99C85.6136 132.314 86.1557 131.776 86.8474 131.795Z" fill="url(#paint16_linear_379_6914)"/>
<path d="M115.54 158.858C116.335 158.89 116.994 159.58 117.004 160.378C117.015 161.176 116.362 161.804 115.567 161.773C114.773 161.742 114.113 161.052 114.103 160.253C114.093 159.455 114.745 158.827 115.54 158.858Z" fill="url(#paint17_radial_379_6914)"/>
<path d="M115.335 159.063C116.008 159.096 116.572 159.67 116.59 160.365C116.592 161.041 116.05 161.579 115.358 161.561C114.666 161.543 114.121 160.954 114.103 160.258C114.101 159.582 114.643 159.045 115.335 159.063Z" fill="url(#paint18_linear_379_6914)"/>
<path d="M95.5927 113.401C96.3874 113.432 97.0467 114.122 97.0571 114.921C97.0674 115.719 96.4147 116.347 95.6201 116.315C94.8254 116.284 94.1661 115.594 94.1557 114.796C94.1454 113.997 94.7981 113.37 95.5927 113.401Z" fill="url(#paint19_radial_379_6914)"/>
<path d="M95.3878 113.606C96.061 113.639 96.625 114.213 96.6429 114.908C96.645 115.584 96.1028 116.122 95.4112 116.104C94.7195 116.085 94.174 115.496 94.156 114.801C94.1381 114.106 94.6961 113.587 95.3878 113.606Z" fill="url(#paint20_linear_379_6914)"/>
<path d="M94.7412 152.04C95.5358 152.071 96.1952 152.761 96.2055 153.56C96.2159 154.358 95.5631 154.986 94.7685 154.954C93.9739 154.923 93.3145 154.233 93.3042 153.435C93.2938 152.636 93.9465 152.009 94.7412 152.04Z" fill="url(#paint21_radial_379_6914)"/>
<path d="M94.5361 152.244C95.2093 152.278 95.7733 152.852 95.7912 153.547C95.8092 154.242 95.2512 154.761 94.5595 154.742C93.8679 154.724 93.3224 154.135 93.3044 153.44C93.2865 152.745 93.8445 152.226 94.5361 152.244Z" fill="url(#paint22_linear_379_6914)"/>
<path d="M129.916 114.192C130.711 114.223 131.37 114.913 131.38 115.712C131.391 116.51 130.738 117.138 129.943 117.106C129.149 117.075 128.489 116.385 128.479 115.587C128.469 114.788 129.121 114.161 129.916 114.192Z" fill="url(#paint23_radial_379_6914)"/>
<path d="M129.711 114.396C130.384 114.43 130.948 115.004 130.966 115.699C130.984 116.394 130.426 116.913 129.734 116.894C129.043 116.876 128.497 116.287 128.479 115.592C128.461 114.897 129.019 114.378 129.711 114.396Z" fill="url(#paint24_linear_379_6914)"/>
<path d="M129.064 152.831C129.859 152.862 130.518 153.552 130.529 154.351C130.539 155.149 129.886 155.777 129.092 155.745C128.297 155.714 127.638 155.024 127.627 154.226C127.617 153.427 128.27 152.8 129.064 152.831Z" fill="url(#paint25_radial_379_6914)"/>
<path d="M128.859 153.035C129.532 153.069 130.096 153.643 130.114 154.338C130.132 155.033 129.574 155.552 128.882 155.533C128.209 155.5 127.645 154.926 127.627 154.231C127.625 153.555 128.167 153.017 128.859 153.035Z" fill="url(#paint26_linear_379_6914)"/>
<path d="M115.712 107.317C116.507 107.348 117.166 108.038 117.176 108.836C117.187 109.635 116.534 110.263 115.739 110.231C114.945 110.2 114.285 109.51 114.275 108.712C114.265 107.913 114.917 107.286 115.712 107.317Z" fill="url(#paint27_radial_379_6914)"/>
<path d="M115.491 107.502C116.164 107.536 116.728 108.11 116.746 108.805C116.748 109.481 116.206 110.019 115.514 110C114.841 109.967 114.277 109.393 114.259 108.698C114.241 108.003 114.799 107.484 115.491 107.502Z" fill="url(#paint28_linear_379_6914)"/>
<path d="M167.711 131.676C170.283 131.811 172.391 134.001 172.39 136.583C172.39 139.165 170.319 141.172 167.748 141.037C165.176 140.902 163.068 138.712 163.068 136.13C163.069 133.549 165.14 131.541 167.711 131.676Z" fill="url(#paint29_radial_379_6914)"/>
<path d="M167.002 131.656C169.574 131.791 171.682 133.981 171.681 136.563C171.681 139.144 169.61 141.152 167.039 141.017C164.467 140.882 162.359 138.692 162.359 136.11C162.36 133.528 164.431 131.521 167.002 131.656Z" fill="url(#paint30_radial_379_6914)"/>
<path d="M166.835 132.28C169.079 132.391 170.896 134.302 170.902 136.555C170.909 138.808 169.101 140.537 166.857 140.426C164.613 140.316 162.796 138.405 162.789 136.151C162.783 133.898 164.591 132.169 166.835 132.28Z" fill="url(#paint31_linear_379_6914)"/>
<path style="mix-blend-mode:multiply" opacity="0.2" d="M193.032 106.106L193.295 169.467C193.295 169.467 141.162 195.222 94.8531 185.099C97.5193 185.609 132.449 191.887 157.353 175.404C183.262 158.233 180.843 117.57 161.242 101.438C142.703 86.184 114.153 81.3001 100.25 80.6041C144.966 77.8884 193.032 106.106 193.032 106.106Z" fill="url(#paint32_linear_379_6914)"/>
<path style="mix-blend-mode:multiply" opacity="0.5" d="M139.397 184.931L137.979 183.016C137.979 183.016 174.624 171.087 190.866 165.052L191.098 165.941C191.098 165.941 166.872 183.171 139.397 184.931Z" fill="url(#paint33_linear_379_6914)"/>
<path d="M190.662 165.474C190.662 165.474 212.067 175.582 230.125 176.433L231.912 181.876C231.912 181.876 183.359 211.525 139.382 184.328L137.975 182.429C137.975 182.429 143.572 181.308 151.331 179.4L151.35 179.385C163.539 176.366 181.024 171.371 190.644 165.489L190.662 165.474Z" fill="url(#paint34_radial_379_6914)"/>
<path style="mix-blend-mode:multiply" opacity="0.2" d="M190.662 165.474C190.662 165.474 212.067 175.582 230.125 176.433L231.912 181.876C231.912 181.876 183.359 211.525 139.382 184.328L137.975 182.429C138.307 182.644 153.825 193.331 184.969 191.277C216.551 189.19 199.863 171.782 193.81 169.454C187.757 167.125 175.245 176.816 151.366 179.404C163.555 176.385 181.04 171.391 190.66 165.509L190.662 165.474Z" fill="url(#paint35_linear_379_6914)"/>
<path d="M231.877 181.865L231.799 180.343C231.799 180.343 182.909 206.934 137.978 182.403L139.385 184.302C139.385 184.302 177.344 212.787 231.911 181.87L231.877 181.865Z" fill="url(#paint36_radial_379_6914)"/>
<path style="mix-blend-mode:multiply" opacity="0.5" d="M141.476 84.4188L140.108 86.1736C140.108 86.1736 176.152 101.292 192.135 108.748L192.353 107.898C192.353 107.898 168.456 88.7203 141.492 84.438L141.476 84.4188Z" fill="url(#paint37_linear_379_6914)"/>
<path d="M192.748 107.451C192.748 107.451 214 99.3883 231.987 100.271L233.729 95.0152C233.729 95.0152 185.089 60.8785 141.49 83.8308L140.111 85.5976C140.111 85.5976 145.69 87.2197 153.463 89.8636C153.463 89.8636 153.463 89.8636 153.479 89.8829C165.643 94.0511 183.117 100.674 192.748 107.451Z" fill="url(#paint38_radial_379_6914)"/>
<path style="mix-blend-mode:multiply" opacity="0.2" d="M192.748 107.451C192.748 107.451 214 99.3883 231.987 100.271L233.729 95.0152C233.729 95.0152 185.089 60.8785 141.49 83.8308L140.111 85.5976C140.438 85.3962 153.663 77.8634 184.735 82.8745C216.22 87.9376 201.879 102.087 195.86 103.823C189.84 105.559 177.287 94.74 153.479 89.8829C165.643 94.0511 183.117 100.674 192.748 107.451Z" fill="url(#paint39_linear_379_6914)"/>
<path d="M233.763 95.0323L233.685 96.5478C233.685 96.5478 184.734 65.4135 140.092 85.6266L141.472 83.8593C141.472 83.8593 179.09 59.0336 233.728 95.028L233.763 95.0323Z" fill="url(#paint40_radial_379_6914)"/>
<path style="mix-blend-mode:multiply" opacity="0.5" d="M42.527 153.495C42.527 153.495 37.3055 129.671 44.2974 109.673C44.2974 109.673 33.1999 131.109 42.527 153.495Z" fill="url(#paint41_linear_379_6914)"/>
<path d="M42.527 153.495C42.527 153.495 35.3103 130.198 44.2974 109.673C44.2974 109.673 33.45 123.557 31.6205 132.33C31.6205 132.33 35.6892 143.491 42.527 153.495Z" fill="url(#paint42_radial_379_6914)"/>
<path style="mix-blend-mode:screen" d="M109.692 155.102C113.441 154.952 104.998 136.788 105.599 127.311C106.182 117.849 111.607 115.626 110.293 113.989C108.96 112.367 94.5729 118.305 94.6148 132.865C94.6566 147.425 107.594 155.166 109.711 155.087L109.692 155.102Z" fill="url(#paint43_linear_379_6914)"/>
<path style="mix-blend-mode:multiply" opacity="0.2" d="M78.449 182.092C78.449 182.092 54.9594 125.964 78.0741 85.2963C78.0741 85.2963 60.0072 133.415 78.449 182.092Z" fill="url(#paint44_linear_379_6914)"/>
<path style="mix-blend-mode:screen" d="M81.6473 182.193C81.6473 182.193 70.3923 133.592 81.2565 85.3778C81.2565 85.3778 66.3833 133.795 81.6473 182.193Z" fill="url(#paint45_linear_379_6914)"/>
<path style="mix-blend-mode:screen" d="M121.565 161.496C121.089 165.335 117.605 167.91 113.739 167.249C109.891 166.573 107.147 162.935 107.607 159.077C108.083 155.238 111.566 152.663 115.433 153.324C119.281 154 122.025 157.638 121.565 161.496Z" fill="url(#paint46_radial_379_6914)"/>
<path style="mix-blend-mode:screen" d="M91.7842 133.908C91.4611 136.622 88.9869 138.441 86.2508 137.958C83.5147 137.474 81.5917 134.909 81.9333 132.18C82.2565 129.466 84.7307 127.646 87.4668 128.13C90.187 128.595 92.1258 131.178 91.7842 133.908Z" fill="url(#paint47_radial_379_6914)"/>
<path style="mix-blend-mode:screen" d="M134.857 116.496C134.534 119.21 132.06 121.029 129.324 120.546C126.604 120.081 124.665 117.498 125.007 114.768C125.33 112.054 127.804 110.235 130.54 110.718C133.26 111.183 135.199 113.767 134.857 116.496Z" fill="url(#paint48_radial_379_6914)"/>
<path style="mix-blend-mode:screen" opacity="0.5" d="M74.0725 177.37C74.0725 177.37 53.2843 167.933 44.0286 150.534C44.0286 150.534 42.1843 143.319 43.9872 140.253C43.9872 140.253 57.8209 151.111 69.3058 154.397L74.0725 177.37Z" fill="url(#paint49_linear_379_6914)"/>
<path style="mix-blend-mode:multiply" opacity="0.5" d="M138.09 183.002C138.09 183.002 172.185 161.594 188.714 136.286C188.714 136.286 188.585 157.135 191.248 165.912C191.248 165.912 166.828 177.028 138.09 183.002Z" fill="url(#paint50_linear_379_6914)"/>
<path d="M45.1565 153.012C42.7535 153.289 53.1376 163.347 54.2749 162.927C55.4122 162.507 48.3139 152.661 45.1565 153.012Z" fill="white"/>
<path d="M54.8297 163.658C54.268 164.276 57.334 165.816 57.5683 165.209C57.8025 164.601 55.279 163.164 54.8297 163.658Z" fill="white"/>
<path d="M77.0016 160.973C75.2938 160.758 76.687 167.523 77.968 167.219C79.2831 166.919 78.4019 161.15 77.0016 160.973Z" fill="white"/>
<path d="M85.8634 145.583C85.0104 145.767 86.7511 148.852 87.3088 148.494C87.8664 148.135 86.5416 145.445 85.8634 145.583Z" fill="white"/>
<path style="mix-blend-mode:screen" opacity="0.5" d="M86.031 88.8794C86.031 88.8794 111.837 84.7567 135.779 88.6443C135.779 88.6443 129.077 84.2406 113.54 82.6282C102.275 81.4505 83.8011 84.5536 83.809 85.6135C83.817 86.6734 86.031 88.8794 86.031 88.8794Z" fill="url(#paint51_linear_379_6914)"/>
<path style="mix-blend-mode:screen" opacity="0.5" d="M181.057 138.344C180.082 146.33 172.786 151.717 164.765 150.307C156.76 148.916 151.021 141.295 152.014 133.294C152.989 125.308 160.286 119.921 168.306 121.331C176.327 122.741 182.051 130.342 181.057 138.344Z" fill="url(#paint52_radial_379_6914)"/>
<g style="mix-blend-mode:screen" opacity="0.85" filter="url(#filter1_f_379_6914)">
<path d="M195.92 142.857C195.92 142.857 224.816 139.982 250.412 148.051C325.857 171.865 314.554 182.961 358.115 202.587C358.115 202.587 288.185 138.643 197.744 127.857C197.744 127.857 194.129 133.665 195.929 142.871L195.92 142.857Z" fill="url(#paint53_linear_379_6914)"/>
</g>
<path d="M72.8372 93.5777C73.4055 93.8573 73.6685 94.5142 73.4191 95.0719C73.1697 95.6296 72.5288 95.8607 71.9605 95.581C71.3923 95.3014 71.1293 94.6445 71.3787 94.0868C71.628 93.5291 72.2689 93.298 72.8372 93.5777Z" fill="url(#paint54_linear_379_6914)"/>
<path d="M70.8851 172.634C71.4533 172.914 71.7163 173.571 71.4669 174.128C71.2176 174.686 70.5767 174.917 70.0084 174.637C69.4401 174.358 69.1771 173.701 69.4265 173.143C69.6759 172.585 70.3168 172.354 70.8851 172.634Z" fill="url(#paint55_linear_379_6914)"/>
<path d="M82.3802 173.337C82.9485 173.616 83.2114 174.273 82.9621 174.831C82.7127 175.389 82.0718 175.62 81.5035 175.34C80.9352 175.061 80.6722 174.404 80.9216 173.846C81.171 173.288 81.8119 173.057 82.3802 173.337Z" fill="url(#paint56_linear_379_6914)"/>
<path d="M83.4485 93.2366C84.0168 93.5162 84.2798 94.1732 84.0304 94.7309C83.781 95.2885 83.1401 95.5196 82.5719 95.24C82.0036 94.9604 81.7406 94.3034 81.99 93.7457C82.2394 93.188 82.8803 92.957 83.4485 93.2366Z" fill="url(#paint57_linear_379_6914)"/>
<path d="M152.246 131.6C152.815 131.879 153.078 132.536 152.828 133.094C152.579 133.652 151.938 133.883 151.37 133.603C150.801 133.324 150.538 132.667 150.788 132.109C151.037 131.551 151.678 131.32 152.246 131.6Z" fill="url(#paint58_linear_379_6914)"/>
<path style="mix-blend-mode:screen" opacity="0.5" d="M83.1862 178.438C83.1862 178.438 108.889 191.769 151.653 176.603L149.443 165.299C149.443 165.299 107.853 170.506 78.1841 158.53C78.1841 158.53 78.7682 170.253 83.2047 178.423L83.1862 178.438Z" fill="url(#paint59_linear_379_6914)"/>
<path d="M49.1323 104.928C49.1323 104.928 47.626 94.923 59.8554 95.4462L49.1323 104.928Z" fill="url(#paint60_linear_379_6914)"/>
<path d="M54.2804 167.921C54.2804 167.921 44.2077 167.605 44.8635 157.614C44.8635 157.614 52.0901 165.951 54.2804 167.921Z" fill="url(#paint61_linear_379_6914)"/>
<g style="mix-blend-mode:screen" opacity="0.85" filter="url(#filter2_f_379_6914)">
<path d="M63.8517 103.632C63.3504 107.716 59.6166 110.473 55.5145 109.754C51.4204 109.046 48.487 105.151 48.9978 101.059C49.4991 96.9744 53.2329 94.2173 57.335 94.9359C61.4372 95.6546 64.3625 99.5397 63.8517 103.632Z" fill="#EFE83E"/>
</g>
<g style="mix-blend-mode:screen" opacity="0.85" filter="url(#filter3_f_379_6914)">
<path d="M62.2406 162.565C61.639 167.466 57.1585 170.775 52.2359 169.913C47.3231 169.062 43.803 164.388 44.4159 159.478C45.0289 154.567 49.498 151.268 54.4206 152.13C59.3335 152.981 62.8535 157.655 62.2406 162.565Z" fill="#EFE83E"/>
</g>
<path d="M104.101 152.158C104.649 152.604 107.995 154.723 108.771 153.931C109.143 153.532 108.238 153.058 106.365 150.886C104.493 148.713 102.859 147.016 102.139 147.731C101.42 148.445 102.846 151.109 104.101 152.158Z" fill="white"/>
<defs>
<filter id="filter0_f_379_6914" x="193.562" y="125.606" width="42.0146" height="21.1107" filterUnits="userSpaceOnUse" color-interpolation-filters="sRGB">
<feFlood flood-opacity="0" result="BackgroundImageFix"/>
<feBlend mode="normal" in="SourceGraphic" in2="BackgroundImageFix" result="shape"/>
<feGaussianBlur stdDeviation="2.5" result="effect1_foregroundBlur_379_6914"/>
</filter>
<filter id="filter1_f_379_6914" x="175.427" y="107.857" width="202.688" height="114.73" filterUnits="userSpaceOnUse" color-interpolation-filters="sRGB">
<feFlood flood-opacity="0" result="BackgroundImageFix"/>
<feBlend mode="normal" in="SourceGraphic" in2="BackgroundImageFix" result="shape"/>
<feGaussianBlur stdDeviation="10" result="effect1_foregroundBlur_379_6914"/>
</filter>
<filter id="filter2_f_379_6914" x="38.9404" y="84.822" width="34.9688" height="35.0463" filterUnits="userSpaceOnUse" color-interpolation-filters="sRGB">
<feFlood flood-opacity="0" result="BackgroundImageFix"/>
<feBlend mode="normal" in="SourceGraphic" in2="BackgroundImageFix" result="shape"/>
<feGaussianBlur stdDeviation="5" result="effect1_foregroundBlur_379_6914"/>
</filter>
<filter id="filter3_f_379_6914" x="34.3467" y="141.993" width="37.9629" height="38.0559" filterUnits="userSpaceOnUse" color-interpolation-filters="sRGB">
<feFlood flood-opacity="0" result="BackgroundImageFix"/>
<feBlend mode="normal" in="SourceGraphic" in2="BackgroundImageFix" result="shape"/>
<feGaussianBlur stdDeviation="5" result="effect1_foregroundBlur_379_6914"/>
</filter>
<radialGradient id="paint0_radial_379_6914" cx="0" cy="0" r="1" gradientUnits="userSpaceOnUse" gradientTransform="translate(196.899 135.781) rotate(-90.2251) scale(25.6524 25.5434)">
<stop stop-color="#BFBBE2"/>
<stop offset="1" stop-color="#7D75DA"/>
</radialGradient>
<radialGradient id="paint1_radial_379_6914" cx="0" cy="0" r="1" gradientUnits="userSpaceOnUse" gradientTransform="translate(76.3119 134.655) rotate(-90.2249) scale(31.8853 31.7409)">
<stop stop-color="#7C42B8"/>
<stop offset="1" stop-color="#272A95"/>
</radialGradient>
<radialGradient id="paint2_radial_379_6914" cx="0" cy="0" r="1" gradientUnits="userSpaceOnUse" gradientTransform="translate(65.8067 164.492) rotate(-66.6749) scale(83.5173 86.4343)">
<stop stop-color="#BFBBE2"/>
<stop offset="1" stop-color="#7D75DA"/>
</radialGradient>
<radialGradient id="paint3_radial_379_6914" cx="0" cy="0" r="1" gradientUnits="userSpaceOnUse" gradientTransform="translate(65.983 163.198) rotate(-66.6728) scale(116.933 121.026)">
<stop stop-color="#BFBBE2"/>
<stop offset="0.69" stop-color="#7D75DA"/>
<stop offset="0.76" stop-color="#757BDA"/>
<stop offset="0.88" stop-color="#608CDA"/>
<stop offset="0.97" stop-color="#4B9FDA"/>
</radialGradient>
<linearGradient id="paint4_linear_379_6914" x1="271.104" y1="141.225" x2="156.509" y2="141.675" gradientUnits="userSpaceOnUse">
<stop/>
<stop offset="0.3" stop-color="#362C40"/>
<stop offset="0.63" stop-color="#6F5A83"/>
<stop offset="0.88" stop-color="#9377AD"/>
<stop offset="1" stop-color="#A183BE"/>
</linearGradient>
<radialGradient id="paint5_radial_379_6914" cx="0" cy="0" r="1" gradientUnits="userSpaceOnUse" gradientTransform="translate(200.369 135.666) rotate(-90.2249) scale(10.0603 9.44802)">
<stop stop-color="#5822B6"/>
<stop offset="0.63" stop-color="#593290"/>
<stop offset="0.98" stop-color="#31199A"/>
</radialGradient>
<linearGradient id="paint6_linear_379_6914" x1="201.966" y1="147.366" x2="202.985" y2="125.921" gradientUnits="userSpaceOnUse">
<stop stop-color="#00FEF4"/>
<stop offset="1" stop-color="#30A7FB"/>
</linearGradient>
<radialGradient id="paint7_radial_379_6914" cx="0" cy="0" r="1" gradientUnits="userSpaceOnUse" gradientTransform="translate(139.75 134.155) rotate(-90.225) scale(29.3806 29.253)">
<stop stop-color="#7C42B8"/>
<stop offset="1" stop-color="#272A95"/>
</radialGradient>
<linearGradient id="paint8_linear_379_6914" x1="189.382" y1="140.314" x2="74.7871" y2="140.784" gradientUnits="userSpaceOnUse">
<stop stop-color="#2128A9"/>
<stop offset="1" stop-color="#E5DCF4"/>
</linearGradient>
<radialGradient id="paint9_radial_379_6914" cx="0" cy="0" r="1" gradientUnits="userSpaceOnUse" gradientTransform="translate(96.359 133.286) rotate(-90.2249) scale(38.6244 37.3933)">
<stop stop-color="#A26D9F"/>
<stop offset="1" stop-color="#645AD3"/>
</radialGradient>
<linearGradient id="paint10_linear_379_6914" x1="108.976" y1="163.557" x2="111.295" y2="114.778" gradientUnits="userSpaceOnUse">
<stop stop-color="#A183BE"/>
<stop offset="0.12" stop-color="#9377AD"/>
<stop offset="0.37" stop-color="#6F5A83"/>
<stop offset="0.7" stop-color="#362C40"/>
<stop offset="1"/>
</linearGradient>
<radialGradient id="paint11_radial_379_6914" cx="0" cy="0" r="1" gradientUnits="userSpaceOnUse" gradientTransform="translate(96.7593 132.685) rotate(-90.225) scale(23.2936 23.1925)">
<stop stop-color="#368BB8"/>
<stop offset="1" stop-color="#272A95"/>
</radialGradient>
<linearGradient id="paint12_linear_379_6914" x1="136.419" y1="135.602" x2="92.9583" y2="135.773" gradientUnits="userSpaceOnUse">
<stop stop-color="#00FEF4"/>
<stop offset="1" stop-color="#30A7FB"/>
</linearGradient>
<radialGradient id="paint13_radial_379_6914" cx="0" cy="0" r="1" gradientUnits="userSpaceOnUse" gradientTransform="translate(138.726 134.241) rotate(-90.2552) scale(1.44216 1.43574)">
<stop stop-color="#7C42B8"/>
<stop offset="1" stop-color="#272A95"/>
</radialGradient>
<linearGradient id="paint14_linear_379_6914" x1="139.748" y1="134.295" x2="137.29" y2="134.306" gradientUnits="userSpaceOnUse">
<stop stop-color="#00FEF4"/>
<stop offset="1" stop-color="#30A7FB"/>
</linearGradient>
<radialGradient id="paint15_radial_379_6914" cx="0" cy="0" r="1" gradientUnits="userSpaceOnUse" gradientTransform="translate(87.0674 133.036) rotate(-90.2552) scale(1.44216 1.43574)">
<stop stop-color="#7C42B8"/>
<stop offset="1" stop-color="#272A95"/>
</radialGradient>
<linearGradient id="paint16_linear_379_6914" x1="88.1141" y1="133.092" x2="85.6319" y2="133.103" gradientUnits="userSpaceOnUse">
<stop stop-color="#00FEF4"/>
<stop offset="1" stop-color="#30A7FB"/>
</linearGradient>
<radialGradient id="paint17_radial_379_6914" cx="0" cy="0" r="1" gradientUnits="userSpaceOnUse" gradientTransform="translate(115.555 160.282) rotate(-90.2551) scale(1.44216 1.43574)">
<stop stop-color="#7C42B8"/>
<stop offset="1" stop-color="#272A95"/>
</radialGradient>
<linearGradient id="paint18_linear_379_6914" x1="116.577" y1="160.336" x2="114.119" y2="160.347" gradientUnits="userSpaceOnUse">
<stop stop-color="#00FEF4"/>
<stop offset="1" stop-color="#30A7FB"/>
</linearGradient>
<radialGradient id="paint19_radial_379_6914" cx="0" cy="0" r="1" gradientUnits="userSpaceOnUse" gradientTransform="translate(95.6193 114.856) rotate(-90.2552) scale(1.44216 1.43574)">
<stop stop-color="#7C42B8"/>
<stop offset="1" stop-color="#272A95"/>
</radialGradient>
<linearGradient id="paint20_linear_379_6914" x1="96.6419" y1="114.91" x2="94.1598" y2="114.922" gradientUnits="userSpaceOnUse">
<stop stop-color="#00FEF4"/>
<stop offset="1" stop-color="#30A7FB"/>
</linearGradient>
<radialGradient id="paint21_radial_379_6914" cx="0" cy="0" r="1" gradientUnits="userSpaceOnUse" gradientTransform="translate(94.7669 153.475) rotate(-90.2552) scale(1.44216 1.43574)">
<stop stop-color="#7C42B8"/>
<stop offset="1" stop-color="#272A95"/>
</radialGradient>
<linearGradient id="paint22_linear_379_6914" x1="95.7894" y1="153.53" x2="93.3317" y2="153.54" gradientUnits="userSpaceOnUse">
<stop stop-color="#00FEF4"/>
<stop offset="1" stop-color="#30A7FB"/>
</linearGradient>
<radialGradient id="paint23_radial_379_6914" cx="0" cy="0" r="1" gradientUnits="userSpaceOnUse" gradientTransform="translate(129.937 115.632) rotate(-90.2552) scale(1.44216 1.43574)">
<stop stop-color="#7C42B8"/>
<stop offset="1" stop-color="#272A95"/>
</radialGradient>
<linearGradient id="paint24_linear_379_6914" x1="130.984" y1="115.687" x2="128.502" y2="115.698" gradientUnits="userSpaceOnUse">
<stop stop-color="#00FEF4"/>
<stop offset="1" stop-color="#30A7FB"/>
</linearGradient>
<radialGradient id="paint25_radial_379_6914" cx="0" cy="0" r="1" gradientUnits="userSpaceOnUse" gradientTransform="translate(129.085 154.276) rotate(-90.2552) scale(1.44216 1.43574)">
<stop stop-color="#7C42B8"/>
<stop offset="1" stop-color="#272A95"/>
</radialGradient>
<linearGradient id="paint26_linear_379_6914" x1="130.131" y1="154.331" x2="127.649" y2="154.342" gradientUnits="userSpaceOnUse">
<stop stop-color="#00FEF4"/>
<stop offset="1" stop-color="#30A7FB"/>
</linearGradient>
<radialGradient id="paint27_radial_379_6914" cx="0" cy="0" r="1" gradientUnits="userSpaceOnUse" gradientTransform="translate(115.739 108.759) rotate(-90.2552) scale(1.44216 1.43574)">
<stop stop-color="#7C42B8"/>
<stop offset="1" stop-color="#272A95"/>
</radialGradient>
<linearGradient id="paint28_linear_379_6914" x1="116.762" y1="108.814" x2="114.28" y2="108.825" gradientUnits="userSpaceOnUse">
<stop stop-color="#00FEF4"/>
<stop offset="1" stop-color="#30A7FB"/>
</linearGradient>
<radialGradient id="paint29_radial_379_6914" cx="0" cy="0" r="1" gradientUnits="userSpaceOnUse" gradientTransform="translate(167.744 136.358) rotate(-90.2552) scale(4.66869 4.6479)">
<stop stop-color="#888EE7"/>
<stop offset="1" stop-color="#B8ADEE"/>
</radialGradient>
<radialGradient id="paint30_radial_379_6914" cx="0" cy="0" r="1" gradientUnits="userSpaceOnUse" gradientTransform="translate(170.98 136.458) rotate(-90.2552) scale(4.66869 4.6479)">
<stop stop-color="#D67F86"/>
<stop offset="1" stop-color="#272A95"/>
</radialGradient>
<linearGradient id="paint31_linear_379_6914" x1="170.931" y1="136.533" x2="162.828" y2="136.569" gradientUnits="userSpaceOnUse">
<stop stop-color="#FFFF56"/>
<stop offset="1" stop-color="#FFA500"/>
</linearGradient>
<linearGradient id="paint32_linear_379_6914" x1="193.19" y1="137.799" x2="94.6769" y2="138.185" gradientUnits="userSpaceOnUse">
<stop stop-color="#5D62C0"/>
<stop offset="1" stop-color="#E5DCF4"/>
</linearGradient>
<linearGradient id="paint33_linear_379_6914" x1="164.584" y1="186.131" x2="165.642" y2="163.851" gradientUnits="userSpaceOnUse">
<stop stop-color="#2128A9"/>
<stop offset="1" stop-color="#E5DCF4"/>
</linearGradient>
<radialGradient id="paint34_radial_379_6914" cx="0" cy="0" r="1" gradientUnits="userSpaceOnUse" gradientTransform="translate(132.976 177.322) rotate(-90.2252) scale(75.2366 74.923)">
<stop stop-color="#D0CDEA"/>
<stop offset="1" stop-color="#7D75DA"/>
</radialGradient>
<linearGradient id="paint35_linear_379_6914" x1="185.01" y1="196.078" x2="186.473" y2="165.269" gradientUnits="userSpaceOnUse">
<stop stop-color="#2128A9"/>
<stop offset="1" stop-color="#E5DCF4"/>
</linearGradient>
<radialGradient id="paint36_radial_379_6914" cx="0" cy="0" r="1" gradientUnits="userSpaceOnUse" gradientTransform="translate(133.005 184.346) rotate(-90.2252) scale(74.7064 74.3947)">
<stop stop-color="#FAFAFD"/>
<stop offset="1" stop-color="#C3BFEE"/>
</radialGradient>
<linearGradient id="paint37_linear_379_6914" x1="166.097" y1="85.545" x2="165.057" y2="107.413" gradientUnits="userSpaceOnUse">
<stop stop-color="#2128A9"/>
<stop offset="1" stop-color="#E5DCF4"/>
</linearGradient>
<radialGradient id="paint38_radial_379_6914" cx="0" cy="0" r="1" gradientUnits="userSpaceOnUse" gradientTransform="translate(135.075 90.1284) rotate(89.775) scale(74.9646 74.639)">
<stop stop-color="#A7FAFD"/>
<stop offset="1" stop-color="#C3BFEE"/>
</radialGradient>
<linearGradient id="paint39_linear_379_6914" x1="186.785" y1="76.3336" x2="185.325" y2="107.056" gradientUnits="userSpaceOnUse">
<stop stop-color="#2128A9"/>
<stop offset="1" stop-color="#E5DCF4"/>
</linearGradient>
<radialGradient id="paint40_radial_379_6914" cx="0" cy="0" r="1" gradientUnits="userSpaceOnUse" gradientTransform="translate(135.046 83.1512) rotate(89.775) scale(74.476 74.1543)">
<stop stop-color="#D0CDEA"/>
<stop offset="1" stop-color="#7D75DA"/>
</radialGradient>
<linearGradient id="paint41_linear_379_6914" x1="41.6803" y1="153.448" x2="43.7611" y2="109.644" gradientUnits="userSpaceOnUse">
<stop stop-color="#2128A9"/>
<stop offset="1" stop-color="#E5DCF4"/>
</linearGradient>
<radialGradient id="paint42_radial_379_6914" cx="0" cy="0" r="1" gradientUnits="userSpaceOnUse" gradientTransform="translate(38.0191 131.323) rotate(-90.2249) scale(16.1677 16.0963)">
<stop stop-color="#FAFAFD"/>
<stop offset="1" stop-color="#C3BFEE"/>
</radialGradient>
<linearGradient id="paint43_linear_379_6914" x1="102.682" y1="154.773" x2="104.643" y2="113.495" gradientUnits="userSpaceOnUse">
<stop stop-color="#A183BE"/>
<stop offset="0.12" stop-color="#9377AD"/>
<stop offset="0.37" stop-color="#6F5A83"/>
<stop offset="0.7" stop-color="#362C40"/>
<stop offset="1"/>
</linearGradient>
<linearGradient id="paint44_linear_379_6914" x1="73.2838" y1="181.866" x2="77.8718" y2="85.2979" gradientUnits="userSpaceOnUse">
<stop stop-color="#E5DCF4"/>
<stop offset="1" stop-color="#2128A9"/>
</linearGradient>
<linearGradient id="paint45_linear_379_6914" x1="78.5716" y1="251.093" x2="83.1607" y2="154.5" gradientUnits="userSpaceOnUse">
<stop/>
<stop offset="0.3" stop-color="#362C40"/>
<stop offset="0.63" stop-color="#6F5A83"/>
<stop offset="0.88" stop-color="#9377AD"/>
<stop offset="1" stop-color="#A183BE"/>
</linearGradient>
<radialGradient id="paint46_radial_379_6914" cx="0" cy="0" r="1" gradientUnits="userSpaceOnUse" gradientTransform="translate(113.101 157.244) rotate(9.84599) scale(7.07332 6.99562)">
<stop stop-color="#006BFF"/>
<stop offset="0.06" stop-color="#0063EC"/>
<stop offset="0.33" stop-color="#004099"/>
<stop offset="0.56" stop-color="#002457"/>
<stop offset="0.76" stop-color="#001028"/>
<stop offset="0.91" stop-color="#00040A"/>
<stop offset="1"/>
</radialGradient>
<radialGradient id="paint47_radial_379_6914" cx="0" cy="0" r="1" gradientUnits="userSpaceOnUse" gradientTransform="translate(85.3324 129.946) rotate(9.84597) scale(5.02308 4.9679)">
<stop stop-color="#006BFF"/>
<stop offset="0.06" stop-color="#0063EC"/>
<stop offset="0.33" stop-color="#004099"/>
<stop offset="0.56" stop-color="#002457"/>
<stop offset="0.76" stop-color="#001028"/>
<stop offset="0.91" stop-color="#00040A"/>
<stop offset="1"/>
</radialGradient>
<radialGradient id="paint48_radial_379_6914" cx="0" cy="0" r="1" gradientUnits="userSpaceOnUse" gradientTransform="translate(128.486 112.523) rotate(9.84598) scale(5.02308 4.9679)">
<stop stop-color="#006BFF"/>
<stop offset="0.06" stop-color="#0063EC"/>
<stop offset="0.33" stop-color="#004099"/>
<stop offset="0.56" stop-color="#002457"/>
<stop offset="0.76" stop-color="#001028"/>
<stop offset="0.91" stop-color="#00040A"/>
<stop offset="1"/>
</radialGradient>
<linearGradient id="paint49_linear_379_6914" x1="58.7055" y1="176.614" x2="60.3988" y2="141.032" gradientUnits="userSpaceOnUse">
<stop/>
<stop offset="0.3" stop-color="#362C40"/>
<stop offset="0.63" stop-color="#6F5A83"/>
<stop offset="0.88" stop-color="#9377AD"/>
<stop offset="1" stop-color="#A183BE"/>
</linearGradient>
<linearGradient id="paint50_linear_379_6914" x1="191.226" y1="160.971" x2="138.005" y2="161.181" gradientUnits="userSpaceOnUse">
<stop stop-color="#E5DCF4"/>
<stop offset="1" stop-color="#2128A9"/>
</linearGradient>
<linearGradient id="paint51_linear_379_6914" x1="135.789" y1="87.4246" x2="83.8314" y2="87.6287" gradientUnits="userSpaceOnUse">
<stop/>
<stop offset="0.3" stop-color="#362C40"/>
<stop offset="0.63" stop-color="#6F5A83"/>
<stop offset="0.88" stop-color="#9377AD"/>
<stop offset="1" stop-color="#A183BE"/>
</linearGradient>
<radialGradient id="paint52_radial_379_6914" cx="0" cy="0" r="1" gradientUnits="userSpaceOnUse" gradientTransform="translate(165.138 132.745) rotate(9.84598) scale(14.7617 14.5996)">
<stop stop-color="#FF5115"/>
<stop offset="0.06" stop-color="#EC4B13"/>
<stop offset="0.33" stop-color="#99300C"/>
<stop offset="0.56" stop-color="#571B07"/>
<stop offset="0.76" stop-color="#280C03"/>
<stop offset="0.91" stop-color="#0A0300"/>
<stop offset="1"/>
</radialGradient>
<linearGradient id="paint53_linear_379_6914" x1="206.772" y1="138.648" x2="346.92" y2="202.511" gradientUnits="userSpaceOnUse">
<stop stop-color="#3EE4EF"/>
<stop offset="1" stop-color="#3EE4EF" stop-opacity="0"/>
</linearGradient>
<linearGradient id="paint54_linear_379_6914" x1="73.422" y1="95.0523" x2="71.3487" y2="94.1582" gradientUnits="userSpaceOnUse">
<stop stop-color="#634BDE"/>
<stop offset="1" stop-color="#CCC4FF"/>
</linearGradient>
<linearGradient id="paint55_linear_379_6914" x1="71.4692" y1="174.123" x2="69.3958" y2="173.229" gradientUnits="userSpaceOnUse">
<stop stop-color="#634BDE"/>
<stop offset="1" stop-color="#CCC4FF"/>
</linearGradient>
<linearGradient id="paint56_linear_379_6914" x1="82.9794" y1="174.814" x2="80.9061" y2="173.92" gradientUnits="userSpaceOnUse">
<stop stop-color="#634BDE"/>
<stop offset="1" stop-color="#CCC4FF"/>
</linearGradient>
<linearGradient id="paint57_linear_379_6914" x1="84.0319" y1="94.7162" x2="81.9585" y2="93.8221" gradientUnits="userSpaceOnUse">
<stop stop-color="#634BDE"/>
<stop offset="1" stop-color="#CCC4FF"/>
</linearGradient>
<linearGradient id="paint58_linear_379_6914" x1="152.847" y1="133.086" x2="150.773" y2="132.192" gradientUnits="userSpaceOnUse">
<stop stop-color="#634BDE"/>
<stop offset="1" stop-color="#CCC4FF"/>
</linearGradient>
<linearGradient id="paint59_linear_379_6914" x1="151.644" y1="173.935" x2="78.2591" y2="174.223" gradientUnits="userSpaceOnUse">
<stop/>
<stop offset="0.3" stop-color="#362C40"/>
<stop offset="0.63" stop-color="#6F5A83"/>
<stop offset="0.88" stop-color="#9377AD"/>
<stop offset="1" stop-color="#A183BE"/>
</linearGradient>
<linearGradient id="paint60_linear_379_6914" x1="51.3097" y1="105.961" x2="56.9827" y2="94.0662" gradientUnits="userSpaceOnUse">
<stop stop-color="#FFFF56"/>
<stop offset="1" stop-color="#FFA500"/>
</linearGradient>
<linearGradient id="paint61_linear_379_6914" x1="48.2014" y1="165.978" x2="50.8412" y2="160.455" gradientUnits="userSpaceOnUse">
<stop stop-color="#FFFF56"/>
<stop offset="1" stop-color="#FFA500"/>
</linearGradient>
</defs>
</svg>
