<svg width="611" height="85" viewBox="0 0 611 85" fill="none" xmlns="http://www.w3.org/2000/svg">
<path d="M5.34973 8.35992C-0.837147 15.4779 -1.83036 67.9849 3.57022 77.1307C8.59835 85.6351 594.057 86.6696 603.761 77.8342C613.465 68.9988 612.472 14.6503 603.43 6.47696C594.408 -1.67564 15.4681 -3.26892 5.34973 8.35992Z" fill="url(#paint0_linear_415_5796)"/>
<path d="M10.1917 12.4151C4.5221 18.7468 5.74292 66.2256 10.709 74.3576C15.3233 81.9101 587.994 82.8412 596.912 74.9783C605.83 67.1154 607.237 16.3259 598.96 9.08371C590.684 1.84155 19.4616 2.08985 10.1917 12.4151Z" fill="url(#paint1_radial_415_5796)"/>
<defs>
<linearGradient id="paint0_linear_415_5796" x1="280.352" y1="84.0004" x2="280.352" y2="20.0004" gradientUnits="userSpaceOnUse">
<stop stop-color="#008EC2"/>
<stop offset="1" stop-color="#002092"/>
</linearGradient>
<radialGradient id="paint1_radial_415_5796" cx="0" cy="0" r="1" gradientUnits="userSpaceOnUse" gradientTransform="translate(279.98 75.1024) rotate(-0.477872) scale(252.082 258.429)">
<stop stop-color="#00D3C2"/>
<stop offset="1" stop-color="#0083C2"/>
</radialGradient>
</defs>
</svg>
