<svg width="71" height="66" viewBox="0 0 71 66" fill="none" xmlns="http://www.w3.org/2000/svg">
<path opacity="0.1" d="M64.7882 57.7452C64.6652 57.8777 64.5217 58.0103 64.3577 58.1326C52.2238 67.9924 18.794 67.6457 4.14919 58.7852C3.38057 58.3264 2.86816 57.8369 2.6222 57.3271C-2.57367 46.5701 0.244602 14.1972 8.49446 7.19238C17.349 -0.312025 51.3937 -3.70736 62.3286 5.83629C70.353 12.8309 74.1756 47.9364 64.7882 57.7452Z" fill="#3C3E48"/>
<path d="M62.8024 56.5434C62.6868 56.6686 62.552 56.7938 62.3979 56.9093C50.9968 66.2209 19.5859 65.8935 5.82561 57.5256C5.10341 57.0923 4.62194 56.6301 4.39084 56.1486C-0.491235 45.9897 2.15683 15.4166 9.90844 8.80121C18.2282 1.71402 50.2168 -1.49255 60.4913 7.52051C68.0311 14.1262 71.6228 47.28 62.8024 56.5434Z" fill="url(#paint0_linear_288_6222)"/>
<path d="M4.38962 54.1392C9.09836 63.9418 53.1044 64.7218 62.8011 54.534C71.6216 45.2705 68.0299 12.1168 60.4901 5.51103C50.2156 -3.50202 18.227 -0.295457 9.90722 6.80136C2.15561 13.4071 -0.492456 43.9802 4.38962 54.1392Z" fill="url(#paint1_radial_288_6222)"/>
<g style="mix-blend-mode:multiply" filter="url(#filter0_f_288_6222)">
<path d="M59.2023 54.8773C59.3495 54.8773 59.4966 54.8096 59.5912 54.703C59.6857 54.5965 59.7278 54.4513 59.6857 54.3157L56.5748 41.4853C55.734 37.3796 51.7719 36.1013 50.3321 35.7721C50.6894 33.971 50.5423 32.6734 49.8908 31.9278C49.5755 31.5599 49.197 31.3952 48.9029 31.3276V28.868L50.8156 26.4472C50.8787 26.3697 50.9101 26.2729 50.9101 26.176V18.0711C50.9101 17.9355 50.847 17.7999 50.7209 17.7128L48.6085 16.1247C45.403 6.52853 37.4367 5.78292 35.0616 5.78292C34.6727 5.78292 34.431 5.80228 34.4205 5.80228H33.0857C33.0857 5.80228 22.7442 4.76617 18.9503 16.1247L16.9219 17.7128C16.8063 17.7999 16.7432 17.9258 16.7432 18.0614V26.1663C16.7432 26.2632 16.7748 26.36 16.8378 26.4375L18.7506 28.8583V31.3082C18.4353 31.3857 18.0149 31.5503 17.6681 31.9473C17.006 32.7026 16.8483 33.9906 17.1951 35.7528C15.7658 36.0821 11.8247 37.3506 10.9944 41.4467L7.71544 54.3158C7.68391 54.4514 7.71544 54.5966 7.81002 54.7129C7.90461 54.8194 8.05175 54.8872 8.19888 54.8872H25.2876C25.5608 54.8872 25.792 54.6838 25.792 54.4224V44.6907H41.8717V54.8773H59.2023ZM22.7758 27.1055V17.3738C22.7758 17.2576 22.8283 17.1414 22.9124 17.0542C26.6749 13.4714 32.823 13.2971 34.0211 13.2971H35.1876C36.2911 13.2971 41.9768 13.4811 45.7498 17.0542C45.8443 17.1414 45.8864 17.2576 45.8864 17.3738V21.8668C45.5817 22.2058 45.2453 22.5253 44.8775 22.8255C44.5411 23.1063 44.1837 23.3678 43.795 23.6195C42.0188 24.7234 39.8748 25.3335 37.6362 25.4109C37.3209 24.1521 36.1018 23.2031 34.641 23.2031C32.9489 23.2031 31.5616 24.4717 31.5616 26.0404C31.5616 27.6091 32.9384 28.8776 34.641 28.8776C35.8602 28.8776 36.9005 28.2191 37.405 27.2701C40.1166 27.2314 42.723 26.5148 44.8775 25.1785C44.888 25.1689 44.909 25.1592 44.9194 25.1495C45.2557 24.9365 45.571 24.7137 45.8759 24.4813V27.0958C45.8759 27.1249 45.8759 27.1636 45.8653 27.1927C45.8022 27.4638 44.9614 29.875 35.8602 29.875H34.6935C25.6237 29.875 23.0068 27.5219 22.9017 27.4251C22.8283 27.338 22.7758 27.2218 22.7758 27.1055Z" fill="#CED6FF"/>
<path d="M29.6911 14.7303C29.5335 14.7013 29.3548 14.6916 29.1867 14.74C25.4032 15.8633 24.163 17.0931 24.0264 17.2286C23.9423 17.3158 23.8793 17.4126 23.8372 17.5094C23.7952 17.616 23.7742 17.7225 23.7742 17.8387V21.5377C23.7742 22.0509 24.2261 22.4673 24.7831 22.4673C25.3401 22.4673 25.792 22.0509 25.792 21.5377V18.2551C26.2755 17.9161 27.4631 17.1996 29.8067 16.5024C30.3322 16.3474 30.6265 15.8245 30.4583 15.3404C30.3322 15.011 30.0274 14.7884 29.6911 14.7303Z" fill="#CED6FF"/>
</g>
<path d="M61.1281 53.9144C61.2752 53.9144 61.4224 53.8467 61.517 53.7401C61.6114 53.6335 61.6536 53.4883 61.6114 53.3527L58.5006 40.5223C57.6598 36.4167 53.6977 35.1384 52.2579 34.8091C52.6152 33.008 52.468 31.7105 51.8166 30.9649C51.5013 30.5969 51.1228 30.4323 50.8286 30.3646V27.905L52.7414 25.4842C52.8045 25.4067 52.8359 25.3099 52.8359 25.2131V17.1081C52.8359 16.9725 52.7728 16.837 52.6467 16.7498L50.5343 15.1618C47.3288 5.56557 39.3625 4.81995 36.9873 4.81995C36.5985 4.81995 36.3568 4.83932 36.3462 4.83932H35.0115C35.0115 4.83932 24.67 3.8032 20.876 15.1618L18.8477 16.7498C18.7321 16.837 18.669 16.9629 18.669 17.0984V25.2034C18.669 25.3002 18.7005 25.397 18.7636 25.4745L20.6764 27.8953V30.3452C20.3611 30.4227 19.9407 30.5873 19.5939 30.9843C18.9318 31.7396 18.7741 33.0276 19.1209 34.7899C17.6916 35.1191 13.7505 36.3876 12.9202 40.4838L9.64122 53.3528C9.60969 53.4884 9.64122 53.6336 9.7358 53.7499C9.83039 53.8565 9.97753 53.9242 10.1247 53.9242H27.2134C27.4866 53.9242 27.7178 53.7208 27.7178 53.4594V43.7277H43.7975V53.9144H61.1281ZM24.7015 26.1426V16.4108C24.7015 16.2946 24.7541 16.1784 24.8382 16.0913C28.6006 12.5084 34.7488 12.3341 35.9469 12.3341H37.1133C38.2169 12.3341 43.9026 12.5181 47.6755 16.0913C47.7701 16.1784 47.8122 16.2946 47.8122 16.4108V20.9039C47.5075 21.2428 47.1711 21.5623 46.8032 21.8625C46.4669 22.1433 46.1095 22.4048 45.7207 22.6566C43.9446 23.7605 41.8005 24.3705 39.562 24.448C39.2467 23.1891 38.0276 22.2402 36.5667 22.2402C34.8747 22.2402 33.4874 23.5087 33.4874 25.0774C33.4874 26.6461 34.8642 27.9146 36.5667 27.9146C37.786 27.9146 38.8263 27.2561 39.3308 26.3072C42.0424 26.2684 44.6488 25.5519 46.8032 24.2156C46.8138 24.2059 46.8348 24.1962 46.8452 24.1865C47.1815 23.9735 47.4968 23.7508 47.8017 23.5184V26.1329C47.8017 26.1619 47.8017 26.2007 47.791 26.2297C47.728 26.5008 46.8872 28.912 37.786 28.912H36.6193C27.5495 28.912 24.9326 26.5589 24.8275 26.4621C24.7541 26.3751 24.7015 26.2589 24.7015 26.1426Z" fill="white"/>
<path d="M31.6169 13.7674C31.4593 13.7383 31.2806 13.7286 31.1124 13.777C27.329 14.9003 26.0888 16.1301 25.9522 16.2657C25.8681 16.3528 25.8051 16.4496 25.763 16.5465C25.721 16.653 25.7 16.7595 25.7 16.8757V20.5747C25.7 21.088 26.1519 21.5043 26.7089 21.5043C27.2659 21.5043 27.7178 21.088 27.7178 20.5747V17.2921C28.2013 16.9532 29.3889 16.2366 31.7325 15.5394C32.258 15.3845 32.5523 14.8616 32.3841 14.3774C32.258 14.0481 31.9532 13.8255 31.6169 13.7674Z" fill="white"/>
<path style="mix-blend-mode:screen" d="M9.5 8.50001C9.5 8.50001 22.5 -4 57 4C57 4 68 14 65.0251 20.7287C65.0251 20.7287 66 23 62 25C60.993 17.767 48 9.70387 39 7.70346C30.5 7.70346 8 10.5 8 10.5L9.5 8.50001Z" fill="url(#paint2_linear_288_6222)"/>
<path d="M7 11.5377C7 11.5377 8.47329 8.51406 11.8821 6.89633C15.3005 5.27861 25.0165 3.65125 25.575 4.06531C26.1239 4.47937 20.8373 6.38598 18.1026 7.39706C15.3679 8.40814 8.39625 12.3176 7 11.5473V11.5377Z" fill="white"/>
<path style="mix-blend-mode:screen" d="M62.3112 54.1143C62.3112 54.1143 58.4999 58.1686 50.9999 59.5C47.2763 60.161 42.9298 61.0465 42.4999 60.5C42.0794 59.9561 47.6058 55.4426 50.5103 55.1869C53.4147 54.9312 61.1695 52.9944 62.3137 54.1051L62.3112 54.1143Z" fill="url(#paint3_linear_288_6222)"/>
<path d="M7.35415 13.0096C6.65121 13.1156 4.89867 18.5658 5.0046 19.4613C5.11052 20.3568 7.21934 17.5258 7.54674 16.014C7.87414 14.5118 7.35415 13 7.35415 13V13.0096Z" fill="white"/>
<path style="mix-blend-mode:screen" d="M63.4504 52.0183C64.1597 51.9703 66.3521 46.6817 66.3198 45.7805C66.2875 44.8793 63.9542 47.5283 63.5042 49.0083C63.055 50.4787 63.4496 52.0279 63.4496 52.0279L63.4504 52.0183Z" fill="url(#paint4_linear_288_6222)"/>
<path d="M60.0316 54.7213C59.6223 53.6892 63.3061 48.9776 64.246 49.0001C65.1859 49.0225 64.3521 52.0963 63.776 52.8142C63.2151 53.5322 60.2287 55.2373 60.0316 54.7213Z" fill="white"/>
<defs>
<filter id="filter0_f_288_6222" x="6.70361" y="4.77762" width="53.9983" height="51.1096" filterUnits="userSpaceOnUse" color-interpolation-filters="sRGB">
<feFlood flood-opacity="0" result="BackgroundImageFix"/>
<feBlend mode="normal" in="SourceGraphic" in2="BackgroundImageFix" result="shape"/>
<feGaussianBlur stdDeviation="0.5" result="effect1_foregroundBlur_288_6222"/>
</filter>
<linearGradient id="paint0_linear_288_6222" x1="38.1865" y1="63.847" x2="38.1865" y2="2.00908" gradientUnits="userSpaceOnUse">
<stop stop-color="#C26900"/>
<stop offset="1" stop-color="#923D00"/>
</linearGradient>
<radialGradient id="paint1_radial_288_6222" cx="0" cy="0" r="1" gradientUnits="userSpaceOnUse" gradientTransform="translate(35.7326 57.4711) scale(25.3388 75.8087)">
<stop stop-color="#FFBD00"/>
<stop offset="1" stop-color="#FF772C"/>
</radialGradient>
<linearGradient id="paint2_linear_288_6222" x1="11.6763" y1="13.8808" x2="57.9957" y2="13.8808" gradientUnits="userSpaceOnUse">
<stop stop-color="#7ED140"/>
<stop offset="0.11" stop-color="#74C03B"/>
<stop offset="0.34" stop-color="#5A962E"/>
<stop offset="0.65" stop-color="#315219"/>
<stop offset="1"/>
</linearGradient>
<linearGradient id="paint3_linear_288_6222" x1="59.6273" y1="56.9107" x2="45.5876" y2="53.0805" gradientUnits="userSpaceOnUse">
<stop stop-color="#7ED140"/>
<stop offset="0.11" stop-color="#74C03B"/>
<stop offset="0.34" stop-color="#5A962E"/>
<stop offset="0.65" stop-color="#315219"/>
<stop offset="1"/>
</linearGradient>
<linearGradient id="paint4_linear_288_6222" x1="65.8257" y1="48.6256" x2="63.757" y2="48.4559" gradientUnits="userSpaceOnUse">
<stop stop-color="#7ED140"/>
<stop offset="0.11" stop-color="#74C03B"/>
<stop offset="0.34" stop-color="#5A962E"/>
<stop offset="0.65" stop-color="#315219"/>
<stop offset="1"/>
</linearGradient>
</defs>
</svg>
