<svg width="71" height="66" viewBox="0 0 71 66" fill="none" xmlns="http://www.w3.org/2000/svg">
<path opacity="0.1" d="M64.7882 57.7452C64.6652 57.8777 64.5217 58.0103 64.3577 58.1326C52.2238 67.9924 18.794 67.6457 4.14919 58.7852C3.38057 58.3264 2.86816 57.8369 2.6222 57.3271C-2.57367 46.5701 0.244602 14.1972 8.49446 7.19238C17.349 -0.312025 51.3937 -3.70736 62.3286 5.83629C70.353 12.8309 74.1756 47.9364 64.7882 57.7452Z" fill="#3C3E48"/>
<path d="M62.8025 56.5434C62.6869 56.6686 62.5521 56.7938 62.398 56.9093C50.9969 66.2209 19.586 65.8935 5.82573 57.5256C5.10353 57.0923 4.62206 56.6301 4.39096 56.1486C-0.491113 45.9897 2.15695 15.4166 9.90856 8.80121C18.2283 1.71402 50.2169 -1.49255 60.4914 7.52051C68.0312 14.1262 71.6229 47.28 62.8025 56.5434Z" fill="url(#paint0_linear_83_1420)"/>
<path d="M4.38962 54.1392C9.09836 63.9418 53.1044 64.7218 62.8011 54.534C71.6216 45.2705 68.0299 12.1168 60.4901 5.51103C50.2156 -3.50202 18.227 -0.295457 9.90722 6.80136C2.15561 13.4071 -0.492456 43.9802 4.38962 54.1392Z" fill="url(#paint1_radial_83_1420)"/>
<g style="mix-blend-mode:multiply" filter="url(#filter0_f_83_1420)">
<path d="M59.2022 54.8773C59.3493 54.8773 59.4965 54.8096 59.5911 54.703C59.6855 54.5965 59.7277 54.4513 59.6855 54.3157L56.5747 41.4853C55.7339 37.3796 51.7718 36.1013 50.332 35.7721C50.6893 33.971 50.5421 32.6734 49.8907 31.9278C49.5754 31.5599 49.1969 31.3952 48.9027 31.3276V28.868L50.8155 26.4472C50.8786 26.3697 50.91 26.2729 50.91 26.176V18.0711C50.91 17.9355 50.8469 17.7999 50.7208 17.7128L48.6084 16.1247C45.4029 6.52853 37.4366 5.78292 35.0614 5.78292C34.6726 5.78292 34.4309 5.80228 34.4203 5.80228H33.0856C33.0856 5.80228 22.7441 4.76617 18.9501 16.1247L16.9218 17.7128C16.8062 17.7999 16.7431 17.9258 16.7431 18.0614V26.1663C16.7431 26.2632 16.7746 26.36 16.8377 26.4375L18.7504 28.8583V31.3082C18.4352 31.3857 18.0148 31.5503 17.668 31.9473C17.0058 32.7026 16.8482 33.9906 17.195 35.7528C15.7657 36.0821 11.8246 37.3506 10.9943 41.4467L7.71531 54.3158C7.68379 54.4514 7.71531 54.5966 7.8099 54.7129C7.90449 54.8194 8.05162 54.8872 8.19876 54.8872H25.2875C25.5607 54.8872 25.7919 54.6838 25.7919 54.4224V44.6907H41.8716V54.8773H59.2022ZM22.7756 27.1055V17.3738C22.7756 17.2576 22.8282 17.1414 22.9123 17.0542C26.6747 13.4714 32.8229 13.2971 34.021 13.2971H35.1874C36.291 13.2971 41.9767 13.4811 45.7496 17.0542C45.8442 17.1414 45.8863 17.2576 45.8863 17.3738V21.8668C45.5816 22.2058 45.2452 22.5253 44.8773 22.8255C44.541 23.1063 44.1836 23.3678 43.7948 23.6195C42.0187 24.7234 39.8746 25.3335 37.6361 25.4109C37.3208 24.1521 36.1017 23.2031 34.6408 23.2031C32.9488 23.2031 31.5615 24.4717 31.5615 26.0404C31.5615 27.6091 32.9383 28.8776 34.6408 28.8776C35.8601 28.8776 36.9004 28.2191 37.4049 27.2701C40.1165 27.2314 42.7229 26.5148 44.8773 25.1785C44.8878 25.1689 44.9089 25.1592 44.9193 25.1495C45.2556 24.9365 45.5709 24.7137 45.8758 24.4813V27.0958C45.8758 27.1249 45.8758 27.1636 45.8651 27.1927C45.8021 27.4638 44.9613 29.875 35.8601 29.875H34.6934C25.6235 29.875 23.0066 27.5219 22.9016 27.4251C22.8282 27.338 22.7756 27.2218 22.7756 27.1055Z" fill="#CED6FF"/>
<path d="M29.691 14.7303C29.5334 14.7013 29.3547 14.6916 29.1865 14.74C25.4031 15.8633 24.1629 17.0931 24.0263 17.2286C23.9422 17.3158 23.8792 17.4126 23.8371 17.5094C23.7951 17.616 23.7741 17.7225 23.7741 17.8387V21.5377C23.7741 22.0509 24.226 22.4673 24.783 22.4673C25.34 22.4673 25.7919 22.0509 25.7919 21.5377V18.2551C26.2754 17.9161 27.4629 17.1996 29.8066 16.5024C30.3321 16.3474 30.6264 15.8245 30.4582 15.3404C30.3321 15.011 30.0273 14.7884 29.691 14.7303Z" fill="#CED6FF"/>
</g>
<path d="M61.128 53.9144C61.2752 53.9144 61.4223 53.8467 61.5169 53.7401C61.6114 53.6336 61.6535 53.4883 61.6114 53.3527L58.5005 40.5223C57.6598 36.4167 53.6976 35.1384 52.2578 34.8092C52.6151 33.0081 52.468 31.7105 51.8165 30.9649C51.5012 30.5969 51.1228 30.4323 50.8286 30.3646V27.905L52.7413 25.4842C52.8044 25.4067 52.8358 25.3099 52.8358 25.2131V17.1081C52.8358 16.9726 52.7728 16.837 52.6467 16.7498L50.5342 15.1618C47.3288 5.56558 39.3625 4.81997 36.9873 4.81997C36.5984 4.81997 36.3567 4.83933 36.3462 4.83933H35.0115C35.0115 4.83933 24.67 3.80322 20.876 15.1618L18.8476 16.7498C18.732 16.837 18.6689 16.9629 18.6689 17.0984V25.2034C18.6689 25.3002 18.7005 25.3971 18.7635 25.4745L20.6763 27.8954V30.3452C20.361 30.4227 19.9406 30.5873 19.5938 30.9843C18.9317 31.7396 18.774 33.0276 19.1209 34.7899C17.6916 35.1191 13.7504 36.3876 12.9202 40.4838L9.64116 53.3528C9.60963 53.4884 9.64116 53.6337 9.73574 53.75C9.83033 53.8565 9.97747 53.9243 10.1246 53.9243H27.2133C27.4865 53.9243 27.7178 53.7208 27.7178 53.4595V43.7277H43.7974V53.9144H61.128ZM24.7015 26.1426V16.4108C24.7015 16.2946 24.754 16.1784 24.8381 16.0913C28.6006 12.5084 34.7487 12.3341 35.9468 12.3341H37.1133C38.2168 12.3341 43.9025 12.5181 47.6755 16.0913C47.7701 16.1784 47.8121 16.2946 47.8121 16.4108V20.9039C47.5074 21.2428 47.171 21.5624 46.8032 21.8625C46.4669 22.1434 46.1094 22.4048 45.7207 22.6566C43.9446 23.7605 41.8005 24.3705 39.5619 24.448C39.2466 23.1892 38.0275 22.2402 36.5667 22.2402C34.8746 22.2402 33.4873 23.5087 33.4873 25.0774C33.4873 26.6461 34.8641 27.9146 36.5667 27.9146C37.7859 27.9146 38.8262 27.2562 39.3307 26.3072C42.0423 26.2685 44.6487 25.5519 46.8032 24.2156C46.8137 24.2059 46.8347 24.1962 46.8451 24.1865C47.1814 23.9735 47.4967 23.7508 47.8016 23.5184V26.1329C47.8016 26.1619 47.8016 26.2007 47.791 26.2297C47.7279 26.5009 46.8872 28.912 37.7859 28.912H36.6192C27.5494 28.912 24.9325 26.559 24.8274 26.4621C24.754 26.3751 24.7015 26.2589 24.7015 26.1426Z" fill="#00FEEF"/>
<path d="M31.6168 13.7674C31.4592 13.7383 31.2805 13.7286 31.1124 13.7771C27.3289 14.9003 26.0888 16.1301 25.9521 16.2657C25.8681 16.3528 25.805 16.4496 25.763 16.5465C25.7209 16.653 25.6999 16.7595 25.6999 16.8757V20.5748C25.6999 21.088 26.1518 21.5044 26.7088 21.5044C27.2658 21.5044 27.7178 21.088 27.7178 20.5748V17.2921C28.2012 16.9532 29.3888 16.2366 31.7324 15.5394C32.2579 15.3845 32.5522 14.8616 32.384 14.3774C32.2579 14.0481 31.9531 13.8255 31.6168 13.7674Z" fill="#00FEEF"/>
<path style="mix-blend-mode:screen" d="M9.5 8.50001C9.5 8.50001 22.5 -4 57 4C57 4 68 14 65.0251 20.7287C65.0251 20.7287 66 23 62 25C60.993 17.767 48 9.70387 39 7.70346C30.5 7.70346 8 10.5 8 10.5L9.5 8.50001Z" fill="url(#paint2_linear_83_1420)"/>
<path d="M7 11.5377C7 11.5377 8.47329 8.51406 11.8821 6.89633C15.3005 5.27861 25.0165 3.65125 25.575 4.06531C26.1239 4.47937 20.8373 6.38598 18.1026 7.39706C15.3679 8.40814 8.39625 12.3176 7 11.5473V11.5377Z" fill="white"/>
<path style="mix-blend-mode:screen" d="M62.3113 54.1143C62.3113 54.1143 58.5 58.1686 51 59.5C47.2763 60.161 42.9298 61.0465 42.5 60.5C42.0795 59.9561 47.6059 55.4426 50.5103 55.1869C53.4147 54.9312 61.1695 52.9944 62.3138 54.1051L62.3113 54.1143Z" fill="url(#paint3_linear_83_1420)"/>
<path d="M7.35415 13.0096C6.65121 13.1156 4.89867 18.5658 5.0046 19.4613C5.11052 20.3568 7.21934 17.5258 7.54674 16.014C7.87414 14.5118 7.35415 13 7.35415 13V13.0096Z" fill="white"/>
<path style="mix-blend-mode:screen" d="M63.4505 52.0183C64.1597 51.9703 66.3522 46.6817 66.3199 45.7805C66.2875 44.8793 63.9542 47.5283 63.5043 49.0083C63.0551 50.4787 63.4497 52.0279 63.4497 52.0279L63.4505 52.0183Z" fill="url(#paint4_linear_83_1420)"/>
<path d="M60.0316 54.7213C59.6223 53.6892 63.3061 48.9776 64.246 49.0001C65.1859 49.0225 64.3521 52.0963 63.776 52.8142C63.2151 53.5322 60.2287 55.2373 60.0316 54.7213Z" fill="white"/>
<defs>
<filter id="filter0_f_83_1420" x="6.70349" y="4.77762" width="53.9984" height="51.1096" filterUnits="userSpaceOnUse" color-interpolation-filters="sRGB">
<feFlood flood-opacity="0" result="BackgroundImageFix"/>
<feBlend mode="normal" in="SourceGraphic" in2="BackgroundImageFix" result="shape"/>
<feGaussianBlur stdDeviation="0.5" result="effect1_foregroundBlur_83_1420"/>
</filter>
<linearGradient id="paint0_linear_83_1420" x1="38.1866" y1="63.847" x2="38.1866" y2="2.00908" gradientUnits="userSpaceOnUse">
<stop stop-color="#008EC2"/>
<stop offset="1" stop-color="#002092"/>
</linearGradient>
<radialGradient id="paint1_radial_83_1420" cx="0" cy="0" r="1" gradientUnits="userSpaceOnUse" gradientTransform="translate(38.2044 55.9585) rotate(-3.94662) scale(33.5105 282.839)">
<stop stop-color="#00D3C2"/>
<stop offset="1" stop-color="#0083C2"/>
</radialGradient>
<linearGradient id="paint2_linear_83_1420" x1="11.6763" y1="13.8808" x2="57.9957" y2="13.8808" gradientUnits="userSpaceOnUse">
<stop stop-color="#7ED140"/>
<stop offset="0.11" stop-color="#74C03B"/>
<stop offset="0.34" stop-color="#5A962E"/>
<stop offset="0.65" stop-color="#315219"/>
<stop offset="1"/>
</linearGradient>
<linearGradient id="paint3_linear_83_1420" x1="59.6274" y1="56.9107" x2="45.5876" y2="53.0805" gradientUnits="userSpaceOnUse">
<stop stop-color="#7ED140"/>
<stop offset="0.11" stop-color="#74C03B"/>
<stop offset="0.34" stop-color="#5A962E"/>
<stop offset="0.65" stop-color="#315219"/>
<stop offset="1"/>
</linearGradient>
<linearGradient id="paint4_linear_83_1420" x1="65.8258" y1="48.6256" x2="63.7571" y2="48.4559" gradientUnits="userSpaceOnUse">
<stop stop-color="#7ED140"/>
<stop offset="0.11" stop-color="#74C03B"/>
<stop offset="0.34" stop-color="#5A962E"/>
<stop offset="0.65" stop-color="#315219"/>
<stop offset="1"/>
</linearGradient>
</defs>
</svg>
