<svg width="170" height="58" viewBox="0 0 170 58" fill="none" xmlns="http://www.w3.org/2000/svg">
<path d="M26.8215 53.656C25.1346 53.4532 23.3945 53.036 21.8275 52.2566C33.1758 55.7189 42.6266 47.9123 42.6266 47.9123C33.9259 51.1213 19.551 51.2148 13.2127 40.7128C5.03737 27.1642 12.8522 17.2468 20.1225 15.0586C30.1157 12.0503 42.4674 22.3998 36.6555 33.852C39.0839 27.173 34.0774 17.2712 25.5447 16.6496C17.0299 16.0297 12.3838 22.8235 10.6949 29.1104C10.6949 29.1104 11.689 27.2548 13.4039 25.133C12.5562 27.1303 11.3424 31.3342 12.9456 35.6205C14.7786 40.5232 18.2976 43.8162 21.6606 45.466C31.4323 50.2639 42.8994 45.5985 42.8994 45.5985C36.2475 47.3748 26.7778 46.4147 21.1764 42.1361C18.9734 40.4526 16.8376 37.6829 15.9111 35.0036C15.1589 32.8326 15.07 30.4802 15.5527 28.3182C16.0178 26.2363 17.1064 23.8727 19.185 22.5327C21.7848 20.8595 25.8 20.7111 29.1316 23.3646C31.6209 25.3476 32.3681 28.4012 32.1054 31.5447C31.6025 28.3365 29.1509 25.4321 26.1707 24.5094C23.1904 23.5867 19.5261 24.4635 18.1104 27.2124C15.0193 33.2107 20.2372 40.5083 26.3785 42.9318C31.0364 44.7701 37.1754 45.1675 41.5916 43.6948C51.317 40.4496 53.5821 31.6329 53.8496 27.7155C53.8496 27.7155 51.8748 34.8855 47.4763 38.1305C53.9515 30.5757 55.4404 18.7591 47.0694 7.82885C47.0694 7.82885 51.1151 14.6986 50.7376 22.628C47.6279 3.62107 28.6218 -3.62965 17.499 1.70275C17.499 1.70275 25.5676 -0.742011 32.2966 3.07491C21.2388 0.188566 8.89265 5.43564 2.2763 15.9446C2.2763 15.9446 14.0685 3.19204 28.2591 6.67029C36.3878 8.66394 41.2874 13.809 43.9379 19.6938C44.6205 21.2093 44.9166 22.6335 45.0747 23.9001C42.3801 15.9831 34.1634 7.97871 24.9689 7.65811C18.1405 7.07565 11.5768 9.47983 6.65509 14.6379C2.8277 18.6531 0.458738 24.5131 0.0516439 30.3887C-0.219618 34.2995 0.625099 37.9128 1.47889 41.7531C1.47889 41.7531 -0.0817034 34.7417 1.53331 30.0382C0.849347 40.364 6.03416 52.0765 18.2065 57.8883C18.2065 57.8883 12.4549 54.3823 8.87481 48.2769C19.2196 59.1339 40.6291 61.4258 52.5023 43.8778C52.5023 43.8778 40.6705 55.3227 26.8234 53.6583L26.8215 53.656ZM33.1428 37.5937C33.1358 37.9195 32.8776 38.1607 32.5675 38.1311L32.1838 38.0945C31.8737 38.0649 31.6155 38.306 31.6085 38.6319L31.5866 39.6511C31.5796 39.9769 31.3214 40.2181 31.0113 40.1885C30.7012 40.1589 30.4544 39.8695 30.4614 39.5437L30.4833 38.5245C30.4903 38.1987 30.2435 37.9093 29.9334 37.8797L29.5497 37.8431C29.2396 37.8135 28.9928 37.5242 28.9998 37.1984C29.0068 36.8726 29.2649 36.6314 29.5751 36.661L29.9588 36.6976C30.2689 36.7272 30.5271 36.486 30.5341 36.1602L30.556 35.141C30.563 34.8152 30.8211 34.574 31.1313 34.6036C31.4414 34.6332 31.6882 34.9225 31.6812 35.2484L31.6593 36.2676C31.6523 36.5934 31.8991 36.8827 32.2092 36.9123L32.5929 36.9489C32.903 36.9785 33.1498 37.2679 33.1428 37.5937ZM36.6117 41.5474C36.6093 41.6623 36.5198 41.7459 36.4105 41.7354L36.2773 41.7227C36.1679 41.7123 36.0785 41.7958 36.076 41.9107L36.0684 42.2658C36.0659 42.3806 35.9765 42.4642 35.8672 42.4538C35.7578 42.4433 35.6723 42.3431 35.6748 42.2282L35.6824 41.8731C35.6849 41.7583 35.5994 41.658 35.49 41.6476L35.3568 41.6349C35.2475 41.6245 35.162 41.5242 35.1645 41.4093C35.1669 41.2945 35.2564 41.2109 35.3657 41.2213L35.4989 41.2341C35.6063 41.2443 35.6977 41.1609 35.7002 41.0461L35.7078 40.691C35.7103 40.5761 35.7997 40.4926 35.9091 40.503C36.0184 40.5135 36.1039 40.6137 36.1014 40.7286L36.0938 41.0836C36.0913 41.1985 36.1768 41.2987 36.2862 41.3092L36.4194 41.3219C36.5287 41.3323 36.6142 41.4326 36.6117 41.5474ZM39.9136 8.5776C39.9112 8.69248 39.8217 8.77603 39.7124 8.7656L39.5792 8.75289C39.4699 8.74245 39.3804 8.82601 39.3779 8.94088L39.3703 9.29594C39.3678 9.41081 39.2784 9.49436 39.1691 9.48393C39.0597 9.47349 38.9742 9.37325 38.9767 9.25838L38.9843 8.90332C38.9868 8.78845 38.9013 8.6882 38.7919 8.67777L38.6587 8.66506C38.5494 8.65463 38.4639 8.55439 38.4664 8.43951C38.4688 8.32464 38.5583 8.24109 38.6676 8.25152L38.8008 8.26423C38.9102 8.27466 38.9996 8.19111 39.0021 8.07624L39.0097 7.72118C39.0122 7.60631 39.1016 7.52276 39.211 7.53319C39.3203 7.54362 39.4058 7.64387 39.4033 7.75874L39.3957 8.1138C39.3932 8.22867 39.4787 8.32892 39.5881 8.33935L39.7213 8.35206C39.8306 8.36249 39.9161 8.46273 39.9136 8.5776ZM50.7356 22.6299C50.7276 22.8154 50.7157 23.0005 50.7017 23.1854C50.6594 22.9324 50.611 22.6808 50.5587 22.4267L50.7356 22.6299ZM46.1123 34.4843C46.1148 34.3694 46.2042 34.2859 46.3136 34.2963L46.4468 34.309C46.5561 34.3195 46.6455 34.2359 46.648 34.121L46.6556 33.766C46.6581 33.6511 46.7476 33.5676 46.8569 33.578C46.9662 33.5884 47.0517 33.6887 47.0493 33.8035L47.0416 34.1586C47.0392 34.2735 47.1247 34.3737 47.234 34.3841L47.3672 34.3969C47.4766 34.4073 47.562 34.5075 47.5596 34.6224C47.5571 34.7373 47.4677 34.8208 47.3583 34.8104L47.2251 34.7977C47.1158 34.7873 47.0263 34.8708 47.0239 34.9857L47.0163 35.3407C47.0138 35.4556 46.9243 35.5392 46.815 35.5287C46.7057 35.5183 46.6202 35.4181 46.6226 35.3032L46.6303 34.9481C46.6327 34.8332 46.5472 34.733 46.4379 34.7226L46.3047 34.7099C46.1953 34.6994 46.1098 34.5992 46.1123 34.4843ZM42.4524 30.2382C42.4563 30.0586 42.5985 29.9277 42.7675 29.9439L42.9782 29.964C43.1492 29.9803 43.2895 29.8472 43.2933 29.6696L43.3054 29.1099C43.3092 28.9303 43.4495 28.7993 43.6205 28.8156C43.7914 28.8319 43.9255 28.9912 43.9217 29.1687L43.9096 29.7284C43.9058 29.9081 44.0398 30.0653 44.2108 30.0816L44.4215 30.1017C44.5925 30.118 44.7266 30.2752 44.7227 30.4548C44.7189 30.6344 44.5766 30.7653 44.4076 30.7491L44.1969 30.729C44.0259 30.7127 43.8857 30.8438 43.8818 31.0234L43.8698 31.5831C43.8659 31.7627 43.7237 31.8936 43.5547 31.8774C43.3857 31.8613 43.2497 31.7018 43.2535 31.5243L43.2655 30.9646C43.2694 30.7849 43.1353 30.6277 42.9643 30.6114L42.7536 30.5913C42.5826 30.575 42.4486 30.4157 42.4524 30.2382ZM24.8039 11.3509C24.8072 11.1943 24.9312 11.0805 25.0783 11.0946L25.2612 11.112C25.4103 11.1263 25.5323 11.0102 25.5356 10.8557L25.5461 10.3669C25.5495 10.2103 25.6735 10.0966 25.8206 10.1106C25.9677 10.1246 26.0862 10.2636 26.0829 10.4182L26.0724 10.9069C26.069 11.0635 26.1876 11.2004 26.3347 11.2145L26.5176 11.2319C26.6667 11.2461 26.7833 11.3849 26.7799 11.5395C26.7766 11.6961 26.6526 11.8099 26.5055 11.7958L26.3226 11.7784C26.1735 11.7641 26.0515 11.8802 26.0482 12.0347L26.0377 12.5235C26.0343 12.6801 25.9104 12.7938 25.7632 12.7798C25.6161 12.7658 25.4976 12.6268 25.5009 12.4722L25.5114 11.9835C25.5148 11.8269 25.3962 11.69 25.2491 11.6759L25.0662 11.6585C24.9171 11.6443 24.8005 11.5055 24.8039 11.3509ZM20.9389 10.6264C20.9413 10.5115 21.0308 10.4279 21.1401 10.4384L21.2733 10.4511C21.3826 10.4615 21.4721 10.378 21.4746 10.2631L21.4822 9.90802C21.4846 9.79315 21.5741 9.7096 21.6834 9.72003C21.7928 9.73047 21.8783 9.83071 21.8758 9.94558L21.8682 10.3006C21.8657 10.4155 21.9512 10.5158 22.0606 10.5262L22.1938 10.5389C22.3031 10.5493 22.3886 10.6496 22.3861 10.7644C22.3837 10.8793 22.2942 10.9629 22.1849 10.9524L22.0517 10.9397C21.9423 10.9293 21.8529 11.0128 21.8504 11.1277L21.8428 11.4828C21.8403 11.5977 21.7509 11.6812 21.6415 11.6708C21.5322 11.6603 21.4467 11.5601 21.4492 11.4452L21.4568 11.0902C21.4593 10.9753 21.3738 10.875 21.2644 10.8646L21.1312 10.8519C21.0219 10.8415 20.9364 10.7412 20.9389 10.6264ZM6.54015 38.1654C6.53768 38.2803 6.44824 38.3638 6.3389 38.3534L6.2057 38.3407C6.09636 38.3302 6.00691 38.4138 6.00445 38.5287L5.99682 38.8837C5.99435 38.9986 5.90491 39.0821 5.79557 39.0717C5.68623 39.0613 5.60073 38.961 5.60319 38.8462L5.61082 38.4911C5.61329 38.3762 5.52779 38.276 5.41845 38.2656L5.28525 38.2528C5.17591 38.2424 5.09041 38.1422 5.09288 38.0273C5.09535 37.9124 5.1848 37.8289 5.29414 37.8393L5.42733 37.852C5.53667 37.8624 5.62612 37.7789 5.62859 37.664L5.63621 37.309C5.63868 37.1941 5.72813 37.1105 5.83747 37.121C5.94681 37.1314 6.03231 37.2316 6.02984 37.3465L6.02221 37.7016C6.01975 37.8165 6.10524 37.9167 6.21458 37.9271L6.34778 37.9398C6.45712 37.9503 6.54262 38.0505 6.54015 38.1654ZM8.18271 19.9384L8.04951 19.9257C7.94017 19.9153 7.85072 19.9988 7.84826 20.1137L7.84063 20.4688C7.83816 20.5836 7.74871 20.6672 7.63937 20.6567C7.53003 20.6463 7.44453 20.5461 7.447 20.4312L7.45463 20.0761C7.4571 19.9613 7.3716 19.861 7.26226 19.8506L7.12906 19.8379C7.01972 19.8274 6.93422 19.7272 6.93669 19.6123C6.93916 19.4975 7.0286 19.4139 7.13794 19.4243L7.27114 19.437C7.38048 19.4475 7.46993 19.3639 7.4724 19.2491L7.48002 18.894C7.48249 18.7791 7.57194 18.6956 7.68128 18.706C7.79062 18.7164 7.87612 18.8167 7.87365 18.9316L7.86602 19.2866C7.86356 19.4015 7.94905 19.5017 8.05839 19.5122L8.19159 19.5249C8.30093 19.5353 8.38643 19.6355 8.38396 19.7504C8.3815 19.8653 8.29205 19.9488 8.18271 19.9384ZM10.1322 42.6939C10.1284 42.8735 9.98809 43.0045 9.81713 42.9882L9.6064 42.9681C9.43543 42.9518 9.29516 43.0828 9.2913 43.2624L9.27928 43.8221C9.27542 44.0018 9.13515 44.1328 8.96418 44.1165C8.79321 44.1002 8.65914 43.943 8.663 43.7633L8.67502 43.2036C8.67888 43.024 8.54281 42.8666 8.37383 42.8505L8.1631 42.8304C7.99213 42.814 7.85806 42.6568 7.86191 42.4772C7.86577 42.2976 8.00604 42.1666 8.17701 42.1829L8.38774 42.203C8.55871 42.2193 8.69897 42.0883 8.70283 41.9087L8.71486 41.3489C8.71871 41.1693 8.85898 41.0383 9.02995 41.0546C9.20092 41.0709 9.335 41.2281 9.33114 41.4077L9.31912 41.9675C9.31526 42.1471 9.45132 42.3045 9.6203 42.3206L9.83103 42.3407C10.002 42.357 10.136 42.5163 10.1322 42.6939Z" fill="url(#paint0_radial_60_1993)"/>
<path d="M98.3185 13.597H73.4184C66.3103 13.597 60.5807 19.3266 60.5807 26.4348V30.6566C60.5807 37.7647 66.3103 43.4943 73.4184 43.4943H98.3185V35.7831H76.0463C72.0399 35.7831 68.8089 32.5521 68.8089 28.5457C68.8089 24.5393 72.0399 21.3083 76.0463 21.3083H98.3185V13.597ZM85.0068 32.8106V24.8408H72.7291V32.8106H85.0068Z" fill="url(#paint1_linear_60_1993)"/>
<path d="M124.736 13.6401V24.1085L109.744 13.597L109.658 13.6832V13.554H105.479C103.282 13.554 101.473 15.3633 101.473 17.6034V43.6666H109.658L109.399 23.8931L124.305 34.2753L124.736 43.7528H132.964V13.6401H124.736Z" fill="url(#paint2_linear_60_1993)"/>
<path d="M159.747 28.5457L169.741 13.6832H160.135L153.027 24.2377L145.962 13.7263H136.355L146.349 28.5888L136.096 43.9251H145.66L152.983 33.069H153.156L160.436 43.882H170L159.747 28.5457Z" fill="url(#paint3_linear_60_1993)"/>
<defs>
<radialGradient id="paint0_radial_60_1993" cx="0" cy="0" r="1" gradientUnits="userSpaceOnUse" gradientTransform="translate(27.3643 29.8722) rotate(60.0273) scale(29.6086 27.1825)">
<stop offset="0.10409" stop-color="#14F1FF"/>
<stop offset="0.978353" stop-color="#13AAFF"/>
</radialGradient>
<linearGradient id="paint1_linear_60_1993" x1="60.5807" y1="28.9442" x2="92.8531" y2="78.9378" gradientUnits="userSpaceOnUse">
<stop stop-color="#13AAFF"/>
<stop offset="1" stop-color="#14F1FF"/>
</linearGradient>
<linearGradient id="paint2_linear_60_1993" x1="60.5807" y1="28.9442" x2="92.8531" y2="78.9378" gradientUnits="userSpaceOnUse">
<stop stop-color="#13AAFF"/>
<stop offset="1" stop-color="#14F1FF"/>
</linearGradient>
<linearGradient id="paint3_linear_60_1993" x1="60.5807" y1="28.9442" x2="92.8531" y2="78.9378" gradientUnits="userSpaceOnUse">
<stop stop-color="#13AAFF"/>
<stop offset="1" stop-color="#14F1FF"/>
</linearGradient>
</defs>
</svg>
