<svg width="81" height="69" viewBox="0 0 81 69" fill="none" xmlns="http://www.w3.org/2000/svg">
<path d="M1.82168 55.3638C4.53972 65.9813 72.4369 73.9713 78.0614 62.9516C83.1745 52.9239 79.3262 11.9822 74.9396 4.82339C68.9923 -4.93614 10.2449 1.9009 5.4278 9.59591C0.933612 16.7547 -1.004 44.3709 1.82168 55.3638Z" fill="url(#paint0_radial_639_6640)"/>
<path d="M2.03679 53.4871C4.75483 63.7292 72.2483 69.467 77.8459 58.8226C82.9321 49.1436 79.1645 12.1431 74.8049 5.22568C68.8844 -4.15848 10.3524 2.43725 5.56216 9.83733C1.06798 16.7548 -0.761987 42.8696 2.03679 53.4871Z" fill="url(#paint1_linear_639_6640)"/>
<path d="M2.87107 52.6023C5.53529 62.5495 71.6025 68.2604 77.0924 57.9379C82.071 48.5537 78.3303 12.4917 74.0783 5.78873C68.2655 -3.35412 10.9983 3.05392 6.2888 10.2395C1.90226 16.9425 0.099207 42.2797 2.87107 52.6023Z" fill="url(#paint2_linear_639_6640)"/>
<path d="M62.8314 20.2818C55.7484 8.64479 45.0784 16.7408 45.0784 16.7408C44.3864 17.2638 43.1104 17.6938 42.2434 17.6958L39.3854 17.6978C38.5184 17.6988 37.2424 17.2688 36.5514 16.7458C36.5514 16.7458 25.8804 8.64779 18.7964 20.2848C11.7144 31.9178 14.5684 44.5868 14.5684 44.5868C15.0684 47.6888 16.7164 49.7588 19.8264 49.4988C22.9274 49.2398 29.6584 41.1448 29.6584 41.1448C30.2144 40.4778 31.3794 39.9328 32.2444 39.9328L49.3784 39.9298C50.2444 39.9298 51.4084 40.4748 51.9634 41.1418C51.9634 41.1418 58.6954 49.2368 61.8014 49.4958C64.9074 49.7558 66.5594 47.6838 67.0564 44.5838C67.0564 44.5838 69.9144 31.9168 62.8314 20.2818ZM34.3744 29.7538H30.7004V33.2948C30.7004 33.2948 29.9224 33.8888 28.7184 33.8738C27.5164 33.8558 26.9724 33.2258 26.9724 33.2258V29.7548H23.5024C23.5024 29.7548 23.0694 29.3108 22.9534 28.1418C22.8394 26.9728 23.4324 26.0278 23.4324 26.0278H27.1074V22.3538C27.1074 22.3538 27.8634 21.9488 28.9504 21.9798C30.0384 22.0138 30.8354 22.4228 30.8354 22.4228L30.8204 26.0268H34.2904C34.2904 26.0268 34.8964 26.8048 34.9464 27.7448C34.9964 28.6858 34.3744 29.7538 34.3744 29.7538ZM51.2264 33.7898C49.6174 33.7898 48.3204 32.4888 48.3204 30.8818C48.3204 29.2718 49.6174 27.9738 51.2264 27.9738C52.8284 27.9738 54.1354 29.2718 54.1354 30.8818C54.1354 32.4898 52.8284 33.7898 51.2264 33.7898ZM51.2264 25.7888C49.6174 25.7888 48.3204 24.4888 48.3204 22.8818C48.3204 21.2718 49.6174 19.9738 51.2264 19.9738C52.8284 19.9738 54.1354 21.2718 54.1354 22.8818C54.1354 24.4898 52.8284 25.7888 51.2264 25.7888ZM58.4684 30.0838C56.8594 30.0838 55.5624 28.7838 55.5624 27.1758C55.5624 25.5668 56.8594 24.2678 58.4684 24.2678C60.0704 24.2678 61.3774 25.5668 61.3774 27.1758C61.3774 28.7838 60.0704 30.0838 58.4684 30.0838Z" fill="#FF5200"/>
<path style="mix-blend-mode:screen" d="M75.7737 58.0987C75.7737 58.0987 44.0184 62.9517 6.23499 54.2378C6.23499 54.2378 30.7781 58.206 41.6771 54.2378C60.219 47.4812 70.9028 50.511 75.7737 58.0987Z" fill="url(#paint3_linear_639_6640)"/>
<path style="mix-blend-mode:screen" d="M23.8887 18.8729C24.9383 18.8193 25.8532 19.6237 25.9071 20.6693C25.9609 21.715 25.1536 22.6266 24.104 22.6802C23.0545 22.7338 22.1395 21.9295 22.0857 20.8838C22.0318 19.8382 22.8392 18.9266 23.8887 18.8729Z" fill="url(#paint4_radial_639_6640)"/>
<path d="M24.1309 20.2403C24.4269 20.2403 24.6691 20.4548 24.696 20.7498C24.7229 21.0447 24.4807 21.286 24.2116 21.3128C23.9425 21.3396 23.6734 21.0983 23.6465 20.8034C23.6465 20.5085 23.8618 20.2672 24.1578 20.2403H24.1309Z" fill="#FFFFAB"/>
<path style="mix-blend-mode:screen" d="M26.4992 10.6685C27.5487 10.6149 28.4637 11.4192 28.5175 12.4649C28.5714 13.5106 27.764 14.4222 26.7145 14.4758C25.665 14.5294 24.75 13.7251 24.6961 12.6794C24.6423 11.6337 25.4497 10.7221 26.4992 10.6685Z" fill="url(#paint5_radial_639_6640)"/>
<path d="M26.7145 12.0359C27.0105 12.0359 27.2527 12.2504 27.2796 12.5185C27.2796 12.8135 27.0644 13.0548 26.7952 13.0816C26.5261 13.1084 26.257 12.8671 26.2301 12.599C26.2301 12.304 26.4454 12.0627 26.7414 12.0359H26.7145Z" fill="#FFFFAB"/>
<path style="mix-blend-mode:screen" d="M24.9651 34.1825C26.0147 34.1289 26.9297 34.9333 26.9835 35.9789C27.0373 37.0246 26.23 37.9362 25.1804 37.9898C24.1309 38.0434 23.2159 37.2391 23.1621 36.1934C23.1083 35.1478 23.9156 34.2361 24.9651 34.1825Z" fill="url(#paint6_radial_639_6640)"/>
<path d="M25.1805 35.5499C25.4765 35.5499 25.7187 35.7644 25.7456 36.0594C25.7726 36.3543 25.5304 36.5956 25.2343 36.6224C24.9383 36.6224 24.6961 36.4079 24.6692 36.113C24.6692 35.8181 24.8845 35.5767 25.1536 35.5499H25.1805Z" fill="#FFFFAB"/>
<path style="mix-blend-mode:screen" d="M15.95 6.48584C18.9102 6.29816 21.4399 8.55036 21.6283 11.4997C21.8167 14.449 19.5561 16.9693 16.5959 17.157C13.6356 17.3447 11.106 15.0925 10.9176 12.1432C10.7292 9.19384 12.9898 6.67353 15.95 6.48584Z" fill="url(#paint7_radial_639_6640)"/>
<path d="M16.5959 10.3199C17.4032 10.2663 18.1298 10.883 18.1567 11.7142C18.2106 12.5185 17.5916 13.2424 16.7574 13.2693C15.95 13.3229 15.2234 12.7062 15.1965 11.875C15.1427 11.0707 15.7616 10.3468 16.5959 10.3199Z" fill="#FFFFAB"/>
<path style="mix-blend-mode:screen" d="M31.2355 47.2667C32.6349 47.1863 33.8729 48.2588 33.9536 49.653C34.0343 51.0472 32.9579 52.2806 31.5585 52.361C30.1591 52.4414 28.9212 51.3689 28.8404 49.9747C28.7597 48.5805 29.8362 47.3472 31.2355 47.2667Z" fill="url(#paint8_radial_639_6640)"/>
<path d="M31.5585 49.0899C31.9622 49.0899 32.2851 49.3581 32.312 49.7602C32.339 50.1624 32.0429 50.4842 31.6393 50.511C31.2356 50.511 30.9127 50.2428 30.8857 49.8407C30.8857 49.4385 31.1549 49.1167 31.5585 49.0899Z" fill="#FFFFAB"/>
<path style="mix-blend-mode:screen" d="M8.49547 53.9965C9.19516 53.9429 9.81412 54.4791 9.84103 55.203C9.86794 55.927 9.35663 56.5168 8.63003 56.5436C7.90342 56.5705 7.31137 56.061 7.28446 55.3371C7.25755 54.6132 7.76886 54.0233 8.49547 53.9965Z" fill="url(#paint9_radial_639_6640)"/>
<path d="M8.65704 54.9081C8.84542 54.9081 9.00689 55.0422 9.0338 55.2299C9.0338 55.4175 8.89924 55.6052 8.71086 55.6052C8.52249 55.6052 8.33411 55.4712 8.33411 55.2835C8.33411 55.0958 8.46866 54.9081 8.65704 54.9081Z" fill="#FFFFAB"/>
<path style="mix-blend-mode:screen" d="M44.4758 32.0912C45.1755 32.0376 45.7945 32.5738 45.8214 33.2977C45.8752 33.9948 45.337 34.6115 44.6104 34.6383C43.8838 34.6651 43.2917 34.1557 43.2648 33.4318C43.211 32.7347 43.7492 32.118 44.4758 32.0912Z" fill="url(#paint10_radial_639_6640)"/>
<path d="M44.6374 33.0028C44.8258 33.0028 44.9872 33.1369 45.0141 33.3245C45.0141 33.5122 44.8796 33.6731 44.6912 33.6999C44.5028 33.6999 44.3414 33.5659 44.3145 33.3782C44.3145 33.1905 44.449 33.0028 44.6374 33.0028Z" fill="#FFFFAB"/>
<path style="mix-blend-mode:screen" d="M26.7145 52.1197C27.2528 52.0929 27.6833 52.495 27.7372 53.0045C27.7641 53.5407 27.3604 53.9697 26.8491 54.0233C26.3109 54.0501 25.8803 53.648 25.8265 53.1385C25.7726 52.6291 26.2032 52.1733 26.7145 52.1197Z" fill="url(#paint11_radial_639_6640)"/>
<path d="M26.8222 52.79C26.9567 52.79 27.0913 52.8972 27.0913 53.0313C27.0913 53.1653 26.9836 53.2994 26.8491 53.2994C26.7145 53.2994 26.58 53.1922 26.58 53.0581C26.58 52.924 26.6876 52.79 26.8222 52.79Z" fill="#FFFFAB"/>
<path style="mix-blend-mode:screen" d="M41.5426 51.3421C42.646 51.2885 43.5879 52.1197 43.6686 53.219C43.7224 54.3183 42.8882 55.2567 41.7848 55.3371C40.6815 55.4175 39.7396 54.5596 39.6588 53.4603C39.605 52.361 40.4393 51.4226 41.5426 51.3421Z" fill="url(#paint12_radial_639_6640)"/>
<path d="M41.7848 52.7632C42.0808 52.7632 42.3499 52.9777 42.3768 53.2726C42.3768 53.5675 42.1615 53.8356 41.8655 53.8624C41.5695 53.8624 41.3003 53.648 41.2734 53.353C41.2734 53.0581 41.4887 52.79 41.7848 52.7632Z" fill="#FFFFAB"/>
<path d="M74.0246 60.0292C73.6748 58.9031 76.7157 53.7016 77.4693 53.7284C78.2228 53.7284 77.55 57.1335 77.0925 57.9379C76.635 58.7422 74.1861 60.5922 74.0246 60.0292Z" fill="white"/>
<path style="mix-blend-mode:screen" d="M7.23071 10.0518C7.23071 10.0518 50.9616 -6.70561 74.2129 5.92279C74.2129 5.92279 76.2582 10.7221 77.2001 18.2563C77.2001 18.2563 69.8533 26.7824 55.9401 27.7477C43.9646 28.552 32.312 13.3229 22.1934 11.446C12.1017 9.56921 7.23071 10.0518 7.23071 10.0518Z" fill="url(#paint13_linear_639_6640)"/>
<path d="M6.34261 13.0816C5.50836 13.2156 3.40928 19.7041 3.51693 20.7766C3.65149 21.8491 6.18115 18.4708 6.5579 16.6744C6.93466 14.878 6.3157 13.0816 6.3157 13.0816H6.34261Z" fill="white"/>
<path d="M6.69255 12.0359C5.66992 11.6337 7.47298 8.8721 9.03383 8.17499C10.5947 7.47788 14.4161 6.70034 14.8467 7.39745C15.2772 8.12137 7.84973 12.4649 6.69255 12.0359Z" fill="white"/>
<defs>
<radialGradient id="paint0_radial_639_6640" cx="0" cy="0" r="1" gradientUnits="userSpaceOnUse" gradientTransform="translate(41.4477 63.4223) scale(30.691 83.6588)">
<stop stop-color="#FFBD00"/>
<stop offset="1" stop-color="#FF772C"/>
</radialGradient>
<linearGradient id="paint1_linear_639_6640" x1="40.4994" y1="64.5092" x2="40.4994" y2="0.59788" gradientUnits="userSpaceOnUse">
<stop stop-color="#FFF300"/>
<stop offset="1" stop-color="#FF9700"/>
</linearGradient>
<linearGradient id="paint2_linear_639_6640" x1="40.5102" y1="63.4069" x2="40.5102" y2="1.26854" gradientUnits="userSpaceOnUse">
<stop stop-color="#FFCC00"/>
<stop offset="1" stop-color="#FF9700"/>
</linearGradient>
<linearGradient id="paint3_linear_639_6640" x1="75.7737" y1="54.9886" x2="6.23499" y2="54.9886" gradientUnits="userSpaceOnUse">
<stop stop-color="#40FF79"/>
<stop offset="0.1" stop-color="#3BEE71"/>
<stop offset="0.29" stop-color="#31C45D"/>
<stop offset="0.56" stop-color="#20803D"/>
<stop offset="0.88" stop-color="#092411"/>
<stop offset="1"/>
</linearGradient>
<radialGradient id="paint4_radial_639_6640" cx="0" cy="0" r="1" gradientUnits="userSpaceOnUse" gradientTransform="translate(23.9662 20.7514) rotate(-93.4326) scale(1.90367 1.91067)">
<stop stop-color="#00B359"/>
<stop offset="0.13" stop-color="#009148"/>
<stop offset="0.34" stop-color="#005D2E"/>
<stop offset="0.54" stop-color="#00351A"/>
<stop offset="0.73" stop-color="#00170B"/>
<stop offset="0.89" stop-color="#000603"/>
<stop offset="1"/>
</radialGradient>
<radialGradient id="paint5_radial_639_6640" cx="0" cy="0" r="1" gradientUnits="userSpaceOnUse" gradientTransform="translate(26.5755 12.565) rotate(-93.4326) scale(1.90367 1.91068)">
<stop stop-color="#00B359"/>
<stop offset="0.13" stop-color="#009148"/>
<stop offset="0.34" stop-color="#005D2E"/>
<stop offset="0.54" stop-color="#00351A"/>
<stop offset="0.73" stop-color="#00170B"/>
<stop offset="0.89" stop-color="#000603"/>
<stop offset="1"/>
</radialGradient>
<radialGradient id="paint6_radial_639_6640" cx="0" cy="0" r="1" gradientUnits="userSpaceOnUse" gradientTransform="translate(25.0203 36.0792) rotate(-93.4326) scale(1.90367 1.91068)">
<stop stop-color="#00B359"/>
<stop offset="0.13" stop-color="#009148"/>
<stop offset="0.34" stop-color="#005D2E"/>
<stop offset="0.54" stop-color="#00351A"/>
<stop offset="0.73" stop-color="#00170B"/>
<stop offset="0.89" stop-color="#000603"/>
<stop offset="1"/>
</radialGradient>
<radialGradient id="paint7_radial_639_6640" cx="0" cy="0" r="1" gradientUnits="userSpaceOnUse" gradientTransform="translate(16.2034 11.7858) rotate(-93.4326) scale(5.33564 5.35527)">
<stop stop-color="#00B359"/>
<stop offset="0.13" stop-color="#009148"/>
<stop offset="0.34" stop-color="#005D2E"/>
<stop offset="0.54" stop-color="#00351A"/>
<stop offset="0.73" stop-color="#00170B"/>
<stop offset="0.89" stop-color="#000603"/>
<stop offset="1"/>
</radialGradient>
<radialGradient id="paint8_radial_639_6640" cx="0" cy="0" r="1" gradientUnits="userSpaceOnUse" gradientTransform="translate(31.3418 49.7774) rotate(-93.4326) scale(2.54717 2.55654)">
<stop stop-color="#00B359"/>
<stop offset="0.13" stop-color="#009148"/>
<stop offset="0.34" stop-color="#005D2E"/>
<stop offset="0.54" stop-color="#00351A"/>
<stop offset="0.73" stop-color="#00170B"/>
<stop offset="0.89" stop-color="#000603"/>
<stop offset="1"/>
</radialGradient>
<radialGradient id="paint9_radial_639_6640" cx="0" cy="0" r="1" gradientUnits="userSpaceOnUse" gradientTransform="translate(8.53857 55.2446) rotate(-93.4326) scale(1.28699 1.29172)">
<stop stop-color="#00B359"/>
<stop offset="0.13" stop-color="#009148"/>
<stop offset="0.34" stop-color="#005D2E"/>
<stop offset="0.54" stop-color="#00351A"/>
<stop offset="0.73" stop-color="#00170B"/>
<stop offset="0.89" stop-color="#000603"/>
<stop offset="1"/>
</radialGradient>
<radialGradient id="paint10_radial_639_6640" cx="0" cy="0" r="1" gradientUnits="userSpaceOnUse" gradientTransform="translate(44.5106 33.3609) rotate(-93.4326) scale(1.28699 1.29172)">
<stop stop-color="#00B359"/>
<stop offset="0.13" stop-color="#009148"/>
<stop offset="0.34" stop-color="#005D2E"/>
<stop offset="0.54" stop-color="#00351A"/>
<stop offset="0.73" stop-color="#00170B"/>
<stop offset="0.89" stop-color="#000603"/>
<stop offset="1"/>
</radialGradient>
<radialGradient id="paint11_radial_639_6640" cx="0" cy="0" r="1" gradientUnits="userSpaceOnUse" gradientTransform="translate(26.74 53.0597) rotate(-93.4327) scale(0.938427 0.941883)">
<stop stop-color="#00B359"/>
<stop offset="0.13" stop-color="#009148"/>
<stop offset="0.34" stop-color="#005D2E"/>
<stop offset="0.54" stop-color="#00351A"/>
<stop offset="0.73" stop-color="#00170B"/>
<stop offset="0.89" stop-color="#000603"/>
<stop offset="1"/>
</radialGradient>
<radialGradient id="paint12_radial_639_6640" cx="0" cy="0" r="1" gradientUnits="userSpaceOnUse" gradientTransform="translate(41.6359 53.3008) rotate(-93.4327) scale(1.98411 1.99141)">
<stop stop-color="#00B359"/>
<stop offset="0.13" stop-color="#009148"/>
<stop offset="0.34" stop-color="#005D2E"/>
<stop offset="0.54" stop-color="#00351A"/>
<stop offset="0.73" stop-color="#00170B"/>
<stop offset="0.89" stop-color="#000603"/>
<stop offset="1"/>
</radialGradient>
<linearGradient id="paint13_linear_639_6640" x1="7.23071" y1="14.5026" x2="77.2001" y2="14.5026" gradientUnits="userSpaceOnUse">
<stop stop-color="#7ED140"/>
<stop offset="0.11" stop-color="#74C03B"/>
<stop offset="0.34" stop-color="#5A962E"/>
<stop offset="0.65" stop-color="#315219"/>
<stop offset="1"/>
</linearGradient>
</defs>
</svg>
