<svg width="71" height="66" viewBox="0 0 71 66" fill="none" xmlns="http://www.w3.org/2000/svg">
<path opacity="0.1" d="M64.7882 57.7452C64.6652 57.8777 64.5217 58.0103 64.3577 58.1326C52.2238 67.9924 18.794 67.6457 4.14919 58.7852C3.38057 58.3264 2.86816 57.8369 2.6222 57.3271C-2.57367 46.5701 0.244602 14.1972 8.49446 7.19238C17.349 -0.312025 51.3937 -3.70736 62.3286 5.83629C70.353 12.8309 74.1756 47.9364 64.7882 57.7452Z" fill="#3C3E48"/>
<path d="M62.8025 56.5434C62.6869 56.6686 62.5521 56.7938 62.398 56.9093C50.9969 66.2209 19.586 65.8935 5.82573 57.5256C5.10353 57.0923 4.62206 56.6301 4.39096 56.1486C-0.491113 45.9897 2.15695 15.4166 9.90856 8.80121C18.2283 1.71402 50.2169 -1.49255 60.4914 7.52051C68.0312 14.1262 71.6229 47.28 62.8025 56.5434Z" fill="url(#paint0_linear_83_1480)"/>
<path d="M4.38962 54.1392C9.09836 63.9418 53.1044 64.7218 62.8011 54.534C71.6216 45.2705 68.0299 12.1168 60.4901 5.51103C50.2156 -3.50202 18.227 -0.295457 9.90722 6.80136C2.15561 13.4071 -0.492456 43.9802 4.38962 54.1392Z" fill="url(#paint1_radial_83_1480)"/>
<g style="mix-blend-mode:multiply" filter="url(#filter0_f_83_1480)">
<path d="M11.002 18.9209C17.5898 24.5 29.1493 34.3155 32.5468 37.3759C33.0029 37.789 33.4921 37.999 34 37.999C34.5068 37.999 34.9951 37.791 35.4502 37.3799C38.8506 34.3164 50.4101 24.5 56.998 18.9209C57.4082 18.5742 57.4707 17.9648 57.1386 17.541C56.371 16.5616 55.2265 16 53.9999 16H14C12.7735 16 11.6289 16.5616 10.8614 17.5411C10.5293 17.9648 10.5918 18.5742 11.002 18.9209Z" fill="#CED6FF"/>
<path d="M57.4199 21.9443C57.0654 21.7793 56.6484 21.8369 56.3535 22.0889C52.039 25.7461 46.3545 30.5781 42.0674 34.2656C41.8418 34.459 41.7149 34.7432 41.7198 35.041C41.7247 35.3379 41.8624 35.6181 42.0948 35.8037C46.0782 38.9941 52.0811 43.3828 56.416 46.5019C56.5889 46.6269 56.7939 46.6904 57 46.6904C57.1563 46.6904 57.3124 46.6543 57.4561 46.58C57.7901 46.4091 58 46.0653 58 45.6903V22.8515C57.9999 22.4619 57.7733 22.1074 57.4199 21.9443Z" fill="#CED6FF"/>
<path d="M11.584 46.5019C15.9199 43.3828 21.9239 38.9942 25.9063 35.8037C26.1387 35.6181 26.2764 35.3378 26.2812 35.041C26.2861 34.7432 26.1592 34.459 25.9336 34.2656C21.6464 30.5781 15.9609 25.7461 11.6465 22.0889C11.3496 21.8369 10.9317 21.7813 10.5801 21.9443C10.2266 22.1074 10 22.4619 10 22.8515V45.6904C10 46.0654 10.21 46.4092 10.5439 46.5801C10.6875 46.6544 10.8437 46.6905 11 46.6905C11.2061 46.6905 11.4111 46.627 11.584 46.5019Z" fill="#CED6FF"/>
<path d="M56.7743 49.2227C52.5878 46.2275 44.8759 40.6436 40.2724 36.9072C39.8974 36.6016 39.3544 36.6113 38.9853 36.9297C38.082 37.7178 37.3261 38.3819 36.7899 38.8642C35.1434 40.3505 32.8583 40.3505 31.2079 38.8623C30.6737 38.3808 29.9179 37.7148 29.0145 36.9296C28.6483 36.6093 28.1044 36.5995 27.7284 36.9071C23.1404 40.6308 15.4198 46.2215 11.2264 49.2226C10.993 49.3906 10.8426 49.6493 10.8134 49.9354C10.7851 50.2216 10.8797 50.5057 11.0761 50.7167C11.833 51.5322 12.8994 52 14 52H54C55.1006 52 56.166 51.5322 56.9248 50.7168C57.1201 50.5068 57.2158 50.2226 57.1875 49.9365C57.1581 49.6504 57.0078 49.3907 56.7743 49.2227Z" fill="#CED6FF"/>
</g>
<path d="M13.002 16.9209C19.5898 22.5 31.1493 32.3155 34.5468 35.3759C35.0029 35.789 35.4921 35.999 36 35.999C36.5068 35.999 36.9951 35.791 37.4502 35.3799C40.8506 32.3164 52.4101 22.5 58.998 16.9209C59.4082 16.5742 59.4707 15.9648 59.1386 15.541C58.371 14.5616 57.2265 14 55.9999 14H16C14.7735 14 13.6289 14.5616 12.8614 15.5411C12.5293 15.9648 12.5918 16.5742 13.002 16.9209Z" fill="#FEFFFF"/>
<path d="M59.4199 19.9443C59.0654 19.7793 58.6484 19.8369 58.3535 20.0889C54.039 23.7461 48.3545 28.5781 44.0674 32.2656C43.8418 32.459 43.7149 32.7432 43.7198 33.041C43.7247 33.3379 43.8624 33.6181 44.0948 33.8037C48.0782 36.9941 54.0811 41.3828 58.416 44.5019C58.5889 44.6269 58.7939 44.6904 59 44.6904C59.1563 44.6904 59.3124 44.6543 59.4561 44.58C59.7901 44.4091 60 44.0653 60 43.6903V20.8515C59.9999 20.4619 59.7733 20.1074 59.4199 19.9443Z" fill="#FEFFFF"/>
<path d="M13.584 44.5019C17.9199 41.3828 23.9239 36.9942 27.9063 33.8037C28.1387 33.6181 28.2764 33.3378 28.2812 33.041C28.2861 32.7432 28.1592 32.459 27.9336 32.2656C23.6464 28.5781 17.9609 23.7461 13.6465 20.0889C13.3496 19.8369 12.9317 19.7813 12.5801 19.9443C12.2266 20.1074 12 20.4619 12 20.8515V43.6904C12 44.0654 12.21 44.4092 12.5439 44.5801C12.6875 44.6544 12.8437 44.6905 13 44.6905C13.2061 44.6905 13.4111 44.627 13.584 44.5019Z" fill="#FEFFFF"/>
<path d="M58.7743 47.2227C54.5878 44.2275 46.8759 38.6436 42.2724 34.9072C41.8974 34.6016 41.3544 34.6113 40.9853 34.9297C40.082 35.7178 39.3261 36.3819 38.7899 36.8642C37.1434 38.3505 34.8583 38.3505 33.2079 36.8623C32.6737 36.3808 31.9179 35.7148 31.0145 34.9296C30.6483 34.6093 30.1044 34.5995 29.7284 34.9071C25.1404 38.6308 17.4198 44.2215 13.2264 47.2226C12.993 47.3906 12.8426 47.6493 12.8134 47.9354C12.7851 48.2216 12.8797 48.5057 13.0761 48.7167C13.833 49.5322 14.8994 50 16 50H56C57.1006 50 58.166 49.5322 58.9248 48.7168C59.1201 48.5068 59.2158 48.2226 59.1875 47.9365C59.1581 47.6504 59.0078 47.3907 58.7743 47.2227Z" fill="#FEFFFF"/>
<path style="mix-blend-mode:screen" d="M9.5 8.50001C9.5 8.50001 22.5 -4 57 4C57 4 68 14 65.0251 20.7287C65.0251 20.7287 66 23 62 25C60.993 17.767 48 9.70387 39 7.70346C30.5 7.70346 8 10.5 8 10.5L9.5 8.50001Z" fill="url(#paint2_linear_83_1480)"/>
<path d="M7 11.5377C7 11.5377 8.47329 8.51406 11.8821 6.89633C15.3005 5.27861 25.0165 3.65125 25.575 4.06531C26.1239 4.47937 20.8373 6.38598 18.1026 7.39706C15.3679 8.40814 8.39625 12.3176 7 11.5473V11.5377Z" fill="white"/>
<path style="mix-blend-mode:screen" d="M62.3113 54.1143C62.3113 54.1143 58.5 58.1686 51 59.5C47.2763 60.161 42.9298 61.0465 42.5 60.5C42.0795 59.9561 47.6059 55.4426 50.5103 55.1869C53.4147 54.9312 61.1695 52.9944 62.3138 54.1051L62.3113 54.1143Z" fill="url(#paint3_linear_83_1480)"/>
<path d="M7.35415 13.0096C6.65121 13.1156 4.89867 18.5658 5.0046 19.4613C5.11052 20.3568 7.21934 17.5258 7.54674 16.014C7.87414 14.5118 7.35415 13 7.35415 13V13.0096Z" fill="white"/>
<path style="mix-blend-mode:screen" d="M63.4505 52.0183C64.1597 51.9703 66.3522 46.6817 66.3199 45.7805C66.2875 44.8793 63.9542 47.5283 63.5043 49.0083C63.0551 50.4787 63.4497 52.0279 63.4497 52.0279L63.4505 52.0183Z" fill="url(#paint4_linear_83_1480)"/>
<path d="M60.0316 54.7213C59.6223 53.6892 63.3061 48.9776 64.246 49.0001C65.1859 49.0225 64.3521 52.0963 63.776 52.8142C63.2151 53.5322 60.2287 55.2373 60.0316 54.7213Z" fill="white"/>
<defs>
<filter id="filter0_f_83_1480" x="9" y="15" width="50" height="38" filterUnits="userSpaceOnUse" color-interpolation-filters="sRGB">
<feFlood flood-opacity="0" result="BackgroundImageFix"/>
<feBlend mode="normal" in="SourceGraphic" in2="BackgroundImageFix" result="shape"/>
<feGaussianBlur stdDeviation="0.5" result="effect1_foregroundBlur_83_1480"/>
</filter>
<linearGradient id="paint0_linear_83_1480" x1="38.1866" y1="63.847" x2="38.1866" y2="2.00908" gradientUnits="userSpaceOnUse">
<stop stop-color="#C26900"/>
<stop offset="1" stop-color="#923D00"/>
</linearGradient>
<radialGradient id="paint1_radial_83_1480" cx="0" cy="0" r="1" gradientUnits="userSpaceOnUse" gradientTransform="translate(35.7326 57.4711) scale(25.3388 75.8087)">
<stop stop-color="#FFBD00"/>
<stop offset="1" stop-color="#FF772C"/>
</radialGradient>
<linearGradient id="paint2_linear_83_1480" x1="11.6763" y1="13.8808" x2="57.9957" y2="13.8808" gradientUnits="userSpaceOnUse">
<stop stop-color="#7ED140"/>
<stop offset="0.11" stop-color="#74C03B"/>
<stop offset="0.34" stop-color="#5A962E"/>
<stop offset="0.65" stop-color="#315219"/>
<stop offset="1"/>
</linearGradient>
<linearGradient id="paint3_linear_83_1480" x1="59.6274" y1="56.9107" x2="45.5876" y2="53.0805" gradientUnits="userSpaceOnUse">
<stop stop-color="#7ED140"/>
<stop offset="0.11" stop-color="#74C03B"/>
<stop offset="0.34" stop-color="#5A962E"/>
<stop offset="0.65" stop-color="#315219"/>
<stop offset="1"/>
</linearGradient>
<linearGradient id="paint4_linear_83_1480" x1="65.8258" y1="48.6256" x2="63.7571" y2="48.4559" gradientUnits="userSpaceOnUse">
<stop stop-color="#7ED140"/>
<stop offset="0.11" stop-color="#74C03B"/>
<stop offset="0.34" stop-color="#5A962E"/>
<stop offset="0.65" stop-color="#315219"/>
<stop offset="1"/>
</linearGradient>
</defs>
</svg>
