<svg width="81" height="91" viewBox="0 0 81 91" fill="none" xmlns="http://www.w3.org/2000/svg">
<g style="mix-blend-mode:multiply">
<path d="M40.5 90.5132C62.8675 90.5132 81 87.8269 81 84.5132C81 81.1995 62.8675 78.5132 40.5 78.5132C18.1325 78.5132 0 81.1995 0 84.5132C0 87.8269 18.1325 90.5132 40.5 90.5132Z" fill="#6B54A1"/>
</g>
<path d="M59.0214 41.5481C59.0214 62.3295 53.7001 79.7944 39.1348 82.2894C37.9185 82.5023 30.7118 82.2894 29.4651 82.2894C13.1666 82.2285 0 63.9725 0 41.4568C0 18.9411 13.2578 0.71556 29.5563 0.745986C30.5902 0.745986 39.5301 0.62428 40.5335 0.745986C55.4029 2.84542 59.0518 20.432 59.0214 41.5177V41.5481Z" fill="url(#paint0_radial_521_10556)"/>
<path d="M70 41.5482C70 64.064 56.7422 82.2895 40.4437 82.2591C24.1451 82.2286 10.9482 63.9727 10.9786 41.4874C11.009 18.9717 24.2363 0.715705 40.5349 0.746132C56.8335 0.776558 70.0304 19.0325 70 41.5482Z" fill="url(#paint1_linear_521_10556)"/>
<path style="mix-blend-mode:screen" d="M15.082 20.5243L57.8961 74.4099L64.0993 65.9513L30.6508 3.08984C30.6508 3.08984 22.015 6.64976 15.082 20.5243Z" fill="url(#paint2_linear_521_10556)"/>
<path d="M61.3012 41.5482C61.3012 57.4309 51.966 70.3014 40.4415 70.271C40.0158 70.271 39.5901 70.271 39.1948 70.2101C28.2784 69.3278 19.6426 56.792 19.6426 41.4874C19.6426 26.2132 28.3088 13.7687 39.1644 12.8255C39.6205 12.7951 40.0462 12.7646 40.5023 12.7646C51.9964 12.7646 61.3012 25.6655 61.2708 41.5482H61.3012Z" fill="url(#paint3_radial_521_10556)"/>
<path d="M58.6253 41.5489C58.6253 56.7622 50.0199 69.2371 39.1948 70.2108C28.2784 69.3284 19.6426 56.7927 19.6426 41.4881C19.6426 26.2139 28.3088 13.7694 39.1644 12.8262C50.0199 13.7998 58.6253 26.2747 58.5949 41.5489H58.6253Z" fill="url(#paint4_linear_521_10556)"/>
<path d="M47.4371 34.911C46.8427 34.525 46.0785 34.525 45.3992 34.911L40.6441 38.0956L37.4174 40.1221L32.7472 43.3067C32.1529 43.6927 31.3886 43.6927 30.7093 43.3067L27.0581 40.7976C26.4637 40.4116 26.0392 39.6396 26.0392 38.7711V33.9459C26.0392 33.1739 26.3788 32.4019 27.0581 31.9194L30.7093 29.5068C31.3037 29.1208 32.0679 29.1208 32.7472 29.5068L36.3985 32.0159C36.9929 32.4019 37.4174 33.1739 37.4174 34.0424V37.227L40.6441 35.104V31.8229C40.6441 31.0509 40.3044 30.2788 39.6251 29.7963L32.8321 25.2607C32.2378 24.8747 31.4736 24.8747 30.7943 25.2607L23.8314 29.8928C23.1521 30.2788 22.8125 31.0509 22.8125 31.8229V40.8941C22.8125 41.6662 23.1521 42.4382 23.8314 42.9207L30.7093 47.4563C31.3037 47.8423 32.0679 47.8423 32.7472 47.4563L37.4174 44.3682L40.6441 42.2452L45.3143 39.1571C45.9086 38.7711 46.6728 38.7711 47.3521 39.1571L51.0034 41.5697C51.5978 41.9557 52.0223 42.7277 52.0223 43.5962V48.4213C52.0223 49.1934 51.6827 49.9654 51.0034 50.4479L47.4371 52.8605C46.8427 53.2465 46.0785 53.2465 45.3992 52.8605L41.7479 50.4479C41.1536 50.0619 40.729 49.2899 40.729 48.4213V45.3333L37.5023 47.4563V50.6409C37.5023 51.4129 37.842 52.1849 38.5213 52.6675L45.3992 57.2031C45.9936 57.5891 46.7578 57.5891 47.4371 57.2031L54.315 52.6675C54.9093 52.2815 55.3339 51.5094 55.3339 50.6409V41.4732C55.3339 40.7011 54.9943 39.9291 54.315 39.4466L47.4371 34.911Z" fill="white"/>
<path d="M66.1381 39.2362C67.6889 39.2971 68.9052 40.788 68.8444 42.6136C68.7836 44.4392 67.4761 45.8693 65.9253 45.8084C64.3745 45.7475 63.1582 44.2566 63.219 42.431C63.2798 40.6054 64.5873 39.1754 66.1381 39.2362Z" fill="url(#paint5_radial_521_10556)"/>
<path d="M65.7129 39.6925C67.0508 39.7229 68.0543 41.0312 68.0238 42.583C67.9934 44.1347 66.8683 45.3518 65.5304 45.3214C64.1925 45.291 63.189 43.9826 63.2194 42.4309C63.2802 40.8791 64.3749 39.662 65.7129 39.6925Z" fill="url(#paint6_linear_521_10556)"/>
<path d="M42.0854 4.85246C43.6362 4.91331 44.8525 6.40422 44.7917 8.22981C44.7309 10.0554 43.4233 11.4855 41.8725 11.4246C40.3217 11.3638 39.1054 9.87285 39.1662 8.04725C39.2271 6.22166 40.5346 4.7916 42.0854 4.85246Z" fill="url(#paint7_radial_521_10556)"/>
<path d="M41.6914 5.30964C43.0293 5.34007 44.0328 6.64841 44.0024 8.20017C43.972 9.75193 42.8469 10.969 41.5089 10.9386C40.171 10.9081 39.1675 9.5998 39.1979 8.04804C39.2588 6.49628 40.3534 5.27921 41.6914 5.30964Z" fill="url(#paint8_linear_521_10556)"/>
<path d="M42.0248 72.8569C43.5756 72.9177 44.792 74.4086 44.7311 76.2342C44.6703 78.0598 43.3628 79.4899 41.812 79.429C40.2612 79.3682 39.0449 77.8773 39.1057 76.0517C39.1665 74.2261 40.474 72.796 42.0248 72.8569Z" fill="url(#paint9_radial_521_10556)"/>
<path d="M41.5996 73.3428C42.9375 73.3733 43.941 74.6816 43.9106 76.2334C43.8498 77.7851 42.7551 79.0022 41.4171 78.9718C40.0792 78.9413 39.0757 77.633 39.1061 76.0812C39.1365 74.5295 40.2616 73.3124 41.5996 73.3428Z" fill="url(#paint10_linear_521_10556)"/>
<path d="M15.5678 39.1762C17.1186 39.237 18.3349 40.7279 18.2741 42.5535C18.2133 44.3791 16.9058 45.8092 15.355 45.7483C13.8042 45.6875 12.5879 44.1966 12.6487 42.371C12.7095 40.5454 14.017 39.1153 15.5678 39.1762Z" fill="url(#paint11_radial_521_10556)"/>
<path d="M15.1425 39.6329C16.4805 39.6633 17.4839 40.9717 17.4535 42.5234C17.3927 44.0752 16.298 45.2922 14.9601 45.2618C13.6222 45.2314 12.6187 43.923 12.6491 42.3713C12.6795 40.8195 13.8046 39.6025 15.1425 39.6329Z" fill="url(#paint12_linear_521_10556)"/>
<path style="mix-blend-mode:screen" d="M4.55469 21.2328H15.3798C15.3798 21.2328 18.2686 12.044 29.8843 3.79834L19.12 4.22431C19.12 4.22431 7.65628 11.4963 4.55469 21.2328Z" fill="url(#paint13_linear_521_10556)"/>
<path d="M16.9053 17.0549C16.4796 17.9677 24.3552 13.6775 26.0276 10.4827C27.7 7.28794 28.7643 5.09722 27.9737 4.64082C27.1831 4.18442 19.49 11.3651 16.9053 17.0549Z" fill="white"/>
<path d="M57.1054 73.9528C54.2471 74.7135 61.18 67.5328 61.9098 67.837C62.6396 68.1413 59.6901 73.253 57.1054 73.9528Z" fill="white"/>
<defs>
<radialGradient id="paint0_radial_521_10556" cx="0" cy="0" r="1" gradientUnits="userSpaceOnUse" gradientTransform="translate(29.4736 41.5131) rotate(0.0700435) scale(35.6075 35.6296)">
<stop stop-color="#BD00FF"/>
<stop offset="1" stop-color="#811493"/>
</radialGradient>
<linearGradient id="paint1_linear_521_10556" x1="40.4024" y1="82.2679" x2="40.5021" y2="0.72462" gradientUnits="userSpaceOnUse">
<stop stop-color="#BD00FF"/>
<stop offset="1" stop-color="#EB00FF"/>
</linearGradient>
<linearGradient id="paint2_linear_521_10556" x1="15.0027" y1="38.6972" x2="64.0808" y2="38.7571" gradientUnits="userSpaceOnUse">
<stop stop-color="#D940FF"/>
<stop offset="0.1" stop-color="#D53BEE"/>
<stop offset="0.29" stop-color="#AF31C4"/>
<stop offset="0.55" stop-color="#672080"/>
<stop offset="0.88" stop-color="#200924"/>
<stop offset="1"/>
</linearGradient>
<radialGradient id="paint3_radial_521_10556" cx="0" cy="0" r="1" gradientUnits="userSpaceOnUse" gradientTransform="translate(40.45 41.4963) rotate(0.0700435) scale(25.0864 25.102)">
<stop stop-color="#DB00FF"/>
<stop offset="1" stop-color="#A21FB7"/>
</radialGradient>
<linearGradient id="paint4_linear_521_10556" x1="39.077" y1="70.1876" x2="39.1472" y2="12.803" gradientUnits="userSpaceOnUse">
<stop stop-color="#AD00FF"/>
<stop offset="1" stop-color="#BD00FF"/>
</linearGradient>
<radialGradient id="paint5_radial_521_10556" cx="0" cy="0" r="1" gradientUnits="userSpaceOnUse" gradientTransform="translate(66.0287 42.5199) rotate(0.0592678) scale(3.39021 2.87043)">
<stop stop-color="#DB00FF"/>
<stop offset="1" stop-color="#A21FB7"/>
</radialGradient>
<linearGradient id="paint6_linear_521_10556" x1="71.6823" y1="45.4899" x2="71.6205" y2="39.8892" gradientUnits="userSpaceOnUse">
<stop stop-color="#00FFF4"/>
<stop offset="1" stop-color="#30A7FB"/>
</linearGradient>
<radialGradient id="paint7_radial_521_10556" cx="0" cy="0" r="1" gradientUnits="userSpaceOnUse" gradientTransform="translate(41.976 8.13607) rotate(0.0592677) scale(3.39021 2.87043)">
<stop stop-color="#DB00FF"/>
<stop offset="1" stop-color="#A21FB7"/>
</radialGradient>
<linearGradient id="paint8_linear_521_10556" x1="47.7814" y1="11.1036" x2="47.7206" y2="5.47253" gradientUnits="userSpaceOnUse">
<stop stop-color="#00FFF4"/>
<stop offset="1" stop-color="#30A7FB"/>
</linearGradient>
<radialGradient id="paint9_radial_521_10556" cx="0" cy="0" r="1" gradientUnits="userSpaceOnUse" gradientTransform="translate(41.9155 76.1405) rotate(0.0592677) scale(3.39021 2.87043)">
<stop stop-color="#DB00FF"/>
<stop offset="1" stop-color="#A21FB7"/>
</radialGradient>
<linearGradient id="paint10_linear_521_10556" x1="47.6887" y1="79.1114" x2="47.6269" y2="73.5108" gradientUnits="userSpaceOnUse">
<stop stop-color="#00FFF4"/>
<stop offset="1" stop-color="#30A7FB"/>
</linearGradient>
<radialGradient id="paint11_radial_521_10556" cx="0" cy="0" r="1" gradientUnits="userSpaceOnUse" gradientTransform="translate(15.4584 42.4598) rotate(0.0592677) scale(3.39021 2.87043)">
<stop stop-color="#DB00FF"/>
<stop offset="1" stop-color="#A21FB7"/>
</radialGradient>
<linearGradient id="paint12_linear_521_10556" x1="21.3817" y1="45.4391" x2="21.3198" y2="39.8385" gradientUnits="userSpaceOnUse">
<stop stop-color="#00FFF4"/>
<stop offset="1" stop-color="#30A7FB"/>
</linearGradient>
<linearGradient id="paint13_linear_521_10556" x1="4.51369" y1="12.5027" x2="29.8746" y2="12.5682" gradientUnits="userSpaceOnUse">
<stop stop-color="#D940FF"/>
<stop offset="0.1" stop-color="#D53BEE"/>
<stop offset="0.29" stop-color="#AF31C4"/>
<stop offset="0.55" stop-color="#672080"/>
<stop offset="0.88" stop-color="#200924"/>
<stop offset="1"/>
</linearGradient>
</defs>
</svg>
