<svg width="80" height="69" viewBox="0 0 80 69" fill="none" xmlns="http://www.w3.org/2000/svg">
<path d="M1.32168 55.3638C4.03972 65.9813 71.9369 73.9713 77.5614 62.9516C82.6745 52.9239 78.8262 11.9822 74.4396 4.82339C68.4923 -4.93614 9.74492 1.9009 4.9278 9.59591C0.433612 16.7547 -1.504 44.3709 1.32168 55.3638Z" fill="url(#paint0_radial_144_1608)"/>
<path d="M1.53685 53.4871C4.25489 63.7292 71.7484 69.467 77.3459 58.8227C82.4322 49.1436 78.6646 12.1432 74.305 5.2257C68.3845 -4.15846 9.85243 2.43726 5.06223 9.83734C0.568042 16.7548 -1.26193 42.8696 1.53685 53.4871Z" fill="url(#paint1_linear_144_1608)"/>
<path d="M2.37107 52.6023C5.03529 62.5495 71.1025 68.2604 76.5924 57.9379C81.571 48.5537 77.8303 12.4917 73.5783 5.78873C67.7655 -3.35412 10.4983 3.05392 5.7888 10.2395C1.40226 16.9425 -0.400793 42.2797 2.37107 52.6023Z" fill="url(#paint2_linear_144_1608)"/>
<path d="M18 22.6216L18.494 16.9792C18.494 16.9792 45.5709 13.1237 63 16.1751L62.2494 24.9129C62.2494 24.9129 41.4269 25.3888 18.0003 22.6409L18 22.6216Z" fill="#0029FE"/>
<path d="M18 52.041L18.494 46.3986C18.494 46.3986 45.5709 40.0914 63 43.1428L62.2494 50.6549C62.2494 50.6549 41.4269 54.8082 18.0003 52.0603L18 52.041Z" fill="#0029FE"/>
<path d="M18 37.3313L18.494 29.2373C18.494 29.2373 45.5709 27.8333 63 30.8847L62.2494 35.9452C62.2494 35.9452 41.4269 40.0985 18.0003 37.3506L18 37.3313Z" fill="#0029FE"/>
<path style="mix-blend-mode:screen" d="M75.2737 58.0988C75.2737 58.0988 43.5184 62.9517 5.73499 54.2379C5.73499 54.2379 30.2781 58.206 41.1771 54.2379C59.719 47.4813 70.4028 50.511 75.2737 58.0988Z" fill="url(#paint3_linear_144_1608)"/>
<path style="mix-blend-mode:screen" d="M23.3888 18.8729C24.4383 18.8193 25.3533 19.6237 25.4071 20.6693C25.461 21.715 24.6536 22.6266 23.6041 22.6802C22.5545 22.7338 21.6396 21.9295 21.5857 20.8838C21.5319 19.8382 22.3392 18.9265 23.3888 18.8729Z" fill="url(#paint4_radial_144_1608)"/>
<path d="M23.6309 20.2403C23.927 20.2403 24.1692 20.4548 24.1961 20.7498C24.223 21.0447 23.9808 21.286 23.7117 21.3128C23.4426 21.3396 23.1735 21.0983 23.1465 20.8034C23.1465 20.5084 23.3618 20.2671 23.6579 20.2403H23.6309Z" fill="#FFFFAB"/>
<path style="mix-blend-mode:screen" d="M25.9993 10.6685C27.0489 10.6149 27.9638 11.4192 28.0177 12.4649C28.0715 13.5105 27.2642 14.4222 26.2146 14.4758C25.1651 14.5294 24.2501 13.725 24.1963 12.6794C24.1424 11.6337 24.9498 10.7221 25.9993 10.6685Z" fill="url(#paint5_radial_144_1608)"/>
<path d="M26.2146 12.0359C26.5107 12.0359 26.7529 12.2504 26.7798 12.5185C26.7798 12.8134 26.5645 13.0547 26.2954 13.0816C26.0262 13.1084 25.7571 12.8671 25.7302 12.5989C25.7302 12.304 25.9455 12.0627 26.2415 12.0359H26.2146Z" fill="#FFFFAB"/>
<path style="mix-blend-mode:screen" d="M24.4653 34.1825C25.5148 34.1289 26.4298 34.9333 26.4836 35.9789C26.5374 37.0246 25.7301 37.9362 24.6806 37.9898C23.631 38.0434 22.716 37.2391 22.6622 36.1934C22.6084 35.1478 23.4157 34.2361 24.4653 34.1825Z" fill="url(#paint6_radial_144_1608)"/>
<path d="M24.6807 35.5499C24.9767 35.5499 25.2189 35.7644 25.2458 36.0594C25.2727 36.3543 25.0305 36.5956 24.7345 36.6224C24.4385 36.6224 24.1963 36.4079 24.1694 36.113C24.1694 35.818 24.3847 35.5767 24.6538 35.5499H24.6807Z" fill="#FFFFAB"/>
<path style="mix-blend-mode:screen" d="M15.4501 6.48584C18.4104 6.29816 20.94 8.55036 21.1284 11.4997C21.3168 14.449 19.0562 16.9693 16.096 17.157C13.1357 17.3447 10.6061 15.0925 10.4177 12.1432C10.2293 9.19384 12.4899 6.67353 15.4501 6.48584Z" fill="url(#paint7_radial_144_1608)"/>
<path d="M16.096 10.32C16.9033 10.2663 17.6299 10.883 17.6569 11.7142C17.7107 12.5185 17.0917 13.2425 16.2575 13.2693C15.4501 13.3229 14.7235 12.7062 14.6966 11.875C14.6428 11.0707 15.2618 10.3468 16.096 10.32Z" fill="#FFFFAB"/>
<path style="mix-blend-mode:screen" d="M30.7357 47.2667C32.1351 47.1863 33.373 48.2588 33.4537 49.653C33.5344 51.0472 32.458 52.2806 31.0586 52.361C29.6592 52.4414 28.4213 51.3689 28.3406 49.9747C28.2598 48.5805 29.3363 47.3472 30.7357 47.2667Z" fill="url(#paint8_radial_144_1608)"/>
<path d="M31.0586 49.0899C31.4623 49.0899 31.7853 49.3581 31.8122 49.7602C31.8391 50.1624 31.543 50.4842 31.1394 50.511C30.7357 50.511 30.4128 50.2428 30.3859 49.8407C30.3859 49.4385 30.655 49.1167 31.0586 49.0899Z" fill="#FFFFAB"/>
<path style="mix-blend-mode:screen" d="M7.99559 53.9965C8.69528 53.9429 9.31424 54.4791 9.34116 55.203C9.36807 55.927 8.85675 56.5168 8.13015 56.5436C7.40354 56.5704 6.81149 56.061 6.78458 55.3371C6.75767 54.6132 7.26899 54.0233 7.99559 53.9965Z" fill="url(#paint9_radial_144_1608)"/>
<path d="M8.15716 54.9081C8.34554 54.9081 8.50701 55.0421 8.53392 55.2298C8.53392 55.4175 8.39937 55.6052 8.21099 55.6052C8.02261 55.6052 7.83423 55.4711 7.83423 55.2835C7.83423 55.0958 7.96878 54.9081 8.15716 54.9081Z" fill="#FFFFAB"/>
<path style="mix-blend-mode:screen" d="M43.9759 32.0912C44.6756 32.0376 45.2946 32.5738 45.3215 33.2977C45.3753 33.9948 44.8371 34.6115 44.1105 34.6383C43.3839 34.6651 42.7919 34.1557 42.7649 33.4318C42.7111 32.7347 43.2493 32.118 43.9759 32.0912Z" fill="url(#paint10_radial_144_1608)"/>
<path d="M44.1375 33.0028C44.3259 33.0028 44.4874 33.1369 44.5143 33.3246C44.5143 33.5122 44.3797 33.6731 44.1913 33.6999C44.003 33.6999 43.8415 33.5659 43.8146 33.3782C43.8146 33.1905 43.9491 33.0028 44.1375 33.0028Z" fill="#FFFFAB"/>
<path style="mix-blend-mode:screen" d="M26.2146 52.1197C26.7528 52.0929 27.1834 52.495 27.2372 53.0045C27.2641 53.5407 26.8605 53.9697 26.3491 54.0233C25.8109 54.0501 25.3803 53.648 25.3265 53.1385C25.2727 52.6291 25.7033 52.1733 26.2146 52.1197Z" fill="url(#paint11_radial_144_1608)"/>
<path d="M26.3222 52.79C26.4568 52.79 26.5913 52.8972 26.5913 53.0313C26.5913 53.1653 26.4837 53.2994 26.3491 53.2994C26.2146 53.2994 26.08 53.1922 26.08 53.0581C26.08 52.924 26.1877 52.79 26.3222 52.79Z" fill="#FFFFAB"/>
<path style="mix-blend-mode:screen" d="M41.0427 51.3421C42.146 51.2885 43.0879 52.1197 43.1687 53.2189C43.2225 54.3182 42.3883 55.2567 41.2849 55.3371C40.1815 55.4175 39.2396 54.5595 39.1589 53.4603C39.1051 52.361 39.9393 51.4226 41.0427 51.3421Z" fill="url(#paint12_radial_144_1608)"/>
<path d="M41.2848 52.7632C41.5808 52.7632 41.85 52.9776 41.8769 53.2726C41.8769 53.5675 41.6616 53.8356 41.3655 53.8624C41.0695 53.8624 40.8004 53.6479 40.7735 53.353C40.7735 53.0581 40.9888 52.79 41.2848 52.7632Z" fill="#FFFFAB"/>
<path d="M73.5246 60.0292C73.1748 58.9031 76.2157 53.7016 76.9693 53.7284C77.7228 53.7284 77.05 57.1335 76.5925 57.9379C76.135 58.7422 73.6861 60.5922 73.5246 60.0292Z" fill="white"/>
<path style="mix-blend-mode:screen" d="M6.73077 10.0518C6.73077 10.0518 50.4616 -6.70561 73.713 5.92279C73.713 5.92279 75.7582 10.7221 76.7001 18.2563C76.7001 18.2563 69.3533 26.7824 55.4402 27.7477C43.4647 28.552 31.8121 13.3229 21.6935 11.446C11.6017 9.56921 6.73077 10.0518 6.73077 10.0518Z" fill="url(#paint13_linear_144_1608)"/>
<path d="M5.84268 13.0816C5.00843 13.2156 2.90935 19.7041 3.01699 20.7766C3.15155 21.8491 5.68121 18.4708 6.05797 16.6744C6.43472 14.878 5.81576 13.0816 5.81576 13.0816H5.84268Z" fill="white"/>
<path d="M6.19255 12.0359C5.16992 11.6337 6.97298 8.8721 8.53383 8.17499C10.0947 7.47788 13.9161 6.70034 14.3467 7.39745C14.7772 8.12137 7.34973 12.4649 6.19255 12.0359Z" fill="white"/>
<defs>
<radialGradient id="paint0_radial_144_1608" cx="0" cy="0" r="1" gradientUnits="userSpaceOnUse" gradientTransform="translate(40.5112 80.7724) scale(38.6955 48.7362)">
<stop stop-color="#008CCA"/>
<stop offset="1" stop-color="#003BF1"/>
</radialGradient>
<linearGradient id="paint1_linear_144_1608" x1="40.02" y1="64.5336" x2="40.02" y2="0.58724" gradientUnits="userSpaceOnUse">
<stop stop-color="#92FFF1"/>
<stop offset="1" stop-color="#0098FF"/>
</linearGradient>
<linearGradient id="paint2_linear_144_1608" x1="40.02" y1="63.4075" x2="40.02" y2="1.25752" gradientUnits="userSpaceOnUse">
<stop stop-color="#00EFF1"/>
<stop offset="1" stop-color="#0098FF"/>
</linearGradient>
<linearGradient id="paint3_linear_144_1608" x1="75.2737" y1="54.9886" x2="5.73499" y2="54.9886" gradientUnits="userSpaceOnUse">
<stop stop-color="#40FF79"/>
<stop offset="0.1" stop-color="#3BEE71"/>
<stop offset="0.29" stop-color="#31C45D"/>
<stop offset="0.56" stop-color="#20803D"/>
<stop offset="0.88" stop-color="#092411"/>
<stop offset="1"/>
</linearGradient>
<radialGradient id="paint4_radial_144_1608" cx="0" cy="0" r="1" gradientUnits="userSpaceOnUse" gradientTransform="translate(23.4662 20.7514) rotate(-93.4326) scale(1.90367 1.91067)">
<stop stop-color="#00B359"/>
<stop offset="0.13" stop-color="#009148"/>
<stop offset="0.34" stop-color="#005D2E"/>
<stop offset="0.54" stop-color="#00351A"/>
<stop offset="0.73" stop-color="#00170B"/>
<stop offset="0.89" stop-color="#000603"/>
<stop offset="1"/>
</radialGradient>
<radialGradient id="paint5_radial_144_1608" cx="0" cy="0" r="1" gradientUnits="userSpaceOnUse" gradientTransform="translate(26.0756 12.565) rotate(-93.4326) scale(1.90367 1.91068)">
<stop stop-color="#00B359"/>
<stop offset="0.13" stop-color="#009148"/>
<stop offset="0.34" stop-color="#005D2E"/>
<stop offset="0.54" stop-color="#00351A"/>
<stop offset="0.73" stop-color="#00170B"/>
<stop offset="0.89" stop-color="#000603"/>
<stop offset="1"/>
</radialGradient>
<radialGradient id="paint6_radial_144_1608" cx="0" cy="0" r="1" gradientUnits="userSpaceOnUse" gradientTransform="translate(24.5205 36.0793) rotate(-93.4326) scale(1.90367 1.91068)">
<stop stop-color="#00B359"/>
<stop offset="0.13" stop-color="#009148"/>
<stop offset="0.34" stop-color="#005D2E"/>
<stop offset="0.54" stop-color="#00351A"/>
<stop offset="0.73" stop-color="#00170B"/>
<stop offset="0.89" stop-color="#000603"/>
<stop offset="1"/>
</radialGradient>
<radialGradient id="paint7_radial_144_1608" cx="0" cy="0" r="1" gradientUnits="userSpaceOnUse" gradientTransform="translate(15.7035 11.7858) rotate(-93.4326) scale(5.33564 5.35527)">
<stop stop-color="#00B359"/>
<stop offset="0.13" stop-color="#009148"/>
<stop offset="0.34" stop-color="#005D2E"/>
<stop offset="0.54" stop-color="#00351A"/>
<stop offset="0.73" stop-color="#00170B"/>
<stop offset="0.89" stop-color="#000603"/>
<stop offset="1"/>
</radialGradient>
<radialGradient id="paint8_radial_144_1608" cx="0" cy="0" r="1" gradientUnits="userSpaceOnUse" gradientTransform="translate(30.8419 49.7774) rotate(-93.4326) scale(2.54717 2.55654)">
<stop stop-color="#00B359"/>
<stop offset="0.13" stop-color="#009148"/>
<stop offset="0.34" stop-color="#005D2E"/>
<stop offset="0.54" stop-color="#00351A"/>
<stop offset="0.73" stop-color="#00170B"/>
<stop offset="0.89" stop-color="#000603"/>
<stop offset="1"/>
</radialGradient>
<radialGradient id="paint9_radial_144_1608" cx="0" cy="0" r="1" gradientUnits="userSpaceOnUse" gradientTransform="translate(8.0387 55.2446) rotate(-93.4326) scale(1.28699 1.29172)">
<stop stop-color="#00B359"/>
<stop offset="0.13" stop-color="#009148"/>
<stop offset="0.34" stop-color="#005D2E"/>
<stop offset="0.54" stop-color="#00351A"/>
<stop offset="0.73" stop-color="#00170B"/>
<stop offset="0.89" stop-color="#000603"/>
<stop offset="1"/>
</radialGradient>
<radialGradient id="paint10_radial_144_1608" cx="0" cy="0" r="1" gradientUnits="userSpaceOnUse" gradientTransform="translate(44.0107 33.3609) rotate(-93.4326) scale(1.28699 1.29172)">
<stop stop-color="#00B359"/>
<stop offset="0.13" stop-color="#009148"/>
<stop offset="0.34" stop-color="#005D2E"/>
<stop offset="0.54" stop-color="#00351A"/>
<stop offset="0.73" stop-color="#00170B"/>
<stop offset="0.89" stop-color="#000603"/>
<stop offset="1"/>
</radialGradient>
<radialGradient id="paint11_radial_144_1608" cx="0" cy="0" r="1" gradientUnits="userSpaceOnUse" gradientTransform="translate(26.24 53.0597) rotate(-93.4327) scale(0.938427 0.941883)">
<stop stop-color="#00B359"/>
<stop offset="0.13" stop-color="#009148"/>
<stop offset="0.34" stop-color="#005D2E"/>
<stop offset="0.54" stop-color="#00351A"/>
<stop offset="0.73" stop-color="#00170B"/>
<stop offset="0.89" stop-color="#000603"/>
<stop offset="1"/>
</radialGradient>
<radialGradient id="paint12_radial_144_1608" cx="0" cy="0" r="1" gradientUnits="userSpaceOnUse" gradientTransform="translate(41.136 53.3008) rotate(-93.4327) scale(1.98411 1.99141)">
<stop stop-color="#00B359"/>
<stop offset="0.13" stop-color="#009148"/>
<stop offset="0.34" stop-color="#005D2E"/>
<stop offset="0.54" stop-color="#00351A"/>
<stop offset="0.73" stop-color="#00170B"/>
<stop offset="0.89" stop-color="#000603"/>
<stop offset="1"/>
</radialGradient>
<linearGradient id="paint13_linear_144_1608" x1="6.73077" y1="14.5026" x2="76.7001" y2="14.5026" gradientUnits="userSpaceOnUse">
<stop stop-color="#7ED140"/>
<stop offset="0.11" stop-color="#74C03B"/>
<stop offset="0.34" stop-color="#5A962E"/>
<stop offset="0.65" stop-color="#315219"/>
<stop offset="1"/>
</linearGradient>
</defs>
</svg>
