<svg width="80" height="69" viewBox="0 0 80 69" fill="none" xmlns="http://www.w3.org/2000/svg">
<path d="M1.32168 55.3638C4.03972 65.9813 71.9369 73.9713 77.5614 62.9516C82.6745 52.9239 78.8262 11.9822 74.4396 4.82339C68.4923 -4.93614 9.74492 1.9009 4.9278 9.59591C0.433612 16.7547 -1.504 44.3709 1.32168 55.3638Z" fill="url(#paint0_radial_541_7010)"/>
<path d="M1.53685 53.487C4.25489 63.7292 71.7484 69.4669 77.3459 58.8226C82.4322 49.1435 78.6646 12.1431 74.305 5.22564C68.3845 -4.15852 9.85243 2.4372 5.06223 9.83728C0.568042 16.7547 -1.26193 42.8695 1.53685 53.487Z" fill="url(#paint1_linear_541_7010)"/>
<path d="M2.37107 52.6024C5.03529 62.5496 71.1025 68.2605 76.5924 57.9379C81.571 48.5538 77.8303 12.4918 73.5783 5.78879C67.7655 -3.35406 10.4983 3.05398 5.7888 10.2396C1.40226 16.9425 -0.400793 42.2798 2.37107 52.6024Z" fill="url(#paint2_linear_541_7010)"/>
<path d="M20.6287 11C20.6287 11 19.3567 15.3944 20.4313 19.1297H57.5175C57.5175 19.1297 59.1623 17.1302 58.9869 13.2192L20.6506 11H20.6287Z" fill="#0029FE"/>
<path d="M20.87 28.7754C20.87 28.7754 19.5979 33.1699 20.6726 36.9051H57.7587C57.7587 36.9051 59.2282 33.3896 58.1316 28.7754H20.87Z" fill="#0029FE"/>
<path d="M20.8261 45.6061C20.8261 45.6061 19.5979 48.2647 20.6725 52H57.7587C57.7587 52 59.2281 48.4845 58.1315 43.8703L20.848 45.6061H20.8261Z" fill="#0029FE"/>
<path style="mix-blend-mode:screen" d="M75.2737 58.0987C75.2737 58.0987 43.5184 62.9517 5.73499 54.2378C5.73499 54.2378 30.2781 58.206 41.1771 54.2378C59.719 47.4812 70.4028 50.5109 75.2737 58.0987Z" fill="url(#paint3_linear_541_7010)"/>
<path style="mix-blend-mode:screen" d="M23.3888 18.873C24.4383 18.8194 25.3533 19.6237 25.4071 20.6694C25.461 21.7151 24.6536 22.6267 23.6041 22.6803C22.5545 22.7339 21.6396 21.9296 21.5857 20.8839C21.5319 19.8382 22.3392 18.9266 23.3888 18.873Z" fill="url(#paint4_radial_541_7010)"/>
<path d="M23.6309 20.2405C23.927 20.2405 24.1692 20.455 24.1961 20.7499C24.223 21.0448 23.9808 21.2861 23.7117 21.313C23.4426 21.3398 23.1735 21.0985 23.1465 20.8035C23.1465 20.5086 23.3618 20.2673 23.6579 20.2405H23.6309Z" fill="#FFFFAB"/>
<path style="mix-blend-mode:screen" d="M25.9993 10.6685C27.0489 10.6149 27.9638 11.4193 28.0177 12.4649C28.0715 13.5106 27.2642 14.4222 26.2146 14.4758C25.1651 14.5295 24.2501 13.7251 24.1963 12.6794C24.1424 11.6338 24.9498 10.7222 25.9993 10.6685Z" fill="url(#paint5_radial_541_7010)"/>
<path d="M26.2146 12.036C26.5107 12.036 26.7529 12.2505 26.7798 12.5186C26.7798 12.8136 26.5645 13.0549 26.2954 13.0817C26.0262 13.1085 25.7571 12.8672 25.7302 12.5991C25.7302 12.3041 25.9455 12.0628 26.2415 12.036H26.2146Z" fill="#FFFFAB"/>
<path style="mix-blend-mode:screen" d="M24.4653 34.1826C25.5148 34.129 26.4298 34.9333 26.4836 35.979C26.5374 37.0246 25.7301 37.9363 24.6806 37.9899C23.631 38.0435 22.716 37.2391 22.6622 36.1935C22.6084 35.1478 23.4157 34.2362 24.4653 34.1826Z" fill="url(#paint6_radial_541_7010)"/>
<path d="M24.6807 35.55C24.9767 35.55 25.2189 35.7645 25.2458 36.0595C25.2727 36.3544 25.0305 36.5957 24.7345 36.6225C24.4385 36.6225 24.1963 36.408 24.1694 36.1131C24.1694 35.8182 24.3847 35.5769 24.6538 35.55H24.6807Z" fill="#FFFFAB"/>
<path style="mix-blend-mode:screen" d="M15.4501 6.4859C18.4104 6.29822 20.94 8.55042 21.1284 11.4997C21.3168 14.449 19.0562 16.9694 16.096 17.157C13.1357 17.3447 10.6061 15.0925 10.4177 12.1432C10.2293 9.19391 12.4899 6.67359 15.4501 6.4859Z" fill="url(#paint7_radial_541_7010)"/>
<path d="M16.096 10.32C16.9033 10.2664 17.6299 10.8831 17.6569 11.7142C17.7107 12.5186 17.0917 13.2425 16.2575 13.2693C15.4501 13.323 14.7235 12.7063 14.6966 11.8751C14.6428 11.0708 15.2618 10.3468 16.096 10.32Z" fill="#FFFFAB"/>
<path style="mix-blend-mode:screen" d="M30.7357 47.2668C32.1351 47.1864 33.373 48.2589 33.4537 49.6531C33.5344 51.0473 32.458 52.2806 31.0586 52.3611C29.6592 52.4415 28.4213 51.369 28.3406 49.9748C28.2598 48.5806 29.3363 47.3473 30.7357 47.2668Z" fill="url(#paint8_radial_541_7010)"/>
<path d="M31.0586 49.0901C31.4623 49.0901 31.7853 49.3582 31.8122 49.7604C31.8391 50.1626 31.543 50.4843 31.1394 50.5111C30.7357 50.5111 30.4128 50.243 30.3859 49.8408C30.3859 49.4386 30.655 49.1169 31.0586 49.0901Z" fill="#FFFFAB"/>
<path style="mix-blend-mode:screen" d="M7.99559 53.9966C8.69528 53.943 9.31424 54.4792 9.34116 55.2032C9.36807 55.9271 8.85675 56.5169 8.13015 56.5437C7.40354 56.5706 6.81149 56.0611 6.78458 55.3372C6.75767 54.6133 7.26899 54.0234 7.99559 53.9966Z" fill="url(#paint9_radial_541_7010)"/>
<path d="M8.15716 54.9082C8.34554 54.9082 8.50701 55.0423 8.53392 55.2299C8.53392 55.4176 8.39937 55.6053 8.21099 55.6053C8.02261 55.6053 7.83423 55.4713 7.83423 55.2836C7.83423 55.0959 7.96878 54.9082 8.15716 54.9082Z" fill="#FFFFAB"/>
<path style="mix-blend-mode:screen" d="M43.9759 32.0912C44.6756 32.0376 45.2946 32.5738 45.3215 33.2978C45.3753 33.9949 44.8371 34.6115 44.1105 34.6383C43.3839 34.6652 42.7919 34.1557 42.7649 33.4318C42.7111 32.7347 43.2493 32.118 43.9759 32.0912Z" fill="url(#paint10_radial_541_7010)"/>
<path d="M44.1375 33.0028C44.3259 33.0028 44.4874 33.1369 44.5143 33.3246C44.5143 33.5122 44.3797 33.6731 44.1913 33.6999C44.003 33.6999 43.8415 33.5659 43.8146 33.3782C43.8146 33.1905 43.9491 33.0028 44.1375 33.0028Z" fill="#FFFFAB"/>
<path style="mix-blend-mode:screen" d="M26.2146 52.1198C26.7528 52.093 27.1834 52.4952 27.2372 53.0046C27.2641 53.5408 26.8605 53.9698 26.3491 54.0234C25.8109 54.0503 25.3803 53.6481 25.3265 53.1386C25.2727 52.6292 25.7033 52.1734 26.2146 52.1198Z" fill="url(#paint11_radial_541_7010)"/>
<path d="M26.3222 52.79C26.4568 52.79 26.5913 52.8973 26.5913 53.0313C26.5913 53.1654 26.4837 53.2995 26.3491 53.2995C26.2146 53.2995 26.08 53.1922 26.08 53.0582C26.08 52.9241 26.1877 52.79 26.3222 52.79Z" fill="#FFFFAB"/>
<path style="mix-blend-mode:screen" d="M41.0427 51.3422C42.146 51.2886 43.0879 52.1197 43.1687 53.219C43.2225 54.3183 42.3883 55.2567 41.2849 55.3371C40.1815 55.4176 39.2396 54.5596 39.1589 53.4603C39.1051 52.361 39.9393 51.4226 41.0427 51.3422Z" fill="url(#paint12_radial_541_7010)"/>
<path d="M41.2848 52.7632C41.5808 52.7632 41.85 52.9777 41.8769 53.2726C41.8769 53.5675 41.6616 53.8357 41.3655 53.8625C41.0695 53.8625 40.8004 53.648 40.7735 53.353C40.7735 53.0581 40.9888 52.79 41.2848 52.7632Z" fill="#FFFFAB"/>
<path d="M73.5246 60.0292C73.1748 58.9031 76.2157 53.7016 76.9693 53.7284C77.7228 53.7284 77.05 57.1335 76.5925 57.9378C76.135 58.7422 73.6861 60.5922 73.5246 60.0292Z" fill="white"/>
<path style="mix-blend-mode:screen" d="M6.73077 10.0518C6.73077 10.0518 50.4616 -6.70561 73.713 5.92279C73.713 5.92279 75.7582 10.7221 76.7001 18.2563C76.7001 18.2563 69.3533 26.7824 55.4402 27.7477C43.4647 28.552 31.8121 13.3229 21.6935 11.446C11.6017 9.56921 6.73077 10.0518 6.73077 10.0518Z" fill="url(#paint13_linear_541_7010)"/>
<path d="M5.84268 13.0815C5.00843 13.2156 2.90935 19.7041 3.01699 20.7766C3.15155 21.849 5.68121 18.4707 6.05797 16.6743C6.43472 14.8779 5.81576 13.0815 5.81576 13.0815H5.84268Z" fill="white"/>
<path d="M6.19255 12.0359C5.16992 11.6337 6.97298 8.87207 8.53383 8.17496C10.0947 7.47785 13.9161 6.70031 14.3467 7.39742C14.7772 8.12134 7.34973 12.4649 6.19255 12.0359Z" fill="white"/>
<defs>
<radialGradient id="paint0_radial_541_7010" cx="0" cy="0" r="1" gradientUnits="userSpaceOnUse" gradientTransform="translate(40.5112 80.7724) scale(38.6955 48.7362)">
<stop stop-color="#008CCA"/>
<stop offset="1" stop-color="#003BF1"/>
</radialGradient>
<linearGradient id="paint1_linear_541_7010" x1="40.02" y1="64.5335" x2="40.02" y2="0.587179" gradientUnits="userSpaceOnUse">
<stop stop-color="#92FFF1"/>
<stop offset="1" stop-color="#0098FF"/>
</linearGradient>
<linearGradient id="paint2_linear_541_7010" x1="40.02" y1="63.4075" x2="40.02" y2="1.25758" gradientUnits="userSpaceOnUse">
<stop stop-color="#00EFF1"/>
<stop offset="1" stop-color="#0098FF"/>
</linearGradient>
<linearGradient id="paint3_linear_541_7010" x1="75.2737" y1="54.9885" x2="5.73499" y2="54.9885" gradientUnits="userSpaceOnUse">
<stop stop-color="#40FF79"/>
<stop offset="0.1" stop-color="#3BEE71"/>
<stop offset="0.29" stop-color="#31C45D"/>
<stop offset="0.56" stop-color="#20803D"/>
<stop offset="0.88" stop-color="#092411"/>
<stop offset="1"/>
</linearGradient>
<radialGradient id="paint4_radial_541_7010" cx="0" cy="0" r="1" gradientUnits="userSpaceOnUse" gradientTransform="translate(23.4662 20.7515) rotate(-93.4326) scale(1.90367 1.91067)">
<stop stop-color="#00B359"/>
<stop offset="0.13" stop-color="#009148"/>
<stop offset="0.34" stop-color="#005D2E"/>
<stop offset="0.54" stop-color="#00351A"/>
<stop offset="0.73" stop-color="#00170B"/>
<stop offset="0.89" stop-color="#000603"/>
<stop offset="1"/>
</radialGradient>
<radialGradient id="paint5_radial_541_7010" cx="0" cy="0" r="1" gradientUnits="userSpaceOnUse" gradientTransform="translate(26.0756 12.565) rotate(-93.4326) scale(1.90367 1.91068)">
<stop stop-color="#00B359"/>
<stop offset="0.13" stop-color="#009148"/>
<stop offset="0.34" stop-color="#005D2E"/>
<stop offset="0.54" stop-color="#00351A"/>
<stop offset="0.73" stop-color="#00170B"/>
<stop offset="0.89" stop-color="#000603"/>
<stop offset="1"/>
</radialGradient>
<radialGradient id="paint6_radial_541_7010" cx="0" cy="0" r="1" gradientUnits="userSpaceOnUse" gradientTransform="translate(24.5205 36.0793) rotate(-93.4326) scale(1.90367 1.91068)">
<stop stop-color="#00B359"/>
<stop offset="0.13" stop-color="#009148"/>
<stop offset="0.34" stop-color="#005D2E"/>
<stop offset="0.54" stop-color="#00351A"/>
<stop offset="0.73" stop-color="#00170B"/>
<stop offset="0.89" stop-color="#000603"/>
<stop offset="1"/>
</radialGradient>
<radialGradient id="paint7_radial_541_7010" cx="0" cy="0" r="1" gradientUnits="userSpaceOnUse" gradientTransform="translate(15.7035 11.7859) rotate(-93.4326) scale(5.33564 5.35527)">
<stop stop-color="#00B359"/>
<stop offset="0.13" stop-color="#009148"/>
<stop offset="0.34" stop-color="#005D2E"/>
<stop offset="0.54" stop-color="#00351A"/>
<stop offset="0.73" stop-color="#00170B"/>
<stop offset="0.89" stop-color="#000603"/>
<stop offset="1"/>
</radialGradient>
<radialGradient id="paint8_radial_541_7010" cx="0" cy="0" r="1" gradientUnits="userSpaceOnUse" gradientTransform="translate(30.8419 49.7775) rotate(-93.4326) scale(2.54717 2.55654)">
<stop stop-color="#00B359"/>
<stop offset="0.13" stop-color="#009148"/>
<stop offset="0.34" stop-color="#005D2E"/>
<stop offset="0.54" stop-color="#00351A"/>
<stop offset="0.73" stop-color="#00170B"/>
<stop offset="0.89" stop-color="#000603"/>
<stop offset="1"/>
</radialGradient>
<radialGradient id="paint9_radial_541_7010" cx="0" cy="0" r="1" gradientUnits="userSpaceOnUse" gradientTransform="translate(8.0387 55.2447) rotate(-93.4326) scale(1.28699 1.29172)">
<stop stop-color="#00B359"/>
<stop offset="0.13" stop-color="#009148"/>
<stop offset="0.34" stop-color="#005D2E"/>
<stop offset="0.54" stop-color="#00351A"/>
<stop offset="0.73" stop-color="#00170B"/>
<stop offset="0.89" stop-color="#000603"/>
<stop offset="1"/>
</radialGradient>
<radialGradient id="paint10_radial_541_7010" cx="0" cy="0" r="1" gradientUnits="userSpaceOnUse" gradientTransform="translate(44.0107 33.3609) rotate(-93.4326) scale(1.28699 1.29172)">
<stop stop-color="#00B359"/>
<stop offset="0.13" stop-color="#009148"/>
<stop offset="0.34" stop-color="#005D2E"/>
<stop offset="0.54" stop-color="#00351A"/>
<stop offset="0.73" stop-color="#00170B"/>
<stop offset="0.89" stop-color="#000603"/>
<stop offset="1"/>
</radialGradient>
<radialGradient id="paint11_radial_541_7010" cx="0" cy="0" r="1" gradientUnits="userSpaceOnUse" gradientTransform="translate(26.24 53.0598) rotate(-93.4327) scale(0.938427 0.941883)">
<stop stop-color="#00B359"/>
<stop offset="0.13" stop-color="#009148"/>
<stop offset="0.34" stop-color="#005D2E"/>
<stop offset="0.54" stop-color="#00351A"/>
<stop offset="0.73" stop-color="#00170B"/>
<stop offset="0.89" stop-color="#000603"/>
<stop offset="1"/>
</radialGradient>
<radialGradient id="paint12_radial_541_7010" cx="0" cy="0" r="1" gradientUnits="userSpaceOnUse" gradientTransform="translate(41.136 53.3009) rotate(-93.4327) scale(1.98411 1.99141)">
<stop stop-color="#00B359"/>
<stop offset="0.13" stop-color="#009148"/>
<stop offset="0.34" stop-color="#005D2E"/>
<stop offset="0.54" stop-color="#00351A"/>
<stop offset="0.73" stop-color="#00170B"/>
<stop offset="0.89" stop-color="#000603"/>
<stop offset="1"/>
</radialGradient>
<linearGradient id="paint13_linear_541_7010" x1="6.73077" y1="14.5026" x2="76.7001" y2="14.5026" gradientUnits="userSpaceOnUse">
<stop stop-color="#7ED140"/>
<stop offset="0.11" stop-color="#74C03B"/>
<stop offset="0.34" stop-color="#5A962E"/>
<stop offset="0.65" stop-color="#315219"/>
<stop offset="1"/>
</linearGradient>
</defs>
</svg>
