<svg width="71" height="66" viewBox="0 0 71 66" fill="none" xmlns="http://www.w3.org/2000/svg">
<path opacity="0.1" d="M64.7882 57.7452C64.6652 57.8777 64.5217 58.0103 64.3577 58.1326C52.2238 67.9924 18.794 67.6457 4.14919 58.7852C3.38057 58.3264 2.86816 57.8369 2.6222 57.3271C-2.57367 46.5701 0.244602 14.1972 8.49446 7.19238C17.349 -0.312025 51.3937 -3.70736 62.3286 5.83629C70.353 12.8309 74.1756 47.9364 64.7882 57.7452Z" fill="#3C3E48"/>
<path d="M62.8026 56.5434C62.687 56.6686 62.5522 56.7938 62.3982 56.9093C50.997 66.2209 19.5862 65.8935 5.82585 57.5256C5.10365 57.0923 4.62218 56.6301 4.39108 56.1486C-0.490991 45.9897 2.15708 15.4166 9.90869 8.80121C18.2284 1.71402 50.2171 -1.49255 60.4916 7.52051C68.0313 14.1262 71.6231 47.28 62.8026 56.5434Z" fill="url(#paint0_linear_294_6241)"/>
<path d="M4.38961 54.1392C9.09836 63.9418 53.1044 64.7218 62.8011 54.534C71.6216 45.2705 68.0299 12.1168 60.4901 5.51103C50.2156 -3.50202 18.227 -0.295457 9.90722 6.80136C2.15561 13.4071 -0.492456 43.9802 4.38961 54.1392Z" fill="url(#paint1_radial_294_6241)"/>
<g style="mix-blend-mode:multiply" filter="url(#filter0_f_294_6241)">
<path d="M60 25.3652V49.4309C60 50.2977 59.3112 51 58.4616 51H10.5386C9.68878 51 9 50.2978 9 49.4309V25.3652C9 24.4983 9.68878 23.7962 10.5386 23.7962H14.0516L13.6597 26.8528C13.58 27.4704 13.7901 28.1023 14.224 28.5478C14.5989 28.9301 15.098 29.141 15.6277 29.141L16.8993 28.9728C16.5707 30.6551 15.1156 31.9227 13.3691 31.9227C12.9135 31.9227 12.4787 31.8318 12.0766 31.6749V42.8798C12.4778 42.7223 12.9129 42.6323 13.3691 42.6323C15.3577 42.6323 16.9701 44.2759 16.9701 46.3031C16.9701 46.8613 16.8444 47.3883 16.6254 47.8615H52.2805C52.0631 47.3877 51.9358 46.8606 51.9358 46.3031C51.9358 44.2763 53.5475 42.6323 55.5368 42.6323C56.0273 42.6323 56.4949 42.7327 56.9215 42.9142V31.6412C56.4948 31.8226 56.0271 31.9234 55.5368 31.9234C53.5486 31.9234 51.9358 30.2801 51.9358 28.2526C51.9358 27.7875 52.0245 27.3438 52.1798 26.9341H30.5159C30.9505 26.6185 31.2541 26.1306 31.328 25.5741C31.4231 24.9006 31.1778 24.2394 30.7068 23.7962H44.4603C43.9217 22.8235 43.2606 21.9143 42.4684 21.106C37.873 16.4209 30.5093 16.2652 25.7138 20.6115L23.8601 22.5017L29.3738 24.9396C29.5592 25.0211 29.668 25.219 29.6391 25.4223C29.612 25.6257 29.4537 25.785 29.2539 25.8113L15.5214 27.6418C15.3834 27.6599 15.2456 27.6137 15.1466 27.5119C15.0486 27.4114 15.0017 27.2702 15.0198 27.1304L16.8151 13.1283C16.828 13.0247 16.8739 12.9343 16.9419 12.8647C17.0089 12.7954 17.0975 12.7492 17.1959 12.7348C17.3954 12.7057 17.5898 12.8169 17.6703 13.0056L20.0609 18.6272L21.4075 17.2624L21.3877 17.2416C21.8672 16.7522 22.3714 16.3003 22.8892 15.8798C23.2315 15.5975 23.6218 15.2923 23.9456 15.0874C30.7861 10.3487 40.2006 11.0635 46.2583 17.2415C48.1023 19.1211 49.4762 21.3633 50.3428 23.7962H58.4616C59.3095 23.7962 60 24.4983 60 25.3652ZM27.0886 42.8515H30.049C28.602 41.5671 27.683 39.6797 27.683 37.5696C27.683 35.2614 28.7822 33.2199 30.4718 31.9429H27.0887V28.4915H41.9109V31.9429H38.64C40.3289 33.2199 41.4275 35.2613 41.4275 37.5696C41.4275 39.6797 40.5104 41.5665 39.0632 42.8515H41.911V46.3031H27.0886V42.8515ZM33.4093 37.7699C32.196 38.3246 31.3498 39.5633 31.3498 41.007H38.3093C38.3093 39.4786 37.3608 38.1807 36.0338 37.6818C36.7321 37.2192 37.1952 36.4169 37.1952 35.5045C37.1952 34.0723 36.0553 32.9097 34.6506 32.9097C33.2454 32.9097 32.1056 34.0723 32.1056 35.5045C32.1043 36.4803 32.6312 37.3263 33.4093 37.7699Z" fill="#CED6FF"/>
</g>
<path d="M62 23.3652V47.4309C62 48.2977 61.3112 49 60.4616 49H12.5386C11.6888 49 11 48.2978 11 47.4309V23.3652C11 22.4983 11.6888 21.7962 12.5386 21.7962H16.0516L15.6597 24.8528C15.58 25.4704 15.7901 26.1023 16.224 26.5478C16.5989 26.9301 17.098 27.141 17.6277 27.141L18.8993 26.9728C18.5707 28.6551 17.1156 29.9227 15.3691 29.9227C14.9135 29.9227 14.4787 29.8318 14.0766 29.6749V40.8798C14.4778 40.7223 14.9129 40.6323 15.3691 40.6323C17.3577 40.6323 18.9701 42.2759 18.9701 44.3031C18.9701 44.8613 18.8444 45.3883 18.6254 45.8615H54.2805C54.0631 45.3877 53.9358 44.8606 53.9358 44.3031C53.9358 42.2763 55.5475 40.6323 57.5368 40.6323C58.0273 40.6323 58.4949 40.7327 58.9215 40.9142V29.6412C58.4948 29.8226 58.0271 29.9234 57.5368 29.9234C55.5486 29.9234 53.9358 28.2801 53.9358 26.2526C53.9358 25.7875 54.0245 25.3438 54.1798 24.9341H32.5159C32.9505 24.6185 33.2541 24.1306 33.328 23.5741C33.4231 22.9006 33.1778 22.2394 32.7068 21.7962H46.4603C45.9217 20.8235 45.2606 19.9143 44.4684 19.106C39.873 14.4209 32.5093 14.2652 27.7138 18.6115L25.8601 20.5017L31.3738 22.9396C31.5592 23.0211 31.668 23.219 31.6391 23.4223C31.612 23.6257 31.4537 23.785 31.2539 23.8113L17.5214 25.6418C17.3834 25.6599 17.2456 25.6137 17.1466 25.5119C17.0486 25.4114 17.0017 25.2702 17.0198 25.1304L18.8151 11.1283C18.828 11.0247 18.8739 10.9343 18.9419 10.8647C19.0089 10.7954 19.0975 10.7492 19.1959 10.7348C19.3954 10.7057 19.5898 10.8169 19.6703 11.0056L22.0609 16.6272L23.4075 15.2624L23.3877 15.2416C23.8672 14.7522 24.3714 14.3003 24.8892 13.8798C25.2315 13.5975 25.6218 13.2923 25.9456 13.0874C32.7861 8.34868 42.2006 9.06354 48.2583 15.2415C50.1023 17.1211 51.4762 19.3633 52.3428 21.7962H60.4616C61.3095 21.7962 62 22.4983 62 23.3652ZM29.0886 40.8515H32.049C30.602 39.5671 29.683 37.6797 29.683 35.5696C29.683 33.2614 30.7822 31.2199 32.4718 29.9429H29.0887V26.4915H43.9109V29.9429H40.64C42.3289 31.2199 43.4275 33.2613 43.4275 35.5696C43.4275 37.6797 42.5104 39.5665 41.0632 40.8515H43.911V44.3031H29.0886V40.8515ZM35.4093 35.7699C34.196 36.3246 33.3498 37.5633 33.3498 39.007H40.3093C40.3093 37.4786 39.3608 36.1807 38.0338 35.6818C38.7321 35.2192 39.1952 34.4169 39.1952 33.5045C39.1952 32.0723 38.0553 30.9097 36.6506 30.9097C35.2454 30.9097 34.1056 32.0723 34.1056 33.5045C34.1043 34.4803 34.6312 35.3263 35.4093 35.7699Z" fill="#00FEEF"/>
<path style="mix-blend-mode:screen" d="M9.5 8.50001C9.5 8.50001 22.5 -4 57 4C57 4 68 14 65.0251 20.7287C65.0251 20.7287 66 23 62 25C60.993 17.767 48 9.70387 39 7.70346C30.5 7.70346 8 10.5 8 10.5L9.5 8.50001Z" fill="url(#paint2_linear_294_6241)"/>
<path d="M7 11.5377C7 11.5377 8.47329 8.51406 11.8821 6.89633C15.3005 5.27861 25.0165 3.65125 25.575 4.06531C26.1239 4.47937 20.8373 6.38598 18.1026 7.39706C15.3679 8.40814 8.39625 12.3176 7 11.5473V11.5377Z" fill="white"/>
<path style="mix-blend-mode:screen" d="M62.3114 54.1143C62.3114 54.1143 58.5002 58.1686 51.0002 59.5C47.2765 60.161 42.93 61.0465 42.5002 60.5C42.0796 59.9561 47.6061 55.4426 50.5105 55.1869C53.4149 54.9312 61.1697 52.9944 62.314 54.1051L62.3114 54.1143Z" fill="url(#paint3_linear_294_6241)"/>
<path d="M7.35415 13.0096C6.65121 13.1156 4.89867 18.5658 5.0046 19.4613C5.11052 20.3568 7.21934 17.5258 7.54674 16.014C7.87414 14.5118 7.35415 13 7.35415 13V13.0096Z" fill="white"/>
<path style="mix-blend-mode:screen" d="M63.4504 52.0183C64.1597 51.9703 66.3521 46.6817 66.3198 45.7805C66.2875 44.8793 63.9542 47.5283 63.5042 49.0083C63.055 50.4787 63.4496 52.0279 63.4496 52.0279L63.4504 52.0183Z" fill="url(#paint4_linear_294_6241)"/>
<path d="M60.0316 54.7213C59.6223 53.6892 63.3061 48.9776 64.246 49.0001C65.1859 49.0225 64.3521 52.0963 63.776 52.8142C63.2151 53.5322 60.2287 55.2373 60.0316 54.7213Z" fill="white"/>
<defs>
<filter id="filter0_f_294_6241" x="8" y="11" width="53" height="41" filterUnits="userSpaceOnUse" color-interpolation-filters="sRGB">
<feFlood flood-opacity="0" result="BackgroundImageFix"/>
<feBlend mode="normal" in="SourceGraphic" in2="BackgroundImageFix" result="shape"/>
<feGaussianBlur stdDeviation="0.5" result="effect1_foregroundBlur_294_6241"/>
</filter>
<linearGradient id="paint0_linear_294_6241" x1="38.1867" y1="63.847" x2="38.1867" y2="2.00908" gradientUnits="userSpaceOnUse">
<stop stop-color="#008EC2"/>
<stop offset="1" stop-color="#002092"/>
</linearGradient>
<radialGradient id="paint1_radial_294_6241" cx="0" cy="0" r="1" gradientUnits="userSpaceOnUse" gradientTransform="translate(38.2044 55.9585) rotate(-3.94662) scale(33.5105 282.839)">
<stop stop-color="#00D3C2"/>
<stop offset="1" stop-color="#0083C2"/>
</radialGradient>
<linearGradient id="paint2_linear_294_6241" x1="11.6763" y1="13.8808" x2="57.9957" y2="13.8808" gradientUnits="userSpaceOnUse">
<stop stop-color="#7ED140"/>
<stop offset="0.11" stop-color="#74C03B"/>
<stop offset="0.34" stop-color="#5A962E"/>
<stop offset="0.65" stop-color="#315219"/>
<stop offset="1"/>
</linearGradient>
<linearGradient id="paint3_linear_294_6241" x1="59.6276" y1="56.9107" x2="45.5878" y2="53.0805" gradientUnits="userSpaceOnUse">
<stop stop-color="#7ED140"/>
<stop offset="0.11" stop-color="#74C03B"/>
<stop offset="0.34" stop-color="#5A962E"/>
<stop offset="0.65" stop-color="#315219"/>
<stop offset="1"/>
</linearGradient>
<linearGradient id="paint4_linear_294_6241" x1="65.8257" y1="48.6256" x2="63.757" y2="48.4559" gradientUnits="userSpaceOnUse">
<stop stop-color="#7ED140"/>
<stop offset="0.11" stop-color="#74C03B"/>
<stop offset="0.34" stop-color="#5A962E"/>
<stop offset="0.65" stop-color="#315219"/>
<stop offset="1"/>
</linearGradient>
</defs>
</svg>
