<svg width="190" height="60" viewBox="0 0 190 60" fill="none" xmlns="http://www.w3.org/2000/svg">
<path d="M2.28133 50.708C6.9752 60.3577 175.144 63.0731 184.83 53.0419C193.642 43.9196 190.058 11.2677 182.526 4.75976C172.264 -4.11571 16.7897 2.11171 8.49005 9.09091C0.723819 15.5988 -2.58323 40.6993 2.28133 50.708Z" fill="url(#paint0_radial_288_5822)"/>
<path d="M2.28133 50.708C6.9752 60.3577 175.144 63.0731 184.83 53.0419C193.642 43.9196 190.058 11.2677 182.526 4.75976C172.264 -4.11571 16.7897 2.11171 8.49005 9.09091C0.723819 15.5988 -2.58323 40.6993 2.28133 50.708Z" fill="url(#paint1_radial_288_5822)"/>
<path d="M2.66533 49.0024C7.33786 58.3155 174.824 58.9775 184.468 49.2942C193.237 40.4972 189.78 11.4135 182.291 5.14121C172.071 -3.40887 16.9816 2.59414 8.70335 9.32648C0.979799 15.5988 -2.19923 39.3527 2.66533 49.0024Z" fill="url(#paint2_linear_288_5822)"/>
<path d="M4.07365 48.1721C8.66084 57.2047 173.693 57.8555 183.124 48.4639C191.701 39.925 188.329 11.7052 180.99 5.61248C170.983 -2.67953 18.0699 3.14395 9.98366 9.67432C2.43079 15.7671 -0.684229 38.8142 4.07365 48.1721Z" fill="url(#paint3_linear_288_5822)"/>
<path style="mix-blend-mode:screen" d="M180.883 48.6321C180.883 48.6321 74.9299 57.6086 9.89844 49.6869C9.89844 49.6869 52.1433 53.2999 70.9401 49.6869C102.858 43.5604 172.498 41.7427 180.883 48.6321Z" fill="url(#paint4_linear_288_5822)"/>
<path style="mix-blend-mode:screen" d="M40.2801 17.5288C42.0937 17.4727 43.6512 18.202 43.7792 19.1558C43.8859 20.1095 42.499 20.9398 40.6855 20.9959C38.872 21.052 37.3144 20.3227 37.1864 19.369C37.0797 18.4152 38.4666 17.5849 40.2801 17.5288Z" fill="url(#paint5_radial_288_5822)"/>
<path d="M40.6643 18.7742C41.1764 18.763 41.6031 18.965 41.6244 19.2231C41.6458 19.4924 41.2617 19.7168 40.771 19.728C40.259 19.7392 39.8322 19.5372 39.8109 19.2792C39.7896 19.0099 40.1736 18.7855 40.6643 18.7742Z" fill="#FFFFAB"/>
<path style="mix-blend-mode:screen" d="M44.7606 10.0783C46.5741 10.0222 48.1316 10.7516 48.2597 11.7053C48.3663 12.6591 46.9795 13.4782 45.166 13.5455C43.3524 13.6016 41.7949 12.8723 41.6669 11.9185C41.5602 10.9648 42.947 10.1457 44.7606 10.0783Z" fill="url(#paint6_radial_288_5822)"/>
<path d="M45.1448 11.3238C45.6569 11.3126 46.0836 11.5146 46.1049 11.7726C46.1263 12.0419 45.7422 12.2663 45.2515 12.2776C44.7394 12.2888 44.3127 12.0868 44.2914 11.8287C44.27 11.5594 44.6541 11.335 45.1448 11.3238Z" fill="#FFFFAB"/>
<path style="mix-blend-mode:screen" d="M42.1151 31.4536C43.9286 31.3975 45.4861 32.1268 45.6141 33.0806C45.7208 34.0343 44.334 34.8534 42.5205 34.9208C40.7069 34.9769 39.1494 34.2475 39.0214 33.2938C38.9147 32.34 40.3015 31.5209 42.1151 31.4536Z" fill="url(#paint7_radial_288_5822)"/>
<path d="M42.5203 32.6991C43.0324 32.6878 43.4591 32.8898 43.4804 33.1479C43.5017 33.4172 43.1177 33.6416 42.627 33.6528C42.1149 33.664 41.6882 33.4621 41.6669 33.204C41.6455 32.9459 42.0296 32.7103 42.5203 32.6991Z" fill="#FFFFAB"/>
<path style="mix-blend-mode:screen" d="M26.5828 6.26337C31.682 6.10628 36.0559 8.14843 36.3546 10.8189C36.6533 13.5006 32.7701 15.8009 27.6922 15.9579C22.593 16.115 18.2191 14.0729 17.9204 11.4024C17.6217 8.72068 21.5049 6.42046 26.5828 6.26337Z" fill="url(#paint8_radial_288_5822)"/>
<path d="M27.6922 9.753C29.1004 9.70812 30.3165 10.2692 30.4019 11.0097C30.4872 11.7503 29.4204 12.3898 28.0123 12.4347C26.6041 12.4796 25.388 11.9186 25.3026 11.178C25.2173 10.4375 26.2841 9.79789 27.6922 9.753Z" fill="#FFFFAB"/>
<path style="mix-blend-mode:screen" d="M52.9112 43.3362C55.3435 43.2577 57.4344 44.2339 57.5838 45.513C57.7331 46.7922 55.8769 47.8918 53.4446 47.9703C51.0123 48.0489 48.9214 47.0727 48.7721 45.7935C48.6227 44.5144 50.4789 43.4148 52.9112 43.3362Z" fill="url(#paint9_radial_288_5822)"/>
<path d="M53.4447 44.9969C54.1274 44.9745 54.7035 45.2438 54.7461 45.6028C54.7888 45.9619 54.2768 46.2648 53.594 46.2873C52.9113 46.3097 52.3352 46.0404 52.2925 45.6814C52.2499 45.3223 52.7619 45.0194 53.4447 44.9969Z" fill="#FFFFAB"/>
<path style="mix-blend-mode:screen" d="M13.7597 49.4514C14.9759 49.4177 16.0213 49.9002 16.0853 50.5398C16.1493 51.1793 15.2319 51.7291 14.0158 51.7628C12.7996 51.7965 11.7542 51.314 11.6902 50.6744C11.6262 50.0348 12.5436 49.485 13.7597 49.4514Z" fill="url(#paint10_radial_288_5822)"/>
<path d="M14.0375 50.2817C14.3789 50.2817 14.6562 50.4052 14.6776 50.5847C14.6776 50.7642 14.4429 50.9101 14.1015 50.9213C13.7601 50.9213 13.4828 50.7979 13.4614 50.6184C13.4614 50.4388 13.6961 50.293 14.0375 50.2817Z" fill="#FFFFAB"/>
<path style="mix-blend-mode:screen" d="M75.7192 29.5461C76.9354 29.5124 77.9808 29.9949 78.0448 30.6345C78.1088 31.2741 77.1914 31.8239 75.9752 31.8575C74.7591 31.8912 73.7136 31.4087 73.6496 30.7691C73.5856 30.1296 74.5031 29.5798 75.7192 29.5461Z" fill="url(#paint11_radial_288_5822)"/>
<path d="M75.9965 30.3765C76.3379 30.3765 76.6152 30.4999 76.6366 30.6794C76.6366 30.859 76.4019 31.0048 76.0605 31.016C75.7191 31.016 75.4417 30.8926 75.4204 30.7131C75.4204 30.5336 75.6551 30.3877 75.9965 30.3765Z" fill="#FFFFAB"/>
<path style="mix-blend-mode:screen" d="M45.1447 47.7459C46.0408 47.7122 46.8302 48.0825 46.8729 48.5538C46.9369 49.025 46.2328 49.4402 45.3367 49.4739C44.4406 49.5075 43.6512 49.1373 43.6085 48.666C43.5445 48.1947 44.2486 47.7796 45.1447 47.7571V47.7459Z" fill="url(#paint12_radial_288_5822)"/>
<path d="M45.3369 48.363C45.5929 48.363 45.8063 48.4528 45.8276 48.5875C45.8276 48.7221 45.6569 48.8343 45.4009 48.8455C45.1449 48.8455 44.9315 48.7558 44.9102 48.6211C44.9102 48.4865 45.0808 48.3743 45.3369 48.363Z" fill="#FFFFAB"/>
<path style="mix-blend-mode:screen" d="M70.6838 47.0389C72.5827 46.9828 74.2042 47.7458 74.3322 48.7444C74.4389 49.7431 72.988 50.5958 71.1105 50.6632C69.2329 50.7305 67.5901 49.9563 67.4621 48.9689C67.3554 47.9702 68.8062 47.1175 70.7051 47.0501L70.6838 47.0389Z" fill="url(#paint13_radial_288_5822)"/>
<path d="M71.0888 48.3405C71.6222 48.3293 72.0703 48.5313 72.0916 48.8118C72.113 49.0923 71.7289 49.3279 71.1955 49.3392C70.6621 49.3504 70.2141 49.1484 70.1927 48.8679C70.1714 48.5874 70.5554 48.3518 71.0888 48.3405Z" fill="#FFFFAB"/>
<path d="M16.7192 21.8435H13.9771L14.1528 19.9451C14.1528 19.4294 13.8364 19.113 13.2036 18.9958H11.2173C10.7603 18.9958 10.5317 19.3416 10.5317 20.033L10.4438 37.7517C10.3853 38.3259 10.7017 38.613 11.3931 38.613H13.1157C13.7485 38.7302 14.1235 38.4138 14.2407 37.6638V35.6951L16.7192 35.783L16.6489 37.7517C16.6489 39.99 15.5298 41.1091 13.2915 41.1091H11.1294C8.78564 41.0505 7.64307 39.8728 7.70166 37.5759L7.94775 19.8572C7.94775 17.7947 9.06689 16.7048 11.3052 16.5876L13.2915 16.4998C15.4126 16.5583 16.5317 17.7361 16.6489 20.033L16.7192 21.8435ZM21.061 30.6326L21.1665 41.197H18.3364L18.2485 16.4294L19.9712 16.5349V16.4998L23.8384 16.4294C26.0767 16.3708 27.1958 17.5427 27.1958 19.9451L27.2661 27.1697C27.3716 29.3025 26.5161 30.4041 24.6997 30.4744L27.7231 40.9333L24.6646 41.2849L21.8872 30.5798L21.061 30.6326ZM20.938 19.1541L21.0259 27.9783L23.5747 27.8552C24.2661 27.7966 24.5825 27.2517 24.5239 26.2205L24.3481 19.9451C24.2896 19.3123 23.8911 19.0251 23.1528 19.0837L20.938 19.1541ZM37.5669 19.3474L31.6255 19.6111V27.2576L36.7056 27.6091L36.6177 30.5271L31.7134 30.1931L31.6255 38.2791L38.0767 38.4373L37.7427 41.3728L28.7075 41.0212L29.0415 16.6755L37.7427 16.4998L37.5669 19.3474ZM39.2544 41.197L42.6997 16.4294L45.1782 16.4998L48.4478 40.9333L45.6177 41.197L45.1782 36.8904L42.436 37.1541L42.1724 41.1091L39.2544 41.197ZM44.8442 34.3064L43.8071 26.572L42.6997 34.5701L44.8442 34.3064ZM47.0942 16.6755L56.3755 16.3416L56.2876 18.9958H52.8599L53.106 41.197L50.3638 41.1091L50.2759 18.908L47.27 18.9958L47.0942 16.6755ZM66.5005 19.3474L60.5591 19.6111V27.2576L65.6392 27.6091L65.5513 30.5271L60.647 30.1931L60.5591 38.2791L67.0103 38.4373L66.6763 41.3728L57.6411 41.0212L57.9751 16.6755L66.6763 16.4998L66.5005 19.3474ZM73.6372 41.3728L73.7251 16.5876L76.7485 16.4998L79.8423 33.0232L79.9302 16.5876L82.4966 16.4998L82.4263 41.0212L79.2446 41.197L76.3091 27.1697L76.2212 41.1091L73.6372 41.3728ZM92.7974 19.3474L86.856 19.6111V27.2576L91.936 27.6091L91.8481 30.5271L86.9438 30.1931L86.856 38.2791L93.3071 38.4373L92.9731 41.3728L83.938 41.0212L84.272 16.6755L92.9731 16.4998L92.7974 19.3474ZM103.678 16.4294L103.625 16.7634L105.313 30.0173L107.036 16.5173L109.954 16.4294L106.508 41.197L104.03 41.1267L102.167 27.2576L100.233 41.197L97.7544 41.1267L94.4849 16.6931L97.3149 16.4294L99.0376 30.0173L100.76 16.5173L103.555 16.4294H103.678ZM117.09 16.4998L116.668 41.0212L122.346 41.197C124.467 41.2556 125.61 40.1072 125.774 37.7517L125.95 20.033C125.95 17.7947 124.749 16.6169 122.346 16.4998H117.09ZM119.323 19.0837L122.17 19.1716C122.745 19.1716 123.061 19.5466 123.12 20.2966L122.944 37.2419C122.944 38.2732 122.458 38.7302 121.485 38.613L119.323 38.4373V19.0837ZM136.075 19.3474L130.133 19.6111V27.2576L135.213 27.6091L135.125 30.5271L130.221 30.1931L130.133 38.2791L136.584 38.4373L136.25 41.3728L127.215 41.0212L127.549 16.6755L136.25 16.4998L136.075 19.3474ZM140.663 30.6326L140.592 41.1091L137.938 41.197L137.85 16.4294L140.258 16.4822L143.44 16.4294C145.678 16.3708 146.797 17.5427 146.797 19.9451L146.868 27.1697C146.985 29.5837 145.872 30.6736 143.528 30.4392L140.663 30.6326ZM140.75 19.1365L140.68 27.9783L143.176 27.8552C143.868 27.7966 144.184 27.2517 144.125 26.2205L143.95 19.9451C143.891 19.3123 143.493 19.0251 142.754 19.0837L140.75 19.1365ZM157.485 37.6814C157.391 39.9666 156.225 41.1091 153.987 41.1091H151.825C149.481 41.0505 148.338 39.8728 148.397 37.5759L148.643 19.8572C148.643 17.7947 149.762 16.7048 152 16.5876L153.987 16.4998C156.108 16.5583 157.227 17.7361 157.344 20.033L157.485 37.6814ZM154.848 19.9451C154.848 19.4294 154.532 19.113 153.899 18.9958H151.913C151.456 18.9958 151.227 19.3416 151.227 20.033L151.139 37.7517C151.081 38.3259 151.397 38.613 152.088 38.613H153.811C154.444 38.7302 154.819 38.4138 154.936 37.6638L154.848 19.9451ZM168.137 21.7556L165.483 21.8435L165.307 20.2966C165.307 19.5466 164.961 19.113 164.27 18.9958L162.635 19.2595C162.237 19.4353 162.008 19.781 161.95 20.2966L161.862 26.3083C161.862 27.0583 162.208 27.4041 162.899 27.3455L164.709 27.4333C166.936 27.4919 168.02 28.9275 167.961 31.74L167.891 37.4177C167.833 40.0544 166.655 41.2556 164.358 41.0212L162.372 41.1091C159.911 41.1677 158.797 39.9373 159.032 37.4177L159.278 35.6072L162.038 35.783L161.862 37.4177C161.862 38.0388 162.149 38.3494 162.723 38.3494L164.27 38.4373C164.961 38.3787 165.336 37.4939 165.395 35.783V31.5642C165.336 30.6501 164.961 30.2166 164.27 30.2634L162.372 30.1931C160.192 29.9001 159.131 28.7224 159.19 26.6599V19.9451C159.307 17.7068 160.397 16.5876 162.459 16.5876L164.534 16.4294C166.819 16.4763 168.02 17.7068 168.137 20.1208V21.7556ZM169.561 16.4294L172.303 16.4998L172.391 41.1091L169.649 41.197L169.561 16.4294ZM174.008 16.6755L183.29 16.3416L183.202 18.9958H179.774L180.02 41.197L177.278 41.1091L177.19 18.908L174.184 18.9958L174.008 16.6755Z" fill="#FF5200"/>
<path d="M177.854 50.3714C177.278 49.3391 182.462 44.6264 183.785 44.6489C185.108 44.6713 183.934 47.7458 183.124 48.4639C182.334 49.182 178.131 50.8875 177.854 50.3714Z" fill="white"/>
<path style="mix-blend-mode:screen" d="M9.68491 9.71925C9.68491 9.71925 141.199 -5.72026 181.246 5.75839C181.246 5.75839 184.766 10.112 186.367 16.9677C186.367 16.9677 173.714 24.7324 149.733 25.5851C129.101 26.3257 54.7034 12.4795 37.3147 10.7628C19.9261 9.04602 9.66357 9.70803 9.66357 9.70803L9.68491 9.71925Z" fill="url(#paint14_linear_288_5822)"/>
<path d="M9.68457 11.3799C9.68457 11.3799 12.7143 8.10353 19.7551 6.3419C26.7959 4.58027 37.6771 5.25351 38.8079 5.69111C39.9601 6.13993 36.9517 7.30687 31.3191 8.39527C25.6651 9.48366 12.5649 12.2103 9.68457 11.3687V11.3799Z" fill="white"/>
<path d="M10.0475 12.2551C8.59662 12.3673 4.96954 18.2806 5.20423 19.2568C5.41759 20.233 9.77009 17.1585 10.4528 15.5203C11.1356 13.8821 10.0475 12.2551 10.0475 12.2551Z" fill="white"/>
<defs>
<radialGradient id="paint0_radial_288_5822" cx="0" cy="0" r="1" gradientUnits="userSpaceOnUse" gradientTransform="translate(97.2507 55.2075) scale(72.8911 72.3278)">
<stop stop-color="#FFBD00"/>
<stop offset="1" stop-color="#FF772C"/>
</radialGradient>
<radialGradient id="paint1_radial_288_5822" cx="0" cy="0" r="1" gradientUnits="userSpaceOnUse" gradientTransform="translate(97.2507 55.2075) scale(72.8911 72.3278)">
<stop stop-color="#FFBD00"/>
<stop offset="1" stop-color="#FF772C"/>
</radialGradient>
<linearGradient id="paint2_linear_288_5822" x1="95.0066" y1="56.2734" x2="95.0066" y2="0.922271" gradientUnits="userSpaceOnUse">
<stop stop-color="#FFF300"/>
<stop offset="1" stop-color="#FF9700"/>
</linearGradient>
<linearGradient id="paint3_linear_288_5822" x1="95.0068" y1="55.2299" x2="95.0068" y2="1.51697" gradientUnits="userSpaceOnUse">
<stop stop-color="#FFCC00"/>
<stop offset="1" stop-color="#FF9700"/>
</linearGradient>
<linearGradient id="paint4_linear_288_5822" x1="180.883" y1="48.5873" x2="9.89844" y2="48.5873" gradientUnits="userSpaceOnUse">
<stop stop-color="#FF6140"/>
<stop offset="0.1" stop-color="#EE5A3B"/>
<stop offset="0.29" stop-color="#C44A31"/>
<stop offset="0.55" stop-color="#803020"/>
<stop offset="0.88" stop-color="#240D09"/>
<stop offset="1"/>
</linearGradient>
<radialGradient id="paint5_radial_288_5822" cx="0" cy="0" r="1" gradientUnits="userSpaceOnUse" gradientTransform="translate(40.4392 19.2722) rotate(-96.483) scale(1.74726 3.29176)">
<stop stop-color="#00B359"/>
<stop offset="0.13" stop-color="#009148"/>
<stop offset="0.34" stop-color="#005D2E"/>
<stop offset="0.54" stop-color="#00351A"/>
<stop offset="0.73" stop-color="#00170B"/>
<stop offset="0.89" stop-color="#000603"/>
<stop offset="1"/>
</radialGradient>
<radialGradient id="paint6_radial_288_5822" cx="0" cy="0" r="1" gradientUnits="userSpaceOnUse" gradientTransform="translate(44.9363 11.8245) rotate(-96.483) scale(1.74726 3.29176)">
<stop stop-color="#00B359"/>
<stop offset="0.13" stop-color="#009148"/>
<stop offset="0.34" stop-color="#005D2E"/>
<stop offset="0.54" stop-color="#00351A"/>
<stop offset="0.73" stop-color="#00170B"/>
<stop offset="0.89" stop-color="#000603"/>
<stop offset="1"/>
</radialGradient>
<radialGradient id="paint7_radial_288_5822" cx="0" cy="0" r="1" gradientUnits="userSpaceOnUse" gradientTransform="translate(42.2782 33.1977) rotate(-96.483) scale(1.74726 3.29176)">
<stop stop-color="#00B359"/>
<stop offset="0.13" stop-color="#009148"/>
<stop offset="0.34" stop-color="#005D2E"/>
<stop offset="0.54" stop-color="#00351A"/>
<stop offset="0.73" stop-color="#00170B"/>
<stop offset="0.89" stop-color="#000603"/>
<stop offset="1"/>
</radialGradient>
<radialGradient id="paint8_radial_288_5822" cx="0" cy="0" r="1" gradientUnits="userSpaceOnUse" gradientTransform="translate(27.1168 11.1256) rotate(-96.483) scale(4.88107 9.1957)">
<stop stop-color="#00B359"/>
<stop offset="0.13" stop-color="#009148"/>
<stop offset="0.34" stop-color="#005D2E"/>
<stop offset="0.54" stop-color="#00351A"/>
<stop offset="0.73" stop-color="#00170B"/>
<stop offset="0.89" stop-color="#000603"/>
<stop offset="1"/>
</radialGradient>
<radialGradient id="paint9_radial_288_5822" cx="0" cy="0" r="1" gradientUnits="userSpaceOnUse" gradientTransform="translate(53.163 45.6587) rotate(-96.483) scale(2.33344 4.39609)">
<stop stop-color="#00B359"/>
<stop offset="0.13" stop-color="#009148"/>
<stop offset="0.34" stop-color="#005D2E"/>
<stop offset="0.54" stop-color="#00351A"/>
<stop offset="0.73" stop-color="#00170B"/>
<stop offset="0.89" stop-color="#000603"/>
<stop offset="1"/>
</radialGradient>
<radialGradient id="paint10_radial_288_5822" cx="0" cy="0" r="1" gradientUnits="userSpaceOnUse" gradientTransform="translate(13.8862 50.6249) rotate(-96.483) scale(1.16108 2.18743)">
<stop stop-color="#00B359"/>
<stop offset="0.13" stop-color="#009148"/>
<stop offset="0.34" stop-color="#005D2E"/>
<stop offset="0.54" stop-color="#00351A"/>
<stop offset="0.73" stop-color="#00170B"/>
<stop offset="0.89" stop-color="#000603"/>
<stop offset="1"/>
</radialGradient>
<radialGradient id="paint11_radial_288_5822" cx="0" cy="0" r="1" gradientUnits="userSpaceOnUse" gradientTransform="translate(75.8325 30.7269) rotate(-96.483) scale(1.16109 2.18743)">
<stop stop-color="#00B359"/>
<stop offset="0.13" stop-color="#009148"/>
<stop offset="0.34" stop-color="#005D2E"/>
<stop offset="0.54" stop-color="#00351A"/>
<stop offset="0.73" stop-color="#00170B"/>
<stop offset="0.89" stop-color="#000603"/>
<stop offset="1"/>
</radialGradient>
<radialGradient id="paint12_radial_288_5822" cx="0" cy="0" r="1" gradientUnits="userSpaceOnUse" gradientTransform="translate(45.2072 48.629) rotate(-96.483) scale(0.867995 1.63526)">
<stop stop-color="#00B359"/>
<stop offset="0.13" stop-color="#009148"/>
<stop offset="0.34" stop-color="#005D2E"/>
<stop offset="0.54" stop-color="#00351A"/>
<stop offset="0.73" stop-color="#00170B"/>
<stop offset="0.89" stop-color="#000603"/>
<stop offset="1"/>
</radialGradient>
<radialGradient id="paint13_radial_288_5822" cx="0" cy="0" r="1" gradientUnits="userSpaceOnUse" gradientTransform="translate(70.8605 48.8568) rotate(-96.483) scale(1.8149 3.41918)">
<stop stop-color="#00B359"/>
<stop offset="0.13" stop-color="#009148"/>
<stop offset="0.34" stop-color="#005D2E"/>
<stop offset="0.54" stop-color="#00351A"/>
<stop offset="0.73" stop-color="#00170B"/>
<stop offset="0.89" stop-color="#000603"/>
<stop offset="1"/>
</radialGradient>
<linearGradient id="paint14_linear_288_5822" x1="9.68491" y1="13.5679" x2="186.388" y2="13.5679" gradientUnits="userSpaceOnUse">
<stop stop-color="#FF9840"/>
<stop offset="0.1" stop-color="#EE8E3B"/>
<stop offset="0.29" stop-color="#C47531"/>
<stop offset="0.55" stop-color="#804C20"/>
<stop offset="0.88" stop-color="#241509"/>
<stop offset="1"/>
</linearGradient>
</defs>
</svg>
