<svg width="80" height="70" viewBox="0 0 80 70" fill="none" xmlns="http://www.w3.org/2000/svg">
<path d="M1.32168 56.3357C4.03972 66.9532 71.9369 74.9432 77.5614 63.9235C82.6745 53.8958 78.8262 12.9541 74.4396 5.79532C68.4923 -3.96421 9.74492 2.87282 4.9278 10.5678C0.433612 17.7266 -1.504 45.3429 1.32168 56.3357Z" fill="url(#paint0_radial_426_7876)"/>
<path d="M1.53703 54.459C4.25507 64.7011 71.7486 70.4388 77.3461 59.7945C82.4323 50.1154 78.6648 13.115 74.3051 6.19756C68.3847 -3.1866 9.85262 3.40912 5.06241 10.8092C0.568225 17.7267 -1.26174 43.8414 1.53703 54.459Z" fill="url(#paint1_linear_426_7876)"/>
<path d="M2.37107 53.5743C5.03529 63.5215 71.1025 69.2324 76.5924 58.9098C81.571 49.5257 77.8303 13.4637 73.5783 6.76072C67.7655 -2.38214 10.4983 4.02591 5.7888 11.2115C1.40226 17.9145 -0.400793 43.2517 2.37107 53.5743Z" fill="url(#paint2_linear_426_7876)"/>
<path d="M64.66 37.3329C64.039 36.8883 62.9342 36.0915 62.0098 35.4014C62.0774 34.7543 62.1128 34.0983 62.1128 33.4336C62.1128 32.7689 62.0774 32.1118 62.0098 31.4658C62.9342 30.7747 64.039 29.979 64.66 29.5343C64.9489 29.3274 65.0696 28.9587 64.96 28.622L64.3179 26.6586L64.3035 26.6135L63.6615 24.6501C63.5519 24.3133 63.2353 24.0855 62.8788 24.0877C62.1139 24.091 60.75 24.0921 59.5954 24.0734C58.9312 22.931 58.1486 21.8645 57.2652 20.8906C57.605 19.7911 58.0279 18.5001 58.267 17.7782C58.3788 17.4414 58.2582 17.0727 57.9704 16.8647L56.2899 15.6508L56.2512 15.6233L54.5707 14.4094C54.2829 14.2014 53.8921 14.2025 53.6054 14.4116C52.9888 14.8606 51.8873 15.6585 50.942 16.3177C49.7464 15.7862 48.4844 15.3757 47.1726 15.1005C46.7973 14.0143 46.3778 12.7244 46.1442 12.0003C46.0357 11.6635 45.7202 11.4346 45.3637 11.4346H42.9527V23.3052C43.0556 23.3019 43.1597 23.2997 43.2626 23.2997C48.8918 23.2997 53.4549 27.8362 53.4549 33.4325C53.4549 39.0288 48.8918 43.5653 43.2626 43.5653C43.1586 43.5653 43.0556 43.5631 42.9527 43.5598V55.4327H45.3637C45.7202 55.4327 46.0357 55.2037 46.1442 54.867C46.3778 54.1428 46.7973 52.854 47.1726 51.7667C48.4844 51.4916 49.7464 51.081 50.942 50.5495C51.8873 51.2098 52.9888 52.0066 53.6054 52.4556C53.8932 52.6647 54.2829 52.6659 54.5707 52.4578L56.2512 51.2439L56.2899 51.2164L57.9704 50.0025C58.2582 49.7945 58.3788 49.4247 58.267 49.089C58.0279 48.366 57.6039 47.075 57.2652 45.9767C58.1486 45.0027 58.9312 43.9362 59.5954 42.7938C60.7512 42.7751 62.115 42.7762 62.8788 42.7795C63.2353 42.7806 63.5508 42.5539 63.6615 42.2172L64.3035 40.2538L64.3179 40.2086L64.96 38.2452C65.0696 37.9085 64.9489 37.5398 64.66 37.3329Z" fill="#0029FE"/>
<path d="M48.6792 33.5569V32.1977H19.7531C19.4443 30.9254 18.2908 29.9768 16.917 29.9768C15.3085 29.9768 14 31.2776 14 32.8767C14 34.4758 15.3085 35.7767 16.917 35.7767C18.2897 35.7767 19.4443 34.828 19.7531 33.5558H48.6792V33.5569ZM16.917 34.4186C16.0624 34.4186 15.3672 33.7275 15.3672 32.8778C15.3672 32.0282 16.0624 31.337 16.917 31.337C17.7716 31.337 18.4668 32.0282 18.4668 32.8778C18.4668 33.7275 17.7716 34.4186 16.917 34.4186Z" fill="#0029FE"/>
<path d="M37.3911 41.4325H45.3305V40.0733H36.0239V46.911H29.8048C29.4959 45.6388 28.3424 44.6901 26.9686 44.6901C25.3601 44.6901 24.0516 45.991 24.0516 47.5901C24.0516 49.1892 25.3601 50.49 26.9686 50.49C28.3413 50.49 29.4959 49.5414 29.8048 48.2691H37.3911V41.4314V41.4325ZM26.9697 49.132C26.1151 49.132 25.4199 48.4408 25.4199 47.5912C25.4199 46.7416 26.1151 46.0504 26.9697 46.0504C27.8243 46.0504 28.5195 46.7416 28.5195 47.5912C28.5195 48.4408 27.8243 49.132 26.9697 49.132Z" fill="#0029FE"/>
<path d="M25.338 40.913H30.8642V37.2349H48.6792V35.8757H29.497V39.5538H25.338C25.0291 38.2816 23.8756 37.3329 22.5018 37.3329C20.8933 37.3329 19.5849 38.6337 19.5849 40.2329C19.5849 41.832 20.8933 43.1328 22.5018 43.1328C23.8745 43.1328 25.0291 42.1841 25.338 40.9119V40.913ZM22.5018 41.7747C21.6472 41.7747 20.952 41.0836 20.952 40.234C20.952 39.3843 21.6472 38.6932 22.5018 38.6932C23.3564 38.6932 24.0516 39.3843 24.0516 40.234C24.0516 41.0836 23.3564 41.7747 22.5018 41.7747Z" fill="#0029FE"/>
<path d="M33.0372 50.172C31.4287 50.172 30.1202 51.4728 30.1202 53.072C30.1202 54.6711 31.4287 55.9719 33.0372 55.9719C34.4099 55.9719 35.5645 55.0232 35.8734 53.751H41.5722V52.3918H35.8734C35.5645 51.1196 34.411 50.1709 33.0372 50.1709V50.172ZM33.0372 54.6138C32.1826 54.6138 31.4874 53.9227 31.4874 53.0731C31.4874 52.2234 32.1826 51.5323 33.0372 51.5323C33.8918 51.5323 34.587 52.2234 34.587 53.0731C34.587 53.9227 33.8918 54.6138 33.0372 54.6138Z" fill="#0029FE"/>
<path d="M22.5018 28.611C23.8745 28.611 25.0291 27.6623 25.338 26.39H29.497V30.0681H48.6792V28.7089H30.8642V25.0309H25.338C25.0291 23.7586 23.8756 22.8099 22.5018 22.8099C20.8933 22.8099 19.5849 24.1108 19.5849 25.7099C19.5849 27.309 20.8933 28.6099 22.5018 28.6099V28.611ZM22.5018 24.1691C23.3564 24.1691 24.0516 24.8603 24.0516 25.7099C24.0516 26.5595 23.3564 27.2507 22.5018 27.2507C21.6472 27.2507 20.952 26.5595 20.952 25.7099C20.952 24.8603 21.6472 24.1691 22.5018 24.1691Z" fill="#0029FE"/>
<path d="M26.9697 21.2548C28.3424 21.2548 29.497 20.3062 29.8059 19.0339H36.025V25.8717H45.3316V24.5125H37.3922V17.6747H29.8059C29.497 16.4025 28.3435 15.4538 26.9697 15.4538C25.3612 15.4538 24.0527 16.7547 24.0527 18.3538C24.0527 19.9529 25.3612 21.2537 26.9697 21.2537V21.2548ZM26.9697 16.813C27.8243 16.813 28.5195 17.5041 28.5195 18.3538C28.5195 19.2034 27.8243 19.8946 26.9697 19.8946C26.1151 19.8946 25.4199 19.2034 25.4199 18.3538C25.4199 17.5041 26.1151 16.813 26.9697 16.813Z" fill="#0029FE"/>
<path d="M33.0372 15.773C34.4099 15.773 35.5645 14.8243 35.8734 13.552H41.5722V12.1928H35.8734C35.5645 10.9206 34.411 9.97192 33.0372 9.97192C31.4287 9.97192 30.1202 11.2728 30.1202 12.8719C30.1202 14.471 31.4287 15.7719 33.0372 15.7719V15.773ZM33.0372 11.3311C33.8918 11.3311 34.587 12.0223 34.587 12.8719C34.587 13.7215 33.8918 14.4127 33.0372 14.4127C32.1826 14.4127 31.4874 13.7215 31.4874 12.8719C31.4874 12.0223 32.1826 11.3311 33.0372 11.3311Z" fill="#0029FE"/>
<path style="mix-blend-mode:screen" d="M75.2736 59.0706C75.2736 59.0706 43.5183 63.9236 5.73486 55.2097C5.73486 55.2097 30.278 59.1779 41.177 55.2097C59.7189 48.4531 70.4027 51.4829 75.2736 59.0706Z" fill="url(#paint3_linear_426_7876)"/>
<path style="mix-blend-mode:screen" d="M23.3891 19.8448C24.4386 19.7912 25.3536 20.5956 25.4074 21.6412C25.4613 22.6869 24.6539 23.5985 23.6044 23.6521C22.5548 23.7057 21.6399 22.9014 21.586 21.8557C21.5322 20.81 22.3396 19.8984 23.3891 19.8448Z" fill="url(#paint4_radial_426_7876)"/>
<path d="M23.6314 21.2123C23.9274 21.2123 24.1696 21.4268 24.1965 21.7217C24.2234 22.0166 23.9812 22.2579 23.7121 22.2848C23.443 22.3116 23.1739 22.0703 23.147 21.7753C23.147 21.4804 23.3623 21.2391 23.6583 21.2123H23.6314Z" fill="#FFFFAB"/>
<path style="mix-blend-mode:screen" d="M25.9994 11.6404C27.049 11.5867 27.964 12.3911 28.0178 13.4367C28.0716 14.4824 27.2643 15.394 26.2147 15.4476C25.1652 15.5013 24.2502 14.6969 24.1964 13.6512C24.1426 12.6056 24.9499 11.694 25.9994 11.6404Z" fill="url(#paint5_radial_426_7876)"/>
<path d="M26.2149 13.0078C26.5109 13.0078 26.7531 13.2223 26.78 13.4904C26.78 13.7854 26.5647 14.0267 26.2956 14.0535C26.0265 14.0803 25.7574 13.839 25.7305 13.5709C25.7305 13.2759 25.9458 13.0346 26.2418 13.0078H26.2149Z" fill="#FFFFAB"/>
<path style="mix-blend-mode:screen" d="M24.4653 35.1544C25.5148 35.1008 26.4298 35.9051 26.4836 36.9508C26.5374 37.9964 25.7301 38.9081 24.6806 38.9617C23.631 39.0153 22.716 38.2109 22.6622 37.1653C22.6084 36.1196 23.4157 35.208 24.4653 35.1544Z" fill="url(#paint6_radial_426_7876)"/>
<path d="M24.6807 36.5219C24.9768 36.5219 25.219 36.7363 25.2459 37.0313C25.2728 37.3262 25.0306 37.5675 24.7346 37.5943C24.4385 37.5943 24.1963 37.3798 24.1694 37.0849C24.1694 36.79 24.3847 36.5487 24.6538 36.5219H24.6807Z" fill="#FFFFAB"/>
<path style="mix-blend-mode:screen" d="M15.4501 7.45771C18.4104 7.27002 20.94 9.52222 21.1284 12.4715C21.3168 15.4208 19.0562 17.9412 16.096 18.1288C13.1357 18.3165 10.6061 16.0643 10.4177 13.115C10.2293 10.1657 12.4899 7.64539 15.4501 7.45771Z" fill="url(#paint7_radial_426_7876)"/>
<path d="M16.096 11.2918C16.9033 11.2382 17.6299 11.8549 17.6569 12.686C17.7107 13.4904 17.0917 14.2143 16.2575 14.2411C15.4501 14.2948 14.7235 13.6781 14.6966 12.8469C14.6428 12.0426 15.2618 11.3186 16.096 11.2918Z" fill="#FFFFAB"/>
<path style="mix-blend-mode:screen" d="M30.7358 48.2386C32.1352 48.1582 33.3731 49.2307 33.4538 50.6249C33.5346 52.0191 32.4581 53.2524 31.0587 53.3329C29.6593 53.4133 28.4214 52.3408 28.3407 50.9466C28.26 49.5524 29.3364 48.3191 30.7358 48.2386Z" fill="url(#paint8_radial_426_7876)"/>
<path d="M31.0585 50.0618C31.4622 50.0618 31.7851 50.3299 31.812 50.7321C31.839 51.1342 31.5429 51.456 31.1393 51.4828C30.7356 51.4828 30.4127 51.2147 30.3857 50.8125C30.3857 50.4103 30.6549 50.0886 31.0585 50.0618Z" fill="#FFFFAB"/>
<path style="mix-blend-mode:screen" d="M7.99571 54.9684C8.69541 54.9148 9.31437 55.451 9.34128 56.175C9.36819 56.8989 8.85687 57.4887 8.13027 57.5155C7.40367 57.5424 6.81162 57.0329 6.78471 56.309C6.75779 55.5851 7.26911 54.9952 7.99571 54.9684Z" fill="url(#paint9_radial_426_7876)"/>
<path d="M8.15741 55.88C8.34579 55.88 8.50725 56.0141 8.53417 56.2017C8.53417 56.3894 8.39961 56.5771 8.21123 56.5771C8.02285 56.5771 7.83447 56.4431 7.83447 56.2554C7.83447 56.0677 7.96903 55.88 8.15741 55.88Z" fill="#FFFFAB"/>
<path style="mix-blend-mode:screen" d="M43.9759 33.063C44.6756 33.0094 45.2946 33.5456 45.3215 34.2696C45.3753 34.9667 44.8371 35.5833 44.1105 35.6101C43.3839 35.637 42.7919 35.1275 42.7649 34.4036C42.7111 33.7065 43.2493 33.0898 43.9759 33.063Z" fill="url(#paint10_radial_426_7876)"/>
<path d="M44.1374 33.9746C44.3258 33.9746 44.4872 34.1087 44.5141 34.2964C44.5141 34.484 44.3796 34.6449 44.1912 34.6717C44.0028 34.6717 43.8414 34.5377 43.8145 34.35C43.8145 34.1623 43.949 33.9746 44.1374 33.9746Z" fill="#FFFFAB"/>
<path style="mix-blend-mode:screen" d="M26.2149 53.0916C26.7531 53.0648 27.1837 53.467 27.2375 53.9764C27.2644 54.5126 26.8608 54.9416 26.3495 54.9952C25.8112 55.0221 25.3806 54.6199 25.3268 54.1104C25.273 53.601 25.7036 53.1452 26.2149 53.0916Z" fill="url(#paint11_radial_426_7876)"/>
<path d="M26.3228 53.7618C26.4573 53.7618 26.5919 53.8691 26.5919 54.0031C26.5919 54.1372 26.4842 54.2713 26.3497 54.2713C26.2151 54.2713 26.0806 54.164 26.0806 54.03C26.0806 53.8959 26.1882 53.7618 26.3228 53.7618Z" fill="#FFFFAB"/>
<path style="mix-blend-mode:screen" d="M41.043 52.314C42.1464 52.2604 43.0883 53.0915 43.169 54.1908C43.2228 55.2901 42.3886 56.2285 41.2852 56.3089C40.1818 56.3894 39.2399 55.5314 39.1592 54.4321C39.1054 53.3328 39.9396 52.3944 41.043 52.314Z" fill="url(#paint12_radial_426_7876)"/>
<path d="M41.2852 53.735C41.5813 53.735 41.8504 53.9495 41.8773 54.2444C41.8773 54.5393 41.662 54.8075 41.366 54.8343C41.07 54.8343 40.8008 54.6198 40.7739 54.3248C40.7739 54.0299 40.9892 53.7618 41.2852 53.735Z" fill="#FFFFAB"/>
<path d="M73.5245 61.0011C73.1746 59.875 76.2156 54.6735 76.9691 54.7003C77.7227 54.7003 77.0499 58.1054 76.5924 58.9098C76.1349 59.7141 73.686 61.5641 73.5245 61.0011Z" fill="white"/>
<path style="mix-blend-mode:screen" d="M6.73096 11.0239C6.73096 11.0239 50.4618 -5.73356 73.7132 6.89484C73.7132 6.89484 75.7584 11.6942 76.7003 19.2283C76.7003 19.2283 69.3535 27.7545 55.4404 28.7197C43.4649 29.5241 31.8123 14.2949 21.6936 12.4181C11.6019 10.5413 6.73096 11.0239 6.73096 11.0239Z" fill="url(#paint13_linear_426_7876)"/>
<path d="M5.84286 14.0535C5.00861 14.1875 2.90953 20.676 3.01717 21.7485C3.15173 22.821 5.68139 19.4427 6.05815 17.6463C6.43491 15.8499 5.81595 14.0535 5.81595 14.0535H5.84286Z" fill="white"/>
<path d="M6.19267 13.0078C5.17004 12.6056 6.9731 9.84399 8.53395 9.14688C10.0948 8.44977 13.9162 7.67223 14.3468 8.36934C14.7774 9.09326 7.34986 13.4368 6.19267 13.0078Z" fill="white"/>
<defs>
<radialGradient id="paint0_radial_426_7876" cx="0" cy="0" r="1" gradientUnits="userSpaceOnUse" gradientTransform="translate(40.5112 81.7443) scale(38.6955 48.7362)">
<stop stop-color="#008CCA"/>
<stop offset="1" stop-color="#003BF1"/>
</radialGradient>
<linearGradient id="paint1_linear_426_7876" x1="40.0202" y1="65.5055" x2="40.0202" y2="1.5591" gradientUnits="userSpaceOnUse">
<stop stop-color="#92FFF1"/>
<stop offset="1" stop-color="#0098FF"/>
</linearGradient>
<linearGradient id="paint2_linear_426_7876" x1="40.02" y1="64.3795" x2="40.02" y2="2.22951" gradientUnits="userSpaceOnUse">
<stop stop-color="#00EFF1"/>
<stop offset="1" stop-color="#0098FF"/>
</linearGradient>
<linearGradient id="paint3_linear_426_7876" x1="75.2736" y1="55.9605" x2="5.73486" y2="55.9605" gradientUnits="userSpaceOnUse">
<stop stop-color="#40FF79"/>
<stop offset="0.1" stop-color="#3BEE71"/>
<stop offset="0.29" stop-color="#31C45D"/>
<stop offset="0.56" stop-color="#20803D"/>
<stop offset="0.88" stop-color="#092411"/>
<stop offset="1"/>
</linearGradient>
<radialGradient id="paint4_radial_426_7876" cx="0" cy="0" r="1" gradientUnits="userSpaceOnUse" gradientTransform="translate(23.4665 21.7233) rotate(-93.4326) scale(1.90367 1.91067)">
<stop stop-color="#00B359"/>
<stop offset="0.13" stop-color="#009148"/>
<stop offset="0.34" stop-color="#005D2E"/>
<stop offset="0.54" stop-color="#00351A"/>
<stop offset="0.73" stop-color="#00170B"/>
<stop offset="0.89" stop-color="#000603"/>
<stop offset="1"/>
</radialGradient>
<radialGradient id="paint5_radial_426_7876" cx="0" cy="0" r="1" gradientUnits="userSpaceOnUse" gradientTransform="translate(26.0758 13.5368) rotate(-93.4326) scale(1.90367 1.91068)">
<stop stop-color="#00B359"/>
<stop offset="0.13" stop-color="#009148"/>
<stop offset="0.34" stop-color="#005D2E"/>
<stop offset="0.54" stop-color="#00351A"/>
<stop offset="0.73" stop-color="#00170B"/>
<stop offset="0.89" stop-color="#000603"/>
<stop offset="1"/>
</radialGradient>
<radialGradient id="paint6_radial_426_7876" cx="0" cy="0" r="1" gradientUnits="userSpaceOnUse" gradientTransform="translate(24.5205 37.0511) rotate(-93.4326) scale(1.90367 1.91068)">
<stop stop-color="#00B359"/>
<stop offset="0.13" stop-color="#009148"/>
<stop offset="0.34" stop-color="#005D2E"/>
<stop offset="0.54" stop-color="#00351A"/>
<stop offset="0.73" stop-color="#00170B"/>
<stop offset="0.89" stop-color="#000603"/>
<stop offset="1"/>
</radialGradient>
<radialGradient id="paint7_radial_426_7876" cx="0" cy="0" r="1" gradientUnits="userSpaceOnUse" gradientTransform="translate(15.7035 12.7577) rotate(-93.4326) scale(5.33564 5.35527)">
<stop stop-color="#00B359"/>
<stop offset="0.13" stop-color="#009148"/>
<stop offset="0.34" stop-color="#005D2E"/>
<stop offset="0.54" stop-color="#00351A"/>
<stop offset="0.73" stop-color="#00170B"/>
<stop offset="0.89" stop-color="#000603"/>
<stop offset="1"/>
</radialGradient>
<radialGradient id="paint8_radial_426_7876" cx="0" cy="0" r="1" gradientUnits="userSpaceOnUse" gradientTransform="translate(30.842 50.7493) rotate(-93.4326) scale(2.54717 2.55654)">
<stop stop-color="#00B359"/>
<stop offset="0.13" stop-color="#009148"/>
<stop offset="0.34" stop-color="#005D2E"/>
<stop offset="0.54" stop-color="#00351A"/>
<stop offset="0.73" stop-color="#00170B"/>
<stop offset="0.89" stop-color="#000603"/>
<stop offset="1"/>
</radialGradient>
<radialGradient id="paint9_radial_426_7876" cx="0" cy="0" r="1" gradientUnits="userSpaceOnUse" gradientTransform="translate(8.03882 56.2165) rotate(-93.4326) scale(1.28699 1.29172)">
<stop stop-color="#00B359"/>
<stop offset="0.13" stop-color="#009148"/>
<stop offset="0.34" stop-color="#005D2E"/>
<stop offset="0.54" stop-color="#00351A"/>
<stop offset="0.73" stop-color="#00170B"/>
<stop offset="0.89" stop-color="#000603"/>
<stop offset="1"/>
</radialGradient>
<radialGradient id="paint10_radial_426_7876" cx="0" cy="0" r="1" gradientUnits="userSpaceOnUse" gradientTransform="translate(44.0107 34.3327) rotate(-93.4326) scale(1.28699 1.29172)">
<stop stop-color="#00B359"/>
<stop offset="0.13" stop-color="#009148"/>
<stop offset="0.34" stop-color="#005D2E"/>
<stop offset="0.54" stop-color="#00351A"/>
<stop offset="0.73" stop-color="#00170B"/>
<stop offset="0.89" stop-color="#000603"/>
<stop offset="1"/>
</radialGradient>
<radialGradient id="paint11_radial_426_7876" cx="0" cy="0" r="1" gradientUnits="userSpaceOnUse" gradientTransform="translate(26.2403 54.0316) rotate(-93.4327) scale(0.938427 0.941883)">
<stop stop-color="#00B359"/>
<stop offset="0.13" stop-color="#009148"/>
<stop offset="0.34" stop-color="#005D2E"/>
<stop offset="0.54" stop-color="#00351A"/>
<stop offset="0.73" stop-color="#00170B"/>
<stop offset="0.89" stop-color="#000603"/>
<stop offset="1"/>
</radialGradient>
<radialGradient id="paint12_radial_426_7876" cx="0" cy="0" r="1" gradientUnits="userSpaceOnUse" gradientTransform="translate(41.1363 54.2727) rotate(-93.4327) scale(1.98411 1.99141)">
<stop stop-color="#00B359"/>
<stop offset="0.13" stop-color="#009148"/>
<stop offset="0.34" stop-color="#005D2E"/>
<stop offset="0.54" stop-color="#00351A"/>
<stop offset="0.73" stop-color="#00170B"/>
<stop offset="0.89" stop-color="#000603"/>
<stop offset="1"/>
</radialGradient>
<linearGradient id="paint13_linear_426_7876" x1="6.73096" y1="15.4746" x2="76.7003" y2="15.4746" gradientUnits="userSpaceOnUse">
<stop stop-color="#7ED140"/>
<stop offset="0.11" stop-color="#74C03B"/>
<stop offset="0.34" stop-color="#5A962E"/>
<stop offset="0.65" stop-color="#315219"/>
<stop offset="1"/>
</linearGradient>
</defs>
</svg>
