<svg width="71" height="66" viewBox="0 0 71 66" fill="none" xmlns="http://www.w3.org/2000/svg">
<path opacity="0.1" d="M64.7882 57.7452C64.6652 57.8777 64.5217 58.0103 64.3577 58.1326C52.2238 67.9924 18.794 67.6457 4.14919 58.7852C3.38057 58.3264 2.86816 57.8369 2.6222 57.3271C-2.57367 46.5701 0.244602 14.1972 8.49446 7.19238C17.349 -0.312025 51.3937 -3.70736 62.3286 5.83629C70.353 12.8309 74.1756 47.9364 64.7882 57.7452Z" fill="#3C3E48"/>
<path d="M62.8025 56.5434C62.6869 56.6686 62.5521 56.7938 62.398 56.9093C50.9969 66.2209 19.586 65.8935 5.82573 57.5256C5.10353 57.0923 4.62206 56.6301 4.39096 56.1486C-0.491113 45.9897 2.15695 15.4165 9.90856 8.80118C18.2283 1.71399 50.2169 -1.49258 60.4914 7.52048C68.0312 14.1262 71.6229 47.28 62.8025 56.5434Z" fill="url(#paint0_linear_83_1520)"/>
<path d="M4.38962 54.1392C9.09836 63.9418 53.1044 64.7218 62.8011 54.534C71.6216 45.2705 68.0299 12.1168 60.4901 5.51103C50.2156 -3.50202 18.227 -0.295457 9.90722 6.80136C2.15561 13.4071 -0.492456 43.9802 4.38962 54.1392Z" fill="url(#paint1_radial_83_1520)"/>
<g style="mix-blend-mode:multiply" filter="url(#filter0_f_83_1520)">
<path d="M32.9092 14.0719H33.0969C36.4876 14.0719 39.2425 16.8285 39.2425 20.2348C39.2425 21.6678 40.399 22.8275 41.8279 22.8275H42.7119C44.1409 22.8275 45.2973 21.6678 45.2973 20.2348C45.2973 13.4768 39.8359 8 33.0969 8H32.9092C26.1702 8 20.7087 13.4768 20.7087 20.2287V28.6869H26.7635V20.2287C26.7635 16.8285 29.5124 14.0719 32.9092 14.0719Z" fill="#CED6FF"/>
<path d="M52 55.7856V32.33C52 31.6621 51.4551 31.1156 50.789 31.1156H15.211C14.5449 31.1156 14 31.6621 14 32.33V55.7856C14 56.4535 14.5449 57 15.211 57H50.789C51.4611 57 52 56.4596 52 55.7856ZM35.2282 44.3401C34.8043 44.6134 34.5924 45.1173 34.6953 45.6152L35.7428 50.5942C35.9003 51.3471 35.3251 52.0575 34.5561 52.0575H31.4379C30.6689 52.0575 30.0937 51.3471 30.2511 50.5942L31.2986 45.6152C31.4015 45.1173 31.1836 44.6134 30.7597 44.3401C29.6033 43.5872 28.8464 42.2696 28.8827 40.7699C28.9372 38.5719 30.7355 36.7807 32.9273 36.7503C35.2282 36.7139 37.1113 38.5779 37.1113 40.8792C37.1173 42.3304 36.3665 43.6115 35.2282 44.3401Z" fill="#CED6FF"/>
</g>
<path d="M34.9092 12.0719H35.0969C38.4876 12.0719 41.2425 14.8285 41.2425 18.2348C41.2425 19.6678 42.399 20.8275 43.8279 20.8275H44.7119C46.1409 20.8275 47.2973 19.6678 47.2973 18.2348C47.2973 11.4768 41.8359 6 35.0969 6H34.9092C28.1702 6 22.7087 11.4768 22.7087 18.2287V26.6869H28.7635V18.2287C28.7635 14.8285 31.5124 12.0719 34.9092 12.0719Z" fill="#FEFFFF"/>
<path d="M54 53.7856V30.33C54 29.6621 53.4551 29.1156 52.789 29.1156H17.211C16.5449 29.1156 16 29.6621 16 30.33V53.7856C16 54.4535 16.5449 55 17.211 55H52.789C53.4611 55 54 54.4596 54 53.7856ZM37.2282 42.3401C36.8043 42.6134 36.5924 43.1173 36.6953 43.6152L37.7428 48.5942C37.9003 49.3471 37.3251 50.0575 36.5561 50.0575H33.4379C32.6689 50.0575 32.0937 49.3471 32.2511 48.5942L33.2986 43.6152C33.4015 43.1173 33.1836 42.6134 32.7597 42.3401C31.6033 41.5872 30.8464 40.2696 30.8827 38.7699C30.9372 36.5719 32.7355 34.7807 34.9273 34.7503C37.2282 34.7139 39.1113 36.5779 39.1113 38.8792C39.1173 40.3304 38.3665 41.6115 37.2282 42.3401Z" fill="#FEFFFF"/>
<path style="mix-blend-mode:screen" d="M9.5 8.50001C9.5 8.50001 22.5 -4 57 4C57 4 68 14 65.0251 20.7287C65.0251 20.7287 66 23 62 25C60.993 17.767 48 9.70387 39 7.70346C30.5 7.70346 8 10.5 8 10.5L9.5 8.50001Z" fill="url(#paint2_linear_83_1520)"/>
<path d="M7 11.5377C7 11.5377 8.47329 8.51406 11.8821 6.89633C15.3005 5.27861 25.0165 3.65125 25.575 4.06531C26.1239 4.47937 20.8373 6.38598 18.1026 7.39706C15.3679 8.40814 8.39625 12.3176 7 11.5473V11.5377Z" fill="white"/>
<path style="mix-blend-mode:screen" d="M62.3113 54.1143C62.3113 54.1143 58.5 58.1686 51 59.5C47.2763 60.161 42.9298 61.0465 42.5 60.5C42.0795 59.9561 47.6059 55.4426 50.5103 55.1869C53.4147 54.9312 61.1695 52.9944 62.3138 54.1051L62.3113 54.1143Z" fill="url(#paint3_linear_83_1520)"/>
<path d="M7.35415 13.0096C6.65121 13.1156 4.89867 18.5658 5.0046 19.4613C5.11052 20.3568 7.21934 17.5258 7.54674 16.014C7.87414 14.5118 7.35415 13 7.35415 13V13.0096Z" fill="white"/>
<path style="mix-blend-mode:screen" d="M63.4505 52.0184C64.1597 51.9703 66.3522 46.6817 66.3199 45.7805C66.2875 44.8793 63.9542 47.5284 63.5043 49.0083C63.0551 50.4787 63.4497 52.028 63.4497 52.028L63.4505 52.0184Z" fill="url(#paint4_linear_83_1520)"/>
<path d="M60.0316 54.7213C59.6223 53.6892 63.3061 48.9776 64.246 49.0001C65.1859 49.0225 64.3521 52.0963 63.776 52.8142C63.2151 53.5322 60.2287 55.2373 60.0316 54.7213Z" fill="white"/>
<defs>
<filter id="filter0_f_83_1520" x="13" y="7" width="40" height="51" filterUnits="userSpaceOnUse" color-interpolation-filters="sRGB">
<feFlood flood-opacity="0" result="BackgroundImageFix"/>
<feBlend mode="normal" in="SourceGraphic" in2="BackgroundImageFix" result="shape"/>
<feGaussianBlur stdDeviation="0.5" result="effect1_foregroundBlur_83_1520"/>
</filter>
<linearGradient id="paint0_linear_83_1520" x1="38.1866" y1="63.8469" x2="38.1866" y2="2.00905" gradientUnits="userSpaceOnUse">
<stop stop-color="#C26900"/>
<stop offset="1" stop-color="#923D00"/>
</linearGradient>
<radialGradient id="paint1_radial_83_1520" cx="0" cy="0" r="1" gradientUnits="userSpaceOnUse" gradientTransform="translate(35.7326 57.4711) scale(25.3388 75.8087)">
<stop stop-color="#FFBD00"/>
<stop offset="1" stop-color="#FF772C"/>
</radialGradient>
<linearGradient id="paint2_linear_83_1520" x1="11.6763" y1="13.8808" x2="57.9957" y2="13.8808" gradientUnits="userSpaceOnUse">
<stop stop-color="#7ED140"/>
<stop offset="0.11" stop-color="#74C03B"/>
<stop offset="0.34" stop-color="#5A962E"/>
<stop offset="0.65" stop-color="#315219"/>
<stop offset="1"/>
</linearGradient>
<linearGradient id="paint3_linear_83_1520" x1="59.6274" y1="56.9107" x2="45.5876" y2="53.0805" gradientUnits="userSpaceOnUse">
<stop stop-color="#7ED140"/>
<stop offset="0.11" stop-color="#74C03B"/>
<stop offset="0.34" stop-color="#5A962E"/>
<stop offset="0.65" stop-color="#315219"/>
<stop offset="1"/>
</linearGradient>
<linearGradient id="paint4_linear_83_1520" x1="65.8258" y1="48.6257" x2="63.7571" y2="48.4559" gradientUnits="userSpaceOnUse">
<stop stop-color="#7ED140"/>
<stop offset="0.11" stop-color="#74C03B"/>
<stop offset="0.34" stop-color="#5A962E"/>
<stop offset="0.65" stop-color="#315219"/>
<stop offset="1"/>
</linearGradient>
</defs>
</svg>
