<svg width="305" height="286" viewBox="0 0 305 286" fill="none" xmlns="http://www.w3.org/2000/svg">
<g filter="url(#filter0_f_521_10386)">
<path d="M140.064 193.896C183.501 213.329 226.985 210.653 237.188 187.92C247.391 165.186 220.449 131.003 177.012 111.571C133.574 92.1377 90.0902 94.8136 79.8873 117.547C69.6844 140.281 96.6263 174.464 140.064 193.896Z" fill="#09F0FF"/>
</g>
<path d="M239.619 151.279C233.94 163.912 201.973 149.353 162.401 131.642C122.83 113.93 91.5716 97.8064 97.2191 85.176C102.898 72.5425 144.621 65.3646 184.192 83.0761C223.763 100.788 245.267 138.648 239.619 151.279Z" fill="url(#paint0_radial_521_10386)"/>
<g style="mix-blend-mode:multiply">
<path d="M182.958 85.8068C223.092 103.75 246.092 140.286 242.652 154.211C242.934 153.834 243.196 153.41 243.391 152.962C249.07 140.328 225.855 101.697 184.206 83.0591C142.544 64.4388 99.1261 70.8601 93.4471 83.4936C93.2371 83.9597 93.0903 84.4196 92.9922 84.8906C101.049 73.1696 142.824 67.8641 182.958 85.8068Z" fill="white"/>
</g>
<path d="M292.527 191.502C286.533 204.835 227.925 178.361 155.514 145.954C92.9917 117.97 41.3205 93.1715 32.2166 78.3279C30.7662 75.9721 30.3922 73.8926 31.2034 72.0628C37.2115 58.7128 106.128 62.2499 178.539 94.6574C248.655 126.017 295.441 174.907 292.936 190.125C292.841 190.628 292.726 191.085 292.513 191.519L292.527 191.502Z" fill="url(#paint1_radial_521_10386)"/>
<g style="mix-blend-mode:multiply">
<path d="M292.951 190.108L271.79 164.641C271.79 164.641 239.259 123.915 177.594 96.7549C115.93 69.5945 85.0091 76.7792 85.0091 76.7792L32.2166 78.3279C30.7662 75.9721 30.3922 73.8926 31.2034 72.0628C37.2115 58.7128 106.128 62.2499 178.539 94.6574C248.655 126.017 295.441 174.907 292.936 190.125L292.951 190.108Z" fill="white"/>
</g>
<path d="M293.182 190.037C288.201 201.154 225.445 183.87 153.02 151.48C80.5947 119.09 25.9323 83.8121 30.9305 72.7091C35.9288 61.6062 99.742 76.4793 172.167 108.869C244.579 141.277 298.166 178.951 293.182 190.037Z" fill="url(#paint2_radial_521_10386)"/>
<path d="M292.526 191.501C287.545 202.618 224.79 185.334 152.364 152.944C79.9531 120.537 25.2764 85.2765 30.2747 74.1736C35.2557 63.0565 98.0111 80.3404 170.436 112.731C242.848 145.138 297.524 180.398 292.526 191.501Z" fill="url(#paint3_radial_521_10386)"/>
<path d="M239.024 178.641C235.915 185.549 196.787 174.795 151.634 154.607C106.463 134.406 72.3845 112.417 75.5078 105.491C78.631 98.566 117.745 109.337 162.898 129.525C208.068 149.726 242.147 171.715 239.024 178.641Z" fill="#389FFF"/>
<path d="M130.084 119.933L129.586 115.893C129.586 115.893 167.037 129.071 203.271 149.639L200.663 152.313L130.067 119.919L130.084 119.933Z" fill="#8BB9FF"/>
<path d="M239.515 182.443C236.63 188.868 191.428 190.277 147.686 170.699C103.943 151.121 78.1995 117.988 81.0986 111.546C83.9834 105.122 121.781 115.768 165.538 135.328C209.28 154.906 242.411 175.97 239.512 182.412L239.515 182.443Z" fill="url(#paint4_radial_521_10386)"/>
<path d="M180.404 126.281C179.947 127.328 174.75 126.04 168.849 123.388C162.948 120.737 158.542 117.748 158.998 116.701C159.455 115.654 164.652 116.942 170.553 119.593C176.454 122.245 180.861 125.234 180.404 126.281Z" fill="#A1FFFF"/>
<path d="M226.901 149.375C226.43 150.439 222.876 149.865 218.986 148.114C215.082 146.381 212.301 144.092 212.775 143.059C213.232 142.012 216.801 142.569 220.691 144.319C224.595 146.053 227.375 148.342 226.901 149.375Z" fill="#A1FFFF"/>
<path d="M265.804 175.569C265.348 176.616 262.244 176.268 258.903 174.766C255.562 173.264 253.233 171.201 253.706 170.168C254.163 169.121 257.267 169.469 260.608 170.971C263.949 172.473 266.278 174.536 265.804 175.569Z" fill="#A1FFFF"/>
<path d="M76.3095 93.4315C75.8529 94.4787 72.7494 94.1307 69.4082 92.6285C66.067 91.1263 63.738 89.0635 64.2118 88.0305C64.6856 86.9975 67.7719 87.3314 71.1131 88.8336C74.4543 90.3357 76.7833 92.3986 76.3095 93.4315Z" fill="#A1FFFF"/>
<path style="mix-blend-mode:color-dodge" d="M120.031 93.9975C127.926 97.5354 133.05 103.207 131.49 106.685C129.93 110.163 122.273 110.103 114.381 106.596C106.486 103.059 101.362 97.3874 102.922 93.909C104.482 90.4306 112.14 90.4912 120.031 93.9975Z" fill="url(#paint5_radial_521_10386)"/>
<path style="mix-blend-mode:color-dodge" d="M172.537 115.214C180.432 118.752 185.556 124.423 183.996 127.902C182.436 131.38 174.778 131.32 166.887 127.813C158.992 124.275 153.868 118.604 155.428 115.126C156.988 111.647 164.646 111.708 172.537 115.214Z" fill="url(#paint6_radial_521_10386)"/>
<path style="mix-blend-mode:color-dodge" d="M222.656 139.926C230.551 143.464 235.675 149.135 234.115 152.614C232.555 156.092 224.898 156.031 217.006 152.525C209.111 148.987 203.987 143.316 205.547 139.838C207.107 136.359 214.765 136.42 222.656 139.926Z" fill="url(#paint7_radial_521_10386)"/>
<path style="mix-blend-mode:color-dodge" d="M263.127 167.033C271.022 170.571 276.146 176.242 274.586 179.72C273.026 183.199 265.368 183.138 257.477 179.632C249.582 176.094 244.458 170.423 246.018 166.944C247.578 163.466 255.235 163.526 263.127 167.033Z" fill="url(#paint8_radial_521_10386)"/>
<path style="mix-blend-mode:color-dodge" d="M70.8829 83.0962C78.7777 86.634 83.9018 92.3052 82.3417 95.7836C80.7815 99.262 73.1241 99.2014 65.2324 95.6951C57.3377 92.1572 52.2136 86.4861 53.7737 83.0076C55.3338 79.5292 62.9912 79.5899 70.8829 83.0962Z" fill="url(#paint9_radial_521_10386)"/>
<path style="mix-blend-mode:color-dodge" d="M245.663 177.544C250.866 179.882 254.246 183.624 253.225 185.92C252.204 188.216 247.141 188.171 241.941 185.865C236.739 183.527 233.358 179.785 234.379 177.489C235.4 175.193 240.463 175.238 245.663 177.544Z" fill="url(#paint10_radial_521_10386)"/>
<path d="M124.542 103.579C124.085 104.626 120.416 104.015 116.345 102.203C112.274 100.39 109.396 98.079 109.867 97.0145C110.338 95.95 113.993 96.5781 118.064 98.3906C122.135 100.203 125.013 102.514 124.542 103.579Z" fill="#A1FFFF"/>
<g style="mix-blend-mode:soft-light">
<path d="M137.076 94.2357C137.076 94.2357 152.867 90.1893 173.808 97.9055C198.46 106.992 212.738 128.536 212.738 128.536C212.738 128.536 179.264 110.036 137.076 94.2357Z" fill="#BD95D4"/>
</g>
<defs>
<filter id="filter0_f_521_10386" x="57.7285" y="78.5801" width="201.619" height="148.307" filterUnits="userSpaceOnUse" color-interpolation-filters="sRGB">
<feFlood flood-opacity="0" result="BackgroundImageFix"/>
<feBlend mode="normal" in="SourceGraphic" in2="BackgroundImageFix" result="shape"/>
<feGaussianBlur stdDeviation="10" result="effect1_foregroundBlur_521_10386"/>
</filter>
<radialGradient id="paint0_radial_521_10386" cx="0" cy="0" r="1" gradientUnits="userSpaceOnUse" gradientTransform="translate(173.313 107.349) rotate(24.1025) scale(58.5926 58.7102)">
<stop stop-color="#D0CDEA"/>
<stop offset="1" stop-color="#7D75DA"/>
</radialGradient>
<radialGradient id="paint1_radial_521_10386" cx="0" cy="0" r="1" gradientUnits="userSpaceOnUse" gradientTransform="translate(167.032 120.306) rotate(24.1025) scale(103.493 103.701)">
<stop stop-color="#FAFAFD"/>
<stop offset="1" stop-color="#C3BFEE"/>
</radialGradient>
<radialGradient id="paint2_radial_521_10386" cx="0" cy="0" r="1" gradientUnits="userSpaceOnUse" gradientTransform="translate(162.628 130.2) rotate(25.4353) scale(102.909 103.121)">
<stop stop-color="#D0CDEA"/>
<stop offset="1" stop-color="#7D75DA"/>
</radialGradient>
<radialGradient id="paint3_radial_521_10386" cx="0" cy="0" r="1" gradientUnits="userSpaceOnUse" gradientTransform="translate(150.754 156.241) rotate(24.1025) scale(102.755 35.0069)">
<stop stop-color="#7C42B8"/>
<stop offset="0.63" stop-color="#272A95"/>
<stop offset="0.98" stop-color="#270579"/>
</radialGradient>
<radialGradient id="paint4_radial_521_10386" cx="0" cy="0" r="1" gradientUnits="userSpaceOnUse" gradientTransform="translate(185.044 91.6676) rotate(24.1025) scale(65.1029 31.3121)">
<stop stop-color="#68FFF6"/>
<stop offset="0.25" stop-color="#6AF6FF"/>
<stop offset="0.51" stop-color="#73FFF7"/>
<stop offset="0.78" stop-color="#81FFF7"/>
<stop offset="1" stop-color="#90F8FF"/>
</radialGradient>
<radialGradient id="paint5_radial_521_10386" cx="0" cy="0" r="1" gradientUnits="userSpaceOnUse" gradientTransform="translate(116.508 99.7466) rotate(-65.8293) scale(6.80581 15.4435)">
<stop stop-color="#2720F6"/>
<stop offset="0.08" stop-color="#211BD0"/>
<stop offset="0.22" stop-color="#181399"/>
<stop offset="0.36" stop-color="#100D6A"/>
<stop offset="0.49" stop-color="#0A0844"/>
<stop offset="0.62" stop-color="#060426"/>
<stop offset="0.75" stop-color="#020211"/>
<stop offset="0.88" stop-color="#000004"/>
<stop offset="1"/>
</radialGradient>
<radialGradient id="paint6_radial_521_10386" cx="0" cy="0" r="1" gradientUnits="userSpaceOnUse" gradientTransform="translate(169.033 121.009) rotate(-65.8293) scale(6.80581 15.4435)">
<stop stop-color="#2720F6"/>
<stop offset="0.08" stop-color="#211BD0"/>
<stop offset="0.22" stop-color="#181399"/>
<stop offset="0.36" stop-color="#100D6A"/>
<stop offset="0.49" stop-color="#0A0844"/>
<stop offset="0.62" stop-color="#060426"/>
<stop offset="0.75" stop-color="#020211"/>
<stop offset="0.88" stop-color="#000004"/>
<stop offset="1"/>
</radialGradient>
<radialGradient id="paint7_radial_521_10386" cx="0" cy="0" r="1" gradientUnits="userSpaceOnUse" gradientTransform="translate(218.946 145.575) rotate(-65.8293) scale(6.80581 15.4435)">
<stop stop-color="#2720F6"/>
<stop offset="0.08" stop-color="#211BD0"/>
<stop offset="0.22" stop-color="#181399"/>
<stop offset="0.36" stop-color="#100D6A"/>
<stop offset="0.49" stop-color="#0A0844"/>
<stop offset="0.62" stop-color="#060426"/>
<stop offset="0.75" stop-color="#020211"/>
<stop offset="0.88" stop-color="#000004"/>
<stop offset="1"/>
</radialGradient>
<radialGradient id="paint8_radial_521_10386" cx="0" cy="0" r="1" gradientUnits="userSpaceOnUse" gradientTransform="translate(259.303 172.576) rotate(-65.8293) scale(6.80581 15.4435)">
<stop stop-color="#2720F6"/>
<stop offset="0.08" stop-color="#211BD0"/>
<stop offset="0.22" stop-color="#181399"/>
<stop offset="0.36" stop-color="#100D6A"/>
<stop offset="0.49" stop-color="#0A0844"/>
<stop offset="0.62" stop-color="#060426"/>
<stop offset="0.75" stop-color="#020211"/>
<stop offset="0.88" stop-color="#000004"/>
<stop offset="1"/>
</radialGradient>
<radialGradient id="paint9_radial_521_10386" cx="0" cy="0" r="1" gradientUnits="userSpaceOnUse" gradientTransform="translate(67.2168 88.8789) rotate(-65.8293) scale(6.80581 15.4435)">
<stop stop-color="#2720F6"/>
<stop offset="0.08" stop-color="#211BD0"/>
<stop offset="0.22" stop-color="#181399"/>
<stop offset="0.36" stop-color="#100D6A"/>
<stop offset="0.49" stop-color="#0A0844"/>
<stop offset="0.62" stop-color="#060426"/>
<stop offset="0.75" stop-color="#020211"/>
<stop offset="0.88" stop-color="#000004"/>
<stop offset="1"/>
</radialGradient>
<radialGradient id="paint10_radial_521_10386" cx="0" cy="0" r="1" gradientUnits="userSpaceOnUse" gradientTransform="translate(243.019 181.198) rotate(-65.8293) scale(4.53721 10.2956)">
<stop stop-color="#2720F6"/>
<stop offset="0.08" stop-color="#211BD0"/>
<stop offset="0.22" stop-color="#181399"/>
<stop offset="0.36" stop-color="#100D6A"/>
<stop offset="0.49" stop-color="#0A0844"/>
<stop offset="0.62" stop-color="#060426"/>
<stop offset="0.75" stop-color="#020211"/>
<stop offset="0.88" stop-color="#000004"/>
<stop offset="1"/>
</radialGradient>
</defs>
</svg>
