<svg width="81" height="69" viewBox="0 0 81 69" fill="none" xmlns="http://www.w3.org/2000/svg">
<path d="M1.82168 55.3638C4.53972 65.9813 72.4369 73.9713 78.0614 62.9516C83.1745 52.9239 79.3262 11.9822 74.9396 4.82339C68.9923 -4.93614 10.2449 1.9009 5.4278 9.59591C0.933612 16.7547 -1.004 44.3709 1.82168 55.3638Z" fill="url(#paint0_radial_50_1149)"/>
<path d="M2.03679 53.4871C4.75483 63.7292 72.2483 69.467 77.8459 58.8226C82.9321 49.1436 79.1645 12.1431 74.8049 5.22568C68.8844 -4.15848 10.3524 2.43725 5.56216 9.83733C1.06798 16.7548 -0.761987 42.8696 2.03679 53.4871Z" fill="url(#paint1_linear_50_1149)"/>
<path d="M2.87107 52.6023C5.53529 62.5495 71.6025 68.2604 77.0924 57.9379C82.071 48.5537 78.3303 12.4917 74.0783 5.78873C68.2655 -3.35412 10.9983 3.05392 6.2888 10.2395C1.90226 16.9425 0.099207 42.2797 2.87107 52.6023Z" fill="url(#paint2_linear_50_1149)"/>
<path d="M25.6923 52H49.2448C52.328 52 55.1282 49.8257 55.4626 46.8132C55.8619 43.2154 52.9933 40.2812 49.5385 40.2812H24.5V50.8281C24.5 51.4753 25.0338 52 25.6923 52Z" fill="#0029FE"/>
<path d="M25.6923 12H49.5385C52.8255 12 55.5 14.6287 55.5 17.8594V40.4416C53.7619 38.7077 51.7756 37.9375 49.5385 37.9375H24.5V13.1719C24.5 12.5241 25.0333 12 25.6923 12ZM48.2845 17.4886C48.0761 16.8752 47.4065 16.541 46.7766 16.7481L45.1384 17.2848C44.1058 15.5359 42.2011 14.3438 40 14.3438C36.713 14.3438 34.0385 16.9724 34.0385 20.2031C34.0385 20.441 34.0817 20.6675 34.1099 20.898L32.4689 21.4356C31.8448 21.6393 31.5071 22.3031 31.7155 22.9177C31.9227 23.5284 32.5951 23.864 33.2234 23.6581L34.8616 23.1214C35.8942 24.8703 37.7989 26.0625 40 26.0625C43.287 26.0625 45.9615 23.4338 45.9615 20.2031C45.9615 19.9652 45.9183 19.7388 45.8901 19.5082L47.5311 18.9706C48.1552 18.7669 48.4929 18.1031 48.2845 17.4886ZM32.8462 35.5938H47.1538C47.8129 35.5938 48.3462 35.0696 48.3462 34.4219C48.3462 33.7741 47.8129 33.25 47.1538 33.25H32.8462C32.1871 33.25 31.6538 33.7741 31.6538 34.4219C31.6538 35.0696 32.1871 35.5938 32.8462 35.5938ZM32.8462 30.9062H47.1538C47.8129 30.9062 48.3462 30.3821 48.3462 29.7344C48.3462 29.0866 47.8129 28.5625 47.1538 28.5625H32.8462C32.1871 28.5625 31.6538 29.0866 31.6538 29.7344C31.6538 30.3821 32.1871 30.9062 32.8462 30.9062Z" fill="#0029FE"/>
<path d="M40 23.7188C38.8572 23.7188 37.8494 23.1798 37.1942 22.3572L43.5702 20.2682C43.5338 22.1761 41.9497 23.7188 40 23.7188Z" fill="#0029FE"/>
<path d="M40 16.6875C41.1428 16.6875 42.1506 17.2265 42.8058 18.0491L36.4298 20.138C36.4662 18.2302 38.0503 16.6875 40 16.6875Z" fill="#0029FE"/>
<path style="mix-blend-mode:screen" d="M75.7736 58.0987C75.7736 58.0987 44.0183 62.9517 6.23486 54.2378C6.23486 54.2378 30.778 58.206 41.677 54.2378C60.2189 47.4812 70.9027 50.511 75.7736 58.0987Z" fill="url(#paint3_linear_50_1149)"/>
<path style="mix-blend-mode:screen" d="M23.8886 18.8729C24.9381 18.8193 25.8531 19.6237 25.9069 20.6693C25.9608 21.715 25.1534 22.6266 24.1039 22.6802C23.0544 22.7338 22.1394 21.9295 22.0855 20.8838C22.0317 19.8382 22.8391 18.9266 23.8886 18.8729Z" fill="url(#paint4_radial_50_1149)"/>
<path d="M24.1309 20.2403C24.4269 20.2403 24.6691 20.4548 24.696 20.7498C24.7229 21.0447 24.4807 21.286 24.2116 21.3128C23.9425 21.3396 23.6734 21.0983 23.6465 20.8034C23.6465 20.5085 23.8618 20.2672 24.1578 20.2403H24.1309Z" fill="#FFFFAB"/>
<path style="mix-blend-mode:screen" d="M26.4992 10.6685C27.5487 10.6149 28.4637 11.4192 28.5175 12.4649C28.5714 13.5106 27.764 14.4222 26.7145 14.4758C25.665 14.5294 24.75 13.7251 24.6961 12.6794C24.6423 11.6337 25.4497 10.7221 26.4992 10.6685Z" fill="url(#paint5_radial_50_1149)"/>
<path d="M26.7144 12.0359C27.0104 12.0359 27.2526 12.2504 27.2795 12.5185C27.2795 12.8135 27.0642 13.0548 26.7951 13.0816C26.526 13.1084 26.2569 12.8671 26.23 12.599C26.23 12.304 26.4453 12.0627 26.7413 12.0359H26.7144Z" fill="#FFFFAB"/>
<path style="mix-blend-mode:screen" d="M24.9653 34.1825C26.0148 34.1289 26.9298 34.9333 26.9836 35.9789C27.0374 37.0246 26.2301 37.9362 25.1806 37.9898C24.131 38.0434 23.216 37.2391 23.1622 36.1934C23.1084 35.1478 23.9157 34.2361 24.9653 34.1825Z" fill="url(#paint6_radial_50_1149)"/>
<path d="M25.1807 35.5499C25.4768 35.5499 25.719 35.7644 25.7459 36.0594C25.7728 36.3543 25.5306 36.5956 25.2346 36.6224C24.9385 36.6224 24.6963 36.4079 24.6694 36.113C24.6694 35.8181 24.8847 35.5767 25.1538 35.5499H25.1807Z" fill="#FFFFAB"/>
<path style="mix-blend-mode:screen" d="M15.9501 6.48584C18.9104 6.29816 21.44 8.55036 21.6284 11.4997C21.8168 14.449 19.5562 16.9693 16.596 17.157C13.6357 17.3447 11.1061 15.0925 10.9177 12.1432C10.7293 9.19384 12.9899 6.67353 15.9501 6.48584Z" fill="url(#paint7_radial_50_1149)"/>
<path d="M16.596 10.3199C17.4033 10.2663 18.1299 10.883 18.1569 11.7142C18.2107 12.5185 17.5917 13.2424 16.7575 13.2693C15.9501 13.3229 15.2235 12.7062 15.1966 11.875C15.1428 11.0707 15.7618 10.3468 16.596 10.3199Z" fill="#FFFFAB"/>
<path style="mix-blend-mode:screen" d="M31.2355 47.2667C32.6349 47.1863 33.8729 48.2588 33.9536 49.653C34.0343 51.0472 32.9579 52.2806 31.5585 52.361C30.1591 52.4414 28.9212 51.3689 28.8404 49.9747C28.7597 48.5805 29.8362 47.3472 31.2355 47.2667Z" fill="url(#paint8_radial_50_1149)"/>
<path d="M31.5585 49.0899C31.9622 49.0899 32.2851 49.3581 32.312 49.7602C32.339 50.1624 32.0429 50.4842 31.6393 50.511C31.2356 50.511 30.9127 50.2428 30.8857 49.8407C30.8857 49.4385 31.1549 49.1167 31.5585 49.0899Z" fill="#FFFFAB"/>
<path style="mix-blend-mode:screen" d="M8.49547 53.9965C9.19516 53.9429 9.81412 54.4791 9.84103 55.203C9.86794 55.927 9.35663 56.5168 8.63003 56.5436C7.90342 56.5705 7.31137 56.061 7.28446 55.3371C7.25755 54.6132 7.76886 54.0233 8.49547 53.9965Z" fill="url(#paint9_radial_50_1149)"/>
<path d="M8.65692 54.9081C8.8453 54.9081 9.00677 55.0422 9.03368 55.2299C9.03368 55.4175 8.89912 55.6052 8.71074 55.6052C8.52236 55.6052 8.33398 55.4712 8.33398 55.2835C8.33398 55.0958 8.46854 54.9081 8.65692 54.9081Z" fill="#FFFFAB"/>
<path style="mix-blend-mode:screen" d="M44.4759 32.0912C45.1756 32.0376 45.7946 32.5738 45.8215 33.2977C45.8753 33.9948 45.3371 34.6115 44.6105 34.6383C43.8839 34.6651 43.2919 34.1557 43.2649 33.4318C43.2111 32.7347 43.7493 32.118 44.4759 32.0912Z" fill="url(#paint10_radial_50_1149)"/>
<path d="M44.6374 33.0028C44.8258 33.0028 44.9872 33.1369 45.0141 33.3245C45.0141 33.5122 44.8796 33.6731 44.6912 33.6999C44.5028 33.6999 44.3414 33.5659 44.3145 33.3782C44.3145 33.1905 44.449 33.0028 44.6374 33.0028Z" fill="#FFFFAB"/>
<path style="mix-blend-mode:screen" d="M26.7144 52.1197C27.2526 52.0929 27.6832 52.495 27.737 53.0045C27.7639 53.5407 27.3603 53.9697 26.849 54.0233C26.3107 54.0501 25.8802 53.648 25.8263 53.1385C25.7725 52.6291 26.2031 52.1733 26.7144 52.1197Z" fill="url(#paint11_radial_50_1149)"/>
<path d="M26.822 52.79C26.9566 52.79 27.0911 52.8972 27.0911 53.0313C27.0911 53.1653 26.9835 53.2994 26.8489 53.2994C26.7144 53.2994 26.5798 53.1922 26.5798 53.0581C26.5798 52.924 26.6875 52.79 26.822 52.79Z" fill="#FFFFAB"/>
<path style="mix-blend-mode:screen" d="M41.5425 51.3421C42.6459 51.2885 43.5878 52.1197 43.6685 53.219C43.7223 54.3183 42.8881 55.2567 41.7847 55.3371C40.6813 55.4175 39.7394 54.5596 39.6587 53.4603C39.6049 52.361 40.4391 51.4226 41.5425 51.3421Z" fill="url(#paint12_radial_50_1149)"/>
<path d="M41.7848 52.7632C42.0808 52.7632 42.3499 52.9777 42.3768 53.2726C42.3768 53.5675 42.1615 53.8356 41.8655 53.8624C41.5695 53.8624 41.3003 53.648 41.2734 53.353C41.2734 53.0581 41.4887 52.79 41.7848 52.7632Z" fill="#FFFFAB"/>
<path d="M74.0245 60.0292C73.6746 58.9031 76.7156 53.7016 77.4691 53.7284C78.2227 53.7284 77.5499 57.1335 77.0924 57.9379C76.6349 58.7422 74.186 60.5922 74.0245 60.0292Z" fill="white"/>
<path style="mix-blend-mode:screen" d="M7.23071 10.0518C7.23071 10.0518 50.9616 -6.70561 74.2129 5.92279C74.2129 5.92279 76.2582 10.7221 77.2001 18.2563C77.2001 18.2563 69.8533 26.7824 55.9401 27.7477C43.9646 28.552 32.312 13.3229 22.1934 11.446C12.1017 9.56921 7.23071 10.0518 7.23071 10.0518Z" fill="url(#paint13_linear_50_1149)"/>
<path d="M6.34261 13.0816C5.50836 13.2156 3.40928 19.7041 3.51693 20.7766C3.65149 21.8491 6.18115 18.4708 6.5579 16.6744C6.93466 14.878 6.3157 13.0816 6.3157 13.0816H6.34261Z" fill="white"/>
<path d="M6.69267 12.0359C5.67004 11.6337 7.4731 8.8721 9.03395 8.17499C10.5948 7.47788 14.4162 6.70034 14.8468 7.39745C15.2774 8.12137 7.84986 12.4649 6.69267 12.0359Z" fill="white"/>
<defs>
<radialGradient id="paint0_radial_50_1149" cx="0" cy="0" r="1" gradientUnits="userSpaceOnUse" gradientTransform="translate(41.0112 80.7724) scale(38.6955 48.7362)">
<stop stop-color="#008CCA"/>
<stop offset="1" stop-color="#003BF1"/>
</radialGradient>
<linearGradient id="paint1_linear_50_1149" x1="40.5199" y1="64.5336" x2="40.5199" y2="0.587225" gradientUnits="userSpaceOnUse">
<stop stop-color="#92FFF1"/>
<stop offset="1" stop-color="#0098FF"/>
</linearGradient>
<linearGradient id="paint2_linear_50_1149" x1="40.52" y1="63.4075" x2="40.52" y2="1.25752" gradientUnits="userSpaceOnUse">
<stop stop-color="#00EFF1"/>
<stop offset="1" stop-color="#0098FF"/>
</linearGradient>
<linearGradient id="paint3_linear_50_1149" x1="75.7736" y1="54.9886" x2="6.23486" y2="54.9886" gradientUnits="userSpaceOnUse">
<stop stop-color="#40FF79"/>
<stop offset="0.1" stop-color="#3BEE71"/>
<stop offset="0.29" stop-color="#31C45D"/>
<stop offset="0.56" stop-color="#20803D"/>
<stop offset="0.88" stop-color="#092411"/>
<stop offset="1"/>
</linearGradient>
<radialGradient id="paint4_radial_50_1149" cx="0" cy="0" r="1" gradientUnits="userSpaceOnUse" gradientTransform="translate(23.966 20.7514) rotate(-93.4326) scale(1.90367 1.91067)">
<stop stop-color="#00B359"/>
<stop offset="0.13" stop-color="#009148"/>
<stop offset="0.34" stop-color="#005D2E"/>
<stop offset="0.54" stop-color="#00351A"/>
<stop offset="0.73" stop-color="#00170B"/>
<stop offset="0.89" stop-color="#000603"/>
<stop offset="1"/>
</radialGradient>
<radialGradient id="paint5_radial_50_1149" cx="0" cy="0" r="1" gradientUnits="userSpaceOnUse" gradientTransform="translate(26.5755 12.565) rotate(-93.4326) scale(1.90367 1.91068)">
<stop stop-color="#00B359"/>
<stop offset="0.13" stop-color="#009148"/>
<stop offset="0.34" stop-color="#005D2E"/>
<stop offset="0.54" stop-color="#00351A"/>
<stop offset="0.73" stop-color="#00170B"/>
<stop offset="0.89" stop-color="#000603"/>
<stop offset="1"/>
</radialGradient>
<radialGradient id="paint6_radial_50_1149" cx="0" cy="0" r="1" gradientUnits="userSpaceOnUse" gradientTransform="translate(25.0205 36.0792) rotate(-93.4326) scale(1.90367 1.91068)">
<stop stop-color="#00B359"/>
<stop offset="0.13" stop-color="#009148"/>
<stop offset="0.34" stop-color="#005D2E"/>
<stop offset="0.54" stop-color="#00351A"/>
<stop offset="0.73" stop-color="#00170B"/>
<stop offset="0.89" stop-color="#000603"/>
<stop offset="1"/>
</radialGradient>
<radialGradient id="paint7_radial_50_1149" cx="0" cy="0" r="1" gradientUnits="userSpaceOnUse" gradientTransform="translate(16.2035 11.7858) rotate(-93.4326) scale(5.33564 5.35527)">
<stop stop-color="#00B359"/>
<stop offset="0.13" stop-color="#009148"/>
<stop offset="0.34" stop-color="#005D2E"/>
<stop offset="0.54" stop-color="#00351A"/>
<stop offset="0.73" stop-color="#00170B"/>
<stop offset="0.89" stop-color="#000603"/>
<stop offset="1"/>
</radialGradient>
<radialGradient id="paint8_radial_50_1149" cx="0" cy="0" r="1" gradientUnits="userSpaceOnUse" gradientTransform="translate(31.3418 49.7774) rotate(-93.4326) scale(2.54717 2.55654)">
<stop stop-color="#00B359"/>
<stop offset="0.13" stop-color="#009148"/>
<stop offset="0.34" stop-color="#005D2E"/>
<stop offset="0.54" stop-color="#00351A"/>
<stop offset="0.73" stop-color="#00170B"/>
<stop offset="0.89" stop-color="#000603"/>
<stop offset="1"/>
</radialGradient>
<radialGradient id="paint9_radial_50_1149" cx="0" cy="0" r="1" gradientUnits="userSpaceOnUse" gradientTransform="translate(8.53857 55.2446) rotate(-93.4326) scale(1.28699 1.29172)">
<stop stop-color="#00B359"/>
<stop offset="0.13" stop-color="#009148"/>
<stop offset="0.34" stop-color="#005D2E"/>
<stop offset="0.54" stop-color="#00351A"/>
<stop offset="0.73" stop-color="#00170B"/>
<stop offset="0.89" stop-color="#000603"/>
<stop offset="1"/>
</radialGradient>
<radialGradient id="paint10_radial_50_1149" cx="0" cy="0" r="1" gradientUnits="userSpaceOnUse" gradientTransform="translate(44.5107 33.3609) rotate(-93.4326) scale(1.28699 1.29172)">
<stop stop-color="#00B359"/>
<stop offset="0.13" stop-color="#009148"/>
<stop offset="0.34" stop-color="#005D2E"/>
<stop offset="0.54" stop-color="#00351A"/>
<stop offset="0.73" stop-color="#00170B"/>
<stop offset="0.89" stop-color="#000603"/>
<stop offset="1"/>
</radialGradient>
<radialGradient id="paint11_radial_50_1149" cx="0" cy="0" r="1" gradientUnits="userSpaceOnUse" gradientTransform="translate(26.7398 53.0597) rotate(-93.4327) scale(0.938427 0.941883)">
<stop stop-color="#00B359"/>
<stop offset="0.13" stop-color="#009148"/>
<stop offset="0.34" stop-color="#005D2E"/>
<stop offset="0.54" stop-color="#00351A"/>
<stop offset="0.73" stop-color="#00170B"/>
<stop offset="0.89" stop-color="#000603"/>
<stop offset="1"/>
</radialGradient>
<radialGradient id="paint12_radial_50_1149" cx="0" cy="0" r="1" gradientUnits="userSpaceOnUse" gradientTransform="translate(41.6358 53.3008) rotate(-93.4327) scale(1.98411 1.99141)">
<stop stop-color="#00B359"/>
<stop offset="0.13" stop-color="#009148"/>
<stop offset="0.34" stop-color="#005D2E"/>
<stop offset="0.54" stop-color="#00351A"/>
<stop offset="0.73" stop-color="#00170B"/>
<stop offset="0.89" stop-color="#000603"/>
<stop offset="1"/>
</radialGradient>
<linearGradient id="paint13_linear_50_1149" x1="7.23071" y1="14.5026" x2="77.2001" y2="14.5026" gradientUnits="userSpaceOnUse">
<stop stop-color="#7ED140"/>
<stop offset="0.11" stop-color="#74C03B"/>
<stop offset="0.34" stop-color="#5A962E"/>
<stop offset="0.65" stop-color="#315219"/>
<stop offset="1"/>
</linearGradient>
</defs>
</svg>
