<svg width="71" height="66" viewBox="0 0 71 66" fill="none" xmlns="http://www.w3.org/2000/svg">
<path opacity="0.1" d="M64.7882 57.7452C64.6652 57.8777 64.5217 58.0103 64.3577 58.1326C52.2238 67.9924 18.794 67.6457 4.14919 58.7852C3.38057 58.3264 2.86816 57.8369 2.6222 57.3271C-2.57367 46.5701 0.244602 14.1972 8.49446 7.19238C17.349 -0.312025 51.3937 -3.70736 62.3286 5.83629C70.353 12.8309 74.1756 47.9364 64.7882 57.7452Z" fill="#3C3E48"/>
<path d="M62.8031 56.5434C62.6875 56.6686 62.5527 56.7938 62.3987 56.9093C50.9975 66.2209 19.5867 65.8935 5.82634 57.5256C5.10414 57.0923 4.62267 56.6301 4.39157 56.1486C-0.490503 45.9897 2.15756 15.4165 9.90917 8.80118C18.2289 1.71399 50.2176 -1.49258 60.4921 7.52048C68.0318 14.1262 71.6236 47.28 62.8031 56.5434Z" fill="url(#paint0_linear_426_8018)"/>
<path d="M4.38962 54.1392C9.09836 63.9418 53.1044 64.7218 62.8011 54.534C71.6216 45.2705 68.0299 12.1168 60.4901 5.51103C50.2156 -3.50202 18.227 -0.295457 9.90722 6.80136C2.15561 13.4071 -0.492456 43.9802 4.38962 54.1392Z" fill="url(#paint1_radial_426_8018)"/>
<g style="mix-blend-mode:multiply" filter="url(#filter0_f_426_8018)">
<path d="M51 26.0371C51 16.643 43.3736 9 34 9C24.6264 9 17 16.643 17 26.0371C17 32.3007 20.3549 37.9579 25.8008 40.9607C25.6596 41.0378 25.5133 41.1148 25.361 41.1919C23.7948 41.9829 22.528 42.557 21.5102 43.0185C19.2566 44.04 18.1353 44.56 17.9602 45.6733C17.9439 45.7762 17.9239 45.877 17.9239 45.9911V54H50.4456V45.9911C50.4456 44.6022 49.331 44.0829 46.6383 42.8289C45.6922 42.3882 44.5155 41.84 43.0979 41.1237C42.896 41.0215 42.6958 40.9148 42.4895 40.7977C47.7552 37.7534 51 32.157 51 26.0371ZM41.8614 31.3666C43.1645 31.3711 44.3796 30.2859 44.7389 28.7585C45.0812 27.3007 44.5711 25.8711 43.5193 25.24C43.7137 22.9044 42.9125 20.603 41.2466 18.7311C39.3839 16.6378 36.7098 15.3888 34.0925 15.3888C31.5854 15.3888 28.9998 16.5651 27.1757 18.5355C25.4601 20.3882 24.5814 22.7126 24.6833 25.1096C24.1045 25.3622 23.6478 25.8503 23.3802 26.5096C23.086 27.2355 23.058 28.0881 23.3018 28.9089C23.7416 30.3918 24.9664 31.4193 26.2695 31.3482C27.2422 33.4349 28.5889 34.9281 30.2785 35.7933C30.2645 35.8304 30.2504 35.8681 30.2356 35.9059C29.9925 36.5445 29.6347 37.4837 29.0286 38.4111C24.0683 36.3215 20.8804 31.5326 20.8804 26.1296C20.8804 18.7778 26.8489 12.7963 34.1848 12.7963C41.5207 12.7963 47.4891 18.7778 47.4891 26.1296C47.4891 31.474 44.3537 36.2407 39.4733 38.3593C38.9293 37.44 38.5716 36.583 38.3284 35.9978C38.2855 35.8949 38.2463 35.8008 38.2094 35.7155C39.7372 34.857 40.9353 33.4288 41.8614 31.3666Z" fill="#CED6FF"/>
</g>
<path d="M53 24.0371C53 14.643 45.3736 7 36 7C26.6264 7 19 14.643 19 24.0371C19 30.3007 22.3549 35.9579 27.8008 38.9607C27.6596 39.0378 27.5133 39.1148 27.361 39.1919C25.7948 39.9829 24.528 40.557 23.5102 41.0185C21.2566 42.04 20.1353 42.56 19.9602 43.6733C19.9439 43.7762 19.9239 43.877 19.9239 43.9911V52H52.4456V43.9911C52.4456 42.6022 51.331 42.0829 48.6383 40.8289C47.6922 40.3882 46.5155 39.84 45.0979 39.1237C44.896 39.0215 44.6958 38.9148 44.4895 38.7977C49.7552 35.7534 53 30.157 53 24.0371ZM43.8614 29.3666C45.1645 29.3711 46.3796 28.2859 46.7389 26.7585C47.0812 25.3007 46.5711 23.8711 45.5193 23.24C45.7137 20.9044 44.9125 18.603 43.2466 16.7311C41.3839 14.6378 38.7098 13.3888 36.0925 13.3888C33.5854 13.3888 30.9998 14.5651 29.1757 16.5355C27.4601 18.3882 26.5814 20.7126 26.6833 23.1096C26.1045 23.3622 25.6478 23.8503 25.3802 24.5096C25.086 25.2355 25.058 26.0881 25.3018 26.9089C25.7416 28.3918 26.9664 29.4193 28.2695 29.3482C29.2422 31.4349 30.5889 32.9281 32.2785 33.7933C32.2645 33.8304 32.2504 33.8681 32.2356 33.9059C31.9925 34.5445 31.6347 35.4837 31.0286 36.4111C26.0683 34.3215 22.8804 29.5326 22.8804 24.1296C22.8804 16.7778 28.8489 10.7963 36.1848 10.7963C43.5207 10.7963 49.4891 16.7778 49.4891 24.1296C49.4891 29.474 46.3537 34.2407 41.4733 36.3593C40.9293 35.44 40.5716 34.583 40.3284 33.9978C40.2855 33.8949 40.2463 33.8008 40.2094 33.7155C41.7372 32.857 42.9353 31.4288 43.8614 29.3666Z" fill="white"/>
<path style="mix-blend-mode:screen" d="M9.5 8.50001C9.5 8.50001 22.5 -4 57 4C57 4 68 14 65.0251 20.7287C65.0251 20.7287 66 23 62 25C60.993 17.767 48 9.70387 39 7.70346C30.5 7.70346 8 10.5 8 10.5L9.5 8.50001Z" fill="url(#paint2_linear_426_8018)"/>
<path d="M7 11.5377C7 11.5377 8.47329 8.51406 11.8821 6.89633C15.3005 5.27861 25.0165 3.65125 25.575 4.06531C26.1239 4.47937 20.8373 6.38598 18.1026 7.39706C15.3679 8.40814 8.39625 12.3176 7 11.5473V11.5377Z" fill="white"/>
<path style="mix-blend-mode:screen" d="M62.311 54.1143C62.311 54.1143 58.4997 58.1686 50.9997 59.5C47.276 60.161 42.9295 61.0465 42.4997 60.5C42.0791 59.9561 47.6056 55.4426 50.51 55.1869C53.4144 54.9312 61.1692 52.9944 62.3135 54.1051L62.311 54.1143Z" fill="url(#paint3_linear_426_8018)"/>
<path d="M7.35415 13.0096C6.65121 13.1156 4.89867 18.5658 5.0046 19.4613C5.11052 20.3568 7.21934 17.5258 7.54674 16.014C7.87414 14.5118 7.35415 13 7.35415 13V13.0096Z" fill="white"/>
<path style="mix-blend-mode:screen" d="M63.4514 52.0184C64.1606 51.9703 66.3531 46.6817 66.3208 45.7805C66.2885 44.8793 63.9551 47.5284 63.5052 49.0083C63.056 50.4787 63.4506 52.028 63.4506 52.028L63.4514 52.0184Z" fill="url(#paint4_linear_426_8018)"/>
<path d="M60.0316 54.7213C59.6223 53.6892 63.3061 48.9776 64.246 49.0001C65.1859 49.0225 64.3521 52.0963 63.776 52.8142C63.2151 53.5322 60.2287 55.2373 60.0316 54.7213Z" fill="white"/>
<defs>
<filter id="filter0_f_426_8018" x="16" y="8" width="36" height="47" filterUnits="userSpaceOnUse" color-interpolation-filters="sRGB">
<feFlood flood-opacity="0" result="BackgroundImageFix"/>
<feBlend mode="normal" in="SourceGraphic" in2="BackgroundImageFix" result="shape"/>
<feGaussianBlur stdDeviation="0.5" result="effect1_foregroundBlur_426_8018"/>
</filter>
<linearGradient id="paint0_linear_426_8018" x1="38.1872" y1="63.8469" x2="38.1872" y2="2.00905" gradientUnits="userSpaceOnUse">
<stop stop-color="#C26900"/>
<stop offset="1" stop-color="#923D00"/>
</linearGradient>
<radialGradient id="paint1_radial_426_8018" cx="0" cy="0" r="1" gradientUnits="userSpaceOnUse" gradientTransform="translate(35.7326 57.4711) scale(25.3388 75.8087)">
<stop stop-color="#FFBD00"/>
<stop offset="1" stop-color="#FF772C"/>
</radialGradient>
<linearGradient id="paint2_linear_426_8018" x1="11.6763" y1="13.8808" x2="57.9957" y2="13.8808" gradientUnits="userSpaceOnUse">
<stop stop-color="#7ED140"/>
<stop offset="0.11" stop-color="#74C03B"/>
<stop offset="0.34" stop-color="#5A962E"/>
<stop offset="0.65" stop-color="#315219"/>
<stop offset="1"/>
</linearGradient>
<linearGradient id="paint3_linear_426_8018" x1="59.6271" y1="56.9107" x2="45.5873" y2="53.0805" gradientUnits="userSpaceOnUse">
<stop stop-color="#7ED140"/>
<stop offset="0.11" stop-color="#74C03B"/>
<stop offset="0.34" stop-color="#5A962E"/>
<stop offset="0.65" stop-color="#315219"/>
<stop offset="1"/>
</linearGradient>
<linearGradient id="paint4_linear_426_8018" x1="65.8267" y1="48.6257" x2="63.758" y2="48.4559" gradientUnits="userSpaceOnUse">
<stop stop-color="#7ED140"/>
<stop offset="0.11" stop-color="#74C03B"/>
<stop offset="0.34" stop-color="#5A962E"/>
<stop offset="0.65" stop-color="#315219"/>
<stop offset="1"/>
</linearGradient>
</defs>
</svg>
