<svg width="56" height="53" viewBox="0 0 56 53" fill="none" xmlns="http://www.w3.org/2000/svg">
<path opacity="0.1" d="M51.3187 46.1661C51.2213 46.2711 51.1076 46.376 50.9777 46.473C41.3665 54.2829 14.8867 54.0083 3.28657 46.9899C2.67775 46.6264 2.27187 46.2388 2.07704 45.8349C-2.0386 37.3143 0.193749 11.6717 6.72845 6.12323C13.7421 0.178993 40.7089 -2.51045 49.3705 5.04907C55.7266 10.5895 58.7544 38.3966 51.3187 46.1661Z" fill="#3C3E48"/>
<path d="M49.7467 45.2141C49.6552 45.3133 49.5484 45.4125 49.4263 45.504C40.3955 52.8797 15.515 52.6203 4.61543 45.9921C4.04337 45.6489 3.662 45.2828 3.47895 44.9014C-0.388141 36.8545 1.70939 12.6376 7.84944 7.39756C14.4395 1.7838 39.7777 -0.756122 47.9161 6.38311C53.8884 11.6155 56.7334 37.8766 49.7467 45.2141Z" fill="url(#paint0_linear_548_1941)"/>
<path d="M3.47699 43.3097C7.20679 51.0744 42.0639 51.6922 49.7447 43.6225C56.7314 36.2849 53.8864 10.0238 47.9142 4.79143C39.7757 -2.3478 14.4376 0.192116 7.84749 5.8135C1.70744 11.0459 -0.390094 35.2629 3.47699 43.3097Z" fill="url(#paint1_radial_548_1941)"/>
<g style="mix-blend-mode:multiply" filter="url(#filter0_f_548_1941)">
<path d="M44.5787 22.7043V36.7129H16.1281V22.7043H44.5787ZM47 20.4172H13.7068V39H47V20.4172Z" fill="#CED6FF"/>
<path d="M37.92 20.4172L41.328 23.6363C41.3023 23.755 41.2524 23.865 41.2524 23.9908C41.2524 25.0157 42.1316 25.8448 43.2167 25.8448C43.3498 25.8448 43.4649 25.7976 43.5905 25.7748L47 28.9939V20.4172H37.92Z" fill="#CED6FF"/>
<path d="M40.19 31.564C41.2749 31.564 42.1543 30.7333 42.1543 29.7086C42.1543 28.6839 41.2749 27.8532 40.19 27.8532C39.1052 27.8532 38.2257 28.6839 38.2257 29.7086C38.2257 30.7333 39.1052 31.564 40.19 31.564Z" fill="#CED6FF"/>
<path d="M30.3534 34.5887C33.6347 34.5887 36.2947 32.4038 36.2947 29.7086C36.2947 27.0134 33.6347 24.8285 30.3534 24.8285C27.0721 24.8285 24.4121 27.0134 24.4121 29.7086C24.4121 32.4038 27.0721 34.5887 30.3534 34.5887Z" fill="#CED6FF"/>
<path d="M20.5167 31.5626C21.6008 31.5626 22.4795 30.7325 22.4795 29.7086C22.4795 28.6847 21.6008 27.8546 20.5167 27.8546C19.4327 27.8546 18.554 28.6847 18.554 29.7086C18.554 30.7325 19.4327 31.5626 20.5167 31.5626Z" fill="#CED6FF"/>
<path d="M13.7068 28.9939L17.1148 25.7748C17.2404 25.7991 17.3569 25.8462 17.4901 25.8462C18.5751 25.8462 19.4529 25.0157 19.4529 23.9908C19.4529 23.865 19.4029 23.7564 19.3772 23.6377L22.7867 20.4172H13.7068V28.9939Z" fill="#CED6FF"/>
<path d="M19.4544 35.4264C19.4544 34.4015 18.5751 33.5724 17.4901 33.5724C17.3569 33.5724 17.2419 33.6196 17.1163 33.6424L13.7068 30.4233V39H22.7867L19.3787 35.7809C19.4044 35.6622 19.4544 35.5507 19.4544 35.4264Z" fill="#CED6FF"/>
<path d="M43.2167 33.571C42.1316 33.571 41.2539 34.4015 41.2539 35.4264C41.2539 35.5522 41.3038 35.6608 41.3296 35.7795L37.92 39H47V30.4233L43.592 33.6424C43.4664 33.6181 43.3498 33.571 43.2167 33.571Z" fill="#CED6FF"/>
<path d="M35.9557 17.0923C37.0397 17.0923 37.9185 16.2622 37.9185 15.2383C37.9185 14.2144 37.0397 13.3843 35.9557 13.3843C34.8717 13.3843 33.9929 14.2144 33.9929 15.2383C33.9929 16.2622 34.8717 17.0923 35.9557 17.0923Z" fill="#CED6FF"/>
<path d="M11.4368 20.4172C11.4368 19.2336 12.4537 18.273 13.7068 18.273H14.9477L15.0037 18.0901L32.5235 9.02736L33.8628 9.39616C33.9006 9.51052 33.9142 9.63059 33.9793 9.74066C34.4999 10.6412 35.6924 10.9686 36.6458 10.4768C36.7608 10.4168 36.8395 10.3239 36.9349 10.2453L38.2772 10.6169L41.3296 15.8801L40.9376 17.1466C40.8181 17.1809 40.6909 17.1938 40.5744 17.2538C40.131 17.4825 39.8359 17.8571 39.68 18.273H45.4776L37.2027 4L29.2365 8.11967H29.2381L8 19.105L11.4368 25.0329V20.4172Z" fill="#CED6FF"/>
<path d="M24.8449 15.4227C23.5268 16.1031 22.5779 17.1352 22.0452 18.273H32.9911C32.9033 17.837 32.7717 17.4096 32.5386 17.008C31.166 14.6437 27.7232 13.9347 24.8449 15.4227Z" fill="#CED6FF"/>
</g>
<path d="M41.5787 24.7043C42.131 24.7043 42.5787 25.152 42.5787 25.7043V37.7129C42.5787 38.2652 42.131 38.7129 41.5787 38.7129H15.1281C14.5758 38.7129 14.1281 38.2652 14.1281 37.7129V25.7043C14.1281 25.152 14.5758 24.7043 15.1281 24.7043H41.5787ZM45 22.4172H11.7068V41H45V22.4172Z" fill="white"/>
<path d="M38.435 22.4172C37.5303 22.4172 37.0906 23.5229 37.7483 24.1442L39.0637 25.3866C39.2278 25.5416 39.2524 25.7651 39.2524 25.9908C39.2524 27.0157 40.1316 27.8448 41.2167 27.8448C41.4564 27.8448 41.6934 27.8719 41.8677 28.0365L43.3135 29.4016C43.9513 30.0037 45 29.5516 45 28.6744V22.4172H38.435Z" fill="white"/>
<path d="M38.19 33.564C39.2749 33.564 40.1543 32.7333 40.1543 31.7086C40.1543 30.6839 39.2749 29.8532 38.19 29.8532C37.1052 29.8532 36.2257 30.6839 36.2257 31.7086C36.2257 32.7333 37.1052 33.564 38.19 33.564Z" fill="white"/>
<path d="M28.3534 36.5887C31.6347 36.5887 34.2947 34.4038 34.2947 31.7086C34.2947 29.0134 31.6347 26.8285 28.3534 26.8285C25.0721 26.8285 22.4121 29.0134 22.4121 31.7086C22.4121 34.4038 25.0721 36.5887 28.3534 36.5887Z" fill="white"/>
<path d="M18.5167 33.5626C19.6008 33.5626 20.4795 32.7325 20.4795 31.7086C20.4795 30.6847 19.6008 29.8546 18.5167 29.8546C17.4327 29.8546 16.554 30.6847 16.554 31.7086C16.554 32.7325 17.4327 33.5626 18.5167 33.5626Z" fill="white"/>
<path d="M11.7068 28.6737C11.7068 29.551 12.7557 30.0031 13.3934 29.4007L14.8363 28.0378C15.0111 27.8727 15.2496 27.8462 15.4901 27.8462C16.5751 27.8462 17.4529 27.0157 17.4529 25.9908C17.4529 25.766 17.4771 25.5434 17.6405 25.389L18.9584 24.1442C19.6161 23.5229 19.1765 22.4172 18.2718 22.4172H11.7068V28.6737Z" fill="white"/>
<path d="M17.4544 37.4264C17.4544 36.4015 16.5751 35.5724 15.4901 35.5724C15.2504 35.5724 15.0134 35.5453 14.8391 35.3807L13.3933 34.0156C12.7555 33.4135 11.7068 33.8656 11.7068 34.7428V41H18.2718C19.1765 41 19.6161 39.8943 18.9584 39.273L17.643 38.0306C17.479 37.8756 17.4544 37.6521 17.4544 37.4264Z" fill="white"/>
<path d="M41.2167 35.571C40.1316 35.571 39.2539 36.4015 39.2539 37.4264C39.2539 37.6512 39.2297 37.8738 39.0662 38.0282L37.7483 39.273C37.0906 39.8943 37.5303 41 38.435 41H45V34.7435C45 33.8662 43.951 33.4141 43.3133 34.0165L41.8704 35.3794C41.6956 35.5445 41.4571 35.571 41.2167 35.571Z" fill="white"/>
<path d="M33.9557 19.0923C35.0397 19.0923 35.9185 18.2622 35.9185 17.2383C35.9185 16.2144 35.0397 15.3843 33.9557 15.3843C32.8717 15.3843 31.9929 16.2144 31.9929 17.2383C31.9929 18.2622 32.8717 19.0923 33.9557 19.0923Z" fill="white"/>
<path d="M9.43677 22.4172C9.43677 21.2336 10.4537 20.273 11.7068 20.273H12.8257C12.8982 20.273 12.9622 20.2257 12.9834 20.1564C12.9964 20.114 13.0259 20.0786 13.0653 20.0582L30.1759 11.2072C30.3994 11.0916 30.6582 11.0645 30.9008 11.1313L31.5111 11.2993C31.7308 11.3598 31.8633 11.5445 31.9793 11.7407C32.4999 12.6412 33.6924 12.9686 34.6458 12.4768C34.8522 12.3691 35.0684 12.2822 35.2928 12.3444L35.8838 12.508C36.1359 12.5778 36.3507 12.7437 36.482 12.97L39.1098 17.5012C39.2499 17.7428 39.2826 18.0318 39.2001 18.2986L39.0498 18.7839C38.9798 19.0102 38.785 19.1453 38.5744 19.2538C37.9776 19.5616 38.3961 20.273 39.0676 20.273H41.7419C42.5125 20.273 42.9936 19.4381 42.6071 18.7715L35.6807 6.82445C35.4131 6.36284 34.8302 6.19266 34.3562 6.43776L27.2372 10.1193C27.237 10.1194 27.2371 10.1197 27.2373 10.1197C27.2375 10.1197 27.2376 10.1199 27.2374 10.12L6.93196 20.6229C6.42466 20.8853 6.2398 21.5186 6.52626 22.0127L7.57165 23.8158C8.08432 24.7001 9.43677 24.3364 9.43677 23.3143V22.4172Z" fill="white"/>
<path d="M22.8449 17.4227C22.0617 17.827 21.4088 18.3554 20.8962 18.9565C20.4211 19.5135 20.8854 20.273 21.6175 20.273H29.7697C30.4013 20.273 30.896 19.6786 30.6008 19.1202C30.5809 19.0826 30.5602 19.0452 30.5386 19.008C29.166 16.6437 25.7232 15.9347 22.8449 17.4227Z" fill="white"/>
<path style="mix-blend-mode:screen" d="M7.52409 7.15898C7.52409 7.15898 17.8214 -2.74227 45.1488 3.59452C45.1488 3.59452 53.8619 11.5155 51.5055 16.8453C51.5055 16.8453 52.2777 18.6444 49.1093 20.2286C48.3117 14.4993 38.0199 8.11256 30.891 6.52804C24.1582 6.52804 6.33594 8.74318 6.33594 8.74318L7.52409 7.15898Z" fill="url(#paint2_linear_548_1941)"/>
<path d="M5.54492 9.56507C5.54492 9.56507 6.71191 7.17007 9.41201 5.88867C12.1197 4.60727 19.8158 3.31824 20.2582 3.64621C20.6929 3.97419 16.5055 5.48442 14.3393 6.28529C12.1731 7.08617 6.65089 10.1829 5.54492 9.5727V9.56507Z" fill="white"/>
<path style="mix-blend-mode:screen" d="M49.3574 43.29C49.3574 43.29 46.3385 46.5014 40.3978 47.556C37.4483 48.0796 34.0054 48.7809 33.6649 48.3481C33.3318 47.9173 37.7093 44.3421 40.0099 44.1396C42.3105 43.937 48.453 42.4029 49.3594 43.2827L49.3574 43.29Z" fill="url(#paint3_linear_548_1941)"/>
<path d="M5.82566 10.731C5.26886 10.8149 3.88068 15.132 3.96458 15.8414C4.04848 16.5507 5.71888 14.3083 5.97821 13.1108C6.23754 11.9209 5.82566 10.7234 5.82566 10.7234V10.731Z" fill="white"/>
<path style="mix-blend-mode:screen" d="M50.2593 41.6299C50.8211 41.5918 52.5578 37.4027 52.5322 36.6889C52.5066 35.9751 50.6584 38.0734 50.3019 39.2457C49.9462 40.4103 50.2587 41.6375 50.2587 41.6375L50.2593 41.6299Z" fill="url(#paint4_linear_548_1941)"/>
<path d="M47.5504 43.7709C47.2262 42.9534 50.1441 39.2213 50.8886 39.2391C51.6331 39.2568 50.9727 41.6916 50.5164 42.2603C50.0721 42.829 47.7065 44.1796 47.5504 43.7709Z" fill="white"/>
<defs>
<filter id="filter0_f_548_1941" x="7" y="3" width="41" height="37" filterUnits="userSpaceOnUse" color-interpolation-filters="sRGB">
<feFlood flood-opacity="0" result="BackgroundImageFix"/>
<feBlend mode="normal" in="SourceGraphic" in2="BackgroundImageFix" result="shape"/>
<feGaussianBlur stdDeviation="0.5" result="effect1_foregroundBlur_548_1941"/>
</filter>
<linearGradient id="paint0_linear_548_1941" x1="30.2485" y1="50.9993" x2="30.2485" y2="2.01752" gradientUnits="userSpaceOnUse">
<stop stop-color="#C26900"/>
<stop offset="1" stop-color="#923D00"/>
</linearGradient>
<radialGradient id="paint1_radial_548_1941" cx="0" cy="0" r="1" gradientUnits="userSpaceOnUse" gradientTransform="translate(28.3037 45.949) scale(20.0708 60.048)">
<stop stop-color="#FFBD00"/>
<stop offset="1" stop-color="#FF772C"/>
</radialGradient>
<linearGradient id="paint2_linear_548_1941" x1="9.24796" y1="11.4211" x2="45.9375" y2="11.4211" gradientUnits="userSpaceOnUse">
<stop stop-color="#7ED140"/>
<stop offset="0.11" stop-color="#74C03B"/>
<stop offset="0.34" stop-color="#5A962E"/>
<stop offset="0.65" stop-color="#315219"/>
<stop offset="1"/>
</linearGradient>
<linearGradient id="paint3_linear_548_1941" x1="47.2315" y1="45.505" x2="36.1106" y2="42.4711" gradientUnits="userSpaceOnUse">
<stop stop-color="#7ED140"/>
<stop offset="0.11" stop-color="#74C03B"/>
<stop offset="0.34" stop-color="#5A962E"/>
<stop offset="0.65" stop-color="#315219"/>
<stop offset="1"/>
</linearGradient>
<linearGradient id="paint4_linear_548_1941" x1="52.1408" y1="38.9425" x2="50.5022" y2="38.8081" gradientUnits="userSpaceOnUse">
<stop stop-color="#7ED140"/>
<stop offset="0.11" stop-color="#74C03B"/>
<stop offset="0.34" stop-color="#5A962E"/>
<stop offset="0.65" stop-color="#315219"/>
<stop offset="1"/>
</linearGradient>
</defs>
</svg>
