<svg width="80" height="69" viewBox="0 0 80 69" fill="none" xmlns="http://www.w3.org/2000/svg">
<path d="M1.32168 55.5787C4.03972 66.1962 71.9369 74.1861 77.5614 63.1664C82.6745 53.1388 78.8262 12.197 74.4396 5.03824C68.4923 -4.72129 9.74492 2.11574 4.9278 9.81075C0.433612 16.9695 -1.504 44.5858 1.32168 55.5787Z" fill="url(#paint0_radial_426_7916)"/>
<path d="M1.53703 53.7019C4.25507 63.944 71.7486 69.6818 77.3461 59.0374C82.4323 49.3583 78.6648 12.3579 74.3051 5.44048C68.3847 -3.94368 9.85262 2.65204 5.06241 10.0521C0.568225 16.9696 -1.26174 43.0844 1.53703 53.7019Z" fill="url(#paint1_linear_426_7916)"/>
<path d="M2.37107 52.8172C5.03529 62.7644 71.1025 68.4753 76.5924 58.1528C81.571 48.7686 77.8303 12.7066 73.5783 6.00364C67.7655 -3.13922 10.4983 3.26882 5.7888 10.4544C1.40226 17.1574 -0.400793 42.4946 2.37107 52.8172Z" fill="url(#paint2_linear_426_7916)"/>
<path d="M55.3121 46.1114L50.1447 38.9681C49.8775 38.5988 49.7466 38.1477 49.7744 37.6922L50.3063 28.9687C50.3724 27.8847 51.3024 27.0599 52.3806 27.1261C53.4601 27.1924 54.2816 28.125 54.2155 29.209L53.7265 37.2278L58.4807 43.7999C59.1164 44.6786 58.9222 45.9084 58.0473 46.5466C57.1669 47.1889 55.9437 46.9846 55.3121 46.1114Z" fill="#0047E1"/>
<path d="M58.9193 35.4278L53.7797 28.2371C53.1492 27.3549 53.3501 26.1262 54.2287 25.493C55.1072 24.8599 56.3306 25.0615 56.9614 25.9439L61.2398 31.9298L67.0743 29.83C68.0923 29.4637 69.2135 29.9954 69.5783 31.0178C69.9432 32.0402 69.4136 33.166 68.3955 33.5325L61.1708 36.1325C60.3513 36.4272 59.4313 36.1441 58.9193 35.4278Z" fill="#0047E1"/>
<path d="M55.0904 11.6956C49.8481 9.26597 45.8838 10.8491 44.6074 11.5105C44.7607 11.8434 44.8638 12.2047 44.9099 12.5818C45.1779 12.6623 45.4295 12.7767 45.6608 12.9208C45.658 12.9153 45.6556 12.9097 45.6527 12.9041C46.8868 12.3301 50.1096 11.2765 54.3746 13.2533C56.9391 14.4419 60.5032 15.084 64.968 15.1621C66.6932 15.1919 68.4494 15.1329 70 15.0098V13.287C67.6437 13.478 59.853 13.903 55.0904 11.6956Z" fill="#0047E1"/>
<path d="M33.4316 27.5015C33.2563 26.6138 33.8308 25.7515 34.7149 25.5754L41.8284 24.1593L45.2124 17.9837C45.6468 17.1907 46.6393 16.9017 47.4287 17.3381C48.2184 17.7744 48.5062 18.7708 48.0717 19.5638L44.3212 26.4083C44.0888 26.8323 43.6816 27.1316 43.2088 27.2257L35.3495 28.7904C34.4659 28.9663 33.6068 28.3898 33.4316 27.5015Z" fill="#0047E1"/>
<path d="M43.0687 22.3235C42.1972 21.2963 42.32 19.7542 43.3429 18.8791L45.2418 17.2545C46.0811 16.5364 47.1809 16.2028 48.2757 16.3343C49.3705 16.4657 50.361 17.0502 51.008 17.9468L51.6323 18.8119L57.2387 26.3264L50.1458 31.3949L43.0687 22.3235Z" fill="#0047E1"/>
<path d="M58.0974 22.5269L53.9856 19.1602L46.9203 20.3885C46.0315 20.5426 45.1876 19.945 45.0339 19.0534C44.8802 18.1616 45.4755 17.3135 46.3634 17.1591L54.1618 15.8033C54.6274 15.7225 55.1051 15.8482 55.4714 16.148L60.1596 19.9867C60.8582 20.5587 60.9626 21.5909 60.3932 22.2923C59.8222 22.9958 58.794 23.0973 58.0974 22.5269Z" fill="#0047E1"/>
<path d="M46.0487 15.5159L46.9768 16.6388L43.0958 19.8737L42.503 19.1565C41.8339 19.438 41.1103 19.3821 40.086 19.0797C41.2703 18.0401 41.9475 16.7592 41.9029 15.7885C42.0961 15.766 42.2851 15.6895 42.4459 15.5555C42.8875 15.1873 42.9484 14.5294 42.5818 14.0859C42.2152 13.6424 41.56 13.5814 41.1184 13.9495C40.9577 14.0836 40.848 14.2561 40.7904 14.4426C39.8119 14.2113 38.3615 14.6855 37.0902 15.7452C37.0346 15.7916 36.98 15.8387 36.9265 15.8861C36.7685 13.8482 36.5115 12.9344 38.3598 11.3515C40.295 9.69416 43.2467 9.86979 44.9523 11.7438C45.9272 12.8148 46.283 14.2086 46.0487 15.5159Z" fill="#0047E1"/>
<path d="M36.8788 28.4859L38.3748 28.1881L37.8156 24.9582L36.3196 25.256L36.8788 28.4859Z" fill="#0047E1"/>
<path d="M47.7686 28.3479L48.7093 29.5538L55.7548 24.3375L54.8406 23.1121L47.7686 28.3479Z" fill="#0047E1"/>
<path d="M55.9348 20.7561L57.1168 21.724L59.2453 19.238L58.0632 18.2702L55.9348 20.7561Z" fill="#0047E1"/>
<path d="M25.2867 52.3456C24.2186 52.0052 23.6275 50.8598 23.9663 49.7872L26.4776 41.8401L21.3379 35.8331C20.6077 34.9795 20.7046 33.6932 21.5545 32.9598C22.4046 32.2265 23.6856 32.3239 24.4158 33.1774L30.2925 40.0459C30.7508 40.5814 30.9003 41.317 30.6877 41.99L27.8343 51.0198C27.4953 52.092 26.3549 52.686 25.2867 52.3456Z" fill="#0047E1"/>
<path d="M20.4608 23.1571C17.737 22.845 16.2391 20.5049 16.3645 18.4229C16.4903 16.3365 18.2533 13.9119 22.808 13.9453L22.7953 15.695C19.4637 15.6706 18.1874 17.1429 18.1038 18.5287C18.0273 19.7967 18.962 21.2243 20.6584 21.4187L20.4608 23.1571Z" fill="#0047E1"/>
<path d="M14.5251 35.1518C13.5998 35.0604 12.9209 34.2351 13.0074 33.3044L13.5893 27.0375C13.6423 26.4672 13.978 25.9622 14.4821 25.6942L23.1743 21.076C23.9998 20.6375 25.0228 20.9539 25.4597 21.7827C25.8964 22.6116 25.5813 23.6391 24.7559 24.0776L16.8716 28.2665L16.3745 33.6195C16.2879 34.5533 15.4639 35.2396 14.5341 35.1525C14.531 35.1524 14.5279 35.1522 14.5251 35.1518Z" fill="#0047E1"/>
<path d="M29.0959 23.7604C29.4093 22.3981 28.5635 21.0386 27.2069 20.7239L24.6884 20.1397C22.3625 19.6001 20.0679 21.1665 19.7142 23.5396L19.551 24.6344L17.9683 35.1638L26.7725 36.0342L29.0959 23.7604Z" fill="#0047E1"/>
<path d="M35.5526 25.9842C35.1544 25.1361 34.1467 24.7726 33.3022 25.1725L28.5802 27.3845L26.0497 22.5707C25.6767 21.8611 24.8384 21.5381 24.0885 21.8152C23.1643 22.1566 22.766 23.2491 23.2521 24.109L26.9026 30.568C27.2501 31.1827 28.0104 31.4251 28.6473 31.1243L34.7442 28.2441C35.589 27.8442 35.9508 26.8323 35.5526 25.9842Z" fill="#0047E1"/>
<path d="M17.2577 54.2034C18.3376 54.3182 19.316 53.5587 19.4774 52.4802L22.2153 34.1779C22.376 33.0641 21.6073 32.0305 20.4982 31.8692C19.3885 31.7074 18.36 32.4797 18.1992 33.5934L15.4652 51.875C15.2937 53.022 16.1091 54.0813 17.2577 54.2034Z" fill="#0047E1"/>
<path d="M13.1133 32.1635L16.4789 32.4953L16.6255 30.9159L13.26 30.584L13.1133 32.1635Z" fill="#0047E1"/>
<path d="M18.3733 32.47L27.2806 33.3506L27.5767 31.7859L18.6093 30.8992L18.3733 32.47Z" fill="#0047E1"/>
<path d="M32.2089 29.4444L33.6382 28.7677L32.1281 25.7283L30.6989 26.405L32.2089 29.4444Z" fill="#0047E1"/>
<path d="M30.7936 14.4059C30.7232 14.3974 30.6523 14.3898 30.5807 14.3832C28.9466 14.2332 27.4897 14.6236 26.8123 15.3084C26.6615 15.1958 26.4755 15.1208 26.2688 15.1018C25.7012 15.0498 25.1956 15.4365 25.1398 15.9657C25.0839 16.4949 25.4988 16.9662 26.0665 17.0182C26.2733 17.0372 26.4717 16.9973 26.6433 16.9141C27.1449 17.679 28.4113 18.3078 29.9627 18.4877C30.4927 17.8921 30.8597 17.1637 30.987 16.3555C31.0947 15.672 31.018 15.0089 30.7936 14.4059Z" fill="#0047E1"/>
<path d="M36.9578 15.9501C37.0139 15.9043 37.0708 15.8589 37.1288 15.8142C38.4544 14.7914 39.9161 14.3224 40.8646 14.5295C40.9341 14.3517 41.0541 14.1862 41.2217 14.057C41.6822 13.7017 42.2269 13.7671 42.5576 14.1836C42.8882 14.6001 42.8511 15.114 42.3906 15.4692C42.2228 15.5987 42.026 15.669 41.8339 15.6928C41.811 16.6141 41.2356 17.9881 39.997 18.9908C39.2231 18.7782 38.3737 18.3163 37.8326 17.7033C37.375 17.1849 37.0868 16.5825 36.9578 15.9501Z" fill="#0047E1"/>
<path d="M21.678 15.3254C22.0586 12.7227 24.4902 10.8515 27.1093 11.1458C29.5322 11.6123 30.2002 12.3949 30.9608 14.2021C30.8874 14.1926 30.8135 14.184 30.7389 14.1766C29.0352 14.0081 27.5164 14.4466 26.8101 15.2156C26.6529 15.0892 26.459 15.0049 26.2435 14.9837C25.6517 14.9252 25.1247 15.3595 25.0665 15.9538C25.0083 16.5481 25.4408 17.0774 26.0326 17.1358C26.2482 17.1572 26.4551 17.1124 26.634 17.0189C27.1569 17.8779 28.4771 18.5842 30.0946 18.7862C29.1982 19.8852 28.8642 19.8852 28.0652 20.2599L27.971 21.221L22.7701 20.7067L22.9176 19.2019C21.9608 18.2165 21.4604 16.8129 21.678 15.3254Z" fill="#0047E1"/>
<path style="mix-blend-mode:screen" d="M75.2736 58.3136C75.2736 58.3136 43.5183 63.1665 5.73486 54.4526C5.73486 54.4526 30.278 58.4208 41.177 54.4526C59.7189 47.696 70.4027 50.7258 75.2736 58.3136Z" fill="url(#paint3_linear_426_7916)"/>
<path style="mix-blend-mode:screen" d="M23.3891 19.0877C24.4386 19.0341 25.3536 19.8385 25.4074 20.8841C25.4613 21.9298 24.6539 22.8414 23.6044 22.895C22.5548 22.9486 21.6399 22.1443 21.586 21.0986C21.5322 20.053 22.3396 19.1414 23.3891 19.0877Z" fill="url(#paint4_radial_426_7916)"/>
<path d="M23.6314 20.4552C23.9274 20.4552 24.1696 20.6697 24.1965 20.9646C24.2234 21.2596 23.9812 21.5009 23.7121 21.5277C23.443 21.5545 23.1739 21.3132 23.147 21.0182C23.147 20.7233 23.3623 20.482 23.6583 20.4552H23.6314Z" fill="#FFFFAB"/>
<path style="mix-blend-mode:screen" d="M25.9994 10.8833C27.049 10.8296 27.964 11.634 28.0178 12.6797C28.0716 13.7253 27.2643 14.6369 26.2147 14.6906C25.1652 14.7442 24.2502 13.9398 24.1964 12.8942C24.1426 11.8485 24.9499 10.9369 25.9994 10.8833Z" fill="url(#paint5_radial_426_7916)"/>
<path d="M26.2149 12.2507C26.5109 12.2507 26.7531 12.4652 26.78 12.7333C26.78 13.0283 26.5647 13.2696 26.2956 13.2964C26.0265 13.3232 25.7574 13.0819 25.7305 12.8138C25.7305 12.5189 25.9458 12.2775 26.2418 12.2507H26.2149Z" fill="#FFFFAB"/>
<path style="mix-blend-mode:screen" d="M24.4653 34.3973C25.5148 34.3437 26.4298 35.148 26.4836 36.1937C26.5374 37.2394 25.7301 38.151 24.6806 38.2046C23.631 38.2582 22.716 37.4539 22.6622 36.4082C22.6084 35.3625 23.4157 34.4509 24.4653 34.3973Z" fill="url(#paint6_radial_426_7916)"/>
<path d="M24.6807 35.7648C24.9768 35.7648 25.219 35.9793 25.2459 36.2742C25.2728 36.5691 25.0306 36.8104 24.7346 36.8372C24.4385 36.8372 24.1963 36.6228 24.1694 36.3278C24.1694 36.0329 24.3847 35.7916 24.6538 35.7648H24.6807Z" fill="#FFFFAB"/>
<path style="mix-blend-mode:screen" d="M15.4501 6.70063C18.4104 6.51294 20.94 8.76514 21.1284 11.7144C21.3168 14.6638 19.0562 17.1841 16.096 17.3718C13.1357 17.5594 10.6061 15.3072 10.4177 12.3579C10.2293 9.40863 12.4899 6.88831 15.4501 6.70063Z" fill="url(#paint7_radial_426_7916)"/>
<path d="M16.096 10.5347C16.9033 10.4811 17.6299 11.0978 17.6569 11.929C17.7107 12.7333 17.0917 13.4572 16.2575 13.484C15.4501 13.5377 14.7235 12.921 14.6966 12.0898C14.6428 11.2855 15.2618 10.5616 16.096 10.5347Z" fill="#FFFFAB"/>
<path style="mix-blend-mode:screen" d="M30.7358 47.4815C32.1352 47.4011 33.3731 48.4736 33.4538 49.8678C33.5346 51.262 32.4581 52.4954 31.0587 52.5758C29.6593 52.6562 28.4214 51.5838 28.3407 50.1895C28.26 48.7953 29.3364 47.562 30.7358 47.4815Z" fill="url(#paint8_radial_426_7916)"/>
<path d="M31.0585 49.3047C31.4622 49.3047 31.7851 49.5728 31.812 49.975C31.839 50.3772 31.5429 50.6989 31.1393 50.7257C30.7356 50.7257 30.4127 50.4576 30.3857 50.0554C30.3857 49.6532 30.6549 49.3315 31.0585 49.3047Z" fill="#FFFFAB"/>
<path style="mix-blend-mode:screen" d="M7.99571 54.2113C8.69541 54.1577 9.31437 54.694 9.34128 55.4179C9.36819 56.1418 8.85687 56.7317 8.13027 56.7585C7.40367 56.7853 6.81162 56.2759 6.78471 55.5519C6.75779 54.828 7.26911 54.2381 7.99571 54.2113Z" fill="url(#paint9_radial_426_7916)"/>
<path d="M8.15741 55.1229C8.34579 55.1229 8.50725 55.257 8.53417 55.4447C8.53417 55.6324 8.39961 55.82 8.21123 55.82C8.02285 55.82 7.83447 55.686 7.83447 55.4983C7.83447 55.3106 7.96903 55.1229 8.15741 55.1229Z" fill="#FFFFAB"/>
<path style="mix-blend-mode:screen" d="M43.9759 32.3059C44.6756 32.2523 45.2946 32.7886 45.3215 33.5125C45.3753 34.2096 44.8371 34.8263 44.1105 34.8531C43.3839 34.8799 42.7919 34.3705 42.7649 33.6465C42.7111 32.9494 43.2493 32.3328 43.9759 32.3059Z" fill="url(#paint10_radial_426_7916)"/>
<path d="M44.1374 33.2175C44.3258 33.2175 44.4872 33.3516 44.5141 33.5393C44.5141 33.727 44.3796 33.8878 44.1912 33.9146C44.0028 33.9146 43.8414 33.7806 43.8145 33.5929C43.8145 33.4052 43.949 33.2175 44.1374 33.2175Z" fill="#FFFFAB"/>
<path style="mix-blend-mode:screen" d="M26.2149 52.3345C26.7531 52.3077 27.1837 52.7099 27.2375 53.2193C27.2644 53.7555 26.8608 54.1845 26.3495 54.2382C25.8112 54.265 25.3806 53.8628 25.3268 53.3534C25.273 52.8439 25.7036 52.3881 26.2149 52.3345Z" fill="url(#paint11_radial_426_7916)"/>
<path d="M26.3228 53.0048C26.4573 53.0048 26.5919 53.112 26.5919 53.2461C26.5919 53.3801 26.4842 53.5142 26.3497 53.5142C26.2151 53.5142 26.0806 53.4069 26.0806 53.2729C26.0806 53.1388 26.1882 53.0048 26.3228 53.0048Z" fill="#FFFFAB"/>
<path style="mix-blend-mode:screen" d="M41.043 51.5569C42.1464 51.5033 43.0883 52.3344 43.169 53.4337C43.2228 54.533 42.3886 55.4714 41.2852 55.5519C40.1818 55.6323 39.2399 54.7743 39.1592 53.675C39.1054 52.5758 39.9396 51.6373 41.043 51.5569Z" fill="url(#paint12_radial_426_7916)"/>
<path d="M41.2852 52.9779C41.5813 52.9779 41.8504 53.1924 41.8773 53.4873C41.8773 53.7823 41.662 54.0504 41.366 54.0772C41.07 54.0772 40.8008 53.8627 40.7739 53.5678C40.7739 53.2728 40.9892 53.0047 41.2852 52.9779Z" fill="#FFFFAB"/>
<path d="M73.5245 60.244C73.1746 59.1179 76.2156 53.9164 76.9691 53.9432C77.7227 53.9432 77.0499 57.3483 76.5924 58.1527C76.1349 58.957 73.686 60.8071 73.5245 60.244Z" fill="white"/>
<path style="mix-blend-mode:screen" d="M6.73096 10.2668C6.73096 10.2668 50.4618 -6.49064 73.7132 6.13776C73.7132 6.13776 75.7584 10.9371 76.7003 18.4712C76.7003 18.4712 69.3535 26.9974 55.4404 27.9626C43.4649 28.767 31.8123 13.5378 21.6936 11.661C11.6019 9.78417 6.73096 10.2668 6.73096 10.2668Z" fill="url(#paint13_linear_426_7916)"/>
<path d="M5.84286 13.2964C5.00861 13.4304 2.90953 19.9189 3.01717 20.9914C3.15173 22.0639 5.68139 18.6856 6.05815 16.8892C6.43491 15.0928 5.81595 13.2964 5.81595 13.2964H5.84286Z" fill="white"/>
<path d="M6.19267 12.2507C5.17004 11.8485 6.9731 9.08691 8.53395 8.3898C10.0948 7.69269 13.9162 6.91515 14.3468 7.61226C14.7774 8.33618 7.34986 12.6797 6.19267 12.2507Z" fill="white"/>
<defs>
<radialGradient id="paint0_radial_426_7916" cx="0" cy="0" r="1" gradientUnits="userSpaceOnUse" gradientTransform="translate(40.5112 80.9872) scale(38.6955 48.7362)">
<stop stop-color="#008CCA"/>
<stop offset="1" stop-color="#003BF1"/>
</radialGradient>
<linearGradient id="paint1_linear_426_7916" x1="40.0202" y1="64.7484" x2="40.0202" y2="0.802023" gradientUnits="userSpaceOnUse">
<stop stop-color="#92FFF1"/>
<stop offset="1" stop-color="#0098FF"/>
</linearGradient>
<linearGradient id="paint2_linear_426_7916" x1="40.02" y1="63.6224" x2="40.02" y2="1.47243" gradientUnits="userSpaceOnUse">
<stop stop-color="#00EFF1"/>
<stop offset="1" stop-color="#0098FF"/>
</linearGradient>
<linearGradient id="paint3_linear_426_7916" x1="75.2736" y1="55.2034" x2="5.73486" y2="55.2034" gradientUnits="userSpaceOnUse">
<stop stop-color="#40FF79"/>
<stop offset="0.1" stop-color="#3BEE71"/>
<stop offset="0.29" stop-color="#31C45D"/>
<stop offset="0.56" stop-color="#20803D"/>
<stop offset="0.88" stop-color="#092411"/>
<stop offset="1"/>
</linearGradient>
<radialGradient id="paint4_radial_426_7916" cx="0" cy="0" r="1" gradientUnits="userSpaceOnUse" gradientTransform="translate(23.4665 20.9662) rotate(-93.4326) scale(1.90367 1.91067)">
<stop stop-color="#00B359"/>
<stop offset="0.13" stop-color="#009148"/>
<stop offset="0.34" stop-color="#005D2E"/>
<stop offset="0.54" stop-color="#00351A"/>
<stop offset="0.73" stop-color="#00170B"/>
<stop offset="0.89" stop-color="#000603"/>
<stop offset="1"/>
</radialGradient>
<radialGradient id="paint5_radial_426_7916" cx="0" cy="0" r="1" gradientUnits="userSpaceOnUse" gradientTransform="translate(26.0758 12.7798) rotate(-93.4326) scale(1.90367 1.91068)">
<stop stop-color="#00B359"/>
<stop offset="0.13" stop-color="#009148"/>
<stop offset="0.34" stop-color="#005D2E"/>
<stop offset="0.54" stop-color="#00351A"/>
<stop offset="0.73" stop-color="#00170B"/>
<stop offset="0.89" stop-color="#000603"/>
<stop offset="1"/>
</radialGradient>
<radialGradient id="paint6_radial_426_7916" cx="0" cy="0" r="1" gradientUnits="userSpaceOnUse" gradientTransform="translate(24.5205 36.294) rotate(-93.4326) scale(1.90367 1.91068)">
<stop stop-color="#00B359"/>
<stop offset="0.13" stop-color="#009148"/>
<stop offset="0.34" stop-color="#005D2E"/>
<stop offset="0.54" stop-color="#00351A"/>
<stop offset="0.73" stop-color="#00170B"/>
<stop offset="0.89" stop-color="#000603"/>
<stop offset="1"/>
</radialGradient>
<radialGradient id="paint7_radial_426_7916" cx="0" cy="0" r="1" gradientUnits="userSpaceOnUse" gradientTransform="translate(15.7035 12.0006) rotate(-93.4326) scale(5.33564 5.35527)">
<stop stop-color="#00B359"/>
<stop offset="0.13" stop-color="#009148"/>
<stop offset="0.34" stop-color="#005D2E"/>
<stop offset="0.54" stop-color="#00351A"/>
<stop offset="0.73" stop-color="#00170B"/>
<stop offset="0.89" stop-color="#000603"/>
<stop offset="1"/>
</radialGradient>
<radialGradient id="paint8_radial_426_7916" cx="0" cy="0" r="1" gradientUnits="userSpaceOnUse" gradientTransform="translate(30.842 49.9922) rotate(-93.4326) scale(2.54717 2.55654)">
<stop stop-color="#00B359"/>
<stop offset="0.13" stop-color="#009148"/>
<stop offset="0.34" stop-color="#005D2E"/>
<stop offset="0.54" stop-color="#00351A"/>
<stop offset="0.73" stop-color="#00170B"/>
<stop offset="0.89" stop-color="#000603"/>
<stop offset="1"/>
</radialGradient>
<radialGradient id="paint9_radial_426_7916" cx="0" cy="0" r="1" gradientUnits="userSpaceOnUse" gradientTransform="translate(8.03882 55.4594) rotate(-93.4326) scale(1.28699 1.29172)">
<stop stop-color="#00B359"/>
<stop offset="0.13" stop-color="#009148"/>
<stop offset="0.34" stop-color="#005D2E"/>
<stop offset="0.54" stop-color="#00351A"/>
<stop offset="0.73" stop-color="#00170B"/>
<stop offset="0.89" stop-color="#000603"/>
<stop offset="1"/>
</radialGradient>
<radialGradient id="paint10_radial_426_7916" cx="0" cy="0" r="1" gradientUnits="userSpaceOnUse" gradientTransform="translate(44.0107 33.5757) rotate(-93.4326) scale(1.28699 1.29172)">
<stop stop-color="#00B359"/>
<stop offset="0.13" stop-color="#009148"/>
<stop offset="0.34" stop-color="#005D2E"/>
<stop offset="0.54" stop-color="#00351A"/>
<stop offset="0.73" stop-color="#00170B"/>
<stop offset="0.89" stop-color="#000603"/>
<stop offset="1"/>
</radialGradient>
<radialGradient id="paint11_radial_426_7916" cx="0" cy="0" r="1" gradientUnits="userSpaceOnUse" gradientTransform="translate(26.2403 53.2745) rotate(-93.4327) scale(0.938427 0.941883)">
<stop stop-color="#00B359"/>
<stop offset="0.13" stop-color="#009148"/>
<stop offset="0.34" stop-color="#005D2E"/>
<stop offset="0.54" stop-color="#00351A"/>
<stop offset="0.73" stop-color="#00170B"/>
<stop offset="0.89" stop-color="#000603"/>
<stop offset="1"/>
</radialGradient>
<radialGradient id="paint12_radial_426_7916" cx="0" cy="0" r="1" gradientUnits="userSpaceOnUse" gradientTransform="translate(41.1363 53.5156) rotate(-93.4327) scale(1.98411 1.99141)">
<stop stop-color="#00B359"/>
<stop offset="0.13" stop-color="#009148"/>
<stop offset="0.34" stop-color="#005D2E"/>
<stop offset="0.54" stop-color="#00351A"/>
<stop offset="0.73" stop-color="#00170B"/>
<stop offset="0.89" stop-color="#000603"/>
<stop offset="1"/>
</radialGradient>
<linearGradient id="paint13_linear_426_7916" x1="6.73096" y1="14.7176" x2="76.7003" y2="14.7176" gradientUnits="userSpaceOnUse">
<stop stop-color="#7ED140"/>
<stop offset="0.11" stop-color="#74C03B"/>
<stop offset="0.34" stop-color="#5A962E"/>
<stop offset="0.65" stop-color="#315219"/>
<stop offset="1"/>
</linearGradient>
</defs>
</svg>
