<svg width="56" height="53" viewBox="0 0 56 53" fill="none" xmlns="http://www.w3.org/2000/svg">
<path opacity="0.1" d="M51.3187 46.1661C51.2213 46.2711 51.1076 46.3761 50.9777 46.473C41.3665 54.2829 14.8867 54.0083 3.28657 46.9899C2.67775 46.6265 2.27187 46.2388 2.07704 45.835C-2.0386 37.3144 0.193749 11.6718 6.72845 6.12329C13.7421 0.179054 40.7089 -2.51039 49.3705 5.04913C55.7266 10.5895 58.7544 38.3966 51.3187 46.1661Z" fill="#3C3E48"/>
<path d="M49.7467 45.2142C49.6552 45.3134 49.5484 45.4125 49.4263 45.5041C40.3955 52.8797 15.515 52.6204 4.61543 45.9922C4.04337 45.649 3.662 45.2829 3.47895 44.9015C-0.388141 36.8546 1.70939 12.6376 7.84944 7.39762C14.4395 1.78386 39.7777 -0.756061 47.9161 6.38317C53.8884 11.6156 56.7334 37.8767 49.7467 45.2142Z" fill="url(#paint0_linear_429_6751)"/>
<path d="M3.47699 43.3098C7.20679 51.0745 42.0639 51.6923 49.7447 43.6225C56.7314 36.285 53.8864 10.0239 47.9142 4.79149C39.7757 -2.34774 14.4376 0.192177 7.84749 5.81356C1.70744 11.046 -0.390094 35.2629 3.47699 43.3098Z" fill="url(#paint1_radial_429_6751)"/>
<g style="mix-blend-mode:multiply" filter="url(#filter0_f_429_6751)">
<path d="M36.0615 43.1996C35.1416 43.1996 34.3959 42.4589 34.3959 41.5454V28.323C34.3959 27.4094 35.1416 26.6688 36.0615 26.6688C36.9813 26.6688 37.727 27.4094 37.727 28.323V41.5453C37.727 42.4589 36.9813 43.1996 36.0615 43.1996Z" fill="#CED6FF"/>
<path d="M32.0407 43.1996C31.1208 43.1996 30.3751 42.4589 30.3751 41.5454V28.323C30.3751 27.4094 31.1208 26.6688 32.0407 26.6688C32.9606 26.6688 33.7063 27.4094 33.7063 28.323V41.5453C33.7063 42.4589 32.9605 43.1996 32.0407 43.1996Z" fill="#CED6FF"/>
<path d="M41.1884 18.3582C41.1794 16.5684 39.6829 15.1123 37.8525 15.1123C37.8139 15.1123 37.7717 15.1123 37.727 15.1123C36.7282 15.1123 31.8859 15.1123 30.3752 15.1123C30.3306 15.1123 30.2884 15.1123 30.2498 15.1123C28.4194 15.1123 26.9229 16.5683 26.9139 18.3582C26.9139 18.3605 26.9139 18.3628 26.9139 18.365V28.4925C26.9139 29.2538 27.5353 29.871 28.3019 29.871C29.0684 29.871 29.6899 29.2538 29.6899 28.4925V18.3696C29.6928 18.1075 29.9589 17.8694 30.2498 17.8694H30.3751V28.323L30.3752 28.323L37.727 28.323L37.7272 28.323V17.8694H37.8525C38.1434 17.8694 38.4096 18.1075 38.4124 18.3696V28.4925C38.4124 29.2538 39.0339 29.871 39.8004 29.871C40.567 29.871 41.1884 29.2538 41.1884 28.4925V18.365C41.1884 18.3628 41.1884 18.3605 41.1884 18.3582Z" fill="#CED6FF"/>
<path d="M36.4861 19.8436H34.7548C34.633 19.8436 34.5342 19.7455 34.5342 19.6245V18.7816C34.5342 18.6606 34.633 18.5625 34.7548 18.5625H36.4861C36.6079 18.5625 36.7067 18.6606 36.7067 18.7816V19.6245C36.7067 19.7455 36.608 19.8436 36.4861 19.8436Z" fill="#CED6FF"/>
<path d="M37.6749 12.1785C37.6652 12.3314 37.6459 12.4816 37.6176 12.6288H36.4496C36.0697 13.3003 35.1402 13.775 34.0529 13.775C32.9656 13.775 32.0361 13.3003 31.6562 12.6288H30.4882C30.4515 12.4374 30.4298 12.2408 30.4248 12.04C30.447 12.9526 30.8112 13.7807 31.3943 14.4039V15.7979H36.7113V14.4039C37.2649 13.8124 37.6211 13.0363 37.6749 12.1785Z" fill="#CED6FF"/>
<path d="M30.4238 11.9515C30.4238 11.7219 30.4463 11.4978 30.4876 11.2802H31.6562C32.0361 10.6088 32.9656 10.134 34.0528 10.134C35.1402 10.134 36.0696 10.6087 36.4497 11.2802H37.6183C37.6528 11.4625 37.6742 11.6493 37.6803 11.84C37.621 9.90103 36.0197 8.34717 34.0528 8.34717C32.0485 8.34717 30.4238 9.96093 30.4238 11.9515Z" fill="#CED6FF"/>
<path d="M37.7274 25.7053H30.3752V27.0538H37.7274V25.7053Z" fill="#CED6FF"/>
<path d="M29.6899 24.3357H26.9139V25.6843H29.6899V24.3357Z" fill="#CED6FF"/>
<path d="M41.1888 24.3357H38.4128V25.6843H41.1888V24.3357Z" fill="#CED6FF"/>
<path d="M23.8972 19.3924C23.8885 17.6772 22.4543 16.2817 20.7002 16.2817C19.8189 16.2817 14.8037 16.2817 13.4939 16.2817C11.7398 16.2817 10.3056 17.6772 10.2969 19.399V29.1048C10.2969 29.8345 10.8925 30.4259 11.6271 30.4259C12.3617 30.4259 12.9573 29.8344 12.9573 29.1048V19.4057C12.9586 19.1536 13.2143 18.924 13.494 18.924H13.6141V41.6142C13.6141 42.4898 14.3288 43.1995 15.2103 43.1995C16.0919 43.1995 16.8065 42.4897 16.8065 41.6142V28.9424H17.4674V41.6142C17.4674 42.4898 18.182 43.1995 19.0636 43.1995C19.9452 43.1995 20.6598 42.4897 20.6598 41.6142V18.924H20.7001C20.9797 18.924 21.2355 19.1537 21.2367 19.3991V29.1049C21.2367 29.8345 21.8323 30.426 22.5669 30.426C23.3015 30.426 23.8971 29.8345 23.8971 29.1049L23.8972 19.3924Z" fill="#CED6FF"/>
<path d="M20.4516 12.9329C20.0478 14.8592 18.6989 17.3279 17.097 17.3279C15.4952 17.3279 14.1462 14.8592 13.7424 12.9329C13.7784 13.028 13.8225 13.1223 13.8748 13.2147C14.3227 14.0059 15.844 15.0965 16.3162 14.8328C16.7885 14.5691 16.6406 12.7115 16.1926 11.9202C15.7447 11.129 14.8627 10.7773 14.2226 11.1347C13.8736 11.3296 13.6686 11.6951 13.6269 12.1155C13.6217 12.0313 13.619 11.9495 13.619 11.8705C13.619 9.96277 15.1761 8.41627 17.0969 8.41627C19.0178 8.41627 20.575 9.96277 20.575 11.8705C20.575 11.9495 20.5723 12.0313 20.567 12.1155C20.5254 11.6951 20.3204 11.3296 19.9714 11.1347C19.3313 10.7773 18.4493 11.129 18.0013 11.9202C17.5534 12.7115 17.4055 14.5691 17.8778 14.8328C18.35 15.0965 19.8712 14.0059 20.3192 13.2147C20.3715 13.1223 20.4156 13.028 20.4516 12.9329Z" fill="#CED6FF"/>
</g>
<path d="M37.6455 41.6154C36.7256 41.6154 35.9799 40.8748 35.9799 39.9612V26.7388C35.9799 25.8252 36.7256 25.0846 37.6455 25.0846C38.5653 25.0846 39.311 25.8252 39.311 26.7388V39.9611C39.311 40.8748 38.5653 41.6154 37.6455 41.6154Z" fill="white"/>
<path d="M33.6247 41.6154C32.7048 41.6154 31.9591 40.8748 31.9591 39.9612V26.7388C31.9591 25.8252 32.7048 25.0846 33.6247 25.0846C34.5445 25.0846 35.2902 25.8252 35.2902 26.7388V39.9611C35.2903 40.8748 34.5445 41.6154 33.6247 41.6154Z" fill="white"/>
<path d="M42.7724 16.774C42.7634 14.9842 41.2669 13.5281 39.4365 13.5281C39.3979 13.5281 39.3557 13.5281 39.311 13.5281C38.3122 13.5281 33.4699 13.5281 31.9592 13.5281C31.9145 13.5281 31.8724 13.5281 31.8337 13.5281C30.0034 13.5281 28.5068 14.9841 28.4979 16.774C28.4979 16.7763 28.4979 16.7786 28.4979 16.7809V26.9084C28.4979 27.6697 29.1193 28.2869 29.8859 28.2869C30.6524 28.2869 31.2738 27.6697 31.2738 26.9084V16.7854C31.2768 16.5233 31.5429 16.2852 31.8337 16.2852C31.903 16.2852 31.9591 16.3413 31.9591 16.4105V26.7388C31.9592 26.7388 31.9593 26.7389 31.9594 26.7389L39.311 26.7388C39.3111 26.7388 39.3112 26.7388 39.3112 26.7387V16.4105C39.3112 16.3413 39.3673 16.2852 39.4365 16.2852C39.7274 16.2852 39.9935 16.5234 39.9964 16.7854V26.9084C39.9964 27.6697 40.6179 28.2869 41.3844 28.2869C42.151 28.2869 42.7724 27.6697 42.7724 26.9084V16.7809C42.7724 16.7786 42.7724 16.7763 42.7724 16.774Z" fill="white"/>
<path d="M38.0701 18.2595H36.3388C36.217 18.2595 36.1182 18.1614 36.1182 18.0403V17.1975C36.1182 17.0764 36.217 16.9784 36.3388 16.9784H38.0701C38.1919 16.9784 38.2907 17.0764 38.2907 17.1975V18.0403C38.2907 18.1613 38.192 18.2595 38.0701 18.2595Z" fill="white"/>
<path d="M39.2589 10.5944C39.2422 10.8574 39.0111 11.0446 38.7475 11.0446H38.5169C38.2182 11.0446 37.9511 11.2155 37.7389 11.4256C37.2713 11.8887 36.5043 12.1909 35.6369 12.1909C34.7695 12.1909 34.0025 11.8887 33.5349 11.4256C33.3227 11.2155 33.0556 11.0446 32.7569 11.0446H32.665C32.3209 11.0446 32.0173 10.7998 32.0088 10.4559C32.0276 11.2279 32.2911 11.9394 32.7249 12.5176C32.877 12.7204 32.9783 12.9608 32.9783 13.2144C32.9783 13.7663 33.4258 14.2137 33.9777 14.2137H37.296C37.8479 14.2137 38.2953 13.7663 38.2953 13.2144C38.2953 12.9608 38.3966 12.7204 38.5488 12.5176C38.9565 11.9741 39.2138 11.3129 39.2589 10.5944Z" fill="white"/>
<path d="M32.0077 10.3673C32.0077 9.97557 32.3612 9.69605 32.7529 9.69605C33.0513 9.69605 33.3226 9.52537 33.5346 9.31537C34.0022 8.85209 34.7693 8.5498 35.6368 8.5498C36.5044 8.5498 37.2716 8.85207 37.7392 9.31541C37.9512 9.5254 38.2181 9.69605 38.5165 9.69605H38.6385C38.9655 9.69605 39.2539 9.92894 39.2643 10.2558C39.205 8.31686 37.6036 6.763 35.6368 6.763C33.6325 6.763 32.0077 8.37676 32.0077 10.3673Z" fill="white"/>
<path d="M39.3114 24.7954C39.3114 24.423 39.0095 24.1211 38.6371 24.1211H32.6334C32.2611 24.1211 31.9592 24.423 31.9592 24.7954C31.9592 25.1678 32.2611 25.4697 32.6334 25.4697H38.6371C39.0095 25.4697 39.3114 25.1678 39.3114 24.7954Z" fill="white"/>
<path d="M31.2739 23.4258C31.2739 23.0534 30.972 22.7515 30.5996 22.7515H29.1722C28.7998 22.7515 28.4979 23.0534 28.4979 23.4258C28.4979 23.7982 28.7998 24.1001 29.1722 24.1001H30.5996C30.972 24.1001 31.2739 23.7982 31.2739 23.4258Z" fill="white"/>
<path d="M42.7727 23.4258C42.7727 23.0534 42.4709 22.7515 42.0985 22.7515H40.671C40.2986 22.7515 39.9968 23.0534 39.9968 23.4258C39.9968 23.7982 40.2986 24.1001 40.671 24.1001H42.0985C42.4709 24.1001 42.7727 23.7982 42.7727 23.4258Z" fill="white"/>
<path d="M25.4812 17.8083C25.4725 16.093 24.0383 14.6976 22.2842 14.6976C21.4029 14.6976 16.3877 14.6976 15.0779 14.6976C13.3237 14.6976 11.8896 16.093 11.8809 17.8149V27.5207C11.8809 28.2503 12.4765 28.8418 13.2111 28.8418C13.9457 28.8418 14.5413 28.2502 14.5413 27.5207V17.8216C14.5426 17.5694 14.7983 17.3398 15.0779 17.3398C15.1443 17.3398 15.1981 17.3936 15.1981 17.46V40.03C15.1981 40.9056 15.9128 41.6153 16.7943 41.6153C17.6759 41.6153 18.3905 40.9055 18.3905 40.03V27.6887C18.3905 27.5062 18.5385 27.3582 18.7209 27.3582C18.9034 27.3582 19.0514 27.5062 19.0514 27.6887V40.03C19.0514 40.9056 19.766 41.6153 20.6476 41.6153C21.5292 41.6153 22.2438 40.9055 22.2438 40.03V17.3801C22.2438 17.3579 22.2618 17.3398 22.2841 17.3398C22.5637 17.3398 22.8195 17.5695 22.8207 17.8149V27.5207C22.8207 28.2504 23.4163 28.8419 24.1509 28.8419C24.8855 28.8419 25.4811 28.2503 25.4811 27.5207L25.4812 17.8083Z" fill="white"/>
<path d="M21.9032 11.6305C21.918 11.6044 21.9727 11.6229 21.9654 11.6519C21.4914 13.5241 20.1999 15.7438 18.681 15.7438C17.1621 15.7438 15.8706 13.5241 15.3966 11.6519C15.3892 11.6229 15.444 11.6044 15.4587 11.6305C15.9067 12.4217 17.4279 13.5124 17.9002 13.2486C18.3725 12.9849 18.2246 11.1273 17.7766 10.3361C17.3286 9.54479 16.4467 9.19314 15.8066 9.55058C15.5263 9.7071 15.3389 9.97363 15.2544 10.2903C15.2481 10.3138 15.203 10.3106 15.203 10.2863C15.203 8.3786 16.7601 6.8321 18.6809 6.8321C20.6017 6.8321 22.159 8.3786 22.159 10.2863C22.159 10.3106 22.1138 10.3138 22.1076 10.2903C22.023 9.97363 21.8356 9.7071 21.5554 9.55058C20.9153 9.19314 20.0333 9.54479 19.5853 10.3361C19.1374 11.1273 18.9894 12.9849 19.4618 13.2486C19.934 13.5124 21.4552 12.4217 21.9032 11.6305Z" fill="white"/>
<path style="mix-blend-mode:screen" d="M7.52409 7.15904C7.52409 7.15904 17.8214 -2.74221 45.1488 3.59458C45.1488 3.59458 53.8619 11.5156 51.5055 16.8454C51.5055 16.8454 52.2777 18.6445 49.1093 20.2287C48.3117 14.4994 38.0199 8.11262 30.891 6.5281C24.1582 6.5281 6.33594 8.74324 6.33594 8.74324L7.52409 7.15904Z" fill="url(#paint2_linear_429_6751)"/>
<path d="M5.54492 9.56519C5.54492 9.56519 6.71191 7.17019 9.41201 5.88879C12.1197 4.60739 19.8158 3.31836 20.2582 3.64634C20.6929 3.97431 16.5055 5.48454 14.3393 6.28541C12.1731 7.08629 6.65089 10.183 5.54492 9.57282V9.56519Z" fill="white"/>
<path style="mix-blend-mode:screen" d="M49.3574 43.2901C49.3574 43.2901 46.3385 46.5016 40.3978 47.5561C37.4483 48.0797 34.0054 48.7811 33.6649 48.3482C33.3318 47.9174 37.7093 44.3422 40.0099 44.1397C42.3105 43.9372 48.453 42.403 49.3594 43.2828L49.3574 43.2901Z" fill="url(#paint3_linear_429_6751)"/>
<path d="M5.82566 10.7311C5.26886 10.815 3.88068 15.1321 3.96458 15.8415C4.04848 16.5508 5.71888 14.3084 5.97821 13.1109C6.23754 11.921 5.82566 10.7235 5.82566 10.7235V10.7311Z" fill="white"/>
<path style="mix-blend-mode:screen" d="M50.2593 41.6299C50.8211 41.5918 52.5578 37.4027 52.5322 36.6889C52.5066 35.9751 50.6584 38.0734 50.3019 39.2457C49.9462 40.4103 50.2587 41.6375 50.2587 41.6375L50.2593 41.6299Z" fill="url(#paint4_linear_429_6751)"/>
<path d="M47.5504 43.7709C47.2262 42.9534 50.1441 39.2214 50.8886 39.2391C51.6331 39.2569 50.9727 41.6916 50.5164 42.2603C50.0721 42.829 47.7065 44.1797 47.5504 43.7709Z" fill="white"/>
<defs>
<filter id="filter0_f_429_6751" x="9.29688" y="7.34717" width="32.8926" height="36.8524" filterUnits="userSpaceOnUse" color-interpolation-filters="sRGB">
<feFlood flood-opacity="0" result="BackgroundImageFix"/>
<feBlend mode="normal" in="SourceGraphic" in2="BackgroundImageFix" result="shape"/>
<feGaussianBlur stdDeviation="0.5" result="effect1_foregroundBlur_429_6751"/>
</filter>
<linearGradient id="paint0_linear_429_6751" x1="30.2485" y1="50.9993" x2="30.2485" y2="2.01758" gradientUnits="userSpaceOnUse">
<stop stop-color="#C26900"/>
<stop offset="1" stop-color="#923D00"/>
</linearGradient>
<radialGradient id="paint1_radial_429_6751" cx="0" cy="0" r="1" gradientUnits="userSpaceOnUse" gradientTransform="translate(28.3037 45.949) scale(20.0708 60.048)">
<stop stop-color="#FFBD00"/>
<stop offset="1" stop-color="#FF772C"/>
</radialGradient>
<linearGradient id="paint2_linear_429_6751" x1="9.24796" y1="11.4211" x2="45.9375" y2="11.4211" gradientUnits="userSpaceOnUse">
<stop stop-color="#7ED140"/>
<stop offset="0.11" stop-color="#74C03B"/>
<stop offset="0.34" stop-color="#5A962E"/>
<stop offset="0.65" stop-color="#315219"/>
<stop offset="1"/>
</linearGradient>
<linearGradient id="paint3_linear_429_6751" x1="47.2315" y1="45.5051" x2="36.1106" y2="42.4712" gradientUnits="userSpaceOnUse">
<stop stop-color="#7ED140"/>
<stop offset="0.11" stop-color="#74C03B"/>
<stop offset="0.34" stop-color="#5A962E"/>
<stop offset="0.65" stop-color="#315219"/>
<stop offset="1"/>
</linearGradient>
<linearGradient id="paint4_linear_429_6751" x1="52.1408" y1="38.9425" x2="50.5022" y2="38.8081" gradientUnits="userSpaceOnUse">
<stop stop-color="#7ED140"/>
<stop offset="0.11" stop-color="#74C03B"/>
<stop offset="0.34" stop-color="#5A962E"/>
<stop offset="0.65" stop-color="#315219"/>
<stop offset="1"/>
</linearGradient>
</defs>
</svg>
