<svg width="71" height="66" viewBox="0 0 71 66" fill="none" xmlns="http://www.w3.org/2000/svg">
<path opacity="0.1" d="M64.7882 57.7452C64.6652 57.8777 64.5217 58.0103 64.3577 58.1326C52.2238 67.9924 18.794 67.6457 4.14919 58.7852C3.38057 58.3264 2.86816 57.8369 2.6222 57.3271C-2.57367 46.5701 0.244602 14.1972 8.49446 7.19238C17.349 -0.312025 51.3937 -3.70736 62.3286 5.83629C70.353 12.8309 74.1756 47.9364 64.7882 57.7452Z" fill="#3C3E48"/>
<path d="M62.8031 56.5434C62.6875 56.6686 62.5527 56.7938 62.3987 56.9093C50.9975 66.2209 19.5867 65.8935 5.82634 57.5256C5.10414 57.0923 4.62267 56.6301 4.39157 56.1486C-0.490503 45.9897 2.15756 15.4165 9.90917 8.80118C18.2289 1.71399 50.2176 -1.49258 60.4921 7.52048C68.0318 14.1262 71.6236 47.28 62.8031 56.5434Z" fill="url(#paint0_linear_426_7993)"/>
<path d="M4.46383 54.1392C9.17258 63.9418 53.1786 64.7218 62.8754 54.534C71.6958 45.2705 68.1041 12.1168 60.5643 5.51103C50.2898 -3.50202 18.3012 -0.295457 9.98144 6.80136C2.22983 13.4071 -0.418237 43.9802 4.46383 54.1392Z" fill="url(#paint1_radial_426_7993)"/>
<g style="mix-blend-mode:multiply" filter="url(#filter0_f_426_7993)">
<path d="M59.77 42.9954C59.8379 42.9954 59.9058 42.9637 59.9495 42.9137C59.9931 42.8639 60.0125 42.7958 59.9931 42.7323L58.5573 36.7233C58.1692 34.8005 56.3405 34.2018 55.6759 34.0476C55.8408 33.2041 55.7729 32.5964 55.4722 32.2472C55.3267 32.0749 55.152 31.9978 55.0163 31.9661V30.8142L55.8991 29.6804C55.9282 29.6441 55.9427 29.5987 55.9427 29.5534V25.7575C55.9427 25.694 55.9136 25.6305 55.8554 25.5897L54.8804 24.846C53.4009 20.3517 49.724 20.0025 48.6278 20.0025C48.4483 20.0025 48.3367 20.0116 48.3319 20.0116H47.7158C47.7158 20.0116 42.9427 19.5263 41.1916 24.846L40.2554 25.5897C40.202 25.6305 40.1729 25.6895 40.1729 25.753V29.5489C40.1729 29.5942 40.1874 29.6396 40.2166 29.6758L41.0994 30.8096V31.957C40.9539 31.9933 40.7598 32.0704 40.5998 32.2563C40.2942 32.61 40.2214 33.2133 40.3815 34.0386C39.7218 34.1928 37.9027 34.7869 37.5195 36.7053L41.0061 37.7324C40.9915 37.7959 41.0061 37.8639 41.0498 37.9184C41.0934 37.9683 41.1613 38 41.2292 38L44.1166 43C44.2427 43 44.3494 42.9047 44.3494 42.7823V38.2245H51.771V42.9954H59.77ZM42.9572 29.9887V25.4309C42.9572 25.3765 42.9815 25.3221 43.0203 25.2813C44.7569 23.6033 47.5946 23.5217 48.1475 23.5217H48.6859C49.1953 23.5217 51.8195 23.6078 53.5609 25.2813C53.6046 25.3221 53.624 25.3765 53.624 25.4309V27.5352C53.4834 27.694 53.3281 27.8436 53.1583 27.9842C53.0031 28.1157 52.8381 28.2382 52.6587 28.3561C51.8389 28.8731 50.8493 29.1588 49.8161 29.1951C49.6706 28.6055 49.1079 28.1611 48.4336 28.1611C47.6527 28.1611 47.0124 28.7552 47.0124 29.4899C47.0124 30.2245 47.6478 30.8186 48.4336 30.8186C48.9964 30.8186 49.4766 30.5103 49.7094 30.0658C50.9609 30.0477 52.1639 29.7121 53.1583 29.0862C53.1632 29.0817 53.1729 29.0772 53.1777 29.0726C53.3329 28.9729 53.4784 28.8685 53.6192 28.7597V29.9842C53.6192 29.9978 53.6191 30.0159 53.6143 30.0295C53.5851 30.1565 53.1971 31.2858 48.9964 31.2858H48.4579C44.2717 31.2858 43.0639 30.1837 43.0153 30.1384C42.9815 30.0976 42.9572 30.0432 42.9572 29.9887Z" fill="#CED6FF"/>
<path d="M46.149 24.1929C46.0763 24.1793 45.9938 24.1748 45.9162 24.1974C44.1699 24.7235 43.5975 25.2995 43.5345 25.363C43.4957 25.4038 43.4666 25.4491 43.4472 25.4945C43.4278 25.5444 43.4181 25.5943 43.4181 25.6487V27.3811C43.4181 27.6214 43.6266 27.8165 43.8837 27.8165C44.1408 27.8165 44.3494 27.6214 44.3494 27.3811V25.8437C44.5725 25.685 45.1207 25.3494 46.2024 25.0228C46.4449 24.9503 46.5807 24.7054 46.5031 24.4786C46.4449 24.3244 46.3043 24.2201 46.149 24.1929Z" fill="#CED6FF"/>
</g>
<g style="mix-blend-mode:multiply" filter="url(#filter1_f_426_7993)">
<path d="M29.779 36.9954C29.8441 36.9954 29.9091 36.9637 29.951 36.9137C29.9928 36.8639 30.0114 36.7958 29.9928 36.7323L31.6168 36.7233C31.2449 34.8005 29.4923 34.2018 28.8555 34.0476C29.0135 33.2041 28.9484 32.5964 28.6603 32.2472C28.5208 32.0749 28.3534 31.9978 28.2233 31.9661V30.8142L29.0694 29.6804C29.0973 29.6441 29.1112 29.5987 29.1112 29.5534V25.7575C29.1112 25.694 29.0833 25.6305 29.0275 25.5897L28.0931 24.846C26.6753 20.3517 23.1516 20.0025 22.101 20.0025C21.929 20.0025 21.8221 20.0116 21.8174 20.0116H21.2271C21.2271 20.0116 16.6528 19.5263 14.9746 24.846L14.0774 25.5897C14.0263 25.6305 13.9984 25.6895 13.9984 25.753V29.5489C13.9984 29.5942 14.0124 29.6396 14.0403 29.6758L14.8863 30.8096V31.957C14.7468 31.9933 14.5609 32.0704 14.4075 32.2563C14.1146 32.61 14.0449 33.2133 14.1983 34.0386C13.5661 34.1928 11.8228 34.7869 11.4556 36.7053L10.0052 42.7324C9.99128 42.7959 10.0052 42.8639 10.0471 42.9184C10.0889 42.9683 10.154 43 10.2191 43H17.7778C17.8986 43 18.0009 42.9047 18.0009 42.7823V38.2245H25.1133V42.9954L29.779 36.9954ZM16.6667 29.9887V25.4309C16.6667 25.3765 16.69 25.3221 16.7272 25.2813C18.3914 23.6033 21.1108 23.5217 21.6408 23.5217H22.1567C22.6448 23.5217 25.1598 23.6078 26.8286 25.2813C26.8705 25.3221 26.8891 25.3765 26.8891 25.4309V27.5352C26.7543 27.694 26.6055 27.8436 26.4428 27.9842C26.294 28.1157 26.1359 28.2382 25.964 28.3561C25.1784 28.8731 24.23 29.1588 23.2398 29.1951C23.1004 28.6055 22.5611 28.1611 21.915 28.1611C21.1665 28.1611 20.5529 28.7552 20.5529 29.4899C20.5529 30.2245 21.1619 30.8186 21.915 30.8186C22.4542 30.8186 22.9144 30.5103 23.1376 30.0658C24.3369 30.0477 25.4898 29.7121 26.4428 29.0862C26.4474 29.0817 26.4567 29.0772 26.4613 29.0726C26.6101 28.9729 26.7495 28.8685 26.8844 28.7597V29.9842C26.8844 29.9978 26.8844 30.0159 26.8797 30.0295C26.8518 30.1565 26.4799 31.2858 22.4543 31.2858H21.9382C17.9264 31.2858 16.7689 30.1837 16.7224 30.1384C16.69 30.0976 16.6667 30.0432 16.6667 29.9887Z" fill="#CED6FF"/>
<path d="M19.7255 24.1929C19.6558 24.1793 19.5768 24.1748 19.5024 24.1974C17.8289 24.7235 17.2804 25.2995 17.2199 25.363C17.1827 25.4038 17.1548 25.4491 17.1362 25.4945C17.1177 25.5444 17.1084 25.5943 17.1084 25.6487V27.3811C17.1084 27.6214 17.3082 27.8165 17.5546 27.8165C17.801 27.8165 18.0009 27.6214 18.0009 27.3811V25.8437C18.2147 25.685 18.74 25.3494 19.7767 25.0228C20.0091 24.9503 20.1393 24.7054 20.0649 24.4786C20.0091 24.3244 19.8743 24.2201 19.7255 24.1929Z" fill="#CED6FF"/>
</g>
<path d="M59.7785 41.9956C59.8435 41.9956 59.9086 41.9653 59.9505 41.9175C59.9922 41.8698 60.0109 41.8047 59.9922 41.744L58.6162 35.9962C58.2444 34.157 56.4918 33.5844 55.8549 33.4369C56.013 32.63 55.9479 32.0487 55.6598 31.7147C55.5203 31.5499 55.3529 31.4761 55.2228 31.4458V30.344L56.0688 29.2595C56.0967 29.2248 56.1106 29.1814 56.1106 29.138V25.5072C56.1106 25.4465 56.0827 25.3857 56.0269 25.3467L55.0926 24.6353C53.6747 20.3364 50.1511 20.0024 49.1005 20.0024C48.9285 20.0024 48.8216 20.011 48.8169 20.011H48.2265C48.2265 20.011 43.6523 19.5469 41.9741 24.6353L41.0769 25.3467C41.0258 25.3857 40.9979 25.4421 40.9979 25.5029V29.1337C40.9979 29.1771 41.0118 29.2204 41.0397 29.2552L41.8858 30.3396V31.4371C41.7463 31.4718 41.5604 31.5456 41.407 31.7234C41.1141 32.0618 41.0444 32.6388 41.1978 33.4282C40.5656 33.5757 38.8223 34.144 38.4551 35.979L41.0047 37.744C40.9908 37.8047 41.0047 37.8698 41.0465 37.9219C41.0884 37.9696 41.1535 38 41.2185 38L44.7772 42C44.8981 42 45.0004 41.9089 45.0004 41.7918V37.4322H52.1127V41.9956H59.7785ZM43.6662 29.5544V25.1948C43.6662 25.1428 43.6895 25.0907 43.7266 25.0517C45.3909 23.4466 48.1103 23.3686 48.6403 23.3686H49.1562C49.6443 23.3686 52.1592 23.451 53.8281 25.0517C53.8699 25.0907 53.8885 25.1428 53.8885 25.1948V27.2076C53.7538 27.3594 53.605 27.5026 53.4423 27.6371C53.2935 27.7629 53.1354 27.88 52.9634 27.9928C52.1778 28.4873 51.2295 28.7606 50.2393 28.7953C50.0998 28.2314 49.5606 27.8062 48.9144 27.8062C48.166 27.8062 47.5524 28.3745 47.5524 29.0773C47.5524 29.78 48.1614 30.3483 48.9144 30.3483C49.4537 30.3483 49.9139 30.0533 50.137 29.6282C51.3364 29.6108 52.4893 29.2898 53.4423 28.6912C53.4469 28.6868 53.4562 28.6825 53.4608 28.6782C53.6096 28.5827 53.749 28.483 53.8839 28.3788V29.5501C53.8839 29.5631 53.8839 29.5805 53.8792 29.5935C53.8513 29.7149 53.4794 30.7951 49.4537 30.7951H48.9377C44.9259 30.7951 43.7684 29.741 43.7219 29.6976C43.6895 29.6586 43.6662 29.6065 43.6662 29.5544Z" fill="#EDEDED"/>
<path d="M46.725 24.0106C46.6553 23.9976 46.5763 23.9933 46.5019 24.0149C44.8284 24.5181 44.2798 25.0691 44.2194 25.1298C44.1822 25.1688 44.1543 25.2122 44.1357 25.2556C44.1171 25.3033 44.1078 25.351 44.1078 25.4031V27.0602C44.1078 27.2901 44.3077 27.4766 44.5541 27.4766C44.8005 27.4766 45.0004 27.2901 45.0004 27.0602V25.5896C45.2142 25.4378 45.7395 25.1168 46.7761 24.8044C47.0086 24.735 47.1387 24.5008 47.0644 24.2839C47.0086 24.1364 46.8738 24.0366 46.725 24.0106Z" fill="#EDEDED"/>
<path d="M29.7694 37.9956C29.8373 37.9956 29.9052 37.9653 29.9489 37.9175C29.9925 37.8698 30.0119 37.8047 29.9925 37.744L32.5566 35.9962C32.1686 34.157 30.3398 33.5844 29.6753 33.4369C29.8402 32.63 29.7723 32.0487 29.4716 31.7147C29.3261 31.5499 29.1514 31.4761 29.0156 31.4458V30.344L29.8985 29.2595C29.9276 29.2248 29.9421 29.1814 29.9421 29.138V25.5072C29.9421 25.4465 29.913 25.3857 29.8548 25.3467L28.8798 24.6353C27.4003 20.3364 23.7234 20.0024 22.6271 20.0024C22.4477 20.0024 22.3361 20.011 22.3312 20.011H21.7152C21.7152 20.011 16.942 19.5469 15.1909 24.6353L14.2547 25.3467C14.2014 25.3857 14.1723 25.4421 14.1723 25.5029V29.1337C14.1723 29.1771 14.1868 29.2204 14.2159 29.2552L15.0988 30.3396V31.4371C14.9532 31.4718 14.7592 31.5456 14.5991 31.7234C14.2935 32.0618 14.2208 32.6388 14.3808 33.4282C13.7211 33.5757 11.9021 34.144 11.5189 35.979L10.0055 41.744C9.9909 41.8047 10.0055 41.8698 10.0491 41.9219C10.0928 41.9696 10.1607 42 10.2286 42H18.1159C18.242 42 18.3488 41.9089 18.3488 41.7918V37.4322H25.7704V41.9956L29.7694 37.9956ZM16.9566 29.5544V25.1948C16.9566 25.1428 16.9808 25.0907 17.0197 25.0517C18.7562 23.4466 21.5939 23.3686 22.1469 23.3686H22.6853C23.1946 23.3686 25.8189 23.451 27.5603 25.0517C27.604 25.0907 27.6234 25.1428 27.6234 25.1948V27.2076C27.4827 27.3594 27.3275 27.5026 27.1577 27.6371C27.0025 27.7629 26.8375 27.88 26.6581 27.9928C25.8383 28.4873 24.8487 28.7606 23.8155 28.7953C23.6699 28.2314 23.1073 27.8062 22.433 27.8062C21.652 27.8062 21.0117 28.3745 21.0117 29.0773C21.0117 29.78 21.6472 30.3483 22.433 30.3483C22.9957 30.3483 23.4759 30.0533 23.7088 29.6282C24.9603 29.6108 26.1633 29.2898 27.1577 28.6912C27.1625 28.6868 27.1722 28.6825 27.177 28.6782C27.3323 28.5827 27.4778 28.483 27.6185 28.3788V29.5501C27.6185 29.5631 27.6185 29.5805 27.6136 29.5935C27.5845 29.7149 27.1964 30.7951 22.9957 30.7951H22.4573C18.2711 30.7951 17.0632 29.741 17.0147 29.6976C16.9808 29.6586 16.9566 29.6065 16.9566 29.5544Z" fill="#EDEDED"/>
<path d="M20.1484 24.0106C20.0756 23.9976 19.9932 23.9933 19.9156 24.0149C18.1693 24.5181 17.5969 25.0691 17.5338 25.1298C17.495 25.1688 17.4659 25.2122 17.4465 25.2556C17.4271 25.3033 17.4174 25.351 17.4174 25.4031V27.0602C17.4174 27.2901 17.626 27.4766 17.8831 27.4766C18.1402 27.4766 18.3488 27.2901 18.3488 27.0602V25.5896C18.5719 25.4378 19.12 25.1168 20.2018 24.8044C20.4443 24.735 20.5801 24.5008 20.5025 24.2839C20.4443 24.1364 20.3036 24.0366 20.1484 24.0106Z" fill="#EDEDED"/>
<g style="mix-blend-mode:multiply" filter="url(#filter2_f_426_7993)">
<path d="M49.7021 44.994C49.7898 44.994 49.8775 44.9526 49.9339 44.8875C49.9903 44.8224 50.0154 44.7337 49.9903 44.6509L48.1357 36.813C47.6344 34.305 45.2723 33.5241 44.4139 33.323C44.6269 32.2227 44.5392 31.4301 44.1508 30.9746C43.9628 30.7498 43.7372 30.6493 43.5619 30.6079V29.1054L44.7022 27.6266C44.7398 27.5793 44.7585 27.5201 44.7585 27.4609V22.5098C44.7585 22.427 44.7209 22.3442 44.6457 22.2909L43.3864 21.3208C41.4754 15.4587 36.7261 15.0032 35.31 15.0032C35.0782 15.0032 34.9341 15.0151 34.9278 15.0151H34.1321C34.1321 15.0151 27.9668 14.3821 25.7049 21.3208L24.4957 22.2909C24.4268 22.3442 24.3892 22.4211 24.3892 22.5039V27.455C24.3892 27.5142 24.408 27.5733 24.4456 27.6207L25.5859 29.0995V30.5961C25.3979 30.6434 25.1473 30.744 24.9405 30.9865C24.5458 31.4479 24.4518 32.2347 24.6586 33.3112C23.8065 33.5123 21.4569 34.2873 20.9619 36.7895L19.007 44.6509C18.9883 44.7337 19.007 44.8225 19.0634 44.8935C19.1198 44.9586 19.2075 45 19.2953 45H29.4831C29.646 45 29.7838 44.8757 29.7838 44.7161V38.7711H39.3701V44.994H49.7021ZM27.9856 28.0288V22.0838C27.9856 22.0129 28.0169 21.9419 28.0671 21.8886C30.3101 19.7 33.9755 19.5935 34.6898 19.5935H35.3852C36.0431 19.5935 39.4327 19.7059 41.6821 21.8886C41.7384 21.9419 41.7635 22.0129 41.7635 22.0838V24.8286C41.5819 25.0356 41.3813 25.2308 41.162 25.4142C40.9615 25.5857 40.7484 25.7454 40.5167 25.8992C39.4578 26.5736 38.1795 26.9463 36.845 26.9936C36.657 26.2246 35.9302 25.6449 35.0593 25.6449C34.0505 25.6449 33.2235 26.4198 33.2235 27.3781C33.2235 28.3364 34.0443 29.1113 35.0593 29.1113C35.7862 29.1113 36.4064 28.709 36.7071 28.1293C38.3237 28.1057 39.8776 27.6679 41.162 26.8516C41.1683 26.8457 41.1808 26.8398 41.187 26.8339C41.3875 26.7037 41.5755 26.5677 41.7572 26.4257V28.0228C41.7572 28.0406 41.7572 28.0643 41.7509 28.082C41.7133 28.2476 41.2121 29.7205 35.7862 29.7205H35.0906C29.6834 29.7205 28.1233 28.2831 28.0607 28.224C28.0169 28.1708 27.9856 28.0998 27.9856 28.0288Z" fill="#CED6FF"/>
<path d="M32.1083 20.469C32.0144 20.4513 31.9078 20.4454 31.8076 20.4749C29.552 21.1611 28.8127 21.9124 28.7312 21.9952C28.6811 22.0484 28.6435 22.1076 28.6184 22.1667C28.5934 22.2318 28.5808 22.2969 28.5808 22.3678V24.6275C28.5808 24.941 28.8502 25.1954 29.1823 25.1954C29.5144 25.1954 29.7838 24.941 29.7838 24.6275V22.6222C30.072 22.4152 30.78 21.9774 32.1773 21.5515C32.4905 21.4569 32.666 21.1374 32.5657 20.8417C32.4905 20.6405 32.3088 20.5045 32.1083 20.469Z" fill="#CED6FF"/>
</g>
<path d="M50.7021 43.9942C50.7898 43.9942 50.8775 43.9542 50.9339 43.8912C50.9903 43.8283 51.0154 43.7426 50.9903 43.6625L49.1357 36.0859C48.6344 33.6615 46.2723 32.9066 45.4139 32.7122C45.6269 31.6486 45.5392 30.8824 45.1508 30.4421C44.9628 30.2248 44.7372 30.1276 44.5619 30.0876V28.6352L45.7022 27.2057C45.7398 27.1599 45.7585 27.1028 45.7585 27.0456V22.2595C45.7585 22.1794 45.7209 22.0994 45.6457 22.0479L44.3864 21.1101C42.4754 15.4434 37.7261 15.0031 36.31 15.0031C36.0782 15.0031 35.9341 15.0146 35.9278 15.0146H35.1321C35.1321 15.0146 28.9668 14.4027 26.7049 21.1101L25.4957 22.0479C25.4268 22.0994 25.3892 22.1737 25.3892 22.2538V27.0399C25.3892 27.097 25.408 27.1542 25.4456 27.2L26.5859 28.6295V30.0762C26.3979 30.122 26.1473 30.2192 25.9405 30.4536C25.5458 30.8996 25.4518 31.6602 25.6586 32.7008C24.8065 32.8953 22.4569 33.6443 21.9619 36.0632L20.007 43.6626C19.9883 43.7426 20.007 43.8284 20.0634 43.8971C20.1198 43.96 20.2075 44 20.2953 44H30.4831C30.646 44 30.7838 43.8799 30.7838 43.7255V37.9788H40.3701V43.9942H50.7021ZM28.9856 27.5945V21.8477C28.9856 21.7791 29.0169 21.7105 29.0671 21.659C31.3101 19.5433 34.9755 19.4404 35.6898 19.4404H36.3852C37.0431 19.4404 40.4327 19.549 42.6821 21.659C42.7384 21.7105 42.7635 21.7791 42.7635 21.8477V24.5009C42.5819 24.7011 42.3813 24.8898 42.162 25.067C41.9615 25.2329 41.7484 25.3873 41.5167 25.5359C40.4578 26.1878 39.1795 26.548 37.845 26.5938C37.657 25.8504 36.9302 25.29 36.0593 25.29C35.0505 25.29 34.2235 26.0391 34.2235 26.9655C34.2235 27.8918 35.0443 28.6409 36.0593 28.6409C36.7862 28.6409 37.4064 28.2521 37.7071 27.6917C39.3237 27.6688 40.8776 27.2457 42.162 26.4566C42.1683 26.4508 42.1808 26.4451 42.187 26.4394C42.3875 26.3136 42.5755 26.1821 42.7572 26.0448V27.5888C42.7572 27.6059 42.7572 27.6288 42.7509 27.6459C42.7133 27.806 42.2121 29.2299 36.7862 29.2299H36.0906C30.6834 29.2299 29.1233 27.8404 29.0607 27.7832C29.0169 27.7318 28.9856 27.6631 28.9856 27.5945Z" fill="white"/>
<path d="M33.1083 20.2867C33.0144 20.2696 32.9078 20.2638 32.8076 20.2924C30.552 20.9557 29.8127 21.6819 29.7312 21.762C29.6811 21.8135 29.6435 21.8706 29.6184 21.9278C29.5934 21.9907 29.5808 22.0536 29.5808 22.1222V24.3066C29.5808 24.6096 29.8502 24.8555 30.1823 24.8555C30.5144 24.8555 30.7838 24.6096 30.7838 24.3066V22.3681C31.072 22.168 31.78 21.7448 33.1773 21.3331C33.4905 21.2416 33.666 20.9329 33.5657 20.647C33.4905 20.4525 33.3088 20.321 33.1083 20.2867Z" fill="white"/>
<path style="mix-blend-mode:screen" d="M9.5 8.50001C9.5 8.50001 22.5 -4 57 4C57 4 68 14 65.0251 20.7287C65.0251 20.7287 66 23 62 25C60.993 17.767 48 9.70387 39 7.70346C30.5 7.70346 8 10.5 8 10.5L9.5 8.50001Z" fill="url(#paint2_linear_426_7993)"/>
<path d="M7 11.5377C7 11.5377 8.47329 8.51406 11.8821 6.89633C15.3005 5.27861 25.0165 3.65125 25.575 4.06531C26.1239 4.47937 20.8373 6.38598 18.1026 7.39706C15.3679 8.40814 8.39625 12.3176 7 11.5473V11.5377Z" fill="white"/>
<path style="mix-blend-mode:screen" d="M62.311 54.1143C62.311 54.1143 58.4997 58.1686 50.9997 59.5C47.276 60.161 42.9295 61.0465 42.4997 60.5C42.0791 59.9561 47.6056 55.4426 50.51 55.1869C53.4144 54.9312 61.1692 52.9944 62.3135 54.1051L62.311 54.1143Z" fill="url(#paint3_linear_426_7993)"/>
<path d="M7.35415 13.0096C6.65121 13.1156 4.89867 18.5658 5.0046 19.4613C5.11052 20.3568 7.21934 17.5258 7.54674 16.014C7.87414 14.5118 7.35415 13 7.35415 13V13.0096Z" fill="white"/>
<path style="mix-blend-mode:screen" d="M63.4514 52.0184C64.1606 51.9703 66.3531 46.6817 66.3208 45.7805C66.2885 44.8793 63.9551 47.5284 63.5052 49.0083C63.056 50.4787 63.4506 52.028 63.4506 52.028L63.4514 52.0184Z" fill="url(#paint4_linear_426_7993)"/>
<path d="M60.0316 54.7213C59.6223 53.6892 63.3061 48.9776 64.246 49.0001C65.1859 49.0225 64.3521 52.0963 63.776 52.8142C63.2151 53.5322 60.2287 55.2373 60.0316 54.7213Z" fill="white"/>
<defs>
<filter id="filter0_f_426_7993" x="36.5195" y="19" width="24.4805" height="25" filterUnits="userSpaceOnUse" color-interpolation-filters="sRGB">
<feFlood flood-opacity="0" result="BackgroundImageFix"/>
<feBlend mode="normal" in="SourceGraphic" in2="BackgroundImageFix" result="shape"/>
<feGaussianBlur stdDeviation="0.5" result="effect1_foregroundBlur_426_7993"/>
</filter>
<filter id="filter1_f_426_7993" x="9" y="19" width="23.6172" height="25" filterUnits="userSpaceOnUse" color-interpolation-filters="sRGB">
<feFlood flood-opacity="0" result="BackgroundImageFix"/>
<feBlend mode="normal" in="SourceGraphic" in2="BackgroundImageFix" result="shape"/>
<feGaussianBlur stdDeviation="0.5" result="effect1_foregroundBlur_426_7993"/>
</filter>
<filter id="filter2_f_426_7993" x="18" y="14" width="33" height="32" filterUnits="userSpaceOnUse" color-interpolation-filters="sRGB">
<feFlood flood-opacity="0" result="BackgroundImageFix"/>
<feBlend mode="normal" in="SourceGraphic" in2="BackgroundImageFix" result="shape"/>
<feGaussianBlur stdDeviation="0.5" result="effect1_foregroundBlur_426_7993"/>
</filter>
<linearGradient id="paint0_linear_426_7993" x1="38.1872" y1="63.8469" x2="38.1872" y2="2.00905" gradientUnits="userSpaceOnUse">
<stop stop-color="#C26900"/>
<stop offset="1" stop-color="#923D00"/>
</linearGradient>
<radialGradient id="paint1_radial_426_7993" cx="0" cy="0" r="1" gradientUnits="userSpaceOnUse" gradientTransform="translate(35.8068 57.4711) scale(25.3388 75.8087)">
<stop stop-color="#FFBD00"/>
<stop offset="1" stop-color="#FF772C"/>
</radialGradient>
<linearGradient id="paint2_linear_426_7993" x1="11.6763" y1="13.8808" x2="57.9957" y2="13.8808" gradientUnits="userSpaceOnUse">
<stop stop-color="#7ED140"/>
<stop offset="0.11" stop-color="#74C03B"/>
<stop offset="0.34" stop-color="#5A962E"/>
<stop offset="0.65" stop-color="#315219"/>
<stop offset="1"/>
</linearGradient>
<linearGradient id="paint3_linear_426_7993" x1="59.6271" y1="56.9107" x2="45.5873" y2="53.0805" gradientUnits="userSpaceOnUse">
<stop stop-color="#7ED140"/>
<stop offset="0.11" stop-color="#74C03B"/>
<stop offset="0.34" stop-color="#5A962E"/>
<stop offset="0.65" stop-color="#315219"/>
<stop offset="1"/>
</linearGradient>
<linearGradient id="paint4_linear_426_7993" x1="65.8267" y1="48.6257" x2="63.758" y2="48.4559" gradientUnits="userSpaceOnUse">
<stop stop-color="#7ED140"/>
<stop offset="0.11" stop-color="#74C03B"/>
<stop offset="0.34" stop-color="#5A962E"/>
<stop offset="0.65" stop-color="#315219"/>
<stop offset="1"/>
</linearGradient>
</defs>
</svg>
