<svg width="135" height="59" viewBox="0 0 135 59" fill="none" xmlns="http://www.w3.org/2000/svg">
<path d="M1.62095 50.3216C4.95607 59.9691 124.444 62.6839 131.327 52.6549C137.588 43.5346 135.041 10.89 129.69 4.38355C122.398 -4.48996 11.9295 1.73608 6.0324 8.71373C0.514293 15.2202 -1.83545 40.3151 1.62095 50.3216Z" fill="#EBFF00"/>
<path d="M1.62095 50.3216C4.95607 59.9691 124.444 62.6839 131.327 52.6549C137.588 43.5346 135.041 10.89 129.69 4.38355C122.398 -4.48996 11.9295 1.73608 6.0324 8.71373C0.514293 15.2202 -1.83545 40.3151 1.62095 50.3216Z" fill="url(#paint0_radial_50_2101)"/>
<path d="M1.89385 48.6164C5.21381 57.9275 124.217 58.5893 131.069 48.9081C137.3 40.1131 134.844 11.0359 129.523 4.76496C122.261 -3.78321 12.066 2.21846 6.18403 8.94931C0.696238 15.2202 -1.56255 38.9689 1.89385 48.6164Z" fill="url(#paint1_linear_50_2101)"/>
<path d="M2.89435 47.7863C6.15367 56.8169 123.413 57.4675 130.114 48.078C136.208 39.541 133.813 11.3275 128.598 5.23612C121.488 -3.05404 12.8391 2.76815 7.09357 9.29707C1.72706 15.3885 -0.48625 38.4304 2.89435 47.7863Z" fill="url(#paint2_linear_50_2101)"/>
<path style="mix-blend-mode:screen" d="M128.522 48.2462C128.522 48.2462 53.2395 57.2207 7.03296 49.3007C7.03296 49.3007 37.049 52.913 50.4047 49.3007C73.0835 43.1757 122.565 41.3583 128.522 48.2462Z" fill="url(#paint3_linear_50_2101)"/>
<path style="mix-blend-mode:screen" d="M28.6203 17.1497C29.9089 17.0936 31.0156 17.8228 31.1065 18.7764C31.1823 19.7299 30.1969 20.56 28.9084 20.6161C27.6198 20.6722 26.5131 19.943 26.4222 18.9895C26.3464 18.036 27.3318 17.2058 28.6203 17.1497Z" fill="url(#paint4_radial_50_2101)"/>
<path d="M28.8934 18.3949C29.2572 18.3837 29.5604 18.5856 29.5755 18.8437C29.5907 19.1129 29.3178 19.3373 28.9692 19.3485C28.6053 19.3597 28.3021 19.1578 28.287 18.8997C28.2718 18.6305 28.5447 18.4061 28.8934 18.3949Z" fill="#FFFFAB"/>
<path style="mix-blend-mode:screen" d="M31.8039 9.70094C33.0924 9.64485 34.1991 10.374 34.29 11.3276C34.3658 12.2811 33.3805 13.1 32.0919 13.1673C30.8033 13.2234 29.6967 12.4942 29.6057 11.5407C29.5299 10.5872 30.5153 9.76825 31.8039 9.70094Z" fill="url(#paint5_radial_50_2101)"/>
<path d="M32.0768 10.9461C32.4406 10.9349 32.7438 11.1368 32.759 11.3948C32.7741 11.6641 32.5012 11.8884 32.1526 11.8997C31.7887 11.9109 31.4855 11.709 31.4704 11.4509C31.4552 11.1817 31.7281 10.9573 32.0768 10.9461Z" fill="#FFFFAB"/>
<path style="mix-blend-mode:screen" d="M29.924 31.0714C31.2126 31.0153 32.3193 31.7444 32.4102 32.698C32.486 33.6515 31.5006 34.4704 30.2121 34.5377C28.9235 34.5938 27.8169 33.8647 27.7259 32.9111C27.6501 31.9576 28.6355 31.1387 29.924 31.0714Z" fill="url(#paint6_radial_50_2101)"/>
<path d="M30.2121 32.3166C30.5759 32.3054 30.8791 32.5073 30.8943 32.7653C30.9094 33.0345 30.6366 33.2589 30.2879 33.2701C29.9241 33.2813 29.6209 33.0794 29.6057 32.8214C29.5905 32.5634 29.8634 32.3278 30.2121 32.3166Z" fill="#FFFFAB"/>
<path style="mix-blend-mode:screen" d="M18.8878 5.88678C22.5109 5.72973 25.6187 7.77142 25.8309 10.4413C26.0431 13.1224 23.2841 15.4222 19.6761 15.5792C16.0529 15.7363 12.9452 13.6946 12.733 11.0247C12.5207 8.34354 15.2798 6.04384 18.8878 5.88678Z" fill="url(#paint7_radial_50_2101)"/>
<path d="M19.6761 9.37562C20.6767 9.33075 21.5408 9.89165 21.6014 10.632C21.662 11.3724 20.9041 12.0119 19.9035 12.0567C18.903 12.1016 18.0389 11.5407 17.9783 10.8003C17.9176 10.0599 18.6756 9.4205 19.6761 9.37562Z" fill="#FFFFAB"/>
<path style="mix-blend-mode:screen" d="M37.5949 42.9513C39.3231 42.8728 40.8087 43.8488 40.9149 45.1276C41.021 46.4065 39.7021 47.5059 37.9739 47.5844C36.2457 47.6629 34.76 46.6869 34.6539 45.4081C34.5478 44.1292 35.8667 43.0299 37.5949 42.9513Z" fill="url(#paint8_radial_50_2101)"/>
<path d="M37.9739 44.6116C38.459 44.5892 38.8683 44.8584 38.8986 45.2174C38.9289 45.5764 38.5651 45.8792 38.08 45.9017C37.5949 45.9241 37.1856 45.6549 37.1553 45.2959C37.1249 44.9369 37.4888 44.634 37.9739 44.6116Z" fill="#FFFFAB"/>
<path style="mix-blend-mode:screen" d="M9.77686 49.0652C10.641 49.0315 11.3838 49.5139 11.4293 50.1533C11.4747 50.7928 10.8229 51.3424 9.95878 51.3761C9.09468 51.4098 8.35186 50.9274 8.30638 50.288C8.2609 49.6485 8.91277 49.0988 9.77686 49.0652Z" fill="url(#paint9_radial_50_2101)"/>
<path d="M9.97407 49.8953C10.2166 49.8953 10.4137 50.0187 10.4289 50.1982C10.4289 50.3777 10.2621 50.5235 10.0195 50.5347C9.77699 50.5347 9.57992 50.4113 9.56476 50.2319C9.56476 50.0524 9.73151 49.9065 9.97407 49.8953Z" fill="#FFFFAB"/>
<path style="mix-blend-mode:screen" d="M53.8005 29.1643C54.6646 29.1306 55.4075 29.613 55.4529 30.2525C55.4984 30.8919 54.8466 31.4416 53.9825 31.4752C53.1184 31.5089 52.3755 31.0265 52.3301 30.3871C52.2846 29.7476 52.9364 29.198 53.8005 29.1643Z" fill="url(#paint10_radial_50_2101)"/>
<path d="M53.9976 29.9944C54.2401 29.9944 54.4372 30.1178 54.4524 30.2973C54.4524 30.4768 54.2856 30.6227 54.0431 30.6339C53.8005 30.6339 53.6034 30.5105 53.5883 30.331C53.5883 30.1515 53.755 30.0057 53.9976 29.9944Z" fill="#FFFFAB"/>
<path style="mix-blend-mode:screen" d="M32.0768 47.36C32.7135 47.3264 33.2744 47.6966 33.3047 48.1677C33.3502 48.6389 32.8499 49.0539 32.2132 49.0876C31.5765 49.1213 31.0156 48.7511 30.9853 48.2799C30.9398 47.8087 31.4401 47.3937 32.0768 47.3712V47.36Z" fill="url(#paint11_radial_50_2101)"/>
<path d="M32.2132 47.977C32.3951 47.977 32.5467 48.0668 32.5619 48.2014C32.5619 48.336 32.4406 48.4482 32.2587 48.4594C32.0768 48.4594 31.9252 48.3697 31.91 48.235C31.91 48.1004 32.0313 47.9882 32.2132 47.977Z" fill="#FFFFAB"/>
<path style="mix-blend-mode:screen" d="M50.2228 46.6533C51.572 46.5972 52.7242 47.36 52.8151 48.3584C52.8909 49.3569 51.8601 50.2094 50.526 50.2767C49.192 50.344 48.0247 49.57 47.9337 48.5828C47.8579 47.5844 48.8888 46.7318 50.238 46.6645L50.2228 46.6533Z" fill="url(#paint12_radial_50_2101)"/>
<path d="M50.5107 47.9546C50.8896 47.9434 51.208 48.1453 51.2232 48.4257C51.2383 48.7062 50.9654 48.9418 50.5865 48.953C50.2075 48.9642 49.8891 48.7623 49.874 48.4818C49.8588 48.2014 50.1317 47.9658 50.5107 47.9546Z" fill="#FFFFAB"/>
<path d="M14.7245 30.2538L14.83 40.8182H11.9999L11.912 16.0506L13.6347 16.1561V16.121L17.5019 16.0506C19.7402 15.9921 20.8593 17.1639 20.8593 19.5663L20.9296 26.7909C21.0351 28.9237 20.1796 30.0253 18.3632 30.0956L21.3867 40.5546L18.3281 40.9061L15.5507 30.201L14.7245 30.2538ZM14.6015 18.7753L14.6894 27.5995L17.2382 27.4764C17.9296 27.4178 18.246 26.8729 18.1874 25.8417L18.0117 19.5663C17.9531 18.9335 17.5546 18.6463 16.8163 18.7049L14.6015 18.7753ZM31.2304 18.9686L25.289 19.2323V26.8788L30.3691 27.2303L30.2812 30.1483L25.3769 29.8143L25.289 37.9003L31.7402 38.0585L31.4062 40.994L22.371 40.6424L22.705 16.2967L31.4062 16.121L31.2304 18.9686ZM41.9531 27.1424L37.6464 27.0546L37.3828 29.8846L39.457 29.7264L39.5449 37.285C39.4277 38.035 39.0527 38.3514 38.4199 38.2342H36.6972C36.0058 38.2342 35.6894 37.9471 35.748 37.3729L35.8359 19.6542C35.8359 18.9628 36.0644 18.6171 36.5214 18.6171H38.5078C39.1406 18.7342 39.457 19.0506 39.457 19.5663L39.2812 21.4647H42.0234L41.9531 19.6542C41.8359 17.3573 40.7167 16.1796 38.5956 16.121L36.6093 16.2088C34.371 16.326 33.2519 17.4159 33.2519 19.4784L33.0058 37.1971C32.9472 39.494 34.0898 40.6717 36.4335 40.7303H38.5956C40.8339 40.7303 41.9531 39.6112 41.9531 37.3729V27.1424ZM43.5527 16.0506L46.2949 16.121L46.3828 40.7303L43.6406 40.8182L43.5527 16.0506ZM57.2812 21.3768L54.6269 21.4647L54.4511 19.9178C54.4511 19.1678 54.1054 18.7342 53.414 18.6171L51.7792 18.8807C51.3808 19.0565 51.1523 19.4022 51.0937 19.9178L51.0058 25.9296C51.0058 26.6796 51.3515 27.0253 52.0429 26.9667L53.8535 27.0546C56.08 27.1131 57.164 28.5487 57.1054 31.3612L57.0351 37.0389C56.9765 39.6756 55.7988 40.8768 53.5019 40.6424L51.5156 40.7303C49.0546 40.7889 47.9413 39.5585 48.1757 37.0389L48.4218 35.2284L51.1816 35.4042L51.0058 37.0389C51.0058 37.66 51.2929 37.9706 51.8671 37.9706L53.414 38.0585C54.1054 37.9999 54.4804 37.1151 54.539 35.4042V31.1854C54.4804 30.2713 54.1054 29.8378 53.414 29.8846L51.5156 29.8143C49.3359 29.5213 48.2753 28.3436 48.3339 26.2811V19.5663C48.4511 17.328 49.541 16.2088 51.6035 16.2088L53.6777 16.0506C55.9628 16.0975 57.164 17.328 57.2812 19.7421V21.3768ZM58.6171 16.2967L67.8984 15.9628L67.8105 18.6171H64.3828L64.6288 40.8182L61.8867 40.7303L61.7988 18.5292L58.7929 18.6171L58.6171 16.2967ZM72.0644 30.2538L72.1699 40.8182H69.3398L69.2519 16.0506L70.9745 16.1561V16.121L74.8417 16.0506C77.08 15.9921 78.1992 17.1639 78.1992 19.5663L78.2695 26.7909C78.3749 28.9237 77.5195 30.0253 75.7031 30.0956L78.7265 40.5546L75.6679 40.9061L72.8906 30.201L72.0644 30.2538ZM71.9413 18.7753L72.0292 27.5995L74.5781 27.4764C75.2695 27.4178 75.5859 26.8729 75.5273 25.8417L75.3515 19.5663C75.2929 18.9335 74.8945 18.6463 74.1562 18.7049L71.9413 18.7753ZM79.7109 40.8182L83.1562 16.0506L85.6347 16.121L88.9042 40.5546L86.0742 40.8182L85.6347 36.5116L82.8925 36.7753L82.6288 40.7303L79.7109 40.8182ZM85.3007 33.9276L84.2636 26.1932L83.1562 34.1913L85.3007 33.9276ZM87.5507 16.2967L96.832 15.9628L96.7441 18.6171H93.3163L93.5624 40.8182L90.8203 40.7303L90.7324 18.5292L87.7265 18.6171L87.5507 16.2967ZM98.1855 16.0506L100.928 16.121L101.016 40.7303L98.2734 40.8182L98.1855 16.0506ZM111.809 37.3026C111.715 39.5878 110.549 40.7303 108.31 40.7303H106.148C103.805 40.6717 102.662 39.494 102.721 37.1971L102.967 19.4784C102.967 17.4159 104.086 16.326 106.324 16.2088L108.31 16.121C110.432 16.1796 111.551 17.3573 111.668 19.6542L111.809 37.3026ZM109.172 19.5663C109.172 19.0506 108.855 18.7342 108.223 18.6171H106.236C105.779 18.6171 105.551 18.9628 105.551 19.6542L105.463 37.3729C105.404 37.9471 105.721 38.2342 106.412 38.2342H108.135C108.768 38.3514 109.143 38.035 109.26 37.285L109.172 19.5663ZM113.426 40.994L113.514 16.2088L116.537 16.121L119.631 32.6444L119.719 16.2088L122.285 16.121L122.215 40.6424L119.033 40.8182L116.098 26.7909L116.01 40.7303L113.426 40.994Z" fill="#FF5200"/>
<path d="M126.37 49.985C125.96 48.953 129.644 44.2414 130.584 44.2638C131.524 44.2862 130.69 47.36 130.114 48.078C129.553 48.7959 126.567 50.5011 126.37 49.985Z" fill="white"/>
<path style="mix-blend-mode:screen" d="M6.88125 9.34194C6.88125 9.34194 100.325 -6.09414 128.78 5.38196C128.78 5.38196 131.281 9.73457 132.418 16.5888C132.418 16.5888 123.429 24.3517 106.389 25.2043C91.7297 25.9447 38.8681 12.1016 26.513 10.3852C14.1579 8.66886 6.86609 9.33072 6.86609 9.33072L6.88125 9.34194Z" fill="url(#paint13_linear_50_2101)"/>
<path d="M6.88129 11.0022C6.88129 11.0022 9.03396 7.72653 14.0366 5.96529C19.0393 4.20405 26.7707 4.87714 27.5742 5.31464C28.3928 5.76336 26.2553 6.93004 22.2532 8.0182C18.2359 9.10635 8.92784 11.8323 6.88129 10.991V11.0022Z" fill="white"/>
<path d="M7.13903 11.8772C6.10817 11.9894 3.53103 17.9013 3.69779 18.8773C3.84939 19.8533 6.94195 16.7795 7.42706 15.1417C7.91217 13.5038 7.13903 11.8772 7.13903 11.8772Z" fill="white"/>
<defs>
<radialGradient id="paint0_radial_50_2101" cx="0" cy="0" r="1" gradientUnits="userSpaceOnUse" gradientTransform="translate(69.0992 54.82) scale(51.7911 72.3117)">
<stop stop-color="#FFBD00"/>
<stop offset="1" stop-color="#FF772C"/>
</radialGradient>
<linearGradient id="paint1_linear_50_2101" x1="67.5048" y1="55.8858" x2="67.5048" y2="0.546965" gradientUnits="userSpaceOnUse">
<stop stop-color="#FFF300"/>
<stop offset="1" stop-color="#FF9700"/>
</linearGradient>
<linearGradient id="paint2_linear_50_2101" x1="67.5047" y1="54.8425" x2="67.5047" y2="1.14152" gradientUnits="userSpaceOnUse">
<stop stop-color="#FFCC00"/>
<stop offset="1" stop-color="#FF9700"/>
</linearGradient>
<linearGradient id="paint3_linear_50_2101" x1="128.522" y1="48.2014" x2="7.03296" y2="48.2014" gradientUnits="userSpaceOnUse">
<stop stop-color="#FF6140"/>
<stop offset="0.1" stop-color="#EE5A3B"/>
<stop offset="0.29" stop-color="#C44A31"/>
<stop offset="0.55" stop-color="#803020"/>
<stop offset="0.88" stop-color="#240D09"/>
<stop offset="1"/>
</linearGradient>
<radialGradient id="paint4_radial_50_2101" cx="0" cy="0" r="1" gradientUnits="userSpaceOnUse" gradientTransform="translate(28.7333 18.8927) rotate(-94.6171) scale(1.74136 2.3463)">
<stop stop-color="#00B359"/>
<stop offset="0.13" stop-color="#009148"/>
<stop offset="0.34" stop-color="#005D2E"/>
<stop offset="0.54" stop-color="#00351A"/>
<stop offset="0.73" stop-color="#00170B"/>
<stop offset="0.89" stop-color="#000603"/>
<stop offset="1"/>
</radialGradient>
<radialGradient id="paint5_radial_50_2101" cx="0" cy="0" r="1" gradientUnits="userSpaceOnUse" gradientTransform="translate(31.9287 11.4467) rotate(-94.6171) scale(1.74136 2.3463)">
<stop stop-color="#00B359"/>
<stop offset="0.13" stop-color="#009148"/>
<stop offset="0.34" stop-color="#005D2E"/>
<stop offset="0.54" stop-color="#00351A"/>
<stop offset="0.73" stop-color="#00170B"/>
<stop offset="0.89" stop-color="#000603"/>
<stop offset="1"/>
</radialGradient>
<radialGradient id="paint6_radial_50_2101" cx="0" cy="0" r="1" gradientUnits="userSpaceOnUse" gradientTransform="translate(30.0399 32.8151) rotate(-94.6171) scale(1.74136 2.3463)">
<stop stop-color="#00B359"/>
<stop offset="0.13" stop-color="#009148"/>
<stop offset="0.34" stop-color="#005D2E"/>
<stop offset="0.54" stop-color="#00351A"/>
<stop offset="0.73" stop-color="#00170B"/>
<stop offset="0.89" stop-color="#000603"/>
<stop offset="1"/>
</radialGradient>
<radialGradient id="paint7_radial_50_2101" cx="0" cy="0" r="1" gradientUnits="userSpaceOnUse" gradientTransform="translate(19.2672 10.7479) rotate(-94.6171) scale(4.86456 6.5545)">
<stop stop-color="#00B359"/>
<stop offset="0.13" stop-color="#009148"/>
<stop offset="0.34" stop-color="#005D2E"/>
<stop offset="0.54" stop-color="#00351A"/>
<stop offset="0.73" stop-color="#00170B"/>
<stop offset="0.89" stop-color="#000603"/>
<stop offset="1"/>
</radialGradient>
<radialGradient id="paint8_radial_50_2101" cx="0" cy="0" r="1" gradientUnits="userSpaceOnUse" gradientTransform="translate(37.7738 45.2733) rotate(-94.6171) scale(2.32555 3.13344)">
<stop stop-color="#00B359"/>
<stop offset="0.13" stop-color="#009148"/>
<stop offset="0.34" stop-color="#005D2E"/>
<stop offset="0.54" stop-color="#00351A"/>
<stop offset="0.73" stop-color="#00170B"/>
<stop offset="0.89" stop-color="#000603"/>
<stop offset="1"/>
</radialGradient>
<radialGradient id="paint9_radial_50_2101" cx="0" cy="0" r="1" gradientUnits="userSpaceOnUse" gradientTransform="translate(9.86672 50.2385) rotate(-94.6171) scale(1.15716 1.55915)">
<stop stop-color="#00B359"/>
<stop offset="0.13" stop-color="#009148"/>
<stop offset="0.34" stop-color="#005D2E"/>
<stop offset="0.54" stop-color="#00351A"/>
<stop offset="0.73" stop-color="#00170B"/>
<stop offset="0.89" stop-color="#000603"/>
<stop offset="1"/>
</radialGradient>
<radialGradient id="paint10_radial_50_2101" cx="0" cy="0" r="1" gradientUnits="userSpaceOnUse" gradientTransform="translate(53.881 30.3448) rotate(-94.6171) scale(1.15716 1.55915)">
<stop stop-color="#00B359"/>
<stop offset="0.13" stop-color="#009148"/>
<stop offset="0.34" stop-color="#005D2E"/>
<stop offset="0.54" stop-color="#00351A"/>
<stop offset="0.73" stop-color="#00170B"/>
<stop offset="0.89" stop-color="#000603"/>
<stop offset="1"/>
</radialGradient>
<radialGradient id="paint11_radial_50_2101" cx="0" cy="0" r="1" gradientUnits="userSpaceOnUse" gradientTransform="translate(32.1212 48.2429) rotate(-94.6171) scale(0.86506 1.16558)">
<stop stop-color="#00B359"/>
<stop offset="0.13" stop-color="#009148"/>
<stop offset="0.34" stop-color="#005D2E"/>
<stop offset="0.54" stop-color="#00351A"/>
<stop offset="0.73" stop-color="#00170B"/>
<stop offset="0.89" stop-color="#000603"/>
<stop offset="1"/>
</radialGradient>
<radialGradient id="paint12_radial_50_2101" cx="0" cy="0" r="1" gradientUnits="userSpaceOnUse" gradientTransform="translate(50.3484 48.4708) rotate(-94.6171) scale(1.80876 2.43712)">
<stop stop-color="#00B359"/>
<stop offset="0.13" stop-color="#009148"/>
<stop offset="0.34" stop-color="#005D2E"/>
<stop offset="0.54" stop-color="#00351A"/>
<stop offset="0.73" stop-color="#00170B"/>
<stop offset="0.89" stop-color="#000603"/>
<stop offset="1"/>
</radialGradient>
<linearGradient id="paint13_linear_50_2101" x1="6.88125" y1="13.1897" x2="132.433" y2="13.1897" gradientUnits="userSpaceOnUse">
<stop stop-color="#FF9840"/>
<stop offset="0.1" stop-color="#EE8E3B"/>
<stop offset="0.29" stop-color="#C47531"/>
<stop offset="0.55" stop-color="#804C20"/>
<stop offset="0.88" stop-color="#241509"/>
<stop offset="1"/>
</linearGradient>
</defs>
</svg>
