<svg width="196" height="59" viewBox="0 0 196 59" fill="none" xmlns="http://www.w3.org/2000/svg">
<path d="M2.35337 50.3328C7.19547 59.9825 180.675 62.6978 190.667 52.6666C199.757 43.5443 196.059 10.8925 188.29 4.38452C177.703 -4.49095 17.3199 1.73646 8.75815 8.71566C0.746677 15.2236 -2.6648 40.324 2.35337 50.3328Z" fill="url(#paint0_radial_74_2111)"/>
<path d="M2.35337 50.3328C7.19547 59.9825 180.675 62.6978 190.667 52.6666C199.757 43.5443 196.059 10.8925 188.29 4.38452C177.703 -4.49095 17.3199 1.73646 8.75815 8.71566C0.746677 15.2236 -2.6648 40.324 2.35337 50.3328Z" fill="url(#paint1_radial_74_2111)"/>
<path d="M2.74964 48.6272C7.56973 57.9403 180.345 58.6023 190.293 48.919C199.339 40.1221 195.773 11.0383 188.048 4.76602C177.505 -3.78405 17.518 2.21895 8.97834 8.9513C1.01088 15.2236 -2.26854 38.9776 2.74964 48.6272Z" fill="url(#paint2_linear_74_2111)"/>
<path d="M4.20173 47.7969C8.93378 56.8295 179.178 57.4803 188.906 48.0887C197.754 39.5498 194.276 11.3301 186.705 5.23729C176.382 -3.05471 18.64 2.76877 10.2984 9.29914C2.50699 15.3919 -0.706402 38.439 4.20173 47.7969Z" fill="url(#paint3_linear_74_2111)"/>
<path style="mix-blend-mode:screen" d="M186.595 48.257C186.595 48.257 77.296 57.2334 10.2109 49.3117C10.2109 49.3117 53.7898 52.9247 73.1803 49.3117C106.107 43.1853 177.946 41.3675 186.595 48.257Z" fill="url(#paint4_linear_74_2111)"/>
<path style="mix-blend-mode:screen" d="M41.5528 17.1535C43.4236 17.0974 45.0303 17.8268 45.1624 18.7805C45.2724 19.7343 43.8418 20.5646 41.971 20.6207C40.1002 20.6768 38.4935 19.9475 38.3614 18.9937C38.2514 18.04 39.682 17.2096 41.5528 17.1535Z" fill="url(#paint5_radial_74_2111)"/>
<path d="M41.9496 18.399C42.4778 18.3878 42.918 18.5898 42.94 18.8478C42.9621 19.1171 42.5659 19.3415 42.0597 19.3528C41.5314 19.364 41.0912 19.162 41.0692 18.9039C41.0472 18.6346 41.4434 18.4102 41.9496 18.399Z" fill="#FFFFAB"/>
<path style="mix-blend-mode:screen" d="M46.1749 9.7031C48.0457 9.647 49.6524 10.3763 49.7844 11.3301C49.8945 12.2838 48.4639 13.1029 46.593 13.1703C44.7222 13.2264 43.1155 12.497 42.9835 11.5433C42.8734 10.5895 44.3041 9.77043 46.1749 9.7031Z" fill="url(#paint6_radial_74_2111)"/>
<path d="M46.5707 10.9486C47.0989 10.9373 47.5391 11.1393 47.5611 11.3974C47.5832 11.6667 47.187 11.8911 46.6808 11.9023C46.1525 11.9135 45.7123 11.7116 45.6903 11.4535C45.6683 11.1842 46.0645 10.9598 46.5707 10.9486Z" fill="#FFFFAB"/>
<path style="mix-blend-mode:screen" d="M43.4454 31.0783C45.3162 31.0222 46.9229 31.7515 47.0549 32.7053C47.165 33.659 45.7344 34.4781 43.8636 34.5454C41.9927 34.6015 40.3861 33.8722 40.254 32.9185C40.1439 31.9647 41.5746 31.1456 43.4454 31.0783Z" fill="url(#paint7_radial_74_2111)"/>
<path d="M43.8637 32.3238C44.3919 32.3126 44.8321 32.5146 44.8541 32.7726C44.8761 33.0419 44.4799 33.2663 43.9737 33.2776C43.4455 33.2888 43.0053 33.0868 42.9833 32.8287C42.9613 32.5707 43.3575 32.335 43.8637 32.3238Z" fill="#FFFFAB"/>
<path style="mix-blend-mode:screen" d="M27.4223 5.88807C32.6825 5.73098 37.1945 7.77312 37.5026 10.4436C37.8108 13.1253 33.805 15.4256 28.5668 15.5826C23.3065 15.7397 18.7945 13.6976 18.4864 11.0271C18.1782 8.34537 22.184 6.04515 27.4223 5.88807Z" fill="url(#paint8_radial_74_2111)"/>
<path d="M28.5667 9.3777C30.0193 9.33282 31.2739 9.89385 31.3619 10.6344C31.4499 11.375 30.3495 12.0145 28.8968 12.0594C27.4442 12.1043 26.1897 11.5433 26.1016 10.8027C26.0136 10.0622 27.1141 9.42258 28.5667 9.3777Z" fill="#FFFFAB"/>
<path style="mix-blend-mode:screen" d="M54.5822 42.9608C57.0913 42.8823 59.2483 43.8585 59.4023 45.1376C59.5564 46.4168 57.6416 47.5164 55.1325 47.5949C52.6234 47.6735 50.4665 46.6973 50.3124 45.4182C50.1583 44.139 52.0732 43.0394 54.5822 42.9608Z" fill="url(#paint9_radial_74_2111)"/>
<path d="M55.1325 44.6215C55.8368 44.599 56.431 44.8683 56.4751 45.2274C56.5191 45.5865 55.9909 45.8894 55.2866 45.9118C54.5822 45.9343 53.988 45.665 53.944 45.3059C53.8999 44.9469 54.4282 44.6439 55.1325 44.6215Z" fill="#FFFFAB"/>
<path style="mix-blend-mode:screen" d="M14.1948 49.0761C15.4494 49.0424 16.5278 49.5249 16.5939 50.1645C16.6599 50.804 15.7135 51.3538 14.4589 51.3875C13.2044 51.4212 12.1259 50.9387 12.0599 50.2991C11.9939 49.6595 12.9403 49.1097 14.1948 49.0761Z" fill="url(#paint10_radial_74_2111)"/>
<path d="M14.481 49.9064C14.8331 49.9064 15.1193 50.0298 15.1413 50.2093C15.1413 50.3889 14.8992 50.5347 14.547 50.5459C14.1949 50.5459 13.9087 50.4225 13.8867 50.243C13.8867 50.0635 14.1288 49.9176 14.481 49.9064Z" fill="#FFFFAB"/>
<path style="mix-blend-mode:screen" d="M78.1108 29.1708C79.3654 29.1371 80.4439 29.6196 80.5099 30.2592C80.5759 30.8988 79.6295 31.4486 78.375 31.4822C77.1204 31.5159 76.0419 31.0334 75.9759 30.3938C75.9099 29.7543 76.8563 29.2044 78.1108 29.1708Z" fill="url(#paint11_radial_74_2111)"/>
<path d="M78.397 30.0011C78.7491 30.0011 79.0353 30.1245 79.0573 30.3041C79.0573 30.4836 78.8152 30.6295 78.463 30.6407C78.1109 30.6407 77.8247 30.5172 77.8027 30.3377C77.8027 30.1582 78.0448 30.0123 78.397 30.0011Z" fill="#FFFFAB"/>
<path style="mix-blend-mode:screen" d="M46.5713 47.3705C47.4957 47.3369 48.31 47.7071 48.3541 48.1784C48.4201 48.6497 47.6938 49.0648 46.7694 49.0985C45.845 49.1322 45.0306 48.7619 44.9866 48.2906C44.9206 47.8194 45.6469 47.4042 46.5713 47.3818V47.3705Z" fill="url(#paint12_radial_74_2111)"/>
<path d="M46.7693 47.9877C47.0334 47.9877 47.2535 48.0774 47.2755 48.2121C47.2755 48.3467 47.0994 48.4589 46.8353 48.4702C46.5712 48.4702 46.3511 48.3804 46.3291 48.2457C46.3291 48.1111 46.5052 47.9989 46.7693 47.9877Z" fill="#FFFFAB"/>
<path style="mix-blend-mode:screen" d="M72.9161 46.6637C74.8749 46.6076 76.5476 47.3706 76.6797 48.3692C76.7897 49.3678 75.2931 50.2206 73.3562 50.2879C71.4194 50.3552 69.7247 49.581 69.5926 48.5936C69.4826 47.595 70.9792 46.7422 72.9381 46.6749L72.9161 46.6637Z" fill="url(#paint13_radial_74_2111)"/>
<path d="M73.3335 47.9652C73.8837 47.954 74.3459 48.156 74.3679 48.4365C74.3899 48.717 73.9938 48.9526 73.4435 48.9639C72.8933 48.9751 72.4311 48.7731 72.4091 48.4926C72.3871 48.2121 72.7832 47.9764 73.3335 47.9652Z" fill="#FFFFAB"/>
<path d="M29.4238 21.4682H26.6816L26.8574 19.5698C26.8574 19.0541 26.541 18.7377 25.9082 18.6205H23.9219C23.4648 18.6205 23.2363 18.9662 23.2363 19.6577L23.1484 37.3764C23.0898 37.9506 23.4062 38.2377 24.0977 38.2377H25.8203C26.4531 38.3549 26.8281 38.0385 26.9453 37.2885V35.3198L29.4238 35.4077L29.3535 37.3764C29.3535 39.6147 28.2344 40.7338 25.9961 40.7338H23.834C21.4902 40.6752 20.3477 39.4975 20.4062 37.2006L20.6523 19.4819C20.6523 17.4194 21.7715 16.3295 24.0098 16.2123L25.9961 16.1245C28.1172 16.183 29.2363 17.3608 29.3535 19.6577L29.4238 21.4682ZM40.041 37.3061C39.9473 39.5912 38.7812 40.7338 36.543 40.7338H34.3809C32.0371 40.6752 30.8945 39.4975 30.9531 37.2006L31.1992 19.4819C31.1992 17.4194 32.3184 16.3295 34.5566 16.2123L36.543 16.1245C38.6641 16.183 39.7832 17.3608 39.9004 19.6577L40.041 37.3061ZM37.4043 19.5698C37.4043 19.0541 37.0879 18.7377 36.4551 18.6205H34.4688C34.0117 18.6205 33.7832 18.9662 33.7832 19.6577L33.6953 37.3764C33.6367 37.9506 33.9531 38.2377 34.6445 38.2377H36.3672C37 38.3549 37.375 38.0385 37.4922 37.2885L37.4043 19.5698ZM41.6582 40.9975L41.7461 16.2123L44.7695 16.1245L47.8633 32.6479L47.9512 16.2123L50.5176 16.1245L50.4473 40.6459L47.2656 40.8217L44.3301 26.7944L44.2422 40.7338L41.6582 40.9975ZM52.2051 16.2123L52.0469 40.7338L55.0527 40.8217L54.7891 29.642L59.0078 29.8881V27.1459L54.7891 26.7944L54.9648 18.7963L60.9062 18.7084V16.0541L52.2051 16.2123ZM62.6641 16.0541L65.4062 16.1245L65.4941 40.7338L62.752 40.8217L62.6641 16.0541ZM70.0117 30.2573L70.1172 40.8217H67.2871L67.1992 16.0541L68.9219 16.1596V16.1245L72.7891 16.0541C75.0273 15.9955 76.1465 17.1674 76.1465 19.5698L76.2168 26.7944C76.3223 28.9272 75.4668 30.0287 73.6504 30.0991L76.6738 40.558L73.6152 40.9096L70.8379 30.2045L70.0117 30.2573ZM69.8887 18.7787L69.9766 27.603L72.5254 27.4799C73.2168 27.4213 73.5332 26.8764 73.4746 25.8452L73.2988 19.5698C73.2402 18.937 72.8418 18.6498 72.1035 18.7084L69.8887 18.7787ZM77.834 40.9096L78.0801 16.3002L81.2617 16.2123L84.1094 31.9623L86.7637 16.2123L90.1211 16.3002L90.2969 40.8217H87.4668L87.625 28.517L85.3047 37.9037L82.8086 37.9741L80.6641 28.517L80.5762 40.4702L77.834 40.9096ZM99.8242 30.2573L99.9297 40.8217H97.0996L97.0117 16.0541L98.7344 16.1596V16.1245L102.602 16.0541C104.84 15.9955 105.959 17.1674 105.959 19.5698L106.029 26.7944C106.135 28.9272 105.279 30.0287 103.463 30.0991L106.486 40.558L103.428 40.9096L100.65 30.2045L99.8242 30.2573ZM99.7012 18.7787L99.7891 27.603L102.338 27.4799C103.029 27.4213 103.346 26.8764 103.287 25.8452L103.111 19.5698C103.053 18.937 102.654 18.6498 101.916 18.7084L99.7012 18.7787ZM116.33 18.9721L110.389 19.2358V26.8823L115.469 27.2338L115.381 30.1518L110.477 29.8178L110.389 37.9037L116.84 38.062L116.506 40.9975L107.471 40.6459L107.805 16.3002L116.506 16.1245L116.33 18.9721ZM118.105 16.0541L120.848 16.1245L120.936 40.7338L118.193 40.8217L118.105 16.0541ZM122.799 40.9975L122.887 16.2123L125.91 16.1245L129.004 32.6479L129.092 16.2123L131.658 16.1245L131.588 40.6459L128.406 40.8217L125.471 26.7944L125.383 40.7338L122.799 40.9975ZM142.293 16.0541L138.848 40.8217L136.369 40.7514L133.1 16.3178L135.93 16.0541L137.652 29.642L139.375 16.142L142.293 16.0541ZM152.576 18.9721L146.635 19.2358V26.8823L151.715 27.2338L151.627 30.1518L146.723 29.8178L146.635 37.9037L153.086 38.062L152.752 40.9975L143.717 40.6459L144.051 16.3002L152.752 16.1245L152.576 18.9721ZM163.545 21.3803L160.891 21.4682L160.715 19.9213C160.715 19.1713 160.369 18.7377 159.678 18.6205L158.043 18.8842C157.645 19.06 157.416 19.4057 157.357 19.9213L157.27 25.933C157.27 26.683 157.615 27.0287 158.307 26.9702L160.117 27.058C162.344 27.1166 163.428 28.5522 163.369 31.3647L163.299 37.0424C163.24 39.6791 162.062 40.8803 159.766 40.6459L157.779 40.7338C155.318 40.7924 154.205 39.562 154.439 37.0424L154.686 35.2319L157.445 35.4077L157.27 37.0424C157.27 37.6635 157.557 37.9741 158.131 37.9741L159.678 38.062C160.369 38.0034 160.744 37.1186 160.803 35.4077V31.1889C160.744 30.2748 160.369 29.8412 159.678 29.8881L157.779 29.8178C155.6 29.5248 154.539 28.3471 154.598 26.2846V19.5698C154.715 17.3315 155.805 16.2123 157.867 16.2123L159.941 16.0541C162.227 16.101 163.428 17.3315 163.545 19.7455V21.3803ZM164.881 16.3002L174.162 15.9662L174.074 18.6205H170.646L170.893 40.8217L168.15 40.7338L168.062 18.5327L165.057 18.6205L164.881 16.3002Z" fill="#FF5200"/>
<path d="M183.47 49.9961C182.875 48.9638 188.224 44.2512 189.588 44.2736C190.953 44.2961 189.742 47.3705 188.906 48.0886C188.092 48.8068 183.756 50.5123 183.47 49.9961Z" fill="white"/>
<path style="mix-blend-mode:screen" d="M9.99076 9.34401C9.99076 9.34401 145.658 -6.0955 186.97 5.38315C186.97 5.38315 190.601 9.73673 192.252 16.5925C192.252 16.5925 179.2 24.3571 154.461 25.2099C133.178 25.9505 56.4309 12.1043 38.4931 10.3875C20.5553 8.67077 9.96875 9.33279 9.96875 9.33279L9.99076 9.34401Z" fill="url(#paint14_linear_74_2111)"/>
<path d="M9.99023 11.0046C9.99023 11.0046 13.1156 7.72823 20.3787 5.9666C27.6419 4.20497 38.8668 4.8782 40.0333 5.3158C41.2218 5.76463 38.1184 6.93157 32.3079 8.01996C26.4754 9.10836 12.9615 11.835 9.99023 10.9934V11.0046Z" fill="white"/>
<path d="M10.3648 11.8799C8.86816 11.9921 5.12653 17.9053 5.36864 18.8815C5.58873 19.8577 10.0787 16.7833 10.783 15.1451C11.4873 13.5069 10.3648 11.8799 10.3648 11.8799Z" fill="white"/>
<defs>
<radialGradient id="paint0_radial_74_2111" cx="0" cy="0" r="1" gradientUnits="userSpaceOnUse" gradientTransform="translate(100.322 54.8322) scale(75.193 72.3278)">
<stop stop-color="#FFBD00"/>
<stop offset="1" stop-color="#FF772C"/>
</radialGradient>
<radialGradient id="paint1_radial_74_2111" cx="0" cy="0" r="1" gradientUnits="userSpaceOnUse" gradientTransform="translate(100.322 54.8322) scale(75.193 72.3278)">
<stop stop-color="#FFBD00"/>
<stop offset="1" stop-color="#FF772C"/>
</radialGradient>
<linearGradient id="paint2_linear_74_2111" x1="98.007" y1="55.8982" x2="98.007" y2="0.547088" gradientUnits="userSpaceOnUse">
<stop stop-color="#FFF300"/>
<stop offset="1" stop-color="#FF9700"/>
</linearGradient>
<linearGradient id="paint3_linear_74_2111" x1="98.0064" y1="54.8547" x2="98.0064" y2="1.14178" gradientUnits="userSpaceOnUse">
<stop stop-color="#FFCC00"/>
<stop offset="1" stop-color="#FF9700"/>
</linearGradient>
<linearGradient id="paint4_linear_74_2111" x1="186.595" y1="48.2121" x2="10.2109" y2="48.2121" gradientUnits="userSpaceOnUse">
<stop stop-color="#FF6140"/>
<stop offset="0.1" stop-color="#EE5A3B"/>
<stop offset="0.29" stop-color="#C44A31"/>
<stop offset="0.55" stop-color="#803020"/>
<stop offset="0.88" stop-color="#240D09"/>
<stop offset="1"/>
</linearGradient>
<radialGradient id="paint5_radial_74_2111" cx="0" cy="0" r="1" gradientUnits="userSpaceOnUse" gradientTransform="translate(41.7169 18.8969) rotate(-96.6859) scale(1.74798 3.39432)">
<stop stop-color="#00B359"/>
<stop offset="0.13" stop-color="#009148"/>
<stop offset="0.34" stop-color="#005D2E"/>
<stop offset="0.54" stop-color="#00351A"/>
<stop offset="0.73" stop-color="#00170B"/>
<stop offset="0.89" stop-color="#000603"/>
<stop offset="1"/>
</radialGradient>
<radialGradient id="paint6_radial_74_2111" cx="0" cy="0" r="1" gradientUnits="userSpaceOnUse" gradientTransform="translate(46.3561 11.4492) rotate(-96.6859) scale(1.74798 3.39432)">
<stop stop-color="#00B359"/>
<stop offset="0.13" stop-color="#009148"/>
<stop offset="0.34" stop-color="#005D2E"/>
<stop offset="0.54" stop-color="#00351A"/>
<stop offset="0.73" stop-color="#00170B"/>
<stop offset="0.89" stop-color="#000603"/>
<stop offset="1"/>
</radialGradient>
<radialGradient id="paint7_radial_74_2111" cx="0" cy="0" r="1" gradientUnits="userSpaceOnUse" gradientTransform="translate(43.6136 32.8224) rotate(-96.6859) scale(1.74798 3.39432)">
<stop stop-color="#00B359"/>
<stop offset="0.13" stop-color="#009148"/>
<stop offset="0.34" stop-color="#005D2E"/>
<stop offset="0.54" stop-color="#00351A"/>
<stop offset="0.73" stop-color="#00170B"/>
<stop offset="0.89" stop-color="#000603"/>
<stop offset="1"/>
</radialGradient>
<radialGradient id="paint8_radial_74_2111" cx="0" cy="0" r="1" gradientUnits="userSpaceOnUse" gradientTransform="translate(27.9732 10.7503) rotate(-96.6859) scale(4.88306 9.48221)">
<stop stop-color="#00B359"/>
<stop offset="0.13" stop-color="#009148"/>
<stop offset="0.34" stop-color="#005D2E"/>
<stop offset="0.54" stop-color="#00351A"/>
<stop offset="0.73" stop-color="#00170B"/>
<stop offset="0.89" stop-color="#000603"/>
<stop offset="1"/>
</radialGradient>
<radialGradient id="paint9_radial_74_2111" cx="0" cy="0" r="1" gradientUnits="userSpaceOnUse" gradientTransform="translate(54.842 45.2834) rotate(-96.6859) scale(2.3344 4.53306)">
<stop stop-color="#00B359"/>
<stop offset="0.13" stop-color="#009148"/>
<stop offset="0.34" stop-color="#005D2E"/>
<stop offset="0.54" stop-color="#00351A"/>
<stop offset="0.73" stop-color="#00170B"/>
<stop offset="0.89" stop-color="#000603"/>
<stop offset="1"/>
</radialGradient>
<radialGradient id="paint10_radial_74_2111" cx="0" cy="0" r="1" gradientUnits="userSpaceOnUse" gradientTransform="translate(14.3253 50.2496) rotate(-96.6859) scale(1.16156 2.25558)">
<stop stop-color="#00B359"/>
<stop offset="0.13" stop-color="#009148"/>
<stop offset="0.34" stop-color="#005D2E"/>
<stop offset="0.54" stop-color="#00351A"/>
<stop offset="0.73" stop-color="#00170B"/>
<stop offset="0.89" stop-color="#000603"/>
<stop offset="1"/>
</radialGradient>
<radialGradient id="paint11_radial_74_2111" cx="0" cy="0" r="1" gradientUnits="userSpaceOnUse" gradientTransform="translate(78.2277 30.3516) rotate(-96.6859) scale(1.16156 2.25559)">
<stop stop-color="#00B359"/>
<stop offset="0.13" stop-color="#009148"/>
<stop offset="0.34" stop-color="#005D2E"/>
<stop offset="0.54" stop-color="#00351A"/>
<stop offset="0.73" stop-color="#00170B"/>
<stop offset="0.89" stop-color="#000603"/>
<stop offset="1"/>
</radialGradient>
<radialGradient id="paint12_radial_74_2111" cx="0" cy="0" r="1" gradientUnits="userSpaceOnUse" gradientTransform="translate(46.6358 48.2536) rotate(-96.6859) scale(0.86835 1.68621)">
<stop stop-color="#00B359"/>
<stop offset="0.13" stop-color="#009148"/>
<stop offset="0.34" stop-color="#005D2E"/>
<stop offset="0.54" stop-color="#00351A"/>
<stop offset="0.73" stop-color="#00170B"/>
<stop offset="0.89" stop-color="#000603"/>
<stop offset="1"/>
</radialGradient>
<radialGradient id="paint13_radial_74_2111" cx="0" cy="0" r="1" gradientUnits="userSpaceOnUse" gradientTransform="translate(73.0983 48.4815) rotate(-96.6859) scale(1.81564 3.52572)">
<stop stop-color="#00B359"/>
<stop offset="0.13" stop-color="#009148"/>
<stop offset="0.34" stop-color="#005D2E"/>
<stop offset="0.54" stop-color="#00351A"/>
<stop offset="0.73" stop-color="#00170B"/>
<stop offset="0.89" stop-color="#000603"/>
<stop offset="1"/>
</radialGradient>
<linearGradient id="paint14_linear_74_2111" x1="9.99076" y1="13.1927" x2="192.274" y2="13.1927" gradientUnits="userSpaceOnUse">
<stop stop-color="#FF9840"/>
<stop offset="0.1" stop-color="#EE8E3B"/>
<stop offset="0.29" stop-color="#C47531"/>
<stop offset="0.55" stop-color="#804C20"/>
<stop offset="0.88" stop-color="#241509"/>
<stop offset="1"/>
</linearGradient>
</defs>
</svg>
