<svg width="71" height="66" viewBox="0 0 71 66" fill="none" xmlns="http://www.w3.org/2000/svg">
<g style="mix-blend-mode:multiply">
<path d="M64.7882 57.7452C64.6652 57.8777 64.5217 58.0103 64.3577 58.1326C52.2238 67.9924 18.794 67.6457 4.14919 58.7852C3.38057 58.3264 2.86816 57.8369 2.6222 57.3271C-2.57367 46.5701 0.244602 14.1972 8.49446 7.19238C17.349 -0.312025 51.3937 -3.70736 62.3286 5.83629C70.353 12.8309 74.1756 47.9364 64.7882 57.7452Z" fill="#CED6FF"/>
</g>
<path d="M62.8024 56.5434C62.6868 56.6686 62.552 56.7938 62.3979 56.9093C50.9968 66.2209 19.5859 65.8935 5.82561 57.5256C5.10341 57.0923 4.62194 56.6301 4.39084 56.1486C-0.491235 45.9897 2.15683 15.4165 9.90844 8.80118C18.2282 1.71399 50.2168 -1.49258 60.4913 7.52048C68.0311 14.1262 71.6228 47.28 62.8024 56.5434Z" fill="url(#paint0_linear_107_2396)"/>
<path d="M4.38962 54.1392C9.09836 63.9418 53.1044 64.7218 62.8011 54.534C71.6216 45.2705 68.0299 12.1168 60.4901 5.51103C50.2156 -3.50202 18.227 -0.295457 9.90722 6.80136C2.15561 13.4071 -0.492456 43.9802 4.38962 54.1392Z" fill="url(#paint1_radial_107_2396)"/>
<g style="mix-blend-mode:multiply" filter="url(#filter0_f_107_2396)">
<path d="M45.0261 10C37.8607 10 32.0521 15.5829 32.0521 22.4698C32.0521 27.6968 35.3986 32.1719 40.1443 34.0259V39.5352L42.4689 42.4768L40.1443 45.4183V48.6449L42.4689 51.5865L40.1443 54.528V59H45.5685L49.9078 54.8293V34.0259C54.6535 32.172 58 27.6969 58 22.4698C58.0001 15.5829 52.1915 10 45.0261 10ZM45.0261 23.0519C43.1023 23.0519 41.5428 21.553 41.5428 19.7039C41.5428 17.8548 43.1023 16.3559 45.0261 16.3559C46.9499 16.3559 48.5094 17.8548 48.5094 19.7039C48.5094 21.5529 46.9499 23.0519 45.0261 23.0519Z" fill="#CED6FF"/>
<path d="M28.4669 30.3427H22.6638V33.2137H28.4669V30.3427Z" fill="#CED6FF"/>
<path d="M17.8724 30.3431C17.2751 28.89 15.8001 27.8587 14.0785 27.8587C11.8296 27.8587 10 29.6172 10 31.7787C10 33.9401 11.8296 35.6987 14.0785 35.6987C15.8002 35.6987 17.2751 34.6674 17.8724 33.2142H19.89V30.3431H17.8724Z" fill="#CED6FF"/>
<path d="M31.8552 31.1366C31.6697 30.8766 31.4934 30.6118 31.3259 30.343H31.2402V33.2141H33.6327C32.9828 32.5767 32.3875 31.8827 31.8552 31.1366Z" fill="#CED6FF"/>
<path d="M29.0759 23.0419H25.715L22.1393 19.8005H17.8724C17.2751 18.3472 15.8001 17.316 14.0785 17.316C11.8296 17.316 10 19.0746 10 21.236C10 23.3975 11.8296 25.156 14.0785 25.156C15.8002 25.156 17.2751 24.1247 17.8724 22.6716H20.9529L24.5286 25.913H29.4684C29.245 24.976 29.1131 24.0156 29.0759 23.0419Z" fill="#CED6FF"/>
<path d="M37.1572 40.502V39.5353H37.1573V37.6443H24.5287L20.9529 40.8858H17.8724C17.2751 39.4325 15.8001 38.4013 14.0785 38.4013C11.8296 38.4013 10 40.1599 10 42.3213C10 44.4828 11.8296 46.2413 14.0785 46.2413C15.8002 46.2413 17.2751 45.21 17.8724 43.7569H22.1393L25.715 40.5154H37.1677L37.1572 40.502Z" fill="#CED6FF"/>
<path d="M24.954 44.9456L20.2199 49.4182C19.6419 49.1159 18.9798 48.9439 18.2767 48.9439C16.0279 48.9439 14.1982 50.7024 14.1982 52.8639C14.1982 55.0254 16.0279 56.7839 18.2767 56.7839C20.5255 56.7839 22.3551 55.0254 22.3551 52.8639C22.3551 52.431 22.2807 52.0147 22.1453 51.6251L26.1763 47.8167H37.1573V44.9456H24.954Z" fill="#CED6FF"/>
</g>
<path d="M47.0261 8C39.8607 8 34.0521 13.5829 34.0521 20.4698C34.0521 25.6968 37.3986 30.1719 42.1443 32.0259V37.5352L44.4689 40.4768L42.1443 43.4183V46.6449L44.4689 49.5865L42.1443 52.528V57H47.5685L51.9078 52.8293V32.0259C56.6535 30.172 60 25.6969 60 20.4698C60.0001 13.5829 54.1915 8 47.0261 8ZM47.0261 21.0519C45.1023 21.0519 43.5428 19.553 43.5428 17.7039C43.5428 15.8548 45.1023 14.3559 47.0261 14.3559C48.9499 14.3559 50.5094 15.8548 50.5094 17.7039C50.5094 19.5529 48.9499 21.0519 47.0261 21.0519Z" fill="#00FEEF"/>
<path d="M30.4669 28.3427H24.6638V31.2137H30.4669V28.3427Z" fill="#00FEEF"/>
<path d="M19.8724 28.3431C19.2751 26.89 17.8001 25.8587 16.0785 25.8587C13.8296 25.8587 12 27.6172 12 29.7787C12 31.9401 13.8296 33.6987 16.0785 33.6987C17.8002 33.6987 19.2751 32.6674 19.8724 31.2142H21.89V28.3431H19.8724Z" fill="#00FEEF"/>
<path d="M33.8552 29.1366C33.6697 28.8766 33.4934 28.6118 33.3259 28.343H33.2402V31.2141H35.6327C34.9828 30.5767 34.3875 29.8827 33.8552 29.1366Z" fill="#00FEEF"/>
<path d="M31.0759 21.0419H27.715L24.1393 17.8005H19.8724C19.2751 16.3472 17.8001 15.316 16.0785 15.316C13.8296 15.316 12 17.0746 12 19.236C12 21.3975 13.8296 23.156 16.0785 23.156C17.8002 23.156 19.2751 22.1247 19.8724 20.6716H22.9529L26.5286 23.913H31.4684C31.245 22.976 31.1131 22.0156 31.0759 21.0419Z" fill="#00FEEF"/>
<path d="M39.1572 38.502V37.5353H39.1573V35.6443H26.5287L22.9529 38.8858H19.8724C19.2751 37.4325 17.8001 36.4013 16.0785 36.4013C13.8296 36.4013 12 38.1599 12 40.3213C12 42.4828 13.8296 44.2413 16.0785 44.2413C17.8002 44.2413 19.2751 43.21 19.8724 41.7569H24.1393L27.715 38.5154H39.1677L39.1572 38.502Z" fill="#00FEEF"/>
<path d="M26.954 42.9456L22.2199 47.4182C21.6419 47.1159 20.9798 46.9439 20.2767 46.9439C18.0279 46.9439 16.1982 48.7024 16.1982 50.8639C16.1982 53.0254 18.0279 54.7839 20.2767 54.7839C22.5255 54.7839 24.3551 53.0254 24.3551 50.8639C24.3551 50.431 24.2807 50.0147 24.1453 49.6251L28.1763 45.8167H39.1573V42.9456H26.954Z" fill="#00FEEF"/>
<path style="mix-blend-mode:screen" d="M9.5 8.49995C9.5 8.49995 22.5 -4.00006 57 3.99994C57 3.99994 68 13.9999 65.0251 20.7286C65.0251 20.7286 66 22.9999 62 24.9999C60.993 17.7669 48 9.70381 39 7.7034C30.5 7.7034 8 10.4999 8 10.4999L9.5 8.49995Z" fill="url(#paint2_linear_107_2396)"/>
<path d="M7 11.5377C7 11.5377 8.47329 8.51406 11.8821 6.89633C15.3005 5.27861 25.0165 3.65125 25.575 4.06531C26.1239 4.47937 20.8373 6.38598 18.1026 7.39706C15.3679 8.40814 8.39625 12.3176 7 11.5473V11.5377Z" fill="white"/>
<path style="mix-blend-mode:screen" d="M62.3112 54.1143C62.3112 54.1143 58.4999 58.1686 50.9999 59.5C47.2763 60.161 42.9298 61.0465 42.4999 60.5C42.0794 59.9561 47.6058 55.4426 50.5103 55.1869C53.4147 54.9312 61.1695 52.9944 62.3137 54.1051L62.3112 54.1143Z" fill="url(#paint3_linear_107_2396)"/>
<path d="M7.35415 13.0096C6.65121 13.1156 4.89867 18.5658 5.0046 19.4613C5.11052 20.3568 7.21934 17.5258 7.54674 16.014C7.87414 14.5118 7.35415 13 7.35415 13V13.0096Z" fill="white"/>
<path style="mix-blend-mode:screen" d="M63.4504 52.0183C64.1597 51.9702 66.3521 46.6816 66.3198 45.7805C66.2875 44.8793 63.9542 47.5283 63.5042 49.0083C63.055 50.4786 63.4496 52.0279 63.4496 52.0279L63.4504 52.0183Z" fill="url(#paint4_linear_107_2396)"/>
<path d="M60.0316 54.7213C59.6223 53.6892 63.3061 48.9776 64.246 49.0001C65.1859 49.0225 64.3521 52.0963 63.776 52.8142C63.2151 53.5322 60.2287 55.2373 60.0316 54.7213Z" fill="white"/>
<defs>
<filter id="filter0_f_107_2396" x="9" y="9" width="50" height="51" filterUnits="userSpaceOnUse" color-interpolation-filters="sRGB">
<feFlood flood-opacity="0" result="BackgroundImageFix"/>
<feBlend mode="normal" in="SourceGraphic" in2="BackgroundImageFix" result="shape"/>
<feGaussianBlur stdDeviation="0.5" result="effect1_foregroundBlur_107_2396"/>
</filter>
<linearGradient id="paint0_linear_107_2396" x1="38.1865" y1="63.8469" x2="38.1865" y2="2.00905" gradientUnits="userSpaceOnUse">
<stop stop-color="#008EC2"/>
<stop offset="1" stop-color="#002092"/>
</linearGradient>
<radialGradient id="paint1_radial_107_2396" cx="0" cy="0" r="1" gradientUnits="userSpaceOnUse" gradientTransform="translate(38.2044 55.9585) rotate(-3.94662) scale(33.5105 282.839)">
<stop stop-color="#00D3C2"/>
<stop offset="1" stop-color="#0083C2"/>
</radialGradient>
<linearGradient id="paint2_linear_107_2396" x1="11.6763" y1="13.8807" x2="57.9957" y2="13.8807" gradientUnits="userSpaceOnUse">
<stop stop-color="#7ED140"/>
<stop offset="0.11" stop-color="#74C03B"/>
<stop offset="0.34" stop-color="#5A962E"/>
<stop offset="0.65" stop-color="#315219"/>
<stop offset="1"/>
</linearGradient>
<linearGradient id="paint3_linear_107_2396" x1="59.6273" y1="56.9107" x2="45.5876" y2="53.0805" gradientUnits="userSpaceOnUse">
<stop stop-color="#7ED140"/>
<stop offset="0.11" stop-color="#74C03B"/>
<stop offset="0.34" stop-color="#5A962E"/>
<stop offset="0.65" stop-color="#315219"/>
<stop offset="1"/>
</linearGradient>
<linearGradient id="paint4_linear_107_2396" x1="65.8257" y1="48.6256" x2="63.757" y2="48.4558" gradientUnits="userSpaceOnUse">
<stop stop-color="#7ED140"/>
<stop offset="0.11" stop-color="#74C03B"/>
<stop offset="0.34" stop-color="#5A962E"/>
<stop offset="0.65" stop-color="#315219"/>
<stop offset="1"/>
</linearGradient>
</defs>
</svg>
