<svg width="251" height="305" viewBox="0 0 251 305" fill="none" xmlns="http://www.w3.org/2000/svg">
<g filter="url(#filter0_f_521_8660)">
<path d="M143.428 138.045L170.64 155.477L172.469 153.329L150.621 129.622L143.428 138.045Z" fill="url(#paint0_radial_521_8660)"/>
</g>
<mask id="mask0_521_8660" style="mask-type:luminance" maskUnits="userSpaceOnUse" x="24" y="18" width="64" height="75">
<path d="M87.0265 18.7764L24.1641 92.4373C24.4567 91.7292 28.8214 51.0045 87.0265 18.7764Z" fill="white"/>
</mask>
<g mask="url(#mask0_521_8660)">
<path d="M87.0265 18.7764H24.1641V92.4373H87.0265V18.7764Z" fill="#270579"/>
<path d="M85.2218 4.37109C95.39 10.89 89.5378 38.2107 72.1519 65.4093C54.766 92.5835 32.43 109.357 22.2618 102.814C12.0936 96.2946 17.9458 68.9739 35.3318 41.7753C44.0369 28.176 53.9613 17.1891 62.9834 10.4261V16.3102H85.2218V4.37109Z" fill="#270579"/>
<path d="M84.9287 4.85938C94.9994 11.3294 89.196 38.3816 71.9807 65.3116C54.7655 92.2417 32.6246 108.82 22.554 102.374C12.4833 95.904 18.2867 68.8518 35.502 41.9218C44.1096 28.469 53.9608 17.5797 62.8854 10.8655V16.3346H84.9043V4.85938H84.9287Z" fill="#27067A"/>
<path d="M84.6132 5.32324C94.5863 11.72 88.8317 38.528 71.7871 65.1895C54.7426 91.851 32.8212 108.282 22.848 101.886C12.8749 95.4889 18.6296 68.6809 35.6741 42.0194C44.2086 28.6887 53.9379 17.9215 62.7894 11.2806V16.3345H84.6132V5.32324Z" fill="#27077B"/>
<path d="M71.6205 65.0509C88.5083 38.6512 94.1913 12.1148 84.314 5.78018C74.4366 -0.554437 52.7392 15.7115 35.8514 42.1112C18.9637 68.5109 13.2806 95.0473 23.158 101.382C33.0353 107.717 54.7328 91.4506 71.6205 65.0509Z" fill="#27087B"/>
<path d="M84.0022 6.27554C93.7803 12.5503 88.1475 38.8211 71.4199 64.9455C54.6924 91.0942 33.2099 107.184 23.4319 100.909C13.6538 94.6345 19.2865 68.3636 36.0141 42.2393C52.7417 16.1149 74.2241 0.000817776 84.0022 6.27554Z" fill="#27097C"/>
<path d="M71.2705 64.8272C87.8242 38.9498 93.3927 12.9371 83.7081 6.7261C74.0235 0.515113 52.7532 16.4579 36.1996 42.3353C19.6459 68.2127 14.0775 94.2254 23.762 100.436C33.4466 106.647 54.7169 90.7046 71.2705 64.8272Z" fill="#270A7D"/>
<path d="M83.3941 7.22781C92.9771 13.3805 87.4662 39.1142 71.0801 64.7258C54.6939 90.3374 33.6503 106.134 24.0673 99.9815C14.4843 93.8288 19.9952 68.0951 36.3814 42.4835C52.7675 16.8474 73.8111 1.07515 83.3941 7.22781Z" fill="#270B7E"/>
<path d="M70.901 64.5904C87.1205 39.2353 92.5836 13.7521 83.1031 7.67205C73.6227 1.59198 52.7887 17.2174 36.5692 42.5725C20.3497 67.9276 14.8866 93.4108 24.3671 99.4909C33.8475 105.571 54.6814 89.9455 70.901 64.5904Z" fill="#270C7E"/>
<path d="M82.8089 8.15551C92.1968 14.1861 86.7835 39.4071 70.7387 64.4816C54.6939 89.5805 34.0649 105.035 24.677 99.0048C15.2891 92.9742 20.7024 67.7532 36.7472 42.6787C52.792 17.6042 73.421 2.14935 82.8089 8.15551Z" fill="#270D7F"/>
<path d="M70.5529 64.3662C86.4383 39.5335 91.7868 14.5739 82.4992 8.6175C73.2115 2.66107 52.8047 17.9633 36.9193 42.7961C21.0339 67.6288 15.6854 92.5884 24.9731 98.5448C34.2607 104.501 54.6675 89.199 70.5529 64.3662Z" fill="#270E80"/>
<path d="M82.1989 9.1079C91.3917 14.992 86.1004 39.7003 70.3726 64.262C54.6448 88.8238 34.4546 103.961 25.2862 98.0772C16.0933 92.1931 21.3847 67.4848 37.1125 42.9231C52.8159 18.3613 73.0061 3.22382 82.1989 9.1079Z" fill="#270F81"/>
<path d="M81.8813 9.5962C90.9766 15.4315 85.734 39.8467 70.1769 64.1644C54.6198 88.482 34.6491 103.449 25.5538 97.6133C16.4585 91.778 21.7011 67.3628 37.2338 43.0451C52.8153 18.7275 72.786 3.76095 81.8813 9.5962Z" fill="#271082"/>
<path d="M81.5883 10.0597C90.5861 15.8217 85.3922 39.9929 70.0302 64.0419C54.6437 88.091 34.8925 102.911 25.8948 97.1246C16.897 91.3626 22.0908 67.1915 37.4529 43.1424C52.8393 19.0934 72.5905 4.27332 81.5883 10.0597Z" fill="#271182"/>
<path d="M81.2723 10.5238C90.1725 16.237 85.0519 40.1396 69.8361 63.9201C54.6204 87.7005 35.0886 102.35 26.1884 96.6609C17.2882 90.9478 22.4089 67.0452 37.6246 43.2647C52.8403 19.4842 72.3721 4.83508 81.2723 10.5238Z" fill="#271283"/>
<path d="M80.9792 11.0123C89.7819 16.6522 84.71 40.2862 69.6649 63.8225C54.6199 87.3344 35.2832 101.837 26.4805 96.1972C17.6778 90.5573 22.7498 66.9233 37.7948 43.3869C52.8399 19.875 72.1765 5.37234 80.9792 11.0123Z" fill="#271384"/>
<path d="M80.6871 11.4762C89.3923 17.0673 84.3691 40.4327 69.4948 63.7004C54.6204 86.9682 35.5032 101.3 26.7981 95.7089C18.0929 90.1178 23.116 66.7524 37.9904 43.4846C52.8648 20.2168 71.982 5.88506 80.6871 11.4762Z" fill="#271485"/>
<path d="M80.3692 11.9641C88.9768 17.482 84.0268 40.6032 69.2988 63.6024C54.5951 86.6016 35.6974 100.762 27.0897 95.2446C18.4821 89.7268 23.4321 66.6055 38.1602 43.6063C52.8638 20.6071 71.7616 6.44626 80.3692 11.9641Z" fill="#271585"/>
<path d="M80.0781 12.4282C88.5881 17.8728 83.6869 40.7255 69.1296 63.4806C54.5966 86.2112 35.8939 100.226 27.3838 94.781C18.8737 89.3363 23.775 66.4836 38.3323 43.7286C52.8653 20.998 71.568 6.9836 80.0781 12.4282Z" fill="#271686"/>
<path d="M68.952 63.3393C83.3266 40.8683 88.1674 18.2832 79.7643 12.8941C71.3612 7.50493 52.8962 21.3525 38.5216 43.8234C24.147 66.2944 19.3062 88.8795 27.7094 94.2687C36.1125 99.6578 54.5775 85.8103 68.952 63.3393Z" fill="#271887"/>
<path d="M79.468 13.3805C87.783 18.7031 83.0037 41.043 68.7877 63.261C54.5717 85.4789 36.3324 99.1514 28.0174 93.8289C19.7023 88.5064 24.4816 66.1664 38.6976 43.9485C52.9136 21.7306 71.153 8.05801 79.468 13.3805Z" fill="#271988"/>
<path d="M68.602 63.1151C82.6425 41.1665 87.3687 19.105 79.1584 13.8395C70.948 8.574 52.9102 22.0984 38.8698 44.047C24.8293 65.9957 20.1031 88.0571 28.3134 93.3226C36.5238 98.5882 54.5616 85.0638 68.602 63.1151Z" fill="#271A89"/>
<path d="M78.8574 14.3326C86.9774 19.533 82.2956 41.3359 68.421 63.0166C54.5464 84.6974 36.7215 98.077 28.6016 92.8765C20.4817 87.6761 25.1634 65.8732 39.038 44.1925C52.9127 22.5117 70.7375 9.13212 78.8574 14.3326Z" fill="#271B89"/>
<path d="M68.254 62.8915C81.9603 41.4651 86.572 19.9273 78.5544 14.7855C70.5369 9.64358 52.9262 22.8447 39.2198 44.2711C25.5135 65.6974 20.9019 87.2352 28.9194 92.3771C36.937 97.519 54.5477 84.3178 68.254 62.8915Z" fill="#271C8A"/>
<path d="M78.2474 15.2605C86.1723 20.3389 81.6124 41.6046 68.0548 62.7726C54.5216 83.9407 37.1113 96.9784 29.2108 91.9C21.2859 86.8217 25.8458 65.556 39.4034 44.3879C52.9366 23.2199 70.3469 10.1821 78.2474 15.2605Z" fill="#271D8B"/>
<path d="M77.9562 15.7489C85.7836 20.7541 81.2725 41.7756 67.91 62.6751C54.5474 83.5746 37.3566 96.4658 29.5292 91.4363C21.7019 86.4312 26.213 65.4096 39.5755 44.5101C52.9381 23.6106 70.1289 10.7194 77.9562 15.7489Z" fill="#271E8C"/>
<path d="M77.6388 16.2124C85.3686 21.1687 80.9062 41.9217 67.7144 62.5526C54.4982 83.2079 37.5511 95.9283 29.8214 90.972C22.0916 86.0157 26.5539 65.2627 39.7457 44.6318C52.962 23.9765 69.909 11.2561 77.6388 16.2124Z" fill="#271F8C"/>
<path d="M77.3462 16.7008C84.9785 21.5839 80.5893 42.0683 67.5438 62.4551C54.4982 82.8418 37.7463 95.3913 30.1384 90.5082C22.5062 85.6252 26.8953 65.1408 39.9409 44.754C52.9864 24.3672 69.7384 11.8178 77.3462 16.7008Z" fill="#27208D"/>
<path d="M77.0297 17.1649C84.5644 21.9991 80.224 42.2149 67.3492 62.3331C54.4743 82.4513 37.9418 94.8543 30.4071 90.0201C22.8724 85.1858 27.2128 64.97 40.0876 44.8518C52.9625 24.7336 69.495 12.3306 77.0297 17.1649Z" fill="#27218E"/>
<path d="M76.7357 17.6289C84.1728 22.3899 79.8812 42.3616 67.177 62.2112C54.4729 82.0608 38.1599 94.3173 30.7227 89.5319C23.2855 84.7709 27.5771 64.7992 40.2813 44.9496C52.9855 25.1 69.2985 12.8435 76.7357 17.6289Z" fill="#27228F"/>
<path d="M76.4197 18.1168C83.7593 22.8289 79.5409 42.5076 66.983 62.1131C54.4495 81.7186 38.3316 93.7797 31.0163 89.092C23.6767 84.3799 27.8951 64.7011 40.453 45.0957C52.9865 25.4902 69.1044 13.429 76.4197 18.1168Z" fill="#272390"/>
<path d="M76.1265 18.5808C83.3686 23.2197 79.1989 42.6543 66.8361 61.9912C54.4733 81.3281 38.5748 93.2427 31.3571 88.6038C24.1394 83.9649 28.2847 64.5303 40.6475 45.1934C53.0103 25.8565 68.9088 13.9419 76.1265 18.5808Z" fill="#272490"/>
<path d="M75.8345 19.0692C82.979 23.6349 78.8581 42.8253 66.666 61.8936C54.4739 80.962 38.7949 92.7301 31.6503 88.1401C24.5057 83.5744 28.6267 64.384 40.8188 45.3157C53.0109 26.2473 68.6899 14.4792 75.8345 19.0692Z" fill="#272591"/>
<path d="M75.517 19.5331C82.564 24.05 78.4919 42.9474 66.4705 61.7716C54.449 80.5957 38.9651 92.1686 31.9424 87.6518C24.8954 83.1349 28.9676 64.2375 40.989 45.4133C53.0348 26.5891 68.4943 15.0163 75.517 19.5331Z" fill="#272692"/>
<path d="M75.2244 19.9967C82.1739 24.4403 78.1749 43.0936 66.2998 61.6492C54.4247 80.2048 39.1846 91.6312 32.2595 87.1876C25.31 82.744 29.309 64.0907 41.1841 45.5351C53.0592 26.9795 68.2993 15.5531 75.2244 19.9967Z" fill="#272793"/>
<path d="M74.9079 20.4852C81.7599 24.8799 77.8096 43.2646 66.1052 61.5517C54.4008 79.8387 39.3801 91.1186 32.5282 86.7238C25.6762 82.3291 29.6265 63.9444 41.3309 45.6573C53.0353 27.3703 68.056 16.0904 74.9079 20.4852Z" fill="#272893"/>
<path d="M74.6158 20.9492C81.3703 25.2707 77.4688 43.3868 65.9351 61.4297C54.4013 79.4482 39.6001 90.5572 32.8457 86.2356C26.0913 81.9141 29.9928 63.798 41.5265 45.7551C53.0602 27.7366 67.8614 16.6277 74.6158 20.9492Z" fill="#272994"/>
<path d="M74.2987 21.4375C80.9556 25.7102 77.1273 43.5577 65.7643 61.3321C54.4012 79.1064 39.7951 90.0444 33.1626 85.7718C26.5301 81.4991 30.334 63.6515 41.6971 45.8772C53.0601 28.1029 67.6662 17.1648 74.2987 21.4375Z" fill="#272A95"/>
<path d="M74.0056 21.9016C80.5406 26.101 76.7854 43.7044 65.5931 61.1858C54.4008 78.6915 40.0141 89.4831 33.4547 85.2837C26.9198 81.0842 30.6749 63.4808 41.8673 45.9995C53.0596 28.4937 67.4463 17.7022 74.0056 21.9016Z" fill="#272A95"/>
<path d="M73.761 22.2674C80.2228 26.418 76.5164 43.8016 65.446 61.1121C54.3756 78.4225 40.1596 89.0676 33.6978 84.917C27.2359 80.7664 30.9423 63.3827 42.0128 46.0723C53.0832 28.7862 67.2992 18.1168 73.761 22.2674Z" fill="#282A95"/>
<path d="M73.5431 22.658C79.9318 26.7598 76.2498 43.9481 65.3256 61.0388C54.4015 78.1295 40.3562 88.6525 33.9432 84.5507C27.5545 80.449 31.2365 63.2606 42.1607 46.1699C53.0848 29.0792 67.1301 18.5562 73.5431 22.6336V22.658Z" fill="#292B96"/>
<path d="M73.2985 23.0246C79.614 27.0775 75.9807 44.0461 65.1785 60.9415C54.3763 77.8369 40.5017 88.2378 34.1862 84.1849C27.8707 80.1319 31.5039 63.1633 42.3061 46.2679C53.1083 29.3726 66.9829 18.9717 73.2985 23.0246Z" fill="#2A2B96"/>
<path d="M73.0547 23.3909C79.2971 27.395 75.7126 44.1683 65.0323 60.8439C54.3521 77.5195 40.6481 87.7984 34.4058 83.7943C28.1634 79.7902 31.7479 63.0169 42.4282 46.3412C53.1085 29.6656 66.8124 19.3867 73.0547 23.3909Z" fill="#2B2B97"/>
<path d="M72.8105 23.757C78.9797 27.7123 75.4196 44.2659 64.8857 60.7462C54.3517 77.2265 40.8185 87.3833 34.6493 83.428C28.4801 79.4727 32.0402 62.9192 42.5741 46.4388C53.1081 29.9585 66.6413 19.8018 72.8105 23.757Z" fill="#2C2B97"/>
<path d="M72.5668 24.1477C78.6629 28.0542 75.1515 44.4124 64.7395 60.673C54.3274 76.9336 40.9649 86.9682 34.8688 83.0618C28.7728 79.1554 32.2841 62.7971 42.6962 46.5365C53.1082 30.276 66.4708 20.2413 72.5668 24.1477Z" fill="#2D2C98"/>
<path d="M72.3465 24.5139C78.345 28.3715 74.9068 44.51 64.6167 60.5752C54.3509 76.6405 41.1347 86.5287 35.1362 82.6711C29.1377 78.8134 32.5758 62.6749 42.866 46.6097C53.1317 30.5444 66.348 20.6562 72.3465 24.5139Z" fill="#2E2C98"/>
<path d="M72.1032 24.8802C78.0286 28.689 74.6148 44.6321 64.471 60.4777C54.3271 76.3232 41.306 86.1137 35.3562 82.3049C29.4309 78.4961 32.8447 62.553 42.9885 46.7074C53.1323 30.8619 66.1535 21.0714 72.1032 24.8802Z" fill="#2F2C98"/>
<path d="M71.8605 25.2707C77.7127 29.0307 74.3477 44.7541 64.3258 60.4043C54.3039 76.0545 41.4534 85.6986 35.6012 81.9386C29.749 78.1786 33.114 62.4552 43.1359 46.805C53.1578 31.1548 66.0083 21.5108 71.8605 25.2707Z" fill="#302D99"/>
<path d="M71.6153 25.6369C77.3943 29.3481 74.0537 44.8762 64.1781 60.3066C54.3025 75.7615 41.5983 85.2591 35.8193 81.5723C30.0402 77.8612 33.3809 62.3331 43.2565 46.9027C53.1321 31.4478 65.8362 21.9502 71.6153 25.6369Z" fill="#312D99"/>
<path d="M71.3726 26.0032C77.0785 29.6655 73.7866 44.9739 64.0329 60.209C54.2792 75.4441 41.7702 84.844 36.0643 81.1817C30.3584 77.5194 33.6502 62.211 43.4039 46.9759C53.1576 31.7408 65.6667 22.3409 71.3726 26.0032Z" fill="#322D9A"/>
<path d="M71.1523 26.3693C76.785 29.9828 73.5419 45.0958 63.9102 60.1112C54.2784 75.1266 41.94 84.4044 36.3073 80.791C30.6745 77.1775 33.9176 62.0645 43.5494 47.0491C53.1568 32.0093 65.5195 22.7559 71.1523 26.3693Z" fill="#332D9A"/>
<path d="M70.9089 26.7601C76.4441 30.3247 73.2498 45.218 63.7887 60.0381C54.3033 74.8582 42.1112 83.9895 36.576 80.4493C31.0408 76.8847 34.2351 61.9913 43.6962 47.1713C53.1816 32.3512 65.3737 23.2199 70.9089 26.7601Z" fill="#342E9A"/>
<path d="M70.6652 27.1262C76.1273 30.642 72.9817 45.34 63.6426 59.9403C54.279 74.5651 42.282 83.5743 36.7955 80.0585C31.3335 76.5427 34.479 61.8447 43.8182 47.2444C53.1817 32.6196 65.1788 23.6104 70.6652 27.1262Z" fill="#352E9B"/>
<path d="M70.4205 27.4925C75.8094 30.9595 72.7127 45.4378 63.4954 59.8428C54.2782 74.2478 42.4275 83.135 37.0386 79.6924C31.6497 76.2254 34.7465 61.7472 43.9637 47.3422C53.1809 32.9371 65.0316 24.05 70.4205 27.4925Z" fill="#362E9B"/>
<path d="M70.2007 27.8587C75.5165 31.2768 72.4441 45.5597 63.3731 59.7694C54.3022 73.9791 42.5978 82.7442 37.282 79.3261C31.9663 75.9079 35.0387 61.625 44.1096 47.4153C53.2049 33.2056 64.885 24.4405 70.2007 27.8587Z" fill="#372F9C"/>
<path d="M69.958 28.2492C75.2006 31.6185 72.177 45.6817 63.228 59.6961C54.279 73.7105 42.7696 82.3291 37.527 78.9597C32.2844 75.5904 35.3081 61.5272 44.2571 47.5129C53.2061 33.4985 64.7154 24.8799 69.958 28.2492Z" fill="#382F9C"/>
<path d="M69.7143 28.6155C74.8837 31.936 71.9089 45.8039 63.0818 59.5985C54.2547 73.3932 42.9161 81.8897 37.7466 78.5936C32.5772 75.2731 35.552 61.4053 44.3791 47.6106C53.2062 33.816 64.5448 25.3195 69.7143 28.6155Z" fill="#392F9D"/>
<path d="M69.471 28.9817C74.5429 32.2533 71.6168 45.9015 62.936 59.5008C54.2308 73.1001 43.0629 81.4745 37.991 78.2029C32.919 74.9312 35.8452 61.2831 44.5259 47.6838C53.2311 34.0845 64.399 25.71 69.471 28.9817Z" fill="#3A2F9D"/>
<path d="M69.2253 29.3724C74.224 32.5952 71.3467 46.0481 62.7879 59.4276C54.229 72.8072 43.2317 81.0596 38.2086 77.8612C33.2098 74.6383 36.0872 61.1855 44.646 47.806C53.2049 34.4264 64.2021 26.174 69.2253 29.3724Z" fill="#3B309D"/>
<path d="M69.006 29.7385C73.9316 32.8881 71.1031 46.1456 62.6661 59.3299C54.2292 72.5141 43.4026 80.62 38.477 77.4704C33.5514 74.3208 36.38 61.0634 44.8169 47.8791C53.2538 34.6948 64.0804 26.589 69.006 29.7385Z" fill="#3C309E"/>
<path d="M68.7628 30.1048C73.6152 33.2055 70.811 46.2677 62.5204 59.2322C54.2298 72.1967 43.5495 80.205 38.697 77.0798C33.8446 73.9791 36.6488 60.9169 44.9394 47.9524C53.23 34.9879 63.9103 26.9796 68.7628 30.1048Z" fill="#3D309E"/>
<path d="M68.52 30.471C73.2993 33.5229 70.5439 46.3653 62.3752 59.1345C54.2065 71.9037 43.7213 79.7655 38.942 76.7135C34.1627 73.6616 36.9181 60.8192 45.0868 48.05C53.2555 35.2808 63.7407 27.4191 68.52 30.471Z" fill="#3E319F"/>
<path d="M68.2744 30.8615C72.9805 33.8646 70.2739 46.5117 62.2271 59.0612C54.1803 71.6351 43.8658 79.3747 39.1596 76.3472C34.4535 73.3441 37.1601 60.697 45.2069 48.1476C53.2537 35.5737 63.5682 27.834 68.2744 30.8615Z" fill="#3F319F"/>
<path d="M68.0556 31.2279C72.6886 34.1821 70.0063 46.6095 62.1058 58.9636C54.2053 71.3178 44.0371 78.9353 39.4285 75.9811C34.7955 73.0268 37.4778 60.5995 45.3783 48.2453C53.2787 35.8912 63.4469 28.2736 68.0556 31.2279Z" fill="#40319F"/>
<path d="M67.8118 31.5941C72.3473 34.4996 69.7382 46.7316 61.9596 58.866C54.1811 71.0248 44.2079 78.4959 39.6481 75.5905C35.0882 72.6851 37.7217 60.453 45.5003 48.3186C53.2789 36.1842 63.252 28.6887 67.8118 31.5941Z" fill="#4131A0"/>
<path d="M67.5681 31.9603C72.0304 34.8169 69.47 46.8292 61.8134 58.7682C54.1811 70.7073 44.3543 78.0807 39.892 75.1997C35.4297 72.3431 37.99 60.3308 45.6467 48.3917C53.2789 36.4527 63.1058 29.0793 67.5681 31.9603Z" fill="#4232A0"/>
<path d="M67.3248 32.3509C71.714 35.1586 69.178 46.9756 61.6677 58.695C54.1573 70.4387 44.5012 77.6656 40.112 74.8579C35.7229 72.0501 38.2588 60.2331 45.7692 48.5138C53.2795 36.77 62.9356 29.5431 67.3248 32.3509Z" fill="#4332A1"/>
<path d="M67.0801 32.7171C71.3961 35.4761 68.9089 47.0733 61.5449 58.5973C54.1565 70.1214 44.6954 77.2262 40.3794 74.4673C36.0634 71.7083 38.5506 60.1111 45.9146 48.5871C53.303 37.0631 62.7641 29.9582 67.0801 32.7171Z" fill="#4432A1"/>
<path d="M66.8618 33.0838C71.1046 35.7939 68.6662 47.1958 61.4241 58.5001C54.182 69.8043 44.8672 76.8115 40.6244 74.077C36.3815 71.3669 38.8199 59.965 46.062 48.6607C53.3041 37.332 62.6189 30.3493 66.8618 33.0838Z" fill="#4533A2"/>
<path d="M66.6175 33.474C70.7872 36.1353 68.3732 47.3175 61.2774 58.4509C54.1572 69.5598 45.0375 76.4205 40.8678 73.7592C36.6981 71.098 39.1122 59.9158 46.208 48.7824C53.3282 37.6734 62.4478 30.8128 66.6175 33.474Z" fill="#4633A2"/>
<path d="M66.3728 33.8406C70.4449 36.4531 68.104 47.4399 61.1302 58.3536C54.1563 69.2672 45.1829 75.9814 41.0863 73.369C37.0142 70.7565 39.3551 59.7697 46.3289 48.856C53.3028 37.9424 62.2762 31.2282 66.3728 33.8406Z" fill="#4733A2"/>
<path d="M66.1301 34.2068C70.1291 36.7704 67.8369 47.5376 60.985 58.2559C54.133 68.9742 45.3303 75.5663 41.3313 73.0027C37.3323 70.4391 39.6244 59.672 46.4764 48.9537C53.3283 38.2353 62.131 31.6432 66.1301 34.2068Z" fill="#4833A3"/>
<path d="M65.8848 34.5731C69.8107 37.0879 67.543 47.6597 60.8373 58.1583C54.1073 68.6568 45.4996 75.1269 41.5494 72.6121C37.6236 70.0973 39.8913 59.5255 46.5969 49.0269C53.3026 38.5284 61.9346 32.0583 65.8848 34.5731Z" fill="#4934A3"/>
<path d="M65.6656 34.9636C69.5183 37.4296 67.2993 47.7817 60.7156 58.0849C54.1318 68.3882 45.6705 74.7361 41.8178 72.2458C37.9651 69.7798 40.1841 59.4278 46.7678 49.1245C53.3515 38.8213 61.8129 32.4733 65.6656 34.9636Z" fill="#4A34A4"/>
<path d="M65.4218 35.33C69.2014 37.7471 67.0312 47.9038 60.5694 57.9873C54.1076 68.0709 45.817 74.2968 42.0374 71.8796C38.2579 69.4625 40.428 59.3058 46.8899 49.2223C53.3517 39.1388 61.6423 32.9129 65.4218 35.33Z" fill="#4B34A4"/>
<path d="M65.1776 35.6961C68.884 38.0644 66.7382 48.0014 60.4227 57.8896C54.1072 67.7778 45.9873 73.8572 42.2809 71.4889C38.5745 69.1206 40.7203 59.1836 47.0358 49.2954C53.3513 39.4072 61.4712 33.3278 65.1776 35.6961Z" fill="#4C35A4"/>
<path d="M64.9339 36.0624C68.5428 38.3819 66.4701 48.1236 60.2765 57.792C54.083 67.4605 46.1337 73.4422 42.5005 71.1228C38.8672 68.8033 40.9643 59.0616 47.1578 49.3932C53.3514 39.7247 61.3007 33.743 64.9339 36.0624Z" fill="#4D35A5"/>
<path d="M64.7155 36.453C68.2512 38.7236 66.2273 48.2455 60.1557 57.7187C54.084 67.1918 46.3055 73.0271 42.7698 70.7564C39.234 68.4858 41.2579 58.9639 47.3296 49.4907C53.4013 40.0176 61.1798 34.1824 64.7155 36.453Z" fill="#4E35A5"/>
<path d="M64.4723 36.8192C67.9348 39.041 65.9353 48.3677 60.01 57.6211C54.0846 66.8989 46.4767 72.5876 42.9898 70.3658C39.5272 68.144 41.5267 58.8174 47.4521 49.564C53.3775 40.3106 60.9853 34.5974 64.4723 36.8192Z" fill="#4F35A6"/>
<path d="M64.2276 37.1854C67.617 39.3584 65.6663 48.4653 59.8628 57.5234C54.0594 66.5814 46.6222 72.1725 43.2328 69.9996C39.8434 67.8266 41.7941 58.7197 47.5976 49.6616C53.401 40.6036 60.8382 35.0125 64.2276 37.1854Z" fill="#5036A6"/>
<path d="M63.9839 37.5761C67.3001 39.7002 65.3982 48.6118 59.7167 57.4502C54.0351 66.2885 46.7686 71.7575 43.4524 69.6334C40.1361 67.5092 42.0381 58.5977 47.7196 49.7593C53.4011 40.921 60.6676 35.452 63.9839 37.5761Z" fill="#5236A7"/>
<path d="M63.7397 37.9423C66.9828 40.0176 65.1052 48.7094 59.57 57.3524C54.0348 65.9955 46.939 71.3424 43.6959 69.2671C40.4528 67.1918 42.3304 58.5 47.8656 49.857C53.4008 41.214 60.4966 35.867 63.7397 37.9423Z" fill="#5336A7"/>
<path d="M63.5194 38.3084C66.6893 40.3349 64.8605 48.8314 59.4472 57.2547C54.0583 65.7024 47.1088 70.9028 43.9389 68.8764C40.7689 66.8499 42.5978 58.3534 48.0111 49.9301C53.4 41.4824 60.3495 36.282 63.5194 38.3084Z" fill="#5437A7"/>
<path d="M63.2756 38.6747C66.348 40.6523 64.5923 48.9291 59.3253 57.1571C54.0583 65.385 47.2795 70.4634 44.2071 68.4858C41.1347 66.5081 42.8904 58.2313 48.1574 50.0034C53.4244 41.7754 60.2032 36.6971 63.2756 38.6747Z" fill="#5537A8"/>
<path d="M63.0323 39.0654C66.0316 40.9943 64.3003 49.0757 59.1796 57.0839C54.0345 65.1166 47.4508 70.0728 44.4272 68.144C41.4279 66.2152 43.1592 58.1338 48.2799 50.1256C53.4005 42.1174 60.0087 37.1366 63.0323 39.0654Z" fill="#5637A8"/>
<path d="M62.7896 39.4314C65.7157 41.3114 64.0332 49.1731 59.0344 57.0104C54.0357 64.8478 47.5982 69.6576 44.6721 67.7776C41.746 65.8976 43.4285 58.0359 48.4273 50.1986C53.4261 42.3613 59.8635 37.5515 62.7896 39.4314Z" fill="#5737A9"/>
<path d="M62.5693 39.7978C65.4223 41.6289 63.7885 49.2953 58.9117 56.9129C54.0349 64.5305 47.7681 69.2182 44.9152 67.4115C42.0622 65.5803 43.696 57.9139 48.5728 50.2964C53.4496 42.6788 59.7164 37.9911 62.5693 39.7978Z" fill="#5838A9"/>
<path d="M62.3251 40.1639C65.1049 41.9462 63.4956 49.3929 58.765 56.8151C54.0345 64.2374 47.9384 68.803 45.1586 67.0207C42.3788 65.2384 43.9882 57.7917 48.7187 50.3695C53.4493 42.9472 59.5453 38.3816 62.3251 40.1639Z" fill="#5938A9"/>
<path d="M62.0814 40.5546C64.788 42.2881 63.2274 49.5394 58.6188 56.7419C54.0102 63.9444 48.0849 68.388 45.3782 66.6545C42.6716 64.921 44.2322 57.6697 48.8408 50.4672C53.4494 43.2647 59.3747 38.8211 62.0814 40.5546Z" fill="#5A38AA"/>
<path d="M61.8376 40.9208C64.4467 42.6055 62.9593 49.6371 58.4726 56.6442C53.9859 63.6514 48.2312 67.9485 45.6221 66.2883C43.013 64.6036 44.5005 57.572 48.9871 50.5648C53.4738 43.5577 59.2285 39.2606 61.8376 40.9208Z" fill="#5B39AA"/>
<path d="M61.5944 41.287C64.1303 42.9229 62.6673 49.7591 58.3269 56.5466C53.9865 63.334 48.4025 67.5335 45.8422 65.8976C43.3062 64.2618 44.7693 57.4255 49.1096 50.6381C53.45 43.8506 59.034 39.6512 61.5944 41.287Z" fill="#5C39AB"/>
<path d="M61.3751 41.6532C63.8379 43.2402 62.4236 49.8567 58.2051 56.4488C53.9867 63.041 48.5734 67.0939 46.1106 65.5069C43.6478 63.9199 45.0621 57.3034 49.2805 50.7112C53.499 44.1191 58.9123 40.0662 61.3751 41.6532Z" fill="#5D39AB"/>
<path d="M61.1314 42.0439C63.521 43.5821 62.1555 50.0033 58.059 56.3757C53.9624 62.7481 48.7198 66.7033 46.3302 65.1652C43.9405 63.627 45.306 57.2058 49.4026 50.8334C53.4747 44.461 58.7417 40.5057 61.1314 42.0439Z" fill="#5E39AC"/>
<path d="M60.8871 42.41C63.2036 43.8994 61.8625 50.1009 57.9123 56.2779C53.962 62.455 48.8901 66.2638 46.5736 64.7744C44.2571 63.2851 45.5983 57.0836 49.5485 50.9066C53.4987 44.7295 58.5707 40.9207 60.8871 42.41Z" fill="#5F3AAC"/>
<path d="M60.6434 42.7763C62.8868 44.2168 61.5944 50.2229 57.7661 56.1802C53.9378 62.162 49.0366 65.8243 46.7932 64.4082C44.5499 62.9677 45.8422 56.9615 49.6705 51.0042C53.4989 45.0225 58.4001 41.3602 60.6434 42.7763Z" fill="#603AAC"/>
<path d="M60.4231 43.1669C62.5689 44.5586 61.3497 50.345 57.6433 56.107C53.9613 61.869 49.2064 65.4336 47.0606 64.042C44.9147 62.6503 46.134 56.8639 49.8404 51.1019C53.5224 45.3399 58.2773 41.7752 60.4231 43.1669Z" fill="#613AAD"/>
<path d="M60.1798 43.5332C62.2525 44.876 61.0577 50.4671 57.4976 56.0094C53.9375 61.5761 49.3776 64.9942 47.2806 63.6514C45.2079 62.3085 46.4028 56.7174 49.9629 51.1752C53.5229 45.6329 58.0828 42.1903 60.1798 43.5332Z" fill="#623BAD"/>
<path d="M59.9352 43.8994C61.9347 45.1934 60.7886 50.5648 57.3504 55.9117C53.9367 61.2587 49.5231 64.5547 47.5236 63.2851C45.5241 61.9911 46.6702 56.6198 50.1083 51.2728C53.5221 45.9259 57.9357 42.6298 59.9352 43.8994Z" fill="#633BAE"/>
<path d="M57.2262 55.8201C60.5166 50.6764 61.6212 45.5044 59.6933 44.268C57.7655 43.0316 53.5353 46.1991 50.2449 51.3428C46.9545 56.4865 45.8499 61.6585 47.7778 62.8949C49.7056 64.1313 53.9358 60.9638 57.2262 55.8201Z" fill="#643BAE"/>
<path d="M59.4481 44.6563C61.3013 45.8526 60.2284 50.8089 57.0585 55.7408C53.8885 60.6727 49.8408 63.7246 47.9876 62.5527C46.1344 61.3563 47.2073 56.4 50.3528 51.4681C53.5228 46.5363 57.5706 43.4843 59.4238 44.6563H59.4481Z" fill="#653BAE"/>
<path d="M59.2289 45.0224C61.0089 46.1699 59.9848 50.9309 56.9611 55.6674C53.9375 60.404 50.036 63.3338 48.256 62.1863C46.4759 61.0388 47.5001 56.2778 50.5237 51.5413C53.5473 46.8047 57.4488 43.8749 59.2289 45.0224Z" fill="#663CAF"/>
<path d="M58.9855 45.389C60.6681 46.4877 59.6927 51.029 56.8153 55.5702C53.9136 60.1114 50.1828 62.8948 48.5003 61.7961C46.8178 60.6974 47.7932 56.1562 50.6705 51.6149C53.5479 47.0737 57.303 44.2903 58.9855 45.389Z" fill="#673CAF"/>
<path d="M58.7418 45.7549C60.3512 46.7803 59.4246 51.1506 56.6692 55.4721C53.9138 59.7936 50.3537 62.4549 48.7199 61.4295C47.1106 60.404 48.0372 56.0337 50.7926 51.7122C53.548 47.3907 57.1081 44.7294 58.7418 45.7549Z" fill="#683CB0"/>
<path d="M58.4972 46.1459C60.0334 47.1225 59.1555 51.2731 56.522 55.3993C53.8885 59.5255 50.4991 62.0647 48.9629 61.0636C47.4267 60.087 48.3046 55.9364 50.9381 51.8102C53.5716 47.6841 56.961 45.1449 58.4972 46.1459Z" fill="#693DB0"/>
<path d="M58.2539 46.5117C59.717 47.4395 58.8635 51.3948 56.3763 55.3012C53.8647 59.2077 50.646 61.6248 49.183 60.697C47.7199 59.7692 48.5734 55.814 51.0606 51.9075C53.5721 48.0011 56.7665 45.584 58.2539 46.5117Z" fill="#6A3DB1"/>
<path d="M58.0346 46.8783C59.4245 47.7573 58.6198 51.4928 56.2546 55.204C53.8893 58.9151 50.8413 61.1857 49.4514 60.3068C48.0615 59.4278 48.8662 55.6923 51.2314 51.9811C53.5967 48.27 56.6447 45.9994 58.0346 46.8783Z" fill="#6B3DB1"/>
<path d="M57.7909 47.269C59.1077 48.0991 58.3517 51.6394 56.1084 55.1307C53.8651 58.6221 50.9877 60.7951 49.671 59.9406C48.3542 59.1104 49.1101 55.5702 51.3535 52.0788C53.5968 48.5874 56.4742 46.4145 57.7909 47.269Z" fill="#6C3DB1"/>
<path d="M57.5467 47.6352C58.7903 48.4165 58.0588 51.737 55.9617 55.0331C53.8647 58.3291 51.158 60.3556 49.9145 59.5743C48.6709 58.793 49.4024 55.4725 51.4994 52.1765C53.5965 48.8804 56.3031 46.8539 57.5467 47.6352Z" fill="#6D3EB2"/>
<path d="M57.303 48.0013C58.449 48.7338 57.7907 51.859 55.8155 54.9353C53.8404 58.036 51.3045 59.916 50.134 59.1835C48.9636 58.4511 49.6463 55.3259 51.6215 52.2496C53.5966 49.1489 56.1325 47.2689 57.303 48.0013Z" fill="#6E3EB2"/>
<path d="M57.0826 48.3677C58.1555 49.0513 57.5459 51.9567 55.6927 54.8377C53.8395 57.7187 51.4743 59.5011 50.4014 58.8174C49.3285 58.1338 49.9381 55.2284 51.7913 52.3474C53.6445 49.4664 56.0097 47.6841 57.0826 48.3677Z" fill="#6F3EB3"/>
<path d="M56.8394 48.7584C57.8391 49.3932 57.2539 52.1033 55.547 54.7645C53.8401 57.4258 51.6456 59.086 50.6214 58.4512C49.6217 57.8164 50.2069 55.1063 51.9138 52.4451C53.6207 49.7838 55.8152 48.1236 56.8394 48.7584Z" fill="#703FB3"/>
<path d="M56.5947 49.1245C57.5213 49.7105 56.9849 52.2008 55.3999 54.6668C53.8149 57.1327 51.791 58.6709 50.8644 58.0605C49.9378 57.4745 50.4743 54.9842 52.0593 52.5182C53.6442 50.0523 55.6681 48.5141 56.5947 49.1245Z" fill="#713FB3"/>
<path d="M56.351 49.4907C57.2044 50.0278 56.7168 52.3229 55.2537 54.5691C53.7907 56.8153 51.9375 58.2314 51.084 57.6942C50.2306 57.1571 50.7182 54.862 52.1813 52.6158C53.62 50.3452 55.4976 48.9535 56.351 49.4907Z" fill="#723FB4"/>
<path d="M56.1068 49.857C56.8871 50.3453 56.4238 52.4206 55.1071 54.4714C53.7903 56.5223 52.1078 57.7919 51.3275 57.3036C50.5472 56.8153 51.0105 54.74 52.3273 52.6891C53.644 50.6382 55.3265 49.3686 56.1068 49.857Z" fill="#733FB4"/>
<path d="M55.8874 50.2476C56.5702 50.6871 56.18 52.5671 54.9852 54.3982C53.7904 56.2538 52.2785 57.4013 51.5714 56.9374C50.8886 56.4979 51.2788 54.618 52.4736 52.7868C53.6684 50.9557 55.1803 49.7837 55.8874 50.2476Z" fill="#7440B5"/>
<path d="M55.6446 50.6138C56.2542 51.0045 55.9129 52.6647 54.8644 54.3005C53.8158 55.9364 52.4503 56.9618 51.8407 56.5712C51.2311 56.1805 51.5725 54.5203 52.621 52.8845C53.6695 51.2486 55.035 50.2232 55.6446 50.6138Z" fill="#7540B5"/>
<path d="M55.3994 50.98C55.9359 51.3218 55.6189 52.7867 54.7167 54.2272C53.7901 55.6677 52.6196 56.5466 52.0588 56.2048C51.5223 55.863 51.8393 54.3981 52.7415 52.9576C53.6681 51.5171 54.8386 50.6381 55.3994 50.98Z" fill="#7640B6"/>
<path d="M55.1567 51.3706C55.62 51.6635 55.3518 52.9087 54.5715 54.1539C53.7912 55.3991 52.7671 56.156 52.3038 55.863C51.8405 55.57 52.1087 54.3248 52.889 53.0796C53.6693 51.8344 54.6934 51.0776 55.1567 51.3706Z" fill="#7741B6"/>
<path d="M54.9375 51.7367C55.3276 51.9809 55.1081 53.0307 54.4498 54.0562C53.7914 55.0816 52.9379 55.7164 52.5722 55.4722C52.182 55.2281 52.4015 54.2026 53.0599 53.1528C53.7182 52.1029 54.5717 51.4925 54.9618 51.7367H54.9375Z" fill="#7841B6"/>
<path d="M54.6942 52.1032C55.0112 52.2985 54.8161 53.1286 54.304 53.9587C53.7676 54.7889 53.1092 55.3016 52.7922 55.0818C52.4752 54.8865 52.6703 54.0564 53.1824 53.2263C53.6944 52.3962 54.3772 51.8834 54.6942 52.1032Z" fill="#7941B7"/>
<path d="M54.4485 52.4693C54.668 52.6158 54.546 53.2506 54.1559 53.861C53.7657 54.4714 53.2537 54.862 53.0098 54.7155C52.766 54.569 52.9123 53.9586 53.3024 53.3238C53.6926 52.7135 54.2047 52.3228 54.4241 52.4693H54.4485Z" fill="#7A41B7"/>
<path d="M54.2048 52.8598C54.3511 52.9575 54.2779 53.3726 54.0097 53.7876C53.7415 54.2027 53.4001 54.4468 53.2538 54.3492C53.1075 54.2515 53.1806 53.8364 53.4488 53.4214C53.7171 53.0063 54.0584 52.7622 54.2048 52.8598Z" fill="#7B42B8"/>
<path d="M53.9615 53.2263C53.9615 53.2263 53.9859 53.4948 53.864 53.6902C53.742 53.8855 53.5714 54.032 53.4738 53.9831C53.4007 53.9343 53.4494 53.7146 53.5714 53.5192C53.6933 53.3239 53.864 53.1774 53.9371 53.2263H53.9615Z" fill="#7C42B8"/>
</g>
<path d="M27.7737 92.2662L26.3594 89.8735C26.3594 89.8735 27.4079 78.5448 49.6951 52.4204C71.9822 26.2961 84.028 22.292 84.028 22.292L85.9543 23.9278L27.7737 92.2662Z" fill="url(#paint1_radial_521_8660)"/>
<path d="M87.028 18.7764C37.8938 47.4155 24.4338 91.7292 24.1655 92.4128C5.4141 59.3546 20.0934 25.222 20.0934 25.222C20.0934 25.222 51.4758 5.39679 87.028 18.7764Z" fill="url(#paint2_radial_521_8660)"/>
<path d="M163.496 106.329L122.458 154.428C122.458 154.428 64.399 141.829 34.3089 105.67C34.2357 105.597 34.1869 105.548 34.1869 105.548C31.1877 101.91 28.6517 98.2236 26.5547 94.5125C26.8473 93.8044 43.6724 51.6636 89.4171 20.8516C93.4162 22.3409 97.4395 24.2697 101.487 26.6868C103.219 27.7123 104.901 28.7865 106.559 29.934H106.584C143.77 55.4236 163.472 106.354 163.472 106.354L163.496 106.329Z" fill="url(#paint3_radial_521_8660)"/>
<path style="mix-blend-mode:screen" opacity="0.5" d="M52.7676 53.4707C52.7676 53.4707 99.1463 90.0936 140.014 127.84L52.7676 53.4707Z" fill="url(#paint4_linear_521_8660)"/>
<mask id="mask1_521_8660" style="mask-type:luminance" maskUnits="userSpaceOnUse" x="122" y="106" width="42" height="49">
<path d="M163.496 106.33C165.13 107.746 161.399 123.176 150.085 136.458C138.77 149.74 124.115 155.844 122.457 154.428C120.824 153.012 128.675 141.121 139.989 127.84C151.328 114.558 161.838 104.938 163.496 106.354V106.33Z" fill="white"/>
</mask>
<g mask="url(#mask1_521_8660)">
<path d="M165.155 104.938H120.824V155.844H165.155V104.938Z" fill="#270579"/>
<path d="M167.983 101.642C175.079 106.11 171.714 124.25 160.473 142.171C149.232 160.092 134.333 170.981 127.237 166.513C120.141 162.045 123.506 143.905 134.748 125.984C145.989 108.063 160.887 97.1739 167.983 101.642Z" fill="#270579"/>
<path d="M167.788 101.935C174.811 106.354 171.495 124.324 160.351 142.073C149.208 159.799 134.48 170.591 127.433 166.171C120.41 161.752 123.726 143.783 134.87 126.033C146.013 108.307 160.741 97.5156 167.788 101.935Z" fill="#27067A"/>
<path d="M167.593 102.252C174.567 106.647 171.25 124.446 160.229 142C149.207 159.555 134.601 170.249 127.627 165.854C120.653 161.459 123.969 143.661 134.991 126.106C146.037 108.551 160.619 97.8575 167.593 102.252Z" fill="#27077B"/>
<path d="M167.398 102.569C174.299 106.915 171.031 124.543 160.107 141.927C149.183 159.311 134.723 169.907 127.822 165.561C120.922 161.215 124.189 143.587 135.113 126.203C146.037 108.82 160.497 98.2235 167.398 102.569Z" fill="#27087B"/>
<path d="M167.202 102.887C174.03 107.184 170.787 124.641 159.984 141.854C149.158 159.067 134.869 169.541 128.041 165.244C121.214 160.947 124.457 143.49 135.259 126.277C146.085 109.064 160.375 98.5901 167.202 102.887Z" fill="#27097C"/>
<path d="M167.007 103.204C173.762 107.453 170.567 124.739 159.863 141.781C149.158 158.822 134.991 169.199 128.236 164.951C121.482 160.702 124.676 143.416 135.381 126.375C146.086 109.333 160.253 98.9562 167.007 103.204Z" fill="#270A7D"/>
<path d="M166.789 103.497C173.47 107.721 170.3 124.812 159.718 141.683C149.111 158.554 135.09 168.833 128.408 164.609C121.727 160.385 124.897 143.294 135.48 126.423C146.087 109.552 160.108 99.2736 166.789 103.497Z" fill="#270B7E"/>
<path d="M166.593 103.815C173.226 107.99 170.08 124.91 159.571 141.61C149.085 158.31 135.211 168.466 128.578 164.291C121.946 160.116 125.091 143.197 135.601 126.497C146.086 109.796 159.961 99.6397 166.593 103.815Z" fill="#270C7E"/>
<path d="M166.398 104.132C172.958 108.259 169.837 125.008 159.449 141.537C149.061 158.066 135.333 168.125 128.774 163.999C122.214 159.873 125.335 143.124 135.723 126.595C146.111 110.065 159.839 100.006 166.398 104.132Z" fill="#270D7F"/>
<path d="M166.204 104.449C172.69 108.527 169.617 125.105 159.327 141.463C149.037 157.821 135.455 167.783 128.969 163.681C122.483 159.604 125.555 143.026 135.845 126.667C146.135 110.309 159.717 100.348 166.204 104.449Z" fill="#270E80"/>
<path d="M166.009 104.743C172.422 108.795 169.374 125.178 159.206 141.365C149.037 157.553 135.577 167.392 129.164 163.364C122.751 159.311 125.799 142.928 135.967 126.741C146.136 110.553 159.596 100.714 166.009 104.743Z" fill="#270F81"/>
<path d="M165.813 105.06C172.153 109.064 169.154 125.276 159.083 141.292C149.012 157.309 135.723 167.05 129.359 163.046C122.994 159.042 126.018 142.83 136.089 126.814C146.159 110.798 159.449 101.056 165.813 105.06Z" fill="#271082"/>
<path d="M165.617 105.377C171.908 109.333 168.909 125.373 158.96 141.219C149.012 157.064 135.844 166.684 129.577 162.729C123.286 158.773 126.286 142.733 136.234 126.887C146.183 111.042 159.351 101.422 165.617 105.377Z" fill="#271182"/>
<path d="M165.423 105.695C171.641 109.601 168.69 125.471 158.839 141.146C148.988 156.821 135.966 166.343 129.773 162.436C123.555 158.53 126.505 142.66 136.357 126.985C146.208 111.31 159.229 101.789 165.423 105.695Z" fill="#271283"/>
<path d="M165.228 106.012C171.373 109.894 168.471 125.593 158.717 141.072C148.964 156.552 136.113 166 129.968 162.118C123.823 158.236 126.725 142.537 136.479 127.058C146.233 111.579 159.083 102.13 165.228 106.012Z" fill="#271384"/>
<path d="M165.033 106.305C171.105 110.138 168.227 125.666 158.595 140.975C148.964 156.308 136.235 165.61 130.164 161.801C124.092 157.992 126.969 142.44 136.601 127.131C146.233 111.799 158.961 102.496 165.033 106.305Z" fill="#271485"/>
<path d="M164.838 106.623C170.837 110.407 168.008 125.764 158.474 140.902C148.964 156.063 136.357 165.268 130.359 161.484C124.36 157.699 127.189 142.342 136.723 127.205C146.233 112.043 158.84 102.838 164.838 106.623Z" fill="#271585"/>
<path d="M164.642 106.94C170.592 110.676 167.764 125.862 158.351 140.828C148.939 155.819 136.503 164.926 130.553 161.166C124.604 157.431 127.432 142.245 136.844 127.278C146.257 112.287 158.693 103.18 164.642 106.94Z" fill="#271686"/>
<path d="M164.448 107.258C170.324 110.944 167.544 125.96 158.23 140.755C148.915 155.551 136.625 164.56 130.749 160.874C124.872 157.187 127.652 142.171 136.967 127.376C146.281 112.58 158.571 103.571 164.448 107.258Z" fill="#271887"/>
<path d="M164.253 107.575C170.056 111.237 167.301 126.057 158.108 140.682C148.915 155.306 136.747 164.218 130.944 160.556C125.141 156.893 127.896 142.073 137.089 127.449C146.282 112.824 158.449 103.912 164.253 107.575Z" fill="#271988"/>
<path d="M164.058 107.868C169.788 111.481 167.082 126.13 157.986 140.584C148.891 155.038 136.894 163.852 131.139 160.239C125.409 156.625 128.116 141.976 137.211 127.522C146.306 113.068 158.303 104.254 164.058 107.868Z" fill="#271A89"/>
<path d="M163.862 108.185C169.519 111.75 166.837 126.228 157.864 140.511C148.89 154.794 137.015 163.486 131.358 159.921C125.701 156.356 128.383 141.878 137.357 127.595C146.33 113.312 158.205 104.62 163.862 108.185Z" fill="#271B89"/>
<path d="M163.667 108.503C169.275 112.018 166.617 126.326 157.741 140.438C148.865 154.55 137.137 163.144 131.553 159.604C125.944 156.088 128.602 141.781 137.478 127.669C146.354 113.557 158.083 104.962 163.667 108.503Z" fill="#271C8A"/>
<path d="M163.472 108.82C169.007 112.311 166.373 126.423 157.62 140.364C148.866 154.305 137.283 162.802 131.748 159.311C126.213 155.819 128.846 141.707 137.6 127.766C146.354 113.825 157.936 105.328 163.472 108.82Z" fill="#271D8B"/>
<path d="M163.277 109.113C168.739 112.556 166.154 126.497 157.498 140.267C148.841 154.037 137.405 162.412 131.943 158.969C126.481 155.527 129.066 141.585 137.722 127.815C146.379 114.045 157.815 105.671 163.277 109.113Z" fill="#271E8C"/>
<path d="M163.082 109.43C168.471 112.824 165.911 126.594 157.376 140.218C148.842 153.817 137.527 162.094 132.139 158.7C126.75 155.307 129.31 141.536 137.844 127.913C146.379 114.313 157.693 106.037 163.082 109.43Z" fill="#271F8C"/>
<path d="M162.887 109.748C168.203 113.093 165.692 126.716 157.255 140.145C148.818 153.573 137.674 161.728 132.334 158.383C127.018 155.038 129.53 141.414 137.967 127.986C146.404 114.557 157.547 106.403 162.887 109.748Z" fill="#27208D"/>
<path d="M162.692 110.065C167.959 113.385 165.447 126.814 157.132 140.071C148.793 153.329 137.795 161.386 132.528 158.09C127.261 154.794 129.773 141.341 138.088 128.083C146.427 114.826 157.425 106.769 162.692 110.065Z" fill="#27218E"/>
<path d="M162.497 110.382C167.691 113.654 165.228 126.911 157.01 139.998C148.793 153.085 137.918 161.044 132.724 157.772C127.53 154.501 129.993 141.243 138.21 128.157C146.428 115.07 157.303 107.111 162.497 110.382Z" fill="#27228F"/>
<path d="M162.301 110.676C167.422 113.898 164.983 126.985 156.888 139.901C148.768 152.816 138.039 160.654 132.942 157.431C127.822 154.208 130.26 141.122 138.356 128.206C146.476 115.29 157.205 107.453 162.301 110.676Z" fill="#272390"/>
<path d="M162.083 110.993C167.13 114.167 164.741 127.083 156.743 139.827C148.745 152.572 138.162 160.312 133.114 157.138C128.067 153.964 130.456 141.048 138.455 128.303C146.453 115.559 157.035 107.819 162.083 110.993Z" fill="#272490"/>
<path d="M161.888 111.31C166.862 114.46 164.497 127.18 156.621 139.754C148.72 152.328 138.284 159.97 133.31 156.82C128.335 153.671 130.701 140.951 138.577 128.377C146.477 115.803 156.914 108.161 161.888 111.31Z" fill="#272591"/>
<path d="M161.692 111.628C166.618 114.729 164.277 127.278 156.498 139.681C148.72 152.084 138.405 159.604 133.504 156.528C128.579 153.427 130.919 140.877 138.698 128.474C146.477 116.071 156.791 108.552 161.692 111.628Z" fill="#272692"/>
<path d="M161.498 111.945C166.35 114.997 164.058 127.376 156.377 139.608C148.696 151.84 138.552 159.262 133.7 156.21C128.847 153.158 131.139 140.78 138.82 128.548C146.501 116.316 156.645 108.893 161.498 111.945Z" fill="#272793"/>
<path d="M161.303 112.238C166.082 115.241 163.814 127.449 156.255 139.51C148.696 151.571 138.674 158.896 133.895 155.868C129.116 152.865 131.383 140.657 138.942 128.596C146.501 116.535 156.523 109.21 161.303 112.238Z" fill="#272893"/>
<path d="M161.106 112.555C165.812 115.51 163.593 127.546 156.132 139.437C148.67 151.302 138.794 158.529 134.088 155.575C129.382 152.621 131.601 140.584 139.063 128.694C146.524 116.804 156.4 109.601 161.106 112.555Z" fill="#272994"/>
<path d="M160.911 112.873C165.544 115.803 163.35 127.644 156.01 139.363C148.67 151.083 138.941 158.188 134.284 155.258C129.651 152.328 131.845 140.487 139.185 128.767C146.524 117.048 156.254 109.943 160.911 112.873Z" fill="#272A95"/>
<path d="M160.717 113.19C165.277 116.071 163.131 127.742 155.865 139.29C148.623 150.814 139.04 157.846 134.455 154.965C129.871 152.084 132.041 140.413 139.308 128.865C146.55 117.341 156.133 110.309 160.717 113.19Z" fill="#272A95"/>
<path d="M160.571 113.435C165.082 116.291 162.936 127.815 155.792 139.217C148.623 150.619 139.162 157.553 134.651 154.697C130.14 151.84 132.285 140.316 139.43 128.914C146.599 117.512 156.06 110.578 160.571 113.435Z" fill="#282A95"/>
<path d="M160.425 113.679C164.887 116.486 162.766 127.888 155.695 139.168C148.623 150.424 139.26 157.284 134.797 154.476C130.335 151.669 132.456 140.267 139.528 128.987C146.599 117.731 155.963 110.871 160.425 113.679Z" fill="#292B96"/>
<path d="M160.254 113.923C164.667 116.706 162.57 127.961 155.572 139.095C148.574 150.228 139.332 156.991 134.918 154.208C130.505 151.424 132.602 140.169 139.6 129.036C146.598 117.902 155.84 111.139 160.254 113.923Z" fill="#2A2B96"/>
<path d="M160.107 114.167C164.471 116.901 162.399 128.035 155.498 139.021C148.597 150.008 139.453 156.698 135.113 153.939C130.748 151.205 132.821 140.071 139.721 129.084C146.622 118.098 155.766 111.408 160.107 114.167Z" fill="#2B2B97"/>
<path d="M159.961 114.411C164.253 117.121 162.229 128.108 155.402 138.973C148.574 149.838 139.576 156.43 135.26 153.72C130.969 151.009 132.993 140.023 139.82 129.158C146.648 118.293 155.645 111.701 159.961 114.411Z" fill="#2C2B97"/>
<path d="M159.79 114.655C164.033 117.341 162.033 128.181 155.303 138.899C148.573 149.618 139.673 156.137 135.406 153.451C131.163 150.765 133.163 139.925 139.893 129.207C146.623 118.488 155.523 111.969 159.79 114.655Z" fill="#2D2C98"/>
<path d="M159.643 114.899C163.837 117.536 161.862 128.255 155.205 138.851C148.548 149.423 139.77 155.868 135.576 153.231C131.382 150.595 133.381 139.876 140.014 129.28C146.671 118.708 155.449 112.263 159.643 114.899Z" fill="#2E2C98"/>
<path d="M159.497 115.143C163.642 117.756 161.667 128.328 155.108 138.777C148.548 149.227 139.868 155.575 135.722 152.963C131.577 150.35 133.552 139.778 140.111 129.329C146.671 118.879 155.352 112.531 159.497 115.143Z" fill="#2F2C98"/>
<path d="M159.327 115.388C163.424 117.951 161.473 128.401 155.011 138.729C148.525 149.032 139.966 155.307 135.87 152.743C131.773 150.18 133.724 139.73 140.186 129.402C146.672 119.099 155.231 112.824 159.327 115.388Z" fill="#302D99"/>
<path d="M159.181 115.632C163.205 118.171 161.303 128.474 154.914 138.655C148.525 148.837 140.064 155.014 136.041 152.474C132.017 149.935 133.919 139.632 140.308 129.451C146.697 119.27 155.158 113.093 159.181 115.632Z" fill="#312D99"/>
<path d="M159.035 115.876C163.01 118.391 161.132 128.548 154.817 138.582C148.501 148.617 140.162 154.721 136.187 152.23C132.213 149.716 134.09 139.559 140.406 129.524C146.721 119.49 155.061 113.386 159.035 115.876Z" fill="#322D9A"/>
<path d="M158.864 116.12C162.79 118.586 160.936 128.621 154.719 138.533C148.501 148.446 140.259 154.452 136.333 151.986C132.407 149.52 134.26 139.486 140.478 129.573C146.696 119.66 154.938 113.654 158.864 116.12Z" fill="#332D9A"/>
<path d="M158.717 116.364C162.594 118.806 160.765 128.694 154.62 138.46C148.475 148.226 140.38 154.159 136.503 151.718C132.626 149.276 134.454 139.388 140.599 129.622C146.744 119.856 154.84 113.923 158.717 116.364Z" fill="#342E9A"/>
<path d="M158.571 116.633C162.399 119.05 160.57 128.792 154.523 138.436C148.476 148.08 140.478 153.915 136.649 151.522C132.821 149.13 134.65 139.364 140.697 129.72C146.744 120.076 154.742 114.24 158.571 116.633Z" fill="#352E9B"/>
<path d="M158.401 116.877C162.156 119.245 160.376 128.865 154.427 138.362C148.477 147.86 140.576 153.646 136.797 151.253C133.017 148.861 134.822 139.266 140.771 129.768C146.721 120.271 154.622 114.484 158.401 116.877Z" fill="#362E9B"/>
<path d="M158.253 117.121C161.959 119.465 160.204 128.938 154.327 138.314C148.451 147.665 140.672 153.378 136.966 151.034C133.259 148.69 135.015 139.217 140.892 129.841C146.768 120.49 154.547 114.777 158.253 117.121Z" fill="#372F9C"/>
<path d="M158.107 117.365C161.765 119.66 160.033 129.011 154.23 138.24C148.426 147.469 140.77 153.085 137.112 150.765C133.455 148.446 135.186 139.119 140.989 129.89C146.793 120.661 154.449 115.046 158.107 117.365Z" fill="#382F9C"/>
<path d="M157.938 117.609C161.546 119.88 159.84 129.085 154.134 138.167C148.428 147.25 140.869 152.792 137.26 150.521C133.651 148.251 135.358 139.046 141.064 129.964C146.77 120.881 154.329 115.339 157.938 117.609Z" fill="#392F9D"/>
<path d="M157.791 117.854C161.352 120.1 159.669 129.158 154.036 138.118C148.404 147.079 140.966 152.523 137.431 150.277C133.895 148.031 135.553 138.973 141.186 130.012C146.819 121.052 154.256 115.607 157.791 117.854Z" fill="#3A2F9D"/>
<path d="M157.645 118.098C161.132 120.295 159.474 129.231 153.939 138.045C148.404 146.859 141.064 152.23 137.577 150.033C134.09 147.836 135.748 138.9 141.283 130.086C146.819 121.272 154.158 115.9 157.645 118.098Z" fill="#3B309D"/>
<path d="M157.474 118.342C160.912 120.515 159.278 129.304 153.841 137.996C148.379 146.688 141.161 151.962 137.723 149.789C134.285 147.616 135.918 138.826 141.356 130.134C146.818 121.443 154.036 116.169 157.474 118.342Z" fill="#3C309E"/>
<path d="M157.327 118.586C160.716 120.71 159.107 129.378 153.742 137.923C148.378 146.468 141.282 151.669 137.893 149.545C134.503 147.421 136.113 138.753 141.477 130.208C146.842 121.663 153.937 116.462 157.327 118.586Z" fill="#3D309E"/>
<path d="M157.181 118.83C160.521 120.93 158.936 129.451 153.645 137.874C148.354 146.297 141.38 151.4 138.039 149.301C134.699 147.201 136.283 138.68 141.575 130.257C146.866 121.833 153.84 116.731 157.181 118.83Z" fill="#3E319F"/>
<path d="M157.011 119.074C160.303 121.15 158.743 129.524 153.549 137.801C148.355 146.078 141.479 151.107 138.187 149.032C134.895 146.957 136.455 138.582 141.649 130.305C146.843 122.029 153.719 116.999 157.011 119.074Z" fill="#3F319F"/>
<path d="M156.863 119.319C160.082 121.345 158.57 129.598 153.449 137.728C148.329 145.858 141.574 150.814 138.356 148.788C135.137 146.761 136.649 138.509 141.769 130.379C146.89 122.249 153.645 117.292 156.863 119.319Z" fill="#40319F"/>
<path d="M156.717 119.563C159.887 121.565 158.375 129.671 153.352 137.679C148.329 145.687 141.672 150.546 138.502 148.544C135.332 146.542 136.844 138.436 141.867 130.428C146.89 122.419 153.547 117.561 156.717 119.563Z" fill="#4131A0"/>
<path d="M156.548 119.807C159.669 121.76 158.181 129.744 153.256 137.605C148.306 145.467 141.771 150.252 138.65 148.299C135.528 146.346 137.016 138.362 141.942 130.5C146.867 122.639 153.426 117.853 156.548 119.807Z" fill="#4232A0"/>
<path d="M156.401 120.051C159.473 121.98 158.01 129.817 153.157 137.557C148.305 145.297 141.868 149.984 138.82 148.055C135.747 146.127 137.21 138.289 142.063 130.55C146.915 122.81 153.353 118.122 156.401 120.051Z" fill="#4332A1"/>
<path d="M156.254 120.295C159.278 122.199 157.839 129.89 153.06 137.483C148.281 145.076 141.965 149.691 138.966 147.811C135.942 145.907 137.381 138.216 142.16 130.623C146.94 123.029 153.255 118.415 156.254 120.295Z" fill="#4432A1"/>
<path d="M156.084 120.539C159.035 122.395 157.645 129.964 152.963 137.435C148.281 144.906 142.088 149.447 139.113 147.567C136.162 145.711 137.552 138.143 142.234 130.672C146.916 123.2 153.109 118.659 156.084 120.539Z" fill="#4533A2"/>
<path d="M155.937 120.808C158.839 122.639 157.473 130.061 152.865 137.386C148.256 144.711 142.184 149.179 139.283 147.347C136.381 145.516 137.746 138.094 142.355 130.769C146.964 123.445 153.035 118.977 155.937 120.808Z" fill="#4633A2"/>
<path d="M155.791 121.052C158.644 122.859 157.278 130.134 152.767 137.313C148.256 144.491 142.282 148.885 139.429 147.079C136.576 145.272 137.942 137.996 142.453 130.818C146.964 123.616 152.938 119.245 155.791 121.052Z" fill="#4733A2"/>
<path d="M155.621 121.296C158.426 123.054 157.084 130.208 152.671 137.264C148.233 144.32 142.381 148.617 139.577 146.859C136.772 145.101 138.114 137.948 142.527 130.892C146.965 123.836 152.817 119.538 155.621 121.296Z" fill="#4833A3"/>
<path d="M155.474 121.54C158.205 123.274 156.913 130.281 152.573 137.191C148.232 144.1 142.477 148.324 139.722 146.59C136.991 144.857 138.283 137.85 142.624 130.94C146.964 124.031 152.719 119.807 155.474 121.54Z" fill="#4934A3"/>
<path d="M155.327 121.784C158.009 123.469 156.741 130.354 152.474 137.142C148.207 143.929 142.574 148.055 139.892 146.346C137.21 144.662 138.478 137.776 142.745 130.989C147.012 124.202 152.645 120.075 155.327 121.784Z" fill="#4A34A4"/>
<path d="M155.158 122.029C157.791 123.689 156.548 130.428 152.378 137.069C148.208 143.71 142.673 147.762 140.04 146.102C137.406 144.442 138.65 137.703 142.819 131.062C146.989 124.421 152.524 120.369 155.158 122.029Z" fill="#4B34A4"/>
<path d="M155.012 122.273C157.596 123.909 156.377 130.501 152.281 137.02C148.184 143.539 142.771 147.494 140.186 145.858C137.601 144.222 138.821 137.63 142.917 131.111C147.014 124.592 152.427 120.637 155.012 122.273Z" fill="#4C35A4"/>
<path d="M154.865 122.517C157.401 124.104 156.206 130.574 152.182 136.946C148.183 143.319 142.868 147.201 140.356 145.614C137.82 144.027 139.015 137.556 143.038 131.184C147.037 124.812 152.353 120.93 154.865 122.517Z" fill="#4D35A5"/>
<path d="M154.694 122.761C157.157 124.324 155.986 130.647 152.085 136.873C148.159 143.124 142.99 146.908 140.503 145.345C138.04 143.783 139.21 137.459 143.112 131.233C147.037 124.983 152.207 121.199 154.694 122.761Z" fill="#4E35A5"/>
<path d="M154.547 123.005C156.961 124.519 155.815 130.72 151.987 136.824C148.158 142.928 143.087 146.639 140.648 145.125C138.21 143.612 139.38 137.41 143.208 131.306C147.037 125.202 152.109 121.491 154.547 123.005Z" fill="#4F35A6"/>
<path d="M154.401 123.249C156.766 124.738 155.645 130.793 151.889 136.751C148.134 142.708 143.184 146.346 140.819 144.857C138.454 143.367 139.575 137.312 143.331 131.355C147.086 125.398 152.036 121.76 154.401 123.249Z" fill="#5036A6"/>
<path d="M154.232 123.493C156.548 124.958 155.451 130.867 151.793 136.702C148.135 142.537 143.283 146.078 140.967 144.637C138.65 143.172 139.747 137.264 143.405 131.428C147.063 125.593 151.915 122.053 154.232 123.493Z" fill="#5236A7"/>
<path d="M154.083 123.738C156.351 125.154 155.278 130.94 151.694 136.629C148.109 142.318 143.379 145.785 141.111 144.368C138.843 142.952 139.916 137.166 143.501 131.477C147.085 125.788 151.816 122.321 154.083 123.738Z" fill="#5336A7"/>
<path d="M153.937 123.982C156.132 125.373 155.108 131.013 151.596 136.58C148.11 142.147 143.477 145.516 141.282 144.124C139.087 142.733 140.112 137.093 143.623 131.526C147.11 125.959 151.743 122.59 153.937 123.982Z" fill="#5437A7"/>
<path d="M153.768 124.226C155.914 125.593 154.89 131.087 151.5 136.507C148.111 141.927 143.575 145.223 141.429 143.88C139.284 142.513 140.308 137.02 143.697 131.599C147.111 126.179 151.622 122.883 153.768 124.226Z" fill="#5537A8"/>
<path d="M153.622 124.47C155.719 125.789 154.719 131.16 151.403 136.434C148.087 141.732 143.673 144.955 141.576 143.612C139.479 142.269 140.479 136.922 143.795 131.648C147.111 126.35 151.525 123.127 153.622 124.47Z" fill="#5637A8"/>
<path d="M153.475 124.739C155.523 126.033 154.548 131.258 151.304 136.409C148.061 141.561 143.794 144.711 141.746 143.417C139.698 142.123 140.673 136.898 143.916 131.746C147.159 126.594 151.426 123.445 153.475 124.739Z" fill="#5737A9"/>
<path d="M153.303 124.983C155.303 126.228 154.352 131.331 151.206 136.336C148.061 141.366 143.891 144.418 141.892 143.148C139.892 141.903 140.843 136.8 143.989 131.795C147.134 126.765 151.304 123.713 153.303 124.983Z" fill="#5838A9"/>
<path d="M153.158 125.227C155.084 126.448 154.182 131.404 151.11 136.287C148.037 141.17 143.99 144.149 142.039 142.928C140.113 141.707 141.015 136.751 144.087 131.868C147.16 126.985 151.207 124.006 153.158 125.227Z" fill="#5938A9"/>
<path d="M153.011 125.471C154.889 126.668 154.011 131.478 151.012 136.214C148.037 140.951 144.086 143.856 142.209 142.66C140.331 141.463 141.209 136.654 144.208 131.917C147.183 127.18 151.134 124.275 153.011 125.471Z" fill="#5A38AA"/>
<path d="M152.842 125.715C154.67 126.863 153.793 131.55 150.915 136.165C148.014 140.779 144.185 143.587 142.356 142.44C140.528 141.292 141.405 136.604 144.283 131.99C147.184 127.375 151.013 124.568 152.842 125.715Z" fill="#5B39AA"/>
<path d="M152.694 125.959C154.474 127.082 153.62 131.624 150.816 136.092C148.012 140.56 144.281 143.294 142.501 142.171C140.721 141.048 141.574 136.507 144.379 132.039C147.183 127.571 150.914 124.836 152.694 125.959Z" fill="#5C39AB"/>
<path d="M152.548 126.204C154.28 127.278 153.451 131.697 150.72 136.018C147.989 140.364 144.38 143.001 142.673 141.927C140.942 140.853 141.771 136.434 144.502 132.112C147.233 127.766 150.842 125.129 152.548 126.204Z" fill="#5D39AB"/>
<path d="M152.378 126.448C154.036 127.497 153.256 131.77 150.622 135.97C147.989 140.169 144.478 142.733 142.819 141.683C141.161 140.633 141.942 136.36 144.575 132.161C147.209 127.961 150.72 125.398 152.378 126.448Z" fill="#5E39AC"/>
<path d="M152.232 126.692C153.841 127.718 153.085 131.844 150.525 135.897C147.965 139.974 144.575 142.44 142.966 141.415C141.357 140.389 142.112 136.263 144.673 132.21C147.233 128.133 150.623 125.667 152.232 126.692Z" fill="#5F3AAC"/>
<path d="M152.085 126.936C153.645 127.913 152.914 131.917 150.427 135.848C147.964 139.778 144.696 142.171 143.136 141.195C141.575 140.218 142.307 136.238 144.794 132.283C147.257 128.352 150.524 125.959 152.085 126.936Z" fill="#603AAC"/>
<path d="M151.913 127.18C153.425 128.132 152.694 131.965 150.328 135.774C147.963 139.583 144.793 141.878 143.281 140.926C141.77 139.974 142.501 136.14 144.866 132.332C147.256 128.523 150.402 126.228 151.913 127.18Z" fill="#613AAD"/>
<path d="M151.767 127.424C153.23 128.328 152.523 132.039 150.231 135.726C147.939 139.388 144.891 141.61 143.428 140.706C141.965 139.803 142.672 136.092 144.964 132.405C147.256 128.743 150.304 126.521 151.767 127.424Z" fill="#623BAD"/>
<path d="M151.621 127.668C153.011 128.547 152.353 132.112 150.134 135.652C147.915 139.168 144.989 141.317 143.599 140.438C142.209 139.559 142.867 135.994 145.086 132.454C147.305 128.938 150.231 126.79 151.621 127.668Z" fill="#633BAE"/>
<path d="M151.45 127.913C152.791 128.767 152.157 132.185 150.036 135.579C147.914 138.973 145.086 141.024 143.744 140.194C142.403 139.339 143.037 135.921 145.159 132.527C147.28 129.134 150.109 127.083 151.45 127.913Z" fill="#643BAE"/>
<path d="M151.304 128.157C152.596 128.963 151.986 132.259 149.938 135.53C147.89 138.802 145.183 140.755 143.891 139.949C142.599 139.144 143.208 135.848 145.256 132.576C147.305 129.304 150.011 127.351 151.304 128.157Z" fill="#653BAE"/>
<path d="M151.158 128.401C152.401 129.182 151.816 132.332 149.841 135.457C147.89 138.582 145.281 140.486 144.062 139.705C142.843 138.924 143.403 135.774 145.378 132.649C147.329 129.524 149.938 127.62 151.158 128.401Z" fill="#663CAF"/>
<path d="M150.988 128.669C152.183 129.426 151.622 132.429 149.745 135.432C147.867 138.411 145.38 140.242 144.209 139.485C143.039 138.728 143.575 135.725 145.453 132.722C147.331 129.719 149.818 127.912 150.988 128.669Z" fill="#673CAF"/>
<path d="M150.841 128.914C151.963 129.622 151.426 132.503 149.646 135.359C147.866 138.216 145.501 139.949 144.355 139.241C143.209 138.533 143.77 135.652 145.55 132.796C147.33 129.939 149.695 128.206 150.841 128.914Z" fill="#683CB0"/>
<path d="M150.695 129.158C151.768 129.841 151.256 132.576 149.549 135.286C147.842 137.996 145.599 139.656 144.526 138.973C143.453 138.289 143.965 135.555 145.672 132.844C147.379 130.134 149.622 128.474 150.695 129.158Z" fill="#693DB0"/>
<path d="M150.524 129.402C151.548 130.037 151.06 132.649 149.451 135.237C147.841 137.825 145.695 139.388 144.671 138.728C143.647 138.094 144.135 135.481 145.744 132.893C147.354 130.305 149.499 128.743 150.524 129.402Z" fill="#6A3DB1"/>
<path d="M150.377 129.646C151.353 130.256 150.89 132.722 149.353 135.164C147.817 137.605 145.793 139.095 144.818 138.484C143.842 137.874 144.306 135.408 145.842 132.967C147.378 130.525 149.402 129.036 150.377 129.646Z" fill="#6B3DB1"/>
<path d="M150.231 129.89C151.134 130.476 150.719 132.796 149.256 135.115C147.817 137.41 145.891 138.826 144.989 138.24C144.086 137.654 144.501 135.335 145.964 133.015C147.403 130.72 149.329 129.304 150.231 129.89Z" fill="#6C3DB1"/>
<path d="M150.06 130.134C150.913 130.672 150.523 132.869 149.158 135.042C147.792 137.215 145.988 138.533 145.134 137.996C144.281 137.459 144.671 135.262 146.037 133.089C147.402 130.916 149.207 129.597 150.06 130.134Z" fill="#6D3EB2"/>
<path d="M149.914 130.379C150.718 130.891 150.328 132.942 149.06 134.993C147.792 137.02 146.085 138.265 145.281 137.752C144.476 137.239 144.866 135.188 146.134 133.137C147.402 131.111 149.109 129.866 149.914 130.379Z" fill="#6E3EB2"/>
<path d="M149.768 130.623C150.524 131.087 150.158 133.016 148.963 134.92C147.768 136.824 146.183 137.972 145.427 137.508C144.671 137.044 145.037 135.115 146.232 133.211C147.427 131.307 149.012 130.159 149.768 130.623Z" fill="#6F3EB3"/>
<path d="M149.597 130.867C150.304 131.306 149.963 133.089 148.866 134.847C147.768 136.605 146.281 137.679 145.598 137.239C144.891 136.8 145.233 135.018 146.33 133.26C147.427 131.502 148.915 130.427 149.597 130.867Z" fill="#703FB3"/>
<path d="M149.452 131.111C150.086 131.526 149.793 133.162 148.769 134.798C147.745 136.434 146.404 137.41 145.746 137.02C145.112 136.605 145.404 134.969 146.428 133.333C147.453 131.697 148.794 130.721 149.452 131.111Z" fill="#713FB3"/>
<path d="M149.304 131.355C149.889 131.722 149.621 133.235 148.67 134.725C147.743 136.214 146.5 137.117 145.89 136.751C145.305 136.385 145.573 134.871 146.524 133.382C147.451 131.892 148.694 130.989 149.304 131.355Z" fill="#723FB4"/>
<path d="M149.134 131.599C149.67 131.941 149.426 133.308 148.573 134.676C147.719 136.043 146.598 136.849 146.061 136.507C145.525 136.165 145.769 134.798 146.622 133.431C147.476 132.063 148.597 131.258 149.134 131.599Z" fill="#733FB4"/>
<path d="M148.988 131.844C149.475 132.137 149.231 133.382 148.475 134.603C147.72 135.823 146.695 136.556 146.208 136.263C145.72 135.97 145.964 134.725 146.72 133.504C147.476 132.283 148.5 131.551 148.988 131.844Z" fill="#7440B5"/>
<path d="M148.841 132.088C149.28 132.356 149.061 133.455 148.378 134.554C147.695 135.628 146.793 136.287 146.354 136.019C145.915 135.75 146.135 134.651 146.818 133.553C147.5 132.478 148.403 131.819 148.841 132.088Z" fill="#7540B5"/>
<path d="M148.67 132.332C149.036 132.576 148.865 133.528 148.28 134.48C147.695 135.433 146.89 136.019 146.524 135.774C146.158 135.53 146.329 134.578 146.914 133.626C147.5 132.674 148.304 132.088 148.67 132.332Z" fill="#7640B6"/>
<path d="M148.524 132.576C148.841 132.771 148.695 133.601 148.183 134.407C147.67 135.213 146.988 135.726 146.671 135.506C146.354 135.31 146.5 134.48 147.012 133.675C147.524 132.869 148.207 132.356 148.524 132.576Z" fill="#7741B6"/>
<path d="M148.378 132.845C148.646 133.015 148.524 133.699 148.085 134.383C147.671 135.066 147.085 135.481 146.817 135.311C146.549 135.14 146.671 134.456 147.11 133.772C147.524 133.089 148.11 132.674 148.378 132.845Z" fill="#7841B6"/>
<path d="M148.207 133.089C148.427 133.235 148.329 133.772 147.988 134.309C147.647 134.847 147.208 135.188 146.988 135.042C146.769 134.895 146.866 134.358 147.208 133.821C147.549 133.284 147.988 132.942 148.207 133.089Z" fill="#7941B7"/>
<path d="M148.061 133.333C148.232 133.431 148.134 133.846 147.891 134.261C147.647 134.676 147.305 134.92 147.135 134.822C146.964 134.725 147.062 134.31 147.305 133.895C147.549 133.479 147.891 133.235 148.061 133.333Z" fill="#7A41B7"/>
<path d="M147.914 133.577C147.914 133.577 147.963 133.919 147.792 134.187C147.622 134.456 147.402 134.627 147.28 134.554C147.183 134.48 147.231 134.212 147.402 133.943C147.573 133.675 147.792 133.504 147.914 133.577Z" fill="#7B42B8"/>
<path d="M147.744 133.821C147.744 133.821 147.768 133.992 147.695 134.138C147.622 134.285 147.5 134.358 147.451 134.334C147.402 134.309 147.427 134.163 147.5 134.016C147.573 133.87 147.695 133.797 147.744 133.821Z" fill="#7C42B8"/>
</g>
<path d="M157.473 124.348C158.302 125.056 154.888 130.403 149.865 136.287C144.842 142.171 140.111 146.37 139.282 145.662C138.453 144.954 141.867 139.607 146.89 133.723C151.913 127.839 156.644 123.64 157.473 124.348Z" fill="url(#paint5_radial_521_8660)"/>
<path d="M155.352 126.838C156.01 127.4 155.815 133.553 151.938 138.069C148.085 142.586 142.038 143.758 141.38 143.197C140.721 142.635 143.306 138.509 147.159 133.992C151.012 129.475 154.669 126.277 155.352 126.838Z" fill="url(#paint6_linear_521_8660)"/>
<path d="M102.145 57.1573C114.337 67.607 116.507 86.6021 106.095 98.8098C95.6589 111.017 76.5905 111.848 64.3984 101.398C52.2063 90.948 50.7676 72.5877 61.1797 60.3557C71.6161 48.1481 89.953 46.7075 102.17 57.1329L102.145 57.1573Z" fill="url(#paint7_radial_521_8660)"/>
<path style="mix-blend-mode:multiply" opacity="0.5" d="M52.3281 53.9834C52.3281 53.9834 112.679 106.818 139.867 128.011C139.867 128.011 74.9323 71.7822 52.767 53.4707L52.3281 53.9834Z" fill="url(#paint8_linear_521_8660)"/>
<path d="M107.355 91.4389C114.827 77.2131 109.366 59.6159 95.1585 52.1344C80.9507 44.653 63.3759 50.1205 55.904 64.3463C48.4322 78.5722 53.8926 96.1694 68.1004 103.651C82.3081 111.132 99.8829 105.665 107.355 91.4389Z" fill="url(#paint9_radial_521_8660)"/>
<path style="mix-blend-mode:screen" opacity="0.5" d="M63.6175 100.128C51.4254 89.6783 50.0599 70.8541 60.472 58.6465C65.105 53.2263 72.0788 50.0279 78.5894 48.9536C71.4448 49.7105 64.5441 53.0798 59.4966 58.9883C49.0602 71.1959 50.4988 89.5806 62.7153 100.03C69.4941 105.841 78.1993 107.965 86.368 106.598C78.7113 107.404 69.8843 105.524 63.5931 100.128H63.6175Z" fill="url(#paint10_linear_521_8660)"/>
<path d="M81.6131 101.154C94.4472 101.154 104.851 90.7364 104.851 77.8859C104.851 65.0355 94.4472 54.6182 81.6131 54.6182C68.7791 54.6182 58.375 65.0355 58.375 77.8859C58.375 90.7364 68.7791 101.154 81.6131 101.154Z" fill="url(#paint11_radial_521_8660)"/>
<path d="M97.3171 61.5518C106.803 69.6577 107.924 83.9406 99.8042 93.4382C91.7087 102.936 77.4439 104.059 67.9585 95.9285C58.473 87.8226 58.595 74.5896 66.6905 65.092C74.7861 55.5945 87.8316 53.4215 97.3171 61.5274V61.5518Z" fill="url(#paint12_linear_521_8660)"/>
<path d="M103.023 93.1454C103.633 93.6581 103.706 94.5859 103.194 95.1962C102.682 95.8066 101.755 95.8799 101.146 95.3672C100.536 94.8544 100.463 93.9267 100.975 93.3163C101.487 92.7059 102.414 92.6326 103.023 93.1454Z" fill="url(#paint13_radial_521_8660)"/>
<path d="M102.731 93.1699C103.243 93.6094 103.317 94.3907 102.878 94.9278C102.439 95.465 101.658 95.5138 101.122 95.0743C100.61 94.6348 100.537 93.8535 100.976 93.3164C101.415 92.8037 102.195 92.7304 102.731 93.1699Z" fill="url(#paint14_linear_521_8660)"/>
<path d="M63.7655 59.5497C64.3751 60.0624 64.4482 60.9902 63.9362 61.6005C63.4241 62.2109 62.4975 62.2842 61.8879 61.7715C61.2783 61.2587 61.2051 60.331 61.7172 59.7206C62.2293 59.1102 63.1559 59.0369 63.7655 59.5497Z" fill="url(#paint15_radial_521_8660)"/>
<path d="M63.4738 59.5742C63.9859 60.0137 64.059 60.795 63.6201 61.3321C63.1812 61.8448 62.4009 61.9181 61.8645 61.4786C61.328 61.0391 61.2792 60.2578 61.7181 59.7207C62.1571 59.208 62.9374 59.1347 63.4738 59.5742Z" fill="url(#paint16_linear_521_8660)"/>
<path d="M68.5916 98.6874C69.2012 99.2001 69.2744 100.128 68.7623 100.738C68.2503 101.349 67.3237 101.422 66.7141 100.909C66.1045 100.396 66.0313 99.4686 66.5434 98.8583C67.0554 98.2479 67.982 98.1746 68.5916 98.6874Z" fill="url(#paint17_radial_521_8660)"/>
<path d="M68.3 98.7119C68.812 99.1514 68.8852 99.9327 68.4463 100.47C68.0074 100.983 67.2271 101.056 66.6906 100.616C66.1542 100.177 66.1054 99.3955 66.5443 98.8584C66.9832 98.3457 67.7635 98.2724 68.3 98.7119Z" fill="url(#paint18_linear_521_8660)"/>
<path d="M81.8827 50.8583C82.4923 51.371 82.5654 52.2988 82.0533 52.9091C81.5413 53.5195 80.6147 53.5928 80.0051 53.08C79.3955 52.5673 79.3223 51.6395 79.8344 51.0292C80.3465 50.4188 81.2731 50.3455 81.8827 50.8583Z" fill="url(#paint19_radial_521_8660)"/>
<path d="M81.591 50.8826C82.1031 51.3221 82.1762 52.1033 81.7373 52.6405C81.2984 53.1532 80.5181 53.2265 79.9816 52.787C79.4452 52.3475 79.3964 51.5662 79.8353 51.0291C80.2742 50.4919 81.0545 50.4431 81.591 50.8826Z" fill="url(#paint20_linear_521_8660)"/>
<path d="M56.7909 80.2543C57.4005 80.767 57.4736 81.6948 56.9615 82.3051C56.4495 82.9155 55.5229 82.9888 54.9133 82.476C54.3037 81.9633 54.2305 81.0355 54.7426 80.4252C55.2547 79.8148 56.1813 79.7415 56.7909 80.2543Z" fill="url(#paint21_radial_521_8660)"/>
<path d="M56.4992 80.2786C57.0113 80.7181 57.0844 81.4993 56.6455 82.0365C56.2066 82.5736 55.4263 82.6224 54.8898 82.183C54.3534 81.7435 54.3046 80.9622 54.7435 80.4251C55.1824 79.8879 55.9627 79.8391 56.4992 80.2786Z" fill="url(#paint22_linear_521_8660)"/>
<path d="M107.973 73.1737C108.582 73.6864 108.655 74.6142 108.143 75.2246C107.631 75.835 106.705 75.9082 106.095 75.3955C105.485 74.8828 105.412 73.955 105.924 73.3446C106.436 72.7342 107.363 72.661 107.973 73.1737Z" fill="url(#paint23_radial_521_8660)"/>
<path d="M107.681 73.198C108.193 73.6375 108.266 74.4188 107.827 74.9559C107.388 75.4931 106.608 75.5419 106.071 75.1024C105.535 74.6629 105.486 73.8816 105.925 73.3445C106.364 72.8074 107.144 72.7585 107.681 73.198Z" fill="url(#paint24_linear_521_8660)"/>
<path d="M82.8827 102.57C83.4923 103.082 83.5654 104.01 83.0533 104.621C82.5413 105.231 81.6147 105.304 81.0051 104.791C80.3955 104.279 80.3223 103.351 80.8344 102.741C81.3465 102.13 82.2731 102.057 82.8827 102.57Z" fill="url(#paint25_radial_521_8660)"/>
<path d="M82.5907 102.594C83.1028 103.034 83.176 103.815 82.737 104.352C82.2981 104.889 81.5178 104.938 80.9814 104.499C80.4693 104.059 80.3962 103.278 80.8351 102.741C81.274 102.228 82.0543 102.155 82.5907 102.594Z" fill="url(#paint26_linear_521_8660)"/>
<path d="M101.316 58.8661C101.926 59.3788 101.999 60.3066 101.487 60.917C100.975 61.5273 100.048 61.6006 99.4387 61.0879C98.8291 60.5751 98.7559 59.6474 99.268 59.037C99.78 58.4266 100.707 58.3533 101.316 58.8661Z" fill="url(#paint27_radial_521_8660)"/>
<path d="M101.024 58.866C101.536 59.3055 101.61 60.0867 101.171 60.6239C100.732 61.1366 99.9514 61.2098 99.415 60.7704C98.9029 60.3309 98.8298 59.5496 99.2687 59.0125C99.7076 58.4753 100.488 58.4265 101.024 58.866Z" fill="url(#paint28_linear_521_8660)"/>
<path d="M126.262 110.675C128.212 112.36 128.456 115.314 126.774 117.267C125.091 119.221 122.141 119.465 120.19 117.78C118.239 116.096 117.995 113.141 119.678 111.188C121.36 109.235 124.311 108.991 126.262 110.675Z" fill="url(#paint29_radial_521_8660)"/>
<path d="M125.724 110.211C127.675 111.896 127.919 114.85 126.236 116.804C124.554 118.757 121.603 119.001 119.653 117.316C117.702 115.632 117.458 112.677 119.141 110.724C120.823 108.771 123.774 108.527 125.724 110.211Z" fill="url(#paint30_radial_521_8660)"/>
<path d="M125.188 110.578C126.895 112.043 127.09 114.606 125.627 116.315C124.164 118.024 121.604 118.22 119.897 116.755C118.19 115.29 117.995 112.726 119.458 111.017C120.921 109.308 123.481 109.113 125.188 110.578Z" fill="url(#paint31_linear_521_8660)"/>
<path style="mix-blend-mode:multiply" opacity="0.2" d="M163.496 106.329L122.457 154.428C122.457 154.428 64.3987 141.829 34.3086 105.67C36.0886 107.697 59.6682 133.943 90.124 136.8C121.823 139.754 146.378 107.501 141.355 83.2326C136.6 60.2823 117.166 39.0166 106.608 29.9341C143.794 55.3992 163.496 106.329 163.496 106.329Z" fill="url(#paint32_linear_521_8660)"/>
<path style="mix-blend-mode:multiply" opacity="0.5" d="M70.2266 134.261L70.3485 131.966C70.3485 131.966 106.73 145.345 123.335 150.717L122.945 151.522C122.945 151.522 92.8795 149.667 70.2266 134.261Z" fill="url(#paint33_linear_521_8660)"/>
<path d="M122.92 151.522C122.92 151.522 133.259 172.275 146.963 183.995L144.841 189.195C144.841 189.195 87.2701 181.773 70.2012 134.285L70.3231 131.99C70.3231 131.99 75.4682 134.578 82.8322 137.899H82.8566C94.4391 143.099 111.484 150.058 122.895 151.522H122.92Z" fill="url(#paint34_radial_521_8660)"/>
<path style="mix-blend-mode:multiply" opacity="0.2" d="M122.92 151.522C122.92 151.522 133.259 172.275 146.963 183.995L144.841 189.195C144.841 189.195 87.2701 181.773 70.2012 134.285L70.3231 131.99C70.445 132.356 75.7608 149.935 101.681 167.49C127.967 185.289 126.09 161.923 122.822 156.454C119.555 150.985 103.388 150.619 82.8566 137.923C94.4391 143.124 111.484 150.082 122.895 151.547L122.92 151.522Z" fill="url(#paint35_linear_521_8660)"/>
<path d="M144.842 189.171L145.769 187.974C145.769 187.974 89.9046 178.037 70.3485 131.966L70.2266 134.261C70.2266 134.261 81.7115 179.038 144.867 189.195L144.842 189.171Z" fill="url(#paint36_radial_521_8660)"/>
<path style="mix-blend-mode:multiply" opacity="0.5" d="M135.429 57.8408L133.186 58.3291C133.186 58.3291 152.059 92.2175 159.935 107.819L160.667 107.306C160.667 107.306 154.156 77.8614 135.429 57.8652V57.8408Z" fill="url(#paint37_linear_521_8660)"/>
<path d="M160.667 107.282C160.667 107.282 182.759 114.265 196.438 126.008L201.242 123.103C201.242 123.103 184.929 67.3139 135.429 57.8408L133.186 58.3291C133.186 58.3291 136.551 62.9924 140.988 69.7799C140.988 69.7799 140.988 69.7799 140.988 69.8043C147.914 80.4494 157.448 96.2216 160.667 107.282Z" fill="url(#paint38_radial_521_8660)"/>
<path style="mix-blend-mode:multiply" opacity="0.2" d="M160.667 107.282C160.667 107.282 182.759 114.265 196.438 126.008L201.242 123.103C201.242 123.103 184.929 67.3139 135.429 57.8408L133.186 58.3291C133.576 58.378 148.962 60.8195 170.323 83.7454C191.976 106.964 171.396 108.844 165.495 106.452C159.594 104.059 156.692 88.1402 140.988 69.8043C147.914 80.4494 157.448 96.2216 160.667 107.282Z" fill="url(#paint39_linear_521_8660)"/>
<path d="M201.243 123.103L200.194 124.202C200.194 124.202 181.687 70.5123 133.162 58.3291L135.405 57.8408C135.405 57.8408 181.37 62.2112 201.218 123.078L201.243 123.103Z" fill="url(#paint40_radial_521_8660)"/>
<path style="mix-blend-mode:multiply" opacity="0.5" d="M14.9473 47.9772C14.9473 47.9772 26.3347 26.7115 44.9154 15.8711C44.9154 15.8711 22.1406 25.271 14.9473 47.9772Z" fill="url(#paint41_linear_521_8660)"/>
<path d="M14.9473 47.9772C14.9473 47.9772 24.4083 25.8814 44.9154 15.8711C44.9154 15.8711 27.2613 19.7043 20.0923 25.2221C20.0923 25.2221 16.0446 36.1846 14.9473 47.9772Z" fill="url(#paint42_radial_521_8660)"/>
<path style="mix-blend-mode:screen" d="M66.0314 91.6803C69.1039 93.8777 74.2489 74.907 80.9058 68.0951C87.5383 61.2833 93.293 62.9435 93.3174 60.8926C93.3174 58.8417 78.0285 54.4714 68.5674 65.5315C59.1063 76.5916 64.3246 90.4351 66.0558 91.6803H66.0314Z" fill="url(#paint43_linear_521_8660)"/>
<path style="mix-blend-mode:multiply" opacity="0.2" d="M24.1641 92.4128C24.1641 92.4128 42.1352 35.3543 87.0265 18.7764C87.0265 18.7764 41.2818 44.1194 24.1641 92.4128Z" fill="url(#paint44_linear_521_8660)"/>
<path style="mix-blend-mode:screen" d="M26.5781 94.5125C26.5781 94.5125 49.353 50.7115 89.4406 20.8516C89.4406 20.8516 46.0367 48.392 26.5781 94.5125Z" fill="url(#paint45_linear_521_8660)"/>
<path style="mix-blend-mode:screen" d="M71.6647 104.377C68.7874 106.989 64.3495 106.794 61.716 103.913C59.1069 101.032 59.3019 96.5881 62.1793 93.9512C65.0566 91.3388 69.4945 91.5341 72.128 94.4151C74.7371 97.2961 74.5421 101.74 71.6647 104.377Z" fill="url(#paint46_radial_521_8660)"/>
<path style="mix-blend-mode:screen" d="M66.0082 64.2132C63.9843 66.0687 60.8388 65.9223 58.9856 63.8714C57.1324 61.8205 57.2787 58.6953 59.327 56.8398C61.3508 54.9842 64.4964 55.1307 66.3496 57.1816C68.2028 59.208 68.0565 62.3576 66.0082 64.2132Z" fill="url(#paint47_radial_521_8660)"/>
<path style="mix-blend-mode:screen" d="M110.387 77.9588C108.363 79.8144 105.218 79.6679 103.364 77.617C101.511 75.5905 101.658 72.4409 103.706 70.5854C105.73 68.7298 108.875 68.8763 110.729 70.9272C112.582 72.9537 112.435 76.1032 110.387 77.9588Z" fill="url(#paint48_radial_521_8660)"/>
<path style="mix-blend-mode:screen" opacity="0.5" d="M24.6026 86.4555C24.6026 86.4555 14.1418 66.2885 18.1652 47.2201C18.1652 47.2201 21.4327 40.5547 24.8952 39.334C24.8952 39.334 28.8455 56.2538 35.8925 65.9222L24.6026 86.4555Z" fill="url(#paint49_linear_521_8660)"/>
<path style="mix-blend-mode:multiply" opacity="0.5" d="M70.3477 131.966C70.3477 131.966 110.801 136.702 140.013 127.839C140.013 127.839 126.504 143.343 122.944 151.522C122.944 151.522 96.6826 144.979 70.3477 131.966Z" fill="url(#paint50_linear_521_8660)"/>
<path d="M17.7268 49.6862C15.6054 48.3922 17.3367 62.6263 18.5315 63.0169C19.7263 63.4075 20.5066 51.3952 17.7268 49.6862Z" fill="white"/>
<path d="M18.4827 64.0178C17.6293 64.1398 19.0679 67.2162 19.6532 66.8988C20.2384 66.5814 19.1655 63.9201 18.4827 64.0178Z" fill="white"/>
<path d="M37.4288 75.9812C36.2096 74.7604 32.8933 80.7666 34.1126 81.3281C35.3561 81.9141 38.4286 76.9822 37.4288 75.9812Z" fill="white"/>
<path d="M53.9872 69.6334C53.1826 69.2428 52.5486 72.6853 53.2313 72.7586C53.9141 72.8318 54.6212 69.9508 53.9872 69.6334Z" fill="white"/>
<path style="mix-blend-mode:screen" opacity="0.5" d="M89.5383 26.1741C89.5383 26.1741 112.63 38.9189 129.041 56.5711C129.041 56.5711 126.602 49.1245 115.361 38.3573C107.217 30.5445 90.5868 21.5352 89.9041 22.3409C89.2213 23.1466 89.5383 26.1741 89.5383 26.1741Z" fill="url(#paint51_linear_521_8660)"/>
<path style="mix-blend-mode:screen" opacity="0.5" d="M132.503 123.909C126.529 129.353 117.239 128.938 111.801 122.932C106.363 116.95 106.778 107.648 112.776 102.203C118.751 96.7588 128.041 97.1739 133.479 103.18C138.916 109.186 138.502 118.464 132.503 123.909Z" fill="url(#paint52_radial_521_8660)"/>
<g style="mix-blend-mode:screen" opacity="0.85" filter="url(#filter1_f_521_8660)">
<path d="M139.594 138.455C139.594 138.455 164.536 154.204 179.713 176.192C224.428 241.028 208.173 242.419 230.162 284.303C230.162 284.303 216 192.5 150.824 128.227C150.824 128.227 144.154 130.383 139.592 138.472L139.594 138.455Z" fill="url(#paint53_linear_521_8660)"/>
</g>
<path d="M76.7853 21.096C77.0535 21.6575 76.834 22.3168 76.2732 22.5853C75.7124 22.8539 75.054 22.6342 74.7858 22.0726C74.5175 21.5111 74.737 20.8518 75.2978 20.5833C75.8587 20.3147 76.517 20.5344 76.7853 21.096Z" fill="url(#paint54_linear_521_8660)"/>
<path d="M25.2872 81.1087C25.5554 81.6702 25.336 82.3295 24.7752 82.598C24.2143 82.8666 23.5559 82.6469 23.2877 82.0853C23.0195 81.5238 23.239 80.8645 23.7998 80.596C24.3606 80.3274 25.019 80.5471 25.2872 81.1087Z" fill="url(#paint55_linear_521_8660)"/>
<path d="M33.7482 88.9217C34.0164 89.4832 33.7969 90.1424 33.2361 90.411C32.6753 90.6796 32.0169 90.4598 31.7487 89.8983C31.4804 89.3367 31.6999 88.6775 32.2607 88.409C32.8216 88.1404 33.4799 88.3601 33.7482 88.9217Z" fill="url(#paint56_linear_521_8660)"/>
<path d="M85.2228 27.5413C85.491 28.1029 85.2715 28.7621 84.7107 29.0306C84.1499 29.2992 83.4915 29.0795 83.2233 28.5179C82.955 27.9564 83.1745 27.2972 83.7353 27.0286C84.2962 26.76 84.9545 26.9798 85.2228 27.5413Z" fill="url(#paint57_linear_521_8660)"/>
<path d="M114.264 100.763C114.532 101.325 114.313 101.984 113.752 102.252C113.191 102.521 112.533 102.301 112.264 101.74C111.996 101.178 112.216 100.519 112.776 100.25C113.337 99.9817 113.996 100.201 114.264 100.763Z" fill="url(#paint58_linear_521_8660)"/>
<path style="mix-blend-mode:screen" opacity="0.5" d="M30.4062 93.707C30.4062 93.707 42.0863 119.612 85.8315 134.456L91.4399 124.543C91.4399 124.543 55.1074 102.887 39.404 75.5664C39.404 75.5664 32.2351 84.7954 30.4306 93.707H30.4062Z" fill="url(#paint59_linear_521_8660)"/>
<path d="M51.1328 14.8209C51.1328 14.8209 56.3754 6.44643 65.5926 14.2593L51.1328 14.8209Z" fill="url(#paint60_linear_521_8660)"/>
<path d="M15.4341 66.8747C15.4341 66.8747 7.53367 60.3314 14.6539 53.0801C14.6539 53.0801 14.9708 63.9937 15.4341 66.8747Z" fill="url(#paint61_linear_521_8660)"/>
<g style="mix-blend-mode:screen" opacity="0.85" filter="url(#filter2_f_521_8660)">
<path d="M63.5476 23.0468C60.4904 25.8295 55.736 25.6174 52.9532 22.5476C50.1705 19.4904 50.3826 14.736 53.4524 11.9532C56.5096 9.17047 61.264 9.38261 64.0468 12.4524C66.8295 15.5221 66.6174 20.264 63.5476 23.0468Z" fill="#EFE83E"/>
</g>
<g style="mix-blend-mode:screen" opacity="0.85" filter="url(#filter3_f_521_8660)">
<path d="M25.0572 67.6561C21.3884 70.9954 15.6832 70.7409 12.3439 67.0572C9.00456 63.3884 9.25913 57.6832 12.9428 54.3439C16.6266 51.0046 22.3168 51.2591 25.6561 54.9428C28.9954 58.6116 28.7409 64.3168 25.0572 67.6561Z" fill="#EFE83E"/>
</g>
<path d="M63.8867 86.2356C64.033 86.9193 65.3254 90.6304 66.4714 90.5083C67.0323 90.4351 66.6177 89.5073 66.5446 86.6751C66.4714 83.8429 66.2763 81.5235 65.2278 81.6211C64.1793 81.7188 63.5697 84.6486 63.8867 86.2356Z" fill="white"/>
<defs>
<filter id="filter0_f_521_8660" x="138.428" y="124.622" width="39.041" height="35.856" filterUnits="userSpaceOnUse" color-interpolation-filters="sRGB">
<feFlood flood-opacity="0" result="BackgroundImageFix"/>
<feBlend mode="normal" in="SourceGraphic" in2="BackgroundImageFix" result="shape"/>
<feGaussianBlur stdDeviation="2.5" result="effect1_foregroundBlur_521_8660"/>
</filter>
<filter id="filter1_f_521_8660" x="119.592" y="108.228" width="130.57" height="196.076" filterUnits="userSpaceOnUse" color-interpolation-filters="sRGB">
<feFlood flood-opacity="0" result="BackgroundImageFix"/>
<feBlend mode="normal" in="SourceGraphic" in2="BackgroundImageFix" result="shape"/>
<feGaussianBlur stdDeviation="10" result="effect1_foregroundBlur_521_8660"/>
</filter>
<filter id="filter2_f_521_8660" x="41" y="0" width="35" height="35" filterUnits="userSpaceOnUse" color-interpolation-filters="sRGB">
<feFlood flood-opacity="0" result="BackgroundImageFix"/>
<feBlend mode="normal" in="SourceGraphic" in2="BackgroundImageFix" result="shape"/>
<feGaussianBlur stdDeviation="5" result="effect1_foregroundBlur_521_8660"/>
</filter>
<filter id="filter3_f_521_8660" x="0" y="42" width="38" height="38" filterUnits="userSpaceOnUse" color-interpolation-filters="sRGB">
<feFlood flood-opacity="0" result="BackgroundImageFix"/>
<feBlend mode="normal" in="SourceGraphic" in2="BackgroundImageFix" result="shape"/>
<feGaussianBlur stdDeviation="5" result="effect1_foregroundBlur_521_8660"/>
</filter>
<radialGradient id="paint0_radial_521_8660" cx="0" cy="0" r="1" gradientUnits="userSpaceOnUse" gradientTransform="translate(145.939 132.51) rotate(-49.516) scale(25.5735 25.5684)">
<stop stop-color="#BFBBE2"/>
<stop offset="1" stop-color="#7D75DA"/>
</radialGradient>
<radialGradient id="paint1_radial_521_8660" cx="0" cy="0" r="1" gradientUnits="userSpaceOnUse" gradientTransform="translate(53.4108 55.1577) rotate(-49.516) scale(31.8936 31.8873)">
<stop stop-color="#7C42B8"/>
<stop offset="1" stop-color="#272A95"/>
</radialGradient>
<radialGradient id="paint2_radial_521_8660" cx="0" cy="0" r="1" gradientUnits="userSpaceOnUse" gradientTransform="translate(25.76 71.1895) rotate(-26.329) scale(85.049 85.1148)">
<stop stop-color="#BFBBE2"/>
<stop offset="1" stop-color="#7D75DA"/>
</radialGradient>
<radialGradient id="paint3_radial_521_8660" cx="0" cy="0" r="1" gradientUnits="userSpaceOnUse" gradientTransform="translate(25.7703 71.2113) rotate(-26.329) scale(118.927 119.019)">
<stop stop-color="#BFBBE2"/>
<stop offset="0.69" stop-color="#7D75DA"/>
<stop offset="0.76" stop-color="#757BDA"/>
<stop offset="0.88" stop-color="#608CDA"/>
<stop offset="0.97" stop-color="#4B9FDA"/>
</radialGradient>
<linearGradient id="paint4_linear_521_8660" x1="202.361" y1="180.763" x2="115.165" y2="106.333" gradientUnits="userSpaceOnUse">
<stop/>
<stop offset="0.3" stop-color="#362C40"/>
<stop offset="0.63" stop-color="#6F5A83"/>
<stop offset="0.88" stop-color="#9377AD"/>
<stop offset="1" stop-color="#A183BE"/>
</linearGradient>
<radialGradient id="paint5_radial_521_8660" cx="0" cy="0" r="1" gradientUnits="userSpaceOnUse" gradientTransform="translate(148.967 134.344) rotate(-49.5161) scale(10.062 9.49055)">
<stop stop-color="#5822B6"/>
<stop offset="0.63" stop-color="#593290"/>
<stop offset="0.98" stop-color="#31199A"/>
</radialGradient>
<linearGradient id="paint6_linear_521_8660" x1="142.599" y1="144.202" x2="156.578" y2="127.868" gradientUnits="userSpaceOnUse">
<stop stop-color="#00FEF4"/>
<stop offset="1" stop-color="#30A7FB"/>
</linearGradient>
<radialGradient id="paint7_radial_521_8660" cx="0" cy="0" r="1" gradientUnits="userSpaceOnUse" gradientTransform="translate(103.388 94.4262) rotate(-49.5161) scale(29.3314 29.3256)">
<stop stop-color="#7C42B8"/>
<stop offset="1" stop-color="#272A95"/>
</radialGradient>
<linearGradient id="paint8_linear_521_8660" x1="138.333" y1="129.861" x2="51.1241" y2="55.4464" gradientUnits="userSpaceOnUse">
<stop stop-color="#2128A9"/>
<stop offset="1" stop-color="#E5DCF4"/>
</linearGradient>
<radialGradient id="paint9_radial_521_8660" cx="0" cy="0" r="1" gradientUnits="userSpaceOnUse" gradientTransform="translate(69.4137 66.8757) rotate(-49.516) scale(38.043 38.0354)">
<stop stop-color="#A26D9F"/>
<stop offset="1" stop-color="#645AD3"/>
</radialGradient>
<linearGradient id="paint10_linear_521_8660" x1="60.1539" y1="97.8004" x2="92.0923" y2="60.4793" gradientUnits="userSpaceOnUse">
<stop stop-color="#A183BE"/>
<stop offset="0.12" stop-color="#9377AD"/>
<stop offset="0.37" stop-color="#6F5A83"/>
<stop offset="0.7" stop-color="#362C40"/>
<stop offset="1"/>
</linearGradient>
<radialGradient id="paint11_radial_521_8660" cx="0" cy="0" r="1" gradientUnits="userSpaceOnUse" gradientTransform="translate(70.3191 66.8021) rotate(-49.516) scale(23.2553 23.2506)">
<stop stop-color="#368BB8"/>
<stop offset="1" stop-color="#272A95"/>
</radialGradient>
<linearGradient id="paint12_linear_521_8660" x1="99.8183" y1="93.4591" x2="66.6767" y2="65.1696" gradientUnits="userSpaceOnUse">
<stop stop-color="#00FEF4"/>
<stop offset="1" stop-color="#30A7FB"/>
</linearGradient>
<radialGradient id="paint13_radial_521_8660" cx="0" cy="0" r="1" gradientUnits="userSpaceOnUse" gradientTransform="translate(102.094 94.2505) rotate(-49.516) scale(1.43973 1.43944)">
<stop stop-color="#7C42B8"/>
<stop offset="1" stop-color="#272A95"/>
</radialGradient>
<linearGradient id="paint14_linear_521_8660" x1="102.873" y1="94.9169" x2="100.999" y2="93.3171" gradientUnits="userSpaceOnUse">
<stop stop-color="#00FEF4"/>
<stop offset="1" stop-color="#30A7FB"/>
</linearGradient>
<radialGradient id="paint15_radial_521_8660" cx="0" cy="0" r="1" gradientUnits="userSpaceOnUse" gradientTransform="translate(62.835 60.6526) rotate(-49.516) scale(1.43973 1.43944)">
<stop stop-color="#7C42B8"/>
<stop offset="1" stop-color="#272A95"/>
</radialGradient>
<linearGradient id="paint16_linear_521_8660" x1="63.633" y1="61.3348" x2="61.7403" y2="59.7192" gradientUnits="userSpaceOnUse">
<stop stop-color="#00FEF4"/>
<stop offset="1" stop-color="#30A7FB"/>
</linearGradient>
<radialGradient id="paint17_radial_521_8660" cx="0" cy="0" r="1" gradientUnits="userSpaceOnUse" gradientTransform="translate(67.6757 99.773) rotate(-49.516) scale(1.43973 1.43944)">
<stop stop-color="#7C42B8"/>
<stop offset="1" stop-color="#272A95"/>
</radialGradient>
<linearGradient id="paint18_linear_521_8660" x1="68.4552" y1="100.439" x2="66.581" y2="98.8396" gradientUnits="userSpaceOnUse">
<stop stop-color="#00FEF4"/>
<stop offset="1" stop-color="#30A7FB"/>
</linearGradient>
<radialGradient id="paint19_radial_521_8660" cx="0" cy="0" r="1" gradientUnits="userSpaceOnUse" gradientTransform="translate(80.9555 51.9756) rotate(-49.516) scale(1.43973 1.43944)">
<stop stop-color="#7C42B8"/>
<stop offset="1" stop-color="#272A95"/>
</radialGradient>
<linearGradient id="paint20_linear_521_8660" x1="81.7349" y1="52.6417" x2="79.8422" y2="51.0261" gradientUnits="userSpaceOnUse">
<stop stop-color="#00FEF4"/>
<stop offset="1" stop-color="#30A7FB"/>
</linearGradient>
<radialGradient id="paint21_radial_521_8660" cx="0" cy="0" r="1" gradientUnits="userSpaceOnUse" gradientTransform="translate(55.8759 81.356) rotate(-49.516) scale(1.43973 1.43944)">
<stop stop-color="#7C42B8"/>
<stop offset="1" stop-color="#272A95"/>
</radialGradient>
<linearGradient id="paint22_linear_521_8660" x1="56.6554" y1="82.0222" x2="54.7812" y2="80.4224" gradientUnits="userSpaceOnUse">
<stop stop-color="#00FEF4"/>
<stop offset="1" stop-color="#30A7FB"/>
</linearGradient>
<radialGradient id="paint23_radial_521_8660" cx="0" cy="0" r="1" gradientUnits="userSpaceOnUse" gradientTransform="translate(107.051 74.276) rotate(-49.5161) scale(1.43973 1.43944)">
<stop stop-color="#7C42B8"/>
<stop offset="1" stop-color="#272A95"/>
</radialGradient>
<linearGradient id="paint24_linear_521_8660" x1="107.849" y1="74.958" x2="105.956" y2="73.3424" gradientUnits="userSpaceOnUse">
<stop stop-color="#00FEF4"/>
<stop offset="1" stop-color="#30A7FB"/>
</linearGradient>
<radialGradient id="paint25_radial_521_8660" cx="0" cy="0" r="1" gradientUnits="userSpaceOnUse" gradientTransform="translate(81.9573 103.675) rotate(-49.5161) scale(1.43973 1.43944)">
<stop stop-color="#7C42B8"/>
<stop offset="1" stop-color="#272A95"/>
</radialGradient>
<linearGradient id="paint26_linear_521_8660" x1="82.7551" y1="104.357" x2="80.8623" y2="102.742" gradientUnits="userSpaceOnUse">
<stop stop-color="#00FEF4"/>
<stop offset="1" stop-color="#30A7FB"/>
</linearGradient>
<radialGradient id="paint27_radial_521_8660" cx="0" cy="0" r="1" gradientUnits="userSpaceOnUse" gradientTransform="translate(100.398 59.9743) rotate(-49.516) scale(1.43973 1.43944)">
<stop stop-color="#7C42B8"/>
<stop offset="1" stop-color="#272A95"/>
</radialGradient>
<linearGradient id="paint28_linear_521_8660" x1="101.177" y1="60.6404" x2="99.2843" y2="59.0248" gradientUnits="userSpaceOnUse">
<stop stop-color="#00FEF4"/>
<stop offset="1" stop-color="#30A7FB"/>
</linearGradient>
<radialGradient id="paint29_radial_521_8660" cx="0" cy="0" r="1" gradientUnits="userSpaceOnUse" gradientTransform="translate(123.236 114.238) rotate(-49.516) scale(4.66081 4.65988)">
<stop stop-color="#888EE7"/>
<stop offset="1" stop-color="#B8ADEE"/>
</radialGradient>
<radialGradient id="paint30_radial_521_8660" cx="0" cy="0" r="1" gradientUnits="userSpaceOnUse" gradientTransform="translate(125.749 116.292) rotate(-49.516) scale(4.66081 4.65989)">
<stop stop-color="#D67F86"/>
<stop offset="1" stop-color="#272A95"/>
</radialGradient>
<linearGradient id="paint31_linear_521_8660" x1="125.664" y1="116.316" x2="119.485" y2="111.042" gradientUnits="userSpaceOnUse">
<stop stop-color="#FFFF56"/>
<stop offset="1" stop-color="#FFA500"/>
</linearGradient>
<linearGradient id="paint32_linear_521_8660" x1="142.99" y1="130.404" x2="67.911" y2="66.317" gradientUnits="userSpaceOnUse">
<stop stop-color="#5D62C0"/>
<stop offset="1" stop-color="#E5DCF4"/>
</linearGradient>
<linearGradient id="paint33_linear_521_8660" x1="89.1825" y1="150.488" x2="103.51" y2="133.746" gradientUnits="userSpaceOnUse">
<stop stop-color="#2128A9"/>
<stop offset="1" stop-color="#E5DCF4"/>
</linearGradient>
<radialGradient id="paint34_radial_521_8660" cx="0" cy="0" r="1" gradientUnits="userSpaceOnUse" gradientTransform="translate(69.6901 125.072) rotate(-49.516) scale(74.8414 74.8265)">
<stop stop-color="#D0CDEA"/>
<stop offset="1" stop-color="#7D75DA"/>
</radialGradient>
<linearGradient id="paint35_linear_521_8660" x1="98.5973" y1="171.136" x2="118.573" y2="147.794" gradientUnits="userSpaceOnUse">
<stop stop-color="#2128A9"/>
<stop offset="1" stop-color="#E5DCF4"/>
</linearGradient>
<radialGradient id="paint36_radial_521_8660" cx="0" cy="0" r="1" gradientUnits="userSpaceOnUse" gradientTransform="translate(65.16 130.38) rotate(-49.5161) scale(74.329 74.3142)">
<stop stop-color="#FAFAFD"/>
<stop offset="1" stop-color="#C3BFEE"/>
</radialGradient>
<linearGradient id="paint37_linear_521_8660" x1="154.354" y1="73.9778" x2="140.027" y2="90.7195" gradientUnits="userSpaceOnUse">
<stop stop-color="#2128A9"/>
<stop offset="1" stop-color="#E5DCF4"/>
</linearGradient>
<radialGradient id="paint38_radial_521_8660" cx="0" cy="0" r="1" gradientUnits="userSpaceOnUse" gradientTransform="translate(126.244 58.6581) rotate(130.484) scale(74.8414 74.8265)">
<stop stop-color="#A7FAFD"/>
<stop offset="1" stop-color="#C3BFEE"/>
</radialGradient>
<linearGradient id="paint39_linear_521_8660" x1="176.207" y1="80.0562" x2="156.215" y2="103.417" gradientUnits="userSpaceOnUse">
<stop stop-color="#2128A9"/>
<stop offset="1" stop-color="#E5DCF4"/>
</linearGradient>
<radialGradient id="paint40_radial_521_8660" cx="0" cy="0" r="1" gradientUnits="userSpaceOnUse" gradientTransform="translate(130.776 53.35) rotate(130.484) scale(74.329 74.3142)">
<stop stop-color="#D0CDEA"/>
<stop offset="1" stop-color="#7D75DA"/>
</radialGradient>
<linearGradient id="paint41_linear_521_8660" x1="14.3062" y1="47.4199" x2="42.8334" y2="14.085" gradientUnits="userSpaceOnUse">
<stop stop-color="#2128A9"/>
<stop offset="1" stop-color="#E5DCF4"/>
</linearGradient>
<radialGradient id="paint42_radial_521_8660" cx="0" cy="0" r="1" gradientUnits="userSpaceOnUse" gradientTransform="translate(25.824 28.4026) rotate(-49.516) scale(16.1542 16.151)">
<stop stop-color="#FAFAFD"/>
<stop offset="1" stop-color="#C3BFEE"/>
</radialGradient>
<linearGradient id="paint43_linear_521_8660" x1="60.6835" y1="87.1087" x2="87.5764" y2="55.6834" gradientUnits="userSpaceOnUse">
<stop stop-color="#A183BE"/>
<stop offset="0.12" stop-color="#9377AD"/>
<stop offset="0.37" stop-color="#6F5A83"/>
<stop offset="0.7" stop-color="#362C40"/>
<stop offset="1"/>
</linearGradient>
<linearGradient id="paint44_linear_521_8660" x1="20.2099" y1="89.0545" x2="83.1664" y2="15.4877" gradientUnits="userSpaceOnUse">
<stop stop-color="#E5DCF4"/>
<stop offset="1" stop-color="#2128A9"/>
</linearGradient>
<linearGradient id="paint45_linear_521_8660" x1="-20.8224" y1="144.865" x2="42.15" y2="71.2801" gradientUnits="userSpaceOnUse">
<stop/>
<stop offset="0.3" stop-color="#362C40"/>
<stop offset="0.63" stop-color="#6F5A83"/>
<stop offset="0.88" stop-color="#9377AD"/>
<stop offset="1" stop-color="#A183BE"/>
</linearGradient>
<radialGradient id="paint46_radial_521_8660" cx="0" cy="0" r="1" gradientUnits="userSpaceOnUse" gradientTransform="translate(67.7264 95.9468) rotate(47.7163) scale(7.03779 7.03695)">
<stop stop-color="#006BFF"/>
<stop offset="0.06" stop-color="#0063EC"/>
<stop offset="0.33" stop-color="#004099"/>
<stop offset="0.56" stop-color="#002457"/>
<stop offset="0.76" stop-color="#001028"/>
<stop offset="0.91" stop-color="#00040A"/>
<stop offset="1"/>
</radialGradient>
<radialGradient id="paint47_radial_521_8660" cx="0" cy="0" r="1" gradientUnits="userSpaceOnUse" gradientTransform="translate(63.4757 57.2416) rotate(47.7163) scale(4.99785 4.99725)">
<stop stop-color="#006BFF"/>
<stop offset="0.06" stop-color="#0063EC"/>
<stop offset="0.33" stop-color="#004099"/>
<stop offset="0.56" stop-color="#002457"/>
<stop offset="0.76" stop-color="#001028"/>
<stop offset="0.91" stop-color="#00040A"/>
<stop offset="1"/>
</radialGradient>
<radialGradient id="paint48_radial_521_8660" cx="0" cy="0" r="1" gradientUnits="userSpaceOnUse" gradientTransform="translate(107.926 71.0282) rotate(47.7163) scale(4.99785 4.99726)">
<stop stop-color="#006BFF"/>
<stop offset="0.06" stop-color="#0063EC"/>
<stop offset="0.33" stop-color="#004099"/>
<stop offset="0.56" stop-color="#002457"/>
<stop offset="0.76" stop-color="#001028"/>
<stop offset="0.91" stop-color="#00040A"/>
<stop offset="1"/>
</radialGradient>
<linearGradient id="paint49_linear_521_8660" x1="12.778" y1="76.3033" x2="36.1646" y2="48.9753" gradientUnits="userSpaceOnUse">
<stop/>
<stop offset="0.3" stop-color="#362C40"/>
<stop offset="0.63" stop-color="#6F5A83"/>
<stop offset="0.88" stop-color="#9377AD"/>
<stop offset="1" stop-color="#A183BE"/>
</linearGradient>
<linearGradient id="paint50_linear_521_8660" x1="126.105" y1="147.816" x2="86.0236" y2="113.603" gradientUnits="userSpaceOnUse">
<stop stop-color="#E5DCF4"/>
<stop offset="1" stop-color="#2128A9"/>
</linearGradient>
<linearGradient id="paint51_linear_521_8660" x1="129.842" y1="55.6557" x2="90.2982" y2="21.9015" gradientUnits="userSpaceOnUse">
<stop/>
<stop offset="0.3" stop-color="#362C40"/>
<stop offset="0.63" stop-color="#6F5A83"/>
<stop offset="0.88" stop-color="#9377AD"/>
<stop offset="1" stop-color="#A183BE"/>
</linearGradient>
<radialGradient id="paint52_radial_521_8660" cx="0" cy="0" r="1" gradientUnits="userSpaceOnUse" gradientTransform="translate(123.534 109.868) rotate(47.7163) scale(14.6876 14.6858)">
<stop stop-color="#FF5115"/>
<stop offset="0.06" stop-color="#EC4B13"/>
<stop offset="0.33" stop-color="#99300C"/>
<stop offset="0.56" stop-color="#571B07"/>
<stop offset="0.76" stop-color="#280C03"/>
<stop offset="0.91" stop-color="#0A0300"/>
<stop offset="1"/>
</radialGradient>
<linearGradient id="paint53_linear_521_8660" x1="151" y1="142" x2="215.5" y2="280" gradientUnits="userSpaceOnUse">
<stop stop-color="#3EE4EF"/>
<stop offset="1" stop-color="#3EE4EF" stop-opacity="0"/>
</linearGradient>
<linearGradient id="paint54_linear_521_8660" x1="76.2883" y1="22.5723" x2="75.3031" y2="20.5815" gradientUnits="userSpaceOnUse">
<stop stop-color="#634BDE"/>
<stop offset="1" stop-color="#CCC4FF"/>
</linearGradient>
<linearGradient id="paint55_linear_521_8660" x1="24.7804" y1="82.5954" x2="23.7952" y2="80.6046" gradientUnits="userSpaceOnUse">
<stop stop-color="#634BDE"/>
<stop offset="1" stop-color="#CCC4FF"/>
</linearGradient>
<linearGradient id="paint56_linear_521_8660" x1="33.2607" y1="90.4091" x2="32.2756" y2="88.4183" gradientUnits="userSpaceOnUse">
<stop stop-color="#634BDE"/>
<stop offset="1" stop-color="#CCC4FF"/>
</linearGradient>
<linearGradient id="paint57_linear_521_8660" x1="84.7214" y1="29.0204" x2="83.7362" y2="27.0296" gradientUnits="userSpaceOnUse">
<stop stop-color="#634BDE"/>
<stop offset="1" stop-color="#CCC4FF"/>
</linearGradient>
<linearGradient id="paint58_linear_521_8660" x1="113.772" y1="102.258" x2="112.786" y2="100.267" gradientUnits="userSpaceOnUse">
<stop stop-color="#634BDE"/>
<stop offset="1" stop-color="#CCC4FF"/>
</linearGradient>
<linearGradient id="paint59_linear_521_8660" x1="87.5612" y1="132.432" x2="31.6325" y2="84.6915" gradientUnits="userSpaceOnUse">
<stop/>
<stop offset="0.3" stop-color="#362C40"/>
<stop offset="0.63" stop-color="#6F5A83"/>
<stop offset="0.88" stop-color="#9377AD"/>
<stop offset="1" stop-color="#A183BE"/>
</linearGradient>
<linearGradient id="paint60_linear_521_8660" x1="52.1703" y1="16.9133" x2="64.0244" y2="11.0621" gradientUnits="userSpaceOnUse">
<stop stop-color="#FFFF56"/>
<stop offset="1" stop-color="#FFA500"/>
</linearGradient>
<linearGradient id="paint61_linear_521_8660" x1="11.8222" y1="61.582" x2="17.4868" y2="58.786" gradientUnits="userSpaceOnUse">
<stop stop-color="#FFFF56"/>
<stop offset="1" stop-color="#FFA500"/>
</linearGradient>
</defs>
</svg>
