<svg width="165" height="59" viewBox="0 0 165 59" fill="none" xmlns="http://www.w3.org/2000/svg">
<path d="M1.98116 50.3328C6.05741 59.9825 152.099 62.6978 160.511 52.6666C168.163 43.5443 165.05 10.8925 158.509 4.38452C149.597 -4.49095 14.5805 1.73646 7.37293 8.71566C0.62858 15.2236 -2.24333 40.324 1.98116 50.3328Z" fill="url(#paint0_radial_107_2312)"/>
<path d="M1.98116 50.3328C6.05741 59.9825 152.099 62.6978 160.511 52.6666C168.163 43.5443 165.05 10.8925 158.509 4.38452C149.597 -4.49095 14.5805 1.73646 7.37293 8.71566C0.62858 15.2236 -2.24333 40.324 1.98116 50.3328Z" fill="url(#paint1_radial_107_2312)"/>
<path d="M2.31492 48.6272C6.37265 57.9403 151.821 58.6023 160.196 48.9189C167.811 40.122 164.809 11.0383 158.306 4.76596C149.431 -3.78412 14.7475 2.21889 7.55847 8.95124C0.851174 15.2235 -1.90956 38.9775 2.31492 48.6272Z" fill="url(#paint2_linear_107_2312)"/>
<path d="M3.53772 47.7969C7.52134 56.8294 150.839 57.4802 159.028 48.0886C166.477 39.5498 163.549 11.33 157.176 5.23723C148.486 -3.05477 15.6924 2.76871 8.6701 9.29908C2.11103 15.3919 -0.594122 38.4389 3.53772 47.7969Z" fill="url(#paint3_linear_107_2312)"/>
<path style="mix-blend-mode:screen" d="M157.083 48.2569C157.083 48.2569 65.0704 57.2334 8.5957 49.3116C8.5957 49.3116 45.282 52.9247 61.6056 49.3116C89.3241 43.1852 149.801 41.3675 157.083 48.2569Z" fill="url(#paint4_linear_107_2312)"/>
<path style="mix-blend-mode:screen" d="M34.9802 17.1535C36.5551 17.0974 37.9077 17.8268 38.0189 18.7805C38.1115 19.7343 36.9072 20.5646 35.3322 20.6207C33.7573 20.6768 32.4048 19.9475 32.2936 18.9937C32.2009 18.04 33.4053 17.2096 34.9802 17.1535Z" fill="url(#paint5_radial_107_2312)"/>
<path d="M35.3141 18.399C35.7588 18.3878 36.1294 18.5898 36.1479 18.8478C36.1664 19.1171 35.8329 19.3415 35.4068 19.3528C34.9621 19.364 34.5915 19.162 34.573 18.9039C34.5545 18.6346 34.888 18.4102 35.3141 18.399Z" fill="#FFFFAB"/>
<path style="mix-blend-mode:screen" d="M38.8713 9.7031C40.4462 9.647 41.7988 10.3763 41.91 11.3301C42.0026 12.2838 40.7983 13.1029 39.2234 13.1703C37.6484 13.2264 36.2959 12.497 36.1847 11.5433C36.0921 10.5895 37.2964 9.77043 38.8713 9.7031Z" fill="url(#paint6_radial_107_2312)"/>
<path d="M39.2048 10.9486C39.6494 10.9373 40.02 11.1393 40.0385 11.3974C40.0571 11.6667 39.7236 11.8911 39.2974 11.9023C38.8527 11.9135 38.4822 11.7116 38.4636 11.4535C38.4451 11.1842 38.7786 10.9598 39.2048 10.9486Z" fill="#FFFFAB"/>
<path style="mix-blend-mode:screen" d="M36.574 31.0783C38.1489 31.0222 39.5014 31.7516 39.6126 32.7053C39.7053 33.6591 38.5009 34.4782 36.926 34.5455C35.3511 34.6016 33.9985 33.8723 33.8873 32.9185C33.7947 31.9648 34.999 31.1457 36.574 31.0783Z" fill="url(#paint7_radial_107_2312)"/>
<path d="M36.926 32.3238C37.3706 32.3126 37.7412 32.5146 37.7597 32.7726C37.7783 33.0419 37.4448 33.2663 37.0186 33.2776C36.5739 33.2888 36.2033 33.0868 36.1848 32.8287C36.1663 32.5707 36.4998 32.335 36.926 32.3238Z" fill="#FFFFAB"/>
<path style="mix-blend-mode:screen" d="M23.0849 5.88813C27.5132 5.73104 31.3115 7.77318 31.5709 10.4437C31.8303 13.1254 28.4582 15.4256 24.0484 15.5827C19.6201 15.7398 15.8218 13.6976 15.5624 11.0272C15.303 8.34543 18.6751 6.04522 23.0849 5.88813Z" fill="url(#paint8_radial_107_2312)"/>
<path d="M24.0486 9.37776C25.2715 9.33288 26.3276 9.89391 26.4017 10.6345C26.4758 11.375 25.5494 12.0146 24.3265 12.0595C23.1036 12.1044 22.0475 11.5433 21.9734 10.8028C21.8993 10.0622 22.8257 9.42264 24.0486 9.37776Z" fill="#FFFFAB"/>
<path style="mix-blend-mode:screen" d="M45.9495 42.961C48.0617 42.8824 49.8775 43.8586 50.0072 45.1378C50.1369 46.4169 48.5249 47.5165 46.4127 47.5951C44.3005 47.6736 42.4847 46.6974 42.355 45.4183C42.2253 44.1391 43.8372 43.0395 45.9495 42.961Z" fill="url(#paint9_radial_107_2312)"/>
<path d="M46.4128 44.6217C47.0058 44.5992 47.506 44.8685 47.5431 45.2276C47.5801 45.5866 47.1355 45.8896 46.5426 45.912C45.9496 45.9345 45.4494 45.6652 45.4123 45.3061C45.3753 44.9471 45.8199 44.6441 46.4128 44.6217Z" fill="#FFFFAB"/>
<path style="mix-blend-mode:screen" d="M11.9494 49.0761C13.0055 49.0425 13.9134 49.5249 13.969 50.1645C14.0246 50.8041 13.2279 51.3539 12.1718 51.3876C11.1156 51.4212 10.2077 50.9387 10.1522 50.2992C10.0966 49.6596 10.8933 49.1098 11.9494 49.0761Z" fill="url(#paint10_radial_107_2312)"/>
<path d="M12.1907 49.9065C12.4872 49.9065 12.728 50.0299 12.7466 50.2095C12.7466 50.389 12.5427 50.5348 12.2463 50.5461C11.9498 50.5461 11.709 50.4226 11.6904 50.2431C11.6904 50.0636 11.8942 49.9177 12.1907 49.9065Z" fill="#FFFFAB"/>
<path style="mix-blend-mode:screen" d="M65.7561 29.1708C66.8122 29.1372 67.7201 29.6197 67.7757 30.2592C67.8312 30.8988 67.0345 31.4486 65.9784 31.4823C64.9223 31.5159 64.0144 31.0335 63.9588 30.3939C63.9032 29.7543 64.6999 29.2045 65.7561 29.1708Z" fill="url(#paint11_radial_107_2312)"/>
<path d="M65.9968 30.0012C66.2933 30.0012 66.5342 30.1246 66.5527 30.3042C66.5527 30.4837 66.3489 30.6296 66.0524 30.6408C65.756 30.6408 65.5151 30.5174 65.4966 30.3378C65.4966 30.1583 65.7004 30.0124 65.9968 30.0012Z" fill="#FFFFAB"/>
<path style="mix-blend-mode:screen" d="M39.2047 47.3707C39.9829 47.337 40.6685 47.7073 40.7055 48.1785C40.7611 48.6498 40.1497 49.065 39.3715 49.0986C38.5933 49.1323 37.9078 48.762 37.8707 48.2907C37.8151 47.8195 38.4266 47.4043 39.2047 47.3819V47.3707Z" fill="url(#paint12_radial_107_2312)"/>
<path d="M39.3715 47.9878C39.5939 47.9878 39.7792 48.0776 39.7977 48.2122C39.7977 48.3469 39.6495 48.4591 39.4271 48.4703C39.2048 48.4703 39.0195 48.3805 39.001 48.2459C39.001 48.1112 39.1492 47.999 39.3715 47.9878Z" fill="#FFFFAB"/>
<path style="mix-blend-mode:screen" d="M61.3836 46.6637C63.0327 46.6076 64.4408 47.3706 64.552 48.3692C64.6447 49.3678 63.3847 50.2206 61.7542 50.2879C60.1237 50.3552 58.697 49.581 58.5859 48.5936C58.4932 47.595 59.7531 46.7422 61.4022 46.6749L61.3836 46.6637Z" fill="url(#paint13_radial_107_2312)"/>
<path d="M61.7355 47.9653C62.1987 47.9541 62.5878 48.156 62.6063 48.4366C62.6248 48.7171 62.2913 48.9527 61.8281 48.9639C61.3649 48.9751 60.9758 48.7732 60.9573 48.4927C60.9388 48.2121 61.2723 47.9765 61.7355 47.9653Z" fill="#FFFFAB"/>
<path d="M24.5957 21.3804L21.9414 21.4683L21.7656 19.9214C21.7656 19.1714 21.4199 18.7378 20.7285 18.6206L19.0938 18.8843C18.6953 19.0601 18.4668 19.4058 18.4082 19.9214L18.3203 25.9331C18.3203 26.6831 18.666 27.0288 19.3574 26.9702L21.168 27.0581C23.3945 27.1167 24.4785 28.5522 24.4199 31.3647L24.3496 37.0425C24.291 39.6792 23.1133 40.8804 20.8164 40.646L18.8301 40.7339C16.3691 40.7925 15.2559 39.562 15.4902 37.0425L15.7363 35.2319L18.4961 35.4077L18.3203 37.0425C18.3203 37.6636 18.6074 37.9741 19.1816 37.9741L20.7285 38.062C21.4199 38.0034 21.7949 37.1187 21.8535 35.4077V31.189C21.7949 30.2749 21.4199 29.8413 20.7285 29.8882L18.8301 29.8179C16.6504 29.5249 15.5898 28.3472 15.6484 26.2847V19.5698C15.7656 17.3315 16.8555 16.2124 18.918 16.2124L20.9922 16.0542C23.2773 16.1011 24.4785 17.3315 24.5957 19.7456V21.3804ZM25.9316 40.8218L29.377 16.0542L31.8555 16.1245L35.125 40.5581L32.2949 40.8218L31.8555 36.5151L29.1133 36.7788L28.8496 40.7339L25.9316 40.8218ZM31.5215 33.9312L30.4844 26.1968L29.377 34.1948L31.5215 33.9312ZM42.4023 16.0542L38.957 40.8218L36.4785 40.7515L33.209 16.3179L36.0391 16.0542L37.7617 29.6421L39.4844 16.1421L42.4023 16.0542ZM52.6855 18.9722L46.7441 19.2358V26.8823L51.8242 27.2339L51.7363 30.1519L46.832 29.8179L46.7441 37.9038L53.1953 38.062L52.8613 40.9976L43.8262 40.646L44.1602 16.3003L52.8613 16.1245L52.6855 18.9722ZM62.4766 30.2573L62.4062 40.7339L59.752 40.8218L59.6641 16.0542L62.0723 16.1069L65.2539 16.0542C67.4922 15.9956 68.6113 17.1675 68.6113 19.5698L68.6816 26.7944C68.7988 29.2085 67.6855 30.2983 65.3418 30.064L62.4766 30.2573ZM62.5645 18.7612L62.4941 27.603L64.9902 27.48C65.6816 27.4214 65.998 26.8765 65.9395 25.8452L65.7637 19.5698C65.7051 18.937 65.3066 18.6499 64.5684 18.7085L62.5645 18.7612ZM68.6465 40.8218L72.0918 16.0542L74.5703 16.1245L77.8398 40.5581L75.0098 40.8218L74.5703 36.5151L71.8281 36.7788L71.5645 40.7339L68.6465 40.8218ZM74.2363 33.9312L73.1992 26.1968L72.0918 34.1948L74.2363 33.9312ZM88.5449 21.3804L85.8906 21.4683L85.7148 19.9214C85.7148 19.1714 85.3691 18.7378 84.6777 18.6206L83.043 18.8843C82.6445 19.0601 82.416 19.4058 82.3574 19.9214L82.2695 25.9331C82.2695 26.6831 82.6152 27.0288 83.3066 26.9702L85.1172 27.0581C87.3438 27.1167 88.4277 28.5522 88.3691 31.3647L88.2988 37.0425C88.2402 39.6792 87.0625 40.8804 84.7656 40.646L82.7793 40.7339C80.3184 40.7925 79.2051 39.562 79.4395 37.0425L79.6855 35.2319L82.4453 35.4077L82.2695 37.0425C82.2695 37.6636 82.5566 37.9741 83.1309 37.9741L84.6777 38.062C85.3691 38.0034 85.7441 37.1187 85.8027 35.4077V31.189C85.7441 30.2749 85.3691 29.8413 84.6777 29.8882L82.7793 29.8179C80.5996 29.5249 79.5391 28.3472 79.5977 26.2847V19.5698C79.7148 17.3315 80.8047 16.2124 82.8672 16.2124L84.9414 16.0542C87.2266 16.1011 88.4277 17.3315 88.5449 19.7456V21.3804ZM99.1621 21.3804L96.5078 21.4683L96.332 19.9214C96.332 19.1714 95.9863 18.7378 95.2949 18.6206L93.6602 18.8843C93.2617 19.0601 93.0332 19.4058 92.9746 19.9214L92.8867 25.9331C92.8867 26.6831 93.2324 27.0288 93.9238 26.9702L95.7344 27.0581C97.9609 27.1167 99.0449 28.5522 98.9863 31.3647L98.916 37.0425C98.8574 39.6792 97.6797 40.8804 95.3828 40.646L93.3965 40.7339C90.9355 40.7925 89.8223 39.562 90.0566 37.0425L90.3027 35.2319L93.0625 35.4077L92.8867 37.0425C92.8867 37.6636 93.1738 37.9741 93.748 37.9741L95.2949 38.062C95.9863 38.0034 96.3613 37.1187 96.4199 35.4077V31.189C96.3613 30.2749 95.9863 29.8413 95.2949 29.8882L93.3965 29.8179C91.2168 29.5249 90.1562 28.3472 90.2148 26.2847V19.5698C90.332 17.3315 91.4219 16.2124 93.4844 16.2124L95.5586 16.0542C97.8438 16.1011 99.0449 17.3315 99.1621 19.7456V21.3804ZM109.691 16.0542L109.639 16.3882L111.326 29.6421L113.049 16.1421L115.967 16.0542L112.521 40.8218L110.043 40.7515L108.18 26.8823L106.246 40.8218L103.768 40.7515L100.498 16.3179L103.328 16.0542L105.051 29.6421L106.773 16.1421L109.568 16.0542H109.691ZM126.654 37.3062C126.561 39.5913 125.395 40.7339 123.156 40.7339H120.994C118.65 40.6753 117.508 39.4976 117.566 37.2007L117.812 19.4819C117.812 17.4194 118.932 16.3296 121.17 16.2124L123.156 16.1245C125.277 16.1831 126.396 17.3608 126.514 19.6577L126.654 37.3062ZM124.018 19.5698C124.018 19.0542 123.701 18.7378 123.068 18.6206H121.082C120.625 18.6206 120.396 18.9663 120.396 19.6577L120.309 37.3765C120.25 37.9507 120.566 38.2378 121.258 38.2378H122.98C123.613 38.355 123.988 38.0386 124.105 37.2886L124.018 19.5698ZM130.926 30.2573L131.031 40.8218H128.201L128.113 16.0542L129.836 16.1597V16.1245L133.703 16.0542C135.941 15.9956 137.061 17.1675 137.061 19.5698L137.131 26.7944C137.236 28.9272 136.381 30.0288 134.564 30.0991L137.588 40.5581L134.529 40.9097L131.752 30.2046L130.926 30.2573ZM130.803 18.7788L130.891 27.603L133.439 27.48C134.131 27.4214 134.447 26.8765 134.389 25.8452L134.213 19.5698C134.154 18.937 133.756 18.6499 133.018 18.7085L130.803 18.7788ZM138.994 16.1245L138.572 40.646L144.25 40.8218C146.371 40.8804 147.514 39.7319 147.678 37.3765L147.854 19.6577C147.854 17.4194 146.652 16.2417 144.25 16.1245H138.994ZM141.227 18.7085L144.074 18.7964C144.648 18.7964 144.965 19.1714 145.023 19.9214L144.848 36.8667C144.848 37.8979 144.361 38.355 143.389 38.2378L141.227 38.062V18.7085Z" fill="#FF5200"/>
<path d="M154.452 49.9961C153.951 48.9638 158.454 44.2512 159.603 44.2736C160.751 44.2961 159.732 47.3705 159.028 48.0886C158.343 48.8068 154.693 50.5123 154.452 49.9961Z" fill="white"/>
<path style="mix-blend-mode:screen" d="M8.41062 9.34401C8.41062 9.34401 122.62 -6.0955 157.398 5.38315C157.398 5.38315 160.455 9.73673 161.845 16.5925C161.845 16.5925 150.857 24.3571 130.031 25.2099C112.114 25.9505 47.5056 12.1043 32.405 10.3875C17.3043 8.67077 8.39209 9.33279 8.39209 9.33279L8.41062 9.34401Z" fill="url(#paint14_linear_107_2312)"/>
<path d="M8.41064 11.0047C8.41064 11.0047 11.0417 7.72829 17.1561 5.96666C23.2705 4.20503 32.72 4.87826 33.702 5.31587C34.7025 5.76469 32.09 6.93163 27.1985 8.02002C22.2884 9.10842 10.912 11.835 8.41064 10.9935V11.0047Z" fill="white"/>
<path d="M8.72565 11.8799C7.46572 11.9921 4.31588 17.9053 4.5197 18.8815C4.70498 19.8577 8.48478 16.7833 9.07769 15.1451C9.6706 13.5069 8.72565 11.8799 8.72565 11.8799Z" fill="white"/>
<defs>
<radialGradient id="paint0_radial_107_2312" cx="0" cy="0" r="1" gradientUnits="userSpaceOnUse" gradientTransform="translate(84.4546 54.8322) scale(63.3002 72.3278)">
<stop stop-color="#FFBD00"/>
<stop offset="1" stop-color="#FF772C"/>
</radialGradient>
<radialGradient id="paint1_radial_107_2312" cx="0" cy="0" r="1" gradientUnits="userSpaceOnUse" gradientTransform="translate(84.4546 54.8322) scale(63.3002 72.3278)">
<stop stop-color="#FFBD00"/>
<stop offset="1" stop-color="#FF772C"/>
</radialGradient>
<linearGradient id="paint2_linear_107_2312" x1="82.506" y1="55.8981" x2="82.506" y2="0.547027" gradientUnits="userSpaceOnUse">
<stop stop-color="#FFF300"/>
<stop offset="1" stop-color="#FF9700"/>
</linearGradient>
<linearGradient id="paint3_linear_107_2312" x1="82.5059" y1="54.8546" x2="82.5059" y2="1.14172" gradientUnits="userSpaceOnUse">
<stop stop-color="#FFCC00"/>
<stop offset="1" stop-color="#FF9700"/>
</linearGradient>
<linearGradient id="paint4_linear_107_2312" x1="157.083" y1="48.212" x2="8.5957" y2="48.212" gradientUnits="userSpaceOnUse">
<stop stop-color="#FF6140"/>
<stop offset="0.1" stop-color="#EE5A3B"/>
<stop offset="0.29" stop-color="#C44A31"/>
<stop offset="0.55" stop-color="#803020"/>
<stop offset="0.88" stop-color="#240D09"/>
<stop offset="1"/>
</linearGradient>
<radialGradient id="paint5_radial_107_2312" cx="0" cy="0" r="1" gradientUnits="userSpaceOnUse" gradientTransform="translate(35.1183 18.8969) rotate(-95.6359) scale(1.74452 2.86313)">
<stop stop-color="#00B359"/>
<stop offset="0.13" stop-color="#009148"/>
<stop offset="0.34" stop-color="#005D2E"/>
<stop offset="0.54" stop-color="#00351A"/>
<stop offset="0.73" stop-color="#00170B"/>
<stop offset="0.89" stop-color="#000603"/>
<stop offset="1"/>
</radialGradient>
<radialGradient id="paint6_radial_107_2312" cx="0" cy="0" r="1" gradientUnits="userSpaceOnUse" gradientTransform="translate(39.0239 11.4492) rotate(-95.6359) scale(1.74452 2.86313)">
<stop stop-color="#00B359"/>
<stop offset="0.13" stop-color="#009148"/>
<stop offset="0.34" stop-color="#005D2E"/>
<stop offset="0.54" stop-color="#00351A"/>
<stop offset="0.73" stop-color="#00170B"/>
<stop offset="0.89" stop-color="#000603"/>
<stop offset="1"/>
</radialGradient>
<radialGradient id="paint7_radial_107_2312" cx="0" cy="0" r="1" gradientUnits="userSpaceOnUse" gradientTransform="translate(36.7156 32.8225) rotate(-95.6359) scale(1.74452 2.86312)">
<stop stop-color="#00B359"/>
<stop offset="0.13" stop-color="#009148"/>
<stop offset="0.34" stop-color="#005D2E"/>
<stop offset="0.54" stop-color="#00351A"/>
<stop offset="0.73" stop-color="#00170B"/>
<stop offset="0.89" stop-color="#000603"/>
<stop offset="1"/>
</radialGradient>
<radialGradient id="paint8_radial_107_2312" cx="0" cy="0" r="1" gradientUnits="userSpaceOnUse" gradientTransform="translate(23.5487 10.7503) rotate(-95.6359) scale(4.87341 7.99828)">
<stop stop-color="#00B359"/>
<stop offset="0.13" stop-color="#009148"/>
<stop offset="0.34" stop-color="#005D2E"/>
<stop offset="0.54" stop-color="#00351A"/>
<stop offset="0.73" stop-color="#00170B"/>
<stop offset="0.89" stop-color="#000603"/>
<stop offset="1"/>
</radialGradient>
<radialGradient id="paint9_radial_107_2312" cx="0" cy="0" r="1" gradientUnits="userSpaceOnUse" gradientTransform="translate(46.1682 45.2835) rotate(-95.6359) scale(2.32978 3.82366)">
<stop stop-color="#00B359"/>
<stop offset="0.13" stop-color="#009148"/>
<stop offset="0.34" stop-color="#005D2E"/>
<stop offset="0.54" stop-color="#00351A"/>
<stop offset="0.73" stop-color="#00170B"/>
<stop offset="0.89" stop-color="#000603"/>
<stop offset="1"/>
</radialGradient>
<radialGradient id="paint10_radial_107_2312" cx="0" cy="0" r="1" gradientUnits="userSpaceOnUse" gradientTransform="translate(12.0592 50.2497) rotate(-95.6359) scale(1.15926 1.90259)">
<stop stop-color="#00B359"/>
<stop offset="0.13" stop-color="#009148"/>
<stop offset="0.34" stop-color="#005D2E"/>
<stop offset="0.54" stop-color="#00351A"/>
<stop offset="0.73" stop-color="#00170B"/>
<stop offset="0.89" stop-color="#000603"/>
<stop offset="1"/>
</radialGradient>
<radialGradient id="paint11_radial_107_2312" cx="0" cy="0" r="1" gradientUnits="userSpaceOnUse" gradientTransform="translate(65.8544 30.3516) rotate(-95.6359) scale(1.15926 1.90259)">
<stop stop-color="#00B359"/>
<stop offset="0.13" stop-color="#009148"/>
<stop offset="0.34" stop-color="#005D2E"/>
<stop offset="0.54" stop-color="#00351A"/>
<stop offset="0.73" stop-color="#00170B"/>
<stop offset="0.89" stop-color="#000603"/>
<stop offset="1"/>
</radialGradient>
<radialGradient id="paint12_radial_107_2312" cx="0" cy="0" r="1" gradientUnits="userSpaceOnUse" gradientTransform="translate(39.259 48.2537) rotate(-95.6359) scale(0.866634 1.42233)">
<stop stop-color="#00B359"/>
<stop offset="0.13" stop-color="#009148"/>
<stop offset="0.34" stop-color="#005D2E"/>
<stop offset="0.54" stop-color="#00351A"/>
<stop offset="0.73" stop-color="#00170B"/>
<stop offset="0.89" stop-color="#000603"/>
<stop offset="1"/>
</radialGradient>
<radialGradient id="paint13_radial_107_2312" cx="0" cy="0" r="1" gradientUnits="userSpaceOnUse" gradientTransform="translate(61.5371 48.4815) rotate(-95.6359) scale(1.81206 2.97396)">
<stop stop-color="#00B359"/>
<stop offset="0.13" stop-color="#009148"/>
<stop offset="0.34" stop-color="#005D2E"/>
<stop offset="0.54" stop-color="#00351A"/>
<stop offset="0.73" stop-color="#00170B"/>
<stop offset="0.89" stop-color="#000603"/>
<stop offset="1"/>
</radialGradient>
<linearGradient id="paint14_linear_107_2312" x1="8.41062" y1="13.1927" x2="161.863" y2="13.1927" gradientUnits="userSpaceOnUse">
<stop stop-color="#FF9840"/>
<stop offset="0.1" stop-color="#EE8E3B"/>
<stop offset="0.29" stop-color="#C47531"/>
<stop offset="0.55" stop-color="#804C20"/>
<stop offset="0.88" stop-color="#241509"/>
<stop offset="1"/>
</linearGradient>
</defs>
</svg>
