<svg width="135" height="59" viewBox="0 0 135 59" fill="none" xmlns="http://www.w3.org/2000/svg">
<path d="M1.62095 50.3216C4.95607 59.9691 124.444 62.6839 131.327 52.6549C137.588 43.5346 135.041 10.89 129.69 4.38355C122.398 -4.48996 11.9295 1.73608 6.0324 8.71373C0.514293 15.2202 -1.83545 40.3151 1.62095 50.3216Z" fill="url(#paint0_radial_387_2677)"/>
<path d="M1.62095 50.3216C4.95607 59.9691 124.444 62.6839 131.327 52.6549C137.588 43.5346 135.041 10.89 129.69 4.38355C122.398 -4.48996 11.9295 1.73608 6.0324 8.71373C0.514293 15.2202 -1.83545 40.3151 1.62095 50.3216Z" fill="url(#paint1_radial_387_2677)"/>
<path d="M1.89434 48.6165C5.2143 57.9275 124.217 58.5894 131.07 48.9082C137.3 40.1132 134.844 11.0359 129.523 4.76502C122.262 -3.78315 12.0665 2.21852 6.18451 8.94937C0.696726 15.2203 -1.56206 38.969 1.89434 48.6165Z" fill="url(#paint2_linear_387_2677)"/>
<path d="M2.89441 47.7864C6.15373 56.8169 123.414 57.4676 130.114 48.0781C136.208 39.5411 133.813 11.3276 128.598 5.2362C121.488 -3.05396 12.8391 2.76822 7.09363 9.29715C1.72712 15.3886 -0.486189 38.4305 2.89441 47.7864Z" fill="url(#paint3_linear_387_2677)"/>
<path style="mix-blend-mode:screen" d="M128.523 48.2463C128.523 48.2463 53.2398 57.2207 7.0332 49.3008C7.0332 49.3008 37.0493 52.913 50.4049 49.3008C73.0837 43.1757 122.565 41.3584 128.523 48.2463Z" fill="url(#paint4_linear_387_2677)"/>
<path style="mix-blend-mode:screen" d="M28.6202 17.1495C29.9088 17.0934 31.0154 17.8226 31.1064 18.7761C31.1822 19.7297 30.1968 20.5598 28.9082 20.6159C27.6197 20.672 26.513 19.9428 26.4221 18.9893C26.3463 18.0357 27.3316 17.2056 28.6202 17.1495Z" fill="url(#paint5_radial_387_2677)"/>
<path d="M28.8941 18.3947C29.2579 18.3835 29.5611 18.5854 29.5763 18.8435C29.5914 19.1127 29.3186 19.3371 28.9699 19.3483C28.6061 19.3595 28.3029 19.1576 28.2877 18.8995C28.2726 18.6303 28.5454 18.406 28.8941 18.3947Z" fill="#FFFFAB"/>
<path style="mix-blend-mode:screen" d="M31.8038 9.70078C33.0924 9.64469 34.199 10.3739 34.29 11.3274C34.3658 12.2809 33.3804 13.0999 32.0918 13.1672C30.8033 13.2233 29.6966 12.4941 29.6057 11.5406C29.5299 10.587 30.5152 9.76809 31.8038 9.70078Z" fill="url(#paint6_radial_387_2677)"/>
<path d="M32.0777 10.946C32.4415 10.9348 32.7447 11.1367 32.7599 11.3947C32.775 11.664 32.5022 11.8883 32.1535 11.8995C31.7897 11.9108 31.4865 11.7088 31.4713 11.4508C31.4561 11.1816 31.729 10.9572 32.0777 10.946Z" fill="#FFFFAB"/>
<path style="mix-blend-mode:screen" d="M29.9249 31.0711C31.2135 31.0151 32.3201 31.7442 32.4111 32.6978C32.4869 33.6513 31.5015 34.4702 30.2129 34.5375C28.9244 34.5936 27.8177 33.8644 27.7268 32.9109C27.651 31.9574 28.6363 31.1385 29.9249 31.0711Z" fill="url(#paint7_radial_387_2677)"/>
<path d="M30.2125 32.3164C30.5763 32.3051 30.8795 32.5071 30.8946 32.7651C30.9098 33.0343 30.6369 33.2587 30.2883 33.2699C29.9244 33.2811 29.6212 33.0792 29.6061 32.8212C29.5909 32.5632 29.8638 32.3276 30.2125 32.3164Z" fill="#FFFFAB"/>
<path style="mix-blend-mode:screen" d="M18.8889 5.88666C22.5121 5.72961 25.6198 7.7713 25.8321 10.4412C26.0443 13.1223 23.2852 15.422 19.6772 15.5791C16.0541 15.7361 12.9464 13.6944 12.7341 11.0245C12.5219 8.34342 15.2809 6.04371 18.8889 5.88666Z" fill="url(#paint8_radial_387_2677)"/>
<path d="M19.6778 9.37556C20.6784 9.33069 21.5425 9.89159 21.6031 10.632C21.6638 11.3724 20.9058 12.0118 19.9052 12.0567C18.9047 12.1016 18.0406 11.5407 17.98 10.8003C17.9193 10.0599 18.6773 9.42043 19.6778 9.37556Z" fill="#FFFFAB"/>
<path style="mix-blend-mode:screen" d="M37.5954 42.9512C39.3236 42.8727 40.8092 43.8486 40.9153 45.1275C41.0215 46.4064 39.7026 47.5057 37.9744 47.5843C36.2462 47.6628 34.7605 46.6868 34.6544 45.408C34.5483 44.1291 35.8672 43.0297 37.5954 42.9512Z" fill="url(#paint9_radial_387_2677)"/>
<path d="M37.9747 44.6114C38.4598 44.589 38.8691 44.8582 38.8994 45.2172C38.9297 45.5762 38.5659 45.8791 38.0808 45.9015C37.5957 45.9239 37.1864 45.6547 37.1561 45.2957C37.1257 44.9367 37.4896 44.6338 37.9747 44.6114Z" fill="#FFFFAB"/>
<path style="mix-blend-mode:screen" d="M9.77741 49.0651C10.6415 49.0315 11.3843 49.5139 11.4298 50.1533C11.4753 50.7927 10.8234 51.3424 9.95933 51.3761C9.09523 51.4097 8.35241 50.9273 8.30693 50.2879C8.26145 49.6485 8.91331 49.0988 9.77741 49.0651Z" fill="url(#paint10_radial_387_2677)"/>
<path d="M9.97376 49.8953C10.2163 49.8953 10.4134 50.0187 10.4286 50.1982C10.4286 50.3776 10.2618 50.5235 10.0192 50.5347C9.77669 50.5347 9.57961 50.4113 9.56445 50.2318C9.56445 50.0523 9.73121 49.9065 9.97376 49.8953Z" fill="#FFFFAB"/>
<path style="mix-blend-mode:screen" d="M53.8009 29.1643C54.665 29.1306 55.4078 29.613 55.4533 30.2524C55.4987 30.8918 54.8469 31.4415 53.9828 31.4752C53.1187 31.5088 52.3758 31.0265 52.3304 30.387C52.2849 29.7476 52.9368 29.1979 53.8009 29.1643Z" fill="url(#paint11_radial_387_2677)"/>
<path d="M53.9972 29.9944C54.2398 29.9944 54.4368 30.1178 54.452 30.2973C54.452 30.4768 54.2852 30.6226 54.0427 30.6338C53.8001 30.6338 53.6031 30.5104 53.5879 30.3309C53.5879 30.1514 53.7546 30.0056 53.9972 29.9944Z" fill="#FFFFAB"/>
<path style="mix-blend-mode:screen" d="M32.0768 47.36C32.7135 47.3264 33.2744 47.6966 33.3047 48.1677C33.3502 48.6389 32.8499 49.054 32.2132 49.0876C31.5765 49.1213 31.0156 48.7511 30.9853 48.2799C30.9398 47.8088 31.4401 47.3937 32.0768 47.3713V47.36Z" fill="url(#paint12_radial_387_2677)"/>
<path d="M32.2134 47.9771C32.3953 47.9771 32.5469 48.0668 32.562 48.2014C32.562 48.336 32.4407 48.4482 32.2588 48.4594C32.0769 48.4594 31.9253 48.3697 31.9102 48.2351C31.9102 48.1004 32.0314 47.9883 32.2134 47.9771Z" fill="#FFFFAB"/>
<path style="mix-blend-mode:screen" d="M50.2227 46.6533C51.5719 46.5972 52.7241 47.36 52.815 48.3584C52.8908 49.3569 51.86 50.2094 50.5259 50.2767C49.1919 50.344 48.0246 49.57 47.9336 48.5828C47.8578 47.5844 48.8887 46.7318 50.2379 46.6645L50.2227 46.6533Z" fill="url(#paint13_radial_387_2677)"/>
<path d="M50.5104 47.9545C50.8893 47.9433 51.2077 48.1453 51.2229 48.4257C51.238 48.7062 50.9651 48.9417 50.5861 48.953C50.2072 48.9642 49.8888 48.7623 49.8736 48.4818C49.8585 48.2013 50.1314 47.9658 50.5104 47.9545Z" fill="#FFFFAB"/>
<path d="M52.4551 21.3767L49.8008 21.4646L49.625 19.9177C49.625 19.1677 49.2793 18.7341 48.5879 18.6169L46.9531 18.8806C46.5547 19.0564 46.3262 19.4021 46.2676 19.9177L46.1797 25.9294C46.1797 26.6794 46.5254 27.0251 47.2168 26.9666L49.0273 27.0544C51.2539 27.113 52.3379 28.5486 52.2793 31.3611L52.209 37.0388C52.1504 39.6755 50.9727 40.8767 48.6758 40.6423L46.6895 40.7302C44.2285 40.7888 43.1152 39.5583 43.3496 37.0388L43.5957 35.2283L46.3555 35.4041L46.1797 37.0388C46.1797 37.6599 46.4668 37.9705 47.041 37.9705L48.5879 38.0583C49.2793 37.9998 49.6543 37.115 49.7129 35.4041V31.1853C49.6543 30.2712 49.2793 29.8376 48.5879 29.8845L46.6895 29.8142C44.5098 29.5212 43.4492 28.3435 43.5078 26.281V19.5662C43.625 17.3279 44.7148 16.2087 46.7773 16.2087L48.8516 16.0505C51.1367 16.0974 52.3379 17.3279 52.4551 19.7419V21.3767ZM53.791 16.2966L63.0723 15.9626L62.9844 18.6169H59.5566L59.8027 40.8181L57.0605 40.7302L56.9727 18.5291L53.9668 18.6169L53.791 16.2966ZM61.666 40.8181L65.1113 16.0505L67.5898 16.1208L70.8594 40.5544L68.0293 40.8181L67.5898 36.5115L64.8477 36.7751L64.584 40.7302L61.666 40.8181ZM67.2559 33.9275L66.2188 26.1931L65.1113 34.1912L67.2559 33.9275ZM75.1836 30.2537L75.2891 40.8181H72.459L72.3711 16.0505L74.0938 16.156V16.1208L77.9609 16.0505C80.1992 15.9919 81.3184 17.1638 81.3184 19.5662L81.3887 26.7908C81.4941 28.9236 80.6387 30.0251 78.8223 30.0955L81.8457 40.5544L78.7871 40.906L76.0098 30.2009L75.1836 30.2537ZM75.0605 18.7751L75.1484 27.5994L77.6973 27.4763C78.3887 27.4177 78.7051 26.8728 78.6465 25.8416L78.4707 19.5662C78.4121 18.9333 78.0137 18.6462 77.2754 18.7048L75.0605 18.7751ZM82.8301 16.2966L92.1113 15.9626L92.0234 18.6169H88.5957L88.8418 40.8181L86.0996 40.7302L86.0117 18.5291L83.0059 18.6169L82.8301 16.2966Z" fill="#FF5200"/>
<path d="M126.37 49.985C125.96 48.9529 129.644 44.2413 130.584 44.2638C131.524 44.2862 130.69 47.3599 130.114 48.0779C129.553 48.7959 126.567 50.501 126.37 49.985Z" fill="white"/>
<path style="mix-blend-mode:screen" d="M6.88039 9.34194C6.88039 9.34194 100.324 -6.09414 128.779 5.38196C128.779 5.38196 131.28 9.73457 132.417 16.5888C132.417 16.5888 123.428 24.3517 106.388 25.2043C91.7289 25.9447 38.8672 12.1016 26.5121 10.3852C14.157 8.66886 6.86523 9.33072 6.86523 9.33072L6.88039 9.34194Z" fill="url(#paint14_linear_387_2677)"/>
<path d="M6.88086 11.0022C6.88086 11.0022 9.03353 7.72654 14.0362 5.9653C19.0389 4.20407 26.7703 4.87715 27.5738 5.31466C28.3924 5.76338 26.2549 6.93006 22.2527 8.01821C18.2354 9.10637 8.92741 11.8324 6.88086 10.991V11.0022Z" fill="white"/>
<path d="M7.13842 11.8772C6.10756 11.9894 3.53042 17.9013 3.69718 18.8773C3.84878 19.8533 6.94134 16.7795 7.42645 15.1417C7.91156 13.5038 7.13842 11.8772 7.13842 11.8772Z" fill="white"/>
<defs>
<radialGradient id="paint0_radial_387_2677" cx="0" cy="0" r="1" gradientUnits="userSpaceOnUse" gradientTransform="translate(69.0992 54.82) scale(51.7911 72.3117)">
<stop stop-color="#FFBD00"/>
<stop offset="1" stop-color="#FF772C"/>
</radialGradient>
<radialGradient id="paint1_radial_387_2677" cx="0" cy="0" r="1" gradientUnits="userSpaceOnUse" gradientTransform="translate(69.0992 54.82) scale(51.7911 72.3117)">
<stop stop-color="#FFBD00"/>
<stop offset="1" stop-color="#FF772C"/>
</radialGradient>
<linearGradient id="paint2_linear_387_2677" x1="67.5052" y1="55.8858" x2="67.5052" y2="0.547026" gradientUnits="userSpaceOnUse">
<stop stop-color="#FFF300"/>
<stop offset="1" stop-color="#FF9700"/>
</linearGradient>
<linearGradient id="paint3_linear_387_2677" x1="67.5048" y1="54.8425" x2="67.5048" y2="1.1416" gradientUnits="userSpaceOnUse">
<stop stop-color="#FFCC00"/>
<stop offset="1" stop-color="#FF9700"/>
</linearGradient>
<linearGradient id="paint4_linear_387_2677" x1="128.523" y1="48.2014" x2="7.0332" y2="48.2014" gradientUnits="userSpaceOnUse">
<stop stop-color="#FF6140"/>
<stop offset="0.1" stop-color="#EE5A3B"/>
<stop offset="0.29" stop-color="#C44A31"/>
<stop offset="0.55" stop-color="#803020"/>
<stop offset="0.88" stop-color="#240D09"/>
<stop offset="1"/>
</linearGradient>
<radialGradient id="paint5_radial_387_2677" cx="0" cy="0" r="1" gradientUnits="userSpaceOnUse" gradientTransform="translate(28.7332 18.8925) rotate(-94.6171) scale(1.74136 2.3463)">
<stop stop-color="#00B359"/>
<stop offset="0.13" stop-color="#009148"/>
<stop offset="0.34" stop-color="#005D2E"/>
<stop offset="0.54" stop-color="#00351A"/>
<stop offset="0.73" stop-color="#00170B"/>
<stop offset="0.89" stop-color="#000603"/>
<stop offset="1"/>
</radialGradient>
<radialGradient id="paint6_radial_387_2677" cx="0" cy="0" r="1" gradientUnits="userSpaceOnUse" gradientTransform="translate(31.9286 11.4465) rotate(-94.6171) scale(1.74136 2.3463)">
<stop stop-color="#00B359"/>
<stop offset="0.13" stop-color="#009148"/>
<stop offset="0.34" stop-color="#005D2E"/>
<stop offset="0.54" stop-color="#00351A"/>
<stop offset="0.73" stop-color="#00170B"/>
<stop offset="0.89" stop-color="#000603"/>
<stop offset="1"/>
</radialGradient>
<radialGradient id="paint7_radial_387_2677" cx="0" cy="0" r="1" gradientUnits="userSpaceOnUse" gradientTransform="translate(30.0408 32.8149) rotate(-94.6171) scale(1.74136 2.3463)">
<stop stop-color="#00B359"/>
<stop offset="0.13" stop-color="#009148"/>
<stop offset="0.34" stop-color="#005D2E"/>
<stop offset="0.54" stop-color="#00351A"/>
<stop offset="0.73" stop-color="#00170B"/>
<stop offset="0.89" stop-color="#000603"/>
<stop offset="1"/>
</radialGradient>
<radialGradient id="paint8_radial_387_2677" cx="0" cy="0" r="1" gradientUnits="userSpaceOnUse" gradientTransform="translate(19.2684 10.7478) rotate(-94.6171) scale(4.86456 6.5545)">
<stop stop-color="#00B359"/>
<stop offset="0.13" stop-color="#009148"/>
<stop offset="0.34" stop-color="#005D2E"/>
<stop offset="0.54" stop-color="#00351A"/>
<stop offset="0.73" stop-color="#00170B"/>
<stop offset="0.89" stop-color="#000603"/>
<stop offset="1"/>
</radialGradient>
<radialGradient id="paint9_radial_387_2677" cx="0" cy="0" r="1" gradientUnits="userSpaceOnUse" gradientTransform="translate(37.7743 45.2732) rotate(-94.6171) scale(2.32555 3.13344)">
<stop stop-color="#00B359"/>
<stop offset="0.13" stop-color="#009148"/>
<stop offset="0.34" stop-color="#005D2E"/>
<stop offset="0.54" stop-color="#00351A"/>
<stop offset="0.73" stop-color="#00170B"/>
<stop offset="0.89" stop-color="#000603"/>
<stop offset="1"/>
</radialGradient>
<radialGradient id="paint10_radial_387_2677" cx="0" cy="0" r="1" gradientUnits="userSpaceOnUse" gradientTransform="translate(9.86727 50.2385) rotate(-94.6171) scale(1.15716 1.55915)">
<stop stop-color="#00B359"/>
<stop offset="0.13" stop-color="#009148"/>
<stop offset="0.34" stop-color="#005D2E"/>
<stop offset="0.54" stop-color="#00351A"/>
<stop offset="0.73" stop-color="#00170B"/>
<stop offset="0.89" stop-color="#000603"/>
<stop offset="1"/>
</radialGradient>
<radialGradient id="paint11_radial_387_2677" cx="0" cy="0" r="1" gradientUnits="userSpaceOnUse" gradientTransform="translate(53.8813 30.3448) rotate(-94.6171) scale(1.15716 1.55915)">
<stop stop-color="#00B359"/>
<stop offset="0.13" stop-color="#009148"/>
<stop offset="0.34" stop-color="#005D2E"/>
<stop offset="0.54" stop-color="#00351A"/>
<stop offset="0.73" stop-color="#00170B"/>
<stop offset="0.89" stop-color="#000603"/>
<stop offset="1"/>
</radialGradient>
<radialGradient id="paint12_radial_387_2677" cx="0" cy="0" r="1" gradientUnits="userSpaceOnUse" gradientTransform="translate(32.1212 48.2429) rotate(-94.6171) scale(0.86506 1.16558)">
<stop stop-color="#00B359"/>
<stop offset="0.13" stop-color="#009148"/>
<stop offset="0.34" stop-color="#005D2E"/>
<stop offset="0.54" stop-color="#00351A"/>
<stop offset="0.73" stop-color="#00170B"/>
<stop offset="0.89" stop-color="#000603"/>
<stop offset="1"/>
</radialGradient>
<radialGradient id="paint13_radial_387_2677" cx="0" cy="0" r="1" gradientUnits="userSpaceOnUse" gradientTransform="translate(50.3483 48.4708) rotate(-94.6171) scale(1.80876 2.43712)">
<stop stop-color="#00B359"/>
<stop offset="0.13" stop-color="#009148"/>
<stop offset="0.34" stop-color="#005D2E"/>
<stop offset="0.54" stop-color="#00351A"/>
<stop offset="0.73" stop-color="#00170B"/>
<stop offset="0.89" stop-color="#000603"/>
<stop offset="1"/>
</radialGradient>
<linearGradient id="paint14_linear_387_2677" x1="6.88039" y1="13.1897" x2="132.433" y2="13.1897" gradientUnits="userSpaceOnUse">
<stop stop-color="#FF9840"/>
<stop offset="0.1" stop-color="#EE8E3B"/>
<stop offset="0.29" stop-color="#C47531"/>
<stop offset="0.55" stop-color="#804C20"/>
<stop offset="0.88" stop-color="#241509"/>
<stop offset="1"/>
</linearGradient>
</defs>
</svg>
