<svg width="211" height="64" viewBox="0 0 211 64" fill="none" xmlns="http://www.w3.org/2000/svg">
<path d="M5.29699 8.35943C-0.889881 15.4774 -1.88309 47.9844 3.51749 57.1302C8.54562 65.6346 194.004 66.6692 203.708 57.8337C213.413 48.9983 212.419 14.6498 203.377 6.47647C194.355 -1.67613 15.4153 -3.26941 5.29699 8.35943Z" fill="url(#paint0_linear_521_9967)"/>
<path d="M10.1389 12.4145C4.46937 18.7462 5.69019 46.225 10.6562 54.3569C15.2705 61.9095 187.941 62.8406 196.859 54.9777C205.777 47.1148 207.184 16.3253 198.908 9.0831C190.631 1.84094 19.4089 2.08924 10.1389 12.4145Z" fill="url(#paint1_radial_521_9967)"/>
<defs>
<linearGradient id="paint0_linear_521_9967" x1="280.299" y1="63.9999" x2="280.299" y2="-9.15527e-05" gradientUnits="userSpaceOnUse">
<stop stop-color="#008EC2"/>
<stop offset="1" stop-color="#002092"/>
</linearGradient>
<radialGradient id="paint1_radial_521_9967" cx="0" cy="0" r="1" gradientUnits="userSpaceOnUse" gradientTransform="translate(279.927 55.1018) rotate(-0.477872) scale(252.082 258.429)">
<stop stop-color="#00D3C2"/>
<stop offset="1" stop-color="#0083C2"/>
</radialGradient>
</defs>
</svg>
