<svg width="1400" height="529" viewBox="0 0 1400 529" fill="none" xmlns="http://www.w3.org/2000/svg">
<g opacity="0.2">
<path d="M1342.86 318.747C1355.05 324.852 1366.74 333.976 1365.85 346.457C1364 371.962 1310.11 378.033 1237.44 325.836C1164.78 273.638 1116.96 390.582 1050.5 383.663C984.046 376.778 977.293 305.146 902.097 314.406C826.9 323.631 807.459 317.594 807.459 309.318C807.459 301.043 827.426 285.95 828.691 285C825.674 285.678 709.318 312.744 696.533 370.165C683.591 428.365 845.641 366.739 916.245 370.165C986.829 373.59 995.43 462.452 1115.93 480.054C1236.43 497.657 1168.94 411.441 1182.8 393.33C1196.65 375.218 1303.9 416.359 1377.85 383.697C1430.18 360.566 1377.91 332.958 1342.84 318.781L1342.86 318.747ZM829.197 367.18C825.577 368.672 821.899 369.52 818.24 370.538C813.862 371.793 809.619 373.149 805.202 373.59C797.573 374.37 790.042 375.218 782.394 375.15C774.473 375.082 766.572 376.405 758.671 377.185C752.152 377.83 745.107 380.747 738.626 378.271C737.147 377.728 735.863 376.337 734.812 374.37C733.333 371.623 734.287 369.011 735.279 366.128C738.12 357.955 743.472 352.935 748.318 349.136C755.499 343.54 762.913 339.131 770.484 335.671C772.196 338.046 773.753 336.723 775.621 336.044C778.793 334.925 782.257 335.875 785.488 335.604C791.521 335.095 797.32 333.942 803.392 334.62C805.999 334.891 808.588 335.095 811.176 335.57C814.971 336.248 818.591 338.046 822.249 339.674C828.068 342.217 834.023 344.32 839.725 347.746C841.223 348.628 847.081 351.341 846.75 355.614C841.846 362.296 835.113 364.636 829.197 367.112V367.18ZM872.808 365.179C870.064 367.655 866.561 369.859 863.487 370.368C860.509 370.843 857.532 372.03 854.535 371.962C853.25 371.962 851.596 372.471 850.759 370.368C849.728 367.756 850.759 365.688 851.343 364.704C852.316 361.787 852.413 361.685 854.009 359.956C856.422 357.412 858.544 356.157 861.287 355.038C864.927 353.545 868.974 351.307 872.75 352.731C874.132 353.24 876.389 355.445 876.253 358.395C876.117 361.041 874.015 364.026 872.769 365.145L872.808 365.179ZM1213.08 378.779C1210.94 380.475 1208.68 381.764 1206.39 382.476C1204.67 382.985 1202.84 383.256 1201.27 381.662C1200.45 380.848 1200.2 379.22 1200.08 377.694C1200 376.88 1199.9 376.405 1200.08 375.659C1200.24 375.082 1200.62 374.574 1201.77 374.777C1202.82 372.708 1203.87 371.352 1205.47 370.572C1207.73 369.418 1210.2 368.944 1212.42 370.402C1213.47 371.114 1215.03 371.928 1215.36 374.065C1215.69 376.134 1213.97 378.067 1213.08 378.745V378.779ZM1202.8 362.533C1200.61 363.754 1198.41 364.84 1196.15 365.552C1194.01 366.23 1191.85 366.535 1189.69 366.942C1187.24 367.383 1184.8 367.96 1182.33 368.265C1180.04 368.537 1177.74 369.045 1175.44 369.113C1171.92 369.283 1168.4 370.165 1164.89 370.979C1162.58 371.521 1160.3 372.301 1157.99 372.912C1156.39 373.319 1154.78 373.387 1153.18 373.76C1150.61 374.37 1147.44 373.929 1145.18 371.589C1143.29 369.656 1141.68 367.044 1140.08 364.5C1139.34 363.347 1138.8 362.025 1138.41 360.431C1138.18 359.447 1138.27 358.972 1138.45 357.887C1137.75 358.124 1137.71 357.141 1138.16 355.954C1138.53 354.936 1139.13 353.952 1139.65 353.138C1139.98 352.63 1140.35 352.494 1140.71 352.155C1141.04 351.85 1141.27 351.375 1141.58 351.036C1142.61 350.052 1143.41 348.628 1144.48 347.712C1145.65 346.796 1146.72 345.575 1147.85 344.591C1149.37 343.269 1150.94 342.183 1152.48 340.962C1155.96 338.215 1159.43 335.502 1162.93 332.89C1165.52 330.957 1168.24 329.431 1170.87 327.701C1173.54 325.937 1176.3 324.513 1179.06 323.292C1181.53 322.24 1184.08 321.528 1186.57 320.884C1189.12 320.239 1191.69 319.561 1194.28 319.629C1197.49 319.697 1200.76 320.104 1203.91 321.155C1206.21 321.901 1208.49 322.851 1210.76 323.902C1214.68 325.7 1218.65 328.142 1221.9 332.517C1223.02 334.043 1224.23 336.146 1224.7 338.656C1225.01 340.352 1224.76 342.048 1224.25 343.574C1222.71 348.424 1219.21 351.578 1216.39 353.579C1211.89 356.734 1207.46 359.99 1202.82 362.499L1202.8 362.533ZM1301.02 380.814C1299.78 385.902 1295.17 387.666 1292.58 388.988C1287.54 391.498 1282.24 391.023 1277.05 391.532C1271.29 392.109 1265.58 392.143 1259.79 392.143C1253.99 392.143 1248.63 392.482 1243.11 389.734C1239.33 387.835 1235.42 386.953 1231.63 385.224C1229.97 384.443 1228.4 383.358 1226.78 382.442C1225.79 381.866 1224.39 381.289 1223.57 380.034C1221.25 376.575 1224.46 374.54 1226.22 373.217C1229.39 370.775 1232.54 368.808 1236.02 368.774C1237.25 368.774 1238.34 367.994 1239.57 367.96C1240.67 367.892 1241.8 367.96 1239.7 367.146C1244.57 367.214 1249.34 366.027 1254.2 366.4C1261.69 366.942 1269.11 368.333 1276.58 369.927C1280.1 370.707 1283.62 371.691 1287.17 372.369C1290.05 372.912 1292.97 373.285 1295.79 374.506C1297.46 375.252 1302.17 376.202 1301.06 380.747L1301.02 380.814ZM1390.8 363.246C1390.27 369.758 1387.76 373.895 1384.57 376.677C1382.31 378.644 1380.38 379.288 1377.87 379.865C1375.23 380.475 1372.66 381.628 1370.03 382.341C1367.48 383.053 1364.56 382.68 1361.99 382.51C1360.4 382.408 1358.43 382.035 1357.09 380.441C1353.51 376.134 1357.17 369.554 1359.42 366.603C1362.67 362.296 1366.43 359.854 1369.97 356.462C1372.37 354.19 1374.35 351.51 1376.47 348.661C1376.01 349.984 1377.27 348.865 1378.59 348.661C1379.53 348.492 1380.19 348.458 1381.05 348.051C1383.19 347.033 1386.44 347.915 1388.15 350.425C1390.29 353.613 1391.15 358.497 1390.78 363.313L1390.8 363.246Z" fill="url(#paint0_linear_521_9825)" style="mix-blend-mode:screen"/>
</g>
<g opacity="0.2">
<path d="M656.73 139.356C668.907 134.158 680.596 126.389 679.702 115.762C677.854 94.0444 623.995 88.875 551.366 133.32C478.736 177.765 430.946 78.1897 364.521 84.0811C298.097 89.9436 291.348 150.937 216.19 143.052C141.032 135.197 121.601 140.338 121.601 147.384C121.601 154.431 141.557 167.282 142.822 168.091C139.807 167.513 23.5107 144.468 10.7315 95.575C-2.20325 46.0182 159.763 98.4918 230.331 95.575C300.879 92.6582 309.476 16.9946 429.915 2.00624C550.354 -12.9821 482.899 60.429 496.748 75.8505C510.597 91.272 617.79 56.2415 691.703 84.0522C744.006 103.748 691.761 127.256 656.711 139.327L656.73 139.356ZM143.327 98.1164C139.71 96.8457 136.033 96.1237 132.377 95.2573C128 94.1888 123.76 93.0336 119.345 92.6582C111.72 91.994 104.192 91.272 96.5483 91.3298C88.6318 91.3875 80.7348 90.2612 72.8378 89.597C66.3218 89.0483 59.2806 86.5647 52.8035 88.6729C51.3253 89.1349 50.0415 90.319 48.9912 91.994C47.5129 94.3332 48.466 96.5569 49.458 99.0116C52.2978 105.972 57.6468 110.246 62.49 113.48C69.6673 118.245 77.0781 122 84.6444 124.945C86.3561 122.924 87.9121 124.05 89.7794 124.628C92.9499 125.581 96.4121 124.772 99.641 125.003C105.671 125.436 111.467 126.418 117.536 125.84C120.142 125.609 122.729 125.436 125.316 125.032C129.109 124.454 132.727 122.924 136.383 121.537C142.199 119.372 148.151 117.581 153.85 114.664C155.348 113.913 161.203 111.603 160.872 107.964C155.97 102.275 149.24 100.282 143.327 98.1742V98.1164ZM186.917 99.8203C184.174 97.7121 180.673 95.8349 177.6 95.4017C174.624 94.9974 171.648 93.9867 168.652 94.0444C167.369 94.0444 165.715 93.6112 164.879 95.4017C163.848 97.6254 164.879 99.3871 165.462 100.225C166.435 102.708 166.532 102.795 168.127 104.268C170.539 106.434 172.659 107.502 175.402 108.455C179.039 109.726 183.085 111.632 186.858 110.419C188.239 109.986 190.495 108.109 190.359 105.596C190.223 103.344 188.122 100.802 186.878 99.8491L186.917 99.8203ZM527.013 88.2397C524.874 86.7957 522.617 85.6983 520.322 85.0918C518.61 84.6586 516.782 84.4276 515.207 85.785C514.39 86.4781 514.137 87.8643 514.02 89.1638C513.942 89.8569 513.845 90.2612 514.02 90.8966C514.176 91.3875 514.565 91.8207 515.712 91.6474C516.763 93.4091 517.813 94.5642 519.408 95.2285C521.664 96.2104 524.135 96.6147 526.352 95.3729C527.402 94.7664 528.958 94.0733 529.289 92.2539C529.62 90.4923 527.908 88.8462 527.013 88.2686V88.2397ZM516.743 102.073C514.545 101.033 512.347 100.109 510.091 99.5026C507.951 98.925 505.792 98.6651 503.633 98.3185C501.183 97.9431 498.751 97.4522 496.281 97.1922C493.986 96.9612 491.691 96.528 489.395 96.4703C485.875 96.3259 482.354 95.575 478.853 94.8819C476.538 94.4199 474.263 93.7556 471.948 93.2358C470.353 92.8892 468.739 92.8315 467.144 92.5138C464.576 91.994 461.406 92.3694 459.149 94.3621C457.263 96.0082 455.648 98.2319 454.053 100.398C453.314 101.38 452.77 102.506 452.381 103.863C452.147 104.701 452.244 105.105 452.419 106.029C451.719 105.827 451.68 106.665 452.128 107.675C452.497 108.542 453.1 109.379 453.625 110.072C453.956 110.506 454.326 110.621 454.676 110.91C455.006 111.17 455.24 111.574 455.551 111.863C456.582 112.7 457.379 113.913 458.449 114.693C459.616 115.473 460.686 116.512 461.814 117.35C463.331 118.476 464.907 119.4 466.443 120.44C469.925 122.779 473.387 125.09 476.889 127.313C479.476 128.959 482.199 130.259 484.824 131.732C487.489 133.234 490.251 134.446 493.013 135.486C495.483 136.381 498.032 136.988 500.521 137.537C503.069 138.085 505.637 138.663 508.224 138.605C511.433 138.547 514.701 138.201 517.852 137.306C520.147 136.67 522.423 135.862 524.699 134.966C528.608 133.436 532.576 131.356 535.824 127.631C536.953 126.331 538.159 124.541 538.625 122.404C538.937 120.96 538.684 119.516 538.178 118.216C536.641 114.087 533.14 111.401 530.32 109.697C525.827 107.011 521.392 104.239 516.763 102.102L516.743 102.073ZM614.911 86.5069C613.666 82.175 609.057 80.6733 606.47 79.547C601.432 77.41 596.141 77.8143 590.948 77.3811C585.19 76.8901 579.491 76.8613 573.695 76.8613C567.899 76.8613 562.55 76.5725 557.026 78.9117C553.252 80.5289 549.343 81.2798 545.55 82.7526C543.896 83.4168 542.321 84.341 540.707 85.1207C539.715 85.6117 538.314 86.1026 537.497 87.1711C535.183 90.1168 538.392 91.8496 540.142 92.9759C543.313 95.0552 546.464 96.7302 549.946 96.7591C551.171 96.7591 552.26 97.4233 553.486 97.4522C554.594 97.5099 555.723 97.4522 553.622 98.1453C558.485 98.0875 563.25 99.0983 568.113 98.7806C575.601 98.3186 583.012 97.1345 590.481 95.7772C594.002 95.1129 597.522 94.2754 601.062 93.6979C603.941 93.2358 606.859 92.9181 609.679 91.8785C611.352 91.2431 616.059 90.4345 614.95 86.5647L614.911 86.5069ZM704.638 101.466C704.112 95.9216 701.603 92.3983 698.413 90.0302C696.157 88.3552 694.231 87.8065 691.722 87.3156C689.077 86.7957 686.509 85.8138 683.884 85.2074C681.336 84.6009 678.418 84.9186 675.85 85.063C674.255 85.1496 672.291 85.4673 670.949 86.8246C667.37 90.4923 671.027 96.0948 673.283 98.6073C676.531 102.275 680.285 104.354 683.825 107.242C686.218 109.177 688.202 111.459 690.322 113.884C689.855 112.758 691.119 113.711 692.442 113.884C693.376 114.029 694.037 114.058 694.893 114.404C697.032 115.271 700.281 114.52 701.992 112.383C704.132 109.668 704.988 105.509 704.618 101.409L704.638 101.466Z" fill="url(#paint1_linear_521_9825)" style="mix-blend-mode:screen"/>
</g>
<g opacity="0.2">
<path d="M835.715 405.783C832.882 447.69 787.153 449.149 787.153 449.149C787.153 449.149 819.899 445.299 806.127 399.785C792.355 354.272 662.576 310.946 619.471 373.523C576.367 436.139 549.217 508.361 472.181 488.138C395.145 467.914 327.19 380.25 280.068 373.523C232.945 366.835 292.353 452.756 292.353 452.756C292.353 452.756 250.619 449.271 188.563 515.049C126.553 580.867 -62.7037 390.666 21.0209 343.613C130.246 282.293 257.122 344.869 385.484 365.417C513.846 385.965 598.291 323.47 682.48 329.265C766.669 335.061 838.526 363.917 835.692 405.783H835.715ZM25.9213 391.679C24.1794 390.423 21.9034 391.355 21.1138 394.841C19.8132 400.717 22.5073 408.337 23.8775 413.241C25.0155 417.253 26.6645 419.847 28.267 423.17C29.9391 426.696 32.099 426.818 34.7931 428.317C30.032 427.75 35.0253 431.114 37.1155 431.235C39.438 431.397 42.2249 431.073 43.6648 427.385C44.7564 424.508 44.2222 420.009 43.8042 416.767C42.8984 410.201 39.5773 405.419 36.651 401.366C33.3531 396.786 29.7998 394.395 25.9213 391.639V391.679ZM161.762 348.354C157.024 337.979 149.801 332.953 142.718 329.225C133.823 324.524 124.045 322.7 114.778 323.591C105.791 324.483 97.0813 326.793 88.3257 330.36C81.0332 333.278 73.0439 337.979 66.541 344.585C60.7349 350.462 54.4875 354.92 49.0065 361.729C45.2441 366.39 41.6675 371.213 38.1606 376.36C41.4817 373.158 41.4121 376.724 41.4817 380.291C41.5282 383.412 42.2017 385.884 42.7126 388.883C43.3629 392.571 44.2919 396.097 45.337 399.461C46.6144 403.635 48.2865 405.459 50.6322 407.85C56.6474 413.93 63.4057 416.605 70.0712 419.725C78.9197 423.859 88.3721 425.805 97.5226 426.412C106.952 427.02 116.52 424.791 125.88 422.603C134.403 420.657 142.462 416.078 149.731 408.053C156.35 400.717 162.319 392.49 164.735 379.075C166.662 368.335 165.896 357.311 161.808 348.395L161.762 348.354ZM216.316 446.19C214.226 438.409 209.117 433.627 205.006 429.817C199.014 424.345 192.488 422.157 185.846 421.265C177.74 420.212 170.332 421.873 162.644 426.331C159.207 428.317 155.491 430.546 152.24 433.302C149.453 435.653 147.2 438.814 144.831 442.3C141.556 447.082 138.7 453.121 136.61 459.686C135.448 463.293 134.287 468.36 134.775 472.656C135.146 475.736 135.657 479.019 136.865 481.288C137.933 483.274 139.095 485.138 141.301 489.921C143.995 493.852 146.41 497.824 149.615 500.539C154.167 504.39 158.766 507.389 163.852 507.308C173.095 507.227 181.479 500.296 189.724 493.974C197.342 488.138 204.286 480.194 210.278 470.143C212.554 466.333 214.017 462.24 215.805 457.782C217.176 454.377 217.361 450 216.339 446.109L216.316 446.19Z" fill="url(#paint2_linear_521_9825)" style="mix-blend-mode:screen"/>
</g>
<g opacity="0.2">
<path d="M1390.39 55.8973C1388.72 80.4928 1361.84 81.3492 1361.84 81.3492C1361.84 81.3492 1381.09 79.0894 1372.99 52.3768C1364.89 25.6643 1288.59 0.236214 1263.24 36.963C1237.9 73.7136 1221.93 116.102 1176.64 104.232C1131.34 92.3624 1091.38 40.9116 1063.68 36.963C1035.97 33.0382 1070.9 83.4662 1070.9 83.4662C1070.9 83.4662 1046.36 81.4205 1009.87 120.026C973.412 158.656 862.131 47.0248 911.36 19.4084C975.583 -16.581 1050.18 20.1458 1125.66 32.2057C1201.13 44.2655 1250.79 7.58633 1300.29 10.9878C1349.79 14.3894 1392.04 31.3255 1390.38 55.8973H1390.39ZM914.241 47.6195C913.217 46.8821 911.879 47.4292 911.415 49.4749C910.65 52.924 912.234 57.3959 913.04 60.2741C913.709 62.629 914.678 64.1513 915.621 66.1018C916.604 68.1713 917.874 68.2426 919.458 69.1227C916.658 68.7897 919.594 70.764 920.823 70.8354C922.189 70.9305 923.828 70.7402 924.674 68.5756C925.316 66.8868 925.002 64.2464 924.756 62.3435C924.224 58.49 922.271 55.6832 920.55 53.3045C918.611 50.6166 916.522 49.2132 914.241 47.5957V47.6195ZM994.114 22.1914C991.328 16.102 987.081 13.1524 982.916 10.9641C977.686 8.20478 971.937 7.13438 966.488 7.65769C961.203 8.181 956.083 9.53684 950.934 11.6301C946.646 13.3427 941.949 16.102 938.125 19.9792C934.711 23.4283 931.038 26.0449 927.815 30.0411C925.603 32.7765 923.5 35.6072 921.438 38.6281C923.391 36.7489 923.35 38.8422 923.391 40.9354C923.418 42.767 923.814 44.218 924.114 45.9782C924.497 48.1428 925.043 50.2122 925.658 52.1866C926.409 54.6366 927.392 55.707 928.771 57.1104C932.308 60.6784 936.282 62.2484 940.201 64.0799C945.404 66.5062 950.962 67.648 956.342 68.0048C961.886 68.3616 967.512 67.0533 973.016 65.7688C978.027 64.627 982.766 61.9391 987.04 57.2294C990.932 52.924 994.441 48.0952 995.862 40.2218C996.995 33.9183 996.544 27.4483 994.141 22.2152L994.114 22.1914ZM1026.19 79.6127C1024.96 75.0456 1021.96 72.2388 1019.54 70.0028C1016.02 66.7916 1012.18 65.5071 1008.27 64.9838C1003.51 64.3654 999.153 65.3406 994.633 67.9572C992.612 69.1227 990.427 70.431 988.515 72.0485C986.876 73.4281 985.552 75.2835 984.159 77.3292C982.233 80.136 980.554 83.6803 979.325 87.5337C978.642 89.6507 977.959 92.6241 978.246 95.1455C978.464 96.9533 978.765 98.88 979.475 100.212C980.103 101.378 980.786 102.472 982.083 105.279C983.667 107.586 985.087 109.917 986.972 111.511C989.648 113.771 992.352 115.531 995.343 115.483C1000.78 115.436 1005.71 111.368 1010.56 107.657C1015.03 104.232 1019.12 99.5698 1022.64 93.6707C1023.98 91.4348 1024.84 89.0323 1025.89 86.4157C1026.7 84.4176 1026.81 81.8487 1026.2 79.5651L1026.19 79.6127Z" fill="url(#paint3_linear_521_9825)" style="mix-blend-mode:screen"/>
</g>
<defs>
<linearGradient id="paint0_linear_521_9825" x1="695.813" y1="383.697" x2="1400.02" y2="383.697" gradientUnits="userSpaceOnUse">
<stop stop-color="#070019"/>
<stop offset="1" stop-color="#1D6DAE"/>
</linearGradient>
<linearGradient id="paint1_linear_521_9825" x1="10.0118" y1="84.0522" x2="713.857" y2="84.0522" gradientUnits="userSpaceOnUse">
<stop stop-color="#1D6DAE"/>
<stop offset="1" stop-color="#070019"/>
</linearGradient>
<linearGradient id="paint2_linear_521_9825" x1="0.0026688" y1="423.089" x2="835.808" y2="423.089" gradientUnits="userSpaceOnUse">
<stop stop-color="#1D6DAE"/>
<stop offset="0.99" stop-color="#070019"/>
</linearGradient>
<linearGradient id="paint3_linear_521_9825" x1="899.002" y1="66.0542" x2="1390.44" y2="66.0542" gradientUnits="userSpaceOnUse">
<stop stop-color="#070019"/>
<stop offset="1" stop-color="#1D6DAE"/>
</linearGradient>
</defs>
</svg>
