<svg width="135" height="59" viewBox="0 0 135 59" fill="none" xmlns="http://www.w3.org/2000/svg">
<path d="M1.62095 50.3216C4.95607 59.9691 124.444 62.6839 131.327 52.6549C137.588 43.5346 135.041 10.89 129.69 4.38355C122.398 -4.48996 11.9295 1.73608 6.0324 8.71373C0.514293 15.2202 -1.83545 40.3151 1.62095 50.3216Z" fill="url(#paint0_radial_50_2060)"/>
<path d="M1.62095 50.3216C4.95607 59.9691 124.444 62.6839 131.327 52.6549C137.588 43.5346 135.041 10.89 129.69 4.38355C122.398 -4.48996 11.9295 1.73608 6.0324 8.71373C0.514293 15.2202 -1.83545 40.3151 1.62095 50.3216Z" fill="url(#paint1_radial_50_2060)"/>
<path d="M1.89385 48.6164C5.21381 57.9275 124.217 58.5893 131.069 48.9081C137.3 40.1131 134.844 11.0359 129.523 4.76496C122.261 -3.78321 12.066 2.21846 6.18403 8.94931C0.696238 15.2202 -1.56255 38.9689 1.89385 48.6164Z" fill="url(#paint2_linear_50_2060)"/>
<path d="M2.89435 47.7863C6.15367 56.8169 123.413 57.4675 130.114 48.078C136.208 39.541 133.813 11.3276 128.598 5.23614C121.488 -3.05402 12.8391 2.76816 7.09357 9.29708C1.72706 15.3885 -0.48625 38.4304 2.89435 47.7863Z" fill="url(#paint3_linear_50_2060)"/>
<path style="mix-blend-mode:screen" d="M128.522 48.2462C128.522 48.2462 53.2395 57.2207 7.03296 49.3007C7.03296 49.3007 37.049 52.9129 50.4047 49.3007C73.0835 43.1756 122.565 41.3583 128.522 48.2462Z" fill="url(#paint4_linear_50_2060)"/>
<path style="mix-blend-mode:screen" d="M28.6203 17.1498C29.9089 17.0937 31.0156 17.8228 31.1065 18.7764C31.1823 19.7299 30.1969 20.5601 28.9084 20.6161C27.6198 20.6722 26.5131 19.9431 26.4222 18.9895C26.3464 18.036 27.3318 17.2058 28.6203 17.1498Z" fill="url(#paint5_radial_50_2060)"/>
<path d="M28.8934 18.395C29.2572 18.3838 29.5604 18.5857 29.5755 18.8437C29.5907 19.1129 29.3178 19.3373 28.9692 19.3485C28.6053 19.3597 28.3021 19.1578 28.287 18.8998C28.2718 18.6306 28.5447 18.4062 28.8934 18.395Z" fill="#FFFFAB"/>
<path style="mix-blend-mode:screen" d="M31.8039 9.70097C33.0924 9.64488 34.1991 10.3741 34.29 11.3276C34.3658 12.2811 33.3805 13.1 32.0919 13.1674C30.8033 13.2234 29.6967 12.4943 29.6057 11.5407C29.5299 10.5872 30.5153 9.76828 31.8039 9.70097Z" fill="url(#paint6_radial_50_2060)"/>
<path d="M32.0768 10.9461C32.4406 10.9349 32.7438 11.1368 32.759 11.3948C32.7741 11.6641 32.5012 11.8884 32.1526 11.8997C31.7887 11.9109 31.4855 11.709 31.4704 11.4509C31.4552 11.1817 31.7281 10.9573 32.0768 10.9461Z" fill="#FFFFAB"/>
<path style="mix-blend-mode:screen" d="M29.924 31.0714C31.2126 31.0153 32.3193 31.7445 32.4102 32.698C32.486 33.6515 31.5006 34.4705 30.2121 34.5378C28.9235 34.5939 27.8169 33.8647 27.7259 32.9112C27.6501 31.9576 28.6355 31.1387 29.924 31.0714Z" fill="url(#paint7_radial_50_2060)"/>
<path d="M30.2121 32.3166C30.5759 32.3054 30.8791 32.5073 30.8943 32.7653C30.9094 33.0346 30.6366 33.2589 30.2879 33.2701C29.9241 33.2814 29.6209 33.0794 29.6057 32.8214C29.5905 32.5634 29.8634 32.3278 30.2121 32.3166Z" fill="#FFFFAB"/>
<path style="mix-blend-mode:screen" d="M18.8878 5.88678C22.5109 5.72973 25.6187 7.77142 25.8309 10.4413C26.0431 13.1224 23.2841 15.4222 19.6761 15.5792C16.0529 15.7363 12.9452 13.6946 12.733 11.0247C12.5207 8.34354 15.2798 6.04384 18.8878 5.88678Z" fill="url(#paint8_radial_50_2060)"/>
<path d="M19.6761 9.37562C20.6767 9.33075 21.5408 9.89165 21.6014 10.632C21.662 11.3724 20.9041 12.0119 19.9035 12.0567C18.903 12.1016 18.0389 11.5407 17.9783 10.8003C17.9176 10.0599 18.6756 9.4205 19.6761 9.37562Z" fill="#FFFFAB"/>
<path style="mix-blend-mode:screen" d="M37.5949 42.9513C39.3231 42.8728 40.8087 43.8488 40.9149 45.1276C41.021 46.4065 39.7021 47.5059 37.9739 47.5844C36.2457 47.6629 34.76 46.6869 34.6539 45.4081C34.5478 44.1292 35.8667 43.0299 37.5949 42.9513Z" fill="url(#paint9_radial_50_2060)"/>
<path d="M37.9739 44.6116C38.459 44.5892 38.8683 44.8584 38.8986 45.2174C38.9289 45.5764 38.5651 45.8792 38.08 45.9017C37.5949 45.9241 37.1856 45.6549 37.1553 45.2959C37.1249 44.9369 37.4888 44.634 37.9739 44.6116Z" fill="#FFFFAB"/>
<path style="mix-blend-mode:screen" d="M9.77686 49.0652C10.641 49.0315 11.3838 49.5139 11.4293 50.1533C11.4747 50.7928 10.8229 51.3425 9.95878 51.3761C9.09468 51.4098 8.35186 50.9274 8.30638 50.288C8.2609 49.6485 8.91277 49.0989 9.77686 49.0652Z" fill="url(#paint10_radial_50_2060)"/>
<path d="M9.97407 49.8953C10.2166 49.8953 10.4137 50.0187 10.4289 50.1982C10.4289 50.3777 10.2621 50.5235 10.0195 50.5348C9.77699 50.5348 9.57992 50.4114 9.56476 50.2319C9.56476 50.0524 9.73151 49.9065 9.97407 49.8953Z" fill="#FFFFAB"/>
<path style="mix-blend-mode:screen" d="M53.8005 29.1643C54.6646 29.1307 55.4075 29.613 55.4529 30.2525C55.4984 30.8919 54.8466 31.4416 53.9825 31.4752C53.1184 31.5089 52.3755 31.0265 52.3301 30.3871C52.2846 29.7477 52.9364 29.198 53.8005 29.1643Z" fill="url(#paint11_radial_50_2060)"/>
<path d="M53.9976 29.9944C54.2401 29.9944 54.4372 30.1178 54.4524 30.2973C54.4524 30.4768 54.2856 30.6227 54.0431 30.6339C53.8005 30.6339 53.6034 30.5105 53.5883 30.331C53.5883 30.1515 53.755 30.0057 53.9976 29.9944Z" fill="#FFFFAB"/>
<path style="mix-blend-mode:screen" d="M32.0768 47.36C32.7135 47.3264 33.2744 47.6966 33.3047 48.1677C33.3502 48.6389 32.8499 49.054 32.2132 49.0876C31.5765 49.1213 31.0156 48.7511 30.9853 48.2799C30.9398 47.8088 31.4401 47.3937 32.0768 47.3713V47.36Z" fill="url(#paint12_radial_50_2060)"/>
<path d="M32.2132 47.9771C32.3951 47.9771 32.5467 48.0668 32.5619 48.2014C32.5619 48.336 32.4406 48.4482 32.2587 48.4594C32.0768 48.4594 31.9252 48.3697 31.91 48.2351C31.91 48.1004 32.0313 47.9883 32.2132 47.9771Z" fill="#FFFFAB"/>
<path style="mix-blend-mode:screen" d="M50.2228 46.6533C51.572 46.5972 52.7242 47.36 52.8151 48.3584C52.8909 49.3569 51.8601 50.2094 50.526 50.2767C49.192 50.344 48.0247 49.57 47.9337 48.5828C47.8579 47.5844 48.8888 46.7318 50.238 46.6645L50.2228 46.6533Z" fill="url(#paint13_radial_50_2060)"/>
<path d="M50.5107 47.9545C50.8896 47.9433 51.208 48.1453 51.2232 48.4257C51.2383 48.7062 50.9654 48.9417 50.5865 48.953C50.2075 48.9642 49.8891 48.7623 49.874 48.4818C49.8588 48.2013 50.1317 47.9658 50.5107 47.9545Z" fill="#FFFFAB"/>
<path d="M31.9589 30.2538L32.0644 40.8182H29.2343L29.1464 16.0507L30.8691 16.1561V16.121L34.7363 16.0507C36.9745 15.9921 38.0937 17.1639 38.0937 19.5663L38.164 26.7909C38.2695 28.9237 37.414 30.0253 35.5976 30.0956L38.621 40.5546L35.5624 40.9061L32.7851 30.201L31.9589 30.2538ZM31.8359 18.7753L31.9238 27.5995L34.4726 27.4764C35.164 27.4178 35.4804 26.8729 35.4218 25.8417L35.246 19.5663C35.1874 18.9335 34.789 18.6464 34.0507 18.705L31.8359 18.7753ZM48.4648 18.9686L42.5234 19.2323V26.8788L47.6035 27.2303L47.5156 30.1483L42.6113 29.8143L42.5234 37.9003L48.9745 38.0585L48.6406 40.994L39.6054 40.6425L39.9394 16.2968L48.6406 16.121L48.4648 18.9686ZM59.1874 27.1425L54.8808 27.0546L54.6171 29.8846L56.6913 29.7264L56.7792 37.285C56.662 38.035 56.287 38.3514 55.6542 38.2343H53.9316C53.2402 38.2343 52.9238 37.9471 52.9824 37.3729L53.0703 19.6542C53.0703 18.9628 53.2988 18.6171 53.7558 18.6171H55.7421C56.3749 18.7343 56.6913 19.0507 56.6913 19.5663L56.5156 21.4647H59.2578L59.1874 19.6542C59.0703 17.3573 57.9511 16.1796 55.83 16.121L53.8437 16.2089C51.6054 16.326 50.4863 17.4159 50.4863 19.4784L50.2402 37.1971C50.1816 39.494 51.3242 40.6718 53.6679 40.7303H55.83C58.0683 40.7303 59.1874 39.6112 59.1874 37.3729V27.1425ZM60.787 16.0507L63.5292 16.121L63.6171 40.7303L60.8749 40.8182L60.787 16.0507ZM74.5156 21.3768L71.8613 21.4647L71.6855 19.9178C71.6855 19.1678 71.3398 18.7343 70.6484 18.6171L69.0136 18.8807C68.6152 19.0565 68.3867 19.4022 68.3281 19.9178L68.2402 25.9296C68.2402 26.6796 68.5859 27.0253 69.2773 26.9667L71.0878 27.0546C73.3144 27.1132 74.3984 28.5487 74.3398 31.3612L74.2695 37.0389C74.2109 39.6757 73.0331 40.8768 70.7363 40.6425L68.7499 40.7303C66.289 40.7889 65.1757 39.5585 65.4101 37.0389L65.6562 35.2284L68.416 35.4042L68.2402 37.0389C68.2402 37.66 68.5273 37.9706 69.1015 37.9706L70.6484 38.0585C71.3398 37.9999 71.7148 37.1151 71.7734 35.4042V31.1854C71.7148 30.2714 71.3398 29.8378 70.6484 29.8846L68.7499 29.8143C66.5703 29.5214 65.5097 28.3436 65.5683 26.2811V19.5663C65.6855 17.328 66.7753 16.2089 68.8378 16.2089L70.912 16.0507C73.1972 16.0975 74.3984 17.328 74.5156 19.7421V21.3768ZM75.8515 16.2968L85.1328 15.9628L85.0449 18.6171H81.6171L81.8632 40.8182L79.121 40.7303L79.0331 18.5292L76.0273 18.6171L75.8515 16.2968ZM95.2578 18.9686L89.3163 19.2323V26.8788L94.3964 27.2303L94.3085 30.1483L89.4042 29.8143L89.3163 37.9003L95.7675 38.0585L95.4335 40.994L86.3984 40.6425L86.7324 16.2968L95.4335 16.121L95.2578 18.9686ZM99.8456 30.2538L99.9511 40.8182H97.121L97.0331 16.0507L98.7558 16.1561V16.121L102.623 16.0507C104.861 15.9921 105.98 17.1639 105.98 19.5663L106.051 26.7909C106.156 28.9237 105.301 30.0253 103.484 30.0956L106.508 40.5546L103.449 40.9061L100.672 30.201L99.8456 30.2538ZM99.7226 18.7753L99.8105 27.5995L102.359 27.4764C103.051 27.4178 103.367 26.8729 103.309 25.8417L103.133 19.5663C103.074 18.9335 102.676 18.6464 101.937 18.705L99.7226 18.7753Z" fill="#FF5200"/>
<path d="M126.37 49.985C125.96 48.953 129.644 44.2414 130.584 44.2638C131.524 44.2862 130.69 47.36 130.114 48.078C129.553 48.7959 126.567 50.5011 126.37 49.985Z" fill="white"/>
<path style="mix-blend-mode:screen" d="M6.88125 9.34194C6.88125 9.34194 100.325 -6.09414 128.78 5.38196C128.78 5.38196 131.281 9.73457 132.418 16.5888C132.418 16.5888 123.429 24.3517 106.389 25.2043C91.7297 25.9447 38.8681 12.1016 26.513 10.3852C14.1579 8.66886 6.86609 9.33072 6.86609 9.33072L6.88125 9.34194Z" fill="url(#paint14_linear_50_2060)"/>
<path d="M6.88129 11.0022C6.88129 11.0022 9.03396 7.72654 14.0366 5.9653C19.0393 4.20407 26.7707 4.87715 27.5742 5.31466C28.3928 5.76338 26.2553 6.93006 22.2532 8.01821C18.2359 9.10637 8.92784 11.8324 6.88129 10.991V11.0022Z" fill="white"/>
<path d="M7.13903 11.8772C6.10817 11.9894 3.53103 17.9013 3.69779 18.8773C3.84939 19.8533 6.94195 16.7795 7.42706 15.1417C7.91217 13.5038 7.13903 11.8772 7.13903 11.8772Z" fill="white"/>
<defs>
<radialGradient id="paint0_radial_50_2060" cx="0" cy="0" r="1" gradientUnits="userSpaceOnUse" gradientTransform="translate(69.0992 54.82) scale(51.7911 72.3117)">
<stop stop-color="#FFBD00"/>
<stop offset="1" stop-color="#FF772C"/>
</radialGradient>
<radialGradient id="paint1_radial_50_2060" cx="0" cy="0" r="1" gradientUnits="userSpaceOnUse" gradientTransform="translate(69.0992 54.82) scale(51.7911 72.3117)">
<stop stop-color="#FFBD00"/>
<stop offset="1" stop-color="#FF772C"/>
</radialGradient>
<linearGradient id="paint2_linear_50_2060" x1="67.5048" y1="55.8858" x2="67.5048" y2="0.546965" gradientUnits="userSpaceOnUse">
<stop stop-color="#FFF300"/>
<stop offset="1" stop-color="#FF9700"/>
</linearGradient>
<linearGradient id="paint3_linear_50_2060" x1="67.5047" y1="54.8425" x2="67.5047" y2="1.14154" gradientUnits="userSpaceOnUse">
<stop stop-color="#FFCC00"/>
<stop offset="1" stop-color="#FF9700"/>
</linearGradient>
<linearGradient id="paint4_linear_50_2060" x1="128.522" y1="48.2013" x2="7.03296" y2="48.2013" gradientUnits="userSpaceOnUse">
<stop stop-color="#FF6140"/>
<stop offset="0.1" stop-color="#EE5A3B"/>
<stop offset="0.29" stop-color="#C44A31"/>
<stop offset="0.55" stop-color="#803020"/>
<stop offset="0.88" stop-color="#240D09"/>
<stop offset="1"/>
</linearGradient>
<radialGradient id="paint5_radial_50_2060" cx="0" cy="0" r="1" gradientUnits="userSpaceOnUse" gradientTransform="translate(28.7333 18.8927) rotate(-94.6171) scale(1.74136 2.3463)">
<stop stop-color="#00B359"/>
<stop offset="0.13" stop-color="#009148"/>
<stop offset="0.34" stop-color="#005D2E"/>
<stop offset="0.54" stop-color="#00351A"/>
<stop offset="0.73" stop-color="#00170B"/>
<stop offset="0.89" stop-color="#000603"/>
<stop offset="1"/>
</radialGradient>
<radialGradient id="paint6_radial_50_2060" cx="0" cy="0" r="1" gradientUnits="userSpaceOnUse" gradientTransform="translate(31.9287 11.4467) rotate(-94.6171) scale(1.74136 2.3463)">
<stop stop-color="#00B359"/>
<stop offset="0.13" stop-color="#009148"/>
<stop offset="0.34" stop-color="#005D2E"/>
<stop offset="0.54" stop-color="#00351A"/>
<stop offset="0.73" stop-color="#00170B"/>
<stop offset="0.89" stop-color="#000603"/>
<stop offset="1"/>
</radialGradient>
<radialGradient id="paint7_radial_50_2060" cx="0" cy="0" r="1" gradientUnits="userSpaceOnUse" gradientTransform="translate(30.0399 32.8151) rotate(-94.6171) scale(1.74136 2.3463)">
<stop stop-color="#00B359"/>
<stop offset="0.13" stop-color="#009148"/>
<stop offset="0.34" stop-color="#005D2E"/>
<stop offset="0.54" stop-color="#00351A"/>
<stop offset="0.73" stop-color="#00170B"/>
<stop offset="0.89" stop-color="#000603"/>
<stop offset="1"/>
</radialGradient>
<radialGradient id="paint8_radial_50_2060" cx="0" cy="0" r="1" gradientUnits="userSpaceOnUse" gradientTransform="translate(19.2672 10.7479) rotate(-94.6171) scale(4.86456 6.5545)">
<stop stop-color="#00B359"/>
<stop offset="0.13" stop-color="#009148"/>
<stop offset="0.34" stop-color="#005D2E"/>
<stop offset="0.54" stop-color="#00351A"/>
<stop offset="0.73" stop-color="#00170B"/>
<stop offset="0.89" stop-color="#000603"/>
<stop offset="1"/>
</radialGradient>
<radialGradient id="paint9_radial_50_2060" cx="0" cy="0" r="1" gradientUnits="userSpaceOnUse" gradientTransform="translate(37.7738 45.2733) rotate(-94.6171) scale(2.32555 3.13344)">
<stop stop-color="#00B359"/>
<stop offset="0.13" stop-color="#009148"/>
<stop offset="0.34" stop-color="#005D2E"/>
<stop offset="0.54" stop-color="#00351A"/>
<stop offset="0.73" stop-color="#00170B"/>
<stop offset="0.89" stop-color="#000603"/>
<stop offset="1"/>
</radialGradient>
<radialGradient id="paint10_radial_50_2060" cx="0" cy="0" r="1" gradientUnits="userSpaceOnUse" gradientTransform="translate(9.86672 50.2385) rotate(-94.6171) scale(1.15716 1.55915)">
<stop stop-color="#00B359"/>
<stop offset="0.13" stop-color="#009148"/>
<stop offset="0.34" stop-color="#005D2E"/>
<stop offset="0.54" stop-color="#00351A"/>
<stop offset="0.73" stop-color="#00170B"/>
<stop offset="0.89" stop-color="#000603"/>
<stop offset="1"/>
</radialGradient>
<radialGradient id="paint11_radial_50_2060" cx="0" cy="0" r="1" gradientUnits="userSpaceOnUse" gradientTransform="translate(53.881 30.3448) rotate(-94.6171) scale(1.15716 1.55915)">
<stop stop-color="#00B359"/>
<stop offset="0.13" stop-color="#009148"/>
<stop offset="0.34" stop-color="#005D2E"/>
<stop offset="0.54" stop-color="#00351A"/>
<stop offset="0.73" stop-color="#00170B"/>
<stop offset="0.89" stop-color="#000603"/>
<stop offset="1"/>
</radialGradient>
<radialGradient id="paint12_radial_50_2060" cx="0" cy="0" r="1" gradientUnits="userSpaceOnUse" gradientTransform="translate(32.1212 48.2429) rotate(-94.6171) scale(0.86506 1.16558)">
<stop stop-color="#00B359"/>
<stop offset="0.13" stop-color="#009148"/>
<stop offset="0.34" stop-color="#005D2E"/>
<stop offset="0.54" stop-color="#00351A"/>
<stop offset="0.73" stop-color="#00170B"/>
<stop offset="0.89" stop-color="#000603"/>
<stop offset="1"/>
</radialGradient>
<radialGradient id="paint13_radial_50_2060" cx="0" cy="0" r="1" gradientUnits="userSpaceOnUse" gradientTransform="translate(50.3484 48.4708) rotate(-94.6171) scale(1.80876 2.43712)">
<stop stop-color="#00B359"/>
<stop offset="0.13" stop-color="#009148"/>
<stop offset="0.34" stop-color="#005D2E"/>
<stop offset="0.54" stop-color="#00351A"/>
<stop offset="0.73" stop-color="#00170B"/>
<stop offset="0.89" stop-color="#000603"/>
<stop offset="1"/>
</radialGradient>
<linearGradient id="paint14_linear_50_2060" x1="6.88125" y1="13.1897" x2="132.433" y2="13.1897" gradientUnits="userSpaceOnUse">
<stop stop-color="#FF9840"/>
<stop offset="0.1" stop-color="#EE8E3B"/>
<stop offset="0.29" stop-color="#C47531"/>
<stop offset="0.55" stop-color="#804C20"/>
<stop offset="0.88" stop-color="#241509"/>
<stop offset="1"/>
</linearGradient>
</defs>
</svg>
