<svg width="80" height="69" viewBox="0 0 80 69" fill="none" xmlns="http://www.w3.org/2000/svg">
<path d="M1.32168 55.3638C4.03972 65.9813 71.9369 73.9713 77.5614 62.9516C82.6745 52.9239 78.8262 11.9822 74.4396 4.82339C68.4923 -4.93614 9.74492 1.9009 4.9278 9.59591C0.433612 16.7547 -1.504 44.3709 1.32168 55.3638Z" fill="url(#paint0_radial_50_199)"/>
<path d="M1.53684 53.4871C4.25488 63.7292 71.7484 69.467 77.3459 58.8227C82.4321 49.1436 78.6646 12.1432 74.3049 5.2257C68.3845 -4.15846 9.85242 2.43726 5.06221 9.83734C0.56803 16.7548 -1.26194 42.8696 1.53684 53.4871Z" fill="url(#paint1_linear_50_199)"/>
<path d="M2.37107 52.6023C5.03529 62.5495 71.1025 68.2604 76.5924 57.9379C81.571 48.5537 77.8303 12.4917 73.5783 5.78873C67.7655 -3.35412 10.4983 3.05392 5.7888 10.2395C1.40226 16.9425 -0.400793 42.2797 2.37107 52.6023Z" fill="url(#paint2_linear_50_199)"/>
<path d="M36.1329 38.2031L32.6165 41.9565L33.5547 48.5156L43.8672 40.7812L36.1329 38.2031Z" fill="#030F4D"/>
<path d="M18 30.4688L28.3984 35.625L36.1328 38.2031L54.1797 53.6719L62 15L18 30.4688Z" fill="#0029FE"/>
<path d="M28.3984 35.625L33.5547 48.5156L36.1328 38.2031L54.1797 22.7344L28.3984 35.625Z" fill="#001792"/>
<path style="mix-blend-mode:screen" d="M75.2737 58.0987C75.2737 58.0987 43.5184 62.9517 5.73496 54.2378C5.73496 54.2378 30.278 58.206 41.1771 54.2378C59.719 47.4812 70.4028 50.5109 75.2737 58.0987Z" fill="url(#paint3_linear_50_199)"/>
<path style="mix-blend-mode:screen" d="M23.3888 18.873C24.4383 18.8193 25.3533 19.6237 25.4071 20.6694C25.4609 21.715 24.6536 22.6266 23.604 22.6802C22.5545 22.7339 21.6395 21.9295 21.5857 20.8838C21.5319 19.8382 22.3392 18.9266 23.3888 18.873Z" fill="url(#paint4_radial_50_199)"/>
<path d="M23.6309 20.2404C23.9269 20.2404 24.1691 20.4549 24.196 20.7498C24.223 21.0447 23.9808 21.286 23.7116 21.3128C23.4425 21.3396 23.1734 21.0983 23.1465 20.8034C23.1465 20.5085 23.3618 20.2672 23.6578 20.2404H23.6309Z" fill="#FFFFAB"/>
<path style="mix-blend-mode:screen" d="M25.9993 10.6685C27.0488 10.6149 27.9638 11.4192 28.0176 12.4649C28.0715 13.5105 27.2641 14.4222 26.2146 14.4758C25.1651 14.5294 24.2501 13.725 24.1962 12.6794C24.1424 11.6337 24.9498 10.7221 25.9993 10.6685Z" fill="url(#paint5_radial_50_199)"/>
<path d="M26.2146 12.0359C26.5106 12.0359 26.7528 12.2504 26.7797 12.5185C26.7797 12.8134 26.5644 13.0547 26.2953 13.0816C26.0262 13.1084 25.7571 12.8671 25.7302 12.5989C25.7302 12.304 25.9455 12.0627 26.2415 12.0359H26.2146Z" fill="#FFFFAB"/>
<path style="mix-blend-mode:screen" d="M24.4652 34.1825C25.5148 34.1289 26.4297 34.9333 26.4836 35.9789C26.5374 37.0246 25.73 37.9362 24.6805 37.9898C23.631 38.0434 22.716 37.2391 22.6622 36.1934C22.6083 35.1478 23.4157 34.2361 24.4652 34.1825Z" fill="url(#paint6_radial_50_199)"/>
<path d="M24.6806 35.5499C24.9767 35.5499 25.2189 35.7644 25.2458 36.0594C25.2727 36.3543 25.0305 36.5956 24.7344 36.6224C24.4384 36.6224 24.1962 36.4079 24.1693 36.113C24.1693 35.818 24.3846 35.5767 24.6537 35.5499H24.6806Z" fill="#FFFFAB"/>
<path style="mix-blend-mode:screen" d="M15.4501 6.48584C18.4103 6.29816 20.94 8.55036 21.1284 11.4997C21.3167 14.449 19.0562 16.9693 16.0959 17.157C13.1357 17.3447 10.606 15.0925 10.4177 12.1432C10.2293 9.19384 12.4898 6.67353 15.4501 6.48584Z" fill="url(#paint7_radial_50_199)"/>
<path d="M16.096 10.32C16.9033 10.2663 17.6299 10.883 17.6568 11.7142C17.7107 12.5185 17.0917 13.2425 16.2575 13.2693C15.4501 13.3229 14.7235 12.7062 14.6966 11.875C14.6428 11.0707 15.2617 10.3468 16.096 10.32Z" fill="#FFFFAB"/>
<path style="mix-blend-mode:screen" d="M30.7356 47.2667C32.135 47.1863 33.373 48.2587 33.4537 49.653C33.5344 51.0472 32.458 52.2805 31.0586 52.361C29.6592 52.4414 28.4213 51.3689 28.3405 49.9747C28.2598 48.5805 29.3363 47.3471 30.7356 47.2667Z" fill="url(#paint8_radial_50_199)"/>
<path d="M31.0586 49.0899C31.4623 49.0899 31.7852 49.358 31.8121 49.7602C31.839 50.1624 31.543 50.4841 31.1394 50.5109C30.7357 50.5109 30.4128 50.2428 30.3858 49.8406C30.3858 49.4385 30.655 49.1167 31.0586 49.0899Z" fill="#FFFFAB"/>
<path style="mix-blend-mode:screen" d="M7.99557 53.9965C8.69526 53.9429 9.31422 54.4791 9.34113 55.203C9.36804 55.927 8.85673 56.5168 8.13012 56.5436C7.40352 56.5704 6.81147 56.061 6.78456 55.3371C6.75765 54.6132 7.26896 54.0233 7.99557 53.9965Z" fill="url(#paint9_radial_50_199)"/>
<path d="M8.15712 54.9081C8.34549 54.9081 8.50696 55.0421 8.53387 55.2298C8.53387 55.4175 8.39932 55.6052 8.21094 55.6052C8.02256 55.6052 7.83418 55.4711 7.83418 55.2835C7.83418 55.0958 7.96874 54.9081 8.15712 54.9081Z" fill="#FFFFAB"/>
<path style="mix-blend-mode:screen" d="M43.9759 32.0912C44.6756 32.0376 45.2945 32.5738 45.3215 33.2978C45.3753 33.9949 44.8371 34.6115 44.1105 34.6383C43.3838 34.6652 42.7918 34.1557 42.7649 33.4318C42.7111 32.7347 43.2493 32.118 43.9759 32.0912Z" fill="url(#paint10_radial_50_199)"/>
<path d="M44.1375 33.0028C44.3258 33.0028 44.4873 33.1369 44.5142 33.3245C44.5142 33.5122 44.3797 33.6731 44.1913 33.6999C44.0029 33.6999 43.8414 33.5659 43.8145 33.3782C43.8145 33.1905 43.9491 33.0028 44.1375 33.0028Z" fill="#FFFFAB"/>
<path style="mix-blend-mode:screen" d="M26.2146 52.1197C26.7528 52.0929 27.1834 52.495 27.2372 53.0045C27.2641 53.5407 26.8604 53.9697 26.3491 54.0233C25.8109 54.0501 25.3803 53.648 25.3265 53.1385C25.2727 52.6291 25.7032 52.1733 26.2146 52.1197Z" fill="url(#paint11_radial_50_199)"/>
<path d="M26.3222 52.79C26.4568 52.79 26.5913 52.8972 26.5913 53.0313C26.5913 53.1653 26.4837 53.2994 26.3491 53.2994C26.2146 53.2994 26.08 53.1922 26.08 53.0581C26.08 52.924 26.1877 52.79 26.3222 52.79Z" fill="#FFFFAB"/>
<path style="mix-blend-mode:screen" d="M41.0427 51.3421C42.146 51.2885 43.0879 52.1197 43.1686 53.2189C43.2225 54.3182 42.3882 55.2567 41.2849 55.3371C40.1815 55.4175 39.2396 54.5595 39.1589 53.4603C39.105 52.361 39.9393 51.4226 41.0427 51.3421Z" fill="url(#paint12_radial_50_199)"/>
<path d="M41.2848 52.7631C41.5808 52.7631 41.8499 52.9776 41.8768 53.2725C41.8768 53.5675 41.6615 53.8356 41.3655 53.8624C41.0695 53.8624 40.8004 53.6479 40.7735 53.353C40.7735 53.0581 40.9888 52.7899 41.2848 52.7631Z" fill="#FFFFAB"/>
<path d="M73.5246 60.0292C73.1747 58.9031 76.2157 53.7016 76.9692 53.7284C77.7227 53.7284 77.05 57.1335 76.5925 57.9378C76.135 58.7422 73.6861 60.5922 73.5246 60.0292Z" fill="white"/>
<path style="mix-blend-mode:screen" d="M6.73076 10.0518C6.73076 10.0518 50.4616 -6.70561 73.713 5.92279C73.713 5.92279 75.7582 10.7221 76.7001 18.2563C76.7001 18.2563 69.3533 26.7824 55.4402 27.7477C43.4647 28.552 31.8121 13.3229 21.6934 11.446C11.6017 9.56921 6.73076 10.0518 6.73076 10.0518Z" fill="url(#paint13_linear_50_199)"/>
<path d="M5.84266 13.0815C5.00841 13.2156 2.90933 19.7041 3.01698 20.7766C3.15154 21.849 5.6812 18.4707 6.05795 16.6743C6.43471 14.8779 5.81575 13.0815 5.81575 13.0815H5.84266Z" fill="white"/>
<path d="M6.19257 12.0359C5.16994 11.6338 6.973 8.87213 8.53385 8.17502C10.0947 7.47791 13.9161 6.70037 14.3467 7.39748C14.7773 8.1214 7.34976 12.4649 6.19257 12.0359Z" fill="white"/>
<defs>
<radialGradient id="paint0_radial_50_199" cx="0" cy="0" r="1" gradientUnits="userSpaceOnUse" gradientTransform="translate(40.5112 80.7724) scale(38.6955 48.7362)">
<stop stop-color="#008CCA"/>
<stop offset="1" stop-color="#003BF1"/>
</radialGradient>
<linearGradient id="paint1_linear_50_199" x1="40.02" y1="64.5336" x2="40.02" y2="0.58724" gradientUnits="userSpaceOnUse">
<stop stop-color="#92FFF1"/>
<stop offset="1" stop-color="#0098FF"/>
</linearGradient>
<linearGradient id="paint2_linear_50_199" x1="40.02" y1="63.4075" x2="40.02" y2="1.25752" gradientUnits="userSpaceOnUse">
<stop stop-color="#00EFF1"/>
<stop offset="1" stop-color="#0098FF"/>
</linearGradient>
<linearGradient id="paint3_linear_50_199" x1="75.2737" y1="54.9885" x2="5.73496" y2="54.9885" gradientUnits="userSpaceOnUse">
<stop stop-color="#40FF79"/>
<stop offset="0.1" stop-color="#3BEE71"/>
<stop offset="0.29" stop-color="#31C45D"/>
<stop offset="0.56" stop-color="#20803D"/>
<stop offset="0.88" stop-color="#092411"/>
<stop offset="1"/>
</linearGradient>
<radialGradient id="paint4_radial_50_199" cx="0" cy="0" r="1" gradientUnits="userSpaceOnUse" gradientTransform="translate(23.4662 20.7514) rotate(-93.4326) scale(1.90367 1.91067)">
<stop stop-color="#00B359"/>
<stop offset="0.13" stop-color="#009148"/>
<stop offset="0.34" stop-color="#005D2E"/>
<stop offset="0.54" stop-color="#00351A"/>
<stop offset="0.73" stop-color="#00170B"/>
<stop offset="0.89" stop-color="#000603"/>
<stop offset="1"/>
</radialGradient>
<radialGradient id="paint5_radial_50_199" cx="0" cy="0" r="1" gradientUnits="userSpaceOnUse" gradientTransform="translate(26.0756 12.565) rotate(-93.4326) scale(1.90367 1.91068)">
<stop stop-color="#00B359"/>
<stop offset="0.13" stop-color="#009148"/>
<stop offset="0.34" stop-color="#005D2E"/>
<stop offset="0.54" stop-color="#00351A"/>
<stop offset="0.73" stop-color="#00170B"/>
<stop offset="0.89" stop-color="#000603"/>
<stop offset="1"/>
</radialGradient>
<radialGradient id="paint6_radial_50_199" cx="0" cy="0" r="1" gradientUnits="userSpaceOnUse" gradientTransform="translate(24.5204 36.0793) rotate(-93.4326) scale(1.90367 1.91068)">
<stop stop-color="#00B359"/>
<stop offset="0.13" stop-color="#009148"/>
<stop offset="0.34" stop-color="#005D2E"/>
<stop offset="0.54" stop-color="#00351A"/>
<stop offset="0.73" stop-color="#00170B"/>
<stop offset="0.89" stop-color="#000603"/>
<stop offset="1"/>
</radialGradient>
<radialGradient id="paint7_radial_50_199" cx="0" cy="0" r="1" gradientUnits="userSpaceOnUse" gradientTransform="translate(15.7035 11.7858) rotate(-93.4326) scale(5.33564 5.35527)">
<stop stop-color="#00B359"/>
<stop offset="0.13" stop-color="#009148"/>
<stop offset="0.34" stop-color="#005D2E"/>
<stop offset="0.54" stop-color="#00351A"/>
<stop offset="0.73" stop-color="#00170B"/>
<stop offset="0.89" stop-color="#000603"/>
<stop offset="1"/>
</radialGradient>
<radialGradient id="paint8_radial_50_199" cx="0" cy="0" r="1" gradientUnits="userSpaceOnUse" gradientTransform="translate(30.8419 49.7773) rotate(-93.4326) scale(2.54717 2.55654)">
<stop stop-color="#00B359"/>
<stop offset="0.13" stop-color="#009148"/>
<stop offset="0.34" stop-color="#005D2E"/>
<stop offset="0.54" stop-color="#00351A"/>
<stop offset="0.73" stop-color="#00170B"/>
<stop offset="0.89" stop-color="#000603"/>
<stop offset="1"/>
</radialGradient>
<radialGradient id="paint9_radial_50_199" cx="0" cy="0" r="1" gradientUnits="userSpaceOnUse" gradientTransform="translate(8.03867 55.2446) rotate(-93.4326) scale(1.28699 1.29172)">
<stop stop-color="#00B359"/>
<stop offset="0.13" stop-color="#009148"/>
<stop offset="0.34" stop-color="#005D2E"/>
<stop offset="0.54" stop-color="#00351A"/>
<stop offset="0.73" stop-color="#00170B"/>
<stop offset="0.89" stop-color="#000603"/>
<stop offset="1"/>
</radialGradient>
<radialGradient id="paint10_radial_50_199" cx="0" cy="0" r="1" gradientUnits="userSpaceOnUse" gradientTransform="translate(44.0107 33.3609) rotate(-93.4326) scale(1.28699 1.29172)">
<stop stop-color="#00B359"/>
<stop offset="0.13" stop-color="#009148"/>
<stop offset="0.34" stop-color="#005D2E"/>
<stop offset="0.54" stop-color="#00351A"/>
<stop offset="0.73" stop-color="#00170B"/>
<stop offset="0.89" stop-color="#000603"/>
<stop offset="1"/>
</radialGradient>
<radialGradient id="paint11_radial_50_199" cx="0" cy="0" r="1" gradientUnits="userSpaceOnUse" gradientTransform="translate(26.24 53.0597) rotate(-93.4327) scale(0.938427 0.941883)">
<stop stop-color="#00B359"/>
<stop offset="0.13" stop-color="#009148"/>
<stop offset="0.34" stop-color="#005D2E"/>
<stop offset="0.54" stop-color="#00351A"/>
<stop offset="0.73" stop-color="#00170B"/>
<stop offset="0.89" stop-color="#000603"/>
<stop offset="1"/>
</radialGradient>
<radialGradient id="paint12_radial_50_199" cx="0" cy="0" r="1" gradientUnits="userSpaceOnUse" gradientTransform="translate(41.136 53.3008) rotate(-93.4327) scale(1.98411 1.99141)">
<stop stop-color="#00B359"/>
<stop offset="0.13" stop-color="#009148"/>
<stop offset="0.34" stop-color="#005D2E"/>
<stop offset="0.54" stop-color="#00351A"/>
<stop offset="0.73" stop-color="#00170B"/>
<stop offset="0.89" stop-color="#000603"/>
<stop offset="1"/>
</radialGradient>
<linearGradient id="paint13_linear_50_199" x1="6.73076" y1="14.5026" x2="76.7001" y2="14.5026" gradientUnits="userSpaceOnUse">
<stop stop-color="#7ED140"/>
<stop offset="0.11" stop-color="#74C03B"/>
<stop offset="0.34" stop-color="#5A962E"/>
<stop offset="0.65" stop-color="#315219"/>
<stop offset="1"/>
</linearGradient>
</defs>
</svg>
