<svg width="911" height="361" viewBox="0 0 911 361" fill="none" xmlns="http://www.w3.org/2000/svg">
<path opacity="0.2" d="M89.0591 68.0427C70.0703 78.9706 51.8399 95.3017 53.2353 117.643C56.1169 163.298 140.11 174.165 253.375 80.7312C366.64 -12.7026 339.188 14.1904 442.777 1.80542C546.365 -10.5188 472.239 43.6977 589.448 60.2717C706.656 76.785 736.959 65.9785 736.959 51.1651C736.959 36.3517 705.837 9.33542 703.865 7.63552C708.567 8.84973 889.93 57.2968 909.859 160.08C930.031 264.26 677.445 247.246 567.395 253.378C457.376 259.509 540.651 326.015 442.777 356.783C254.952 388.291 360.149 233.965 338.551 201.545C316.954 169.126 149.786 242.768 34.5195 184.304C-47.047 142.899 34.4286 93.4804 89.0894 68.1033L89.0591 68.0427ZM703.076 154.737C708.718 157.409 714.451 158.927 720.154 160.748C726.979 162.994 733.592 165.423 740.478 166.212C752.368 167.608 764.107 169.126 776.028 169.004C788.374 168.883 800.689 171.251 813.005 172.647C823.166 173.801 834.147 179.022 844.248 174.59C846.553 173.618 848.555 171.129 850.193 167.608C852.499 162.691 851.012 158.016 849.465 152.855C845.037 138.224 836.695 129.239 829.142 122.439C817.949 112.422 806.392 104.53 794.592 98.3373C791.923 102.587 789.496 100.219 786.584 99.0051C781.64 97.0016 776.241 98.7016 771.205 98.2159C761.802 97.3052 752.763 95.241 743.299 96.4553C739.234 96.9409 735.2 97.3052 731.165 98.1551C725.25 99.3694 719.608 102.587 713.905 105.501C704.836 110.054 695.554 113.818 686.666 119.95C684.33 121.529 675.2 126.386 675.716 134.035C683.36 145.995 693.855 150.184 703.076 154.616V154.737ZM635.099 151.156C639.376 155.587 644.836 159.534 649.629 160.444C654.27 161.294 658.911 163.419 663.582 163.298C665.584 163.298 668.163 164.208 669.467 160.444C671.075 155.77 669.467 152.066 668.557 150.306C667.04 145.084 666.889 144.902 664.401 141.806C660.64 137.253 657.334 135.007 653.057 133.003C647.384 130.332 641.075 126.325 635.19 128.875C633.037 129.785 629.518 133.732 629.73 139.013C629.943 143.749 633.219 149.091 635.16 151.095L635.099 151.156ZM291.352 175.501C294.689 178.536 298.208 180.843 301.787 182.118C304.456 183.029 307.308 183.514 309.765 180.661C311.039 179.204 311.433 176.29 311.615 173.558C311.736 172.101 311.888 171.251 311.615 169.915C311.372 168.883 310.766 167.972 308.976 168.337C307.338 164.633 305.7 162.205 303.213 160.809C299.694 158.744 295.842 157.894 292.384 160.505C290.746 161.78 288.319 163.237 287.803 167.062C287.288 170.765 289.957 174.226 291.352 175.44V175.501ZM307.368 146.42C310.796 148.606 314.224 150.548 317.742 151.823C321.079 153.038 324.446 153.584 327.813 154.313C331.635 155.102 335.427 156.134 339.279 156.68C342.858 157.166 346.438 158.077 350.017 158.198C355.508 158.502 360.998 160.08 366.458 161.537C370.068 162.508 373.617 163.905 377.226 164.998C379.714 165.726 382.231 165.848 384.719 166.515C388.723 167.608 393.667 166.819 397.186 162.63C400.128 159.169 402.646 154.495 405.133 149.941C406.286 147.877 407.135 145.509 407.742 142.656C408.106 140.895 407.954 140.046 407.681 138.103C408.773 138.528 408.834 136.767 408.136 134.642C407.56 132.821 406.619 131.06 405.8 129.603C405.285 128.693 404.708 128.45 404.162 127.843C403.647 127.296 403.283 126.446 402.797 125.839C401.19 124.079 399.946 121.529 398.278 119.89C396.458 118.25 394.789 116.065 393.03 114.304C390.664 111.936 388.207 109.994 385.811 107.808C380.381 102.891 374.982 98.0337 369.522 93.359C365.487 89.8985 361.241 87.1665 357.146 84.0703C352.99 80.9133 348.683 78.3635 344.375 76.1779C340.523 74.2958 336.549 73.0209 332.667 71.8674C328.693 70.7139 324.689 69.4997 320.654 69.6211C315.649 69.7425 310.553 70.4711 305.639 72.3531C302.06 73.6888 298.511 75.3886 294.962 77.2707C288.865 80.4883 282.677 84.8595 277.611 92.6912C275.852 95.4232 273.971 99.1872 273.243 103.68C272.758 106.715 273.152 109.751 273.941 112.483C276.337 121.164 281.797 126.811 286.196 130.393C293.203 136.039 300.119 141.867 307.338 146.359L307.368 146.42ZM154.276 179.143C156.217 188.25 163.406 191.407 167.441 193.774C175.297 198.267 183.548 197.417 191.647 198.328C200.625 199.36 209.513 199.421 218.552 199.421C227.592 199.421 235.933 200.028 244.548 195.11C250.433 191.71 256.53 190.132 262.445 187.036C265.023 185.639 267.48 183.696 269.998 182.057C271.545 181.025 273.729 179.993 275.003 177.747C278.612 171.554 273.607 167.912 270.877 165.544C265.933 161.173 261.019 157.652 255.589 157.591C253.678 157.591 251.98 156.195 250.069 156.134C248.34 156.012 246.58 156.134 249.856 154.677C242.273 154.798 234.841 152.673 227.258 153.341C215.58 154.313 204.023 156.802 192.375 159.655C186.884 161.051 181.394 162.812 175.873 164.026C171.384 164.998 166.834 165.665 162.436 167.851C159.827 169.187 152.486 170.887 154.215 179.022L154.276 179.143ZM14.3479 147.695C15.1669 159.351 19.0799 166.758 24.0546 171.736C27.5732 175.258 30.5763 176.411 34.4893 177.443C38.6146 178.536 42.6186 180.6 46.7136 181.875C50.6873 183.15 55.2373 182.482 59.2413 182.179C61.7286 181.997 64.7923 181.329 66.8853 178.475C72.4667 170.765 66.764 158.987 63.2453 153.705C58.1796 145.995 52.3253 141.624 46.8046 135.553C43.0736 131.485 39.9797 126.689 36.6733 121.589C37.4013 123.957 35.4296 121.954 33.367 121.589C31.911 121.286 30.8796 121.225 29.5449 120.497C26.2083 118.675 21.1426 120.254 18.4733 124.746C15.1366 130.453 13.8019 139.196 14.3782 147.816L14.3479 147.695Z" fill="url(#paint0_linear_601_6966)"/>
<path d="M421.676 16.8203L415.074 17.1133L415.074 25.6094L420.719 26L420.621 29.2422L415.172 28.8711L415.074 37.8555L422.242 38.0312L421.871 41.293L411.832 40.9023L412.203 13.8516L421.871 13.6562L421.676 16.8203ZM426.988 13.5781L428.629 21.5859L430.621 13.5781L433.59 13.4805L430.426 26.6641L433.395 41.0977L430.133 41.0977L428.492 33.0898L426.5 41.0977L423.531 41.1953L426.695 28.0117L423.727 13.5781L426.988 13.5781ZM445.309 19.5937L442.262 19.5937L442.457 17.4844C442.457 16.9115 442.105 16.5599 441.402 16.4297L439.195 16.4297C438.687 16.4297 438.434 16.8138 438.434 17.582L438.336 37.2695C438.271 37.9076 438.622 38.2266 439.391 38.2266L441.305 38.2266C442.008 38.3568 442.424 38.0052 442.555 37.1719L442.555 34.9844L445.309 35.082L445.23 37.2695C445.23 39.7565 443.987 41 441.5 41L439.098 41C436.493 40.9349 435.224 39.6263 435.289 37.0742L435.562 17.3867C435.562 15.0951 436.806 13.8841 439.293 13.7539L441.5 13.6562C443.857 13.7214 445.1 15.0299 445.23 17.582L445.309 19.5937ZM450.133 13.6562L450.328 38.1289L457.027 37.8359L457.125 41.1953L447.379 41.1953L447.281 13.5781L450.133 13.6562ZM461.676 13.7539L461.871 36.8984C461.806 37.7839 462.125 38.1615 462.828 38.0312L464.937 37.8555C465.445 37.9727 465.732 37.7122 465.797 37.0742L465.602 13.5781L468.473 13.4805L468.668 36.8984C468.538 39.6979 467.262 41.0977 464.84 41.0977L462.73 41C460.374 41 459.13 39.7565 459 37.2695L458.824 13.6562L461.676 13.7539ZM480.66 19.4961L477.711 19.5937L477.516 17.875C477.516 17.0417 477.132 16.5599 476.363 16.4297L474.547 16.7227C474.104 16.918 473.85 17.3021 473.785 17.875L473.687 24.5547C473.687 25.388 474.072 25.7721 474.84 25.707L476.852 25.8047C479.326 25.8698 480.53 27.4648 480.465 30.5898L480.387 36.8984C480.322 39.8281 479.013 41.1628 476.461 40.9023L474.254 41C471.52 41.0651 470.283 39.6979 470.543 36.8984L470.816 34.8867L473.883 35.082L473.687 36.8984C473.687 37.5885 474.007 37.9336 474.645 37.9336L476.363 38.0312C477.132 37.9661 477.548 36.9831 477.613 35.082L477.613 30.3945C477.548 29.3789 477.132 28.8971 476.363 28.9492L474.254 28.8711C471.832 28.5456 470.654 27.237 470.719 24.9453L470.719 17.4844C470.849 14.9974 472.06 13.7539 474.352 13.7539L476.656 13.5781C479.195 13.6302 480.53 14.9974 480.66 17.6797L480.66 19.4961ZM482.242 13.5781L485.289 13.6562L485.387 41L482.34 41.0977L482.242 13.5781ZM497.398 13.5781L493.57 41.0977L490.816 41.0195L487.184 13.8711L490.328 13.5781L492.242 28.6758L494.156 13.6758L497.398 13.5781ZM508.824 16.8203L502.223 17.1133L502.223 25.6094L507.867 26L507.77 29.2422L502.32 28.8711L502.223 37.8555L509.391 38.0312L509.02 41.293L498.98 40.9023L499.352 13.8516L509.02 13.6562L508.824 16.8203ZM418.453 87.1953L418.727 59.8516L422.262 59.7539L425.426 77.2539L428.375 59.7539L432.105 59.8516L432.301 87.0977L429.156 87.0977L429.332 73.4258L426.754 83.8555L423.98 83.9336L421.598 73.4258L421.5 86.707L418.453 87.1953ZM443.727 62.8203L437.125 63.1133L437.125 71.6094L442.77 72L442.672 75.2422L437.223 74.8711L437.125 83.8555L444.293 84.0312L443.922 87.293L433.883 86.9023L434.254 59.8516L443.922 59.6562L443.727 62.8203ZM445.602 59.8516L455.914 59.4805L455.816 62.4297L452.008 62.4297L452.281 87.0977L449.234 87L449.137 62.332L445.797 62.4297L445.602 59.8516ZM457.516 59.5781L460.27 59.9492L460.465 71.8047L464.391 71.707L464.195 59.6562L467.262 59.6562L467.437 87.1953L464.586 87.293L464.391 74.8711L460.367 74.8711L460.465 87.1953L457.789 87L457.516 59.5781ZM479.234 83.1914C479.13 85.7305 477.835 87 475.348 87L472.945 87C470.341 86.9349 469.072 85.6263 469.137 83.0742L469.41 63.3867C469.41 61.095 470.654 59.8841 473.141 59.7539L475.348 59.6562C477.704 59.7214 478.948 61.0299 479.078 63.582L479.234 83.1914ZM476.305 63.4844C476.305 62.9115 475.953 62.5599 475.25 62.4297L473.043 62.4297C472.535 62.4297 472.281 62.8138 472.281 63.582L472.184 83.2695C472.118 83.9075 472.47 84.2266 473.238 84.2266L475.152 84.2266C475.855 84.3568 476.272 84.0052 476.402 83.1719L476.305 63.4844ZM481.227 59.6562L487.066 59.6562C489.736 59.7865 491.07 61.095 491.07 63.582L490.875 83.2695C490.693 85.8867 489.423 87.1628 487.066 87.0977L480.758 86.9023L481.227 59.6562ZM483.707 62.5273L483.707 84.0312L486.109 84.2266C487.19 84.3568 487.73 83.849 487.73 82.7031L487.926 63.875C487.861 63.0417 487.509 62.625 486.871 62.625L483.707 62.5273ZM502.789 65.4961L499.84 65.5937L499.645 63.875C499.645 63.0417 499.26 62.5599 498.492 62.4297L496.676 62.7227C496.233 62.918 495.979 63.3021 495.914 63.875L495.816 70.5547C495.816 71.388 496.201 71.7721 496.969 71.707L498.98 71.8047C501.454 71.8698 502.659 73.4648 502.594 76.5898L502.516 82.8984C502.451 85.8281 501.142 87.1628 498.59 86.9023L496.383 87C493.648 87.0651 492.411 85.6979 492.672 82.8984L492.945 80.8867L496.012 81.082L495.816 82.8984C495.816 83.5885 496.135 83.9336 496.773 83.9336L498.492 84.0312C499.26 83.9661 499.677 82.9831 499.742 81.082L499.742 76.3945C499.677 75.3789 499.26 74.8971 498.492 74.9492L496.383 74.8711C493.961 74.5456 492.783 73.237 492.848 70.9453L492.848 63.4844C492.978 60.9974 494.189 59.7539 496.48 59.7539L498.785 59.5781C501.324 59.6302 502.659 60.9974 502.789 63.6797L502.789 65.4961Z" fill="url(#paint1_linear_601_6966)"/>
<path d="M395.508 217.852L405.82 217.48L405.723 220.43L401.914 220.43L402.188 245.098L399.141 245L399.043 220.332L395.703 220.43L395.508 217.852ZM417.422 241.191C417.318 243.73 416.022 245 413.535 245L411.133 245C408.529 244.935 407.259 243.626 407.324 241.074L407.598 221.387C407.598 219.095 408.841 217.884 411.328 217.754L413.535 217.656C415.892 217.721 417.135 219.03 417.266 221.582L417.422 241.191ZM414.492 221.484C414.492 220.911 414.141 220.56 413.438 220.43L411.23 220.43C410.723 220.43 410.469 220.814 410.469 221.582L410.371 241.27C410.306 241.908 410.658 242.227 411.426 242.227L413.34 242.227C414.043 242.357 414.46 242.005 414.59 241.172L414.492 221.484ZM425.527 245.098L422.246 235.391L422.285 245L419.316 245L419.141 217.656L422.188 217.48L422.227 226.973L426.016 217.578L428.984 217.48L424.004 230.566L428.789 245.098L425.527 245.098ZM440.43 220.82L433.828 221.113L433.828 229.609L439.473 230L439.375 233.242L433.926 232.871L433.828 241.855L440.996 242.031L440.625 245.293L430.586 244.902L430.957 217.852L440.625 217.656L440.43 220.82ZM442.578 245.293L442.676 217.754L446.035 217.656L449.473 236.016L449.57 217.754L452.422 217.656L452.344 244.902L448.809 245.098L445.547 229.512L445.449 245L442.578 245.293ZM396.074 275.902L396.074 287.27C396.074 289.757 394.831 291 392.344 291L389.941 291C387.337 290.935 386.068 289.626 386.133 287.074L386.406 267.387C386.406 265.095 387.65 263.884 390.137 263.754L392.344 263.656C394.701 263.721 395.944 265.03 396.074 267.582L396.152 269.594L393.105 269.594L393.301 267.484C393.301 266.911 392.949 266.56 392.246 266.43L390.039 266.43C389.531 266.43 389.277 266.814 389.277 267.582L389.18 287.27C389.115 287.908 389.466 288.227 390.234 288.227L392.148 288.227C392.852 288.357 393.268 288.005 393.398 287.172L393.301 278.773L390.996 278.949L391.289 275.805L396.074 275.902ZM400.977 279.359L401.094 291.098L397.949 291.098L397.852 263.578L399.766 263.695L399.766 263.656L404.063 263.578C406.549 263.513 407.793 264.815 407.793 267.484L407.871 275.512C407.988 277.882 407.038 279.105 405.02 279.184L408.379 290.805L404.98 291.195L401.895 279.301L400.977 279.359ZM400.84 266.605L400.938 276.41L403.77 276.273C404.538 276.208 404.889 275.603 404.824 274.457L404.629 267.484C404.564 266.781 404.121 266.462 403.301 266.527L400.84 266.605ZM419.668 287.191C419.564 289.73 418.268 291 415.781 291L413.379 291C410.775 290.935 409.505 289.626 409.57 287.074L409.844 267.387C409.844 265.095 411.087 263.884 413.574 263.754L415.781 263.656C418.138 263.721 419.382 265.03 419.512 267.582L419.668 287.191ZM416.738 267.484C416.738 266.911 416.387 266.56 415.684 266.43L413.477 266.43C412.969 266.43 412.715 266.814 412.715 267.582L412.617 287.27C412.552 287.908 412.904 288.227 413.672 288.227L415.586 288.227C416.289 288.357 416.706 288.005 416.836 287.172L416.738 267.484ZM431.406 263.578L431.348 263.949L433.223 278.676L435.137 263.676L438.379 263.578L434.551 291.098L431.797 291.02L429.727 275.609L427.578 291.098L424.824 291.02L421.191 263.871L424.336 263.578L426.25 278.676L428.164 263.676L431.27 263.578L431.406 263.578ZM440.059 263.852L450.371 263.48L450.273 266.43L446.465 266.43L446.738 291.098L443.691 291L443.594 266.332L440.254 266.43L440.059 263.852ZM451.973 263.578L454.727 263.949L454.922 275.805L458.848 275.707L458.652 263.656L461.719 263.656L461.895 291.195L459.043 291.293L458.848 278.871L454.824 278.871L454.922 291.195L452.246 291L451.973 263.578Z" fill="url(#paint2_linear_601_6966)"/>
<path d="M664.305 138.656L670.145 138.656C672.814 138.786 674.148 140.095 674.148 142.582L673.953 162.27C673.771 164.887 672.501 166.163 670.145 166.098L663.836 165.902L664.305 138.656ZM666.785 141.527L666.785 163.031L669.188 163.227C670.268 163.357 670.809 162.849 670.809 161.703L671.004 142.875C670.939 142.042 670.587 141.625 669.949 141.625L666.785 141.527ZM685.398 141.82L678.797 142.113L678.797 150.609L684.441 151L684.344 154.242L678.895 153.871L678.797 162.855L685.965 163.031L685.594 166.293L675.555 165.902L675.926 138.852L685.594 138.656L685.398 141.82ZM697.391 144.594L694.344 144.594L694.539 142.484C694.539 141.911 694.188 141.56 693.484 141.43L691.277 141.43C690.77 141.43 690.516 141.814 690.516 142.582L690.418 162.27C690.353 162.908 690.704 163.227 691.473 163.227L693.387 163.227C694.09 163.357 694.507 163.005 694.637 162.172L694.637 159.984L697.391 160.082L697.313 162.27C697.313 164.757 696.069 166 693.582 166L691.18 166C688.576 165.935 687.306 164.626 687.371 162.074L687.645 142.387C687.645 140.095 688.888 138.884 691.375 138.754L693.582 138.656C695.939 138.721 697.182 140.03 697.313 142.582L697.391 144.594ZM708.836 141.82L702.234 142.113L702.234 150.609L707.879 151L707.781 154.242L702.332 153.871L702.234 162.855L709.402 163.031L709.031 166.293L698.992 165.902L699.363 138.852L709.031 138.656L708.836 141.82ZM710.984 166.293L711.082 138.754L714.441 138.656L717.879 157.016L717.977 138.754L720.828 138.656L720.75 165.902L717.215 166.098L713.953 150.512L713.855 166L710.984 166.293ZM722.43 138.852L732.742 138.48L732.645 141.43L728.836 141.43L729.109 166.098L726.063 166L725.965 141.332L722.625 141.43L722.43 138.852ZM737.371 154.359L737.488 166.098L734.344 166.098L734.246 138.578L736.16 138.695L736.16 138.656L740.457 138.578C742.944 138.513 744.188 139.815 744.188 142.484L744.266 150.512C744.383 152.882 743.432 154.105 741.414 154.184L744.773 165.805L741.375 166.195L738.289 154.301L737.371 154.359ZM737.234 141.605L737.332 151.41L740.164 151.273C740.932 151.208 741.284 150.603 741.219 149.457L741.023 142.484C740.958 141.781 740.516 141.462 739.695 141.527L737.234 141.605ZM745.867 166.098L749.695 138.578L752.449 138.656L756.082 165.805L752.938 166.098L752.449 161.312L749.402 161.605L749.109 166L745.867 166.098ZM752.078 158.441L750.926 149.848L749.695 158.734L752.078 158.441ZM760.887 138.656L761.082 163.129L767.781 162.836L767.879 166.195L758.133 166.195L758.035 138.578L760.887 138.656ZM769.48 138.578L772.527 138.656L772.625 166L769.578 166.098L769.48 138.578ZM774.598 138.93L784.344 138.637L784.539 141.488L777.859 163.109L784.441 163.207L784.539 166.059L774.598 165.941L774.598 163.109L781.102 141.781L774.813 141.977L774.598 138.93ZM796.102 141.82L789.5 142.113L789.5 150.609L795.145 151L795.047 154.242L789.598 153.871L789.5 162.855L796.668 163.031L796.297 166.293L786.258 165.902L786.629 138.852L796.297 138.656L796.102 141.82ZM798.445 138.656L804.285 138.656C806.954 138.786 808.289 140.095 808.289 142.582L808.094 162.27C807.911 164.887 806.642 166.163 804.285 166.098L797.977 165.902L798.445 138.656ZM800.926 141.527L800.926 163.031L803.328 163.227C804.409 163.357 804.949 162.849 804.949 161.703L805.145 142.875C805.079 142.042 804.728 141.625 804.09 141.625L800.926 141.527ZM693.621 190.594L690.574 190.594L690.77 188.484C690.77 187.911 690.418 187.56 689.715 187.43L687.508 187.43C687 187.43 686.746 187.814 686.746 188.582L686.648 208.27C686.583 208.908 686.935 209.227 687.703 209.227L689.617 209.227C690.32 209.357 690.737 209.005 690.867 208.172L690.867 205.984L693.621 206.082L693.543 208.27C693.543 210.757 692.299 212 689.813 212L687.41 212C684.806 211.935 683.536 210.626 683.602 208.074L683.875 188.387C683.875 186.095 685.118 184.884 687.605 184.754L689.813 184.656C692.169 184.721 693.413 186.03 693.543 188.582L693.621 190.594ZM705.418 208.191C705.314 210.73 704.018 212 701.531 212L699.129 212C696.525 211.935 695.255 210.626 695.32 208.074L695.594 188.387C695.594 186.095 696.837 184.884 699.324 184.754L701.531 184.656C703.888 184.721 705.132 186.03 705.262 188.582L705.418 208.191ZM702.488 188.484C702.488 187.911 702.137 187.56 701.434 187.43L699.227 187.43C698.719 187.43 698.465 187.814 698.465 188.582L698.367 208.27C698.302 208.908 698.654 209.227 699.422 209.227L701.336 209.227C702.039 209.357 702.456 209.005 702.586 208.172L702.488 188.484ZM707.137 212.195L707.41 184.852L710.945 184.754L714.109 202.254L717.059 184.754L720.789 184.852L720.984 212.098L717.84 212.098L718.016 198.426L715.438 208.855L712.664 208.934L710.281 198.426L710.184 211.707L707.137 212.195ZM722.762 212.195L723.035 184.852L726.57 184.754L729.734 202.254L732.684 184.754L736.414 184.852L736.609 212.098L733.465 212.098L733.641 198.426L731.063 208.855L728.289 208.934L725.906 198.426L725.809 211.707L722.762 212.195ZM741.238 184.754L741.434 207.898C741.368 208.784 741.688 209.161 742.391 209.031L744.5 208.855C745.008 208.973 745.294 208.712 745.359 208.074L745.164 184.578L748.035 184.48L748.23 207.898C748.1 210.698 746.824 212.098 744.402 212.098L742.293 212C739.936 212 738.693 210.757 738.563 208.27L738.387 184.656L741.238 184.754ZM750.184 212.293L750.281 184.754L753.641 184.656L757.078 203.016L757.176 184.754L760.027 184.656L759.949 211.902L756.414 212.098L753.152 196.512L753.055 212L750.184 212.293ZM761.727 184.578L764.773 184.656L764.871 212L761.824 212.098L761.727 184.578ZM766.668 184.852L776.98 184.48L776.883 187.43L773.074 187.43L773.348 212.098L770.301 212L770.203 187.332L766.863 187.43L766.668 184.852ZM781.922 201.141L778.563 184.578L781.824 184.578L783.465 192.586L785.457 184.578L788.426 184.48L784.832 200.203L784.754 212.156L781.922 212.254L781.922 201.141Z" fill="url(#paint3_linear_601_6966)"/>
<path d="M526.811 339.688C526.811 339.688 493.245 240.445 496.783 204.233L566.401 196.239L586.671 190L587.791 206.941L666.849 192.607C666.849 192.607 671.889 222.219 661.204 246.392L639.906 288.913C639.906 288.913 627.277 318.071 612.047 326.578C612.047 326.578 584.187 352.171 526.805 339.714L526.811 339.688Z" fill="#5B254E"/>
<path d="M493 205.154C493 205.154 498.012 242.307 535.086 269.897C535.086 269.897 585.261 261.477 626.432 235.942L624.329 221.58L639.719 224.89C639.719 224.89 655.038 211.873 666.415 193.224C666.415 193.224 622.072 192.12 576.44 202.339L584.653 190.515C584.653 190.515 547.252 188.94 493.006 205.127L493 205.154Z" fill="#985965"/>
<path d="M534.865 264.028C534.865 264.028 522.219 310.946 524.131 334.65C524.131 334.65 499.617 269.21 495.483 202.533C495.483 202.533 516.295 246.153 534.887 264.031L534.865 264.028Z" fill="#461642"/>
<path d="M627.886 224.479L633.665 238.679L624.7 304.053C624.7 304.053 641.647 250.864 641.486 227.595L627.907 224.483L627.886 224.479Z" fill="#461642"/>
<path d="M500.101 215.056C500.101 215.056 527.621 253.438 539.006 256.248C550.391 259.059 603.817 248.627 628.242 233.459C628.242 233.459 588.029 260.772 535.892 268.359C535.892 268.359 513.779 242.822 500.101 215.056Z" fill="#B06979"/>
<path d="M532.265 259.85L535.388 271.373L543.269 264.148L532.265 259.85Z" fill="#D27F7C"/>
<path d="M636.602 227.256L640.497 238.199L645.366 223.792C645.366 223.792 638.654 225.008 636.624 227.259L636.602 227.256Z" fill="#B06979"/>
<path opacity="0.3" d="M585.166 227.962C599.008 222.869 608.191 213.202 605.677 206.37C603.163 199.538 589.904 198.129 576.063 203.222C562.221 208.315 553.038 217.982 555.552 224.814C558.066 231.646 571.324 233.055 585.166 227.962Z" fill="#09090A"/>
<path d="M554.24 86.9813C550.005 84.781 540.253 76.8756 533.862 59.5057C531.751 53.7784 530.004 47.0117 528.953 39.0842C524.685 7.13065 535.83 -2.13477 535.565 5.54956C535.565 5.54956 535.565 5.58273 535.565 5.66012C534.736 31.1013 539.855 69.5008 545.007 74.2552C550.171 79.0205 550.193 78.2355 550.193 78.2355C554.472 80.7564 556.639 88.6066 554.24 86.9702V86.9813Z" fill="url(#paint4_linear_601_6966)"/>
<g style="mix-blend-mode:multiply" opacity="0.3">
<path d="M554.241 86.9813C550.006 84.781 540.254 76.8756 533.863 59.5057C536.65 63.5635 538.286 62.4025 535.953 41.9036C533.742 22.3666 535.4 7.05329 535.566 5.66016C534.737 31.1013 539.856 69.5009 545.008 74.2552C550.172 79.0206 550.194 78.2356 550.194 78.2356C554.473 80.7565 556.64 88.6066 554.241 86.9703V86.9813Z" fill="#AB2781"/>
</g>
<path d="M561.869 218.709C561.869 218.709 562.212 221.473 562.3 222.082C562.389 222.69 573.28 223.895 581.76 220.091C590.24 216.288 598.489 211.921 600.788 210.881C601.153 210.715 600.18 204.435 600.18 204.435L561.869 218.709Z" fill="url(#paint5_linear_601_6966)"/>
<path d="M516.216 145.006C516.216 145.006 511.86 146.045 511.628 146.963C511.396 147.881 513.353 155.034 516.813 164.023C520.274 173.012 522.463 181.228 522.873 182.201C523.271 183.162 527.35 182.156 527.35 182.156L516.205 144.995L516.216 145.006Z" fill="url(#paint6_linear_601_6966)"/>
<path d="M565.142 143.514C563.727 145.128 552.792 146.41 545.351 148.146C537.91 149.871 534.372 150.656 533.155 150.391C531.95 150.137 525.836 145.404 516.206 144.995C514.824 144.94 520.352 158.252 522.176 165.782C523.99 173.3 525.549 180.918 526.765 181.957C527.981 182.997 539.911 180.664 550.724 176.341C561.538 172.018 574.828 168.988 574.828 168.988L565.153 143.514H565.142Z" fill="url(#paint7_linear_601_6966)"/>
<path d="M580.765 124.397C579.792 129.925 573.379 135.873 565.44 137.875C560.763 139.058 554.306 139.002 548.07 138.98C543.703 138.98 539.49 139.478 535.996 139.4C528.544 139.224 524.1 135.641 523.569 134.724C523.038 133.806 522.187 132.811 523.945 129.593C525.703 126.387 532.348 126.42 532.348 126.42C528.81 125.9 528.235 123.081 528.92 122.064C529.617 121.047 533.973 120.693 537.677 120.372C540.408 120.14 542.188 119.123 544.82 119.554C545.682 119.698 546.843 120.063 548.391 120.416C551.553 121.157 556.252 121.854 562.974 120.449C570.172 118.957 574.772 117.133 579.405 115.717C579.405 115.717 581.738 118.846 580.787 124.386L580.765 124.397Z" fill="url(#paint8_linear_601_6966)"/>
<path d="M578.553 115.795C575.635 119.521 573.666 130.909 567.386 138.87C561.106 146.842 566.502 162.752 572.97 167.937C579.438 173.123 597.67 167.186 600.766 152.491C603.873 137.786 606.106 114.092 599.66 109.769C593.214 105.435 578.553 115.795 578.553 115.795Z" fill="url(#paint9_linear_601_6966)"/>
<path d="M627.169 90.3424C626.705 91.1938 626.174 92.023 625.566 92.8191C625.566 92.8191 625.566 92.8412 625.544 92.8412C621.077 98.7786 613.16 103.19 605.974 106.507H605.94C601.507 108.564 597.349 110.178 594.453 111.494C586.182 115.209 581.03 116.945 578.144 115.629C576.032 114.656 564.655 114.313 553.61 109.636C553.588 109.636 553.565 109.636 553.554 109.614H553.532C553.532 109.614 553.521 109.592 553.51 109.592C551.675 108.818 549.85 107.911 548.07 106.872C535.598 99.5415 525.316 64.2046 528.069 50.8372C531.353 34.8826 562.764 14.4943 588.77 14.7375C614.775 14.9918 629.115 30.9575 632.808 39.8359C632.93 40.1345 633.051 40.4772 633.162 40.831C636.269 50.793 633.04 79.6065 627.191 90.3645L627.169 90.3424Z" fill="url(#paint10_linear_601_6966)"/>
<path style="mix-blend-mode:multiply" opacity="0.5" d="M531.055 69.6557C531.055 69.6557 529.839 56.6421 532.89 50.8374C535.942 45.0327 549.342 47.0229 557.502 46.1936C565.651 45.3644 581.627 34.9823 596.067 36.2427C610.507 37.5032 612.265 54.1986 612.884 58.0573C613.504 61.9161 531.055 69.6557 531.055 69.6557Z" fill="url(#paint11_linear_601_6966)"/>
<path d="M610.043 90.0771C609.402 91.3155 608.506 92.5538 607.378 93.759C607.378 93.759 607.371 93.7663 607.356 93.7811C597.394 104.55 569.896 113.583 550.183 105.048C541.216 101.167 535.908 91.4703 533.189 81.5636C530.811 72.9505 530.402 64.1605 531.243 58.9529C533.045 47.7415 541.448 49.4332 547.518 50.5167C555.103 51.8656 563.24 50.6604 577.039 44.6788C590.827 38.6862 602.325 39.427 607.699 45.2095C614.001 52.0204 616.997 76.5881 610.054 90.0771H610.043Z" fill="url(#paint12_radial_601_6966)"/>
<g style="mix-blend-mode:multiply" opacity="0.5">
<path d="M610.043 90.077C609.402 91.3153 608.506 92.5536 607.379 93.7588C607.854 93.1949 614.046 85.3669 603.531 76.6211C592.64 67.5437 531.276 69.6444 533.178 81.5523C530.801 72.9393 530.392 64.1493 531.232 58.9416C533.034 47.7303 541.437 49.4219 547.507 50.5055C555.092 51.8544 563.23 50.6492 577.028 44.6676C590.816 38.6749 602.315 39.4157 607.688 45.1983C613.99 52.0092 616.987 76.5769 610.043 90.0659V90.077Z" fill="#AB2781"/>
</g>
<path d="M559.669 66.2169C575.867 62.126 578.465 43.2414 570.825 36.4305C569.951 35.6565 568.956 35.0374 567.817 34.6172C557.955 30.9575 546.799 36.4526 543.438 43.8052C542.487 45.8949 541.989 48.3827 541.989 50.9367C541.989 59.6936 547.661 69.2575 559.669 66.2169Z" fill="url(#paint13_linear_601_6966)"/>
<path d="M556.938 57.1285C565.651 54.9393 567.53 43.6505 563.13 39.7475C562.632 39.3053 562.057 38.9736 561.416 38.7746C555.943 37.0719 550.216 40.8974 548.701 45.1653C548.281 46.3373 548.093 47.6972 548.148 49.0793C548.314 53.6899 551.1 58.599 556.949 57.1285H556.938Z" fill="#36ACE3"/>
<path d="M557.923 56.1334C565.364 54.2648 566.912 44.723 563.197 41.395C562.776 41.019 562.29 40.7316 561.748 40.5547C557.093 39.051 552.173 42.2132 550.835 45.8397C550.47 46.8459 550.293 48.0068 550.338 49.1899C550.459 53.1592 552.87 57.4049 557.934 56.1334H557.923Z" fill="#75E4FF"/>
<path d="M556.238 54.2969C555.843 54.2056 555.443 54.0614 555.095 53.8345C557.683 54.9532 560.176 53.315 560.176 53.315C558.007 53.8669 554.587 53.5266 553.412 50.8419C551.897 47.3784 554.068 45.1915 555.866 44.8489C558.336 44.378 560.945 47.1777 559.201 49.7842C559.99 48.2399 559.113 45.7331 557.104 45.3683C555.1 45.0043 553.781 46.5203 553.181 47.9891C553.181 47.9891 553.476 47.5681 553.95 47.1013C553.686 47.56 553.264 48.54 553.51 49.6109C553.791 50.8358 554.523 51.7163 555.27 52.1978C557.441 53.5978 560.314 52.7657 560.314 52.7657C558.677 53.0248 556.457 52.555 555.26 51.385C554.79 50.9247 554.37 50.205 554.234 49.5375C554.124 48.9966 554.177 48.4288 554.36 47.9213C554.537 47.4325 554.87 46.8917 555.407 46.6221C556.077 46.2855 557.037 46.3511 557.745 47.0731C558.274 47.6126 558.355 48.3656 558.193 49.1147C558.175 48.3307 557.684 47.5706 557.005 47.2736C556.325 46.9766 555.427 47.0949 555.003 47.72C554.079 49.084 555.089 50.97 556.472 51.7076C557.521 52.2671 558.967 52.5176 560.064 52.275C562.478 51.7403 563.295 49.6779 563.482 48.7429C563.482 48.7429 562.786 50.4168 561.638 51.0859C563.416 49.4331 564.144 46.63 562.499 43.791C562.499 43.791 563.244 45.5446 562.903 47.4413C562.765 42.7935 558.477 40.5708 555.664 41.572C555.664 41.572 557.659 41.1879 559.138 42.2753C556.601 41.3023 553.501 42.2521 551.596 44.6115C551.596 44.6115 554.802 41.8434 558.065 43.0377C559.934 43.7222 560.936 45.0827 561.38 46.5643C561.494 46.9459 561.52 47.2957 561.517 47.6042C561.127 45.633 559.427 43.5013 557.252 43.1922C555.647 42.8798 554.011 43.2921 552.678 44.4079C551.641 45.2766 550.893 46.6255 550.61 48.0278C550.422 48.9611 550.509 49.8511 550.59 50.7958C550.59 50.7958 550.441 49.0709 550.974 47.9809C550.485 50.446 551.347 53.3926 554.056 55.0969C554.056 55.0969 552.8 54.1089 552.142 52.5508C554.258 55.422 559.274 56.5133 562.651 52.5944C562.651 52.5944 559.477 55.0472 556.238 54.2975L556.238 54.2969ZM558.248 50.5951C558.236 50.6732 558.167 50.7247 558.094 50.7097L558.004 50.6912C557.932 50.6763 557.863 50.7278 557.851 50.8059L557.813 51.0504C557.801 51.1285 557.732 51.18 557.66 51.1651C557.587 51.1501 557.537 51.0743 557.549 50.9962L557.587 50.7517C557.599 50.6736 557.549 50.5978 557.476 50.5828L557.386 50.5643C557.314 50.5494 557.264 50.4736 557.276 50.3955C557.288 50.3173 557.357 50.2658 557.43 50.2808L557.52 50.2993C557.593 50.3142 557.661 50.2628 557.673 50.1846L557.711 49.9401C557.723 49.862 557.792 49.8105 557.865 49.8255C557.937 49.8404 557.987 49.9162 557.975 49.9943L557.938 50.2388C557.926 50.317 557.975 50.3928 558.048 50.4077L558.138 50.4262C558.211 50.4411 558.26 50.5169 558.248 50.5951ZM558.948 51.6331C558.944 51.6607 558.92 51.6785 558.894 51.6732L558.863 51.6668C558.837 51.6615 558.813 51.6794 558.809 51.7069L558.796 51.7921C558.792 51.8196 558.768 51.8375 558.742 51.8322C558.717 51.8269 558.699 51.8007 558.704 51.7731L558.717 51.6879C558.721 51.6604 558.704 51.6341 558.678 51.6289L558.647 51.6225C558.621 51.6172 558.604 51.5909 558.608 51.5634C558.612 51.5358 558.636 51.518 558.662 51.5233L558.693 51.5297C558.718 51.5348 558.743 51.5171 558.747 51.4896L558.76 51.4044C558.764 51.3768 558.788 51.359 558.814 51.3643C558.839 51.3696 558.857 51.3958 558.852 51.4234L558.839 51.5085C558.835 51.5361 558.852 51.5623 558.878 51.5676L558.909 51.574C558.935 51.5793 558.952 51.6055 558.948 51.6331ZM560.775 43.7904C560.771 43.818 560.747 43.8358 560.721 43.8305L560.69 43.8241C560.664 43.8188 560.64 43.8367 560.636 43.8642L560.623 43.9494C560.619 43.9769 560.595 43.9948 560.569 43.9895C560.543 43.9842 560.526 43.958 560.531 43.9304L560.544 43.8453C560.548 43.8177 560.531 43.7914 560.505 43.7862L560.474 43.7798C560.448 43.7745 560.431 43.7482 560.435 43.7207C560.439 43.6931 560.463 43.6753 560.489 43.6806L560.52 43.687C560.546 43.6923 560.57 43.6744 560.574 43.6469L560.587 43.5617C560.591 43.5342 560.615 43.5163 560.641 43.5216C560.666 43.5269 560.684 43.5531 560.679 43.5807L560.666 43.6658C560.662 43.6934 560.679 43.7196 560.705 43.7249L560.736 43.7313C560.762 43.7366 560.779 43.7629 560.775 43.7904ZM562.903 47.4417C562.895 47.4861 562.886 47.5303 562.877 47.5745C562.875 47.5125 562.872 47.4508 562.867 47.3884L562.903 47.4417ZM561.429 50.1749C561.434 50.1473 561.457 50.1295 561.483 50.1348L561.514 50.1412C561.54 50.1465 561.564 50.1286 561.568 50.1011L561.581 50.0159C561.585 49.9884 561.609 49.9705 561.635 49.9758C561.661 49.9811 561.678 50.0073 561.674 50.0349L561.66 50.12C561.656 50.1476 561.673 50.1739 561.699 50.1791L561.73 50.1855C561.756 50.1908 561.773 50.2171 561.769 50.2446C561.765 50.2722 561.741 50.29 561.715 50.2847L561.684 50.2783C561.658 50.2731 561.634 50.2909 561.63 50.3184L561.617 50.4036C561.613 50.4311 561.589 50.449 561.563 50.4437C561.538 50.4384 561.52 50.4122 561.525 50.3846L561.538 50.2995C561.542 50.2719 561.525 50.2457 561.499 50.2404L561.468 50.234C561.442 50.2287 561.425 50.2024 561.429 50.1749ZM560.694 49.0617C560.7 49.0187 560.738 48.9908 560.778 48.9989L560.827 49.0091C560.867 49.0173 560.905 48.9889 560.911 48.9463L560.932 48.812C560.939 48.7689 560.976 48.741 561.016 48.7492C561.056 48.7575 561.083 48.7991 561.077 48.8417L561.056 48.976C561.049 49.0191 561.076 49.0602 561.116 49.0685L561.166 49.0786C561.206 49.0869 561.233 49.128 561.226 49.1711C561.22 49.2142 561.182 49.2421 561.142 49.2339L561.093 49.2238C561.053 49.2155 561.015 49.2435 561.009 49.2866L560.988 49.4208C560.981 49.4639 560.943 49.4918 560.904 49.4836C560.864 49.4755 560.837 49.4337 560.843 49.3911L560.864 49.2569C560.87 49.2138 560.844 49.1726 560.803 49.1644L560.754 49.1542C560.714 49.146 560.687 49.1043 560.694 49.0617ZM557.096 44.0758C557.101 44.0382 557.134 44.014 557.169 44.0211L557.212 44.0299C557.247 44.0371 557.279 44.0122 557.285 43.9752L557.303 43.8579C557.309 43.8204 557.342 43.7962 557.376 43.8032C557.411 43.8103 557.435 43.8467 557.429 43.8838L557.411 44.001C557.405 44.0386 557.429 44.0745 557.464 44.0816L557.507 44.0904C557.542 44.0976 557.565 44.1339 557.559 44.171C557.554 44.2085 557.521 44.2328 557.486 44.2257L557.443 44.2169C557.408 44.2097 557.375 44.2345 557.37 44.2716L557.352 44.3888C557.346 44.4264 557.313 44.4506 557.278 44.4435C557.244 44.4364 557.22 44.4 557.226 44.3629L557.244 44.2457C557.25 44.2081 557.226 44.1722 557.191 44.1651L557.148 44.1563C557.113 44.1491 557.09 44.1128 557.096 44.0758ZM556.2 43.804C556.204 43.7765 556.228 43.7586 556.254 43.7639L556.285 43.7703C556.31 43.7756 556.334 43.7578 556.339 43.7302L556.352 43.6451C556.356 43.6175 556.38 43.5997 556.405 43.6049C556.431 43.6102 556.448 43.6365 556.444 43.664L556.431 43.7492C556.427 43.7767 556.444 43.803 556.47 43.8083L556.501 43.8147C556.526 43.8199 556.544 43.8462 556.539 43.8738C556.535 43.9013 556.511 43.9191 556.486 43.9139L556.454 43.9075C556.429 43.9022 556.405 43.92 556.401 43.9476L556.388 44.0327C556.383 44.0603 556.359 44.0781 556.334 44.0728C556.308 44.0676 556.291 44.0413 556.295 44.0138L556.308 43.9286C556.312 43.901 556.295 43.8748 556.27 43.8695L556.238 43.8631C556.213 43.8578 556.196 43.8316 556.2 43.804ZM551.907 50.0611C551.903 50.0886 551.879 50.1064 551.853 50.1012L551.822 50.0948C551.796 50.0895 551.772 50.1073 551.768 50.1349L551.755 50.22C551.751 50.2476 551.727 50.2654 551.701 50.2602C551.676 50.2549 551.658 50.2286 551.663 50.2011L551.676 50.1159C551.68 50.0884 551.663 50.0621 551.637 50.0568L551.606 50.0504C551.58 50.0452 551.563 50.0189 551.567 49.9913C551.571 49.9638 551.595 49.946 551.621 49.9512L551.652 49.9576C551.678 49.9629 551.702 49.9451 551.706 49.9175L551.719 49.8324C551.723 49.8048 551.747 49.787 551.773 49.7923C551.798 49.7975 551.816 49.8238 551.811 49.8513L551.798 49.9365C551.794 49.964 551.811 49.9903 551.837 49.9956L551.868 50.002C551.894 50.0073 551.911 50.0335 551.907 50.0611ZM552.873 45.7207L552.842 45.7143C552.816 45.709 552.793 45.7269 552.788 45.7544L552.775 45.8396C552.771 45.8671 552.747 45.885 552.722 45.8797C552.696 45.8744 552.679 45.8482 552.683 45.8206L552.696 45.7354C552.7 45.7079 552.683 45.6816 552.657 45.6764L552.626 45.67C552.6 45.6647 552.583 45.6384 552.588 45.6109C552.592 45.5833 552.616 45.5655 552.641 45.5708L552.673 45.5772C552.698 45.5824 552.722 45.5646 552.726 45.5371L552.739 45.4519C552.744 45.4243 552.767 45.4065 552.793 45.4118C552.819 45.4171 552.836 45.4433 552.832 45.4709L552.819 45.556C552.814 45.5836 552.832 45.6098 552.857 45.6151L552.889 45.6215C552.914 45.6268 552.931 45.653 552.927 45.6806C552.923 45.7082 552.899 45.726 552.873 45.7207ZM552.618 51.2404C552.611 51.2835 552.573 51.3114 552.533 51.3032L552.484 51.293C552.444 51.2848 552.406 51.3128 552.4 51.3558L552.379 51.4901C552.373 51.5332 552.335 51.5611 552.295 51.5529C552.255 51.5447 552.228 51.5035 552.235 51.4604L552.255 51.3261C552.262 51.2831 552.234 51.2418 552.195 51.2337L552.145 51.2235C552.105 51.2153 552.078 51.1741 552.085 51.131C552.091 51.0879 552.129 51.06 552.169 51.0682L552.218 51.0784C552.259 51.0866 552.296 51.0586 552.303 51.0155L552.323 50.8813C552.33 50.8382 552.367 50.8102 552.407 50.8185C552.447 50.8267 552.474 50.8679 552.468 50.911L552.447 51.0452C552.441 51.0883 552.468 51.1296 552.508 51.1377L552.557 51.1479C552.597 51.1561 552.624 51.1978 552.618 51.2404Z" fill="#000AFF"/>
<path style="mix-blend-mode:multiply" opacity="0.5" d="M559.668 66.2171C575.866 62.1262 578.465 43.2415 570.825 36.4307C574.938 41.7047 573.356 55.5033 562.598 61.7834C551.851 68.0525 543.084 61.5402 542.011 51.0143C542.011 50.9922 542.011 50.959 542 50.9369C542 59.6937 547.672 69.2577 559.679 66.2171H559.668Z" fill="url(#paint14_linear_601_6966)"/>
<path style="mix-blend-mode:multiply" opacity="0.5" d="M625.533 92.8413C618.313 102.438 602.06 108.044 594.442 111.483C586.171 115.198 581.019 116.934 578.133 115.618C576.021 114.645 564.644 114.302 553.599 109.625C554.649 110.012 564.025 114.214 588.261 108.652C613.26 102.903 624.836 93.361 625.544 92.8413H625.533Z" fill="url(#paint15_linear_601_6966)"/>
<g style="mix-blend-mode:multiply" opacity="0.5">
<path d="M627.169 90.3426C626.705 91.1939 626.174 92.0232 625.566 92.8192C625.566 92.8192 625.566 92.8413 625.544 92.8413C621.077 98.7787 613.16 103.19 605.974 106.507H605.94C605.94 106.507 615.549 100.802 624.305 85.2013C636.965 62.6458 633.162 40.8091 633.162 40.8091C636.269 50.7711 633.04 79.5845 627.191 90.3426H627.169Z" fill="#AB2781"/>
</g>
<g style="mix-blend-mode:multiply" opacity="0.2">
<path d="M613.547 24.6774C606.869 27.2978 615.15 59.4835 617.362 74.4652C619.573 89.4469 633.737 70.4074 634.345 51.9208C634.964 33.4342 616.51 23.5165 613.547 24.6885V24.6774Z" fill="#C42781"/>
</g>
<path d="M538.043 64.4591C535.035 65.1888 538.861 69.8878 541.15 69.8878C543.438 69.8878 540.564 63.8509 538.043 64.4591Z" fill="white"/>
<g style="mix-blend-mode:soft-light">
<path d="M543.405 78.4899C536.439 80.6791 542.532 93.2172 552.372 94.8646C562.223 96.5121 551.399 75.98 543.405 78.4899Z" fill="white"/>
</g>
<path d="M599.562 29.3875C596.444 31.1677 600.225 36.8507 604.902 35.922C609.579 34.9932 605.565 25.96 599.562 29.3875Z" fill="#242D53"/>
<path d="M617.229 80.1924C614.1 81.0327 614.941 85.1679 617.528 85.8423C620.115 86.5168 619.219 79.6617 617.229 80.1924Z" fill="white"/>
<path d="M582.114 109.603C582.114 109.603 587.466 107.48 596.421 102.372C605.377 97.2639 608.949 96.1693 609.247 96.1582C609.546 96.1472 609.402 101.952 600.579 105.203C591.756 108.453 582.114 109.592 582.114 109.592V109.603Z" fill="#242D53"/>
<path d="M552.681 109.304C549.84 107.922 548.745 105.656 548.977 105.335C549.21 105.014 556.264 107.812 562.787 108.42C569.322 109.039 569.742 109.514 569.709 109.824C569.675 110.123 560.233 112.997 552.67 109.304H552.681Z" fill="#242D53"/>
<path d="M565.695 56.8299C562.489 58.2341 565.319 50.0743 568.47 48.8028C571.632 47.5313 568.769 55.492 565.695 56.8299Z" fill="white"/>
<g style="mix-blend-mode:soft-light">
<path d="M598.654 55.6911C597.526 56.1223 599.052 58.1567 600.423 58.6211C601.794 59.0854 601.684 54.5301 598.654 55.6911Z" fill="white"/>
</g>
<g style="mix-blend-mode:soft-light">
<path d="M576.52 47.2107C576.52 47.2107 590.197 40.6873 600.125 43.5731C610.054 46.4589 610.994 59.2513 610.994 59.2513C610.994 59.2513 606.98 46.2046 598.213 44.7341C589.445 43.2635 576.52 47.2107 576.52 47.2107Z" fill="white"/>
</g>
<g style="mix-blend-mode:multiply" opacity="0.5">
<path d="M591.744 118.659C591.744 118.659 591.236 128.499 593.525 136.858C596.09 146.212 601.817 146.886 601.817 146.886C601.817 146.886 603.232 138.671 603.354 134.602C603.487 130.544 591.733 118.647 591.733 118.647L591.744 118.659Z" fill="#AB2781"/>
</g>
<path d="M643.345 106.728C641.034 109.636 635.904 113.473 630.033 117.055C624.549 120.405 618.424 123.523 613.371 125.414C609.999 126.696 607.102 127.426 605.2 127.316C597.427 126.873 596.045 113.274 597.726 110.432C599.075 108.155 616.566 104.362 620.834 101.056C621.597 100.47 622.216 99.9395 622.747 99.453C626.163 96.324 625.445 95.0636 627.932 93.1508C630.807 90.9284 635.042 86.3731 636.28 86.163C637.507 85.9529 638.657 88.2859 637.264 91.6803C637.264 91.6803 645.512 86.9702 649.117 88.7503C649.415 88.894 649.67 89.093 649.869 89.3363C652.146 91.9788 648.774 99.9174 643.345 106.739V106.728Z" fill="url(#paint16_linear_601_6966)"/>
<path d="M578.908 166.047C575.226 171.232 573.589 177.977 571.312 187.32C569.045 196.663 564.379 205.917 563.03 210.406C561.693 214.906 561.604 217.924 561.858 218.709C562.113 219.483 571.201 220.268 580.024 216.631C588.847 212.993 591.954 209.798 595.769 208.847C599.572 207.896 600.357 205.475 600.18 203.396C600.004 201.317 600.7 193.965 600.7 181.604C600.7 169.242 602.723 158.683 602.547 156.793C602.37 154.902 584.27 158.484 578.908 166.036V166.047Z" fill="url(#paint17_linear_601_6966)"/>
<path d="M607.588 127.117C607.588 127.117 602.193 128.189 600.191 119.09C598.179 109.99 603.365 107.878 604.581 107.502C605.797 107.126 608.628 105.988 608.628 105.988C608.628 105.988 605.698 102.107 598.433 105.335C591.169 108.564 588.903 122.429 596.001 131.34C603.088 140.252 614.355 130.832 614.664 124.917L607.599 127.117H607.588Z" fill="url(#paint18_linear_601_6966)"/>
<path d="M578.554 115.795C578.554 115.795 573.468 113.351 568.448 119.543C563.428 125.746 568.083 137.941 568.083 137.941C568.083 137.941 570.095 135.122 573.114 128.532C576.132 121.942 578.542 115.806 578.542 115.806L578.554 115.795Z" fill="url(#paint19_linear_601_6966)"/>
<path d="M643.345 106.728C641.034 109.636 635.904 113.473 630.033 117.055C621.409 116.16 622.503 101.941 622.758 99.453C626.174 96.324 625.455 95.0636 627.943 93.1508C630.818 90.9284 635.053 86.3731 636.291 86.163C637.518 85.9529 638.668 88.2859 637.275 91.6803C637.275 91.6803 645.523 86.9702 649.128 88.7503C652.743 90.5304 649.26 99.2982 643.345 106.739V106.728Z" fill="url(#paint20_linear_601_6966)"/>
<path d="M548.07 138.98C543.703 138.98 540.607 139.544 535.996 139.401C527.516 139.135 524.1 135.641 523.569 134.724C523.038 133.806 522.187 132.811 523.945 129.593C525.703 126.387 532.348 126.42 532.348 126.42C528.81 125.901 528.235 123.081 528.92 122.064C529.617 121.047 533.973 120.693 537.677 120.372C540.408 120.14 542.188 119.123 544.82 119.554C545.682 119.698 546.843 120.063 548.391 120.416C547.164 123.28 543.714 132.634 548.092 138.969L548.07 138.98Z" fill="url(#paint21_linear_601_6966)"/>
<path d="M576.729 169.751C576.729 169.751 579.913 164.178 589.754 160.275C599.594 156.383 601.916 158.982 601.949 163.095C601.949 163.095 605.487 161.403 604.547 155.2C603.807 150.269 596.763 147.914 584.391 154.227C572.019 160.541 571.61 168.844 575.269 173.201L576.74 169.762L576.729 169.751Z" fill="url(#paint22_linear_601_6966)"/>
<path d="M574.817 172.603C569.885 171.531 566.148 168.811 563.572 165.317C559.304 159.568 558.143 151.729 559.791 145.714C560.299 143.856 560.918 142.408 561.593 141.313C564.589 138.14 568.083 137.952 568.083 137.952L566.966 139.445C562.433 147.063 570.847 164.178 573.457 169.32C573.943 170.259 574.806 172.615 574.806 172.615L574.817 172.603Z" fill="url(#paint23_linear_601_6966)"/>
<path d="M600.18 203.407C600.18 203.407 583.861 191.51 567.231 199.681L568.072 197.503C568.072 197.503 582.711 189.752 600.18 203.418V203.407Z" fill="url(#paint24_linear_601_6966)"/>
<path d="M533.885 150.435C533.885 150.435 535.687 167.219 530.114 182.057C530.114 182.057 537.434 170.757 535.488 150.269L533.885 150.435Z" fill="url(#paint25_linear_601_6966)"/>
<path d="M586.912 136.824C586.338 136.824 585.685 136.669 584.955 136.249C582.423 134.812 581.727 129.936 582.545 126.232C583.22 123.18 584.779 121.334 586.824 121.168L586.868 121.71V121.168C587.897 121.08 590.661 120.847 591.844 126.265C592.341 128.532 591.413 134.27 588.836 136.172C588.372 136.515 587.731 136.824 586.924 136.824H586.912ZM587.41 122.23C587.233 122.23 587.078 122.241 586.946 122.252H586.901C584.712 122.44 583.861 125.259 583.596 126.464C582.788 130.146 583.673 134.27 585.486 135.298C586.503 135.873 587.388 135.873 588.173 135.287C590.296 133.717 591.202 128.499 590.76 126.486C589.92 122.661 588.405 122.219 587.399 122.219L587.41 122.23Z" fill="url(#paint26_linear_601_6966)"/>
<g style="mix-blend-mode:multiply" opacity="0.8">
<path d="M637.275 91.6581C637.275 91.6581 635.993 93.0512 635.739 94.7761C635.484 96.5009 634.677 102.328 629.89 103.765C629.89 103.765 632.278 105.844 634.876 102.073C637.474 98.3031 636.28 95.8485 636.59 94.2453C636.911 92.6421 637.275 91.636 637.275 91.636V91.6581Z" fill="#AB2781"/>
</g>
<path d="M597.096 158.374C597.096 158.374 594.553 188.215 590.439 197.691L592.573 198.619C592.573 198.619 597.538 172.913 597.096 158.385V158.374Z" fill="url(#paint27_linear_601_6966)"/>
<g style="mix-blend-mode:multiply" opacity="0.8">
<path d="M532.326 126.42C532.326 126.42 534.571 126.475 535.112 126.63C535.665 126.785 537.268 132.059 541.592 133.054C541.592 133.054 538.474 133.618 536.052 130.246C533.631 126.873 532.326 126.431 532.326 126.431V126.42Z" fill="#AB2781"/>
</g>
<g style="mix-blend-mode:multiply" opacity="0.5">
<path d="M576.53 115.319C576.53 115.319 571.865 131.385 582.158 128.974C590.329 127.061 592.563 112.246 592.563 112.246C592.563 112.246 582.379 115.673 580.467 115.728C578.543 115.795 576.53 115.319 576.53 115.319Z" fill="#E767A7"/>
</g>
<g style="mix-blend-mode:multiply" opacity="0.5">
<path d="M592.054 114.766C592.054 114.766 591.003 124.375 597.084 129.45C603.176 134.514 602.977 127.703 603.165 126.641C603.353 125.58 598.566 124.198 599.318 115.087C600.07 105.976 608.627 105.988 608.627 105.988C608.627 105.988 603.187 106.607 601.805 113.993C600.423 121.367 605.775 125.525 608.627 126.044C611.491 126.564 614.653 124.927 614.653 124.927C614.653 124.927 612.265 134.801 603.165 135.011C594.066 135.221 590.605 122.13 592.054 114.778V114.766Z" fill="#AB2781"/>
</g>
<g style="mix-blend-mode:multiply" opacity="0.5">
<path d="M571.323 116.845C575.16 115.098 573.512 122.34 571.655 128.742C569.797 135.144 567.343 135.586 567.343 135.586L568.095 137.941C568.095 137.941 575.491 125.624 578.554 115.795C578.554 115.795 575.469 114.214 571.323 116.845Z" fill="#AB2781"/>
</g>
<path d="M575.27 190.195C567.973 187.541 572.263 174.737 576.154 171.863C580.046 168.977 585.21 172.736 585.464 180.852C585.729 188.978 577.625 191.057 575.27 190.195Z" fill="url(#paint28_linear_601_6966)"/>
<path d="M573.202 186.413C571.09 182.886 572.76 173.621 577.359 171.962C581.97 170.304 583.54 176.363 583.285 180.354C582.876 186.723 576.364 191.698 573.202 186.413Z" fill="url(#paint29_linear_601_6966)"/>
<path d="M539.048 148.887C535.643 151.087 543.604 154.725 549.674 153.652C555.545 152.613 556.794 147.969 556.617 146.189C556.44 144.409 544.466 145.382 539.048 148.876V148.887Z" fill="url(#paint30_linear_601_6966)"/>
<path d="M538.507 149.318C537.921 151.021 544.444 153.719 549.176 152.536C553.908 151.353 555.899 147.273 555.467 146.057C555.036 144.84 549.375 145.327 545.55 146.023C541.724 146.72 538.761 148.555 538.496 149.307L538.507 149.318Z" fill="url(#paint31_linear_601_6966)"/>
<g style="mix-blend-mode:multiply" opacity="0.5">
<path d="M599.606 150.623C603.332 152.569 597.251 155.786 592.717 158.031C588.195 160.275 578.797 165.063 576.254 166.909C573.722 168.756 575.668 161.768 577.172 159.291C577.172 159.291 569.819 166.047 575.027 172.902L576.829 171.454C576.829 171.454 582.656 162.852 591.302 161.79C599.948 160.729 601.419 167.893 601.419 167.893L601.939 163.095C601.939 163.095 604.858 161.536 604.681 156.66C604.504 151.784 601.176 150.822 599.595 150.623H599.606Z" fill="#AB2781"/>
</g>
<g style="mix-blend-mode:multiply" opacity="0.5">
<path d="M574.816 172.603C569.885 171.531 566.148 168.811 563.572 165.317L562.134 162.851C562.134 162.851 568.359 167.02 567.342 159.756C566.325 152.502 563.129 140.307 561.604 141.302C563.726 138.505 568.094 137.941 568.094 137.941L566.977 139.434C562.444 147.052 570.858 164.167 573.467 169.308C573.954 170.248 574.816 172.603 574.816 172.603Z" fill="#AB2781"/>
</g>
<g style="mix-blend-mode:multiply" opacity="0.3">
<path d="M566.535 140.108C566.535 140.108 566.689 149.738 570.316 154.924C573.943 160.109 579.36 157.367 579.36 157.367C579.36 157.367 572.682 163.825 573.456 169.32C573.456 169.32 561.592 154.714 566.535 140.119V140.108Z" fill="#C72781"/>
</g>
<g style="mix-blend-mode:multiply" opacity="0.5">
<path d="M559.791 145.327L558.509 145.592C558.509 145.592 551.841 158.175 550.371 166.655C548.9 175.135 559.072 173.355 559.072 173.355L569.167 170.403C569.167 170.403 556.165 161.768 559.791 145.327Z" fill="#AB2781"/>
</g>
<g style="mix-blend-mode:multiply" opacity="0.2">
<path d="M581.76 220.091C583.407 219.34 588.924 206.835 592.628 203.982C596.332 201.118 601.275 205.961 600.18 211.169C600.18 211.169 594.243 214.01 591.932 215.105C589.621 216.199 581.76 220.091 581.76 220.091Z" fill="#C22781"/>
</g>
<g style="mix-blend-mode:multiply" opacity="0.2">
<path d="M513.685 155.2C513.685 155.2 523.624 159.568 527.35 166.832C531.088 174.096 526.212 180.752 524.94 181.327C523.669 181.902 522.574 181.327 522.574 181.327C522.574 181.327 520.562 174.981 518.605 169.043C516.648 163.106 513.685 155.2 513.685 155.2Z" fill="#C22781"/>
</g>
<path d="M568.205 199.349C566.281 200.156 563.461 212.451 564.589 215.105C565.706 217.758 581.484 214.663 587.498 207.233C593.513 199.803 591.047 199.36 591.047 199.36C591.047 199.36 581.649 193.755 568.205 199.36V199.349Z" fill="#181E36"/>
<path d="M517.854 145.327C516.461 145.084 519.844 154.979 524.51 161.116C529.176 167.252 531.862 168.391 531.862 168.391C531.862 168.391 535.091 155.156 533.333 152.381C531.575 149.617 528.059 147.085 517.854 145.327Z" fill="#181E36"/>
<g style="mix-blend-mode:soft-light" opacity="0.5">
<path d="M577.802 159.081C575.69 161.083 583.717 163.183 589.267 159.081C594.818 154.979 593.668 152.47 593.668 152.47C593.668 152.47 585.685 151.596 577.802 159.081Z" fill="white"/>
</g>
<g style="mix-blend-mode:soft-light" opacity="0.5">
<path d="M562.223 145.846C560.377 145.183 559.636 150.943 561.593 155.963C563.561 160.983 566.867 160.806 567.331 160.629C567.796 160.452 566.458 147.35 562.212 145.846H562.223Z" fill="white"/>
</g>
<g style="mix-blend-mode:soft-light" opacity="0.5">
<path d="M592.584 119.521C594.563 123.147 598.024 114.247 600.533 109.614C603.043 104.981 590.483 105.446 592.584 119.521Z" fill="white"/>
</g>
<path d="M584.845 140.738C580.599 143.712 588.096 145.238 588.372 142.12C588.649 139.002 585.995 139.931 584.845 140.738Z" fill="#242D53"/>
<path d="M522.873 155.2C521.115 155.499 524.31 157.976 525.184 158.031C526.046 158.086 526.643 154.57 522.873 155.2Z" fill="#374580"/>
<path d="M585.475 204.093C581.771 206.094 586.404 207.73 587.565 204.723C588.715 201.726 586.327 203.628 585.475 204.093Z" fill="#374580"/>
<path d="M591.048 170.89C587.676 172.692 588.637 173.908 590.429 174.947C592.22 175.987 592.231 170.248 591.048 170.89Z" fill="#242D53"/>
<g style="mix-blend-mode:multiply" opacity="0.5">
<path d="M568.072 197.492C568.072 197.492 568.636 194.142 577.47 193.788C586.305 193.445 594.973 199.88 594.973 199.88C594.973 199.88 582.744 193.478 568.072 197.492Z" fill="#D14894"/>
</g>
<g style="mix-blend-mode:multiply" opacity="0.5">
<path d="M535.488 150.269C535.488 150.269 537.5 148.976 537.81 156.936C538.109 164.897 533.089 175.279 533.089 175.279C533.089 175.279 535.433 165.572 535.466 158.705C535.499 151.828 535.488 150.28 535.488 150.28V150.269Z" fill="#D14894"/>
</g>
<g style="mix-blend-mode:multiply" opacity="0.5">
<path d="M643.345 106.728C641.034 109.636 635.904 113.473 630.033 117.055C624.549 120.405 618.424 123.523 613.371 125.414L611.358 125.956C611.358 125.956 625.201 121.113 636.048 110.642C646.883 100.161 649.736 91.2933 649.868 89.3252C652.146 91.9677 648.774 99.9063 643.345 106.728Z" fill="#AB2781"/>
</g>
<g style="mix-blend-mode:multiply" opacity="0.3">
<path d="M637.275 91.6583C637.275 91.6583 641.466 88.8278 643.6 91.205C645.734 93.5821 643.666 101.93 637.275 105.623C634.003 107.502 630.686 104.053 630.686 104.053C630.686 104.053 635.495 102.14 635.584 98.646C635.672 95.1522 637.264 91.6583 637.264 91.6583H637.275Z" fill="#AB2781"/>
</g>
<path d="M641.921 89.1532C636.873 94.5162 633.921 100.239 636.849 104.209C637.092 104.542 638.892 106.133 639.195 106.418C643.164 110.125 650.794 108.421 656.264 102.61C661.734 96.7997 662.945 89.0681 658.983 85.3533C658.732 85.1172 656.592 83.0439 656.319 82.8461C652.201 79.9917 647.044 83.6968 641.929 89.1453L641.921 89.1532Z" fill="url(#paint32_radial_601_6966)"/>
<path d="M639.258 86.6458C633.788 92.4564 632.577 100.188 636.539 103.903C640.501 107.618 648.138 105.92 653.593 100.111C659.055 94.2932 660.281 86.5607 656.319 82.8459C652.357 79.1312 644.72 80.8283 639.258 86.6458Z" fill="url(#paint33_linear_601_6966)"/>
<g style="mix-blend-mode:soft-light">
<path d="M657.69 93.763L634.212 97.8904L634.761 94.2906L658.148 85.7077C658.148 85.7077 659.379 88.5989 657.69 93.763Z" fill="#00B2FF"/>
</g>
<path d="M641.368 88.6322C637.509 92.7311 636.647 98.1847 639.451 100.809C639.554 100.906 639.658 101.004 639.768 101.078C642.631 103.344 647.772 102.081 651.49 98.1315C655.201 94.1897 656.121 88.9987 653.716 86.2759C653.613 86.1638 653.517 86.0588 653.407 85.9546C650.618 83.3293 645.226 84.5334 641.375 88.6392L641.368 88.6322Z" fill="url(#paint34_radial_601_6966)"/>
<path d="M642.018 89.2436C638.322 93.1697 637.379 98.3546 639.769 101.078C642.632 103.344 647.773 102.081 651.491 98.1316C655.202 94.1898 656.122 88.9989 653.718 86.276C650.847 84.0479 645.729 85.3018 642.025 89.2505L642.018 89.2436Z" fill="url(#paint35_linear_601_6966)"/>
<path d="M642.774 98.611C642.519 98.3449 642.287 98.029 642.143 97.6639C643.533 99.8724 646.377 99.5805 646.377 99.5805C644.386 99.0562 641.919 97.1517 642.494 94.2101C643.237 90.4154 646.135 89.4838 647.72 90.0203C649.9 90.7575 650.374 94.4732 647.576 95.9787C649.044 94.9721 649.752 92.3283 648.394 91.0629C647.04 89.8001 645.175 90.5329 643.895 91.5603C643.895 91.5603 644.358 91.3233 644.985 91.1298C644.525 91.4146 643.655 92.0902 643.252 93.1592C642.792 94.3818 642.872 95.5091 643.186 96.2879C644.096 98.5517 646.788 99.1558 646.788 99.1558C645.373 98.6199 643.909 97.1616 643.629 95.5593C643.518 94.9289 643.591 94.091 643.856 93.4329C644.07 92.8995 644.426 92.4187 644.849 92.0523C645.257 91.6994 645.815 91.3739 646.381 91.3849C647.089 91.3991 647.797 91.9067 647.947 92.8814C648.059 93.6098 647.705 94.3185 647.164 94.91C647.584 94.2032 647.624 93.2962 647.261 92.7135C646.898 92.1308 646.135 91.8154 645.46 92.174C643.986 92.9562 643.725 95.1091 644.391 96.4139C644.895 97.4035 645.88 98.304 646.866 98.6013C649.037 99.2555 650.814 97.8009 651.478 97.0557C651.478 97.0557 650.01 98.2209 648.747 98.2793C651.044 97.6395 653.162 95.4831 653.458 92.1842C653.458 92.1842 653.065 94.0949 651.749 95.6252C654.217 91.42 652.119 87.4318 649.38 87.0068C649.38 87.0068 651.142 87.5989 651.688 89.26C650.257 87.2052 647.323 86.5995 644.536 87.8093C644.536 87.8093 648.56 86.8447 650.432 89.4366C651.504 90.9216 651.528 92.6028 651.052 94.1305C650.93 94.524 650.755 94.8475 650.583 95.1211C651.372 93.1824 651.233 90.4874 649.715 89.1934C648.642 88.1637 647.143 87.7648 645.489 88.1347C644.203 88.423 642.874 89.2743 641.878 90.3912C641.215 91.1345 640.789 91.9679 640.329 92.8476C640.329 92.8476 641.168 91.2411 642.186 90.5195C640.44 92.4865 639.477 95.5151 640.637 98.3022C640.637 98.3022 640.209 96.8338 640.561 95.1377C640.613 98.686 643.904 102.007 648.698 100.097C648.698 100.097 644.874 100.796 642.774 98.6118L642.774 98.611ZM646.387 96.2547C646.334 96.3187 646.252 96.3322 646.204 96.2848L646.144 96.2262C646.096 96.1788 646.014 96.1924 645.961 96.2564L645.797 96.4566C645.744 96.5206 645.662 96.5342 645.614 96.4868C645.565 96.4394 645.569 96.3487 645.622 96.2847L645.786 96.0844C645.839 96.0204 645.842 95.9297 645.794 95.8823L645.734 95.8237C645.686 95.7763 645.69 95.6856 645.742 95.6216C645.795 95.5576 645.877 95.544 645.925 95.5914L645.985 95.6501C646.033 95.6974 646.115 95.6839 646.168 95.6199L646.332 95.4196C646.385 95.3556 646.467 95.3421 646.515 95.3895C646.563 95.4369 646.56 95.5276 646.507 95.5916L646.343 95.7918C646.29 95.8559 646.287 95.9466 646.335 95.9939L646.395 96.0526C646.443 96.1 646.439 96.1907 646.387 96.2547ZM646.355 97.507C646.336 97.5295 646.308 97.5342 646.291 97.5175L646.27 97.4972C646.253 97.4805 646.225 97.4851 646.206 97.5077L646.149 97.5775C646.13 97.6 646.102 97.6047 646.085 97.588C646.068 97.5713 646.069 97.5399 646.087 97.5173L646.145 97.4476C646.163 97.425 646.165 97.3936 646.148 97.3769L646.127 97.3565C646.11 97.3398 646.111 97.3084 646.13 97.2858C646.148 97.2632 646.177 97.2586 646.194 97.2753L646.214 97.2956C646.231 97.312 646.26 97.3076 646.278 97.2851L646.336 97.2153C646.354 97.1927 646.383 97.188 646.4 97.2048C646.417 97.2215 646.415 97.2529 646.397 97.2755L646.34 97.3452C646.321 97.3678 646.32 97.3992 646.337 97.4159L646.357 97.4363C646.375 97.453 646.373 97.4844 646.355 97.507ZM652.119 91.3761C652.101 91.3986 652.072 91.4033 652.055 91.3866L652.035 91.3663C652.018 91.3496 651.989 91.3543 651.971 91.3768L651.913 91.4466C651.895 91.4692 651.866 91.4738 651.849 91.4571C651.832 91.4404 651.833 91.409 651.852 91.3864L651.909 91.3167C651.928 91.2941 651.929 91.2627 651.912 91.246L651.891 91.2256C651.874 91.2089 651.876 91.1775 651.894 91.1549C651.913 91.1324 651.941 91.1277 651.958 91.1444L651.979 91.1647C651.996 91.1814 652.024 91.1767 652.043 91.1542L652.1 91.0844C652.119 91.0618 652.147 91.0571 652.164 91.0739C652.181 91.0906 652.18 91.122 652.161 91.1446L652.104 91.2143C652.086 91.2369 652.084 91.2683 652.101 91.285L652.122 91.3054C652.139 91.3221 652.138 91.3535 652.119 91.3761ZM651.749 95.6253C651.718 95.6612 651.687 95.6965 651.655 95.7315C651.688 95.6754 651.719 95.6188 651.751 95.5611L651.749 95.6253ZM649.09 97.37C649.108 97.3474 649.137 97.3427 649.154 97.3594L649.175 97.3798C649.192 97.3965 649.22 97.3918 649.239 97.3692L649.296 97.2995C649.314 97.2769 649.343 97.2722 649.36 97.2889C649.377 97.3056 649.376 97.337 649.357 97.3596L649.3 97.4294C649.281 97.4519 649.28 97.4834 649.297 97.5001L649.318 97.5204C649.335 97.5371 649.333 97.5686 649.315 97.5911C649.296 97.6137 649.268 97.6184 649.251 97.6017L649.23 97.5813C649.213 97.5646 649.185 97.5693 649.166 97.5919L649.109 97.6616C649.09 97.6842 649.062 97.6889 649.045 97.6722C649.028 97.6555 649.029 97.6241 649.048 97.6015L649.105 97.5317C649.124 97.5092 649.125 97.4777 649.108 97.461L649.087 97.4407C649.07 97.424 649.071 97.3925 649.09 97.37ZM649.135 96.0338C649.164 95.9986 649.209 95.9915 649.235 96.0173L649.268 96.0495C649.295 96.0756 649.34 96.0679 649.368 96.033L649.459 95.923C649.488 95.8877 649.532 95.8804 649.559 95.9065C649.586 95.9326 649.583 95.9823 649.555 96.0172L649.464 96.1272C649.435 96.1625 649.433 96.2117 649.46 96.2379L649.493 96.2701C649.519 96.2962 649.517 96.3455 649.488 96.3808C649.459 96.4161 649.415 96.4231 649.388 96.3973L649.355 96.3651C649.329 96.339 649.284 96.3463 649.255 96.3816L649.165 96.4916C649.136 96.5269 649.091 96.5339 649.065 96.5081C649.038 96.4823 649.04 96.4323 649.069 96.3974L649.159 96.2874C649.188 96.2521 649.19 96.2029 649.164 96.1767L649.131 96.1445C649.104 96.1184 649.107 96.0687 649.135 96.0338ZM649.104 89.9075C649.129 89.8767 649.168 89.8706 649.191 89.8931L649.22 89.921C649.243 89.9438 649.282 89.937 649.307 89.9066L649.386 89.8106C649.411 89.7798 649.45 89.7737 649.473 89.7962C649.496 89.8187 649.494 89.8623 649.469 89.8926L649.39 89.9886C649.365 90.0194 649.364 90.0626 649.387 90.0851L649.415 90.113C649.438 90.1358 649.436 90.179 649.411 90.2094C649.386 90.2402 649.347 90.2463 649.324 90.2238L649.296 90.1959C649.272 90.1731 649.233 90.1799 649.208 90.2102L649.13 90.3063C649.104 90.337 649.065 90.3431 649.042 90.3207C649.019 90.2982 649.021 90.2546 649.046 90.2242L649.125 90.1282C649.15 90.0974 649.152 90.0543 649.129 90.0318L649.1 90.0039C649.077 89.9811 649.079 89.9378 649.104 89.9075ZM648.559 89.2459C648.577 89.2233 648.606 89.2187 648.623 89.2354L648.644 89.2557C648.661 89.2724 648.689 89.2677 648.708 89.2452L648.765 89.1754C648.783 89.1528 648.812 89.1481 648.829 89.1649C648.846 89.1816 648.845 89.213 648.826 89.2356L648.769 89.3053C648.75 89.3279 648.749 89.3593 648.766 89.376L648.787 89.3964C648.804 89.4131 648.803 89.4445 648.784 89.4671C648.765 89.4896 648.737 89.4943 648.72 89.4776L648.699 89.4573C648.682 89.4406 648.654 89.4453 648.635 89.4678L648.578 89.5376C648.559 89.5602 648.531 89.5648 648.514 89.5481C648.497 89.5314 648.498 89.5 648.517 89.4774L648.574 89.4077C648.593 89.3851 648.594 89.3537 648.577 89.337L648.556 89.3166C648.539 89.2999 648.54 89.2685 648.559 89.2459ZM641.758 92.8096C641.739 92.8321 641.711 92.8368 641.694 92.8201L641.673 92.7998C641.656 92.783 641.628 92.7877 641.609 92.8103L641.552 92.8801C641.533 92.9026 641.505 92.9073 641.488 92.8906C641.471 92.8739 641.472 92.8425 641.491 92.8199L641.548 92.7502C641.567 92.7276 641.568 92.6962 641.551 92.6795L641.53 92.6591C641.513 92.6424 641.514 92.611 641.533 92.5884C641.551 92.5658 641.58 92.5611 641.597 92.5779L641.618 92.5982C641.635 92.6149 641.663 92.6102 641.682 92.5877L641.739 92.5179C641.757 92.4953 641.786 92.4906 641.803 92.5073C641.82 92.524 641.819 92.5555 641.8 92.578L641.743 92.6478C641.724 92.6704 641.723 92.7018 641.74 92.7185L641.761 92.7389C641.778 92.7556 641.777 92.787 641.758 92.8096ZM644.914 89.3957L644.893 89.3753C644.876 89.3586 644.847 89.3633 644.829 89.3859L644.772 89.4557C644.753 89.4782 644.725 89.4829 644.708 89.4662C644.691 89.4495 644.692 89.4181 644.71 89.3955L644.768 89.3257C644.786 89.3032 644.787 89.2718 644.77 89.255L644.75 89.2347C644.733 89.218 644.734 89.1866 644.753 89.164C644.771 89.1414 644.8 89.1367 644.817 89.1534L644.837 89.1738C644.854 89.1905 644.883 89.1858 644.901 89.1632L644.959 89.0935C644.977 89.0709 645.006 89.0662 645.023 89.0829C645.04 89.0996 645.038 89.1311 645.02 89.1536L644.962 89.2234C644.944 89.246 644.943 89.2774 644.96 89.2941L644.98 89.3144C644.997 89.3312 644.996 89.3626 644.978 89.3852C644.959 89.4077 644.931 89.4124 644.914 89.3957ZM641.656 94.1929C641.627 94.2282 641.583 94.2355 641.556 94.2094L641.523 94.1772C641.497 94.1511 641.452 94.1584 641.423 94.1937L641.333 94.3037C641.304 94.339 641.259 94.3464 641.233 94.3202C641.206 94.2941 641.208 94.2448 641.237 94.2095L641.327 94.0996C641.356 94.0643 641.358 94.0147 641.332 93.9889L641.299 93.9567C641.272 93.9305 641.274 93.8813 641.303 93.846C641.332 93.8107 641.377 93.8033 641.403 93.8295L641.436 93.8617C641.463 93.8878 641.507 93.8804 641.536 93.8451L641.627 93.7352C641.656 93.6999 641.7 93.6925 641.727 93.7186C641.754 93.7448 641.752 93.794 641.723 93.8293L641.632 93.9393C641.603 93.9746 641.602 94.0242 641.628 94.05L641.661 94.0822C641.687 94.1083 641.685 94.158 641.656 94.1929Z" fill="url(#paint36_radial_601_6966)"/>
<path d="M640.757 86.9307C640.366 86.5922 639.708 86.6991 639.279 87.1841C638.851 87.6691 638.821 88.3368 639.212 88.6753C639.603 89.0138 640.26 88.9069 640.689 88.4219C641.117 87.9369 641.148 87.2692 640.757 86.9307Z" fill="url(#paint37_radial_601_6966)"/>
<path d="M640.749 87.1456C640.417 86.8478 639.856 86.9563 639.486 87.3637C639.117 87.7711 639.094 88.3422 639.426 88.6399C639.758 88.9376 640.319 88.8292 640.689 88.4218C641.051 88.0074 641.081 87.4433 640.749 87.1456Z" fill="url(#paint38_linear_601_6966)"/>
<path d="M654.947 83.5525C654.556 83.214 653.899 83.3209 653.47 83.806C653.041 84.291 653.011 84.9587 653.402 85.2972C653.793 85.6357 654.45 85.5287 654.879 85.0437C655.308 84.5587 655.338 83.891 654.947 83.5525Z" fill="url(#paint39_radial_601_6966)"/>
<path d="M654.933 83.7593C654.601 83.4616 654.039 83.5701 653.67 83.9775C653.3 84.3849 653.278 84.9559 653.61 85.2537C653.942 85.5514 654.503 85.443 654.873 85.0355C655.235 84.6212 655.265 84.0571 654.933 83.7593Z" fill="url(#paint40_linear_601_6966)"/>
<path d="M638.441 101.115C638.05 100.776 637.393 100.883 636.964 101.368C636.535 101.853 636.505 102.521 636.896 102.859C637.287 103.198 637.945 103.091 638.373 102.606C638.802 102.121 638.832 101.453 638.441 101.115Z" fill="url(#paint41_radial_601_6966)"/>
<path d="M638.426 101.338C638.094 101.04 637.533 101.149 637.163 101.556C636.801 101.971 636.771 102.535 637.103 102.833C637.435 103.13 637.996 103.022 638.366 102.614C638.735 102.207 638.758 101.636 638.426 101.338Z" fill="url(#paint42_linear_601_6966)"/>
<path d="M653.041 98.4648C652.65 98.1263 651.992 98.2333 651.564 98.7183C651.135 99.2033 651.105 99.871 651.496 100.21C651.887 100.548 652.544 100.441 652.973 99.9561C653.402 99.471 653.432 98.8033 653.041 98.4648Z" fill="url(#paint43_radial_601_6966)"/>
<path d="M653.033 98.68C652.701 98.3823 652.14 98.4907 651.77 98.8981C651.408 99.3125 651.378 99.8766 651.71 100.174C652.042 100.472 652.604 100.364 652.973 99.9562C653.343 99.5488 653.365 98.9777 653.033 98.68Z" fill="url(#paint44_linear_601_6966)"/>
<g style="mix-blend-mode:soft-light">
<path d="M660.316 96.2354L657.69 93.7629C657.69 93.7629 659.221 90.7317 658.406 85.9507L660.914 88.5193C660.914 88.5193 661.929 93.0143 660.316 96.2354Z" fill="#00B2FF"/>
</g>
<path d="M658.09 92.4518C657.972 92.7846 657.103 89.8787 657.474 88.6722C657.844 87.4657 658.118 86.6573 658.421 86.7201C658.723 86.7829 658.845 90.3931 658.09 92.4518Z" fill="white"/>
<path d="M634.513 97.9525C635.022 98.8017 635.084 95.365 634.833 95.2769C634.582 95.1887 634.056 97.1816 634.513 97.9525Z" fill="white"/>
<path d="M632.653 100.426C630.343 103.334 628.756 95.7735 622.885 99.3559C622.63 101.844 622.798 99.435 622.885 99.3559C626.301 96.2269 625.583 94.9664 628.071 93.0536C630.946 90.8312 635.18 86.2759 636.419 86.0659C637.646 85.8558 638.796 88.1887 637.403 91.5831C637.403 91.5831 636.523 95.4508 634.312 99.3206L632.653 100.426Z" fill="url(#paint45_linear_601_6966)"/>
<g style="mix-blend-mode:multiply" opacity="0.3">
<path d="M532.326 126.42C532.326 126.42 527.24 126.387 524.94 129.162C522.651 131.926 528.113 136.426 533.852 136.338C539.59 136.249 541.337 133.043 540.795 132.811C540.265 132.579 537.357 132.004 536.351 129.439C535.344 126.873 532.315 126.42 532.315 126.42H532.326Z" fill="#AB2781"/>
</g>
<g style="mix-blend-mode:multiply" opacity="0.2">
<path d="M637.131 86.4285C636.07 85.8867 633.936 87.899 633.792 90.9285C633.649 93.958 634.942 94.9641 635.263 94.7098C635.583 94.4555 636.402 93.2504 637.131 91.8351C637.861 90.4199 638.425 87.1029 637.131 86.4395V86.4285Z" fill="#AB2781"/>
</g>
<g style="mix-blend-mode:multiply" opacity="0.2">
<path d="M528.677 122.672C529.905 121.467 529.23 124.275 534.98 126.188L535.112 126.63C535.112 126.63 533.609 126.63 531.099 125.956C528.589 125.281 528.666 122.661 528.666 122.661L528.677 122.672Z" fill="#AB2781"/>
</g>
<path d="M527.193 122.559C534.511 123.398 540.458 125.865 540.784 130.788C540.812 131.199 540.464 133.576 540.416 133.989C539.776 139.382 532.848 143.004 524.919 142.094C516.991 141.184 511.077 136.059 511.707 130.665C511.746 130.323 512.043 127.358 512.124 127.031C513.428 122.193 519.759 121.696 527.183 122.557L527.193 122.559Z" fill="url(#paint46_radial_601_6966)"/>
<path d="M527.611 118.924C535.539 119.834 541.453 124.959 540.823 130.353C540.193 135.748 533.264 139.379 525.348 138.461C517.421 137.541 511.495 132.425 512.125 127.03C512.754 121.636 519.684 118.004 527.611 118.924Z" fill="url(#paint47_linear_601_6966)"/>
<g style="mix-blend-mode:soft-light">
<path d="M518.12 136.256L538.72 124.259L535.978 121.863L512.573 130.397C512.573 130.397 513.498 133.4 518.12 136.256Z" fill="#00B2FF"/>
</g>
<path d="M527.28 121.803C532.872 122.445 537.05 126.055 536.601 129.869C536.585 130.01 536.569 130.151 536.533 130.279C535.807 133.857 531.065 136.21 525.676 135.592C520.298 134.975 516.245 131.603 516.325 127.971C516.332 127.819 516.337 127.677 516.355 127.526C516.791 123.721 521.687 121.161 527.279 121.813L527.28 121.803Z" fill="url(#paint48_radial_601_6966)"/>
<path d="M527.177 122.69C532.534 123.304 536.6 126.657 536.532 130.28C535.806 133.858 531.064 136.211 525.675 135.593C520.297 134.976 516.244 131.604 516.324 127.972C517.08 124.418 521.799 122.073 527.176 122.7L527.177 122.69Z" fill="url(#paint49_linear_601_6966)"/>
<path d="M532.611 130.487C532.483 130.833 532.3 131.179 532.034 131.468C533.415 129.254 531.91 126.823 531.91 126.823C532.308 128.842 531.671 131.894 528.774 132.66C525.035 133.649 522.932 131.448 522.723 129.788C522.435 127.505 525.57 125.456 528.146 127.316C526.6 126.435 523.912 126.952 523.366 128.726C522.822 130.496 524.295 131.854 525.778 132.557C525.778 132.557 525.363 132.244 524.915 131.764C525.372 132.053 526.36 132.541 527.497 132.437C528.798 132.318 529.777 131.753 530.341 131.131C531.981 129.324 531.349 126.638 531.349 126.638C531.484 128.145 530.811 130.099 529.492 131.051C528.973 131.425 528.188 131.726 527.48 131.775C526.907 131.815 526.319 131.705 525.804 131.484C525.309 131.271 524.772 130.91 524.535 130.396C524.239 129.754 524.386 128.895 525.198 128.335C525.804 127.916 526.597 127.925 527.365 128.153C526.545 128.084 525.712 128.444 525.346 129.025C524.98 129.606 525.03 130.43 525.647 130.881C526.994 131.865 529.045 131.16 529.929 129.992C530.599 129.106 530.979 127.827 530.816 126.81C530.457 124.572 528.372 123.608 527.412 123.336C527.412 123.336 529.101 124.148 529.705 125.258C528.127 123.471 525.262 122.507 522.165 123.681C522.165 123.681 524.056 123.201 526.006 123.716C521.146 123.331 518.474 126.961 519.287 129.61C519.287 129.61 519.051 127.766 520.307 126.55C519.083 128.735 519.819 131.639 522.124 133.618C522.124 133.618 519.499 130.419 521.014 127.603C521.882 125.99 523.384 125.234 524.966 124.996C525.374 124.934 525.741 124.95 526.062 124.986C523.974 125.122 521.61 126.424 521.108 128.354C520.65 129.769 520.946 131.292 522 132.618C522.821 133.649 524.167 134.473 525.607 134.882C526.565 135.154 527.501 135.174 528.493 135.203C528.493 135.203 526.681 135.149 525.588 134.549C528.12 135.261 531.265 134.805 533.266 132.545C533.266 132.545 532.132 133.571 530.452 133.994C533.622 132.399 535.173 127.988 531.362 124.509C531.362 124.509 533.66 127.644 532.612 130.487L532.611 130.487ZM528.914 128.266C528.995 128.285 529.043 128.353 529.021 128.417L528.994 128.496C528.973 128.561 529.021 128.628 529.101 128.648L529.353 128.708C529.434 128.728 529.482 128.796 529.46 128.86C529.439 128.924 529.356 128.96 529.275 128.941L529.023 128.88C528.942 128.861 528.859 128.897 528.838 128.962L528.811 129.041C528.789 129.105 528.706 129.141 528.626 129.122C528.545 129.103 528.497 129.035 528.519 128.971L528.545 128.891C528.567 128.827 528.519 128.759 528.438 128.74L528.186 128.679C528.106 128.66 528.058 128.592 528.079 128.528C528.101 128.464 528.184 128.427 528.265 128.447L528.517 128.507C528.597 128.527 528.68 128.49 528.702 128.426L528.729 128.347C528.75 128.283 528.833 128.246 528.914 128.266ZM530.055 127.748C530.083 127.755 530.1 127.778 530.092 127.801L530.083 127.828C530.075 127.851 530.092 127.874 530.12 127.881L530.208 127.902C530.236 127.909 530.253 127.933 530.245 127.955C530.238 127.978 530.209 127.991 530.181 127.984L530.093 127.963C530.064 127.956 530.036 127.968 530.028 127.991L530.019 128.018C530.011 128.041 529.982 128.054 529.954 128.047C529.925 128.04 529.909 128.016 529.916 127.994L529.926 127.966C529.933 127.944 529.917 127.92 529.888 127.913L529.8 127.892C529.772 127.885 529.755 127.862 529.763 127.839C529.771 127.817 529.799 127.804 529.828 127.811L529.916 127.832C529.944 127.839 529.973 127.826 529.98 127.804L529.99 127.776C529.997 127.754 530.026 127.741 530.055 127.748ZM522.022 125.238C522.051 125.245 522.067 125.268 522.06 125.291L522.05 125.319C522.043 125.341 522.059 125.365 522.088 125.372L522.176 125.393C522.204 125.4 522.221 125.423 522.213 125.446C522.205 125.468 522.177 125.481 522.148 125.474L522.06 125.453C522.032 125.446 522.003 125.459 521.996 125.481L521.986 125.509C521.979 125.531 521.95 125.544 521.921 125.537C521.893 125.53 521.876 125.507 521.884 125.484L521.893 125.457C521.901 125.434 521.884 125.411 521.856 125.404L521.768 125.383C521.74 125.376 521.723 125.352 521.731 125.33C521.738 125.307 521.767 125.294 521.795 125.301L521.883 125.322C521.912 125.329 521.94 125.317 521.948 125.294L521.957 125.266C521.965 125.244 521.994 125.231 522.022 125.238ZM526.007 123.716C526.053 123.728 526.098 123.741 526.143 123.754C526.078 123.749 526.014 123.746 525.948 123.743L526.007 123.716ZM528.737 125.347C528.709 125.34 528.692 125.317 528.7 125.294L528.709 125.266C528.717 125.244 528.7 125.22 528.672 125.213L528.584 125.192C528.555 125.186 528.539 125.162 528.546 125.139C528.554 125.117 528.583 125.104 528.611 125.111L528.699 125.132C528.727 125.139 528.756 125.126 528.764 125.104L528.773 125.076C528.781 125.054 528.81 125.041 528.838 125.048C528.866 125.055 528.883 125.078 528.875 125.101L528.866 125.128C528.859 125.151 528.875 125.174 528.904 125.181L528.991 125.202C529.02 125.209 529.036 125.233 529.029 125.255C529.021 125.278 528.992 125.291 528.964 125.284L528.876 125.263C528.848 125.256 528.819 125.268 528.811 125.291L528.802 125.319C528.794 125.341 528.766 125.354 528.737 125.347ZM527.515 125.889C527.471 125.879 527.445 125.841 527.457 125.806L527.471 125.763C527.483 125.728 527.457 125.69 527.413 125.68L527.274 125.647C527.23 125.636 527.204 125.599 527.216 125.564C527.228 125.528 527.273 125.509 527.317 125.519L527.456 125.553C527.5 125.563 527.545 125.543 527.557 125.508L527.572 125.465C527.584 125.429 527.629 125.409 527.673 125.42C527.718 125.431 527.744 125.468 527.732 125.503L527.717 125.547C527.705 125.582 527.731 125.619 527.776 125.63L527.914 125.663C527.959 125.673 527.985 125.711 527.973 125.746C527.961 125.781 527.915 125.801 527.871 125.79L527.733 125.757C527.689 125.746 527.643 125.766 527.631 125.801L527.617 125.845C527.605 125.88 527.559 125.9 527.515 125.889ZM522.017 128.592C521.979 128.583 521.956 128.55 521.966 128.52L521.979 128.482C521.989 128.451 521.966 128.419 521.928 128.41L521.807 128.381C521.768 128.371 521.746 128.339 521.756 128.308C521.766 128.278 521.806 128.261 521.844 128.27L521.965 128.299C522.004 128.308 522.043 128.291 522.054 128.26L522.066 128.222C522.077 128.192 522.117 128.174 522.155 128.184C522.193 128.193 522.216 128.225 522.206 128.256L522.193 128.294C522.183 128.324 522.206 128.357 522.244 128.366L522.365 128.395C522.404 128.404 522.426 128.437 522.416 128.467C522.406 128.498 522.366 128.515 522.328 128.506L522.207 128.477C522.168 128.468 522.129 128.485 522.118 128.516L522.106 128.553C522.095 128.584 522.055 128.601 522.017 128.592ZM521.66 129.371C521.632 129.364 521.615 129.341 521.623 129.318L521.632 129.291C521.639 129.268 521.623 129.245 521.594 129.238L521.507 129.217C521.478 129.21 521.462 129.186 521.469 129.164C521.477 129.141 521.506 129.128 521.534 129.135L521.622 129.156C521.65 129.163 521.679 129.151 521.687 129.128L521.696 129.1C521.704 129.078 521.732 129.065 521.761 129.072C521.789 129.079 521.806 129.102 521.798 129.125L521.789 129.153C521.781 129.175 521.798 129.199 521.826 129.206L521.914 129.227C521.943 129.234 521.959 129.257 521.952 129.28C521.944 129.302 521.915 129.315 521.887 129.308L521.799 129.287C521.771 129.28 521.742 129.293 521.734 129.315L521.725 129.343C521.717 129.365 521.688 129.378 521.66 129.371ZM527.835 133.934C527.864 133.941 527.88 133.964 527.873 133.987L527.863 134.015C527.856 134.037 527.872 134.061 527.901 134.067L527.989 134.089C528.017 134.095 528.034 134.119 528.026 134.142C528.018 134.164 527.99 134.177 527.961 134.17L527.873 134.149C527.845 134.142 527.816 134.155 527.809 134.177L527.799 134.205C527.792 134.227 527.763 134.24 527.734 134.233C527.706 134.226 527.689 134.203 527.697 134.18L527.706 134.153C527.714 134.13 527.697 134.106 527.669 134.1L527.581 134.079C527.553 134.072 527.536 134.048 527.544 134.026C527.551 134.003 527.58 133.99 527.608 133.997L527.696 134.018C527.725 134.025 527.753 134.013 527.761 133.99L527.77 133.962C527.778 133.94 527.807 133.927 527.835 133.934ZM523.386 132.585L523.377 132.613C523.369 132.635 523.386 132.659 523.414 132.666L523.502 132.687C523.531 132.694 523.547 132.717 523.54 132.74C523.532 132.763 523.503 132.775 523.475 132.768L523.387 132.747C523.359 132.74 523.33 132.753 523.322 132.776L523.313 132.803C523.305 132.826 523.276 132.838 523.248 132.831C523.22 132.825 523.203 132.801 523.211 132.779L523.22 132.751C523.228 132.728 523.211 132.705 523.182 132.698L523.095 132.677C523.066 132.67 523.05 132.647 523.057 132.624C523.065 132.601 523.094 132.589 523.122 132.596L523.21 132.617C523.238 132.624 523.267 132.611 523.275 132.588L523.284 132.561C523.292 132.538 523.32 132.526 523.349 132.532C523.377 132.539 523.394 132.563 523.386 132.585ZM529.124 133.422C529.168 133.432 529.195 133.469 529.183 133.504L529.168 133.548C529.156 133.583 529.182 133.62 529.227 133.631L529.365 133.664C529.409 133.675 529.435 133.712 529.424 133.747C529.412 133.782 529.367 133.802 529.322 133.792L529.184 133.758C529.139 133.748 529.094 133.768 529.082 133.803L529.068 133.846C529.056 133.882 529.011 133.901 528.966 133.891C528.922 133.88 528.896 133.843 528.908 133.808L528.922 133.764C528.934 133.729 528.908 133.692 528.864 133.681L528.725 133.648C528.681 133.637 528.655 133.6 528.667 133.565C528.678 133.53 528.724 133.51 528.768 133.521L528.906 133.554C528.951 133.565 528.996 133.544 529.008 133.509L529.023 133.466C529.034 133.431 529.08 133.411 529.124 133.422Z" fill="url(#paint50_radial_601_6966)"/>
<path d="M526.649 120.109C526.729 119.598 527.3 119.256 527.941 119.35C528.581 119.444 529.035 119.934 528.955 120.445C528.874 120.956 528.303 121.298 527.663 121.205C527.022 121.111 526.568 120.62 526.649 120.109Z" fill="url(#paint51_radial_601_6966)"/>
<path d="M526.794 120.268C526.856 119.827 527.354 119.547 527.9 119.62C528.445 119.693 528.831 120.114 528.769 120.556C528.708 120.998 528.209 121.277 527.664 121.204C527.12 121.122 526.733 120.71 526.794 120.268Z" fill="url(#paint52_linear_601_6966)"/>
<path d="M513.628 126.685C513.709 126.174 514.28 125.832 514.92 125.926C515.561 126.019 516.015 126.51 515.934 127.021C515.854 127.532 515.283 127.874 514.642 127.781C514.002 127.687 513.548 127.196 513.628 126.685Z" fill="url(#paint53_radial_601_6966)"/>
<path d="M513.773 126.834C513.834 126.392 514.333 126.112 514.878 126.185C515.423 126.258 515.809 126.68 515.748 127.121C515.686 127.563 515.187 127.842 514.642 127.77C514.098 127.687 513.711 127.275 513.773 126.834Z" fill="url(#paint54_linear_601_6966)"/>
<path d="M537.57 129.451C537.65 128.94 538.221 128.598 538.862 128.692C539.502 128.786 539.956 129.276 539.876 129.787C539.795 130.298 539.224 130.641 538.584 130.547C537.943 130.453 537.489 129.962 537.57 129.451Z" fill="url(#paint55_radial_601_6966)"/>
<path d="M537.725 129.612C537.786 129.17 538.285 128.891 538.83 128.964C539.374 129.047 539.761 129.458 539.7 129.9C539.638 130.342 539.14 130.621 538.594 130.548C538.049 130.475 537.663 130.054 537.725 129.612Z" fill="url(#paint56_linear_601_6966)"/>
<path d="M524.706 136.848C524.787 136.337 525.358 135.994 525.998 136.088C526.639 136.182 527.093 136.673 527.012 137.184C526.932 137.695 526.361 138.037 525.72 137.943C525.08 137.849 524.626 137.359 524.706 136.848Z" fill="url(#paint57_radial_601_6966)"/>
<path d="M524.852 137.007C524.913 136.565 525.412 136.286 525.957 136.359C526.501 136.442 526.888 136.853 526.827 137.295C526.765 137.737 526.267 138.016 525.721 137.943C525.176 137.87 524.79 137.449 524.852 137.007Z" fill="url(#paint58_linear_601_6966)"/>
<g style="mix-blend-mode:soft-light">
<path d="M517.71 139.839L518.121 136.255C518.121 136.255 514.996 134.927 512.533 130.749L512.274 134.33C512.274 134.33 514.4 138.418 517.71 139.839Z" fill="#00B2FF"/>
</g>
<path d="M516.968 135.512C517.273 135.69 516.062 132.909 515 132.227C513.939 131.544 513.208 131.103 513.017 131.347C512.826 131.59 515.063 134.427 516.968 135.512Z" fill="white"/>
<path d="M538.531 124.501C538.69 125.478 536.425 122.892 536.56 122.663C536.694 122.434 538.382 123.617 538.531 124.501Z" fill="white"/>
<path d="M548.365 138.754C543.998 138.754 541.603 139.553 536.992 139.409C536.461 138.492 539.216 140.783 541.98 130.832C543.738 127.625 532.643 126.194 532.643 126.194C529.105 125.674 528.53 122.855 529.215 121.838C529.912 120.82 534.268 120.467 537.972 120.146C540.703 119.914 542.483 118.897 545.115 119.328C545.977 119.471 547.138 119.836 548.686 120.19C547.459 123.054 544.009 132.408 548.387 138.743L548.365 138.754Z" fill="url(#paint59_linear_601_6966)"/>
<g style="mix-blend-mode:multiply" opacity="0.2">
<path d="M606.538 125.204C604.327 123.413 613.161 115.927 618.092 114.623C623.024 113.318 628.298 116.978 628.298 116.978C628.298 116.978 615.804 127.891 606.538 125.204Z" fill="#C42781"/>
</g>
<g style="mix-blend-mode:multiply" opacity="0.5">
<path d="M569.167 170.403C569.167 170.403 565.928 171.465 561.251 168.9C556.574 166.334 559.592 156.317 559.592 156.317C559.592 156.317 561.593 165.538 569.167 170.414V170.403Z" fill="#AB2781"/>
</g>
<g style="mix-blend-mode:multiply" opacity="0.2">
<path d="M534.238 120.693C534.238 120.693 535.012 121.677 538.661 121.677C542.31 121.677 543.272 119.698 543.039 119.587C542.818 119.477 541.204 119.565 539.468 120.085C537.732 120.615 534.238 120.682 534.238 120.682V120.693Z" fill="#AB2781"/>
</g>
<g style="mix-blend-mode:overlay">
<path d="M608.031 109.172C604.437 111.814 608.197 112.411 610.994 110.134C611.591 109.647 610.651 107.248 608.031 109.172Z" fill="white"/>
</g>
<g style="mix-blend-mode:multiply" opacity="0.5">
<path d="M548.07 138.98C548.07 138.98 554.527 138.859 559.702 137.112C564.876 135.365 566.513 131.882 566.513 131.882C566.513 131.882 567.32 136.216 567.828 137.134C567.828 137.134 563.461 139.6 548.07 138.98Z" fill="#AB2781"/>
</g>
<path d="M597.714 43.0535C597.714 43.0535 597.504 44.0486 599.749 45.11C601.993 46.1825 604.171 45.5744 604.171 45.5744C604.171 45.5744 603.055 42.965 597.714 43.0535Z" fill="white"/>
<defs>
<linearGradient id="paint0_linear_601_6966" x1="1097.61" y1="184.303" x2="-0.02985" y2="184.303" gradientUnits="userSpaceOnUse">
<stop stop-color="#001619"/>
<stop offset="1" stop-color="#1DAEA5"/>
</linearGradient>
<linearGradient id="paint1_linear_601_6966" x1="355.5" y1="50" x2="436.679" y2="126.887" gradientUnits="userSpaceOnUse">
<stop stop-color="#1DAEA5"/>
<stop offset="1" stop-color="#1DAEA5" stop-opacity="0.4"/>
</linearGradient>
<linearGradient id="paint2_linear_601_6966" x1="383.129" y1="254" x2="434.163" y2="292.55" gradientUnits="userSpaceOnUse">
<stop stop-color="#1DAEA5"/>
<stop offset="1" stop-color="#1DAEA5" stop-opacity="0.4"/>
</linearGradient>
<linearGradient id="paint3_linear_601_6966" x1="546.5" y1="169.5" x2="690.115" y2="301.842" gradientUnits="userSpaceOnUse">
<stop stop-color="#1DAEA5"/>
<stop offset="1" stop-color="#1DAEA5" stop-opacity="0.4"/>
</linearGradient>
<linearGradient id="paint4_linear_601_6966" x1="544.114" y1="91.0753" x2="564.858" y2="5.88343" gradientUnits="userSpaceOnUse">
<stop stop-color="#121936"/>
<stop offset="0.38" stop-color="#1A1F3A"/>
<stop offset="0.97" stop-color="#303146"/>
<stop offset="1" stop-color="#323247"/>
</linearGradient>
<linearGradient id="paint5_linear_601_6966" x1="577.095" y1="222.243" x2="577.889" y2="204.757" gradientUnits="userSpaceOnUse">
<stop stop-color="#E5222C"/>
<stop offset="1" stop-color="#801212"/>
</linearGradient>
<linearGradient id="paint6_linear_601_6966" x1="517.755" y1="181.565" x2="525.646" y2="147.404" gradientUnits="userSpaceOnUse">
<stop stop-color="#E5222C"/>
<stop offset="1" stop-color="#801212"/>
</linearGradient>
<linearGradient id="paint7_linear_601_6966" x1="541.905" y1="182.063" x2="548.379" y2="141.789" gradientUnits="userSpaceOnUse">
<stop stop-color="#0E142B"/>
<stop offset="0.43" stop-color="#161A2F"/>
<stop offset="1" stop-color="#29293B"/>
</linearGradient>
<linearGradient id="paint8_linear_601_6966" x1="548.493" y1="139.323" x2="550.989" y2="114.273" gradientUnits="userSpaceOnUse">
<stop stop-color="#0E142B"/>
<stop offset="0.43" stop-color="#161A2F"/>
<stop offset="1" stop-color="#29293B"/>
</linearGradient>
<linearGradient id="paint9_linear_601_6966" x1="581.868" y1="169.56" x2="603.556" y2="112.602" gradientUnits="userSpaceOnUse">
<stop stop-color="#0E142B"/>
<stop offset="0.43" stop-color="#161A2F"/>
<stop offset="1" stop-color="#29293B"/>
</linearGradient>
<linearGradient id="paint10_linear_601_6966" x1="573.592" y1="116.758" x2="589.237" y2="16.8636" gradientUnits="userSpaceOnUse">
<stop stop-color="#121936"/>
<stop offset="0.38" stop-color="#1A1F3A"/>
<stop offset="0.97" stop-color="#303146"/>
<stop offset="1" stop-color="#323247"/>
</linearGradient>
<linearGradient id="paint11_linear_601_6966" x1="572.173" y1="67.5663" x2="570.591" y2="37.368" gradientUnits="userSpaceOnUse">
<stop stop-color="white"/>
<stop offset="1" stop-color="#D91A81"/>
</linearGradient>
<radialGradient id="paint12_radial_601_6966" cx="0" cy="0" r="1" gradientUnits="userSpaceOnUse" gradientTransform="translate(557.75 103.261) rotate(-171.544) scale(53.4244 51.8539)">
<stop stop-color="#DC165F"/>
<stop offset="0.38" stop-color="#A91723"/>
<stop offset="1" stop-color="#6B1414"/>
</radialGradient>
<linearGradient id="paint13_linear_601_6966" x1="556.181" y1="67.1117" x2="562.211" y2="33.6906" gradientUnits="userSpaceOnUse">
<stop stop-color="#121936"/>
<stop offset="0.38" stop-color="#1A1F3A"/>
<stop offset="0.97" stop-color="#303146"/>
<stop offset="1" stop-color="#323247"/>
</linearGradient>
<linearGradient id="paint14_linear_601_6966" x1="558.079" y1="66.2099" x2="551.266" y2="41.4743" gradientUnits="userSpaceOnUse">
<stop stop-color="#D91A81"/>
<stop offset="1" stop-color="white"/>
</linearGradient>
<linearGradient id="paint15_linear_601_6966" x1="553.486" y1="107.12" x2="626.106" y2="103.314" gradientUnits="userSpaceOnUse">
<stop stop-color="#D91A81"/>
<stop offset="1" stop-color="white"/>
</linearGradient>
<linearGradient id="paint16_linear_601_6966" x1="620.657" y1="127.177" x2="628.647" y2="84.7105" gradientUnits="userSpaceOnUse">
<stop stop-color="#0E142B"/>
<stop offset="0.43" stop-color="#161A2F"/>
<stop offset="1" stop-color="#29293B"/>
</linearGradient>
<linearGradient id="paint17_linear_601_6966" x1="579.723" y1="219.133" x2="601.988" y2="160.199" gradientUnits="userSpaceOnUse">
<stop stop-color="#0E142B"/>
<stop offset="0.43" stop-color="#161A2F"/>
<stop offset="1" stop-color="#29293B"/>
</linearGradient>
<linearGradient id="paint18_linear_601_6966" x1="600.855" y1="135.616" x2="606.469" y2="103.935" gradientUnits="userSpaceOnUse">
<stop stop-color="#781515"/>
<stop offset="1" stop-color="#D90516"/>
</linearGradient>
<linearGradient id="paint19_linear_601_6966" x1="571.079" y1="138.39" x2="576.485" y2="115.8" gradientUnits="userSpaceOnUse">
<stop stop-color="#781515"/>
<stop offset="1" stop-color="#D90516"/>
</linearGradient>
<linearGradient id="paint20_linear_601_6966" x1="636.129" y1="118.588" x2="644.854" y2="86.2473" gradientUnits="userSpaceOnUse">
<stop stop-color="#B5041D"/>
<stop offset="1" stop-color="#C21D38"/>
</linearGradient>
<linearGradient id="paint21_linear_601_6966" x1="535.225" y1="140.415" x2="539.369" y2="118.785" gradientUnits="userSpaceOnUse">
<stop stop-color="#B5041D"/>
<stop offset="1" stop-color="#C21D38"/>
</linearGradient>
<linearGradient id="paint22_linear_601_6966" x1="587.308" y1="172.051" x2="590.645" y2="151.089" gradientUnits="userSpaceOnUse">
<stop stop-color="#781515"/>
<stop offset="1" stop-color="#D90516"/>
</linearGradient>
<linearGradient id="paint23_linear_601_6966" x1="566.107" y1="170.866" x2="578.917" y2="144.377" gradientUnits="userSpaceOnUse">
<stop stop-color="#781515"/>
<stop offset="1" stop-color="#D90516"/>
</linearGradient>
<linearGradient id="paint24_linear_601_6966" x1="597.858" y1="199.54" x2="595.169" y2="190.607" gradientUnits="userSpaceOnUse">
<stop stop-color="#DB1F1F"/>
<stop offset="0.99" stop-color="#FF264E"/>
</linearGradient>
<linearGradient id="paint25_linear_601_6966" x1="535.415" y1="166.846" x2="529.931" y2="166.042" gradientUnits="userSpaceOnUse">
<stop stop-color="#DB1F1F"/>
<stop offset="0.99" stop-color="#FF264E"/>
</linearGradient>
<linearGradient id="paint26_linear_601_6966" x1="586.681" y1="137.601" x2="594.189" y2="123.414" gradientUnits="userSpaceOnUse">
<stop stop-color="#E5222C"/>
<stop offset="1" stop-color="#801212"/>
</linearGradient>
<linearGradient id="paint27_linear_601_6966" x1="596.652" y1="179.361" x2="590.206" y2="178.486" gradientUnits="userSpaceOnUse">
<stop stop-color="#DB1F1F"/>
<stop offset="0.99" stop-color="#FF264E"/>
</linearGradient>
<linearGradient id="paint28_linear_601_6966" x1="572.829" y1="184.049" x2="585.779" y2="181.261" gradientUnits="userSpaceOnUse">
<stop stop-color="#781515"/>
<stop offset="1" stop-color="#D90516"/>
</linearGradient>
<linearGradient id="paint29_linear_601_6966" x1="573.636" y1="183.938" x2="583.518" y2="182.256" gradientUnits="userSpaceOnUse">
<stop stop-color="#FF2643"/>
<stop offset="1" stop-color="#FF3B3E"/>
</linearGradient>
<linearGradient id="paint30_linear_601_6966" x1="540.209" y1="151.076" x2="552.712" y2="143.089" gradientUnits="userSpaceOnUse">
<stop stop-color="#781515"/>
<stop offset="1" stop-color="#D90516"/>
</linearGradient>
<linearGradient id="paint31_linear_601_6966" x1="540.542" y1="150.744" x2="552.17" y2="143.825" gradientUnits="userSpaceOnUse">
<stop stop-color="#FF2643"/>
<stop offset="1" stop-color="#FF3B3E"/>
</linearGradient>
<radialGradient id="paint32_radial_601_6966" cx="0" cy="0" r="1" gradientUnits="userSpaceOnUse" gradientTransform="translate(649.099 95.893) rotate(-136.805) scale(11.8652 12.6281)">
<stop stop-color="#0500FF"/>
<stop offset="1" stop-color="#050031"/>
</radialGradient>
<linearGradient id="paint33_linear_601_6966" x1="636.547" y1="103.915" x2="656.329" y2="82.8449" gradientUnits="userSpaceOnUse">
<stop stop-color="#0E0082"/>
<stop offset="1" stop-color="#1400FF"/>
</linearGradient>
<radialGradient id="paint34_radial_601_6966" cx="0" cy="0" r="1" gradientUnits="userSpaceOnUse" gradientTransform="translate(646.439 93.3813) rotate(-136.805) scale(8.35934 8.8968)">
<stop stop-color="#001AFF"/>
<stop offset="1" stop-color="#050030"/>
</radialGradient>
<linearGradient id="paint35_linear_601_6966" x1="639.804" y1="101.099" x2="653.725" y2="86.2719" gradientUnits="userSpaceOnUse">
<stop stop-color="#0E0082"/>
<stop offset="0.9999" stop-color="#012AFE"/>
<stop offset="1" stop-color="#0500FF"/>
</linearGradient>
<radialGradient id="paint36_radial_601_6966" cx="0" cy="0" r="1" gradientUnits="userSpaceOnUse" gradientTransform="translate(646.619 93.9423) rotate(102.118) scale(7.2538 6.11529)">
<stop offset="0.10409" stop-color="#14F1FF"/>
<stop offset="0.978353" stop-color="#13AAFF"/>
</radialGradient>
<radialGradient id="paint37_radial_601_6966" cx="0" cy="0" r="1" gradientUnits="userSpaceOnUse" gradientTransform="translate(638.471 86.4668) rotate(-48.5436) scale(1.16459 0.930228)">
<stop stop-color="#0500FF"/>
<stop offset="1" stop-color="#050030"/>
</radialGradient>
<linearGradient id="paint38_linear_601_6966" x1="637.892" y1="87.2783" x2="639.27" y2="85.8489" gradientUnits="userSpaceOnUse">
<stop stop-color="#00FFF4"/>
<stop offset="1" stop-color="#30A7FB"/>
</linearGradient>
<radialGradient id="paint39_radial_601_6966" cx="0" cy="0" r="1" gradientUnits="userSpaceOnUse" gradientTransform="translate(652.662 83.0886) rotate(-48.5436) scale(1.16459 0.930229)">
<stop stop-color="#0500FF"/>
<stop offset="1" stop-color="#050030"/>
</radialGradient>
<linearGradient id="paint40_linear_601_6966" x1="652.048" y1="83.8636" x2="653.432" y2="82.4261" gradientUnits="userSpaceOnUse">
<stop stop-color="#00FFF4"/>
<stop offset="1" stop-color="#30A7FB"/>
</linearGradient>
<radialGradient id="paint41_radial_601_6966" cx="0" cy="0" r="1" gradientUnits="userSpaceOnUse" gradientTransform="translate(636.156 100.651) rotate(-48.5436) scale(1.16459 0.930229)">
<stop stop-color="#0500FF"/>
<stop offset="1" stop-color="#050030"/>
</radialGradient>
<linearGradient id="paint42_linear_601_6966" x1="635.547" y1="101.436" x2="636.925" y2="100.007" gradientUnits="userSpaceOnUse">
<stop stop-color="#00FFF4"/>
<stop offset="1" stop-color="#30A7FB"/>
</linearGradient>
<radialGradient id="paint43_radial_601_6966" cx="0" cy="0" r="1" gradientUnits="userSpaceOnUse" gradientTransform="translate(650.755 98.0009) rotate(-48.5436) scale(1.16459 0.930229)">
<stop stop-color="#0500FF"/>
<stop offset="1" stop-color="#050030"/>
</radialGradient>
<linearGradient id="paint44_linear_601_6966" x1="650.109" y1="98.7534" x2="651.487" y2="97.324" gradientUnits="userSpaceOnUse">
<stop stop-color="#00FFF4"/>
<stop offset="1" stop-color="#30A7FB"/>
</linearGradient>
<linearGradient id="paint45_linear_601_6966" x1="636.258" y1="118.49" x2="644.982" y2="86.1501" gradientUnits="userSpaceOnUse">
<stop stop-color="#B5041D"/>
<stop offset="1" stop-color="#C21D38"/>
</linearGradient>
<radialGradient id="paint46_radial_601_6966" cx="0" cy="0" r="1" gradientUnits="userSpaceOnUse" gradientTransform="translate(526.059 132.339) rotate(-83.3808) scale(11.8652 12.6281)">
<stop stop-color="#0500FF"/>
<stop offset="1" stop-color="#050031"/>
</radialGradient>
<linearGradient id="paint47_linear_601_6966" x1="540.825" y1="130.367" x2="512.116" y2="127.036" gradientUnits="userSpaceOnUse">
<stop stop-color="#0E0082"/>
<stop offset="1" stop-color="#1400FF"/>
</linearGradient>
<radialGradient id="paint48_radial_601_6966" cx="0" cy="0" r="1" gradientUnits="userSpaceOnUse" gradientTransform="translate(526.47 128.704) rotate(-83.3808) scale(8.35934 8.8968)">
<stop stop-color="#001AFF"/>
<stop offset="1" stop-color="#050030"/>
</radialGradient>
<linearGradient id="paint49_linear_601_6966" x1="536.519" y1="130.318" x2="516.316" y2="127.974" gradientUnits="userSpaceOnUse">
<stop stop-color="#0E0082"/>
<stop offset="0.9999" stop-color="#012AFE"/>
<stop offset="1" stop-color="#0500FF"/>
</linearGradient>
<radialGradient id="paint50_radial_601_6966" cx="0" cy="0" r="1" gradientUnits="userSpaceOnUse" gradientTransform="translate(526.732 129.066) rotate(-13.7672) scale(7.2538 6.11529)">
<stop offset="0.10409" stop-color="#14F1FF"/>
<stop offset="0.978353" stop-color="#13AAFF"/>
</radialGradient>
<radialGradient id="paint51_radial_601_6966" cx="0" cy="0" r="1" gradientUnits="userSpaceOnUse" gradientTransform="translate(528.095 118.28) rotate(-171.642) scale(1.16459 0.930228)">
<stop stop-color="#0500FF"/>
<stop offset="1" stop-color="#050030"/>
</radialGradient>
<linearGradient id="paint52_linear_601_6966" x1="529.062" y1="118.526" x2="527.088" y2="118.323" gradientUnits="userSpaceOnUse">
<stop stop-color="#00FFF4"/>
<stop offset="1" stop-color="#30A7FB"/>
</linearGradient>
<radialGradient id="paint53_radial_601_6966" cx="0" cy="0" r="1" gradientUnits="userSpaceOnUse" gradientTransform="translate(515.075 124.856) rotate(-171.642) scale(1.16459 0.930229)">
<stop stop-color="#0500FF"/>
<stop offset="1" stop-color="#050030"/>
</radialGradient>
<linearGradient id="paint54_linear_601_6966" x1="516.044" y1="125.051" x2="514.059" y2="124.847" gradientUnits="userSpaceOnUse">
<stop stop-color="#00FFF4"/>
<stop offset="1" stop-color="#30A7FB"/>
</linearGradient>
<radialGradient id="paint55_radial_601_6966" cx="0" cy="0" r="1" gradientUnits="userSpaceOnUse" gradientTransform="translate(539.016 127.622) rotate(-171.642) scale(1.16459 0.930229)">
<stop stop-color="#0500FF"/>
<stop offset="1" stop-color="#050030"/>
</radialGradient>
<linearGradient id="paint56_linear_601_6966" x1="539.987" y1="127.829" x2="538.013" y2="127.626" gradientUnits="userSpaceOnUse">
<stop stop-color="#00FFF4"/>
<stop offset="1" stop-color="#30A7FB"/>
</linearGradient>
<radialGradient id="paint57_radial_601_6966" cx="0" cy="0" r="1" gradientUnits="userSpaceOnUse" gradientTransform="translate(526.153 135.019) rotate(-171.642) scale(1.16459 0.930229)">
<stop stop-color="#0500FF"/>
<stop offset="1" stop-color="#050030"/>
</radialGradient>
<linearGradient id="paint58_linear_601_6966" x1="527.133" y1="135.176" x2="525.158" y2="134.973" gradientUnits="userSpaceOnUse">
<stop stop-color="#00FFF4"/>
<stop offset="1" stop-color="#30A7FB"/>
</linearGradient>
<linearGradient id="paint59_linear_601_6966" x1="535.519" y1="140.188" x2="539.664" y2="118.558" gradientUnits="userSpaceOnUse">
<stop stop-color="#B5041D"/>
<stop offset="1" stop-color="#C21D38"/>
</linearGradient>
</defs>
</svg>
