<svg width="614" height="100" viewBox="0 0 614 100" fill="none" xmlns="http://www.w3.org/2000/svg">
<g opacity="0.2">
<path d="M563.552 17.6933C574.162 20.7441 584.349 25.3034 583.569 31.5407C581.959 44.2865 535.027 47.3204 471.739 21.2356C408.451 -4.8491 366.807 53.5915 308.925 50.1339C251.044 46.6932 245.163 10.8967 179.671 15.5238C114.18 20.1339 97.2475 17.117 97.2475 12.9814C97.2475 8.84581 114.637 1.30343 115.739 0.828857C113.112 1.16784 11.773 14.6933 0.637425 43.3881C-10.6338 72.4729 130.502 41.6763 191.993 43.3881C253.468 45.1 260.959 89.5068 365.908 98.3034C470.857 107.1 412.078 64.0153 424.146 54.9644C436.213 45.9136 529.62 66.4729 594.027 50.1509C639.603 38.5915 594.078 24.7949 563.535 17.7102L563.552 17.6933ZM116.18 41.8966C113.027 42.6424 109.824 43.0661 106.637 43.5746C102.824 44.2017 99.1289 44.8797 95.2814 45.1C88.6374 45.4898 82.078 45.9136 75.417 45.8797C68.5187 45.8458 61.6374 46.5068 54.756 46.8966C49.0781 47.2187 42.9425 48.6763 37.2984 47.439C36.0103 47.1678 34.8916 46.4729 33.9764 45.4898C32.6883 44.117 33.5188 42.8119 34.3832 41.3712C36.8577 37.2865 41.5188 34.778 45.7391 32.8797C51.9933 30.0831 58.4509 27.8797 65.0442 26.1509C66.5357 27.3373 67.8916 26.6763 69.5187 26.3373C72.2814 25.778 75.2984 26.2526 78.1119 26.117C83.3662 25.8627 88.417 25.2865 93.7052 25.6255C95.9763 25.7611 98.2306 25.8627 100.485 26.1C103.79 26.439 106.942 27.3373 110.129 28.1509C115.197 29.4221 120.383 30.4729 125.349 32.1848C126.654 32.6254 131.756 33.9814 131.468 36.117C127.197 39.4559 121.332 40.6254 116.18 41.8627V41.8966ZM154.163 40.8966C151.773 42.1339 148.722 43.2356 146.044 43.4899C143.451 43.7271 140.858 44.3204 138.248 44.2864C137.129 44.2864 135.688 44.5407 134.959 43.4899C134.061 42.1848 134.959 41.1509 135.468 40.6593C136.315 39.2017 136.4 39.1509 137.79 38.2865C139.892 37.0153 141.739 36.3882 144.129 35.8288C147.298 35.0831 150.824 33.9644 154.112 34.6763C155.315 34.9305 157.281 36.0322 157.163 37.5068C157.044 38.8288 155.214 40.3204 154.129 40.8797L154.163 40.8966ZM450.518 47.6932C448.654 48.5407 446.688 49.1848 444.688 49.5407C443.196 49.7949 441.603 49.9305 440.23 49.1339C439.518 48.7271 439.298 47.9136 439.196 47.1509C439.129 46.7441 439.044 46.5068 439.196 46.1339C439.332 45.8458 439.671 45.5915 440.671 45.6932C441.586 44.6593 442.502 43.9814 443.891 43.5915C445.857 43.0153 448.01 42.778 449.942 43.5068C450.857 43.8627 452.213 44.2695 452.502 45.3373C452.79 46.3712 451.298 47.3373 450.518 47.6763V47.6932ZM441.569 39.5746C439.654 40.1848 437.739 40.7271 435.773 41.0831C433.908 41.422 432.027 41.5746 430.146 41.778C428.01 41.9983 425.891 42.2865 423.739 42.439C421.739 42.5746 419.739 42.8288 417.739 42.8627C414.671 42.9475 411.603 43.3881 408.552 43.7949C406.535 44.0661 404.552 44.456 402.535 44.761C401.146 44.9644 399.739 44.9983 398.349 45.1848C396.112 45.4898 393.349 45.2695 391.383 44.1C389.739 43.1339 388.332 41.8288 386.942 40.5576C386.298 39.9814 385.824 39.3204 385.485 38.5238C385.281 38.0322 385.366 37.7949 385.518 37.2526C384.908 37.3712 384.874 36.8797 385.264 36.2865C385.586 35.778 386.112 35.2865 386.569 34.8797C386.858 34.6255 387.18 34.5577 387.485 34.3882C387.773 34.2356 387.976 33.9983 388.247 33.8288C389.146 33.3373 389.841 32.6255 390.773 32.1678C391.79 31.7102 392.722 31.1 393.705 30.6085C395.027 29.9475 396.4 29.4051 397.739 28.7949C400.773 27.4221 403.79 26.0661 406.841 24.761C409.095 23.7949 411.468 23.0322 413.756 22.1678C416.078 21.2865 418.485 20.5746 420.891 19.9644C423.044 19.439 425.264 19.0831 427.434 18.7611C429.654 18.439 431.891 18.1 434.146 18.1339C436.942 18.1678 439.79 18.3712 442.535 18.8966C444.535 19.2695 446.518 19.7441 448.502 20.2695C451.908 21.1678 455.366 22.3882 458.196 24.5746C459.18 25.3373 460.23 26.3882 460.637 27.6424C460.908 28.4899 460.688 29.3373 460.247 30.1C458.908 32.5238 455.857 34.1 453.4 35.1C449.485 36.6763 445.62 38.3034 441.586 39.5576L441.569 39.5746ZM527.112 48.7102C526.027 51.2525 522.01 52.1339 519.756 52.7949C515.366 54.0492 510.756 53.8119 506.23 54.0661C501.213 54.3542 496.247 54.3712 491.196 54.3712C486.146 54.3712 481.485 54.5407 476.671 53.1678C473.383 52.2187 469.976 51.778 466.671 50.9136C465.23 50.5237 463.857 49.9814 462.451 49.5237C461.586 49.2356 460.366 48.9475 459.654 48.3204C457.637 46.5915 460.434 45.5746 461.959 44.9136C464.722 43.6932 467.468 42.7102 470.502 42.6932C471.569 42.6932 472.518 42.3034 473.586 42.2865C474.552 42.2526 475.535 42.2865 473.705 41.8797C477.942 41.9136 482.095 41.3204 486.332 41.5068C492.857 41.778 499.315 42.4729 505.824 43.2695C508.891 43.6593 511.959 44.1509 515.044 44.4898C517.552 44.761 520.095 44.9475 522.552 45.5576C524.01 45.9305 528.112 46.4051 527.146 48.6763L527.112 48.7102ZM605.298 39.9305C604.84 43.1848 602.654 45.2526 599.874 46.6424C597.908 47.6254 596.23 47.9475 594.044 48.2356C591.739 48.5407 589.501 49.117 587.213 49.4729C584.993 49.8288 582.451 49.6424 580.213 49.5576C578.823 49.5068 577.112 49.3203 575.942 48.5237C572.823 46.3712 576.01 43.0831 577.976 41.6085C580.807 39.456 584.078 38.2356 587.162 36.5407C589.247 35.4051 590.976 34.0661 592.823 32.6424C592.417 33.3034 593.518 32.7441 594.671 32.6424C595.484 32.5577 596.061 32.5407 596.807 32.3373C598.671 31.8288 601.501 32.2695 602.993 33.5238C604.857 35.117 605.603 37.5577 605.281 39.9644L605.298 39.9305Z" fill="url(#paint0_linear_379_7248)" style="mix-blend-mode:screen"/>
</g>
<defs>
<linearGradient id="paint0_linear_379_7248" x1="0.0103064" y1="50.1509" x2="613.332" y2="50.1509" gradientUnits="userSpaceOnUse">
<stop stop-color="#070019"/>
<stop offset="1" stop-color="#1D6DAE"/>
</linearGradient>
</defs>
</svg>
