<svg width="176" height="341" viewBox="0 0 176 341" fill="none" xmlns="http://www.w3.org/2000/svg">
<path d="M33.8113 336.688C33.8113 336.688 0.245436 237.445 3.78302 201.233L73.4011 193.239L93.6709 187L94.7911 203.941L173.849 189.607C173.849 189.607 178.889 219.219 168.204 243.392L146.906 285.913C146.906 285.913 134.277 315.071 119.047 323.578C119.047 323.578 91.1874 349.171 33.8053 336.714L33.8113 336.688Z" fill="#5B254E"/>
<path d="M0 202.154C0 202.154 5.01155 239.307 42.086 266.897C42.086 266.897 92.261 258.477 133.432 232.942L131.329 218.58L146.719 221.89C146.719 221.89 162.038 208.873 173.415 190.224C173.415 190.224 129.072 189.12 83.4397 199.339L91.6532 187.515C91.6532 187.515 54.2521 185.94 0.00608216 202.127L0 202.154Z" fill="#985965"/>
<path d="M41.8645 261.028C41.8645 261.028 29.2194 307.946 31.1311 331.65C31.1311 331.65 6.61701 266.21 2.48299 199.533C2.48299 199.533 23.2945 243.153 41.887 261.031L41.8645 261.028Z" fill="#461642"/>
<path d="M134.886 221.479L140.665 235.679L131.7 301.053C131.7 301.053 148.647 247.864 148.486 224.595L134.907 221.483L134.886 221.479Z" fill="#461642"/>
<path d="M7.1012 212.056C7.1012 212.056 34.6206 250.438 46.0057 253.248C57.3909 256.059 110.817 245.627 135.242 230.459C135.242 230.459 95.0293 257.772 42.8917 265.359C42.8917 265.359 20.7792 239.822 7.1012 212.056Z" fill="#B06979"/>
<path d="M39.2653 256.85L42.3883 268.373L50.269 261.148L39.2653 256.85Z" fill="#D27F7C"/>
<path d="M143.602 224.256L147.497 235.199L152.366 220.792C152.366 220.792 145.654 222.008 143.624 224.259L143.602 224.256Z" fill="#B06979"/>
<g style="mix-blend-mode:multiply">
<path d="M81.6367 219.76C120.096 219.76 151.273 215.453 151.273 210.14C151.273 204.827 120.096 200.52 81.6367 200.52C43.1774 200.52 12 204.827 12 210.14C12 215.453 43.1774 219.76 81.6367 219.76Z" fill="#6B54A1"/>
</g>
<path d="M137.021 113.459C136.805 117.229 133.996 119.271 130.712 120.146C129.902 120.362 129.059 120.502 128.239 120.578C125.009 120.891 122.167 120.686 119.867 120.934C119.154 121.01 118.495 121.129 117.89 121.312C117.069 121.582 115.481 122.231 113.331 122.911C110.922 123.667 107.8 124.423 104.224 124.639C102.798 124.715 101.297 124.715 99.7413 124.585C97.9265 124.445 96.0361 124.143 94.1024 123.602C82.6085 120.437 89.7274 108.5 89.7274 108.5C90.894 108.025 93.3462 107.69 96.1981 107.377C100.865 106.848 106.612 106.318 109.561 105.119C111.786 104.212 113.698 103.564 115.157 102.916C116.269 102.44 117.133 101.954 117.663 101.382C117.933 101.101 118.106 100.809 118.214 100.474C118.819 98.5621 122.61 96.542 124.22 93.1068C125.84 89.6824 126.1 89.3583 126.834 89.8336C127.58 90.3089 129.708 92.8799 127.644 97.5683C127.947 97.4494 132.722 95.5698 134.418 95.5698C136.114 95.5698 136.697 98.7889 136.567 102.689C136.427 106.588 137.302 108.738 137.032 113.448L137.021 113.459Z" fill="url(#paint0_linear_379_7252)"/>
<path d="M137.021 113.459C136.805 117.229 133.997 119.271 130.713 120.146C129.902 120.362 129.06 120.502 128.239 120.578C125.009 120.891 122.168 120.686 119.867 120.934C117.652 117.045 116.162 110.661 116.486 105.886V105.854C116.594 104.061 116.972 102.505 117.663 101.382C117.933 101.101 118.106 100.809 118.214 100.474C118.819 98.5621 122.611 96.542 124.22 93.1068C125.841 89.6824 126.1 89.3583 126.834 89.8336C127.58 90.3089 129.708 92.8799 127.645 97.5683C127.947 97.4494 132.722 95.5698 134.418 95.5698C136.114 95.5698 136.697 98.7889 136.568 102.689C136.427 106.588 137.302 108.738 137.032 113.448L137.021 113.459Z" fill="url(#paint1_linear_379_7252)"/>
<g style="mix-blend-mode:multiply" opacity="0.5">
<path d="M115.135 102.926C115.135 102.926 110.145 118.774 107.185 122.403C106.266 123.527 105.219 124.218 104.192 124.65C102.766 124.726 101.265 124.726 99.7093 124.596L96.166 107.388C100.833 106.858 106.58 106.329 109.529 105.13C111.754 104.223 113.666 103.574 115.125 102.926H115.135Z" fill="#E767A7"/>
</g>
<path d="M75.0146 210.466C74.1504 210.66 68.922 211.568 61.6626 214.095C54.4033 216.612 38.2751 214.7 37.4325 214.095C36.7087 213.577 37.2164 210.379 37.3893 209.472C37.3893 209.472 37.3893 209.45 37.3893 209.407C37.4109 209.288 37.4217 209.224 37.4217 209.224L40.4788 208.845L60.4095 206.35L75.2091 204.492C75.2091 204.492 75.2091 204.524 75.2091 204.589C75.2091 204.622 75.2091 204.654 75.2091 204.697C75.2091 204.719 75.2091 204.751 75.2091 204.794C75.2091 204.838 75.2091 204.892 75.2091 204.946C75.2091 204.978 75.2091 205.011 75.2091 205.043C75.3495 206.49 75.652 210.336 74.9498 210.487L75.0146 210.466Z" fill="url(#paint2_linear_379_7252)"/>
<path d="M130.572 209.083C130.334 209.44 128.768 210.109 126.273 210.736C126.273 210.736 126.24 210.736 126.186 210.736C122.892 211.578 118.02 212.345 112.532 212.302C102.831 212.237 101.33 210.552 98.6505 210.466C95.9607 210.358 87.6859 210.153 87.4267 209.224C87.2214 208.5 87.7075 206.534 87.8696 205.486C87.9344 205.162 87.956 204.935 87.9236 204.848H88.3125L101.664 204.319L129.081 203.25L129.989 203.217C129.989 203.217 130.021 203.433 130.075 203.779C130.302 205.183 130.81 208.705 130.561 209.094L130.572 209.083Z" fill="url(#paint3_linear_379_7252)"/>
<path d="M130 203.207C129.503 204.211 127.18 205.918 120.018 207.333C112.856 208.748 101.07 208.241 98.7479 207.333C96.4254 206.426 88.5611 205.821 88.0642 205.216C87.5565 204.611 88.1614 200.776 88.0642 198.864C88.0318 198.248 87.8806 197.233 87.5997 195.99C87.0164 193.419 85.8389 189.844 83.9268 186.765C81.1074 182.228 77.6829 177.907 76.9808 176.373C76.916 176.222 76.8403 176.006 76.7647 175.692C76.041 172.754 75.0039 163.194 75.0039 163.194C75.0039 163.194 94.2757 145.791 94.0056 149.248C93.8868 150.76 94.9022 154.239 96.5658 158.117C96.6414 158.3 96.7279 158.473 96.8035 158.657C98.964 163.518 102.118 168.908 105.392 171.847C111.441 177.291 115.276 185.652 119.402 189.282C123.54 192.912 130.486 202.191 129.989 203.196L130 203.207Z" fill="url(#paint4_linear_379_7252)"/>
<path d="M77.3364 171.188C77.2608 172.624 77.0124 173.878 76.6991 175.023C76.6127 175.282 76.537 175.52 76.4614 175.757C76.4614 175.779 76.4614 175.8 76.4398 175.811C75.4892 178.642 74.1173 180.77 73.966 183.265C73.966 183.362 73.9444 183.459 73.9444 183.557C73.9444 183.935 73.9444 184.464 73.9768 185.08C73.9768 185.101 73.9768 185.134 73.9768 185.166C74.2577 190.719 75.9321 204.136 74.9923 205.14C73.9228 206.242 67.6465 207.085 60.2576 209.234C52.8686 211.384 37.4102 210.304 37.4102 209.234C37.4102 208.165 37.9395 204.395 41.0398 198.886C44.1294 193.376 44.1294 195.126 44.8099 189.747C45.4797 184.378 48.6988 175.779 48.9689 167.839C49.0877 164.209 49.3794 159.197 50.0924 154.541C50.3732 152.834 50.6865 151.181 51.0754 149.658C51.3023 148.783 51.5399 147.941 51.8208 147.174C51.9396 146.828 52.0692 146.504 52.1881 146.191C52.9118 144.408 53.7976 143.025 54.8779 142.291C54.8779 142.291 77.5957 165.549 77.3148 171.188H77.3364Z" fill="url(#paint5_linear_379_7252)"/>
<path d="M69.5804 110.186C66.9985 110.704 68.6081 122.468 64.9785 130.03C61.3488 137.592 57.3194 138.121 54.8997 142.291C52.4799 146.461 68.4785 167.688 76.9369 169.308C85.4061 170.918 94.275 156.939 94.275 145.791C94.275 134.643 96.1547 131.002 94.9448 122.403C93.7349 113.804 91.3151 109.905 88.6253 108.295C85.9354 106.686 69.5696 110.196 69.5696 110.196L69.5804 110.186Z" fill="url(#paint6_linear_379_7252)"/>
<path d="M90.6563 135.917C89.7597 135.917 88.9711 135.345 88.4742 134.319C87.1023 131.488 87.5344 122.609 89.1872 119.476C89.5761 118.741 90.0406 118.32 90.5699 118.244C91.3045 118.136 92.0066 118.342 92.6116 118.828C93.9079 119.876 94.6965 122.144 94.8909 125.374C95.2798 131.812 93.2597 135.312 91.218 135.853C91.0236 135.907 90.8292 135.928 90.6455 135.928L90.6563 135.917ZM90.7319 119.292C90.6023 119.314 90.3862 119.497 90.1378 119.973C88.6578 122.781 88.2257 131.348 89.4464 133.854C89.6625 134.308 90.1486 135.021 90.9696 134.816C92.2875 134.47 94.232 131.618 93.8539 125.439C93.6162 121.55 92.5684 120.146 91.9634 119.66C91.5853 119.357 91.1748 119.238 90.7427 119.303L90.7319 119.292Z" fill="url(#paint7_linear_379_7252)"/>
<path d="M76.7104 175.098C76.5915 175.422 76.5051 175.638 76.4619 175.746C76.4619 175.768 76.4619 175.79 76.4403 175.8C76.181 175.368 70.6393 165.83 62.0621 157.036C55.0944 149.896 52.5666 147.735 51.8213 147.152C51.6268 146.99 51.5512 146.947 51.5512 146.947L51.0759 149.626C50.5141 148.427 50.2549 147.195 50.2549 146.05C50.2549 141.329 54.5111 137.624 59.2534 140.325C65.1624 143.684 75.857 164.987 77.3261 167.482C78.482 169.427 77.2613 173.456 76.6888 175.087L76.7104 175.098Z" fill="url(#paint8_linear_379_7252)"/>
<g style="mix-blend-mode:multiply" opacity="0.5">
<path d="M68.2734 109.937C70.5636 110.261 72.5405 124.413 84.4341 127.308C96.3277 130.192 93.8539 116.959 93.8323 112.659C93.8107 108.36 91.8878 107.031 91.8878 107.031C91.8878 107.031 90.4403 108.76 85.4063 110.38C80.3615 111.99 68.2734 109.948 68.2734 109.948V109.937Z" fill="#E767A7"/>
</g>
<path d="M56.9849 129.922C56.7148 130.149 57.0173 130.981 57.2442 131.499C57.363 131.769 57.4602 131.942 57.4602 131.942C57.4602 131.942 60.6362 131.045 63.7041 132.612C66.7828 134.178 67.9063 134.913 67.8091 135.777C67.701 136.63 66.0914 137.538 64.9356 137.181C63.7797 136.825 63.218 137.03 63.218 137.03C66.7072 138.78 69.6455 144.095 67.6038 147.357C64.0714 153.007 50.9679 149.583 46.636 145.845C45.5018 144.862 44.119 143.371 42.6931 141.643C41.6236 140.346 40.5218 138.91 39.4955 137.451C39.4955 137.451 39.4955 137.451 39.4955 137.43C36.6761 133.465 34.3535 129.349 34.3535 127.502C34.3535 124.078 36.2656 120.848 43.5249 118.428C48.5157 116.764 57.2874 112.703 63.4232 110.866C66.2319 110.024 68.4896 109.656 69.6023 110.186C73.8693 112.217 71.9897 125.158 67.0205 127.373C66.8692 127.437 66.7072 127.513 66.5668 127.567C61.7704 129.598 57.4062 129.609 57.0065 129.933L56.9849 129.922Z" fill="url(#paint9_linear_379_7252)"/>
<path d="M124.177 76.7193C124.036 77.2702 123.874 77.7996 123.712 78.3181C123.518 78.8798 123.291 79.4523 123.01 80.0249C117.468 91.508 95.2797 104.255 88.3661 109.494C88.3661 109.494 83.9802 113.394 73.8042 110.801C73.8042 110.801 73.7718 110.78 73.7502 110.78C73.2641 110.661 72.7563 110.521 72.2486 110.369C72.2486 110.369 51.821 109.365 43.4922 104.125C41.7422 103.034 39.5493 101.003 37.2051 98.3244C34.1696 94.8676 30.8964 90.2873 28.0229 85.1669C28.0229 85.1453 28.0013 85.1345 28.0013 85.1345C22.4704 75.2501 18.4519 63.2917 20.6556 53.1157C24.8902 33.5631 49.6821 15.0151 73.6746 13.4055C90.0188 12.3036 102.831 15.8252 110.749 20.5892C114.465 22.8253 117.09 25.3315 118.505 27.7837C122.772 35.151 127.774 62.892 124.209 76.7301L124.177 76.7193Z" fill="url(#paint10_linear_379_7252)"/>
<path d="M25.5819 62.9136C20.2023 60.6883 26.0465 83.1793 33.2302 90.7951C40.4139 98.4109 45.0914 98.9294 46.6145 98.5189C48.1377 98.1084 44.7457 70.8535 25.5819 62.9136Z" fill="url(#paint11_linear_379_7252)"/>
<path d="M30.0111 65.247C30.0111 65.247 24.4586 71.5125 33.3059 84.2919C42.1532 97.0713 46.755 94.5867 46.755 94.5867C46.755 94.5867 44.5513 73.7918 30.0111 65.247Z" fill="url(#paint12_linear_379_7252)"/>
<g style="mix-blend-mode:multiply" opacity="0.5">
<path d="M73.7282 110.78C73.2421 110.661 72.7344 110.521 72.2267 110.369C72.2267 110.369 51.799 109.365 43.4702 104.125C41.7202 103.034 39.5273 101.003 37.1832 98.3245C34.1476 94.8676 30.8745 90.2873 28.001 85.1669C28.5411 85.7719 37.194 95.5482 44.0212 98.6269C50.8484 101.716 72.3995 110.261 73.739 110.791L73.7282 110.78Z" fill="#AB2781"/>
</g>
<path d="M29.1355 69.298C30.1077 66.0896 41.6125 78.8906 43.4273 91.3352C43.4273 91.3352 22.9348 89.6176 29.1355 69.298Z" fill="url(#paint13_linear_379_7252)"/>
<path d="M28.4765 77.2378C29.2867 73.9754 34.5799 82.0126 34.1694 86.9277C34.0182 88.7209 26.9749 83.3305 28.4765 77.2378Z" fill="#881A1A"/>
<path d="M73.4157 126.163C73.3725 126.238 73.3401 126.314 73.2969 126.39C73.2969 126.39 73.2969 126.411 73.2969 126.422C73.0484 126.865 72.8107 127.308 72.5515 127.718C72.5515 127.718 72.5299 127.74 72.5191 127.751C70.8447 130.462 68.8786 132.245 67.323 132.407C63.7366 132.806 63.769 128.539 63.769 128.539C63.769 128.539 66.2968 129.414 67.2042 122.252C68.1116 115.101 63.3909 110.855 63.3909 110.855L61.9434 111.309C62.4943 110.326 63.2505 109.505 64.1363 108.825C68.4033 105.605 75.5762 106.297 76.0623 113.913C76.3648 118.385 75.1441 122.76 73.4157 126.152V126.163Z" fill="url(#paint14_linear_379_7252)"/>
<path d="M95.3011 130.149C95.3011 130.149 95.6684 122.727 93.8643 116.926C92.0711 111.115 88.96 109.062 88.96 109.062L93.5619 105.875C93.5619 105.875 96.4137 105.692 98.7039 108.36C99.9678 109.862 101.07 112.238 101.394 116.019C102.301 126.606 95.2903 130.149 95.2903 130.149H95.3011Z" fill="url(#paint15_linear_379_7252)"/>
<g style="mix-blend-mode:multiply" opacity="0.3">
<path d="M94.3721 141.675C94.3721 141.675 92.2224 155.718 81.9816 158.419C72.8534 160.828 65.7993 144.959 60.9922 141.675C60.9922 141.675 75.1651 161.39 77.6821 170.205C77.6821 170.205 87.7069 165.009 91.1313 157.144C94.5557 149.28 94.3073 143.9 94.3073 143.9L94.3829 141.686L94.3721 141.675Z" fill="#C72781"/>
</g>
<path d="M94.297 143.89C94.297 143.89 98.5424 148.167 96.6304 157.944C94.7183 167.72 80.4589 175.638 76.4512 175.811C76.4512 175.811 77.4558 170.302 77.9743 169.416C78.4929 168.53 85.8494 164.296 89.5763 158.451C93.3032 152.607 94.297 143.9 94.297 143.9V143.89Z" fill="url(#paint16_linear_379_7252)"/>
<path d="M53.6033 186.797C45.9335 184.842 48.9906 171.436 52.6419 168.12C56.2932 164.803 61.9105 168.087 63.0016 176.297C64.0926 184.507 56.0879 187.435 53.6033 186.797Z" fill="url(#paint17_linear_379_7252)"/>
<path d="M102.085 167.137C98.4339 165.052 98.8984 174.126 102.787 179.182C106.557 184.086 111.408 183.006 112.963 182.001C114.519 180.996 107.897 170.442 102.085 167.137Z" fill="url(#paint18_linear_379_7252)"/>
<path d="M51.1188 183.168C48.6234 179.808 49.3688 170.237 53.8735 168.098C58.3782 165.959 60.5819 171.933 60.7331 176.006C60.9708 182.509 54.8673 188.202 51.1188 183.168Z" fill="url(#paint19_linear_379_7252)"/>
<path d="M101.427 166.845C99.5796 167.115 100.217 174.407 103.566 178.188C106.915 181.979 111.624 181.85 112.532 180.878C113.439 179.905 110.285 174.925 107.822 171.749C105.359 168.574 102.248 166.715 101.427 166.834V166.845Z" fill="url(#paint20_linear_379_7252)"/>
<path style="mix-blend-mode:multiply" opacity="0.5" d="M124.177 76.7193L116.853 80.0141L42.1426 70.2486C42.1426 70.2486 34.9481 59.4568 36.0067 46.4613C37.0762 33.455 47.4358 25.8284 53.6797 24.8238C59.9344 23.8083 79.3466 28.043 90.2356 26.8439C101.125 25.634 104.03 19.6494 110.706 20.5892C114.423 22.8253 117.048 25.3315 118.463 27.7837C122.73 35.151 127.731 62.892 124.166 76.7301L124.177 76.7193Z" fill="url(#paint21_linear_379_7252)"/>
<g style="mix-blend-mode:multiply" opacity="0.5">
<path d="M63.9203 129.771C63.9203 129.771 68.7059 131.715 71.9574 128.604C71.9574 128.604 69.6241 137.43 66.2429 141.675C61.2305 147.973 57.3848 142.626 57.3848 142.626C57.3848 142.626 62.3431 135.712 64.4064 131.056L63.9095 129.771H63.9203Z" fill="#AB2781"/>
</g>
<path d="M122.07 72.139C121.562 73.6406 120.946 75.0773 120.223 76.4276C119.661 77.4755 118.991 78.4585 118.202 79.3983V79.4199C106.482 93.4741 71.9891 95.3321 61.3486 90.5358C56.6171 88.4077 50.8701 83.0604 46.117 76.4708C46.0954 76.4384 46.0738 76.4168 46.063 76.3844C41.9256 70.6267 38.5552 63.9291 37.2913 57.6096C34.6123 44.0415 42.1308 29.5229 51.6371 27.2436C61.1325 24.9534 74.3981 31.4025 86.8859 31.813C99.3844 32.2127 102.139 25.6556 104.494 24.4889C106.168 23.6571 109.15 21.475 114.843 26.2929C121.152 31.651 127.73 55.6867 122.07 72.139Z" fill="url(#paint22_radial_379_7252)"/>
<path style="mix-blend-mode:multiply" opacity="0.5" d="M123.01 80.0141C117.468 91.4972 95.2797 104.244 88.3661 109.483C88.3661 109.483 83.5373 113.783 72.2379 110.358C72.2379 110.358 51.8102 109.354 43.4814 104.115C41.7314 103.024 39.5385 100.993 37.1943 98.3136C42.3472 99.2426 56.963 101.414 74.528 99.8692C98.1856 97.7951 113.104 92.9123 123.021 80.0141H123.01Z" fill="url(#paint23_linear_379_7252)"/>
<g style="mix-blend-mode:multiply" opacity="0.8">
<path d="M27.969 76.2008C27.969 76.2008 27.2776 71.4585 32.1172 71.9662C36.9567 72.4739 45.3611 87.8351 45.3611 87.8351C45.3611 87.8351 43.4815 78.6206 36.7407 71.264C29.9999 63.8967 26.0029 62.1899 23.918 63.3889C21.8223 64.588 25.0199 75.3582 25.7004 76.4816C26.381 77.6051 28.2715 79.4848 28.2715 79.4848L27.9798 76.2008H27.969Z" fill="#2927AB"/>
</g>
<path d="M31.8902 85.9015C27.9365 83.2116 19.1648 74.2023 14.8545 56.162C13.4286 50.2098 12.4888 43.2746 12.3808 35.2699C11.9054 2.9702 24.0799 -4.93728 22.9133 2.68933C22.9133 2.68933 22.9133 2.72174 22.8917 2.79736C19.0567 28.0105 19.6401 66.8242 24.1988 72.1606C28.7791 77.5079 28.8871 76.7409 28.8871 76.7409C32.8408 79.7548 34.0831 87.8135 31.8902 85.9123V85.9015Z" fill="url(#paint24_linear_379_7252)"/>
<g style="mix-blend-mode:multiply" opacity="0.3">
<path d="M31.8901 85.9015C27.9364 83.2117 19.1647 74.2023 14.8545 56.162C17.1554 60.5263 18.9055 59.5648 19.0027 38.8887C19.1107 19.1957 22.5567 4.14768 22.8916 2.78656C19.0567 27.9997 19.64 66.8134 24.1987 72.1498C28.779 77.4971 28.887 76.7301 28.887 76.7301C32.8408 79.744 34.0831 87.8027 31.8901 85.9015Z" fill="#AB2781"/>
</g>
<g style="mix-blend-mode:multiply">
<path d="M50.8594 150.598C55.8069 150.792 58.0539 153.115 62.0724 157.036C66.091 160.968 68.3163 152.348 67.2253 149.421C66.1342 146.493 51.5723 146.396 51.5723 146.396L50.8594 150.587V150.598Z" fill="#AB2781"/>
</g>
<g style="mix-blend-mode:multiply" opacity="0.5">
<path d="M93.7455 109.57C93.7455 109.57 95.9384 122.9 95.3011 130.149C95.3011 130.149 95.6684 122.727 93.8643 116.926C92.0711 111.115 88.96 109.062 88.96 109.062L93.5619 105.875C93.5619 105.875 96.4137 105.692 98.7039 108.36C98.4554 108.274 94.7177 106.912 93.7455 109.57Z" fill="#AB2781"/>
</g>
<g style="mix-blend-mode:multiply" opacity="0.5">
<path d="M72.5083 127.751C70.8339 130.462 68.8679 132.244 67.3123 132.407C63.7258 132.806 63.7582 128.539 63.7582 128.539C63.7582 128.539 66.286 129.414 67.1935 122.252C68.1009 115.101 63.3802 110.855 63.3802 110.855L61.9326 111.309C62.4835 110.326 63.2397 109.505 64.1255 108.825C64.7089 109.062 67.3123 110.51 68.2629 117.985C69.3432 126.422 67.7444 127.988 67.6364 128.896C67.5608 129.652 70.8555 129.501 72.4975 127.74L72.5083 127.751Z" fill="#AB2781"/>
</g>
<g style="mix-blend-mode:multiply" opacity="0.5">
<path d="M73.4157 126.163C73.3725 126.238 73.3401 126.314 73.2969 126.389C73.5237 125.612 73.5345 125.644 73.4157 126.163Z" fill="#AB2781"/>
</g>
<g style="mix-blend-mode:multiply" opacity="0.5">
<path d="M66.5453 127.556C61.7489 129.587 57.3847 129.598 56.985 129.922C56.985 129.922 59.556 123.008 54.6517 118.428C49.7473 113.858 37.6052 122.036 36.741 125.785C35.9092 129.425 39.2796 136.954 39.4741 137.43C36.6546 133.465 34.332 129.349 34.332 127.502C34.332 124.078 36.2441 120.848 43.5034 118.428C48.4942 116.764 57.2659 112.703 63.4017 110.866C63.6826 110.942 67.5067 112.065 67.9388 119.098C68.2197 123.635 67.3987 126.184 66.5453 127.556Z" fill="#E767A7"/>
</g>
<path d="M88.0743 199.674C88.0743 199.674 106.115 182.433 118.105 187.975C118.105 187.975 104.095 182.736 87.8799 203.196L88.0743 199.663V199.674Z" fill="url(#paint25_linear_379_7252)"/>
<path d="M44.5615 191.626C44.5615 191.626 60.7222 183.859 75.4461 201.089L75.284 203.207C75.284 203.207 65.7778 185.782 44.5615 191.626Z" fill="url(#paint26_linear_379_7252)"/>
<g style="mix-blend-mode:multiply" opacity="0.5">
<path d="M89.5765 179.246C88.1181 186.884 87.5996 195.99 87.5996 195.99C87.0163 193.419 85.8388 189.844 83.9267 186.765C81.1073 182.228 77.6829 177.907 76.9807 176.373C76.9159 176.222 76.8403 176.006 76.7646 175.692C91.8666 170.194 96.058 159.586 96.5765 158.117C96.609 158.009 96.6306 157.944 96.6306 157.944C96.6306 157.944 96.8034 158.181 96.8142 158.657C96.8466 161.098 91.4561 169.427 89.5765 179.246Z" fill="#C72781"/>
</g>
<g style="mix-blend-mode:multiply" opacity="0.5">
<path d="M76.7102 175.098C76.5913 175.422 76.5049 175.638 76.4617 175.746C76.4617 175.768 76.4617 175.79 76.4401 175.8C75.4895 178.631 74.1176 180.759 73.9663 183.254C73.7719 179.635 70.8984 168.768 64.0388 160.093C54.8674 148.502 50.1143 154.53 50.1143 154.53C50.3951 152.813 50.7084 151.16 51.0973 149.637C50.5356 148.438 50.2763 147.206 50.2763 146.061C50.838 145.985 51.4754 146.007 52.21 146.18C55.105 146.839 57.8813 150.069 65.0542 157.944C73.2209 166.921 76.4077 172.992 76.7102 175.012C76.7102 175.044 76.7102 175.077 76.7102 175.098Z" fill="#AB2781"/>
</g>
<path d="M67.8201 146.979C67.8201 146.979 67.7985 147.022 67.7769 147.055C66.2753 149.431 64.2444 150.825 59.9234 150.825C55.073 150.825 49.1316 147.995 46.647 145.856C45.5128 144.873 44.13 143.382 42.7041 141.654C42.7365 141.459 42.7689 141.275 42.8013 141.081C44.8322 130.343 57.266 131.51 57.266 131.51C57.3848 131.78 57.482 131.953 57.482 131.953C57.482 131.953 57.6981 131.888 58.0545 131.834C59.1024 131.65 61.7058 131.078 63.996 132.234C67.0747 133.8 67.9281 134.913 67.8309 135.777C67.7228 136.63 66.1133 137.538 64.9574 137.181C63.8015 136.825 63.2398 137.03 63.2398 137.03C66.567 139.428 69.8834 143.717 67.8417 146.979H67.8201Z" fill="url(#paint27_linear_379_7252)"/>
<g style="mix-blend-mode:multiply" opacity="0.2">
<path d="M75.0141 210.466C74.1499 210.66 68.9214 211.568 61.6621 214.095C54.4028 216.612 38.2745 214.7 37.4319 214.095C37.4319 214.095 47.2407 215.295 52.9336 214.798C58.6374 214.301 59.3936 213.739 59.7392 213.231C60.0849 212.734 58.3781 210.963 57.7732 210.466C57.1682 209.958 52.2315 211.47 46.2252 211.017C40.2298 210.563 37.3779 209.461 37.3779 209.461C37.3779 209.461 37.3779 209.44 37.3779 209.396C37.3995 209.094 37.5292 207.884 37.6588 207.333C37.6588 207.333 38.4366 208.122 40.4675 208.835C42.5524 209.58 45.9552 210.239 51.2052 209.904C55.6235 209.623 58.3457 208.122 60.3982 206.328C63.1636 203.93 64.7084 201.057 67.4847 200.02C72.3242 198.216 75.1977 204.47 75.1977 204.47C75.1977 204.47 75.1977 204.503 75.1977 204.568C75.1977 204.6 75.1977 204.632 75.1977 204.676C75.1977 204.697 75.1977 204.73 75.1977 204.773C75.1977 204.816 75.1977 204.87 75.1977 204.924C75.1977 204.956 75.1977 204.989 75.1977 205.021C75.2949 206.35 75.5002 209.688 74.9384 210.466H75.0141Z" fill="#C22781"/>
</g>
<g style="mix-blend-mode:multiply" opacity="0.2">
<path d="M108.384 211.514C112.489 212.724 124.998 210.93 126.186 210.747C122.892 211.589 118.02 212.356 112.532 212.313C102.831 212.248 101.33 210.563 98.6505 210.477C95.9607 210.369 87.6859 210.163 87.4267 209.234C87.2214 208.511 87.7075 206.544 87.8696 205.497L88.064 205.227C88.064 205.227 88.1505 205.075 88.3233 204.848C89.0687 203.79 91.3696 200.29 95.2261 200.895C97.7431 201.284 99.558 203.12 101.675 204.319C103.512 205.367 105.672 206.393 109.01 206.869C115.449 207.787 126.175 206.069 129.103 203.239C129.438 202.926 129.654 202.602 129.773 202.256C129.773 202.256 130.151 202.537 130.097 203.768C130.097 203.768 124.069 208.673 111.43 208.543C98.791 208.403 104.095 210.228 108.394 211.503L108.384 211.514Z" fill="#C22781"/>
</g>
<g style="mix-blend-mode:multiply" opacity="0.5">
<path d="M89.4033 198.475C89.4033 198.475 96.2197 191.021 104.192 187.381C112.154 183.74 118.106 187.986 118.106 187.986C118.106 187.986 105.564 184.507 89.4033 198.475Z" fill="#D14894"/>
</g>
<g style="mix-blend-mode:multiply" opacity="0.5">
<path d="M44.5615 191.626C44.5615 191.626 45.3609 187.467 56.3795 189.152C67.3981 190.838 75.4461 201.1 75.4461 201.1C75.4461 201.1 59.8255 184.788 44.5615 191.637V191.626Z" fill="#D14894"/>
</g>
<g style="mix-blend-mode:multiply" opacity="0.5">
<path d="M122.07 72.139L118.213 79.3443C118.883 77.8428 129.761 52.5648 103.554 50.2422C76.6019 47.8656 37.3346 64.2531 46.0522 76.3844C41.9148 70.6267 38.5444 63.9291 37.2805 57.6096C34.6015 44.0415 42.1201 29.5229 51.6263 27.2436C61.1218 24.9534 74.3873 31.4025 86.8751 31.813C99.3737 32.2127 102.128 25.6556 104.483 24.4889C106.158 23.6571 109.139 21.475 114.832 26.2929C121.141 31.651 127.72 55.6867 122.059 72.139H122.07Z" fill="#AB2781"/>
</g>
<g style="mix-blend-mode:multiply" opacity="0.8">
<path d="M127.914 97.471C127.914 97.471 125.019 99.3291 124.231 102.278C123.442 105.227 123.431 111.19 125.764 114.334C127.882 117.186 132.851 115.5 132.851 115.5L135.573 115.857C135.573 115.857 132.754 115.889 132.278 116.289C131.803 116.689 132.819 118.741 132.819 118.741C132.819 118.741 130.906 117.942 130.399 116.862C129.891 115.781 126.434 120.178 123.95 112.67C121.465 105.162 123.917 97.9463 127.914 97.471Z" fill="#AB2781"/>
</g>
<g style="mix-blend-mode:multiply" opacity="0.5">
<path d="M67.8086 135.777C67.7006 136.63 66.091 137.538 64.9351 137.181C63.7792 136.825 63.2175 137.03 63.2175 137.03C60.7113 135.539 61.4135 131.456 63.6928 132.612C66.7715 134.178 67.895 134.913 67.7978 135.777H67.8086Z" fill="#AB2781"/>
</g>
<g style="mix-blend-mode:multiply" opacity="0.5">
<path d="M128.228 91.9725C125.538 90.4818 124.404 97.6439 124.76 98.4C125.127 99.1562 127.634 97.579 127.634 97.579C127.634 97.579 129.146 94.2086 128.228 91.9725Z" fill="#AB2781"/>
</g>
<g style="mix-blend-mode:multiply" opacity="0.5">
<path d="M130.702 120.146C129.891 120.362 129.049 120.502 128.228 120.578C124.998 120.891 122.157 120.686 119.856 120.934C119.143 121.01 118.484 121.129 117.879 121.312C117.058 121.582 115.47 122.231 113.32 122.911C113.536 122.76 116.874 121.669 117.577 120.491C118.484 118.979 115.589 112.152 116.464 105.886C116.507 106.513 117.123 114.766 119.262 117.359C121.908 120.567 130.334 120.124 130.702 120.135V120.146Z" fill="#AB2781"/>
</g>
<g style="mix-blend-mode:multiply" opacity="0.5">
<path d="M67.7661 147.055C66.2646 149.431 64.2337 150.825 59.9126 150.825C55.0623 150.825 49.1209 147.995 46.6363 145.856C45.502 144.873 44.1193 143.382 42.6934 141.654C42.7258 141.459 42.7582 141.275 42.7906 141.081C46.053 144.116 51.3678 148.837 56.7259 149.215C66.1025 149.885 67.3556 147.563 67.7769 147.055H67.7661Z" fill="#AB2781"/>
</g>
<g style="mix-blend-mode:multiply" opacity="0.5">
<path d="M76.4727 175.746C76.4727 175.746 81.6579 183.503 85.3956 182.638C89.1333 181.774 94.3725 163.032 94.3725 163.032C94.3725 163.032 85.644 173.489 76.4727 175.746Z" fill="#AB2781"/>
</g>
<g style="mix-blend-mode:soft-light" opacity="0.5">
<path d="M83.7963 165.603C79.7237 169.394 88.7655 169.935 93.4754 163.032C98.1745 156.129 95.2902 152.1 94.8149 151.83C94.3396 151.559 89.6405 160.158 83.7963 165.603Z" fill="white"/>
</g>
<g style="mix-blend-mode:soft-light" opacity="0.5">
<path d="M68.3816 156.01C66.059 155.06 71.3199 163.864 73.4912 167.871C75.0143 170.669 77.3477 171.188 77.3477 171.188C77.3477 171.188 76.3323 159.251 68.3816 156.01Z" fill="white"/>
</g>
<g style="mix-blend-mode:soft-light">
<path d="M94.5778 196.001C91.7584 198.745 102.334 206.501 112.542 206.566C122.751 206.631 126.273 202.882 126.877 201.284C127.482 199.685 122.135 189.001 114.282 188.094C106.417 187.186 94.5778 196.001 94.5778 196.001Z" fill="white"/>
</g>
<g style="mix-blend-mode:soft-light">
<path d="M40.9864 208.554C34.2348 206.534 43.1686 195.472 47.2411 192.728C51.3137 189.984 63.9419 192.112 67.2259 196.001C67.2259 196.001 65.8323 202.569 56.3801 206.566C46.9279 210.563 40.9864 208.554 40.9864 208.554Z" fill="white"/>
</g>
<g style="mix-blend-mode:soft-light" opacity="0.5">
<path d="M67.5498 110.423C66.88 110.845 70.0236 119.649 69.9155 122.922C69.8183 126.195 76.0622 120.318 75.5113 115.274C74.8523 109.278 68.4788 109.829 67.5498 110.412V110.423Z" fill="white"/>
</g>
<path d="M92.6337 47.466C75.9221 47.8224 67.5393 30.6788 72.703 22.2744C73.2863 21.3129 74.0533 20.4811 75.0039 19.7898C83.2571 13.7727 95.6152 16.0629 101.114 22.1231C102.68 23.8515 103.922 26.0553 104.722 28.475C107.455 36.7282 105.035 47.2283 92.6337 47.4768V47.466Z" fill="url(#paint28_linear_379_7252)"/>
<path d="M92.3959 38.1866C83.4082 38.381 78.0934 28.2266 81.0749 23.3978C81.4097 22.8577 81.8526 22.3932 82.4036 22.0367C87.0919 19.012 93.7463 21.1293 96.5225 24.759C97.2895 25.7636 97.8945 26.9951 98.2725 28.3022C99.5581 32.6881 98.4238 38.0461 92.3959 38.1758V38.1866Z" fill="#36ACE3"/>
<path d="M92.0933 38.1866C84.4127 38.3594 79.9621 29.7606 82.4682 25.6556C82.7491 25.1911 83.1272 24.8022 83.5917 24.4889C87.5563 21.8639 93.2384 23.5707 95.6474 26.6386C96.3171 27.492 96.8357 28.5399 97.1705 29.6633C98.294 33.4334 97.3218 38.0677 92.0933 38.1866Z" fill="#75E4FF"/>
<path d="M92.4954 35.1992C92.1451 35.3833 91.7568 35.532 91.3546 35.5859C93.9835 34.7629 94.7834 31.9602 94.7834 31.9602C93.53 33.7526 90.7821 35.6823 88.2003 34.4449C84.8697 32.8483 85.0812 29.845 86.1927 28.4449C87.7204 26.5205 91.4371 26.9282 91.8096 29.9692C91.4078 28.3234 89.1596 27.0279 87.4406 28.0392C85.7252 29.0485 85.7161 31.0118 86.2089 32.4816C86.2089 32.4816 86.1586 31.9819 86.2121 31.3336C86.3089 31.8419 86.6222 32.8359 87.4871 33.4718C88.4763 34.1991 89.5799 34.3835 90.44 34.2632C92.9398 33.9143 94.5351 31.4656 94.5351 31.4656C93.4888 32.7018 91.5458 33.7707 89.9143 33.668C89.2725 33.6274 88.5025 33.3628 87.9763 32.9553C87.5498 32.6253 87.227 32.1712 87.0387 31.6788C86.8574 31.2046 86.7592 30.5917 86.9841 30.05C87.2658 29.3729 88.0175 28.8097 89.002 28.8923C89.7377 28.9541 90.278 29.4596 90.6361 30.1171C90.1226 29.5486 89.2744 29.2992 88.5823 29.5127C87.8902 29.7262 87.3005 30.387 87.386 31.1197C87.5721 32.7188 89.5224 33.4704 91.0165 33.1339C92.1497 32.8788 93.3801 32.1413 94.0366 31.2624C95.4821 29.3267 94.7711 27.2792 94.3133 26.4677C94.3133 26.4677 94.866 28.1505 94.4433 29.378C94.7046 27.0207 93.4547 24.4823 90.4269 23.4303C90.4269 23.4303 92.0965 24.2531 93.0546 25.8738C89.9873 22.5226 85.3957 23.6134 83.9532 26.1484C83.9532 26.1484 85.1846 24.5914 86.9727 24.4528C84.4744 25.3513 82.7859 28.032 82.8814 30.9932C82.8814 30.9932 83.4881 26.8995 86.6648 25.7017C88.4846 25.0159 90.094 25.3835 91.3677 26.1967C91.6958 26.4061 91.9377 26.6488 92.1327 26.8787C90.5864 25.6688 87.9684 25.1759 86.1614 26.3348C84.7747 27.1273 83.8269 28.4762 83.5523 30.1522C83.3393 31.4563 83.6461 32.9319 84.3315 34.1498C84.7877 34.9605 85.4195 35.5639 86.0826 36.211C86.0826 36.211 84.8717 35.0297 84.5705 33.8834C85.7812 36.0195 88.2989 37.6501 91.3913 37.1828C91.3913 37.1828 89.8314 37.2531 88.3505 36.5198C91.7477 37.2948 96.1562 34.9023 96.1552 29.8481C96.1552 29.8481 95.371 33.688 92.496 35.1994L92.4954 35.1992ZM91.6215 31.1773C91.6625 31.2428 91.6442 31.3249 91.5809 31.3602L91.5024 31.404C91.439 31.4394 91.4208 31.5215 91.4618 31.5869L91.5901 31.7917C91.6311 31.8572 91.6128 31.9393 91.5495 31.9746C91.4861 32.01 91.4011 31.9855 91.3601 31.9201L91.2318 31.7153C91.1908 31.6498 91.1058 31.6253 91.0424 31.6607L90.964 31.7044C90.9006 31.7398 90.8156 31.7153 90.7746 31.6498C90.7336 31.5844 90.7519 31.5023 90.8152 31.4669L90.8937 31.4232C90.9571 31.3878 90.9753 31.3057 90.9343 31.2402L90.806 31.0354C90.765 30.97 90.7832 30.8879 90.8466 30.8525C90.91 30.8171 90.995 30.8416 91.036 30.9071L91.1643 31.1119C91.2053 31.1774 91.2903 31.2019 91.3537 31.1665L91.4321 31.1227C91.4955 31.0874 91.5805 31.1119 91.6215 31.1773ZM92.8014 31.4992C92.8158 31.5223 92.8095 31.5507 92.7872 31.5632L92.7599 31.5784C92.7376 31.5909 92.7313 31.6193 92.7457 31.6424L92.7904 31.7137C92.8049 31.7368 92.7985 31.7652 92.7762 31.7777C92.7538 31.7902 92.7244 31.7817 92.7099 31.7586L92.6653 31.6873C92.6508 31.6642 92.6214 31.6557 92.599 31.6682L92.5718 31.6834C92.5494 31.6958 92.52 31.6874 92.5055 31.6643C92.4911 31.6412 92.4974 31.6128 92.5197 31.6003L92.547 31.5851C92.5689 31.5729 92.5756 31.5442 92.5612 31.5211L92.5165 31.4498C92.502 31.4267 92.5084 31.3982 92.5307 31.3858C92.5531 31.3733 92.5825 31.3818 92.597 31.4049L92.6416 31.4762C92.6561 31.4993 92.6855 31.5078 92.7079 31.4953L92.7351 31.4801C92.7575 31.4676 92.7869 31.4761 92.8014 31.4992ZM89.1503 24.53C89.1648 24.5531 89.1585 24.5815 89.1361 24.594L89.1089 24.6092C89.0865 24.6216 89.0802 24.6501 89.0947 24.6732L89.1394 24.7445C89.1538 24.7676 89.1475 24.796 89.1252 24.8085C89.1028 24.821 89.0734 24.8125 89.0589 24.7894L89.0142 24.7181C88.9998 24.695 88.9703 24.6865 88.948 24.699L88.9207 24.7142C88.8984 24.7266 88.869 24.7181 88.8545 24.6951C88.84 24.672 88.8464 24.6435 88.8687 24.6311L88.8959 24.6159C88.9183 24.6034 88.9246 24.575 88.9101 24.5519L88.8655 24.4805C88.851 24.4575 88.8573 24.429 88.8797 24.4166C88.902 24.4041 88.9315 24.4126 88.9459 24.4357L88.9906 24.507C89.0051 24.5301 89.0345 24.5386 89.0569 24.5261L89.0841 24.5109C89.1064 24.4984 89.1359 24.5069 89.1503 24.53ZM93.0545 25.8745C93.0771 25.9123 93.0988 25.9505 93.1202 25.989C93.0792 25.9445 93.0372 25.9011 92.9941 25.8578L93.0545 25.8745ZM93.7075 28.8371C93.6931 28.814 93.6994 28.7856 93.7217 28.7731L93.7489 28.7579C93.7713 28.7455 93.7776 28.717 93.7631 28.6939L93.7185 28.6226C93.704 28.5995 93.7103 28.5711 93.7327 28.5586C93.755 28.5461 93.7845 28.5546 93.7989 28.5777L93.8436 28.649C93.8581 28.6721 93.8875 28.6806 93.9099 28.6681L93.9371 28.6529C93.9594 28.6405 93.9889 28.649 94.0033 28.672C94.0178 28.6951 94.0115 28.7236 93.9891 28.736L93.9619 28.7512C93.9395 28.7637 93.9332 28.7921 93.9477 28.8152L93.9924 28.8866C94.0068 28.9096 94.0005 28.9381 93.9782 28.9506C93.9558 28.963 93.9264 28.9545 93.9119 28.9315L93.8672 28.8601C93.8528 28.837 93.8233 28.8286 93.801 28.841L93.7738 28.8562C93.7514 28.8687 93.722 28.8602 93.7075 28.8371ZM92.4529 28.4827C92.4303 28.4466 92.4407 28.4018 92.4752 28.3825L92.5183 28.3585C92.5532 28.339 92.5629 28.2939 92.5405 28.2583L92.4701 28.1458C92.4475 28.1097 92.4574 28.0651 92.4923 28.0456C92.5273 28.0261 92.5737 28.0399 92.596 28.0755L92.6665 28.188C92.6891 28.2241 92.7353 28.2374 92.7702 28.2179L92.8133 28.1939C92.8482 28.1744 92.8944 28.1877 92.917 28.2238C92.9396 28.2598 92.9293 28.3047 92.8948 28.3239L92.8517 28.348C92.8167 28.3675 92.8068 28.4121 92.8294 28.4482L92.8999 28.5606C92.9225 28.5967 92.9122 28.6415 92.8776 28.6608C92.8431 28.6801 92.7962 28.6666 92.7739 28.6309L92.7035 28.5185C92.6809 28.4824 92.6347 28.4691 92.5997 28.4886L92.5567 28.5126C92.5217 28.5321 92.4753 28.5184 92.4529 28.4827ZM86.6097 27.0882C86.59 27.0567 86.599 27.0177 86.6291 27.0009L86.6664 26.9801C86.6969 26.9631 86.7053 26.9239 86.6858 26.8928L86.6243 26.7946C86.6046 26.7631 86.6136 26.7241 86.6437 26.7073C86.6738 26.6906 86.7146 26.7023 86.734 26.7334L86.7955 26.8316C86.8152 26.8631 86.8558 26.8744 86.8859 26.8576L86.9233 26.8368C86.9537 26.8198 86.9941 26.8318 87.0136 26.8628C87.0333 26.8943 87.0243 26.9333 86.9942 26.9501L86.9568 26.9709C86.9264 26.9879 86.918 27.0271 86.9375 27.0582L86.999 27.1564C87.0187 27.1879 87.0097 27.2269 86.9796 27.2436C86.9495 27.2604 86.9087 27.2487 86.8892 27.2176L86.8277 27.1194C86.808 27.0879 86.7675 27.0766 86.7374 27.0934L86.7 27.1142C86.6695 27.1312 86.6291 27.1192 86.6097 27.0882ZM85.7734 27.4585C85.759 27.4355 85.7653 27.407 85.7876 27.3945L85.8149 27.3794C85.8372 27.3669 85.8435 27.3384 85.8291 27.3154L85.7844 27.244C85.7699 27.2209 85.7762 27.1925 85.7986 27.18C85.8209 27.1676 85.8504 27.176 85.8648 27.1991L85.9095 27.2705C85.924 27.2935 85.9534 27.302 85.9758 27.2896L86.003 27.2744C86.0253 27.2619 86.0548 27.2704 86.0692 27.2935C86.0837 27.3166 86.0774 27.345 86.055 27.3575L86.0278 27.3727C86.0055 27.3851 85.9992 27.4136 86.0136 27.4366L86.0583 27.508C86.0727 27.5311 86.0664 27.5595 86.0441 27.572C86.0217 27.5844 85.9923 27.576 85.9778 27.5529L85.9331 27.4815C85.9187 27.4585 85.8892 27.45 85.8669 27.4624L85.8397 27.4776C85.8173 27.4901 85.7879 27.4816 85.7734 27.4585ZM86.588 34.8275C86.6025 34.8505 86.5962 34.879 86.5738 34.8914L86.5466 34.9066C86.5243 34.9191 86.5179 34.9475 86.5324 34.9706L86.5771 35.042C86.5915 35.065 86.5852 35.0935 86.5629 35.106C86.5405 35.1184 86.5111 35.1099 86.4966 35.0869L86.4519 35.0155C86.4375 34.9924 86.408 34.984 86.3857 34.9964L86.3585 35.0116C86.3361 35.0241 86.3067 35.0156 86.2922 34.9925C86.2778 34.9694 86.2841 34.941 86.3064 34.9285L86.3337 34.9133C86.356 34.9009 86.3623 34.8724 86.3479 34.8493L86.3032 34.778C86.2887 34.7549 86.295 34.7265 86.3174 34.714C86.3397 34.7015 86.3692 34.71 86.3836 34.7331L86.4283 34.8044C86.4428 34.8275 86.4722 34.836 86.4946 34.8235L86.5218 34.8084C86.5441 34.7959 86.5736 34.8044 86.588 34.8275ZM84.5345 30.9989L84.5073 31.0141C84.4849 31.0266 84.4786 31.055 84.4931 31.0781L84.5378 31.1494C84.5522 31.1725 84.5459 31.201 84.5235 31.2134C84.5012 31.2259 84.4717 31.2174 84.4573 31.1943L84.4126 31.123C84.3982 31.0999 84.3687 31.0914 84.3464 31.1039L84.3191 31.1191C84.2968 31.1316 84.2673 31.1231 84.2529 31.1C84.2384 31.0769 84.2447 31.0485 84.2671 31.036L84.2943 31.0208C84.3167 31.0083 84.323 30.9799 84.3085 30.9568L84.2638 30.8855C84.2494 30.8624 84.2557 30.834 84.2781 30.8215C84.3004 30.809 84.3298 30.8175 84.3443 30.8406L84.389 30.9119C84.4034 30.935 84.4329 30.9435 84.4552 30.931L84.4825 30.9158C84.5048 30.9034 84.5343 30.9118 84.5487 30.9349C84.5632 30.958 84.5569 30.9864 84.5345 30.9989ZM87.8663 35.2468C87.8889 35.2829 87.879 35.3275 87.844 35.347L87.801 35.371C87.766 35.3905 87.7561 35.4351 87.7787 35.4712L87.8492 35.5837C87.8718 35.6198 87.8619 35.6644 87.8269 35.6839C87.792 35.7034 87.7458 35.6901 87.7232 35.654L87.6527 35.5415C87.6301 35.5054 87.5836 35.4923 87.549 35.5116L87.506 35.5357C87.471 35.5552 87.4248 35.5418 87.4022 35.5058C87.3796 35.4697 87.3895 35.4251 87.4245 35.4056L87.4675 35.3815C87.5025 35.362 87.5124 35.3174 87.4898 35.2813L87.4194 35.1689C87.3967 35.1328 87.4066 35.0882 87.4416 35.0687C87.4765 35.0492 87.5227 35.0625 87.5453 35.0986L87.6158 35.211C87.6384 35.2471 87.6849 35.2602 87.7195 35.2409L87.7626 35.2169C87.7975 35.1974 87.8439 35.2111 87.8663 35.2468Z" fill="#000AFF"/>
<path style="mix-blend-mode:multiply" opacity="0.5" d="M92.6337 47.466C75.9221 47.8224 67.5393 30.6788 72.703 22.2744C70.4236 28.313 76.2462 40.9196 88.4639 44.0415C100.671 47.1635 106.99 38.7375 104.733 28.5399C104.733 28.5183 104.733 28.4859 104.733 28.4643C107.466 36.7174 105.046 47.2175 92.6445 47.466H92.6337Z" fill="url(#paint29_linear_379_7252)"/>
<g style="mix-blend-mode:soft-light" opacity="0.5">
<path d="M94.0591 108.846C93.1625 109.397 94.9773 119.443 95.6795 121.615C96.3816 123.786 101.362 120.589 101.21 115.749C101.059 110.909 98.3153 108.943 97.0946 108.457C95.8739 107.971 94.664 108.479 94.0591 108.846Z" fill="white"/>
</g>
<g style="mix-blend-mode:overlay">
<path d="M59.8367 92.9123C58.4972 93.5065 64.579 99.7828 74.1501 99.0698C83.7211 98.3676 84.0236 96.434 83.8292 95.1809C83.6239 93.9278 62.1592 91.8861 59.8367 92.9016V92.9123Z" fill="white"/>
</g>
<g style="mix-blend-mode:soft-light" opacity="0.5">
<path d="M56.6495 65.247C51.7775 68.4229 58.4211 81.7209 69.0292 80.0141C79.6374 78.3073 66.9984 58.5062 56.6495 65.247Z" fill="white"/>
</g>
<path d="M60.0635 46.3641C58.011 47.1203 61.4895 52.1543 63.6392 51.2793C65.7889 50.3934 63.3367 45.1542 60.0635 46.3641Z" fill="white"/>
<path d="M83.213 36.7066C80.9769 36.9227 82.5216 40.9088 86.0217 40.4659C89.5217 40.023 85.2331 36.523 83.213 36.7066Z" fill="white"/>
<path d="M99.7198 36.3285C98.4451 36.3501 99.2445 38.6619 99.7198 38.5971C100.195 38.5323 102.14 36.2853 99.7198 36.3285Z" fill="white"/>
<g style="mix-blend-mode:overlay">
<path d="M76.7102 132.007C73.988 132.957 74.8954 137.127 77.8337 137.257C80.772 137.387 80.1778 130.797 76.7102 132.007Z" fill="white"/>
</g>
<g style="mix-blend-mode:overlay">
<path d="M42.4011 122.652C40.1866 124.272 44.9505 127.016 46.5385 126.011C48.1265 125.007 44.5184 121.118 42.4011 122.652Z" fill="white"/>
</g>
<g style="mix-blend-mode:multiply" opacity="0.5">
<path d="M56.9843 129.922C56.9843 129.922 57.0708 123.224 51.5723 121.712C51.5723 121.712 54.8022 121.172 56.8439 123.873C58.8964 126.573 56.9843 129.933 56.9843 129.933V129.922Z" fill="#AB0481"/>
</g>
<g style="mix-blend-mode:overlay">
<path d="M57.3847 199.145C55.451 202.245 60.6579 204.384 61.9434 200.819C63.2289 197.265 58.3893 197.524 57.3847 199.145Z" fill="white"/>
</g>
<g style="mix-blend-mode:overlay">
<path d="M104.29 198.475C102.583 199.296 104.797 202.396 107.412 201.899C110.037 201.392 107.617 196.876 104.29 198.475Z" fill="white"/>
</g>
<g style="mix-blend-mode:overlay">
<path d="M93.5081 177.226C91.1207 178.501 94.113 184.875 96.1223 185.069C98.1424 185.263 95.7982 175.995 93.5081 177.226Z" fill="white"/>
</g>
<g style="mix-blend-mode:multiply" opacity="0.5">
<path d="M75.0146 163.194C75.0146 163.194 77.5532 165.376 81.1721 164.641C84.791 163.907 90.6676 157.198 92.5364 151.83C92.5364 151.83 89.9438 164.198 77.8341 169.74L75.0146 163.194Z" fill="#AB2781"/>
</g>
<g style="mix-blend-mode:overlay">
<path d="M57.3844 186.571C56.7687 187.013 58.8644 187.878 60.0094 186.268C61.1545 184.659 58.5619 185.717 57.3844 186.571Z" fill="white"/>
</g>
<g style="mix-blend-mode:overlay">
<path d="M110.338 90.3089C108.718 91.0003 113.46 84.3351 117.598 81.8829C121.735 79.4307 122.005 80.6946 122.005 80.6946C122.005 80.6946 117.695 87.187 110.338 90.3089Z" fill="white"/>
</g>
<g style="mix-blend-mode:overlay">
<path d="M17.8035 51.7978C17.339 53.2994 12.8667 44.0308 15.3837 35.8748C17.9007 27.7081 18.7109 31.2405 18.7109 31.2405C18.7109 31.2405 19.4131 46.6666 17.8035 51.8086V51.7978Z" fill="white"/>
</g>
<path d="M30.6915 75.423C29.7733 75.9199 31.7934 79.0527 34.278 78.9878C36.7626 78.923 35.3042 72.9384 30.6915 75.423Z" fill="white"/>
<g style="mix-blend-mode:multiply" opacity="0.3">
<path d="M74.0528 108.846C72.6377 107.485 70.0775 104.601 75.0791 101.436C80.0806 98.2704 85.7628 99.934 95.7984 96.5744C105.834 93.2148 109.334 91.7781 109.334 91.7781C109.334 91.7781 98.7799 104.039 89.7814 107.863C80.7828 111.687 74.0528 108.846 74.0528 108.846Z" fill="#E767A7"/>
</g>
<g style="mix-blend-mode:soft-light">
<path d="M114.671 42.3239C112.348 42.756 114.876 45.9104 116.583 46.1805C118.3 46.4505 117.393 41.8162 114.671 42.3239Z" fill="white"/>
</g>
<g style="mix-blend-mode:soft-light">
<path d="M38.4258 52.5648C38.4258 52.5648 39.7653 41.0276 44.7345 35.3023C49.7037 29.5661 52.9012 28.2374 58.2377 28.4426C63.5849 28.6587 69.3967 30.6464 69.3967 30.6464C69.3967 30.6464 60.5278 28.5291 54.8133 29.793C49.0987 31.046 41.5585 40.7684 38.4258 52.5756V52.5648Z" fill="white"/>
</g>
<g style="mix-blend-mode:soft-light">
<path d="M104.397 26.5198C104.397 26.5198 107.368 24.3485 111.711 26.0661C116.043 27.7837 118.819 35.5399 118.819 35.5399C118.819 35.5399 112.672 24.6077 104.408 26.5198H104.397Z" fill="white"/>
</g>
<g style="mix-blend-mode:soft-light" opacity="0.6">
<path d="M124.695 104.136C124.414 107.766 135.314 107.312 135.584 102.019C135.854 96.7256 133.888 96.1747 133.477 96.2719C133.078 96.3692 125.289 96.6284 124.695 104.136Z" fill="white"/>
</g>
<g style="mix-blend-mode:soft-light" opacity="0.3">
<path d="M60.2901 134.837C56.7685 133.098 50.8595 133.573 49.7036 137.257C46.5709 147.282 61.8349 148.751 66.0695 145.262C70.3041 141.772 61.5648 135.464 60.2901 134.837Z" fill="white"/>
</g>
<defs>
<linearGradient id="paint0_linear_379_7252" x1="109.368" y1="124.564" x2="115.647" y2="88.2423" gradientUnits="userSpaceOnUse">
<stop stop-color="#0E142B"/>
<stop offset="0.43" stop-color="#161A2F"/>
<stop offset="1" stop-color="#29293B"/>
</linearGradient>
<linearGradient id="paint1_linear_379_7252" x1="126.427" y1="122.485" x2="137.866" y2="91.6166" gradientUnits="userSpaceOnUse">
<stop stop-color="#B5041D"/>
<stop offset="1" stop-color="#C21D38"/>
</linearGradient>
<linearGradient id="paint2_linear_379_7252" x1="52.0228" y1="215.057" x2="52.3075" y2="204.669" gradientUnits="userSpaceOnUse">
<stop stop-color="#E5222C"/>
<stop offset="1" stop-color="#801212"/>
</linearGradient>
<linearGradient id="paint3_linear_379_7252" x1="104.262" y1="212.05" x2="104.438" y2="203.362" gradientUnits="userSpaceOnUse">
<stop stop-color="#E5222C"/>
<stop offset="1" stop-color="#801212"/>
</linearGradient>
<linearGradient id="paint4_linear_379_7252" x1="99.2354" y1="207.999" x2="114.899" y2="148.683" gradientUnits="userSpaceOnUse">
<stop stop-color="#0E142B"/>
<stop offset="0.43" stop-color="#161A2F"/>
<stop offset="1" stop-color="#29293B"/>
</linearGradient>
<linearGradient id="paint5_linear_379_7252" x1="54.9972" y1="210.226" x2="80.883" y2="148.225" gradientUnits="userSpaceOnUse">
<stop stop-color="#0E142B"/>
<stop offset="0.43" stop-color="#161A2F"/>
<stop offset="1" stop-color="#29293B"/>
</linearGradient>
<linearGradient id="paint6_linear_379_7252" x1="72.5801" y1="169.212" x2="93.9667" y2="111.382" gradientUnits="userSpaceOnUse">
<stop stop-color="#0E142B"/>
<stop offset="0.43" stop-color="#161A2F"/>
<stop offset="1" stop-color="#29293B"/>
</linearGradient>
<linearGradient id="paint7_linear_379_7252" x1="90.9878" y1="136.805" x2="100.992" y2="124.304" gradientUnits="userSpaceOnUse">
<stop stop-color="#E5222C"/>
<stop offset="1" stop-color="#801212"/>
</linearGradient>
<linearGradient id="paint8_linear_379_7252" x1="62.5643" y1="173.965" x2="71.7455" y2="142.316" gradientUnits="userSpaceOnUse">
<stop stop-color="#781515"/>
<stop offset="1" stop-color="#D90516"/>
</linearGradient>
<linearGradient id="paint9_linear_379_7252" x1="50.924" y1="150.201" x2="61.5247" y2="109.835" gradientUnits="userSpaceOnUse">
<stop stop-color="#0E142B"/>
<stop offset="0.43" stop-color="#161A2F"/>
<stop offset="1" stop-color="#29293B"/>
</linearGradient>
<linearGradient id="paint10_linear_379_7252" x1="65.4264" y1="112.364" x2="80.4082" y2="15.1995" gradientUnits="userSpaceOnUse">
<stop stop-color="#121936"/>
<stop offset="0.38" stop-color="#1A1F3A"/>
<stop offset="0.97" stop-color="#303146"/>
<stop offset="1" stop-color="#323247"/>
</linearGradient>
<linearGradient id="paint11_linear_379_7252" x1="34.2495" y1="99.4686" x2="37.6753" y2="61.9965" gradientUnits="userSpaceOnUse">
<stop stop-color="#C3FFFA"/>
<stop offset="0.51" stop-color="#BAFFF7"/>
<stop offset="1" stop-color="#AEFFF3"/>
</linearGradient>
<linearGradient id="paint12_linear_379_7252" x1="36.8146" y1="95.4271" x2="39.5836" y2="64.6707" gradientUnits="userSpaceOnUse">
<stop stop-color="#7BBDFF"/>
<stop offset="0.19" stop-color="#78B4FC"/>
<stop offset="0.48" stop-color="#729EF4"/>
<stop offset="0.84" stop-color="#6879E8"/>
<stop offset="1" stop-color="#6367E3"/>
</linearGradient>
<linearGradient id="paint13_linear_379_7252" x1="35.2024" y1="91.948" x2="37.2849" y2="68.3318" gradientUnits="userSpaceOnUse">
<stop stop-color="#121936"/>
<stop offset="0.38" stop-color="#1A1F3A"/>
<stop offset="0.97" stop-color="#303146"/>
<stop offset="1" stop-color="#323247"/>
</linearGradient>
<linearGradient id="paint14_linear_379_7252" x1="67.5944" y1="132.938" x2="73.5975" y2="107.512" gradientUnits="userSpaceOnUse">
<stop stop-color="#781515"/>
<stop offset="1" stop-color="#D90516"/>
</linearGradient>
<linearGradient id="paint15_linear_379_7252" x1="93.9526" y1="130.631" x2="100.093" y2="106.567" gradientUnits="userSpaceOnUse">
<stop stop-color="#781515"/>
<stop offset="1" stop-color="#D90516"/>
</linearGradient>
<linearGradient id="paint16_linear_379_7252" x1="85.6879" y1="174.201" x2="94.8432" y2="147.206" gradientUnits="userSpaceOnUse">
<stop stop-color="#781515"/>
<stop offset="1" stop-color="#D90516"/>
</linearGradient>
<linearGradient id="paint17_linear_379_7252" x1="50.374" y1="180.373" x2="63.4385" y2="177.62" gradientUnits="userSpaceOnUse">
<stop stop-color="#781515"/>
<stop offset="1" stop-color="#D90516"/>
</linearGradient>
<linearGradient id="paint18_linear_379_7252" x1="101.053" y1="177.652" x2="113.294" y2="174.577" gradientUnits="userSpaceOnUse">
<stop stop-color="#781515"/>
<stop offset="1" stop-color="#D90516"/>
</linearGradient>
<linearGradient id="paint19_linear_379_7252" x1="51.047" y1="180.258" x2="60.9609" y2="178.615" gradientUnits="userSpaceOnUse">
<stop stop-color="#FF2643"/>
<stop offset="1" stop-color="#FF3B3E"/>
</linearGradient>
<linearGradient id="paint20_linear_379_7252" x1="101.901" y1="177.402" x2="112.717" y2="175.021" gradientUnits="userSpaceOnUse">
<stop stop-color="#FF2643"/>
<stop offset="1" stop-color="#FF3B3E"/>
</linearGradient>
<linearGradient id="paint21_linear_379_7252" x1="80.6537" y1="80.0141" x2="80.6537" y2="20.4812" gradientUnits="userSpaceOnUse">
<stop stop-color="white"/>
<stop offset="1" stop-color="#D91A81"/>
</linearGradient>
<radialGradient id="paint22_radial_379_7252" cx="0" cy="0" r="1" gradientUnits="userSpaceOnUse" gradientTransform="translate(65.0364 87.6106) rotate(-171.751) scale(56.1457 53.2006)">
<stop stop-color="#DC165F"/>
<stop offset="0.38" stop-color="#A91723"/>
<stop offset="1" stop-color="#6B1414"/>
</radialGradient>
<linearGradient id="paint23_linear_379_7252" x1="37.1835" y1="95.8506" x2="123.01" y2="95.8506" gradientUnits="userSpaceOnUse">
<stop stop-color="white"/>
<stop offset="1" stop-color="#D91A81"/>
</linearGradient>
<linearGradient id="paint24_linear_379_7252" x1="21.238" y1="86.7881" x2="61.9441" y2="27.8312" gradientUnits="userSpaceOnUse">
<stop stop-color="#121936"/>
<stop offset="0.38" stop-color="#1A1F3A"/>
<stop offset="0.97" stop-color="#303146"/>
<stop offset="1" stop-color="#323247"/>
</linearGradient>
<linearGradient id="paint25_linear_379_7252" x1="115.975" y1="195.387" x2="106.953" y2="181.732" gradientUnits="userSpaceOnUse">
<stop stop-color="#DB1F1F"/>
<stop offset="0.99" stop-color="#FF264E"/>
</linearGradient>
<linearGradient id="paint26_linear_379_7252" x1="73.2695" y1="196.83" x2="66.6551" y2="184.303" gradientUnits="userSpaceOnUse">
<stop stop-color="#DB1F1F"/>
<stop offset="0.99" stop-color="#FF264E"/>
</linearGradient>
<linearGradient id="paint27_linear_379_7252" x1="55.1668" y1="151.785" x2="59.0279" y2="130.769" gradientUnits="userSpaceOnUse">
<stop stop-color="#B5041D"/>
<stop offset="1" stop-color="#C21D38"/>
</linearGradient>
<linearGradient id="paint28_linear_379_7252" x1="86.0659" y1="47.7749" x2="91.1395" y2="16.2863" gradientUnits="userSpaceOnUse">
<stop stop-color="#121936"/>
<stop offset="0.38" stop-color="#1A1F3A"/>
<stop offset="0.97" stop-color="#303146"/>
<stop offset="1" stop-color="#323247"/>
</linearGradient>
<linearGradient id="paint29_linear_379_7252" x1="88.4531" y1="47.4768" x2="88.4531" y2="22.2744" gradientUnits="userSpaceOnUse">
<stop stop-color="#D91A81"/>
<stop offset="1" stop-color="white"/>
</linearGradient>
</defs>
</svg>
