<svg width="386" height="251" viewBox="0 0 386 251" fill="none" xmlns="http://www.w3.org/2000/svg">
<path fill-rule="evenodd" clip-rule="evenodd" d="M338.683 78.7751C337.005 77.2441 330.717 70.1995 326.589 68.1451C323.24 66.4901 318.034 66.1736 314.245 64.7252C309.717 62.9906 302.454 61.3005 298.702 58.6045C296.119 56.7266 296.951 53.8706 295.743 51.1858C294.34 48.0724 290.445 43.884 287.715 41.7828C283.154 38.2737 280.028 35.2233 273.401 34.6318C255.057 32.9419 235.928 35.6282 216.544 37.9351C154.377 45.2409 92.4243 21.4625 28.4219 56.8655C22.7225 60.0109 15.9031 60.7901 15.1002 67.128C14.2253 73.8155 19.1864 77.4431 16.2433 84.8107C13.1359 92.6018 4.29714 99.1337 3.11386 107.382C2.18782 113.819 5.25693 121.393 6.69306 127.158C7.61751 130.849 9.85065 135.051 10.6656 139.024C11.068 140.942 10.1917 143.639 10.4744 145.701C11.023 149.157 12.8707 152.109 14.3321 155.128C18.5525 163.729 24.4482 171.185 31.3389 177.992C38.1238 184.689 45.7669 190.651 54.0495 196.004C62.6737 201.571 72.9053 205.512 80.6473 211.93C85.0206 215.541 90.0835 220.547 95.8524 221.874C107.688 224.581 121.829 221.89 135.239 219.444C146.943 217.29 158.455 216.945 170.07 215.788C185.565 214.206 202.447 213.755 217.164 214.888C226.932 215.645 235.623 218.579 245.278 219.573C254.014 220.474 259.306 219.748 268.888 216.224C297.037 205.936 318.815 188.376 341.445 169.113C353.006 159.284 361.91 150.996 369.524 138.919C375.593 129.296 383.559 117.133 385.615 107.018C387.311 98.652 383.196 91.4756 377.309 86.787C371.251 81.9916 359.784 81.619 338.656 78.8456L338.683 78.7751Z" fill="url(#paint0_linear_377_6887)"/>
<path fill-rule="evenodd" clip-rule="evenodd" d="M183.514 40.8321C191.467 42.1647 199.335 42.7864 206.18 45.8815C210.427 47.7915 214.671 50.5322 217.705 53.6564C220.636 56.7164 222.986 60.2899 225.64 63.5714C228.257 66.7856 232.585 70.6755 228.273 75.8278C225.786 78.7896 222.419 80.8495 219.515 83.463C216.243 86.3717 213.548 90.036 211.222 93.4049C202.643 105.668 192.664 116.617 177.141 121.776C156.592 128.616 138.519 124.86 120.983 121.307C111.222 119.326 102.149 116.943 93.6535 113.123C84.1776 108.821 75.6593 103.364 66.9323 98.1718C58.1028 92.9151 49.0612 87.8766 40.2898 82.5248C36.4662 80.1783 32.3625 77.5691 29.7357 74.217C26.6136 70.336 25.3238 65.6713 26.8167 60.2909C27.6727 57.3183 29.4674 56.9057 32.4552 55.8798C40.0821 53.2378 47.8081 50.614 55.4757 48.5237C62.5998 46.5759 69.2 46.3612 76.187 45.2046C79.1164 44.7121 82.1623 43.591 85.0782 42.9147C89.8537 41.8224 94.6462 40.96 99.4388 39.6593C109.277 36.9529 118.11 36.0732 127.746 35.0379C135.054 34.2574 142.251 35.5125 149.22 35.8793C158.514 36.3837 168.259 36.3811 176.994 38.159C181.03 38.9723 187.101 38.6457 183.518 40.8779L183.514 40.8321Z" fill="#1D0009"/>
<path fill-rule="evenodd" clip-rule="evenodd" d="M24.8259 82.7214C36.2806 87.7776 46.6545 94.0875 57.5722 99.8165C63.2002 102.765 68.7084 105.858 74.0628 109.073C78.5629 111.755 81.9759 115.16 85.2553 118.964C85.6823 119.45 90.4379 123.826 90.0168 125.185C86.6875 125.559 84.1721 125.039 80.932 124.855C78.2148 124.691 75.3093 125.067 72.6195 124.832C69.0102 124.505 65.7875 123.674 61.8977 123.961C50.97 124.715 39.5717 123.07 31.5075 118.467C27.9709 116.475 23.853 114.997 20.8635 112.471C18.4992 110.466 15.6015 108.743 14.2562 105.972C12.8631 102.997 11.7778 99.7754 12.0017 96.1885C12.0881 94.2695 11.6898 91.0829 24.7951 82.746L24.8259 82.7214Z" fill="#1D0009"/>
<path fill-rule="evenodd" clip-rule="evenodd" d="M13.1848 125.034C15.9665 126.071 18.9598 127.329 21.9502 128.102C23.8435 128.584 25.3852 128.715 27.0253 129.74C28.9046 130.915 30.3497 132.388 32.4103 133.37C34.6075 134.436 37.133 135.094 39.4807 135.992C45.0783 138.088 50.3169 140.618 55.8837 142.739C64.2973 145.894 73.4707 146.981 82.5753 148.902C95.8528 151.722 108.781 155.112 122.209 157.763C135.306 160.338 147.965 163.166 160.36 166.837C170.223 169.758 179.518 173.815 189.586 176.426C193.841 177.551 200.167 177.604 202.989 180.508C201.478 181.23 198.805 181.225 197.308 181.254C191.255 181.372 185.643 180.406 180.154 179.343C169.706 177.327 160.654 173.466 150.935 170.284C142.251 167.442 132.808 165.792 123.153 164.798C119.605 164.422 117.534 164.618 114.005 166.709C110.32 168.877 106.805 170.713 103.31 173.264C100.712 175.147 97.6995 177.605 94.5546 178.27C91.4097 178.934 88.8438 176.848 86.7389 175.707C81.6099 172.896 76.5766 170.056 70.7909 168.061C62.2952 165.118 53.3889 162.795 45.1908 159.467C41.2267 157.866 37.481 157.015 34.943 153.982C32.1863 150.636 30.2946 147.086 28.2251 143.337C27.023 141.182 25.6945 139.08 24.5232 136.901C23.8061 135.576 23.1884 133.392 13.1265 125.129L13.1848 125.034Z" fill="#1D0009"/>
<path fill-rule="evenodd" clip-rule="evenodd" d="M174.73 130.616C180.765 126.277 186.092 123.82 192.458 119.995C200.602 115.089 209.395 111.028 217.963 107.001C224.862 103.773 232.376 100.929 239.537 99.9249C247.666 98.7804 255.451 99.6139 263.597 98.6992C273.585 97.5772 283.843 97.0183 293.659 96.6661C304.676 96.2308 315.9 97.2846 326.064 98.9911C335.142 100.544 344.841 102.136 352.181 106.198C354.423 107.424 359.938 109.294 360.354 111.834C360.944 115.403 354.06 122.368 351.385 125.431C345.373 132.283 339.857 138.787 332.549 144.874C324.534 151.526 315.586 157.464 305.748 160.608C300.271 162.358 295.048 163.127 289.654 163.789C283.549 164.532 276.843 165.513 270.984 165.183C262.604 164.679 254.538 163.145 246.722 161.459C233.639 158.63 223.464 152.356 211.773 147.635C203.342 144.25 194.731 141.058 186.273 137.744C181.673 135.921 173.467 134.255 174.635 130.644L174.73 130.616Z" fill="#1D0009"/>
<path fill-rule="evenodd" clip-rule="evenodd" d="M313.199 78.3648C302.568 80.0496 292.376 79.2903 281.657 80.6565C273.132 81.7286 262.894 83.8782 254.865 82.8492C248.351 82.0214 245.783 78.1357 243.505 73.3359C241.423 68.9647 238.84 65.3336 235.886 61.5135C231.134 55.4301 220.636 51.4103 219.365 43.0307C218.909 39.9392 221.36 40.0243 224.337 39.7371C230.999 39.035 237.394 39.1306 244.114 37.895C254.824 35.9525 267.168 33.1902 276.299 36.3556C283.188 38.7333 286.511 45.3263 289.523 50.8045C291.025 53.4977 293.109 55.6773 294.458 58.4935C295.837 61.2851 297.189 65.0239 299.598 67.1873C304.904 71.9511 311.738 74.9083 313.203 78.4107L313.199 78.3648Z" fill="#1D0009"/>
<path fill-rule="evenodd" clip-rule="evenodd" d="M249.775 217.779C246.114 217.201 243.753 216.558 240.691 215.258C237.393 213.854 233.637 212.865 230.103 211.796C227.335 210.942 223.815 210.495 221.403 209.163C219.872 208.293 218.974 206.723 218.12 205.313C215.302 200.701 213.285 195.889 208.792 192.422C204.784 189.347 198.96 187.723 193.759 186.138C190.427 185.151 187.108 184.348 183.568 183.625C178.407 182.591 173.684 180.866 168.469 179.974C163.585 179.156 159.306 178.148 154.973 176.403C151.245 174.906 147.725 173.582 143.555 172.729C141.04 172.209 138.532 171.343 135.903 171.059C133.241 170.754 130.308 170.762 127.56 170.622C125.205 170.509 122.731 169.664 120.283 170.063C115.518 170.855 110.873 171.064 106.186 173.352C101.499 175.639 99.2309 178.913 95.3226 182.038C93.3531 183.613 91.8207 185.812 89.3013 186.56C85.2537 187.801 81.5427 186.095 77.7624 186.099C75.2536 186.109 72.9498 186.247 70.451 186.834C68.817 187.215 67.3332 187.866 65.6583 188.134C63.433 188.453 61.3552 188.119 59.0957 188.416C57.2225 188.648 55.5784 188.454 53.9243 188.121C52.6016 187.864 50.3873 187.006 48.8728 187.682C49.0192 188.782 50.082 189.051 51.0935 189.508C53.0857 190.447 54.7737 191.677 56.7967 192.591C60.2378 194.172 63.7851 195.425 67.0792 197.222C69.1841 198.362 71.0735 199.675 73.1477 200.84C78.6218 203.911 84.5064 206.362 88.2707 210.996C89.4185 212.415 89.8312 214.032 90.8832 215.479C92.0787 217.103 93.7602 217.803 95.749 218.696C97.9087 219.695 100.509 220.05 102.932 220.644C104.426 221.007 106.166 220.736 107.748 220.98C109.133 221.187 110.185 221.319 111.648 221.269C115.326 221.201 118.805 221.534 122.665 220.834C126.845 220.071 131.453 219.357 135.496 219.385C146.024 219.39 157.161 216.618 167.925 215.411C181.598 213.874 195.783 213.096 208.34 214.983C219.481 216.687 230.565 218.486 249.836 217.73L249.775 217.779Z" fill="black"/>
<path fill-rule="evenodd" clip-rule="evenodd" d="M122.624 125.447C131.285 126.213 140.442 125.755 149.075 126.593C152.753 126.962 156.482 127.145 160.132 127.586C163.485 127.972 166.957 128.213 169.612 129.742C172.913 131.63 175.171 134.4 178.776 135.997C182.45 137.635 185.969 139.397 189.612 141.061C193.118 142.639 197.048 144.219 200.13 146.233C201.258 146.938 202.074 147.843 203.383 148.354C204.019 148.576 204.883 148.371 204.88 149.202C199.411 148.853 194.589 147.11 189.576 145.861C182.836 144.191 173.567 142.255 165.543 146.577C160.904 149.07 159.63 153.886 155.776 156.87C153.188 158.891 149.456 158.224 146.988 157.909C139.746 156.933 133.058 154.199 126.483 152.106C113.698 148.016 100.243 144.997 87.8417 140.357C86.6695 139.931 84.9879 139.669 85.2859 138.409C85.3853 137.989 86.3188 136.95 86.5379 136.385C89.026 129.917 87.1217 123.991 85.829 118.404C84.7853 113.981 83.2663 109.743 80.4345 106.263C83.8812 110.566 89.3487 113.107 94.8026 115.464C98.876 117.221 102.864 119.144 107.026 120.782C114.008 123.524 121.646 125.011 122.661 125.514L122.624 125.447Z" fill="black"/>
<path fill-rule="evenodd" clip-rule="evenodd" d="M214.806 45.3115C217.294 46.7789 219.197 48.2754 221.315 50.0381C223.331 51.7367 225.74 53.0236 227.54 54.8944C229.904 57.3369 232.504 59.4445 234.345 62.3053C236.118 65.1234 237.863 68.0121 239.167 71.1073C240.434 74.1352 242.357 76.7844 243.716 79.7384C244.999 82.5579 246.122 85.4084 247.69 88.0983C249.066 90.4056 252.179 92.3953 252.861 95.0141C250.469 94.8338 248.306 92.4734 246.417 91.599C243.785 90.3925 241.534 89.0288 239.176 87.5549C237.57 86.5509 235.53 85.8456 234.074 84.6726C231.72 82.8063 231.612 80.4587 231.261 77.4773C230.948 75.0015 230.611 72.6423 230.106 70.2223C229.605 67.8482 228.676 66.3028 227.423 64.3354C226.207 62.4353 225.182 60.4795 223.782 58.7271C222.166 56.7086 220.147 55.4024 218.042 53.8235C214.799 51.4019 211.126 49.3248 208.13 46.7063C206.528 45.31 204.214 44.4337 203.019 42.8094C202.007 41.4759 200.165 41.6832 199.027 40.4021C200.313 40.1533 202.093 41.31 202.896 41.5929C208.087 43.4788 212.56 45.7928 214.936 45.3049L214.806 45.3115Z" fill="black"/>
<path fill-rule="evenodd" clip-rule="evenodd" d="M15.6305 80.4806C17.0711 84.0996 18.5214 88.7331 16.7692 93.2499C15.8657 95.5788 14.2238 98.06 12.254 100.073C10.4963 101.868 8.3863 103.75 7.46922 105.895C6.55213 108.04 7.15248 110.432 7.29847 112.409C7.63482 116.521 7.95069 120.796 8.73146 124.748C9.48145 128.725 9.94433 132.785 10.3764 136.869C10.5226 138.408 11.4381 139.769 10.9417 141.432C10.4121 140.882 10.3919 140.167 10.2726 139.435C10.0375 138.017 9.33389 136.875 8.94149 135.534C8.06457 132.486 8.10385 129.047 7.00472 126.08C4.92595 120.44 2.59756 114.951 0.737604 109.184C0.314423 107.867 -0.317238 106.815 0.185984 105.244C0.850085 103.204 3.33925 101.165 4.90555 99.4253C6.32137 97.8551 7.874 96.3705 9.15655 94.7607C12.9494 90.0728 15.0163 84.9635 16.8919 79.9099C17.4087 78.5231 17.8913 77.1148 17.8578 75.7785C17.7706 72.3917 15.0066 69.8308 16.0407 66.1804C17.0541 62.6925 21.5502 60.0225 25.0614 58.1399C26.911 57.1478 28.7572 56.1096 30.6102 55.1635C32.9043 54.0107 34.2724 52.2352 36.1838 50.7556C38.8304 48.6394 42.239 47.1311 45.3022 45.8015C49.726 43.9194 54.3685 41.9109 58.9081 40.7152C61.8822 39.9436 64.8732 39.4021 67.8439 38.5846C70.5274 37.8507 73.2484 37.1841 75.9489 36.68C79.0356 36.1105 82.1499 35.4704 85.2228 35.1554C88.6205 34.8241 91.7614 34.9899 95.0871 35.0083C101.151 35.0281 107.317 34.6739 113.326 34.8349C116.101 34.9038 118.681 35.4207 121.515 35.3944C123.501 35.3643 125.545 35.2392 127.479 35.3962C129.315 35.5352 130.962 35.7758 132.846 35.6816C134.274 35.6102 135.867 35.5536 137.241 35.6234C138.222 35.6666 139.155 35.9429 140.139 36.0321C140.895 36.1097 142.077 35.7969 142.6 36.2552C141.39 36.6387 139.527 36.132 138.358 36.1905C133.71 36.3536 128.934 37.0075 124.214 37.5202C117.586 38.2437 110.962 39.0132 104.344 39.8745C101.083 40.2913 97.8597 40.7753 94.6056 41.284C91.3514 41.7927 88.1654 42.7825 84.9146 43.3371C79.1547 44.3401 73.6922 45.3974 67.9011 47.3017C63.5083 48.7208 59.5494 50.2798 55.2281 52.2259C51.4127 53.9622 47.4851 55.0583 43.7005 56.77C41.5877 57.7292 38.716 59.003 36.9754 60.5895C35.0229 62.3942 32.6868 65.1869 32.0978 67.3617C31.615 69.2083 31.8401 70.4889 32.6324 71.9488C34.0325 74.5778 35.6514 77.0807 37.9781 79.0175C40.339 80.9757 42.2381 83.303 44.8418 85.0183C48.0263 87.0968 51.4742 88.7699 54.8059 90.6334C58.2366 92.5151 61.4349 94.7775 64.4723 97.071C66.0269 98.262 67.2942 99.5366 69.4112 103.929C65.7341 102.683 62.2963 101.148 58.8893 99.5877C56.6647 98.5916 54.3854 97.7366 52.2223 96.6912C49.82 95.4964 47.3904 94.3721 44.7213 93.5366C40.3846 92.1847 36.0683 90.6703 31.8513 89.174C29.4078 88.3042 27.0943 87.4278 25.687 85.5835C24.57 84.1398 23.3914 82.7454 22.2437 81.3264C21.0618 79.886 20.2902 78.2636 19.2348 76.7708C19.163 76.6821 19.1256 76.6148 19.0539 76.5262L15.5278 80.4164L15.6305 80.4806Z" fill="#68005F"/>
<path fill-rule="evenodd" clip-rule="evenodd" d="M75.797 0.911696C78.1974 5.55749 80.4329 12.2237 85.7739 15.7242C88.2043 17.3232 92.03 15.3245 94.0403 13.5958C96.1557 11.7807 95.3456 9.00401 93.2152 7.27534C91.1298 5.57909 88.0542 4.28259 85.7288 2.72679C83.4934 1.23581 81.378 -0.406426 78.0774 0.0905669L75.797 0.911696Z" fill="url(#paint1_linear_377_6887)"/>
<path fill-rule="evenodd" clip-rule="evenodd" d="M86.5992 15.2489C84.3338 13.5203 82.7585 12.2886 81.6033 10.0845C81.2432 9.39307 80.553 8.62598 81.0031 7.86969C81.6032 6.8757 84.2888 6.71364 85.609 6.6164C87.2293 6.49756 88.8796 6.99456 90.3199 7.46994C92.0302 8.02095 94.5507 9.45789 94.5357 10.9597C94.5357 11.3378 94.2207 11.3919 94.1156 11.6512C93.9806 12.0293 94.1156 12.4182 93.9056 12.7856C93.2455 14.0605 90.4699 14.7304 88.8796 14.8276L86.5992 15.2382V15.2489Z" fill="#2C0026"/>
<path fill-rule="evenodd" clip-rule="evenodd" d="M73.9438 231.15C71.4534 233.743 69.683 235.753 67.9277 238.594C66.9825 240.107 65.9773 241.587 64.9121 243.045C64.387 243.607 64.072 244.223 63.9669 244.882C64.177 245.336 65.0022 245.584 65.5273 245.844C67.9877 247.075 70.1481 247.95 73.0586 248.642C74.4689 248.89 75.8192 249.247 77.1094 249.712C77.8445 250.036 78.5797 250.371 79.3148 250.716C79.945 250.857 80.9651 250.954 81.5802 250.824C84.1907 250.241 85.931 247.162 87.2363 245.617C88.4215 244.191 90.2519 242.116 90.672 240.431C91.017 239.015 89.8467 238.259 88.9316 237.179C87.7914 235.839 86.5161 234.64 85.3309 233.322C83.6356 231.431 81.3852 231.723 78.5046 231.701L73.9588 231.15H73.9438Z" fill="url(#paint2_linear_377_6887)"/>
<path fill-rule="evenodd" clip-rule="evenodd" d="M76.5851 231.15C73.8996 232.133 72.3243 232.609 70.884 234.445C70.3739 235.093 69.3687 235.731 69.2036 236.476C68.8736 237.935 71.5141 239.858 72.6093 240.874C73.4044 241.608 74.1396 242.451 75.0247 243.132C76.0749 243.931 76.27 244.677 77.1101 245.509C78.1153 246.492 79.8256 246.578 81.1158 245.919C82.5411 245.195 84.2815 243.683 85.1217 242.613C85.9018 241.63 87.372 240.117 87.402 238.907C87.432 237.849 86.6819 236.628 86.0818 235.677C84.8515 233.711 84.0264 232.533 81.1158 231.561L76.57 231.15H76.5851Z" fill="#2C0026"/>
<path fill-rule="evenodd" clip-rule="evenodd" d="M78.4894 247.248C78.9845 248.588 79.3896 250.478 81.52 250.943C83.0803 251.289 83.7554 249.981 84.5805 249.16C85.1206 248.62 85.7958 248.123 86.3209 247.572C86.726 247.151 86.906 246.686 87.176 246.222C87.7161 245.336 88.4813 244.515 89.1114 243.661C89.8915 242.591 90.5816 241.479 90.6116 240.258C90.6267 239.631 90.5066 238.821 89.4864 239.188C88.9913 239.372 88.2113 239.966 87.7612 240.258C86.951 240.787 86.3209 241.403 85.5858 241.965C84.2655 242.98 83.2303 244.147 82.2701 245.325C81.82 245.876 81.3999 246.373 80.7398 246.805C79.5846 247.551 78.9996 248.253 78.4745 247.226L78.4894 247.248Z" fill="black"/>
<path fill-rule="evenodd" clip-rule="evenodd" d="M343.696 208.349C341.535 212.088 339.3 214.659 340.905 218.581C341.941 221.12 342.631 221.887 345.961 222.384C352.428 223.346 358.144 223.075 364.745 222.352C366.65 222.146 367.43 222.6 367.55 221.088C367.625 220.126 365.885 218.419 365.105 217.63C363.23 215.707 361.084 213.643 358.519 212.163C356.343 210.91 352.322 208.598 349.397 208.36L343.711 208.36L343.696 208.349Z" fill="url(#paint3_linear_377_6887)"/>
<path fill-rule="evenodd" clip-rule="evenodd" d="M347.687 208.35C345.392 209.571 342.601 210.586 343.276 212.942C343.831 214.876 344.957 215.988 347.102 217.263C350.913 219.511 355.189 219.651 359.824 220.321C361.91 220.623 364.745 221.693 366.696 220.634C370.461 218.603 362.45 215.437 360.755 214.638C358.189 213.439 356.104 211.948 353.943 210.392C352.608 209.43 351.078 208.588 347.687 208.339V208.35Z" fill="#2C0026"/>
<path fill-rule="evenodd" clip-rule="evenodd" d="M344.46 222.277C346.906 221.272 349.531 220.397 352.397 220.375C354.587 220.353 356.838 219.824 359.058 220.116C360.483 220.299 361.984 220.602 363.424 220.645C364.564 220.678 365.509 220.937 366.695 220.894C366.214 221.11 365.824 221.077 365.329 221.164C364.459 221.326 363.619 221.563 362.749 221.736C360.919 222.093 358.848 222.233 356.973 222.255C354.977 222.287 353.012 222.536 350.987 222.536C348.931 222.536 346.876 222.536 344.445 222.266L344.46 222.277Z" fill="black"/>
<defs>
<linearGradient id="paint0_linear_377_6887" x1="404.077" y1="-245.163" x2="27.1558" y2="-277.285" gradientUnits="userSpaceOnUse">
<stop stop-color="#110015"/>
<stop offset="0.07" stop-color="#100012"/>
<stop offset="0.44" stop-color="#100009"/>
<stop offset="1" stop-color="#100007"/>
</linearGradient>
<linearGradient id="paint1_linear_377_6887" x1="193.227" y1="251.133" x2="193.227" y2="0.0636905" gradientUnits="userSpaceOnUse">
<stop stop-color="#110015"/>
<stop offset="0.07" stop-color="#100012"/>
<stop offset="0.44" stop-color="#100009"/>
<stop offset="1" stop-color="#100007"/>
</linearGradient>
<linearGradient id="paint2_linear_377_6887" x1="192.77" y1="251.051" x2="192.77" y2="0" gradientUnits="userSpaceOnUse">
<stop stop-color="#110015"/>
<stop offset="0.07" stop-color="#100012"/>
<stop offset="0.44" stop-color="#100009"/>
<stop offset="1" stop-color="#100007"/>
</linearGradient>
<linearGradient id="paint3_linear_377_6887" x1="193.027" y1="250.914" x2="193.027" y2="0" gradientUnits="userSpaceOnUse">
<stop stop-color="#110015"/>
<stop offset="0.07" stop-color="#100012"/>
<stop offset="0.44" stop-color="#100009"/>
<stop offset="1" stop-color="#100007"/>
</linearGradient>
</defs>
</svg>
