<svg width="530" height="403" viewBox="0 0 530 403" fill="none" xmlns="http://www.w3.org/2000/svg">
<path fill-rule="evenodd" clip-rule="evenodd" d="M84.5727 89.3955C87.8579 87.523 101.073 78.6582 108.042 76.4935C113.684 74.74 120.937 75.2846 126.986 73.9662C134.291 72.3326 145.233 71.3059 152.079 68.1362C156.859 65.9582 157.609 61.7269 161.083 58.1238C165.08 53.9605 173.141 48.6832 178.244 46.1811C186.782 42.0161 193.032 38.2756 202.396 38.6616C228.318 39.7025 252.31 47.194 276.981 54.1492C356 76.3633 455.654 54.1071 518.231 116.898C523.794 122.49 532.499 124.855 529.321 134.075C525.981 143.777 516.894 148.018 515.906 159.117C514.894 170.826 522.417 181.835 518.438 193.866C515.337 203.257 506.142 213.454 500.316 221.444C496.554 226.576 490.74 232.143 486.938 237.668C485.087 240.372 484.486 244.359 482.712 247.235C479.668 252.077 475.133 255.945 471.132 259.974C459.661 271.451 446.673 281.016 432.76 289.428C419.082 297.716 404.758 304.785 389.99 310.854C374.617 317.178 358.143 320.881 343.39 328.579C335.033 332.931 324.841 339.111 316.154 339.921C298.324 341.551 281.058 335.03 264.594 328.978C250.195 323.667 234.886 321.016 220.051 317.158C200.179 311.973 177.681 308.095 157.074 306.904C143.373 306.097 129.656 308.674 115.989 308.299C103.629 307.937 96.954 305.881 86.3157 299.036C55.2022 278.971 37.6393 249.798 19.9997 217.948C11.0204 201.706 4.5971 188.172 2.40063 169.443C0.667352 154.57 -1.86691 135.63 2.13541 120.804C5.46393 108.515 15.8724 99.0364 26.9739 93.4755C38.393 87.7763 54.1179 89.3974 84.5028 89.4915L84.5727 89.3955Z" fill="url(#paint0_linear_377_6883)"/>
<path fill-rule="evenodd" clip-rule="evenodd" d="M319.652 64.5915C308.018 64.9797 296.957 64.3621 285.652 67.5193C278.615 69.4604 271.092 72.5271 264.89 76.4614C258.892 80.2935 253.291 84.9322 247.5 89.1157C241.801 93.2331 233.382 97.9494 235.7 106.113C237.029 110.847 240.189 114.394 242.366 118.698C244.806 123.495 245.987 129.246 246.905 134.504C250.203 153.667 256.316 171.206 273.815 181.522C296.967 195.177 323.903 193.253 349.953 191.514C364.463 190.551 378.321 188.875 392.373 184.963C408.103 180.613 423.262 174.444 438.485 168.684C453.964 162.83 469.516 157.334 484.961 151.368C491.74 148.747 498.955 145.767 504.815 141.488C511.642 136.555 516.538 130.103 518.135 122.162C518.994 117.761 516.831 116.818 513.495 114.764C504.987 109.523 496.283 104.333 487.351 99.854C479.03 95.708 470.287 94.1903 461.614 91.1637C458.01 89.8953 454.671 87.7074 451.186 86.217C445.463 83.7463 439.575 81.6234 433.989 78.8268C422.521 73.0821 411.208 70.1868 398.898 66.873C389.576 64.3608 378.95 64.7957 369.357 64.0283C356.469 62.9992 343.298 61.1272 330.321 62.0305C324.319 62.4496 316.349 60.7831 319.665 64.6735L319.652 64.5915Z" fill="#2C0026"/>
<path fill-rule="evenodd" clip-rule="evenodd" d="M505.706 154.552C486.812 159.594 468.588 166.656 449.986 172.808C440.443 175.967 430.918 179.342 421.521 182.896C413.664 185.885 406.714 190.132 399.758 194.885C398.874 195.523 389.467 200.862 389.151 202.867C393.415 204.023 397.15 203.738 401.629 204.1C405.393 204.433 409.093 205.45 412.882 205.627C418.001 205.846 422.857 205.253 427.951 206.401C442.185 209.555 458.677 209.347 472.677 204.334C478.772 202.116 485.351 200.825 491.081 197.778C495.605 195.375 500.715 193.46 504.341 189.747C508.229 185.754 511.836 181.371 513.948 176.201C515.092 173.416 517.775 168.973 505.675 154.574L505.706 154.552Z" fill="#2C0026"/>
<path fill-rule="evenodd" clip-rule="evenodd" d="M492.988 217.264C488.526 218.21 483.667 219.444 479.058 219.995C476.143 220.324 473.972 220.207 471.133 221.347C467.832 222.684 464.877 224.5 461.443 225.524C457.753 226.641 453.908 227.096 450.136 227.908C441.202 229.853 432.391 232.484 423.457 234.429C409.977 237.335 396.895 237.13 383.249 238.198C363.404 239.735 343.678 242.144 323.814 243.331C304.405 244.508 285.446 246.18 266.2 249.062C250.899 251.371 235.656 255.368 220.322 257.246C213.832 258.017 205.278 256.955 199.46 260.521C201.022 261.852 204.603 262.317 206.603 262.648C214.687 263.959 222.891 263.635 231.068 263.147C246.555 262.253 261.389 258.46 276.596 255.763C290.256 253.364 304.113 252.781 317.802 253.186C322.825 253.338 325.519 253.988 328.879 257.618C332.369 261.429 335.874 264.681 338.901 269.008C341.139 272.174 343.538 276.272 347.366 277.788C351.194 279.303 355.997 276.836 359.632 275.576C368.431 272.544 377.166 269.422 386.312 267.642C399.739 265.048 413.349 263.414 426.643 260.187C433.079 258.634 438.717 258.159 444.133 254.292C450.067 250.05 455.043 245.316 460.376 240.37C463.457 237.507 466.654 234.741 469.713 231.848C471.591 230.081 473.89 227.099 493.028 217.19L492.988 217.264Z" fill="#2C0026"/>
<path fill-rule="evenodd" clip-rule="evenodd" d="M271.099 194.597C265.89 187.246 260.327 182.747 254.308 176.073C246.577 167.538 237.495 160.024 228.626 152.675C221.467 146.733 213.242 141.242 204.264 138.436C194.042 135.254 183.001 134.986 172.622 132.099C159.922 128.566 146.437 125.873 133.437 123.467C118.854 120.794 102.969 120.108 88.126 120.674C74.8463 121.158 60.694 121.59 47.9944 126.027C44.1338 127.359 35.409 129.016 33.1465 132.564C29.9408 137.568 34.5358 148.824 36.1068 153.702C39.635 164.636 42.7008 174.993 48.4641 185.041C54.784 196.053 62.9262 206.25 74.0483 212.609C80.2572 216.14 86.7666 218.224 93.6152 220.2C101.383 222.422 109.736 225.133 117.862 225.731C129.521 226.599 141.417 225.931 153.087 225.015C172.692 223.468 190.595 216.41 209.565 211.861C223.211 208.607 236.96 205.688 250.64 202.546C258.067 200.824 270.289 199.966 271.099 194.597Z" fill="#1D0009"/>
<path fill-rule="evenodd" clip-rule="evenodd" d="M119.289 93.694C132.533 98.1096 146.785 98.9732 160.317 102.953C171.078 106.111 183.499 111.121 195 111.192C204.366 111.259 210.472 106.164 216.758 99.7095C222.489 93.8375 228.451 89.1202 235.021 84.2823C245.541 76.5001 262.428 72.7264 269.744 61.0176C272.431 56.708 269.071 56.3567 265.289 55.3543C256.804 53.1028 248.073 51.9866 239.804 48.9416C226.683 44.1182 211.831 37.8582 197.383 40.6437C186.473 42.7414 177.6 51.5206 169.835 58.8158C165.987 62.4154 161.731 65.1263 158.022 68.8536C154.313 72.581 149.917 77.67 145.222 80.2876C134.853 86.0933 123.666 89.0285 119.311 93.7238L119.289 93.694Z" fill="#2C0026"/>
<path fill-rule="evenodd" clip-rule="evenodd" d="M111.194 304.93C116.561 304.787 120.115 304.315 125.169 303.032C130.585 301.67 136.288 300.966 141.78 300.096C146.085 299.445 151.135 299.441 155.261 297.963C157.878 297.029 160.192 294.901 162.266 293.085C169.153 287.015 175.095 280.536 183.491 276.429C190.925 272.789 199.922 271.573 208.015 270.326C213.198 269.542 218.181 268.994 223.418 268.672C231.067 268.157 238.571 266.607 246.257 266.338C253.457 266.101 259.868 265.477 266.913 263.804C272.928 262.374 278.616 261.134 284.774 260.739C288.531 260.484 292.511 259.704 296.237 259.791C300.044 259.864 304.011 260.415 307.826 260.756C311.112 261.07 314.979 260.326 318.036 261.351C323.942 263.37 330.043 264.565 334.89 268.715C339.686 272.858 340.57 278.004 343.776 283.157C345.386 285.775 346.003 289.202 348.858 290.783C353.504 293.303 359.645 291.598 364.705 292.315C368.068 292.801 371.084 293.447 374.118 294.762C376.06 295.591 377.632 296.87 379.735 297.536C382.55 298.418 385.555 298.342 388.43 299.18C390.772 299.857 393.148 299.872 395.601 299.739C397.569 299.638 401.102 298.816 402.703 300.073C401.773 301.611 400.109 301.811 398.505 302.287C395.193 303.222 392.031 304.687 388.719 305.622C383.051 307.212 377.328 308.34 371.733 310.287C368.129 311.524 364.667 313.023 361.084 314.291C351.671 317.629 342.014 320.051 333.825 325.922C331.326 327.728 329.69 329.958 327.286 331.831C324.547 333.947 321.787 334.62 318.557 335.541C314.937 336.562 311.246 336.587 307.524 336.953C305.239 337.192 303.062 336.487 300.813 336.518C298.802 336.558 297.308 336.544 295.36 336.221C290.452 335.394 285.533 335.258 280.785 333.495C275.63 331.618 269.914 329.734 264.459 328.984C250.238 327.005 237.061 320.947 223.358 317.181C205.935 312.369 187.296 308.572 169.076 308.89C152.887 309.198 136.725 309.67 111.216 304.96L111.194 304.93Z" fill="black"/>
<path fill-rule="evenodd" clip-rule="evenodd" d="M344.916 197.066C332.695 196.511 320.659 194.092 308.443 193.672C303.263 193.496 298.024 193.045 292.857 192.952C288.086 192.892 283.224 192.578 278.615 194.222C272.92 196.288 267.991 199.803 262.045 201.457C256.017 203.125 250.044 204.935 244.037 206.633C238.256 208.258 231.89 209.715 226.336 212.042C224.379 212.863 222.638 213.985 220.505 214.433C219.505 214.654 218.465 214.176 217.939 215.375C225.566 215.923 233.266 214.323 240.855 213.532C251.058 212.447 264.861 211.402 272.817 219.092C277.424 223.552 275.887 230.676 279.099 235.643C281.248 239.01 286.738 238.779 290.263 238.783C300.736 238.778 311.61 236.114 321.846 234.367C341.823 230.957 362.055 229.186 381.883 224.927C383.769 224.521 386.184 224.462 386.629 222.637C386.766 221.991 386.221 220.336 386.311 219.496C387.276 209.78 393.846 201.663 399.359 193.945C403.776 187.792 408.66 182.031 414.838 177.614C407.25 183.096 398.23 185.695 389.234 188.004C382.553 189.733 375.881 191.73 369.206 193.273C357.946 195.85 346.611 196.524 344.916 197.066Z" fill="black"/>
<path fill-rule="evenodd" clip-rule="evenodd" d="M274.312 65.0995C269.942 66.7535 266.414 68.4822 262.359 70.6373C258.509 72.6903 254.37 74.0864 250.662 76.401C245.813 79.4483 240.867 81.9742 236.516 85.7103C232.225 89.4024 227.916 93.1985 224.076 97.3856C220.304 101.477 215.984 104.871 212.096 108.864C208.461 112.63 205.016 116.53 201.104 120.04C197.728 123.072 192.183 125.347 189.486 128.935C192.82 129.122 197.33 126.183 200.477 125.276C204.858 124.024 208.776 122.514 213.011 120.866C215.872 119.756 219.088 119.073 221.859 117.708C226.274 115.475 228.015 112.167 230.519 107.99C232.585 104.493 234.647 101.181 236.957 97.827C239.227 94.5471 241.531 92.4721 244.559 89.9206C247.464 87.4572 250.157 84.8282 253.235 82.6043C256.771 80.0502 260.367 78.5449 264.316 76.6936C270.332 73.8507 276.675 71.5907 282.484 68.3963C285.577 66.7079 289.267 65.9102 292.027 63.8246C294.27 62.1133 296.621 62.7379 299.032 61.1323C297.45 60.5448 294.284 61.8755 292.985 62.1309C284.676 63.8517 277.125 66.301 274.22 65.1656L274.312 65.0995Z" fill="black"/>
<path fill-rule="evenodd" clip-rule="evenodd" d="M519.632 153.1C515.241 158.004 510.207 164.328 509.552 171.133C509.217 174.654 509.741 178.466 511.079 181.736C512.293 184.64 513.823 187.725 513.615 190.973C513.408 194.22 511.025 197.536 509.477 200.339C506.264 206.168 502.963 212.197 499.274 217.687C495.575 223.229 492.193 228.952 488.885 234.713C487.661 236.872 485.513 238.651 485.035 241.138C486.115 240.449 486.635 239.435 487.269 238.385C488.518 236.39 490.238 234.919 491.678 233.059C494.907 228.858 497.162 223.95 500.655 219.923C507.279 212.268 514.106 204.83 520.444 196.971C521.927 195.171 523.444 193.802 523.813 191.485C524.275 188.463 522.269 185.039 521.35 182.287C520.491 179.81 519.437 177.383 518.751 174.826C516.786 167.409 517.458 159.727 518.298 152.151C518.549 150.057 518.821 147.992 519.762 146.082C522.133 141.272 527.642 138.112 528.67 132.723C529.662 127.543 525.381 122.892 521.872 119.505C520.037 117.733 518.264 115.917 516.39 114.219C514.101 112.138 513.399 109.365 511.824 106.859C509.64 103.381 506.095 100.522 502.852 98.0819C498.145 94.5129 493.248 90.8081 487.917 88.237C484.437 86.5608 480.769 85.2027 477.267 83.4965C474.111 81.9498 470.917 80.4769 467.604 79.2262C463.841 77.8001 460.034 76.3142 456.117 75.3179C451.74 74.1983 447.365 73.8522 442.929 73.2302C434.736 72.0894 426.601 70.451 418.424 69.526C414.596 69.1031 410.787 69.3497 406.955 68.7929C404.299 68.3886 401.627 67.7684 398.896 67.6459C396.3 67.5172 393.977 67.5103 391.413 67.0399C389.526 66.6726 387.43 66.2735 385.507 66.114C384.135 66.0118 382.689 66.1913 381.308 66.1411C380.249 66.0864 378.862 65.4489 377.84 65.9597C379.209 66.7014 382.093 66.394 383.625 66.6539C389.817 67.7832 395.811 69.6019 401.84 71.213C410.316 73.5165 418.73 75.864 427.118 78.3674C431.187 79.5733 435.289 80.891 439.34 82.2008C443.39 83.5106 447.026 85.5303 451.028 86.966C458.152 89.5169 464.747 92.0406 471.337 95.8431C476.293 98.7304 480.65 101.686 485.14 105.275C489.109 108.466 493.686 110.762 497.625 113.974C499.802 115.772 502.876 118.106 504.113 120.72C505.504 123.678 506.812 128.063 506.149 131.321C505.574 134.059 504.36 135.847 502.321 137.775C498.656 141.243 494.832 144.553 490.325 146.852C485.809 149.204 481.695 152.176 477.033 154.132C471.366 156.495 465.537 158.247 459.768 160.275C453.916 162.316 447.997 164.907 442.403 167.628C439.519 169.028 436.92 170.632 431.085 176.488C436.85 175.42 442.54 173.86 448.229 172.3C451.872 171.309 455.531 170.533 459.169 169.407C463.199 168.181 467.272 167.015 471.421 166.341C478.181 165.237 484.986 163.874 491.729 162.555C495.596 161.811 499.295 160.961 502.504 158.597C504.981 156.761 507.502 154.986 510.001 153.18C512.561 151.331 514.688 149.202 517.109 147.225C517.262 147.115 517.383 147.027 517.536 146.917L519.653 153.13L519.632 153.1Z" fill="#68005F"/>
<path fill-rule="evenodd" clip-rule="evenodd" d="M227.33 1.04993C229.283 6.40009 231.102 14.077 235.446 18.1082C237.424 19.9497 240.536 17.6479 242.171 15.6571C243.892 13.5668 243.233 10.3692 241.5 8.37839C239.803 6.42496 237.302 4.9319 235.41 3.14021C233.591 1.42318 231.871 -0.468041 229.186 0.104303L227.33 1.04993Z" fill="url(#paint1_linear_377_6883)"/>
<path fill-rule="evenodd" clip-rule="evenodd" d="M236.118 17.5609C234.275 15.5701 232.994 14.1517 232.054 11.6135C231.761 10.8172 231.2 9.93382 231.566 9.06286C232.054 7.91817 234.239 7.73154 235.313 7.61956C236.631 7.48269 237.973 8.05505 239.145 8.6025C240.536 9.23706 242.587 10.8919 242.574 12.6213C242.574 13.0568 242.318 13.119 242.233 13.4176C242.123 13.8531 242.233 14.301 242.062 14.7241C241.525 16.1923 239.267 16.9637 237.973 17.0757L236.118 17.5485V17.5609Z" fill="#2C0026"/>
<path fill-rule="evenodd" clip-rule="evenodd" d="M285.303 380.14C283.277 383.127 281.837 385.441 280.409 388.713C279.64 390.455 278.822 392.16 277.956 393.839C277.528 394.486 277.272 395.195 277.187 395.954C277.357 396.477 278.029 396.763 278.456 397.062C280.457 398.48 282.215 399.488 284.583 400.284C285.73 400.571 286.828 400.981 287.878 401.516C288.476 401.889 289.074 402.275 289.672 402.673C290.185 402.835 291.014 402.947 291.515 402.798C293.638 402.126 295.054 398.58 296.116 396.801C297.08 395.158 298.569 392.769 298.911 390.828C299.192 389.198 298.24 388.327 297.495 387.083C296.568 385.54 295.53 384.159 294.566 382.641C293.187 380.464 291.356 380.8 289.013 380.775L285.315 380.14H285.303Z" fill="url(#paint2_linear_377_6883)"/>
<path fill-rule="evenodd" clip-rule="evenodd" d="M287.451 380.14C285.266 381.273 283.985 381.82 282.813 383.935C282.398 384.682 281.58 385.416 281.446 386.274C281.177 387.954 283.326 390.169 284.216 391.338C284.863 392.185 285.461 393.155 286.181 393.939C287.036 394.86 287.194 395.718 287.878 396.676C288.696 397.808 290.087 397.908 291.136 397.149C292.296 396.315 293.712 394.573 294.395 393.342C295.03 392.209 296.226 390.467 296.25 389.074C296.275 387.855 295.664 386.449 295.176 385.354C294.175 383.089 293.504 381.733 291.136 380.613L287.439 380.14H287.451Z" fill="#2C0026"/>
<path fill-rule="evenodd" clip-rule="evenodd" d="M289.001 398.679C289.404 400.222 289.733 402.399 291.466 402.934C292.736 403.333 293.285 401.827 293.956 400.881C294.395 400.259 294.945 399.687 295.372 399.052C295.701 398.567 295.848 398.032 296.067 397.497C296.507 396.477 297.129 395.531 297.642 394.548C298.276 393.317 298.838 392.035 298.862 390.629C298.874 389.907 298.777 388.974 297.947 389.397C297.544 389.609 296.91 390.293 296.543 390.629C295.884 391.239 295.372 391.948 294.774 392.595C293.7 393.764 292.858 395.108 292.076 396.464C291.71 397.099 291.369 397.671 290.832 398.169C289.892 399.028 289.416 399.836 288.989 398.654L289.001 398.679Z" fill="black"/>
<path fill-rule="evenodd" clip-rule="evenodd" d="M410.473 351.846C408.715 356.151 406.897 359.113 408.203 363.629C409.045 366.553 409.606 367.436 412.316 368.009C417.576 369.116 422.226 368.805 427.596 367.971C429.146 367.735 429.78 368.258 429.878 366.516C429.939 365.408 428.523 363.443 427.889 362.534C426.363 360.319 424.618 357.943 422.531 356.238C420.761 354.795 417.49 352.132 415.11 351.859H410.485L410.473 351.846Z" fill="url(#paint3_linear_377_6883)"/>
<path fill-rule="evenodd" clip-rule="evenodd" d="M413.719 351.847C411.852 353.253 409.582 354.422 410.131 357.135C410.583 359.362 411.498 360.644 413.243 362.112C416.343 364.7 419.822 364.861 423.593 365.633C425.289 365.981 427.596 367.213 429.182 365.994C432.246 363.655 425.729 360.009 424.349 359.088C422.262 357.707 420.566 355.99 418.809 354.198C417.722 353.091 416.477 352.121 413.719 351.834V351.847Z" fill="#2C0026"/>
<path fill-rule="evenodd" clip-rule="evenodd" d="M411.095 367.885C413.084 366.728 415.22 365.72 417.551 365.695C419.333 365.67 421.164 365.061 422.97 365.397C424.129 365.608 425.35 365.956 426.522 366.006C427.449 366.044 428.218 366.342 429.182 366.292C428.792 366.541 428.474 366.504 428.072 366.604C427.364 366.79 426.68 367.064 425.972 367.263C424.483 367.673 422.799 367.835 421.274 367.86C419.65 367.898 418.052 368.184 416.404 368.184C414.732 368.184 413.06 368.184 411.083 367.873L411.095 367.885Z" fill="black"/>
<defs>
<linearGradient id="paint0_linear_377_6883" x1="264.97" y1="402.934" x2="264.97" y2="-0.00151306" gradientUnits="userSpaceOnUse">
<stop stop-color="#110015"/>
<stop offset="0.07" stop-color="#100012"/>
<stop offset="0.44" stop-color="#100009"/>
<stop offset="1" stop-color="#100007"/>
</linearGradient>
<linearGradient id="paint1_linear_377_6883" x1="265.312" y1="403.213" x2="265.312" y2="0.10226" gradientUnits="userSpaceOnUse">
<stop stop-color="#110015"/>
<stop offset="0.07" stop-color="#100012"/>
<stop offset="0.44" stop-color="#100009"/>
<stop offset="1" stop-color="#100007"/>
</linearGradient>
<linearGradient id="paint2_linear_377_6883" x1="264.685" y1="403.082" x2="264.685" y2="0" gradientUnits="userSpaceOnUse">
<stop stop-color="#110015"/>
<stop offset="0.07" stop-color="#100012"/>
<stop offset="0.44" stop-color="#100009"/>
<stop offset="1" stop-color="#100007"/>
</linearGradient>
<linearGradient id="paint3_linear_377_6883" x1="265.038" y1="402.862" x2="265.038" y2="0" gradientUnits="userSpaceOnUse">
<stop stop-color="#110015"/>
<stop offset="0.07" stop-color="#100012"/>
<stop offset="0.44" stop-color="#100009"/>
<stop offset="1" stop-color="#100007"/>
</linearGradient>
</defs>
</svg>
