<svg width="81" height="91" viewBox="0 0 81 91" fill="none" xmlns="http://www.w3.org/2000/svg">
<g style="mix-blend-mode:multiply">
<path d="M40.5 90.5132C62.8675 90.5132 81 87.8269 81 84.5132C81 81.1995 62.8675 78.5132 40.5 78.5132C18.1325 78.5132 0 81.1995 0 84.5132C0 87.8269 18.1325 90.5132 40.5 90.5132Z" fill="#6B54A1"/>
</g>
<path d="M59.0214 41.5481C59.0214 62.3295 53.7001 79.7944 39.1348 82.2894C37.9185 82.5023 30.7118 82.2894 29.4651 82.2894C13.1666 82.2285 0 63.9725 0 41.4568C0 18.9411 13.2578 0.71556 29.5563 0.745986C30.5902 0.745986 39.5301 0.62428 40.5335 0.745986C55.4029 2.84542 59.0518 20.432 59.0214 41.5177V41.5481Z" fill="url(#paint0_radial_521_10458)"/>
<path d="M70 41.5478C70 64.0635 56.7422 82.289 40.4437 82.2586C24.1451 82.2282 10.9482 63.9722 10.9786 41.4869C11.009 18.9712 24.2363 0.715217 40.5349 0.745643C56.8335 0.77607 70.0304 19.0321 70 41.5478Z" fill="url(#paint1_linear_521_10458)"/>
<path style="mix-blend-mode:screen" d="M15.084 20.5233L57.8981 74.4089L64.1013 65.9503L30.6528 3.08887C30.6528 3.08887 22.017 6.64878 15.084 20.5233Z" fill="url(#paint2_linear_521_10458)"/>
<path d="M61.3012 41.5487C61.3012 57.4314 51.966 70.3019 40.4415 70.2715C40.0158 70.2715 39.5901 70.2715 39.1948 70.2106C28.2784 69.3283 19.6426 56.7925 19.6426 41.4879C19.6426 26.2137 28.3088 13.7692 39.1644 12.826C39.6205 12.7956 40.0462 12.7651 40.5023 12.7651C51.9964 12.7651 61.3012 25.666 61.2708 41.5487H61.3012Z" fill="url(#paint3_radial_521_10458)"/>
<path d="M58.6253 41.5484C58.6253 56.7617 50.0199 69.2367 39.1948 70.2103C28.2784 69.3279 19.6426 56.7922 19.6426 41.4876C19.6426 26.2134 28.3088 13.7689 39.1644 12.8257C50.0199 13.7993 58.6253 26.2743 58.5949 41.5484H58.6253Z" fill="url(#paint4_linear_521_10458)"/>
<path d="M56.4608 35.6035C54.7193 33.8864 52.289 31.246 50.3334 29.3919L50.2196 29.3072C50.0286 29.1434 49.8181 29.0198 49.5968 28.9415C45.1853 28.2755 24.6532 25.1653 24.2648 25.2566C24.1562 25.2848 24.0549 25.3433 23.9683 25.4278L23.8753 25.5357C23.7637 25.7039 23.6845 25.9026 23.6437 26.1171L23.6241 26.2058L23.6677 26.7518C26.5694 34.4878 37.6012 59.7076 39.8518 65.6527C39.991 66.0571 40.2557 66.8267 40.6362 66.8365L40.7212 66.8297C40.9231 66.8135 41.6701 65.3198 41.6701 65.3198C41.6701 65.3198 55.1894 40.7043 56.5472 38.0895C56.7242 37.7666 56.8758 37.4224 56.9998 37.0615C57.0168 36.7855 56.9761 36.5062 56.8816 36.2507C56.7872 35.9952 56.6422 35.7722 56.4608 35.6035ZM43.5697 39.3746L49.5919 32.0245L53.7998 36.1646L43.5697 39.3746ZM40.9835 39.1324L28.7479 28.4232L47.3808 31.1893L40.9835 39.1324ZM42.2469 42.0939L53.6333 38.8317L41.9988 59.8654L42.2469 42.0939ZM27.3048 29.7046L40.2133 41.4053L39.9701 60.041L27.3048 29.7046Z" fill="white"/>
<path d="M66.1362 39.2338C67.687 39.2947 68.9033 40.7856 68.8425 42.6112C68.7816 44.4368 67.4741 45.8668 65.9233 45.806C64.3725 45.7451 63.1562 44.2542 63.217 42.4286C63.2778 40.603 64.5854 39.173 66.1362 39.2338Z" fill="url(#paint5_radial_521_10458)"/>
<path d="M65.709 39.6905C67.0469 39.7209 68.0503 41.0293 68.0199 42.581C67.9895 44.1328 66.8644 45.3499 65.5265 45.3194C64.1886 45.289 63.1851 43.9807 63.2155 42.4289C63.2763 40.8771 64.371 39.6601 65.709 39.6905Z" fill="url(#paint6_linear_521_10458)"/>
<path d="M42.0795 4.85246C43.6303 4.91331 44.8466 6.40422 44.7858 8.22981C44.725 10.0554 43.4175 11.4855 41.8667 11.4246C40.3159 11.3638 39.0996 9.87285 39.1604 8.04725C39.2212 6.22166 40.5287 4.7916 42.0795 4.85246Z" fill="url(#paint7_radial_521_10458)"/>
<path d="M41.6836 5.30671C43.0215 5.33714 44.025 6.64548 43.9946 8.19724C43.9641 9.749 42.8391 10.9661 41.5011 10.9356C40.1632 10.9052 39.1597 9.59687 39.1901 8.04511C39.2509 6.49335 40.3456 5.27628 41.6836 5.30671Z" fill="url(#paint8_linear_521_10458)"/>
<path d="M42.0229 72.8578C43.5737 72.9187 44.79 74.4096 44.7292 76.2352C44.6684 78.0608 43.3608 79.4908 41.81 79.43C40.2592 79.3691 39.0429 77.8782 39.1037 76.0526C39.1646 74.227 40.4721 72.797 42.0229 72.8578Z" fill="url(#paint9_radial_521_10458)"/>
<path d="M41.5957 73.3443C42.9336 73.3747 43.9371 74.6831 43.9067 76.2348C43.8458 77.7866 42.7512 79.0037 41.4132 78.9732C40.0753 78.9428 39.0718 77.6345 39.1022 76.0827C39.1326 74.531 40.2577 73.3139 41.5957 73.3443Z" fill="url(#paint10_linear_521_10458)"/>
<path d="M15.5678 39.1747C17.1186 39.2356 18.3349 40.7265 18.2741 42.5521C18.2133 44.3777 16.9058 45.8077 15.355 45.7469C13.8042 45.686 12.5879 44.1951 12.6487 42.3695C12.7095 40.5439 14.017 39.1139 15.5678 39.1747Z" fill="url(#paint11_radial_521_10458)"/>
<path d="M15.1406 39.6304C16.4785 39.6609 17.482 40.9692 17.4516 42.521C17.3908 44.0727 16.2961 45.2898 14.9581 45.2594C13.6202 45.2289 12.6167 43.9206 12.6472 42.3688C12.6776 40.8171 13.8027 39.6 15.1406 39.6304Z" fill="url(#paint12_linear_521_10458)"/>
<path style="mix-blend-mode:screen" d="M4.25781 20.5233H15.083C15.083 20.5233 17.9717 11.3345 29.5875 3.08887L18.8231 3.51484C18.8231 3.51484 7.3594 10.7868 4.25781 20.5233Z" fill="url(#paint13_linear_521_10458)"/>
<path d="M16.9073 17.0549C16.4815 17.9677 24.3572 13.6775 26.0296 10.4827C27.702 7.28794 28.7663 5.09722 27.9757 4.64082C27.1851 4.18442 19.4919 11.3651 16.9073 17.0549Z" fill="white"/>
<path d="M57.1074 73.9523C54.249 74.713 61.182 67.5323 61.9118 67.8366C62.6416 68.1408 59.692 73.2525 57.1074 73.9523Z" fill="white"/>
<defs>
<radialGradient id="paint0_radial_521_10458" cx="0" cy="0" r="1" gradientUnits="userSpaceOnUse" gradientTransform="translate(29.4736 41.5131) rotate(0.0700435) scale(35.6075 35.6296)">
<stop stop-color="#FF0000"/>
<stop offset="1" stop-color="#880E0E"/>
</radialGradient>
<linearGradient id="paint1_linear_521_10458" x1="40.4024" y1="82.2674" x2="40.5021" y2="0.724132" gradientUnits="userSpaceOnUse">
<stop stop-color="#FF0000"/>
<stop offset="1" stop-color="#FF0000"/>
</linearGradient>
<linearGradient id="paint2_linear_521_10458" x1="15.0047" y1="38.6962" x2="64.0827" y2="38.7561" gradientUnits="userSpaceOnUse">
<stop stop-color="#FF4040"/>
<stop offset="0.1" stop-color="#EE3B3B"/>
<stop offset="0.29" stop-color="#C43131"/>
<stop offset="0.55" stop-color="#802020"/>
<stop offset="0.88" stop-color="#240909"/>
<stop offset="1"/>
</linearGradient>
<radialGradient id="paint3_radial_521_10458" cx="0" cy="0" r="1" gradientUnits="userSpaceOnUse" gradientTransform="translate(40.45 41.4968) rotate(0.0700435) scale(25.0864 25.102)">
<stop stop-color="#7A0101"/>
<stop offset="1" stop-color="#A51717"/>
</radialGradient>
<linearGradient id="paint4_linear_521_10458" x1="39.077" y1="70.1871" x2="39.1472" y2="12.8025" gradientUnits="userSpaceOnUse">
<stop stop-color="#FF0000"/>
<stop offset="1" stop-color="#FF0000"/>
</linearGradient>
<radialGradient id="paint5_radial_521_10458" cx="0" cy="0" r="1" gradientUnits="userSpaceOnUse" gradientTransform="translate(72.2038 42.702) rotate(-88.0712) scale(3.28607 2.79143)">
<stop stop-color="#FF0000"/>
<stop offset="1" stop-color="#911717"/>
</radialGradient>
<linearGradient id="paint6_linear_521_10458" x1="71.6784" y1="45.4879" x2="71.6166" y2="39.8873" gradientUnits="userSpaceOnUse">
<stop stop-color="#00FFF4"/>
<stop offset="1" stop-color="#30A7FB"/>
</linearGradient>
<radialGradient id="paint7_radial_521_10458" cx="0" cy="0" r="1" gradientUnits="userSpaceOnUse" gradientTransform="translate(48.1472 8.32066) rotate(-88.0712) scale(3.28607 2.79143)">
<stop stop-color="#FF0000"/>
<stop offset="1" stop-color="#911717"/>
</radialGradient>
<linearGradient id="paint8_linear_521_10458" x1="47.7736" y1="11.1007" x2="47.7127" y2="5.4696" gradientUnits="userSpaceOnUse">
<stop stop-color="#00FFF4"/>
<stop offset="1" stop-color="#30A7FB"/>
</linearGradient>
<radialGradient id="paint9_radial_521_10458" cx="0" cy="0" r="1" gradientUnits="userSpaceOnUse" gradientTransform="translate(48.0906 76.326) rotate(-88.0712) scale(3.28607 2.79143)">
<stop stop-color="#FF0000"/>
<stop offset="1" stop-color="#911717"/>
</radialGradient>
<linearGradient id="paint10_linear_521_10458" x1="47.6848" y1="79.1129" x2="47.623" y2="73.5122" gradientUnits="userSpaceOnUse">
<stop stop-color="#00FFF4"/>
<stop offset="1" stop-color="#30A7FB"/>
</linearGradient>
<radialGradient id="paint11_radial_521_10458" cx="0" cy="0" r="1" gradientUnits="userSpaceOnUse" gradientTransform="translate(21.6355 42.6429) rotate(-88.0712) scale(3.28607 2.79143)">
<stop stop-color="#FF0000"/>
<stop offset="1" stop-color="#911717"/>
</radialGradient>
<linearGradient id="paint12_linear_521_10458" x1="21.3798" y1="45.4367" x2="21.3179" y2="39.836" gradientUnits="userSpaceOnUse">
<stop stop-color="#00FFF4"/>
<stop offset="1" stop-color="#30A7FB"/>
</linearGradient>
<linearGradient id="paint13_linear_521_10458" x1="4.21682" y1="11.7932" x2="29.5777" y2="11.8587" gradientUnits="userSpaceOnUse">
<stop stop-color="#FF4040"/>
<stop offset="0.1" stop-color="#EE3B3B"/>
<stop offset="0.29" stop-color="#C43131"/>
<stop offset="0.55" stop-color="#802020"/>
<stop offset="0.88" stop-color="#240909"/>
<stop offset="1"/>
</linearGradient>
</defs>
</svg>
