<svg width="80" height="69" viewBox="0 0 80 69" fill="none" xmlns="http://www.w3.org/2000/svg">
<path d="M1.32168 55.3638C4.03972 65.9813 71.9369 73.9713 77.5614 62.9516C82.6745 52.9239 78.8262 11.9822 74.4396 4.82339C68.4923 -4.93614 9.74492 1.9009 4.9278 9.59591C0.433612 16.7547 -1.504 44.3709 1.32168 55.3638Z" fill="url(#paint0_radial_621_35999)"/>
<path d="M1.53684 53.487C4.25488 63.7292 71.7484 69.4669 77.3459 58.8226C82.4321 49.1435 78.6646 12.1431 74.3049 5.22564C68.3845 -4.15852 9.85242 2.4372 5.06221 9.83728C0.56803 16.7547 -1.26194 42.8695 1.53684 53.487Z" fill="url(#paint1_linear_621_35999)"/>
<path d="M2.37107 52.6024C5.03529 62.5496 71.1025 68.2605 76.5924 57.9379C81.571 48.5538 77.8303 12.4918 73.5783 5.78879C67.7655 -3.35406 10.4983 3.05398 5.7888 10.2396C1.40226 16.9425 -0.400793 42.2798 2.37107 52.6024Z" fill="url(#paint2_linear_621_35999)"/>
<path d="M29.8409 44.0928C29.376 44.0245 28.9899 43.9686 28.605 43.9114C27.5765 43.761 26.5856 43.4976 25.6508 43.0279C24.3912 42.3953 23.2877 41.5726 22.3417 40.5263C21.4907 39.5843 20.8971 38.497 20.406 37.3437C20.2711 37.0269 20.3823 36.8827 20.7359 36.9249C21.9743 37.0741 23.4902 37.1574 24.6573 36.6665C24.0613 36.4602 23.5452 36.3086 23.0503 36.1035C21.3045 35.3803 19.8649 34.2631 18.7077 32.7694C17.6468 31.4012 17.0357 29.8478 16.7133 28.1714C16.6433 27.8061 16.6271 27.4345 16.6208 27.0642C16.6158 26.7933 16.6108 26.3857 17.0069 26.5982C17.9067 27.0791 18.8764 27.3475 19.8699 27.5401C20.1536 27.5948 20.4485 27.6011 20.7384 27.616C20.8072 27.6197 20.8796 27.5712 20.9509 27.5476C20.9059 27.4855 20.8684 27.4159 20.8147 27.3637C20.2511 26.8119 19.6487 26.295 19.1264 25.7084C18.1679 24.6323 17.5318 23.3808 17.1094 21.9965C16.7158 20.7078 16.6183 19.4055 16.7345 18.087C16.8507 16.7672 17.1969 15.496 17.8517 14.3241C18.0742 13.9265 18.1129 13.9165 18.3903 14.252C19.58 15.6911 20.9321 16.9711 22.3767 18.1454C23.284 18.8823 24.2625 19.5434 25.2622 20.1523C26.3969 20.8433 27.564 21.4932 28.765 22.0611C29.8159 22.5582 30.9194 22.9608 32.0266 23.3224C33.0613 23.6604 34.1185 23.9574 35.1882 24.1513C36.4916 24.3886 37.8175 24.4993 39.1334 24.6646C39.3995 24.6981 39.4708 24.595 39.4445 24.3253C39.3708 23.5772 39.2871 22.8266 39.2858 22.076C39.2846 20.7588 39.6007 19.5036 40.1143 18.2845C40.8242 16.5995 41.9251 15.2226 43.3572 14.1116C44.4706 13.248 45.7366 12.6763 47.1099 12.3122C48.3371 11.9866 49.5805 11.9443 50.8202 12.0549C52.376 12.1929 53.8406 12.6825 55.1527 13.5437C55.7213 13.9177 56.2936 14.3154 56.766 14.7976C57.1796 15.2201 57.5783 15.2126 58.0757 15.0896C59.5977 14.713 61.0548 14.1651 62.4757 13.5139C62.6856 13.4182 62.8818 13.2977 63.0818 13.1821C63.1942 13.1175 63.308 13.0478 63.4317 13.0056C63.4929 12.9845 63.5566 12.9696 63.6216 12.9634C63.6954 12.9571 63.7029 12.9596 63.7029 13.0317C63.7029 13.1112 63.7066 13.1945 63.6779 13.2691C63.3654 14.0805 62.9568 14.856 62.4532 15.5668C61.9508 16.2752 61.356 16.9151 60.6899 17.4743C60.56 17.5824 60.4288 17.6881 60.2938 17.7912C60.0926 17.9441 59.9239 18.1193 59.7514 18.2995C59.7789 18.2709 59.8764 18.2995 59.9089 18.3057C59.9901 18.3181 60.0714 18.3243 60.1538 18.3243C60.3875 18.3219 60.6062 18.2523 60.8312 18.1976C61.0973 18.1317 61.3623 18.0659 61.6284 17.9987C62.1595 17.8645 62.6894 17.7266 63.218 17.5824C63.2767 17.5663 63.3342 17.5514 63.3929 17.5352C63.6754 17.4582 63.9503 17.3575 64.2265 17.2581C64.4602 17.1736 64.7451 17.0207 65 17.0978C64.9938 17.3016 64.7951 17.5278 64.6813 17.6856C64.5364 17.8881 64.3852 18.087 64.2302 18.2808C63.9203 18.6698 63.5929 19.0426 63.2505 19.4042C62.8356 19.8417 62.402 20.2592 61.9558 20.6644C61.466 21.108 60.9386 21.5094 60.4225 21.9232C60.2026 22.0996 60.0801 22.2885 60.0864 22.5967C60.1063 23.443 60.1276 24.293 60.0639 25.1356C59.9814 26.2179 59.8652 27.3028 59.6752 28.3715C59.4678 29.5384 59.2191 30.7053 58.8792 31.8399C58.533 32.9931 58.1006 34.1264 57.6183 35.2324C57.1222 36.372 56.5886 37.5078 55.9475 38.5703C55.1852 39.8341 54.3229 41.0445 53.4419 42.2325C52.4859 43.5212 51.3463 44.6533 50.1566 45.7319C48.6295 47.1163 46.9625 48.3142 45.1617 49.3183C43.6759 50.1472 42.1288 50.858 40.4992 51.3626C39.3033 51.7329 38.1074 52.1368 36.8802 52.3679C34.081 52.896 31.2505 53.172 28.3976 52.8837C27.0892 52.7519 25.782 52.5879 24.4849 52.3791C23.8138 52.271 23.1615 52.0448 22.5067 51.8497C21.7094 51.6124 20.9009 51.3949 20.1286 51.0892C19.0664 50.6691 18.0242 50.1957 16.992 49.7073C16.3871 49.4215 15.8135 49.0661 15.2324 48.733C15.14 48.6796 15.0762 48.5777 15 48.4969C15.105 48.4721 15.2087 48.4248 15.3137 48.4248C16.3859 48.4224 17.4656 48.4994 18.5303 48.4112C19.66 48.3167 20.7847 48.1067 21.8956 47.8694C22.7891 47.678 23.6689 47.4046 24.5311 47.1051C25.1947 46.874 25.8483 46.5894 26.4618 46.2476C27.4416 45.7021 28.3876 45.0932 29.3423 44.5017C29.5035 44.4023 29.6385 44.2606 29.8384 44.0941L29.8409 44.0928Z" fill="#0029FE"/>
<path style="mix-blend-mode:screen" d="M75.2737 58.0987C75.2737 58.0987 43.5184 62.9517 5.73496 54.2378C5.73496 54.2378 30.278 58.206 41.1771 54.2378C59.719 47.4812 70.4028 50.5109 75.2737 58.0987Z" fill="url(#paint3_linear_621_35999)"/>
<path style="mix-blend-mode:screen" d="M23.3888 18.873C24.4383 18.8194 25.3533 19.6237 25.4071 20.6694C25.4609 21.7151 24.6536 22.6267 23.604 22.6803C22.5545 22.7339 21.6395 21.9296 21.5857 20.8839C21.5319 19.8382 22.3392 18.9266 23.3888 18.873Z" fill="url(#paint4_radial_621_35999)"/>
<path d="M23.6309 20.2405C23.9269 20.2405 24.1691 20.455 24.196 20.7499C24.223 21.0448 23.9808 21.2861 23.7116 21.313C23.4425 21.3398 23.1734 21.0985 23.1465 20.8035C23.1465 20.5086 23.3618 20.2673 23.6578 20.2405H23.6309Z" fill="#FFFFAB"/>
<path style="mix-blend-mode:screen" d="M25.9993 10.6685C27.0488 10.6149 27.9638 11.4193 28.0176 12.4649C28.0715 13.5106 27.2641 14.4222 26.2146 14.4758C25.1651 14.5295 24.2501 13.7251 24.1962 12.6794C24.1424 11.6338 24.9498 10.7222 25.9993 10.6685Z" fill="url(#paint5_radial_621_35999)"/>
<path d="M26.2146 12.036C26.5106 12.036 26.7528 12.2505 26.7797 12.5186C26.7797 12.8136 26.5644 13.0549 26.2953 13.0817C26.0262 13.1085 25.7571 12.8672 25.7302 12.5991C25.7302 12.3041 25.9455 12.0628 26.2415 12.036H26.2146Z" fill="#FFFFAB"/>
<path style="mix-blend-mode:screen" d="M24.4652 34.1826C25.5148 34.129 26.4297 34.9333 26.4836 35.979C26.5374 37.0246 25.73 37.9363 24.6805 37.9899C23.631 38.0435 22.716 37.2391 22.6622 36.1935C22.6083 35.1478 23.4157 34.2362 24.4652 34.1826Z" fill="url(#paint6_radial_621_35999)"/>
<path d="M24.6806 35.55C24.9767 35.55 25.2189 35.7645 25.2458 36.0595C25.2727 36.3544 25.0305 36.5957 24.7344 36.6225C24.4384 36.6225 24.1962 36.408 24.1693 36.1131C24.1693 35.8182 24.3846 35.5769 24.6537 35.55H24.6806Z" fill="#FFFFAB"/>
<path style="mix-blend-mode:screen" d="M15.4501 6.4859C18.4103 6.29822 20.94 8.55042 21.1284 11.4997C21.3167 14.449 19.0562 16.9694 16.0959 17.157C13.1357 17.3447 10.606 15.0925 10.4177 12.1432C10.2293 9.19391 12.4898 6.67359 15.4501 6.4859Z" fill="url(#paint7_radial_621_35999)"/>
<path d="M16.096 10.32C16.9033 10.2664 17.6299 10.8831 17.6568 11.7142C17.7107 12.5186 17.0917 13.2425 16.2575 13.2693C15.4501 13.323 14.7235 12.7063 14.6966 11.8751C14.6428 11.0708 15.2617 10.3468 16.096 10.32Z" fill="#FFFFAB"/>
<path style="mix-blend-mode:screen" d="M30.7356 47.2668C32.135 47.1864 33.373 48.2589 33.4537 49.6531C33.5344 51.0473 32.458 52.2806 31.0586 52.3611C29.6592 52.4415 28.4213 51.369 28.3405 49.9748C28.2598 48.5806 29.3363 47.3473 30.7356 47.2668Z" fill="url(#paint8_radial_621_35999)"/>
<path d="M31.0586 49.0901C31.4623 49.0901 31.7852 49.3582 31.8121 49.7604C31.839 50.1626 31.543 50.4843 31.1394 50.5111C30.7357 50.5111 30.4128 50.243 30.3858 49.8408C30.3858 49.4386 30.655 49.1169 31.0586 49.0901Z" fill="#FFFFAB"/>
<path style="mix-blend-mode:screen" d="M7.99557 53.9966C8.69526 53.943 9.31422 54.4792 9.34113 55.2032C9.36804 55.9271 8.85673 56.5169 8.13012 56.5437C7.40352 56.5706 6.81147 56.0611 6.78456 55.3372C6.75765 54.6133 7.26896 54.0234 7.99557 53.9966Z" fill="url(#paint9_radial_621_35999)"/>
<path d="M8.15712 54.9082C8.34549 54.9082 8.50696 55.0423 8.53387 55.2299C8.53387 55.4176 8.39932 55.6053 8.21094 55.6053C8.02256 55.6053 7.83418 55.4713 7.83418 55.2836C7.83418 55.0959 7.96874 54.9082 8.15712 54.9082Z" fill="#FFFFAB"/>
<path style="mix-blend-mode:screen" d="M43.9759 32.0912C44.6756 32.0376 45.2945 32.5738 45.3215 33.2978C45.3753 33.9949 44.8371 34.6115 44.1105 34.6383C43.3838 34.6652 42.7918 34.1557 42.7649 33.4318C42.7111 32.7347 43.2493 32.118 43.9759 32.0912Z" fill="url(#paint10_radial_621_35999)"/>
<path d="M44.1375 33.0028C44.3258 33.0028 44.4873 33.1369 44.5142 33.3245C44.5142 33.5122 44.3797 33.6731 44.1913 33.6999C44.0029 33.6999 43.8414 33.5659 43.8145 33.3782C43.8145 33.1905 43.9491 33.0028 44.1375 33.0028Z" fill="#FFFFAB"/>
<path style="mix-blend-mode:screen" d="M26.2146 52.1198C26.7528 52.093 27.1834 52.4952 27.2372 53.0046C27.2641 53.5408 26.8604 53.9698 26.3491 54.0234C25.8109 54.0503 25.3803 53.6481 25.3265 53.1386C25.2727 52.6292 25.7032 52.1734 26.2146 52.1198Z" fill="url(#paint11_radial_621_35999)"/>
<path d="M26.3222 52.79C26.4568 52.79 26.5913 52.8973 26.5913 53.0313C26.5913 53.1654 26.4837 53.2995 26.3491 53.2995C26.2146 53.2995 26.08 53.1922 26.08 53.0582C26.08 52.9241 26.1877 52.79 26.3222 52.79Z" fill="#FFFFAB"/>
<path style="mix-blend-mode:screen" d="M41.0427 51.3422C42.146 51.2886 43.0879 52.1197 43.1686 53.219C43.2225 54.3183 42.3882 55.2567 41.2849 55.3371C40.1815 55.4176 39.2396 54.5596 39.1589 53.4603C39.105 52.361 39.9393 51.4226 41.0427 51.3422Z" fill="url(#paint12_radial_621_35999)"/>
<path d="M41.2848 52.7632C41.5808 52.7632 41.8499 52.9777 41.8768 53.2726C41.8768 53.5675 41.6615 53.8357 41.3655 53.8625C41.0695 53.8625 40.8004 53.648 40.7735 53.353C40.7735 53.0581 40.9888 52.79 41.2848 52.7632Z" fill="#FFFFAB"/>
<path d="M73.5246 60.0292C73.1747 58.9031 76.2157 53.7016 76.9692 53.7284C77.7227 53.7284 77.05 57.1335 76.5925 57.9378C76.135 58.7422 73.6861 60.5922 73.5246 60.0292Z" fill="white"/>
<path style="mix-blend-mode:screen" d="M6.73076 10.0518C6.73076 10.0518 50.4616 -6.70561 73.713 5.92279C73.713 5.92279 75.7582 10.7221 76.7001 18.2563C76.7001 18.2563 69.3533 26.7824 55.4402 27.7477C43.4647 28.552 31.8121 13.3229 21.6934 11.446C11.6017 9.56921 6.73076 10.0518 6.73076 10.0518Z" fill="url(#paint13_linear_621_35999)"/>
<path d="M5.84266 13.0815C5.00841 13.2156 2.90933 19.7041 3.01698 20.7766C3.15154 21.849 5.6812 18.4707 6.05795 16.6743C6.43471 14.8779 5.81575 13.0815 5.81575 13.0815H5.84266Z" fill="white"/>
<path d="M6.19257 12.0359C5.16994 11.6337 6.973 8.87207 8.53385 8.17496C10.0947 7.47785 13.9161 6.70031 14.3467 7.39742C14.7773 8.12134 7.34976 12.4649 6.19257 12.0359Z" fill="white"/>
<defs>
<radialGradient id="paint0_radial_621_35999" cx="0" cy="0" r="1" gradientUnits="userSpaceOnUse" gradientTransform="translate(40.5112 80.7724) scale(38.6955 48.7362)">
<stop stop-color="#008CCA"/>
<stop offset="1" stop-color="#003BF1"/>
</radialGradient>
<linearGradient id="paint1_linear_621_35999" x1="40.02" y1="64.5335" x2="40.02" y2="0.587179" gradientUnits="userSpaceOnUse">
<stop stop-color="#92FFF1"/>
<stop offset="1" stop-color="#0098FF"/>
</linearGradient>
<linearGradient id="paint2_linear_621_35999" x1="40.02" y1="63.4075" x2="40.02" y2="1.25758" gradientUnits="userSpaceOnUse">
<stop stop-color="#00EFF1"/>
<stop offset="1" stop-color="#0098FF"/>
</linearGradient>
<linearGradient id="paint3_linear_621_35999" x1="75.2737" y1="54.9885" x2="5.73496" y2="54.9885" gradientUnits="userSpaceOnUse">
<stop stop-color="#40FF79"/>
<stop offset="0.1" stop-color="#3BEE71"/>
<stop offset="0.29" stop-color="#31C45D"/>
<stop offset="0.56" stop-color="#20803D"/>
<stop offset="0.88" stop-color="#092411"/>
<stop offset="1"/>
</linearGradient>
<radialGradient id="paint4_radial_621_35999" cx="0" cy="0" r="1" gradientUnits="userSpaceOnUse" gradientTransform="translate(23.4662 20.7515) rotate(-93.4326) scale(1.90367 1.91067)">
<stop stop-color="#00B359"/>
<stop offset="0.13" stop-color="#009148"/>
<stop offset="0.34" stop-color="#005D2E"/>
<stop offset="0.54" stop-color="#00351A"/>
<stop offset="0.73" stop-color="#00170B"/>
<stop offset="0.89" stop-color="#000603"/>
<stop offset="1"/>
</radialGradient>
<radialGradient id="paint5_radial_621_35999" cx="0" cy="0" r="1" gradientUnits="userSpaceOnUse" gradientTransform="translate(26.0756 12.565) rotate(-93.4326) scale(1.90367 1.91068)">
<stop stop-color="#00B359"/>
<stop offset="0.13" stop-color="#009148"/>
<stop offset="0.34" stop-color="#005D2E"/>
<stop offset="0.54" stop-color="#00351A"/>
<stop offset="0.73" stop-color="#00170B"/>
<stop offset="0.89" stop-color="#000603"/>
<stop offset="1"/>
</radialGradient>
<radialGradient id="paint6_radial_621_35999" cx="0" cy="0" r="1" gradientUnits="userSpaceOnUse" gradientTransform="translate(24.5204 36.0793) rotate(-93.4326) scale(1.90367 1.91068)">
<stop stop-color="#00B359"/>
<stop offset="0.13" stop-color="#009148"/>
<stop offset="0.34" stop-color="#005D2E"/>
<stop offset="0.54" stop-color="#00351A"/>
<stop offset="0.73" stop-color="#00170B"/>
<stop offset="0.89" stop-color="#000603"/>
<stop offset="1"/>
</radialGradient>
<radialGradient id="paint7_radial_621_35999" cx="0" cy="0" r="1" gradientUnits="userSpaceOnUse" gradientTransform="translate(15.7035 11.7859) rotate(-93.4326) scale(5.33564 5.35527)">
<stop stop-color="#00B359"/>
<stop offset="0.13" stop-color="#009148"/>
<stop offset="0.34" stop-color="#005D2E"/>
<stop offset="0.54" stop-color="#00351A"/>
<stop offset="0.73" stop-color="#00170B"/>
<stop offset="0.89" stop-color="#000603"/>
<stop offset="1"/>
</radialGradient>
<radialGradient id="paint8_radial_621_35999" cx="0" cy="0" r="1" gradientUnits="userSpaceOnUse" gradientTransform="translate(30.8419 49.7775) rotate(-93.4326) scale(2.54717 2.55654)">
<stop stop-color="#00B359"/>
<stop offset="0.13" stop-color="#009148"/>
<stop offset="0.34" stop-color="#005D2E"/>
<stop offset="0.54" stop-color="#00351A"/>
<stop offset="0.73" stop-color="#00170B"/>
<stop offset="0.89" stop-color="#000603"/>
<stop offset="1"/>
</radialGradient>
<radialGradient id="paint9_radial_621_35999" cx="0" cy="0" r="1" gradientUnits="userSpaceOnUse" gradientTransform="translate(8.03867 55.2447) rotate(-93.4326) scale(1.28699 1.29172)">
<stop stop-color="#00B359"/>
<stop offset="0.13" stop-color="#009148"/>
<stop offset="0.34" stop-color="#005D2E"/>
<stop offset="0.54" stop-color="#00351A"/>
<stop offset="0.73" stop-color="#00170B"/>
<stop offset="0.89" stop-color="#000603"/>
<stop offset="1"/>
</radialGradient>
<radialGradient id="paint10_radial_621_35999" cx="0" cy="0" r="1" gradientUnits="userSpaceOnUse" gradientTransform="translate(44.0107 33.3609) rotate(-93.4326) scale(1.28699 1.29172)">
<stop stop-color="#00B359"/>
<stop offset="0.13" stop-color="#009148"/>
<stop offset="0.34" stop-color="#005D2E"/>
<stop offset="0.54" stop-color="#00351A"/>
<stop offset="0.73" stop-color="#00170B"/>
<stop offset="0.89" stop-color="#000603"/>
<stop offset="1"/>
</radialGradient>
<radialGradient id="paint11_radial_621_35999" cx="0" cy="0" r="1" gradientUnits="userSpaceOnUse" gradientTransform="translate(26.24 53.0598) rotate(-93.4327) scale(0.938427 0.941883)">
<stop stop-color="#00B359"/>
<stop offset="0.13" stop-color="#009148"/>
<stop offset="0.34" stop-color="#005D2E"/>
<stop offset="0.54" stop-color="#00351A"/>
<stop offset="0.73" stop-color="#00170B"/>
<stop offset="0.89" stop-color="#000603"/>
<stop offset="1"/>
</radialGradient>
<radialGradient id="paint12_radial_621_35999" cx="0" cy="0" r="1" gradientUnits="userSpaceOnUse" gradientTransform="translate(41.136 53.3009) rotate(-93.4327) scale(1.98411 1.99141)">
<stop stop-color="#00B359"/>
<stop offset="0.13" stop-color="#009148"/>
<stop offset="0.34" stop-color="#005D2E"/>
<stop offset="0.54" stop-color="#00351A"/>
<stop offset="0.73" stop-color="#00170B"/>
<stop offset="0.89" stop-color="#000603"/>
<stop offset="1"/>
</radialGradient>
<linearGradient id="paint13_linear_621_35999" x1="6.73076" y1="14.5026" x2="76.7001" y2="14.5026" gradientUnits="userSpaceOnUse">
<stop stop-color="#7ED140"/>
<stop offset="0.11" stop-color="#74C03B"/>
<stop offset="0.34" stop-color="#5A962E"/>
<stop offset="0.65" stop-color="#315219"/>
<stop offset="1"/>
</linearGradient>
</defs>
</svg>
