<svg width="71" height="66" viewBox="0 0 71 66" fill="none" xmlns="http://www.w3.org/2000/svg">
<path opacity="0.1" d="M64.7882 57.7452C64.6652 57.8777 64.5217 58.0103 64.3577 58.1326C52.2238 67.9924 18.794 67.6457 4.14919 58.7852C3.38057 58.3264 2.86816 57.8369 2.6222 57.3271C-2.57367 46.5701 0.244602 14.1972 8.49446 7.19238C17.349 -0.312025 51.3937 -3.70736 62.3286 5.83629C70.353 12.8309 74.1756 47.9364 64.7882 57.7452Z" fill="#3C3E48"/>
<path d="M62.8025 56.5434C62.6869 56.6686 62.5521 56.7938 62.398 56.9093C50.9969 66.2209 19.586 65.8935 5.82573 57.5256C5.10353 57.0923 4.62206 56.6301 4.39096 56.1486C-0.491113 45.9897 2.15695 15.4165 9.90856 8.80118C18.2283 1.71399 50.2169 -1.49258 60.4914 7.52048C68.0312 14.1262 71.6229 47.28 62.8025 56.5434Z" fill="url(#paint0_linear_85_1360)"/>
<path d="M4.38962 54.1392C9.09836 63.9418 53.1044 64.7218 62.8011 54.534C71.6216 45.2705 68.0299 12.1168 60.4901 5.51103C50.2156 -3.50202 18.227 -0.295457 9.90722 6.80136C2.15561 13.4071 -0.492456 43.9802 4.38962 54.1392Z" fill="url(#paint1_radial_85_1360)"/>
<g style="mix-blend-mode:multiply" filter="url(#filter0_f_85_1360)">
<path d="M52 26C52 15.5236 43.4764 7 33 7C22.5237 7 14 15.5236 14 26C14 32.9854 17.7496 39.2943 23.8362 42.6432C23.6784 42.7291 23.5149 42.815 23.3447 42.9009C21.5942 43.7831 20.1783 44.4234 19.0408 44.9381C16.5221 46.0773 15.2689 46.6571 15.0731 47.8987C15.055 48.0135 15.0326 48.1259 15.0326 48.2531V57.1848H51.3803V48.2531C51.3803 46.7042 50.1346 46.1251 47.1251 44.7266C46.0678 44.2351 44.7526 43.6237 43.1682 42.8249C42.9426 42.7109 42.7188 42.5919 42.4883 42.4614C48.3735 39.0663 52 32.8251 52 26ZM41.7863 31.9436C43.2427 31.9486 44.6008 30.7384 45.0023 29.035C45.3848 27.4093 44.8147 25.8149 43.6393 25.1111C43.8565 22.5064 42.961 19.9398 41.0991 17.8523C39.0173 15.5178 36.0286 14.125 33.1034 14.125C30.3013 14.125 27.4116 15.4368 25.3728 17.6342C23.4554 19.7003 22.4733 22.2925 22.5872 24.9657C21.9404 25.2474 21.4299 25.7918 21.1308 26.527C20.802 27.3366 20.7707 28.2873 21.0432 29.2027C21.5348 30.8565 22.9036 32.0024 24.36 31.9231C25.4471 34.2502 26.9523 35.9155 28.8407 36.8804C28.825 36.9218 28.8093 36.9638 28.7928 37.006C28.521 37.7181 28.1212 38.7655 27.4437 39.7998C21.8999 37.4694 18.3369 32.1288 18.3369 26.1033C18.3369 17.9043 25.0076 11.2337 33.2065 11.2337C41.4054 11.2337 48.0761 17.9043 48.0761 26.1033C48.0761 32.0635 44.5718 37.3794 39.1172 39.742C38.5092 38.7168 38.1094 37.761 37.8376 37.1084C37.7897 36.9936 37.7459 36.8887 37.7046 36.7936C39.4122 35.8362 40.7512 34.2435 41.7863 31.9436Z" fill="#CED6FF"/>
</g>
<path d="M54 24C54 13.5236 45.4764 5 35 5C24.5237 5 16 13.5236 16 24C16 30.9854 19.7496 37.2943 25.8362 40.6432C25.6784 40.7291 25.5149 40.815 25.3447 40.9009C23.5942 41.7831 22.1783 42.4234 21.0408 42.9381C18.5221 44.0773 17.2689 44.6571 17.0731 45.8987C17.055 46.0135 17.0326 46.1259 17.0326 46.2531V55.1848H53.3803V46.2531C53.3803 44.7042 52.1346 44.1251 49.1251 42.7266C48.0678 42.2351 46.7526 41.6237 45.1682 40.8249C44.9426 40.7109 44.7188 40.5919 44.4883 40.4614C50.3735 37.0663 54 30.8251 54 24ZM43.7863 29.9436C45.2427 29.9486 46.6008 28.7384 47.0023 27.035C47.3848 25.4093 46.8147 23.8149 45.6393 23.1111C45.8565 20.5064 44.961 17.9398 43.0991 15.8523C41.0173 13.5178 38.0286 12.125 35.1034 12.125C32.3013 12.125 29.4116 13.4368 27.3728 15.6342C25.4554 17.7003 24.4733 20.2925 24.5872 22.9657C23.9404 23.2474 23.4299 23.7918 23.1308 24.527C22.802 25.3366 22.7707 26.2873 23.0432 27.2027C23.5348 28.8565 24.9036 30.0024 26.36 29.9231C27.4471 32.2502 28.9523 33.9155 30.8407 34.8804C30.825 34.9218 30.8093 34.9638 30.7928 35.006C30.521 35.7181 30.1212 36.7655 29.4437 37.7998C23.8999 35.4694 20.3369 30.1288 20.3369 24.1033C20.3369 15.9043 27.0076 9.23371 35.2065 9.23371C43.4054 9.23371 50.0761 15.9043 50.0761 24.1033C50.0761 30.0635 46.5718 35.3794 41.1172 37.742C40.5092 36.7168 40.1094 35.761 39.8376 35.1084C39.7897 34.9936 39.7459 34.8887 39.7046 34.7936C41.4122 33.8362 42.7512 32.2435 43.7863 29.9436Z" fill="#FEFFFF"/>
<path style="mix-blend-mode:screen" d="M9.5 8.50001C9.5 8.50001 22.5 -4 57 4C57 4 68 14 65.0251 20.7287C65.0251 20.7287 66 23 62 25C60.993 17.767 48 9.70387 39 7.70346C30.5 7.70346 8 10.5 8 10.5L9.5 8.50001Z" fill="url(#paint2_linear_85_1360)"/>
<path d="M7 11.5377C7 11.5377 8.47329 8.51406 11.8821 6.89633C15.3005 5.27861 25.0165 3.65125 25.575 4.06531C26.1239 4.47937 20.8373 6.38598 18.1026 7.39706C15.3679 8.40814 8.39625 12.3176 7 11.5473V11.5377Z" fill="white"/>
<path style="mix-blend-mode:screen" d="M62.3113 54.1143C62.3113 54.1143 58.5 58.1686 51 59.5C47.2763 60.161 42.9298 61.0465 42.5 60.5C42.0795 59.9561 47.6059 55.4426 50.5103 55.1869C53.4147 54.9312 61.1695 52.9944 62.3138 54.1051L62.3113 54.1143Z" fill="url(#paint3_linear_85_1360)"/>
<path d="M7.35415 13.0096C6.65121 13.1156 4.89867 18.5658 5.0046 19.4613C5.11052 20.3568 7.21934 17.5258 7.54674 16.014C7.87414 14.5118 7.35415 13 7.35415 13V13.0096Z" fill="white"/>
<path style="mix-blend-mode:screen" d="M63.4505 52.0184C64.1597 51.9703 66.3522 46.6817 66.3199 45.7805C66.2875 44.8793 63.9542 47.5284 63.5043 49.0083C63.0551 50.4787 63.4497 52.028 63.4497 52.028L63.4505 52.0184Z" fill="url(#paint4_linear_85_1360)"/>
<path d="M60.0316 54.7213C59.6223 53.6892 63.3061 48.9776 64.246 49.0001C65.1859 49.0225 64.3521 52.0963 63.776 52.8142C63.2151 53.5322 60.2287 55.2373 60.0316 54.7213Z" fill="white"/>
<defs>
<filter id="filter0_f_85_1360" x="13" y="6" width="40" height="52.1848" filterUnits="userSpaceOnUse" color-interpolation-filters="sRGB">
<feFlood flood-opacity="0" result="BackgroundImageFix"/>
<feBlend mode="normal" in="SourceGraphic" in2="BackgroundImageFix" result="shape"/>
<feGaussianBlur stdDeviation="0.5" result="effect1_foregroundBlur_85_1360"/>
</filter>
<linearGradient id="paint0_linear_85_1360" x1="38.1866" y1="63.8469" x2="38.1866" y2="2.00905" gradientUnits="userSpaceOnUse">
<stop stop-color="#C26900"/>
<stop offset="1" stop-color="#923D00"/>
</linearGradient>
<radialGradient id="paint1_radial_85_1360" cx="0" cy="0" r="1" gradientUnits="userSpaceOnUse" gradientTransform="translate(35.7326 57.4711) scale(25.3388 75.8087)">
<stop stop-color="#FFBD00"/>
<stop offset="1" stop-color="#FF772C"/>
</radialGradient>
<linearGradient id="paint2_linear_85_1360" x1="11.6763" y1="13.8808" x2="57.9957" y2="13.8808" gradientUnits="userSpaceOnUse">
<stop stop-color="#7ED140"/>
<stop offset="0.11" stop-color="#74C03B"/>
<stop offset="0.34" stop-color="#5A962E"/>
<stop offset="0.65" stop-color="#315219"/>
<stop offset="1"/>
</linearGradient>
<linearGradient id="paint3_linear_85_1360" x1="59.6274" y1="56.9107" x2="45.5876" y2="53.0805" gradientUnits="userSpaceOnUse">
<stop stop-color="#7ED140"/>
<stop offset="0.11" stop-color="#74C03B"/>
<stop offset="0.34" stop-color="#5A962E"/>
<stop offset="0.65" stop-color="#315219"/>
<stop offset="1"/>
</linearGradient>
<linearGradient id="paint4_linear_85_1360" x1="65.8258" y1="48.6257" x2="63.7571" y2="48.4559" gradientUnits="userSpaceOnUse">
<stop stop-color="#7ED140"/>
<stop offset="0.11" stop-color="#74C03B"/>
<stop offset="0.34" stop-color="#5A962E"/>
<stop offset="0.65" stop-color="#315219"/>
<stop offset="1"/>
</linearGradient>
</defs>
</svg>
