<svg width="81" height="91" viewBox="0 0 81 91" fill="none" xmlns="http://www.w3.org/2000/svg">
<g style="mix-blend-mode:multiply">
<path d="M40.5 90.5146C62.8675 90.5146 81 87.8284 81 84.5146C81 81.2009 62.8675 78.5146 40.5 78.5146C18.1325 78.5146 0 81.2009 0 84.5146C0 87.8284 18.1325 90.5146 40.5 90.5146Z" fill="#6B54A1"/>
</g>
<path d="M59.0234 41.5494C59.0234 62.3315 53.7018 79.7969 39.1361 82.292C37.9197 82.505 30.7128 82.292 29.4661 82.292C13.167 82.2312 0 63.9746 0 41.4581C0 18.9417 13.2582 0.71556 29.5573 0.745988C30.5912 0.745988 39.5314 0.624278 40.5349 0.745988C55.4047 2.84549 59.0538 20.4327 59.0234 41.519V41.5494Z" fill="url(#paint0_radial_521_10533)"/>
<path d="M70 41.5491C70 64.0655 56.7418 82.2917 40.4427 82.2613C24.1436 82.2308 10.9462 63.9743 10.9766 41.4882C11.007 18.9718 24.2348 0.715216 40.5339 0.745643C56.833 0.776071 70.0304 19.0326 70 41.5491Z" fill="url(#paint1_linear_521_10533)"/>
<path style="mix-blend-mode:screen" d="M15.082 20.5234L57.8975 74.4107L64.1009 65.9518L30.6513 3.08838C30.6513 3.08838 22.0152 6.64841 15.082 20.5234Z" fill="url(#paint2_linear_521_10533)"/>
<path d="M61.3025 41.5487C61.3025 57.4319 51.9671 70.3028 40.4422 70.2724C40.0164 70.2724 39.5907 70.2724 39.1954 70.2115C28.2787 69.3291 19.6426 56.7929 19.6426 41.4878C19.6426 26.2132 28.3091 13.7683 39.165 12.825C39.6211 12.7946 40.0468 12.7642 40.503 12.7642C51.9975 12.7642 61.3025 25.6655 61.2721 41.5487H61.3025Z" fill="url(#paint3_radial_521_10533)"/>
<path d="M58.6285 41.5494C58.6285 56.7632 50.0229 69.2385 39.1973 70.2122C28.2806 69.3298 19.6445 56.7936 19.6445 41.4885C19.6445 26.2138 28.311 13.7689 39.1669 12.8257C50.0229 13.7994 58.6285 26.2747 58.5981 41.5494H58.6285Z" fill="url(#paint4_linear_521_10533)"/>
<path d="M43.5012 38.173L43.1225 32.7574L52.9774 32.0682L52.4003 23.8164L25.5728 25.6923L26.1498 33.9442L36.0047 33.2551L36.3827 38.6608C28.4086 39.6852 22.5229 42.0928 22.6901 44.4844C22.8574 46.8759 29.0209 48.441 37.0599 48.3456L38.2727 65.6894L45.3984 65.1911L44.1856 47.8474C52.144 46.8241 58.0139 44.4176 57.8467 42.026C57.6795 39.6344 51.5317 38.0682 43.5084 38.1625M44.0827 46.3749C43.8789 46.3991 42.8541 46.5502 40.5575 46.7108C38.7171 46.8395 37.4224 46.8605 36.9641 46.8627C29.8665 46.9717 24.4728 45.7898 24.3435 43.9417C24.2143 42.0937 29.3832 40.1731 36.4341 39.2829L36.857 45.3309C37.3238 45.338 38.652 45.3444 40.4846 45.2163C42.6789 45.0629 43.7796 44.8667 43.9827 44.8327L43.5598 38.7846C50.6502 38.686 56.0283 39.8691 56.1575 41.7171C56.2867 43.5651 51.1256 45.4851 44.0905 46.3743" fill="white"/>
<path d="M66.1402 39.2377C67.691 39.2986 68.9074 40.7895 68.8465 42.6152C68.7857 44.4408 67.4782 45.8709 65.9273 45.8101C64.3765 45.7492 63.1601 44.2583 63.2209 42.4326C63.2818 40.607 64.5893 39.1769 66.1402 39.2377Z" fill="url(#paint5_radial_521_10533)"/>
<path d="M65.7149 39.6944C67.0529 39.7248 68.0564 41.0332 68.026 42.585C67.9955 44.1368 66.8704 45.3539 65.5324 45.3235C64.1945 45.2931 63.191 43.9847 63.2214 42.4329C63.2822 40.8811 64.3769 39.664 65.7149 39.6944Z" fill="url(#paint6_linear_521_10533)"/>
<path d="M42.0835 4.85295C43.6344 4.9138 44.8507 6.40476 44.7899 8.23041C44.7291 10.0561 43.4215 11.4862 41.8707 11.4253C40.3198 11.3645 39.1035 9.8735 39.1643 8.04785C39.2251 6.22219 40.5327 4.79209 42.0835 4.85295Z" fill="url(#paint7_radial_521_10533)"/>
<path d="M41.6895 5.31013C43.0275 5.34056 44.031 6.64894 44.0006 8.20075C43.9702 9.75256 42.845 10.9697 41.507 10.9392C40.1691 10.9088 39.1656 9.60042 39.196 8.04861C39.2568 6.49681 40.3515 5.2797 41.6895 5.31013Z" fill="url(#paint8_linear_521_10533)"/>
<path d="M42.0249 72.8578C43.5758 72.9187 44.7921 74.4096 44.7313 76.2353C44.6705 78.061 43.3629 79.4911 41.8121 79.4302C40.2612 79.3693 39.0449 77.8784 39.1057 76.0527C39.1665 74.2271 40.4741 72.797 42.0249 72.8578Z" fill="url(#paint9_radial_521_10533)"/>
<path d="M41.5977 73.3443C42.9357 73.3747 43.9392 74.6831 43.9088 76.2349C43.848 77.7867 42.7532 79.0038 41.4153 78.9734C40.0773 78.943 39.0738 77.6346 39.1042 76.0828C39.1346 74.531 40.2597 73.3139 41.5977 73.3443Z" fill="url(#paint10_linear_521_10533)"/>
<path d="M15.5699 39.1772C17.1207 39.238 18.3371 40.729 18.2762 42.5546C18.2154 44.3803 16.9078 45.8104 15.357 45.7495C13.8062 45.6887 12.5898 44.1977 12.6506 42.3721C12.7114 40.5464 14.019 39.1163 15.5699 39.1772Z" fill="url(#paint11_radial_521_10533)"/>
<path d="M15.1446 39.6339C16.4826 39.6643 17.4861 40.9727 17.4556 42.5245C17.3948 44.0763 16.3001 45.2934 14.9621 45.263C13.6241 45.2325 12.6207 43.9242 12.6511 42.3723C12.6815 40.8205 13.8066 39.6034 15.1446 39.6339Z" fill="url(#paint12_linear_521_10533)"/>
<path style="mix-blend-mode:screen" d="M4.25781 20.5249H15.0833C15.0833 20.5249 17.9722 11.3357 29.5883 3.08984L18.8236 3.51583C18.8236 3.51583 7.3595 10.788 4.25781 20.5249Z" fill="url(#paint13_linear_521_10533)"/>
<path d="M16.9092 17.0553C16.4835 17.9681 24.3593 13.6778 26.0318 10.4829C27.7043 7.28803 28.7686 5.09724 27.978 4.64082C27.1874 4.18441 19.4939 11.3653 16.9092 17.0553Z" fill="white"/>
<path d="M57.1093 73.955C54.2509 74.7156 61.1841 67.5347 61.9139 67.839C62.6437 68.1433 59.6941 73.2551 57.1093 73.955Z" fill="white"/>
<defs>
<radialGradient id="paint0_radial_521_10533" cx="0" cy="0" r="1" gradientUnits="userSpaceOnUse" gradientTransform="translate(29.4745 41.5145) rotate(0.0700435) scale(35.6086 35.6307)">
<stop stop-color="#027559"/>
<stop offset="1" stop-color="#2CFFCC"/>
<stop offset="1" stop-color="#00FFC2"/>
<stop offset="1" stop-color="#00FFC2"/>
</radialGradient>
<linearGradient id="paint1_linear_521_10533" x1="40.4014" y1="82.2701" x2="40.5011" y2="0.724131" gradientUnits="userSpaceOnUse">
<stop stop-color="#00FFA3"/>
<stop offset="1" stop-color="#00FFA3"/>
</linearGradient>
<linearGradient id="paint2_linear_521_10533" x1="15.0027" y1="38.6969" x2="64.0824" y2="38.7568" gradientUnits="userSpaceOnUse">
<stop stop-color="#FF9840"/>
<stop offset="0.1" stop-color="#EE8E3B"/>
<stop offset="0.29" stop-color="#C47531"/>
<stop offset="0.55" stop-color="#804C20"/>
<stop offset="0.88" stop-color="#241509"/>
<stop offset="1"/>
</linearGradient>
<radialGradient id="paint3_radial_521_10533" cx="0" cy="0" r="1" gradientUnits="userSpaceOnUse" gradientTransform="translate(40.4506 41.4967) rotate(0.0700435) scale(25.0872 25.1028)">
<stop stop-color="#00FFA3"/>
<stop offset="1" stop-color="#1EBF68"/>
</radialGradient>
<linearGradient id="paint4_linear_521_10533" x1="39.0796" y1="70.189" x2="39.1497" y2="12.8025" gradientUnits="userSpaceOnUse">
<stop stop-color="#00FFC2"/>
<stop offset="1" stop-color="#00FFB2"/>
</linearGradient>
<radialGradient id="paint5_radial_521_10533" cx="0" cy="0" r="1" gradientUnits="userSpaceOnUse" gradientTransform="translate(72.2393 42.701) rotate(-88.0712) scale(3.28618 2.79152)">
<stop stop-color="#00FFD1"/>
<stop offset="1" stop-color="#21BB8D"/>
</radialGradient>
<linearGradient id="paint6_linear_521_10533" x1="71.6846" y1="45.492" x2="71.6227" y2="39.8912" gradientUnits="userSpaceOnUse">
<stop stop-color="#00FFF4"/>
<stop offset="1" stop-color="#30A7FB"/>
</linearGradient>
<radialGradient id="paint7_radial_521_10533" cx="0" cy="0" r="1" gradientUnits="userSpaceOnUse" gradientTransform="translate(48.1827 8.31622) rotate(-88.0712) scale(3.28618 2.79152)">
<stop stop-color="#00FFD1"/>
<stop offset="1" stop-color="#21BB8D"/>
</radialGradient>
<linearGradient id="paint8_linear_521_10533" x1="47.7797" y1="11.1043" x2="47.7189" y2="5.47302" gradientUnits="userSpaceOnUse">
<stop stop-color="#00FFF4"/>
<stop offset="1" stop-color="#30A7FB"/>
</linearGradient>
<radialGradient id="paint9_radial_521_10533" cx="0" cy="0" r="1" gradientUnits="userSpaceOnUse" gradientTransform="translate(48.1241 76.3211) rotate(-88.0712) scale(3.28618 2.79152)">
<stop stop-color="#00FFD1"/>
<stop offset="1" stop-color="#21BB8D"/>
</radialGradient>
<linearGradient id="paint10_linear_521_10533" x1="47.6871" y1="79.1131" x2="47.6252" y2="73.5123" gradientUnits="userSpaceOnUse">
<stop stop-color="#00FFF4"/>
<stop offset="1" stop-color="#30A7FB"/>
</linearGradient>
<radialGradient id="paint11_radial_521_10533" cx="0" cy="0" r="1" gradientUnits="userSpaceOnUse" gradientTransform="translate(21.669 42.6404) rotate(-88.0712) scale(3.28618 2.79152)">
<stop stop-color="#00FFD1"/>
<stop offset="1" stop-color="#21BB8D"/>
</radialGradient>
<linearGradient id="paint12_linear_521_10533" x1="21.384" y1="45.4403" x2="21.3221" y2="39.8395" gradientUnits="userSpaceOnUse">
<stop stop-color="#00FFF4"/>
<stop offset="1" stop-color="#30A7FB"/>
</linearGradient>
<linearGradient id="paint13_linear_521_10533" x1="4.24174" y1="11.7872" x2="29.5114" y2="11.818" gradientUnits="userSpaceOnUse">
<stop stop-color="#FF9840"/>
<stop offset="0.1" stop-color="#EE8E3B"/>
<stop offset="0.29" stop-color="#C47531"/>
<stop offset="0.55" stop-color="#804C20"/>
<stop offset="0.88" stop-color="#241509"/>
<stop offset="1"/>
</linearGradient>
</defs>
</svg>
