<svg width="59" height="49" viewBox="0 0 59 49" fill="none" xmlns="http://www.w3.org/2000/svg">
<path d="M1.66848 43.2614C3.67259 51.0891 51.8264 49.4133 55.9557 41.277C59.6997 33.8903 57.8937 9.52524 54.6894 4.24431C50.3178 -2.94393 7.54868 -0.000278625 4.01395 5.66652C0.721479 10.9364 -0.401705 35.1471 1.66848 43.2614Z" fill="url(#paint0_radial_74_1832)"/>
<path d="M1.83365 41.8723C3.82675 49.4133 51.6942 46.0838 55.8126 38.2341C59.5455 31.112 57.7946 9.63546 54.6013 4.55298C50.2407 -2.37066 7.62576 0.396595 4.10204 5.85392C0.820582 10.9364 -0.236532 34.0556 1.83365 41.8723Z" fill="url(#paint1_linear_74_1832)"/>
<path d="M2.42841 41.2109C4.37747 48.5314 51.2098 45.1798 55.2291 37.5726C58.8849 30.66 57.1671 9.87809 54.0398 4.94995C49.7783 -1.78626 8.09939 0.837667 4.65276 6.14064C1.43737 11.0688 0.413288 33.6257 2.42841 41.2109Z" fill="url(#paint2_linear_74_1832)"/>
<path d="M28.5 4C39.2668 4 48 12.7332 48 23.5C48 34.2668 39.2668 43 28.5 43C17.7332 43 9 34.2721 9 23.5C9 12.7279 17.7279 4 28.5 4Z" fill="#53AE94"/>
<path d="M30.91 20.8996V17.9974H37.5459V13.5752H19.4811V17.9974H26.1171V20.8943C20.7257 21.1433 16.6689 22.2078 16.6689 23.4894C16.6689 24.771 20.7257 25.8355 26.1171 26.0845V35.379H30.9153V26.0845C36.2961 25.8355 40.3422 24.771 40.3422 23.4894C40.3422 22.2078 36.2961 21.1433 30.9153 20.8943M30.9153 25.2954C30.7776 25.3006 30.0838 25.343 28.5374 25.343C27.2981 25.343 26.4295 25.3059 26.1224 25.2901C21.3612 25.0835 17.8023 24.252 17.8023 23.2617C17.8023 22.2713 21.3559 21.4398 26.1224 21.228V24.4692C26.4348 24.4904 27.3246 24.5433 28.5586 24.5433C30.0361 24.5433 30.7829 24.4798 30.9206 24.4692V21.228C35.6764 21.4398 39.2248 22.2713 39.2248 23.2617C39.2248 24.252 35.6764 25.0835 30.9206 25.2954" fill="white"/>
<path style="mix-blend-mode:screen" d="M54.2708 37.7049C54.2708 37.7049 32.5889 48.8511 4.90576 42.4346C4.90576 42.4346 22.5904 41.4864 30.5958 38.5648C44.1842 33.5926 50.703 32.1263 54.2708 37.7049Z" fill="url(#paint3_linear_74_1832)"/>
<path style="mix-blend-mode:screen" d="M17.5469 12.502C18.3177 12.4579 18.9894 13.0422 19.0334 13.825C19.0775 14.6078 18.4939 15.2693 17.712 15.3134C16.9412 15.3575 16.2695 14.7731 16.2255 13.9904C16.1814 13.2186 16.7651 12.5461 17.5469 12.502Z" fill="url(#paint4_radial_74_1832)"/>
<path d="M17.7125 13.5053C17.9218 13.4943 18.109 13.6597 18.12 13.8691C18.131 14.0786 17.9658 14.266 17.7566 14.2771C17.5474 14.2881 17.3602 14.1227 17.3492 13.9132C17.3381 13.7038 17.5033 13.5163 17.7125 13.5053Z" fill="#FFFFAB"/>
<path style="mix-blend-mode:screen" d="M19.4517 6.46032C20.2225 6.41622 20.8942 7.00054 20.9382 7.78331C20.9823 8.56607 20.3987 9.22757 19.6168 9.27167C18.846 9.31577 18.1743 8.73145 18.1303 7.94868C18.0862 7.17694 18.6698 6.50442 19.4517 6.46032Z" fill="url(#paint5_radial_74_1832)"/>
<path d="M19.6286 7.46363C19.8378 7.4526 20.025 7.61797 20.036 7.82745C20.047 8.03692 19.8818 8.22434 19.6726 8.23537C19.4634 8.24639 19.2762 8.08102 19.2652 7.87155C19.2542 7.66207 19.4193 7.47465 19.6286 7.46363Z" fill="#FFFFAB"/>
<path style="mix-blend-mode:screen" d="M18.3291 23.7805C19.0999 23.7364 19.7716 24.3207 19.8157 25.1035C19.8597 25.8752 19.2761 26.5477 18.4943 26.5918C17.7125 26.6359 17.0518 26.0516 17.0077 25.2688C16.9637 24.4861 17.5473 23.8246 18.3291 23.7805Z" fill="url(#paint6_radial_74_1832)"/>
<path d="M18.4943 24.7837C18.7035 24.7727 18.8907 24.938 18.9017 25.1475C18.9127 25.357 18.7475 25.5444 18.5383 25.5554C18.3291 25.5665 18.1419 25.4011 18.1309 25.1916C18.1199 24.9821 18.2851 24.7947 18.4943 24.7837Z" fill="#FFFFAB"/>
<path style="mix-blend-mode:screen" d="M11.7222 3.37338C13.8915 3.24108 15.7524 4.89482 15.8846 7.06672C16.0167 9.23863 14.365 11.1018 12.1957 11.2341C10.0264 11.3664 8.16542 9.7127 8.03329 7.54079C7.90115 5.36889 9.55289 3.50568 11.7222 3.37338Z" fill="url(#paint7_radial_74_1832)"/>
<path d="M12.1957 6.1957C12.7903 6.16263 13.3079 6.61465 13.3519 7.22102C13.396 7.82739 12.9335 8.33454 12.3278 8.37864C11.7332 8.41171 11.2157 7.95969 11.1716 7.35332C11.1386 6.75798 11.5901 6.2398 12.1957 6.1957Z" fill="#FFFFAB"/>
<path style="mix-blend-mode:screen" d="M22.9317 33.4052C23.9668 33.3391 24.8588 34.1329 24.9138 35.1692C24.9799 36.2055 24.187 37.0986 23.152 37.1537C22.1169 37.2198 21.2249 36.426 21.1699 35.3897C21.1038 34.3534 21.8966 33.4603 22.9317 33.4052Z" fill="url(#paint8_radial_74_1832)"/>
<path d="M23.1628 34.7613C23.4491 34.7392 23.6913 34.9597 23.7134 35.2464C23.7354 35.533 23.5152 35.7756 23.2289 35.7976C22.9426 35.8197 22.7003 35.5992 22.6783 35.3125C22.6563 35.0259 22.8765 34.7833 23.1628 34.7613Z" fill="#FFFFAB"/>
<path style="mix-blend-mode:screen" d="M6.55766 42.2471C7.0752 42.2141 7.51567 42.611 7.5487 43.1291C7.58174 43.6473 7.18532 44.0883 6.66777 44.1214C6.15023 44.1544 5.70976 43.7575 5.67673 43.2394C5.64369 42.7212 6.04011 42.2802 6.55766 42.2471Z" fill="url(#paint9_radial_74_1832)"/>
<path d="M6.67905 42.9197C6.8222 42.9197 6.94333 43.0189 6.95434 43.1623C6.95434 43.3056 6.85524 43.4269 6.71208 43.4379C6.56893 43.4379 6.44781 43.3387 6.43679 43.1953C6.42578 43.052 6.5359 42.9307 6.67905 42.9197Z" fill="#FFFFAB"/>
<path style="mix-blend-mode:screen" d="M32.6329 22.237C33.1504 22.2039 33.5909 22.6008 33.6239 23.119C33.6569 23.6372 33.2605 24.0782 32.743 24.1112C32.2254 24.1443 31.785 23.7474 31.7519 23.2292C31.7189 22.7111 32.1153 22.2701 32.6329 22.237Z" fill="url(#paint10_radial_74_1832)"/>
<path d="M32.754 22.9095C32.8971 22.9095 33.0183 23.0087 33.0293 23.152C33.0403 23.2953 32.9302 23.4166 32.787 23.4276C32.6439 23.4276 32.5227 23.3284 32.5117 23.1851C32.5117 23.0418 32.6108 22.9205 32.754 22.9095Z" fill="#FFFFAB"/>
<path style="mix-blend-mode:screen" d="M19.6169 36.9883C20.0023 36.9663 20.3327 37.264 20.3547 37.6498C20.3767 38.0357 20.0794 38.3664 19.694 38.3885C19.3086 38.4105 18.9783 38.1129 18.9562 37.727C18.9342 37.3411 19.2315 37.0104 19.6169 36.9883Z" fill="url(#paint11_radial_74_1832)"/>
<path d="M19.7058 37.4845C19.8159 37.4845 19.904 37.5616 19.915 37.6719C19.915 37.7821 19.8379 37.8703 19.7278 37.8814C19.6177 37.8814 19.5296 37.8042 19.5186 37.6939C19.5186 37.5837 19.5956 37.4955 19.7058 37.4845Z" fill="#FFFFAB"/>
<path style="mix-blend-mode:screen" d="M30.4856 36.415C31.2895 36.3709 31.9832 36.9883 32.0382 37.7931C32.0823 38.5979 31.4656 39.2925 30.6618 39.3476C29.8579 39.3917 29.1642 38.7743 29.1092 37.9695C29.0651 37.1647 29.6818 36.4701 30.4856 36.415Z" fill="url(#paint12_radial_74_1832)"/>
<path d="M30.6618 37.4623C30.882 37.4513 31.0802 37.6167 31.0913 37.8482C31.1023 38.0687 30.9371 38.2672 30.7059 38.2782C30.4856 38.2892 30.2874 38.1238 30.2764 37.8923C30.2654 37.6718 30.4306 37.4734 30.6618 37.4623Z" fill="#FFFFAB"/>
<path d="M52.983 39.1161C52.7297 38.2782 54.9431 34.4635 55.5047 34.4746C56.0662 34.4856 55.5707 36.9883 55.2294 37.5726C54.888 38.1569 53.1041 39.535 52.983 39.1161Z" fill="white"/>
<path style="mix-blend-mode:screen" d="M4.53207 6.17369C4.53207 6.17369 37.1044 -4.23381 54.1614 5.06018C54.1614 5.06018 55.9453 6.49342 56.628 12.05C56.628 12.05 55.2626 7.15491 45.0658 7.8605C36.2896 8.46687 22.6792 23.2072 8.45221 18.4554C1.29466 16.063 4.53207 6.17369 4.53207 6.17369Z" fill="url(#paint13_linear_74_1832)"/>
<path d="M4.53169 10.4514C4.53169 10.4514 2.97906 6.44932 5.97421 5.02711C8.96937 3.60489 18.8248 2.24883 19.3093 2.60163C19.7938 2.96545 15.1469 4.64123 12.7464 5.52323C10.3458 6.40522 5.75398 11.1239 4.53169 10.4403V10.4514Z" fill="white"/>
<defs>
<radialGradient id="paint0_radial_74_1832" cx="0" cy="0" r="1" gradientUnits="userSpaceOnUse" gradientTransform="translate(31.5506 44.9152) scale(22.0548 41.6631)">
<stop stop-color="#D0CDEA"/>
<stop offset="1" stop-color="#7D75DA"/>
</radialGradient>
<linearGradient id="paint1_linear_74_1832" x1="29.3407" y1="46.1169" x2="29.3407" y2="0.440695" gradientUnits="userSpaceOnUse">
<stop stop-color="#CADCFF"/>
<stop offset="1" stop-color="white"/>
</linearGradient>
<linearGradient id="paint2_linear_74_1832" x1="29.3408" y1="45.2901" x2="29.3408" y2="0.925868" gradientUnits="userSpaceOnUse">
<stop stop-color="#FAFAFD"/>
<stop offset="1" stop-color="#C3BFEE"/>
</linearGradient>
<linearGradient id="paint3_linear_74_1832" x1="54.2708" y1="39.2815" x2="4.90576" y2="39.2815" gradientUnits="userSpaceOnUse">
<stop stop-color="#FF6140"/>
<stop offset="0.1" stop-color="#EE5A3B"/>
<stop offset="0.29" stop-color="#C44A31"/>
<stop offset="0.55" stop-color="#803020"/>
<stop offset="0.88" stop-color="#240D09"/>
<stop offset="1"/>
</linearGradient>
<radialGradient id="paint4_radial_74_1832" cx="0" cy="0" r="1" gradientUnits="userSpaceOnUse" gradientTransform="translate(17.5674 13.9454) rotate(-93.4159) scale(1.41118 1.40949)">
<stop stop-color="#00B359"/>
<stop offset="0.13" stop-color="#009148"/>
<stop offset="0.34" stop-color="#005D2E"/>
<stop offset="0.54" stop-color="#00351A"/>
<stop offset="0.73" stop-color="#00170B"/>
<stop offset="0.89" stop-color="#000603"/>
<stop offset="1"/>
</radialGradient>
<radialGradient id="paint5_radial_74_1832" cx="0" cy="0" r="1" gradientUnits="userSpaceOnUse" gradientTransform="translate(19.4788 7.90001) rotate(-93.4159) scale(1.41118 1.40949)">
<stop stop-color="#00B359"/>
<stop offset="0.13" stop-color="#009148"/>
<stop offset="0.34" stop-color="#005D2E"/>
<stop offset="0.54" stop-color="#00351A"/>
<stop offset="0.73" stop-color="#00170B"/>
<stop offset="0.89" stop-color="#000603"/>
<stop offset="1"/>
</radialGradient>
<radialGradient id="paint6_radial_74_1832" cx="0" cy="0" r="1" gradientUnits="userSpaceOnUse" gradientTransform="translate(18.3517 25.2302) rotate(-93.4159) scale(1.41118 1.40949)">
<stop stop-color="#00B359"/>
<stop offset="0.13" stop-color="#009148"/>
<stop offset="0.34" stop-color="#005D2E"/>
<stop offset="0.54" stop-color="#00351A"/>
<stop offset="0.73" stop-color="#00170B"/>
<stop offset="0.89" stop-color="#000603"/>
<stop offset="1"/>
</radialGradient>
<radialGradient id="paint7_radial_74_1832" cx="0" cy="0" r="1" gradientUnits="userSpaceOnUse" gradientTransform="translate(11.8895 7.33808) rotate(-93.4159) scale(3.93587 3.93116)">
<stop stop-color="#00B359"/>
<stop offset="0.13" stop-color="#009148"/>
<stop offset="0.34" stop-color="#005D2E"/>
<stop offset="0.54" stop-color="#00351A"/>
<stop offset="0.73" stop-color="#00170B"/>
<stop offset="0.89" stop-color="#000603"/>
<stop offset="1"/>
</radialGradient>
<radialGradient id="paint8_radial_74_1832" cx="0" cy="0" r="1" gradientUnits="userSpaceOnUse" gradientTransform="translate(22.9804 35.3241) rotate(-93.4159) scale(1.87423 1.87198)">
<stop stop-color="#00B359"/>
<stop offset="0.13" stop-color="#009148"/>
<stop offset="0.34" stop-color="#005D2E"/>
<stop offset="0.54" stop-color="#00351A"/>
<stop offset="0.73" stop-color="#00170B"/>
<stop offset="0.89" stop-color="#000603"/>
<stop offset="1"/>
</radialGradient>
<radialGradient id="paint9_radial_74_1832" cx="0" cy="0" r="1" gradientUnits="userSpaceOnUse" gradientTransform="translate(6.56305 43.2202) rotate(-93.4159) scale(0.937113 0.935991)">
<stop stop-color="#00B359"/>
<stop offset="0.13" stop-color="#009148"/>
<stop offset="0.34" stop-color="#005D2E"/>
<stop offset="0.54" stop-color="#00351A"/>
<stop offset="0.73" stop-color="#00170B"/>
<stop offset="0.89" stop-color="#000603"/>
<stop offset="1"/>
</radialGradient>
<radialGradient id="paint10_radial_74_1832" cx="0" cy="0" r="1" gradientUnits="userSpaceOnUse" gradientTransform="translate(32.638 23.2157) rotate(-93.4159) scale(0.937113 0.93599)">
<stop stop-color="#00B359"/>
<stop offset="0.13" stop-color="#009148"/>
<stop offset="0.34" stop-color="#005D2E"/>
<stop offset="0.54" stop-color="#00351A"/>
<stop offset="0.73" stop-color="#00170B"/>
<stop offset="0.89" stop-color="#000603"/>
<stop offset="1"/>
</radialGradient>
<radialGradient id="paint11_radial_74_1832" cx="0" cy="0" r="1" gradientUnits="userSpaceOnUse" gradientTransform="translate(19.6044 37.724) rotate(-93.4159) scale(0.705591 0.704746)">
<stop stop-color="#00B359"/>
<stop offset="0.13" stop-color="#009148"/>
<stop offset="0.34" stop-color="#005D2E"/>
<stop offset="0.54" stop-color="#00351A"/>
<stop offset="0.73" stop-color="#00170B"/>
<stop offset="0.89" stop-color="#000603"/>
<stop offset="1"/>
</radialGradient>
<radialGradient id="paint12_radial_74_1832" cx="0" cy="0" r="1" gradientUnits="userSpaceOnUse" gradientTransform="translate(30.5153 37.9215) rotate(-93.4159) scale(1.46631 1.46455)">
<stop stop-color="#00B359"/>
<stop offset="0.13" stop-color="#009148"/>
<stop offset="0.34" stop-color="#005D2E"/>
<stop offset="0.54" stop-color="#00351A"/>
<stop offset="0.73" stop-color="#00170B"/>
<stop offset="0.89" stop-color="#000603"/>
<stop offset="1"/>
</radialGradient>
<linearGradient id="paint13_linear_74_1832" x1="3.80531" y1="10.297" x2="56.628" y2="10.297" gradientUnits="userSpaceOnUse">
<stop stop-color="#FF9840"/>
<stop offset="0.1" stop-color="#EE8E3B"/>
<stop offset="0.29" stop-color="#C47531"/>
<stop offset="0.55" stop-color="#804C20"/>
<stop offset="0.88" stop-color="#241509"/>
<stop offset="1"/>
</linearGradient>
</defs>
</svg>
