<svg width="448" height="252" viewBox="0 0 448 252" fill="none" xmlns="http://www.w3.org/2000/svg">
<path d="M336.867 0H0V143.79C0.0390625 82.2488 5.05469 14.7896 16.0586 10.8433C32.4746 4.95093 217.084 0.0178223 336.867 0Z" fill="#050030"/>
<path d="M338.162 0C392.225 0.00805664 432.805 1.02832 438.223 3.42871C444.768 6.33228 447.975 54.605 448 107.318V0H338.162Z" fill="#050030"/>
<path d="M448 109.855C447.969 174.029 443.287 244.244 434.229 247.747C426.611 250.704 342.551 251.984 251.189 252H448V109.855Z" fill="#050030"/>
<path d="M247.65 252C135.955 251.98 14.7168 250.087 9.53711 247.073C3.39648 243.504 0.0332031 197.294 0 146.725V252H247.65Z" fill="#050030"/>
<path d="M16.3981 12.499L16.3985 12.4988C17.7739 12.002 20.556 11.4801 24.6753 10.9576C28.7597 10.4396 34.0673 9.93121 40.4279 9.43591C53.1474 8.44546 70.0405 7.51037 89.7049 6.65502C129.032 4.94441 179.413 3.55398 229.595 2.67628C279.777 1.79857 329.752 1.43373 368.266 1.77387C387.525 1.94396 403.909 2.29024 416.018 2.83621C422.074 3.10926 427.049 3.43175 430.775 3.80565C432.638 3.99267 434.177 4.19137 435.376 4.40078C436.598 4.61426 437.392 4.82686 437.816 5.01583C438.027 5.11007 438.335 5.35944 438.706 5.91135C439.069 6.45212 439.443 7.20783 439.817 8.19166C440.566 10.1583 441.268 12.9058 441.916 16.3531C443.21 23.2391 444.258 32.7646 445.059 44.0727C446.659 66.6798 447.264 96.3012 446.896 125.933C446.528 155.566 445.188 185.181 442.905 207.778C441.764 219.082 440.389 228.598 438.79 235.473C437.99 238.915 437.143 241.654 436.259 243.612C435.817 244.591 435.38 245.344 434.956 245.884C434.528 246.43 434.158 246.702 433.868 246.815L433.867 246.815C433.447 246.978 432.639 247.164 431.391 247.353C430.166 247.539 428.587 247.719 426.67 247.892C422.838 248.239 417.701 248.555 411.439 248.841C398.918 249.414 381.942 249.865 362.01 250.203C322.147 250.88 270.488 251.107 219.061 250.955C167.634 250.803 116.445 250.272 77.5232 249.434C58.0611 249.016 41.6725 248.52 29.8567 247.958C23.9472 247.676 19.1923 247.379 15.7725 247.066C14.061 246.91 12.6983 246.751 11.6986 246.592C11.1981 246.512 10.8027 246.434 10.507 246.359C10.3595 246.322 10.2459 246.288 10.1617 246.258C10.0731 246.227 10.0394 246.209 10.0397 246.209L10.0393 246.209C9.81371 246.077 9.50458 245.777 9.14424 245.193C8.79124 244.62 8.43097 243.843 8.07101 242.853C7.35124 240.875 6.67187 238.158 6.04193 234.781C4.78335 228.034 3.7461 218.789 2.94672 207.86C1.34852 186.011 0.708008 157.53 1.12324 129.062C1.53851 100.592 3.00926 72.1641 5.62735 50.4153C6.93705 39.5355 8.52971 30.3638 10.4089 23.7044C11.3494 20.3715 12.3502 17.7102 13.4004 15.7903C14.4712 13.8329 15.4978 12.8238 16.3981 12.499Z" stroke="url(#paint0_linear_593_7014)" stroke-width="2"/>
<path d="M16.3964 11.7845L16.3966 11.7844C17.7726 11.2905 20.5553 10.7719 24.6745 10.2528C28.759 9.73804 34.0667 9.23283 40.4274 8.74067C53.147 7.75649 70.0402 6.82731 89.7046 5.97733C129.031 4.27746 179.413 2.89562 229.595 2.02307C279.777 1.15052 329.752 0.787402 368.266 1.12454C387.525 1.29311 403.909 1.63672 416.019 2.17867C422.075 2.4497 427.05 2.76985 430.775 3.14109C432.639 3.32677 434.178 3.52407 435.377 3.73202C436.599 3.94401 437.394 4.1552 437.818 4.34306C438.029 4.4369 438.337 4.68463 438.707 5.23235C439.07 5.76942 439.444 6.52022 439.818 7.49809C440.566 9.45289 441.268 12.1843 441.916 15.6122C443.21 22.4593 444.258 31.9316 445.059 43.177C446.659 65.6588 447.264 95.1167 446.896 124.585C446.528 154.054 445.188 183.506 442.905 205.978C441.764 217.219 440.389 226.682 438.791 233.518C437.99 236.94 437.143 239.663 436.26 241.61C435.818 242.583 435.381 243.331 434.958 243.868C434.53 244.41 434.161 244.68 433.87 244.792L433.87 244.792C433.449 244.954 432.641 245.138 431.392 245.326C430.167 245.511 428.587 245.689 426.671 245.861C422.839 246.205 417.701 246.518 411.439 246.802C398.919 247.37 381.942 247.818 362.01 248.154C322.147 248.827 270.488 249.052 219.061 248.902C167.634 248.751 116.445 248.225 77.5231 247.393C58.0609 246.977 41.6723 246.485 29.8564 245.926C23.9469 245.646 19.1919 245.35 15.772 245.039C14.0605 244.884 12.6977 244.726 11.6978 244.567C11.1972 244.487 10.8017 244.41 10.5058 244.336C10.3583 244.299 10.2446 244.265 10.1602 244.235C10.0715 244.204 10.0376 244.186 10.0378 244.186L10.0367 244.185C9.81131 244.055 9.50269 243.757 9.14282 243.177C8.79021 242.608 8.43019 241.836 8.07037 240.853C7.35088 238.887 6.67163 236.185 6.04174 232.828C4.78327 226.12 3.74606 216.927 2.94669 206.06C1.34852 184.332 0.70801 156.01 1.12324 127.699C1.5385 99.3859 3.00924 71.1153 5.62727 49.487C6.93695 38.6674 8.52953 29.5468 10.4085 22.9249C11.3489 19.6108 12.3495 16.9649 13.3993 15.0564C14.4694 13.111 15.4954 12.1077 16.3964 11.7845ZM9.53673 245.051C19.0165 250.54 417.216 252.273 434.229 245.725L9.53673 245.051Z" stroke="url(#paint1_linear_593_7014)" stroke-width="2"/>
<path style="mix-blend-mode:screen" opacity="0.5" d="M25.5137 13.4293C25.5137 13.4293 54.8124 46.9662 143.164 49.2496C231.515 51.5331 295.8 27.873 344.564 19.2755C393.353 10.6643 428.592 5.28578 428.592 5.28578C428.592 5.28578 205.679 -4.08199 25.5137 13.4293Z" fill="url(#paint2_linear_593_7014)"/>
<path d="M17.8294 19.9357C17.8294 19.9357 17.0457 15.5201 20.7365 13.9382C24.4273 12.3562 46.6731 10.2241 47.8359 10.7743C48.9988 11.3245 28.8764 20.6786 17.8294 19.9357Z" fill="white"/>
<path d="M17.7519 22.0403C14.9206 21.6138 14.3392 27.0887 16.8418 27.3088C19.3698 27.5289 20.5832 22.4667 17.7519 22.0403Z" fill="white"/>
<path style="mix-blend-mode:screen" d="M31.3534 240.594C31.3534 240.594 211.393 237.43 273.327 230.773C335.261 224.115 425.711 229.755 431.12 242.3C431.12 242.3 194.076 256.414 31.3281 240.594H31.3534Z" fill="url(#paint3_linear_593_7014)"/>
<path d="M416.826 243.428C417.028 245.024 429.567 242.754 431.716 241.406C433.89 240.044 435.381 234.775 434.244 234.225C433.081 233.675 416.624 241.805 416.826 243.428Z" fill="white"/>
<defs>
<linearGradient id="paint0_linear_593_7014" x1="224.006" y1="251.998" x2="224.006" y2="0.649897" gradientUnits="userSpaceOnUse">
<stop stop-color="#004AC2"/>
<stop offset="1" stop-color="#0083C2"/>
</linearGradient>
<linearGradient id="paint1_linear_593_7014" x1="224.006" y1="249.948" x2="224.006" y2="0.00357549" gradientUnits="userSpaceOnUse">
<stop stop-color="#00EFF1"/>
<stop offset="1" stop-color="#0098FF"/>
</linearGradient>
<linearGradient id="paint2_linear_593_7014" x1="25.5137" y1="26.0985" x2="428.592" y2="26.0985" gradientUnits="userSpaceOnUse">
<stop stop-color="#23786E"/>
<stop offset="0.18" stop-color="#1E675F"/>
<stop offset="0.54" stop-color="#123D38"/>
<stop offset="1"/>
</linearGradient>
<linearGradient id="paint3_linear_593_7014" x1="31.3534" y1="238.022" x2="431.146" y2="238.022" gradientUnits="userSpaceOnUse">
<stop/>
<stop offset="0.46" stop-color="#123D38"/>
<stop offset="0.82" stop-color="#1E675F"/>
<stop offset="1" stop-color="#23786E"/>
</linearGradient>
</defs>
</svg>
