<svg width="71" height="66" viewBox="0 0 71 66" fill="none" xmlns="http://www.w3.org/2000/svg">
<path opacity="0.1" d="M64.7882 57.7452C64.6652 57.8777 64.5217 58.0103 64.3577 58.1326C52.2238 67.9924 18.794 67.6457 4.14919 58.7852C3.38057 58.3264 2.86816 57.8369 2.6222 57.3271C-2.57367 46.5701 0.244602 14.1972 8.49446 7.19238C17.349 -0.312025 51.3937 -3.70736 62.3286 5.83629C70.353 12.8309 74.1756 47.9364 64.7882 57.7452Z" fill="#3C3E48"/>
<path d="M62.8026 56.5434C62.687 56.6686 62.5522 56.7938 62.3982 56.9093C50.997 66.2209 19.5862 65.8935 5.82585 57.5256C5.10365 57.0923 4.62218 56.6301 4.39108 56.1486C-0.490991 45.9897 2.15708 15.4165 9.90869 8.80118C18.2284 1.71399 50.2171 -1.49258 60.4916 7.52048C68.0313 14.1262 71.6231 47.28 62.8026 56.5434Z" fill="url(#paint0_linear_89_2632)"/>
<path d="M4.38962 54.1392C9.09836 63.9418 53.1044 64.7218 62.8011 54.534C71.6216 45.2705 68.0299 12.1168 60.4901 5.51103C50.2156 -3.50202 18.227 -0.295457 9.90722 6.80136C2.15561 13.4071 -0.492456 43.9802 4.38962 54.1392Z" fill="url(#paint1_radial_89_2632)"/>
<g style="mix-blend-mode:multiply" filter="url(#filter0_f_89_2632)">
<path d="M39.9181 21.8961C43.2021 21.8961 45.8642 19.233 45.8642 15.948C45.8642 12.663 43.2021 10 39.9181 10C36.6342 10 33.9721 12.663 33.9721 15.948C33.9721 19.233 36.6342 21.8961 39.9181 21.8961Z" fill="#CED6FF"/>
<path d="M26.3997 16.7545C23.1157 16.7545 20.4537 19.4174 20.4537 22.7025C20.4537 22.9549 20.4712 23.203 20.5017 23.4471H32.2977C32.3281 23.2031 32.3457 22.9549 32.3457 22.7025C32.3457 19.4175 29.6837 16.7545 26.3997 16.7545Z" fill="#CED6FF"/>
<path d="M38.114 33.367H50.913V28.4472C50.913 27.2379 49.933 26.2577 48.7242 26.2577H14.1888C12.9799 26.2577 12 27.2381 12 28.4472V53.8105C12 55.0198 12.9799 56 14.1888 56H48.7242C49.9331 56 50.913 55.0197 50.913 53.8105V48.8907H38.114C35.4773 48.8907 33.3321 46.7449 33.3321 44.1073V38.1504C33.332 35.5128 35.4771 33.367 38.114 33.367Z" fill="#CED6FF"/>
<path d="M52.2069 36.3567H38.114C37.1236 36.3567 36.3208 37.1597 36.3208 38.1504V44.1073C36.3208 45.098 37.1236 45.901 38.114 45.901H52.2069C53.1972 45.901 54 45.098 54 44.1073V38.1504C54 37.1597 53.1971 36.3567 52.2069 36.3567ZM41.0804 43.2343C39.918 43.2343 38.9756 42.2917 38.9756 41.1289C38.9756 39.966 39.918 39.0234 41.0804 39.0234C42.2429 39.0234 43.1852 39.966 43.1852 41.1289C43.1852 42.2917 42.2429 43.2343 41.0804 43.2343Z" fill="#CED6FF"/>
</g>
<path d="M41.9181 19.8961C45.2021 19.8961 47.8642 17.233 47.8642 13.948C47.8642 10.663 45.2021 8 41.9181 8C38.6342 8 35.9721 10.663 35.9721 13.948C35.9721 17.233 38.6342 19.8961 41.9181 19.8961Z" fill="white"/>
<path d="M28.3997 14.7545C25.1157 14.7545 22.4537 17.4174 22.4537 20.7025C22.4537 20.9549 22.4712 21.203 22.5017 21.4471H34.2977C34.3281 21.2031 34.3457 20.9549 34.3457 20.7025C34.3457 17.4175 31.6837 14.7545 28.3997 14.7545Z" fill="white"/>
<path d="M40.114 31.367H52.913V26.4472C52.913 25.2379 51.933 24.2577 50.7242 24.2577H16.1888C14.9799 24.2577 14 25.2381 14 26.4472V51.8105C14 53.0198 14.9799 54 16.1888 54H50.7242C51.9331 54 52.913 53.0197 52.913 51.8105V46.8907H40.114C37.4773 46.8907 35.3321 44.7449 35.3321 42.1073V36.1504C35.332 33.5128 37.4771 31.367 40.114 31.367Z" fill="white"/>
<path d="M54.2069 34.3567H40.114C39.1236 34.3567 38.3208 35.1597 38.3208 36.1504V42.1073C38.3208 43.098 39.1236 43.901 40.114 43.901H54.2069C55.1972 43.901 56 43.098 56 42.1073V36.1504C56 35.1597 55.1971 34.3567 54.2069 34.3567ZM43.0804 41.2343C41.918 41.2343 40.9756 40.2917 40.9756 39.1289C40.9756 37.966 41.918 37.0234 43.0804 37.0234C44.2429 37.0234 45.1852 37.966 45.1852 39.1289C45.1852 40.2917 44.2429 41.2343 43.0804 41.2343Z" fill="white"/>
<path style="mix-blend-mode:screen" d="M9.5 8.50001C9.5 8.50001 22.5 -4 57 4C57 4 68 14 65.0251 20.7287C65.0251 20.7287 66 23 62 25C60.993 17.767 48 9.70387 39 7.70346C30.5 7.70346 8 10.5 8 10.5L9.5 8.50001Z" fill="url(#paint2_linear_89_2632)"/>
<path d="M7 11.5377C7 11.5377 8.47329 8.51406 11.8821 6.89633C15.3005 5.27861 25.0165 3.65125 25.575 4.06531C26.1239 4.47937 20.8373 6.38598 18.1026 7.39706C15.3679 8.40814 8.39625 12.3176 7 11.5473V11.5377Z" fill="white"/>
<path style="mix-blend-mode:screen" d="M62.3114 54.1143C62.3114 54.1143 58.5002 58.1686 51.0002 59.5C47.2765 60.161 42.93 61.0465 42.5002 60.5C42.0796 59.9561 47.6061 55.4426 50.5105 55.1869C53.4149 54.9312 61.1697 52.9944 62.314 54.1051L62.3114 54.1143Z" fill="url(#paint3_linear_89_2632)"/>
<path d="M7.35415 13.0096C6.65121 13.1156 4.89867 18.5658 5.0046 19.4613C5.11052 20.3568 7.21934 17.5258 7.54674 16.014C7.87414 14.5118 7.35415 13 7.35415 13V13.0096Z" fill="white"/>
<path style="mix-blend-mode:screen" d="M63.4504 52.0184C64.1597 51.9703 66.3521 46.6817 66.3198 45.7805C66.2875 44.8793 63.9542 47.5284 63.5042 49.0083C63.055 50.4787 63.4496 52.028 63.4496 52.028L63.4504 52.0184Z" fill="url(#paint4_linear_89_2632)"/>
<path d="M60.0316 54.7213C59.6223 53.6892 63.3061 48.9776 64.246 49.0001C65.1859 49.0225 64.3521 52.0963 63.776 52.8142C63.2151 53.5322 60.2287 55.2373 60.0316 54.7213Z" fill="white"/>
<defs>
<filter id="filter0_f_89_2632" x="11" y="9" width="44" height="48" filterUnits="userSpaceOnUse" color-interpolation-filters="sRGB">
<feFlood flood-opacity="0" result="BackgroundImageFix"/>
<feBlend mode="normal" in="SourceGraphic" in2="BackgroundImageFix" result="shape"/>
<feGaussianBlur stdDeviation="0.5" result="effect1_foregroundBlur_89_2632"/>
</filter>
<linearGradient id="paint0_linear_89_2632" x1="38.1867" y1="63.8469" x2="38.1867" y2="2.00905" gradientUnits="userSpaceOnUse">
<stop stop-color="#C26900"/>
<stop offset="1" stop-color="#923D00"/>
</linearGradient>
<radialGradient id="paint1_radial_89_2632" cx="0" cy="0" r="1" gradientUnits="userSpaceOnUse" gradientTransform="translate(35.7326 57.4711) scale(25.3388 75.8087)">
<stop stop-color="#FFBD00"/>
<stop offset="1" stop-color="#FF772C"/>
</radialGradient>
<linearGradient id="paint2_linear_89_2632" x1="11.6763" y1="13.8808" x2="57.9957" y2="13.8808" gradientUnits="userSpaceOnUse">
<stop stop-color="#7ED140"/>
<stop offset="0.11" stop-color="#74C03B"/>
<stop offset="0.34" stop-color="#5A962E"/>
<stop offset="0.65" stop-color="#315219"/>
<stop offset="1"/>
</linearGradient>
<linearGradient id="paint3_linear_89_2632" x1="59.6276" y1="56.9107" x2="45.5878" y2="53.0805" gradientUnits="userSpaceOnUse">
<stop stop-color="#7ED140"/>
<stop offset="0.11" stop-color="#74C03B"/>
<stop offset="0.34" stop-color="#5A962E"/>
<stop offset="0.65" stop-color="#315219"/>
<stop offset="1"/>
</linearGradient>
<linearGradient id="paint4_linear_89_2632" x1="65.8257" y1="48.6257" x2="63.757" y2="48.4559" gradientUnits="userSpaceOnUse">
<stop stop-color="#7ED140"/>
<stop offset="0.11" stop-color="#74C03B"/>
<stop offset="0.34" stop-color="#5A962E"/>
<stop offset="0.65" stop-color="#315219"/>
<stop offset="1"/>
</linearGradient>
</defs>
</svg>
