<svg width="80" height="69" viewBox="0 0 80 69" fill="none" xmlns="http://www.w3.org/2000/svg">
<path d="M1.32168 55.8499C4.03972 66.4674 71.9369 74.4573 77.5614 63.4377C82.6745 53.41 78.8262 12.4683 74.4396 5.30948C68.4923 -4.45005 9.74492 2.38698 4.9278 10.082C0.433612 17.2408 -1.504 44.857 1.32168 55.8499Z" fill="url(#paint0_radial_426_7681)"/>
<path d="M1.53703 53.9731C4.25507 64.2153 71.7486 69.953 77.3461 59.3087C82.4323 49.6296 78.6648 12.6292 74.3051 5.71172C68.3847 -3.67244 9.85262 2.92328 5.06241 10.3234C0.568225 17.2408 -1.26174 43.3556 1.53703 53.9731Z" fill="url(#paint1_linear_426_7681)"/>
<path d="M2.37107 53.0884C5.03529 63.0357 71.1025 68.7466 76.5924 58.424C81.571 49.0398 77.8303 12.9779 73.5783 6.27488C67.7655 -2.86798 10.4983 3.54007 5.7888 10.7257C1.40226 17.4286 -0.400793 42.7659 2.37107 53.0884Z" fill="url(#paint2_linear_426_7681)"/>
<path d="M66 26.3653V50.431C66 51.2978 65.3112 52.0001 64.4616 52.0001H16.5386C15.6888 52.0001 15 51.2979 15 50.431V26.3653C15 25.4984 15.6888 24.7964 16.5386 24.7964H20.0516L19.6597 27.8529C19.58 28.4705 19.7901 29.1024 20.224 29.5479C20.5989 29.9303 21.098 30.1412 21.6277 30.1412L22.8993 29.9729C22.5707 31.6552 21.1156 32.9229 19.3691 32.9229C18.9135 32.9229 18.4787 32.8319 18.0766 32.675V43.8799C18.4778 43.7224 18.9129 43.6324 19.3691 43.6324C21.3577 43.6324 22.9701 45.276 22.9701 47.3032C22.9701 47.8614 22.8444 48.3884 22.6254 48.8616H58.2805C58.0631 48.3879 57.9358 47.8607 57.9358 47.3032C57.9358 45.2765 59.5475 43.6324 61.5368 43.6324C62.0273 43.6324 62.4949 43.7328 62.9215 43.9143V32.6413C62.4948 32.8227 62.0271 32.9235 61.5368 32.9235C59.5486 32.9235 57.9358 31.2802 57.9358 29.2527C57.9358 28.7876 58.0245 28.3439 58.1798 27.9342H36.5159C36.9505 27.6186 37.2541 27.1308 37.328 26.5743C37.4231 25.9007 37.1778 25.2395 36.7068 24.7964H50.4603C49.9217 23.8236 49.2606 22.9144 48.4684 22.1062C43.873 17.421 36.5093 17.2653 31.7138 21.6116L29.8601 23.5018L35.3738 25.9397C35.5592 26.0212 35.668 26.2191 35.6391 26.4224C35.612 26.6258 35.4537 26.7851 35.2539 26.8115L21.5214 28.6419C21.3834 28.66 21.2456 28.6138 21.1466 28.512C21.0486 28.4115 21.0017 28.2703 21.0198 28.1305L22.8151 14.1284C22.828 14.0248 22.8739 13.9344 22.9419 13.8649C23.0089 13.7955 23.0975 13.7493 23.1959 13.7349C23.3954 13.7058 23.5898 13.817 23.6703 14.0057L26.0609 19.6273L27.4075 18.2625L27.3877 18.2417C27.8672 17.7523 28.3714 17.3004 28.8892 16.88C29.2315 16.5976 29.6218 16.2924 29.9456 16.0875C36.7861 11.3488 46.2006 12.0637 52.2583 18.2416C54.1023 20.1212 55.4762 22.3634 56.3428 24.7964H64.4616C65.3095 24.7964 66 25.4984 66 26.3653ZM33.0886 43.8517H36.049C34.602 42.5672 33.683 40.6798 33.683 38.5697C33.683 36.2615 34.7822 34.22 36.4718 32.943H33.0887V29.4916H47.9109V32.943H44.64C46.3289 34.22 47.4275 36.2614 47.4275 38.5697C47.4275 40.6798 46.5104 42.5667 45.0632 43.8517H47.911V47.3032H33.0886V43.8517ZM39.4093 38.7701C38.196 39.3248 37.3498 40.5634 37.3498 42.0071H44.3093C44.3093 40.4787 43.3608 39.1809 42.0338 38.6819C42.7321 38.2193 43.1952 37.4171 43.1952 36.5046C43.1952 35.0725 42.0553 33.9099 40.6506 33.9099C39.2454 33.9099 38.1056 35.0725 38.1056 36.5046C38.1043 37.4804 38.6312 38.3265 39.4093 38.7701Z" fill="#0029FE"/>
<path style="mix-blend-mode:screen" d="M75.2736 58.5848C75.2736 58.5848 43.5183 63.4377 5.73486 54.7239C5.73486 54.7239 30.278 58.692 41.177 54.7239C59.7189 47.9673 70.4027 50.997 75.2736 58.5848Z" fill="url(#paint3_linear_426_7681)"/>
<path style="mix-blend-mode:screen" d="M23.3891 19.3591C24.4386 19.3055 25.3536 20.1098 25.4074 21.1555C25.4613 22.2012 24.6539 23.1128 23.6044 23.1664C22.5548 23.22 21.6399 22.4157 21.586 21.37C21.5322 20.3243 22.3396 19.4127 23.3891 19.3591Z" fill="url(#paint4_radial_426_7681)"/>
<path d="M23.6314 20.7266C23.9274 20.7266 24.1696 20.9411 24.1965 21.236C24.2234 21.5309 23.9812 21.7722 23.7121 21.799C23.443 21.8258 23.1739 21.5845 23.147 21.2896C23.147 20.9947 23.3623 20.7534 23.6583 20.7266H23.6314Z" fill="#FFFFAB"/>
<path style="mix-blend-mode:screen" d="M25.9994 11.1546C27.049 11.101 27.964 11.9054 28.0178 12.951C28.0716 13.9967 27.2643 14.9083 26.2147 14.9619C25.1652 15.0155 24.2502 14.2112 24.1964 13.1655C24.1426 12.1199 24.9499 11.2083 25.9994 11.1546Z" fill="url(#paint5_radial_426_7681)"/>
<path d="M26.2149 12.5221C26.5109 12.5221 26.7531 12.7366 26.78 13.0047C26.78 13.2996 26.5647 13.5409 26.2956 13.5678C26.0265 13.5946 25.7574 13.3533 25.7305 13.0851C25.7305 12.7902 25.9458 12.5489 26.2418 12.5221H26.2149Z" fill="#FFFFAB"/>
<path style="mix-blend-mode:screen" d="M24.4653 34.6687C25.5148 34.615 26.4298 35.4194 26.4836 36.4651C26.5374 37.5107 25.7301 38.4223 24.6806 38.476C23.631 38.5296 22.716 37.7252 22.6622 36.6796C22.6084 35.6339 23.4157 34.7223 24.4653 34.6687Z" fill="url(#paint6_radial_426_7681)"/>
<path d="M24.6807 36.0361C24.9768 36.0361 25.219 36.2506 25.2459 36.5456C25.2728 36.8405 25.0306 37.0818 24.7346 37.1086C24.4385 37.1086 24.1963 36.8941 24.1694 36.5992C24.1694 36.3043 24.3847 36.0629 24.6538 36.0361H24.6807Z" fill="#FFFFAB"/>
<path style="mix-blend-mode:screen" d="M15.4501 6.97199C18.4104 6.78431 20.94 9.0365 21.1284 11.9858C21.3168 14.9351 19.0562 17.4554 16.096 17.6431C13.1357 17.8308 10.6061 15.5786 10.4177 12.6293C10.2293 9.67999 12.4899 7.15967 15.4501 6.97199Z" fill="url(#paint7_radial_426_7681)"/>
<path d="M16.096 10.8061C16.9033 10.7525 17.6299 11.3692 17.6569 12.2003C17.7107 13.0047 17.0917 13.7286 16.2575 13.7554C15.4501 13.809 14.7235 13.1924 14.6966 12.3612C14.6428 11.5568 15.2618 10.8329 16.096 10.8061Z" fill="#FFFFAB"/>
<path style="mix-blend-mode:screen" d="M30.7358 47.7529C32.1352 47.6725 33.3731 48.7449 33.4538 50.1392C33.5346 51.5334 32.4581 52.7667 31.0587 52.8472C29.6593 52.9276 28.4214 51.8551 28.3407 50.4609C28.26 49.0667 29.3364 47.8333 30.7358 47.7529Z" fill="url(#paint8_radial_426_7681)"/>
<path d="M31.0585 49.5762C31.4622 49.5762 31.7851 49.8443 31.812 50.2465C31.839 50.6486 31.5429 50.9704 31.1393 50.9972C30.7356 50.9972 30.4127 50.7291 30.3857 50.3269C30.3857 49.9247 30.6549 49.603 31.0585 49.5762Z" fill="#FFFFAB"/>
<path style="mix-blend-mode:screen" d="M7.99571 54.4827C8.69541 54.4291 9.31437 54.9653 9.34128 55.6892C9.36819 56.4132 8.85687 57.003 8.13027 57.0298C7.40367 57.0566 6.81162 56.5472 6.78471 55.8233C6.75779 55.0994 7.26911 54.5095 7.99571 54.4827Z" fill="url(#paint9_radial_426_7681)"/>
<path d="M8.15741 55.3943C8.34579 55.3943 8.50725 55.5283 8.53417 55.716C8.53417 55.9037 8.39961 56.0914 8.21123 56.0914C8.02285 56.0914 7.83447 55.9573 7.83447 55.7697C7.83447 55.582 7.96903 55.3943 8.15741 55.3943Z" fill="#FFFFAB"/>
<path style="mix-blend-mode:screen" d="M43.9759 32.5773C44.6756 32.5237 45.2946 33.0599 45.3215 33.7838C45.3753 34.4809 44.8371 35.0976 44.1105 35.1244C43.3839 35.1512 42.7919 34.6418 42.7649 33.9179C42.7111 33.2208 43.2493 32.6041 43.9759 32.5773Z" fill="url(#paint10_radial_426_7681)"/>
<path d="M44.1374 33.4889C44.3258 33.4889 44.4872 33.623 44.5141 33.8106C44.5141 33.9983 44.3796 34.1592 44.1912 34.186C44.0028 34.186 43.8414 34.0519 43.8145 33.8643C43.8145 33.6766 43.949 33.4889 44.1374 33.4889Z" fill="#FFFFAB"/>
<path style="mix-blend-mode:screen" d="M26.2149 52.6059C26.7531 52.5791 27.1837 52.9812 27.2375 53.4907C27.2644 54.0269 26.8608 54.4559 26.3495 54.5095C25.8112 54.5363 25.3806 54.1342 25.3268 53.6247C25.273 53.1153 25.7036 52.6595 26.2149 52.6059Z" fill="url(#paint11_radial_426_7681)"/>
<path d="M26.3228 53.2761C26.4573 53.2761 26.5919 53.3834 26.5919 53.5174C26.5919 53.6515 26.4842 53.7855 26.3497 53.7855C26.2151 53.7855 26.0806 53.6783 26.0806 53.5442C26.0806 53.4102 26.1882 53.2761 26.3228 53.2761Z" fill="#FFFFAB"/>
<path style="mix-blend-mode:screen" d="M41.043 51.8283C42.1464 51.7746 43.0883 52.6058 43.169 53.7051C43.2228 54.8044 42.3886 55.7428 41.2852 55.8232C40.1818 55.9037 39.2399 55.0457 39.1592 53.9464C39.1054 52.8471 39.9396 51.9087 41.043 51.8283Z" fill="url(#paint12_radial_426_7681)"/>
<path d="M41.2852 53.2493C41.5813 53.2493 41.8504 53.4638 41.8773 53.7587C41.8773 54.0536 41.662 54.3217 41.366 54.3486C41.07 54.3486 40.8008 54.1341 40.7739 53.8391C40.7739 53.5442 40.9892 53.2761 41.2852 53.2493Z" fill="#FFFFAB"/>
<path d="M73.5245 60.5152C73.1746 59.3891 76.2156 54.1876 76.9691 54.2145C77.7227 54.2145 77.0499 57.6196 76.5924 58.4239C76.1349 59.2283 73.686 61.0783 73.5245 60.5152Z" fill="white"/>
<path style="mix-blend-mode:screen" d="M6.73096 10.5379C6.73096 10.5379 50.4618 -6.21953 73.7132 6.40887C73.7132 6.40887 75.7584 11.2082 76.7003 18.7423C76.7003 18.7423 69.3535 27.2685 55.4404 28.2338C43.4649 29.0381 31.8123 13.809 21.6936 11.9321C11.6019 10.0553 6.73096 10.5379 6.73096 10.5379Z" fill="url(#paint13_linear_426_7681)"/>
<path d="M5.84286 13.5676C5.00861 13.7017 2.90953 20.1902 3.01717 21.2626C3.15173 22.3351 5.68139 18.9568 6.05815 17.1604C6.43491 15.364 5.81595 13.5676 5.81595 13.5676H5.84286Z" fill="white"/>
<path d="M6.19267 12.522C5.17004 12.1198 6.9731 9.35815 8.53395 8.66104C10.0948 7.96393 13.9162 7.18639 14.3468 7.8835C14.7774 8.60742 7.34986 12.9509 6.19267 12.522Z" fill="white"/>
<defs>
<radialGradient id="paint0_radial_426_7681" cx="0" cy="0" r="1" gradientUnits="userSpaceOnUse" gradientTransform="translate(40.5112 81.2584) scale(38.6955 48.7362)">
<stop stop-color="#008CCA"/>
<stop offset="1" stop-color="#003BF1"/>
</radialGradient>
<linearGradient id="paint1_linear_426_7681" x1="40.0202" y1="65.0196" x2="40.0202" y2="1.07326" gradientUnits="userSpaceOnUse">
<stop stop-color="#92FFF1"/>
<stop offset="1" stop-color="#0098FF"/>
</linearGradient>
<linearGradient id="paint2_linear_426_7681" x1="40.02" y1="63.8936" x2="40.02" y2="1.74367" gradientUnits="userSpaceOnUse">
<stop stop-color="#00EFF1"/>
<stop offset="1" stop-color="#0098FF"/>
</linearGradient>
<linearGradient id="paint3_linear_426_7681" x1="75.2736" y1="55.4746" x2="5.73486" y2="55.4746" gradientUnits="userSpaceOnUse">
<stop stop-color="#40FF79"/>
<stop offset="0.1" stop-color="#3BEE71"/>
<stop offset="0.29" stop-color="#31C45D"/>
<stop offset="0.56" stop-color="#20803D"/>
<stop offset="0.88" stop-color="#092411"/>
<stop offset="1"/>
</linearGradient>
<radialGradient id="paint4_radial_426_7681" cx="0" cy="0" r="1" gradientUnits="userSpaceOnUse" gradientTransform="translate(23.4665 21.2376) rotate(-93.4326) scale(1.90367 1.91067)">
<stop stop-color="#00B359"/>
<stop offset="0.13" stop-color="#009148"/>
<stop offset="0.34" stop-color="#005D2E"/>
<stop offset="0.54" stop-color="#00351A"/>
<stop offset="0.73" stop-color="#00170B"/>
<stop offset="0.89" stop-color="#000603"/>
<stop offset="1"/>
</radialGradient>
<radialGradient id="paint5_radial_426_7681" cx="0" cy="0" r="1" gradientUnits="userSpaceOnUse" gradientTransform="translate(26.0758 13.0511) rotate(-93.4326) scale(1.90367 1.91068)">
<stop stop-color="#00B359"/>
<stop offset="0.13" stop-color="#009148"/>
<stop offset="0.34" stop-color="#005D2E"/>
<stop offset="0.54" stop-color="#00351A"/>
<stop offset="0.73" stop-color="#00170B"/>
<stop offset="0.89" stop-color="#000603"/>
<stop offset="1"/>
</radialGradient>
<radialGradient id="paint6_radial_426_7681" cx="0" cy="0" r="1" gradientUnits="userSpaceOnUse" gradientTransform="translate(24.5205 36.5654) rotate(-93.4326) scale(1.90367 1.91068)">
<stop stop-color="#00B359"/>
<stop offset="0.13" stop-color="#009148"/>
<stop offset="0.34" stop-color="#005D2E"/>
<stop offset="0.54" stop-color="#00351A"/>
<stop offset="0.73" stop-color="#00170B"/>
<stop offset="0.89" stop-color="#000603"/>
<stop offset="1"/>
</radialGradient>
<radialGradient id="paint7_radial_426_7681" cx="0" cy="0" r="1" gradientUnits="userSpaceOnUse" gradientTransform="translate(15.7035 12.272) rotate(-93.4326) scale(5.33564 5.35527)">
<stop stop-color="#00B359"/>
<stop offset="0.13" stop-color="#009148"/>
<stop offset="0.34" stop-color="#005D2E"/>
<stop offset="0.54" stop-color="#00351A"/>
<stop offset="0.73" stop-color="#00170B"/>
<stop offset="0.89" stop-color="#000603"/>
<stop offset="1"/>
</radialGradient>
<radialGradient id="paint8_radial_426_7681" cx="0" cy="0" r="1" gradientUnits="userSpaceOnUse" gradientTransform="translate(30.842 50.2635) rotate(-93.4326) scale(2.54717 2.55654)">
<stop stop-color="#00B359"/>
<stop offset="0.13" stop-color="#009148"/>
<stop offset="0.34" stop-color="#005D2E"/>
<stop offset="0.54" stop-color="#00351A"/>
<stop offset="0.73" stop-color="#00170B"/>
<stop offset="0.89" stop-color="#000603"/>
<stop offset="1"/>
</radialGradient>
<radialGradient id="paint9_radial_426_7681" cx="0" cy="0" r="1" gradientUnits="userSpaceOnUse" gradientTransform="translate(8.03882 55.7308) rotate(-93.4326) scale(1.28699 1.29172)">
<stop stop-color="#00B359"/>
<stop offset="0.13" stop-color="#009148"/>
<stop offset="0.34" stop-color="#005D2E"/>
<stop offset="0.54" stop-color="#00351A"/>
<stop offset="0.73" stop-color="#00170B"/>
<stop offset="0.89" stop-color="#000603"/>
<stop offset="1"/>
</radialGradient>
<radialGradient id="paint10_radial_426_7681" cx="0" cy="0" r="1" gradientUnits="userSpaceOnUse" gradientTransform="translate(44.0107 33.847) rotate(-93.4326) scale(1.28699 1.29172)">
<stop stop-color="#00B359"/>
<stop offset="0.13" stop-color="#009148"/>
<stop offset="0.34" stop-color="#005D2E"/>
<stop offset="0.54" stop-color="#00351A"/>
<stop offset="0.73" stop-color="#00170B"/>
<stop offset="0.89" stop-color="#000603"/>
<stop offset="1"/>
</radialGradient>
<radialGradient id="paint11_radial_426_7681" cx="0" cy="0" r="1" gradientUnits="userSpaceOnUse" gradientTransform="translate(26.2403 53.5459) rotate(-93.4327) scale(0.938427 0.941883)">
<stop stop-color="#00B359"/>
<stop offset="0.13" stop-color="#009148"/>
<stop offset="0.34" stop-color="#005D2E"/>
<stop offset="0.54" stop-color="#00351A"/>
<stop offset="0.73" stop-color="#00170B"/>
<stop offset="0.89" stop-color="#000603"/>
<stop offset="1"/>
</radialGradient>
<radialGradient id="paint12_radial_426_7681" cx="0" cy="0" r="1" gradientUnits="userSpaceOnUse" gradientTransform="translate(41.1363 53.787) rotate(-93.4327) scale(1.98411 1.99141)">
<stop stop-color="#00B359"/>
<stop offset="0.13" stop-color="#009148"/>
<stop offset="0.34" stop-color="#005D2E"/>
<stop offset="0.54" stop-color="#00351A"/>
<stop offset="0.73" stop-color="#00170B"/>
<stop offset="0.89" stop-color="#000603"/>
<stop offset="1"/>
</radialGradient>
<linearGradient id="paint13_linear_426_7681" x1="6.73096" y1="14.9887" x2="76.7003" y2="14.9887" gradientUnits="userSpaceOnUse">
<stop stop-color="#7ED140"/>
<stop offset="0.11" stop-color="#74C03B"/>
<stop offset="0.34" stop-color="#5A962E"/>
<stop offset="0.65" stop-color="#315219"/>
<stop offset="1"/>
</linearGradient>
</defs>
</svg>
