<svg width="196" height="59" viewBox="0 0 196 59" fill="none" xmlns="http://www.w3.org/2000/svg">
<path d="M2.35337 50.3328C7.19547 59.9825 180.675 62.6978 190.667 52.6666C199.757 43.5443 196.059 10.8925 188.29 4.38452C177.703 -4.49095 17.3199 1.73646 8.75815 8.71566C0.746677 15.2236 -2.6648 40.324 2.35337 50.3328Z" fill="url(#paint0_radial_74_1557)"/>
<path d="M2.35337 50.3328C7.19547 59.9825 180.675 62.6978 190.667 52.6666C199.757 43.5443 196.059 10.8925 188.29 4.38452C177.703 -4.49095 17.3199 1.73646 8.75815 8.71566C0.746677 15.2236 -2.6648 40.324 2.35337 50.3328Z" fill="url(#paint1_radial_74_1557)"/>
<path d="M2.74964 48.6272C7.56973 57.9403 180.345 58.6023 190.293 48.919C199.339 40.1221 195.773 11.0383 188.048 4.76602C177.505 -3.78405 17.518 2.21895 8.97834 8.9513C1.01088 15.2236 -2.26854 38.9776 2.74964 48.6272Z" fill="url(#paint2_linear_74_1557)"/>
<path d="M4.20221 47.7969C8.93427 56.8295 179.178 57.4803 188.906 48.0887C197.754 39.5498 194.277 11.3301 186.705 5.23729C176.383 -3.05471 18.6405 2.76877 10.2989 9.29914C2.50748 15.3919 -0.705914 38.439 4.20221 47.7969Z" fill="url(#paint3_linear_74_1557)"/>
<path style="mix-blend-mode:screen" d="M186.595 48.257C186.595 48.257 77.296 57.2334 10.2109 49.3117C10.2109 49.3117 53.7898 52.9247 73.1803 49.3117C106.107 43.1853 177.946 41.3675 186.595 48.257Z" fill="url(#paint4_linear_74_1557)"/>
<path style="mix-blend-mode:screen" d="M41.5523 17.1535C43.4231 17.0974 45.0298 17.8268 45.1619 18.7805C45.2719 19.7343 43.8413 20.5646 41.9705 20.6207C40.0997 20.6768 38.493 19.9475 38.3609 18.9937C38.2509 18.04 39.6815 17.2096 41.5523 17.1535Z" fill="url(#paint5_radial_74_1557)"/>
<path d="M41.9486 18.399C42.4769 18.3878 42.9171 18.5898 42.9391 18.8478C42.9611 19.1171 42.5649 19.3415 42.0587 19.3528C41.5305 19.364 41.0903 19.162 41.0683 18.9039C41.0462 18.6346 41.4424 18.4102 41.9486 18.399Z" fill="#FFFFAB"/>
<path style="mix-blend-mode:screen" d="M46.1744 9.7031C48.0452 9.647 49.6519 10.3763 49.7839 11.3301C49.894 12.2838 48.4634 13.1029 46.5926 13.1703C44.7217 13.2264 43.1151 12.497 42.983 11.5433C42.8729 10.5895 44.3036 9.77043 46.1744 9.7031Z" fill="url(#paint6_radial_74_1557)"/>
<path d="M46.5707 10.9486C47.0989 10.9373 47.5391 11.1393 47.5611 11.3974C47.5832 11.6667 47.187 11.8911 46.6808 11.9023C46.1525 11.9135 45.7123 11.7116 45.6903 11.4535C45.6683 11.1842 46.0645 10.9598 46.5707 10.9486Z" fill="#FFFFAB"/>
<path style="mix-blend-mode:screen" d="M43.4454 31.0783C45.3162 31.0222 46.9229 31.7515 47.0549 32.7053C47.165 33.659 45.7344 34.4781 43.8636 34.5454C41.9927 34.6015 40.3861 33.8722 40.254 32.9185C40.1439 31.9647 41.5746 31.1456 43.4454 31.0783Z" fill="url(#paint7_radial_74_1557)"/>
<path d="M43.8637 32.3238C44.3919 32.3126 44.8321 32.5146 44.8541 32.7726C44.8761 33.0419 44.4799 33.2663 43.9737 33.2776C43.4455 33.2888 43.0053 33.0868 42.9833 32.8287C42.9613 32.5707 43.3575 32.335 43.8637 32.3238Z" fill="#FFFFAB"/>
<path style="mix-blend-mode:screen" d="M27.4223 5.88807C32.6825 5.73098 37.1945 7.77312 37.5026 10.4436C37.8108 13.1253 33.805 15.4256 28.5668 15.5826C23.3065 15.7397 18.7945 13.6976 18.4864 11.0271C18.1782 8.34537 22.184 6.04515 27.4223 5.88807Z" fill="url(#paint8_radial_74_1557)"/>
<path d="M28.5667 9.3777C30.0193 9.33282 31.2739 9.89385 31.3619 10.6344C31.4499 11.375 30.3495 12.0145 28.8968 12.0594C27.4442 12.1043 26.1897 11.5433 26.1016 10.8027C26.0136 10.0622 27.1141 9.42258 28.5667 9.3777Z" fill="#FFFFAB"/>
<path style="mix-blend-mode:screen" d="M54.5822 42.9608C57.0913 42.8823 59.2483 43.8585 59.4023 45.1376C59.5564 46.4168 57.6416 47.5164 55.1325 47.5949C52.6234 47.6735 50.4665 46.6973 50.3124 45.4182C50.1583 44.139 52.0732 43.0394 54.5822 42.9608Z" fill="url(#paint9_radial_74_1557)"/>
<path d="M55.1325 44.6215C55.8368 44.599 56.431 44.8683 56.4751 45.2274C56.5191 45.5865 55.9909 45.8894 55.2866 45.9118C54.5822 45.9343 53.988 45.665 53.944 45.3059C53.8999 44.9469 54.4282 44.6439 55.1325 44.6215Z" fill="#FFFFAB"/>
<path style="mix-blend-mode:screen" d="M14.1943 49.0761C15.4489 49.0424 16.5273 49.5249 16.5934 50.1645C16.6594 50.804 15.713 51.3538 14.4584 51.3875C13.2039 51.4212 12.1254 50.9387 12.0594 50.2991C11.9934 49.6595 12.9398 49.1097 14.1943 49.0761Z" fill="url(#paint10_radial_74_1557)"/>
<path d="M14.4805 49.9064C14.8326 49.9064 15.1188 50.0298 15.1408 50.2093C15.1408 50.3889 14.8987 50.5347 14.5465 50.5459C14.1944 50.5459 13.9082 50.4225 13.8862 50.243C13.8862 50.0635 14.1283 49.9176 14.4805 49.9064Z" fill="#FFFFAB"/>
<path style="mix-blend-mode:screen" d="M78.1104 29.1708C79.3649 29.1371 80.4434 29.6196 80.5094 30.2592C80.5754 30.8988 79.629 31.4486 78.3745 31.4822C77.1199 31.5159 76.0415 31.0334 75.9754 30.3938C75.9094 29.7543 76.8558 29.2044 78.1104 29.1708Z" fill="url(#paint11_radial_74_1557)"/>
<path d="M78.3965 30.0011C78.7487 30.0011 79.0348 30.1245 79.0568 30.3041C79.0568 30.4836 78.8147 30.6295 78.4625 30.6407C78.1104 30.6407 77.8243 30.5172 77.8022 30.3377C77.8022 30.1582 78.0444 30.0123 78.3965 30.0011Z" fill="#FFFFAB"/>
<path style="mix-blend-mode:screen" d="M46.5708 47.3705C47.4952 47.3369 48.3095 47.7071 48.3536 48.1784C48.4196 48.6497 47.6933 49.0648 46.7689 49.0985C45.8445 49.1322 45.0301 48.7619 44.9861 48.2906C44.9201 47.8194 45.6464 47.4042 46.5708 47.3818V47.3705Z" fill="url(#paint12_radial_74_1557)"/>
<path d="M46.7688 47.9877C47.0329 47.9877 47.253 48.0774 47.275 48.2121C47.275 48.3467 47.099 48.4589 46.8348 48.4702C46.5707 48.4702 46.3506 48.3804 46.3286 48.2457C46.3286 48.1111 46.5047 47.9989 46.7688 47.9877Z" fill="#FFFFAB"/>
<path style="mix-blend-mode:screen" d="M72.9161 46.6637C74.8749 46.6076 76.5476 47.3706 76.6797 48.3692C76.7897 49.3678 75.2931 50.2206 73.3562 50.2879C71.4194 50.3552 69.7247 49.581 69.5926 48.5936C69.4826 47.595 70.9792 46.7422 72.9381 46.6749L72.9161 46.6637Z" fill="url(#paint13_radial_74_1557)"/>
<path d="M73.334 47.9652C73.8842 47.954 74.3464 48.156 74.3684 48.4365C74.3904 48.717 73.9942 48.9526 73.444 48.9639C72.8938 48.9751 72.4316 48.7731 72.4096 48.4926C72.3876 48.2121 72.7837 47.9764 73.334 47.9652Z" fill="#FFFFAB"/>
<path d="M16.1426 21.4682H13.4004L13.5762 19.5698C13.5762 19.0541 13.2598 18.7377 12.627 18.6205H10.6406C10.1836 18.6205 9.95508 18.9662 9.95508 19.6577L9.86719 37.3764C9.80859 37.9506 10.125 38.2377 10.8164 38.2377H12.5391C13.1719 38.3549 13.5469 38.0385 13.6641 37.2885V35.3198L16.1426 35.4077L16.0723 37.3764C16.0723 39.6147 14.9531 40.7338 12.7148 40.7338H10.5527C8.20898 40.6752 7.06641 39.4975 7.125 37.2006L7.37109 19.4819C7.37109 17.4194 8.49023 16.3295 10.7285 16.2123L12.7148 16.1245C14.8359 16.183 15.9551 17.3608 16.0723 19.6577L16.1426 21.4682ZM26.7598 37.3061C26.666 39.5912 25.5 40.7338 23.2617 40.7338H21.0996C18.7559 40.6752 17.6133 39.4975 17.6719 37.2006L17.918 19.4819C17.918 17.4194 19.0371 16.3295 21.2754 16.2123L23.2617 16.1245C25.3828 16.183 26.502 17.3608 26.6191 19.6577L26.7598 37.3061ZM24.123 19.5698C24.123 19.0541 23.8066 18.7377 23.1738 18.6205H21.1875C20.7305 18.6205 20.502 18.9662 20.502 19.6577L20.4141 37.3764C20.3555 37.9506 20.6719 38.2377 21.3633 38.2377H23.0859C23.7188 38.3549 24.0938 38.0385 24.2109 37.2885L24.123 19.5698ZM28.377 40.9975L28.4648 16.2123L31.4883 16.1245L34.582 32.6479L34.6699 16.2123L37.2363 16.1245L37.166 40.6459L33.9844 40.8217L31.0488 26.7944L30.9609 40.7338L28.377 40.9975ZM38.9238 16.2123L38.7656 40.7338L41.7715 40.8217L41.5078 29.642L45.7266 29.8881V27.1459L41.5078 26.7944L41.6836 18.7963L47.625 18.7084V16.0541L38.9238 16.2123ZM49.3828 16.0541L52.125 16.1245L52.2129 40.7338L49.4707 40.8217L49.3828 16.0541ZM56.7305 30.2573L56.8359 40.8217H54.0059L53.918 16.0541L55.6406 16.1596V16.1245L59.5078 16.0541C61.7461 15.9955 62.8652 17.1674 62.8652 19.5698L62.9355 26.7944C63.041 28.9272 62.1855 30.0287 60.3691 30.0991L63.3926 40.558L60.334 40.9096L57.5566 30.2045L56.7305 30.2573ZM56.6074 18.7787L56.6953 27.603L59.2441 27.4799C59.9355 27.4213 60.252 26.8764 60.1934 25.8452L60.0176 19.5698C59.959 18.937 59.5605 18.6498 58.8223 18.7084L56.6074 18.7787ZM64.5527 40.9096L64.7988 16.3002L67.9805 16.2123L70.8281 31.9623L73.4824 16.2123L76.8398 16.3002L77.0156 40.8217H74.1855L74.3438 28.517L72.0234 37.9037L69.5273 37.9741L67.3828 28.517L67.2949 40.4702L64.5527 40.9096ZM92.8359 16.0541L92.7832 16.3881L94.4707 29.642L96.1934 16.142L99.1113 16.0541L95.666 40.8217L93.1875 40.7514L91.3242 26.8823L89.3906 40.8217L86.9121 40.7514L83.6426 16.3178L86.4727 16.0541L88.1953 29.642L89.918 16.142L92.7129 16.0541H92.8359ZM100.711 16.0541L103.453 16.1245L103.541 40.7338L100.799 40.8217L100.711 16.0541ZM105.158 16.3002L114.439 15.9662L114.352 18.6205H110.924L111.17 40.8217L108.428 40.7338L108.34 18.5327L105.334 18.6205L105.158 16.3002ZM115.881 16.0541L116.127 40.7338L118.535 40.9096L118.447 29.8178H122.068L122.244 40.9975L124.811 40.9096L124.652 16.1245H121.893L122.068 26.9702L118.535 27.058L118.359 16.3881L115.881 16.0541ZM126.674 16.1245L126.252 40.6459L131.93 40.8217C134.051 40.8803 135.193 39.7319 135.357 37.3764L135.533 19.6577C135.533 17.4194 134.332 16.2416 131.93 16.1245H126.674ZM128.906 18.7084L131.754 18.7963C132.328 18.7963 132.645 19.1713 132.703 19.9213L132.527 36.8666C132.527 37.8979 132.041 38.3549 131.068 38.2377L128.906 38.062V18.7084ZM139.699 30.2573L139.805 40.8217H136.975L136.887 16.0541L138.609 16.1596V16.1245L142.477 16.0541C144.715 15.9955 145.834 17.1674 145.834 19.5698L145.904 26.7944C146.01 28.9272 145.154 30.0287 143.338 30.0991L146.361 40.558L143.303 40.9096L140.525 30.2045L139.699 30.2573ZM139.576 18.7787L139.664 27.603L142.213 27.4799C142.904 27.4213 143.221 26.8764 143.162 25.8452L142.986 19.5698C142.928 18.937 142.529 18.6498 141.791 18.7084L139.576 18.7787ZM147.346 40.8217L150.791 16.0541L153.27 16.1245L156.539 40.558L153.709 40.8217L153.27 36.5151L150.527 36.7787L150.264 40.7338L147.346 40.8217ZM152.936 33.9311L151.898 26.1967L150.791 34.1948L152.936 33.9311ZM163.816 16.0541L163.764 16.3881L165.451 29.642L167.174 16.142L170.092 16.0541L166.646 40.8217L164.168 40.7514L162.305 26.8823L160.371 40.8217L157.893 40.7514L154.623 16.3178L157.453 16.0541L159.176 29.642L160.898 16.142L163.693 16.0541H163.816ZM168.545 40.8217L171.99 16.0541L174.469 16.1245L177.738 40.558L174.908 40.8217L174.469 36.5151L171.727 36.7787L171.463 40.7338L168.545 40.8217ZM174.135 33.9311L173.098 26.1967L171.99 34.1948L174.135 33.9311ZM182.062 16.1245L182.238 38.1498L188.268 37.8862L188.355 40.9096H179.584L179.496 16.0541L182.062 16.1245Z" fill="#FF5200"/>
<path d="M183.47 49.9961C182.876 48.9638 188.224 44.2512 189.589 44.2736C190.953 44.2961 189.743 47.3705 188.907 48.0886C188.092 48.8068 183.756 50.5123 183.47 49.9961Z" fill="white"/>
<path style="mix-blend-mode:screen" d="M9.99076 9.34401C9.99076 9.34401 145.658 -6.0955 186.97 5.38315C186.97 5.38315 190.601 9.73673 192.252 16.5925C192.252 16.5925 179.2 24.3571 154.461 25.2099C133.178 25.9505 56.4309 12.1043 38.4931 10.3875C20.5553 8.67077 9.96875 9.33279 9.96875 9.33279L9.99076 9.34401Z" fill="url(#paint14_linear_74_1557)"/>
<path d="M9.99072 11.0046C9.99072 11.0046 13.1161 7.72823 20.3792 5.9666C27.6424 4.20497 38.8672 4.8782 40.0338 5.3158C41.2223 5.76463 38.1189 6.93157 32.3084 8.01996C26.4759 9.10836 12.962 11.835 9.99072 10.9934V11.0046Z" fill="white"/>
<path d="M10.3648 11.8799C8.86816 11.9921 5.12653 17.9053 5.36864 18.8815C5.58873 19.8577 10.0787 16.7833 10.783 15.1451C11.4873 13.5069 10.3648 11.8799 10.3648 11.8799Z" fill="white"/>
<defs>
<radialGradient id="paint0_radial_74_1557" cx="0" cy="0" r="1" gradientUnits="userSpaceOnUse" gradientTransform="translate(100.322 54.8322) scale(75.193 72.3278)">
<stop stop-color="#FFBD00"/>
<stop offset="1" stop-color="#FF772C"/>
</radialGradient>
<radialGradient id="paint1_radial_74_1557" cx="0" cy="0" r="1" gradientUnits="userSpaceOnUse" gradientTransform="translate(100.322 54.8322) scale(75.193 72.3278)">
<stop stop-color="#FFBD00"/>
<stop offset="1" stop-color="#FF772C"/>
</radialGradient>
<linearGradient id="paint2_linear_74_1557" x1="98.007" y1="55.8982" x2="98.007" y2="0.547088" gradientUnits="userSpaceOnUse">
<stop stop-color="#FFF300"/>
<stop offset="1" stop-color="#FF9700"/>
</linearGradient>
<linearGradient id="paint3_linear_74_1557" x1="98.0069" y1="54.8547" x2="98.0069" y2="1.14178" gradientUnits="userSpaceOnUse">
<stop stop-color="#FFCC00"/>
<stop offset="1" stop-color="#FF9700"/>
</linearGradient>
<linearGradient id="paint4_linear_74_1557" x1="186.595" y1="48.2121" x2="10.2109" y2="48.2121" gradientUnits="userSpaceOnUse">
<stop stop-color="#FF6140"/>
<stop offset="0.1" stop-color="#EE5A3B"/>
<stop offset="0.29" stop-color="#C44A31"/>
<stop offset="0.55" stop-color="#803020"/>
<stop offset="0.88" stop-color="#240D09"/>
<stop offset="1"/>
</linearGradient>
<radialGradient id="paint5_radial_74_1557" cx="0" cy="0" r="1" gradientUnits="userSpaceOnUse" gradientTransform="translate(41.7164 18.8969) rotate(-96.6859) scale(1.74798 3.39432)">
<stop stop-color="#00B359"/>
<stop offset="0.13" stop-color="#009148"/>
<stop offset="0.34" stop-color="#005D2E"/>
<stop offset="0.54" stop-color="#00351A"/>
<stop offset="0.73" stop-color="#00170B"/>
<stop offset="0.89" stop-color="#000603"/>
<stop offset="1"/>
</radialGradient>
<radialGradient id="paint6_radial_74_1557" cx="0" cy="0" r="1" gradientUnits="userSpaceOnUse" gradientTransform="translate(46.3556 11.4492) rotate(-96.6859) scale(1.74798 3.39432)">
<stop stop-color="#00B359"/>
<stop offset="0.13" stop-color="#009148"/>
<stop offset="0.34" stop-color="#005D2E"/>
<stop offset="0.54" stop-color="#00351A"/>
<stop offset="0.73" stop-color="#00170B"/>
<stop offset="0.89" stop-color="#000603"/>
<stop offset="1"/>
</radialGradient>
<radialGradient id="paint7_radial_74_1557" cx="0" cy="0" r="1" gradientUnits="userSpaceOnUse" gradientTransform="translate(43.6136 32.8224) rotate(-96.6859) scale(1.74798 3.39432)">
<stop stop-color="#00B359"/>
<stop offset="0.13" stop-color="#009148"/>
<stop offset="0.34" stop-color="#005D2E"/>
<stop offset="0.54" stop-color="#00351A"/>
<stop offset="0.73" stop-color="#00170B"/>
<stop offset="0.89" stop-color="#000603"/>
<stop offset="1"/>
</radialGradient>
<radialGradient id="paint8_radial_74_1557" cx="0" cy="0" r="1" gradientUnits="userSpaceOnUse" gradientTransform="translate(27.9732 10.7503) rotate(-96.6859) scale(4.88306 9.48221)">
<stop stop-color="#00B359"/>
<stop offset="0.13" stop-color="#009148"/>
<stop offset="0.34" stop-color="#005D2E"/>
<stop offset="0.54" stop-color="#00351A"/>
<stop offset="0.73" stop-color="#00170B"/>
<stop offset="0.89" stop-color="#000603"/>
<stop offset="1"/>
</radialGradient>
<radialGradient id="paint9_radial_74_1557" cx="0" cy="0" r="1" gradientUnits="userSpaceOnUse" gradientTransform="translate(54.842 45.2834) rotate(-96.6859) scale(2.3344 4.53306)">
<stop stop-color="#00B359"/>
<stop offset="0.13" stop-color="#009148"/>
<stop offset="0.34" stop-color="#005D2E"/>
<stop offset="0.54" stop-color="#00351A"/>
<stop offset="0.73" stop-color="#00170B"/>
<stop offset="0.89" stop-color="#000603"/>
<stop offset="1"/>
</radialGradient>
<radialGradient id="paint10_radial_74_1557" cx="0" cy="0" r="1" gradientUnits="userSpaceOnUse" gradientTransform="translate(14.3248 50.2496) rotate(-96.6859) scale(1.16156 2.25558)">
<stop stop-color="#00B359"/>
<stop offset="0.13" stop-color="#009148"/>
<stop offset="0.34" stop-color="#005D2E"/>
<stop offset="0.54" stop-color="#00351A"/>
<stop offset="0.73" stop-color="#00170B"/>
<stop offset="0.89" stop-color="#000603"/>
<stop offset="1"/>
</radialGradient>
<radialGradient id="paint11_radial_74_1557" cx="0" cy="0" r="1" gradientUnits="userSpaceOnUse" gradientTransform="translate(78.2272 30.3516) rotate(-96.6859) scale(1.16156 2.25559)">
<stop stop-color="#00B359"/>
<stop offset="0.13" stop-color="#009148"/>
<stop offset="0.34" stop-color="#005D2E"/>
<stop offset="0.54" stop-color="#00351A"/>
<stop offset="0.73" stop-color="#00170B"/>
<stop offset="0.89" stop-color="#000603"/>
<stop offset="1"/>
</radialGradient>
<radialGradient id="paint12_radial_74_1557" cx="0" cy="0" r="1" gradientUnits="userSpaceOnUse" gradientTransform="translate(46.6353 48.2536) rotate(-96.6859) scale(0.86835 1.68621)">
<stop stop-color="#00B359"/>
<stop offset="0.13" stop-color="#009148"/>
<stop offset="0.34" stop-color="#005D2E"/>
<stop offset="0.54" stop-color="#00351A"/>
<stop offset="0.73" stop-color="#00170B"/>
<stop offset="0.89" stop-color="#000603"/>
<stop offset="1"/>
</radialGradient>
<radialGradient id="paint13_radial_74_1557" cx="0" cy="0" r="1" gradientUnits="userSpaceOnUse" gradientTransform="translate(73.0983 48.4815) rotate(-96.6859) scale(1.81564 3.52572)">
<stop stop-color="#00B359"/>
<stop offset="0.13" stop-color="#009148"/>
<stop offset="0.34" stop-color="#005D2E"/>
<stop offset="0.54" stop-color="#00351A"/>
<stop offset="0.73" stop-color="#00170B"/>
<stop offset="0.89" stop-color="#000603"/>
<stop offset="1"/>
</radialGradient>
<linearGradient id="paint14_linear_74_1557" x1="9.99076" y1="13.1927" x2="192.274" y2="13.1927" gradientUnits="userSpaceOnUse">
<stop stop-color="#FF9840"/>
<stop offset="0.1" stop-color="#EE8E3B"/>
<stop offset="0.29" stop-color="#C47531"/>
<stop offset="0.55" stop-color="#804C20"/>
<stop offset="0.88" stop-color="#241509"/>
<stop offset="1"/>
</linearGradient>
</defs>
</svg>
