<svg width="71" height="66" viewBox="0 0 71 66" fill="none" xmlns="http://www.w3.org/2000/svg">
<path opacity="0.1" d="M64.7882 57.7452C64.6652 57.8777 64.5217 58.0103 64.3577 58.1326C52.2238 67.9924 18.794 67.6457 4.14919 58.7852C3.38057 58.3264 2.86816 57.8369 2.6222 57.3271C-2.57367 46.5701 0.244602 14.1972 8.49446 7.19238C17.349 -0.312025 51.3937 -3.70736 62.3286 5.83629C70.353 12.8309 74.1756 47.9364 64.7882 57.7452Z" fill="#3C3E48"/>
<path d="M62.8021 56.5434C62.6866 56.6686 62.5517 56.7938 62.3977 56.9093C50.9966 66.2209 19.5857 65.8935 5.82536 57.5256C5.10316 57.0923 4.6217 56.6301 4.39059 56.1486C-0.491479 45.9897 2.15659 15.4166 9.9082 8.80121C18.2279 1.71402 50.2166 -1.49255 60.4911 7.52051C68.0308 14.1262 71.6226 47.28 62.8021 56.5434Z" fill="url(#paint0_linear_387_2585)"/>
<path d="M4.46383 54.1392C9.17258 63.9418 53.1786 64.7218 62.8754 54.534C71.6958 45.2705 68.1041 12.1168 60.5643 5.51103C50.2898 -3.50202 18.3012 -0.295457 9.98144 6.80136C2.22983 13.4071 -0.418237 43.9802 4.46383 54.1392Z" fill="url(#paint1_radial_387_2585)"/>
<path style="mix-blend-mode:screen" d="M9.5 8.50001C9.5 8.50001 22.5 -4 57 4C57 4 68 14 65.0251 20.7287C65.0251 20.7287 66 23 62 25C60.993 17.767 48 9.70387 39 7.70346C30.5 7.70346 8 10.5 8 10.5L9.5 8.50001Z" fill="url(#paint2_linear_387_2585)"/>
<g style="mix-blend-mode:multiply" filter="url(#filter0_f_387_2585)">
<path d="M13 40.1162C13 39.6539 13.3731 39.279 13.8333 39.279H18C18.4602 39.279 18.8333 39.6539 18.8333 40.1162V45.1395C18.8333 45.6019 19.2064 45.9767 19.6667 45.9767H46.3333C46.7936 45.9767 47.1667 45.6019 47.1667 45.1395V40.1162C47.1667 39.6539 47.5398 39.279 48 39.279H52.1667C52.6269 39.279 53 39.6539 53 40.1162V50.1628C53 50.6251 52.6269 51 52.1667 51H13.8333C13.3731 51 13 50.6251 13 50.1628V40.1162Z" fill="#CED6FF"/>
<path d="M33.7862 15.2358C33.8964 15.2911 33.993 15.3702 34.0691 15.4675L42.0606 25.686C42.4902 26.2353 42.1007 27.0404 41.4054 27.0404H38.9532C38.493 27.0404 38.1199 27.4153 38.1199 27.8776V39.599C38.1199 40.0614 37.7468 40.4363 37.2866 40.4363H28.9532C28.493 40.4363 28.1199 40.0614 28.1199 39.599L28.1199 27.8776C28.1199 27.4153 27.7468 27.0404 27.2866 27.0404H24.8344C24.1391 27.0404 23.7495 26.2353 24.1792 25.686L32.1706 15.4675C32.2467 15.3702 32.3433 15.2911 32.4535 15.2358L32.7475 15.0882C32.9819 14.9706 33.2578 14.9706 33.4923 15.0882L33.7862 15.2358Z" fill="#CED6FF"/>
</g>
<path d="M15 38.1162C15 37.6539 15.3731 37.279 15.8333 37.279H20C20.4602 37.279 20.8333 37.6539 20.8333 38.1162V43.1395C20.8333 43.6019 21.2064 43.9767 21.6667 43.9767H48.3333C48.7936 43.9767 49.1667 43.6019 49.1667 43.1395V38.1162C49.1667 37.6539 49.5398 37.279 50 37.279H54.1667C54.6269 37.279 55 37.6539 55 38.1162V48.1628C55 48.6251 54.6269 49 54.1667 49H15.8333C15.3731 49 15 48.6251 15 48.1628V38.1162Z" fill="#FF0000"/>
<path d="M35.7862 13.2358C35.8964 13.2911 35.993 13.3702 36.0691 13.4675L44.0606 23.686C44.4902 24.2353 44.1007 25.0404 43.4054 25.0404H40.9532C40.493 25.0404 40.1199 25.4153 40.1199 25.8776V37.599C40.1199 38.0614 39.7468 38.4363 39.2866 38.4363H30.9532C30.493 38.4363 30.1199 38.0614 30.1199 37.599L30.1199 25.8776C30.1199 25.4153 29.7468 25.0404 29.2866 25.0404H26.8344C26.1391 25.0404 25.7495 24.2353 26.1792 23.686L34.1706 13.4675C34.2467 13.3702 34.3433 13.2911 34.4535 13.2358L34.7475 13.0882C34.9819 12.9706 35.2578 12.9706 35.4923 13.0882L35.7862 13.2358Z" fill="#FF0000"/>
<path d="M7 11.5377C7 11.5377 8.47329 8.51406 11.8821 6.89633C15.3005 5.27861 25.0165 3.65125 25.575 4.06531C26.1239 4.47937 20.8373 6.38598 18.1026 7.39706C15.3679 8.40814 8.39625 12.3176 7 11.5473V11.5377Z" fill="white"/>
<path style="mix-blend-mode:screen" d="M62.311 54.1143C62.311 54.1143 58.4997 58.1686 50.9997 59.5C47.276 60.161 42.9295 61.0465 42.4997 60.5C42.0791 59.9561 47.6056 55.4426 50.51 55.1869C53.4144 54.9312 61.1692 52.9944 62.3135 54.1051L62.311 54.1143Z" fill="url(#paint3_linear_387_2585)"/>
<path d="M7.35415 13.0096C6.65121 13.1156 4.89867 18.5658 5.0046 19.4613C5.11052 20.3568 7.21934 17.5258 7.54674 16.014C7.87414 14.5118 7.35415 13 7.35415 13V13.0096Z" fill="white"/>
<path style="mix-blend-mode:screen" d="M63.4504 52.0183C64.1597 51.9703 66.3521 46.6817 66.3198 45.7805C66.2875 44.8793 63.9542 47.5283 63.5042 49.0083C63.055 50.4787 63.4496 52.0279 63.4496 52.0279L63.4504 52.0183Z" fill="url(#paint4_linear_387_2585)"/>
<path d="M60.0316 54.7213C59.6223 53.6892 63.3061 48.9776 64.246 49.0001C65.1859 49.0225 64.3521 52.0963 63.776 52.8142C63.2151 53.5322 60.2287 55.2373 60.0316 54.7213Z" fill="white"/>
<defs>
<filter id="filter0_f_387_2585" x="12" y="14" width="42" height="38" filterUnits="userSpaceOnUse" color-interpolation-filters="sRGB">
<feFlood flood-opacity="0" result="BackgroundImageFix"/>
<feBlend mode="normal" in="SourceGraphic" in2="BackgroundImageFix" result="shape"/>
<feGaussianBlur stdDeviation="0.5" result="effect1_foregroundBlur_387_2585"/>
</filter>
<linearGradient id="paint0_linear_387_2585" x1="38.1862" y1="63.847" x2="38.1862" y2="2.00908" gradientUnits="userSpaceOnUse">
<stop stop-color="#C26900"/>
<stop offset="1" stop-color="#923D00"/>
</linearGradient>
<radialGradient id="paint1_radial_387_2585" cx="0" cy="0" r="1" gradientUnits="userSpaceOnUse" gradientTransform="translate(35.8068 57.4711) scale(25.3388 75.8087)">
<stop stop-color="#FFBD00"/>
<stop offset="1" stop-color="#FF772C"/>
</radialGradient>
<linearGradient id="paint2_linear_387_2585" x1="11.6763" y1="13.8808" x2="57.9957" y2="13.8808" gradientUnits="userSpaceOnUse">
<stop stop-color="#7ED140"/>
<stop offset="0.11" stop-color="#74C03B"/>
<stop offset="0.34" stop-color="#5A962E"/>
<stop offset="0.65" stop-color="#315219"/>
<stop offset="1"/>
</linearGradient>
<linearGradient id="paint3_linear_387_2585" x1="59.6271" y1="56.9107" x2="45.5873" y2="53.0805" gradientUnits="userSpaceOnUse">
<stop stop-color="#7ED140"/>
<stop offset="0.11" stop-color="#74C03B"/>
<stop offset="0.34" stop-color="#5A962E"/>
<stop offset="0.65" stop-color="#315219"/>
<stop offset="1"/>
</linearGradient>
<linearGradient id="paint4_linear_387_2585" x1="65.8257" y1="48.6256" x2="63.757" y2="48.4559" gradientUnits="userSpaceOnUse">
<stop stop-color="#7ED140"/>
<stop offset="0.11" stop-color="#74C03B"/>
<stop offset="0.34" stop-color="#5A962E"/>
<stop offset="0.65" stop-color="#315219"/>
<stop offset="1"/>
</linearGradient>
</defs>
</svg>
