<svg width="80" height="69" viewBox="0 0 80 69" fill="none" xmlns="http://www.w3.org/2000/svg">
<path d="M1.32168 55.3638C4.03972 65.9813 71.9369 73.9713 77.5614 62.9516C82.6745 52.9239 78.8262 11.9822 74.4396 4.82339C68.4923 -4.93614 9.74492 1.9009 4.9278 9.59591C0.433612 16.7547 -1.504 44.3709 1.32168 55.3638Z" fill="url(#paint0_radial_220_1790)"/>
<path d="M1.53654 53.4871C4.25458 63.7292 71.7481 69.467 77.3456 58.8227C82.4319 49.1436 78.6643 12.1432 74.3046 5.2257C68.3842 -4.15846 9.85213 2.43726 5.06192 9.83734C0.567737 16.7548 -1.26223 42.8696 1.53654 53.4871Z" fill="url(#paint1_linear_220_1790)"/>
<path d="M2.37205 52.6023C5.03626 62.5495 71.1035 68.2604 76.5934 57.9379C81.5719 48.5537 77.8313 12.4917 73.5793 5.78873C67.7665 -3.35412 10.4993 3.05392 5.78978 10.2395C1.40324 16.9425 -0.399816 42.2797 2.37205 52.6023Z" fill="url(#paint2_linear_220_1790)"/>
<path d="M56.781 31.2442C58.1708 32.0022 58.1708 33.9978 56.781 34.7558L29.9577 49.3867C28.625 50.1137 27 49.149 27 47.6309L27 18.3691C27 16.851 28.625 15.8863 29.9577 16.6133L56.781 31.2442Z" fill="#0029FE"/>
<path style="mix-blend-mode:screen" d="M75.2731 58.0987C75.2731 58.0987 43.5178 62.9517 5.73438 54.2378C5.73438 54.2378 30.2775 58.206 41.1765 54.2378C59.7184 47.4812 70.4022 50.5109 75.2731 58.0987Z" fill="url(#paint3_linear_220_1790)"/>
<path style="mix-blend-mode:screen" d="M23.3876 18.8729C24.4372 18.8193 25.3522 19.6236 25.406 20.6693C25.4598 21.715 24.6525 22.6266 23.6029 22.6802C22.5534 22.7338 21.6384 21.9294 21.5846 20.8838C21.5308 19.8381 22.3381 18.9265 23.3876 18.8729Z" fill="url(#paint4_radial_220_1790)"/>
<path d="M23.6289 20.2403C23.925 20.2403 24.1672 20.4548 24.1941 20.7497C24.221 21.0447 23.9788 21.286 23.7097 21.3128C23.4406 21.3396 23.1714 21.0983 23.1445 20.8033C23.1445 20.5084 23.3598 20.2671 23.6558 20.2403H23.6289Z" fill="#FFFFAB"/>
<path style="mix-blend-mode:screen" d="M25.999 10.6685C27.0485 10.6149 27.9635 11.4192 28.0173 12.4649C28.0711 13.5105 27.2638 14.4222 26.2142 14.4758C25.1647 14.5294 24.2497 13.725 24.1959 12.6794C24.1421 11.6337 24.9494 10.7221 25.999 10.6685Z" fill="url(#paint5_radial_220_1790)"/>
<path d="M26.2149 12.0359C26.5109 12.0359 26.7531 12.2504 26.78 12.5185C26.78 12.8134 26.5647 13.0547 26.2956 13.0816C26.0265 13.1084 25.7574 12.8671 25.7305 12.5989C25.7305 12.304 25.9458 12.0627 26.2418 12.0359H26.2149Z" fill="#FFFFAB"/>
<path style="mix-blend-mode:screen" d="M24.4658 34.1825C25.5153 34.1289 26.4303 34.9333 26.4841 35.9789C26.5379 37.0246 25.7306 37.9362 24.681 37.9898C23.6315 38.0434 22.7165 37.2391 22.6627 36.1934C22.6089 35.1478 23.4162 34.2361 24.4658 34.1825Z" fill="url(#paint6_radial_220_1790)"/>
<path d="M24.6812 35.5499C24.9773 35.5499 25.2195 35.7644 25.2464 36.0594C25.2733 36.3543 25.0311 36.5956 24.7351 36.6224C24.439 36.6224 24.1968 36.4079 24.1699 36.113C24.1699 35.818 24.3852 35.5767 24.6543 35.5499H24.6812Z" fill="#FFFFAB"/>
<path style="mix-blend-mode:screen" d="M15.4496 6.48584C18.4099 6.29816 20.9395 8.55036 21.1279 11.4997C21.3163 14.449 19.0557 16.9693 16.0955 17.157C13.1353 17.3447 10.6056 15.0925 10.4172 12.1432C10.2288 9.19384 12.4894 6.67353 15.4496 6.48584Z" fill="url(#paint7_radial_220_1790)"/>
<path d="M16.096 10.3199C16.9033 10.2663 17.6299 10.8829 17.6569 11.7141C17.7107 12.5185 17.0917 13.2424 16.2575 13.2692C15.4501 13.3228 14.7235 12.7062 14.6966 11.875C14.6428 11.0706 15.2618 10.3467 16.096 10.3199Z" fill="#FFFFAB"/>
<path style="mix-blend-mode:screen" d="M30.7353 47.2667C32.1347 47.1863 33.3726 48.2587 33.4533 49.653C33.5341 51.0472 32.4576 52.2805 31.0582 52.361C29.6589 52.4414 28.4209 51.3689 28.3402 49.9747C28.2595 48.5805 29.3359 47.3471 30.7353 47.2667Z" fill="url(#paint8_radial_220_1790)"/>
<path d="M31.0575 49.0899C31.4612 49.0899 31.7842 49.358 31.8111 49.7602C31.838 50.1624 31.542 50.4841 31.1383 50.5109C30.7346 50.5109 30.4117 50.2428 30.3848 49.8406C30.3848 49.4385 30.6539 49.1167 31.0575 49.0899Z" fill="#FFFFAB"/>
<path style="mix-blend-mode:screen" d="M7.99523 53.9965C8.69492 53.9429 9.31388 54.4791 9.34079 55.203C9.3677 55.927 8.85639 56.5168 8.12978 56.5436C7.40318 56.5704 6.81113 56.061 6.78422 55.3371C6.75731 54.6132 7.26862 54.0233 7.99523 53.9965Z" fill="url(#paint9_radial_220_1790)"/>
<path d="M8.15692 54.9081C8.3453 54.9081 8.50677 55.0421 8.53368 55.2298C8.53368 55.4175 8.39912 55.6052 8.21074 55.6052C8.02236 55.6052 7.83398 55.4711 7.83398 55.2835C7.83398 55.0958 7.96854 54.9081 8.15692 54.9081Z" fill="#FFFFAB"/>
<path style="mix-blend-mode:screen" d="M43.9764 32.0912C44.6761 32.0376 45.2951 32.5738 45.322 33.2978C45.3758 33.9949 44.8376 34.6115 44.111 34.6383C43.3844 34.6652 42.7923 34.1557 42.7654 33.4318C42.7116 32.7347 43.2498 32.118 43.9764 32.0912Z" fill="url(#paint10_radial_220_1790)"/>
<path d="M44.1374 33.0028C44.3258 33.0028 44.4872 33.1369 44.5141 33.3246C44.5141 33.5122 44.3796 33.6731 44.1912 33.6999C44.0028 33.6999 43.8414 33.5659 43.8145 33.3782C43.8145 33.1905 43.949 33.0028 44.1374 33.0028Z" fill="#FFFFAB"/>
<path style="mix-blend-mode:screen" d="M26.2149 52.1197C26.7531 52.0929 27.1837 52.495 27.2375 53.0045C27.2644 53.5407 26.8608 53.9697 26.3495 54.0233C25.8112 54.0501 25.3806 53.648 25.3268 53.1385C25.273 52.6291 25.7036 52.1733 26.2149 52.1197Z" fill="url(#paint11_radial_220_1790)"/>
<path d="M26.3223 52.79C26.4568 52.79 26.5914 52.8972 26.5914 53.0313C26.5914 53.1653 26.4837 53.2994 26.3492 53.2994C26.2146 53.2994 26.0801 53.1922 26.0801 53.0581C26.0801 52.924 26.1877 52.79 26.3223 52.79Z" fill="#FFFFAB"/>
<path style="mix-blend-mode:screen" d="M41.0425 51.3421C42.1459 51.2885 43.0878 52.1197 43.1685 53.2189C43.2223 54.3182 42.3881 55.2567 41.2847 55.3371C40.1813 55.4175 39.2394 54.5595 39.1587 53.4603C39.1049 52.361 39.9391 51.4226 41.0425 51.3421Z" fill="url(#paint12_radial_220_1790)"/>
<path d="M41.2848 52.7632C41.5808 52.7632 41.8499 52.9777 41.8768 53.2726C41.8768 53.5675 41.6615 53.8357 41.3655 53.8625C41.0695 53.8625 40.8003 53.648 40.7734 53.353C40.7734 53.0581 40.9887 52.79 41.2848 52.7632Z" fill="#FFFFAB"/>
<path d="M73.524 60.0292C73.1742 58.9031 76.2151 53.7016 76.9686 53.7284C77.7222 53.7284 77.0494 57.1335 76.5919 57.9378C76.1344 58.7422 73.6855 60.5922 73.524 60.0292Z" fill="white"/>
<path style="mix-blend-mode:screen" d="M6.73047 10.0518C6.73047 10.0518 50.4613 -6.70561 73.7127 5.92279C73.7127 5.92279 75.7579 10.7221 76.6998 18.2563C76.6998 18.2563 69.353 26.7824 55.4399 27.7477C43.4644 28.552 31.8118 13.3229 21.6931 11.446C11.6014 9.56921 6.73047 10.0518 6.73047 10.0518Z" fill="url(#paint13_linear_220_1790)"/>
<path d="M5.84335 13.0815C5.0091 13.2156 2.91002 19.7041 3.01766 20.7766C3.15222 21.849 5.68188 18.4707 6.05864 16.6743C6.4354 14.8779 5.81644 13.0815 5.81644 13.0815H5.84335Z" fill="white"/>
<path d="M6.19169 12.0359C5.16906 11.6337 6.97212 8.87207 8.53298 8.17496C10.0938 7.47785 13.9152 6.70031 14.3458 7.39742C14.7764 8.12134 7.34888 12.4649 6.19169 12.0359Z" fill="white"/>
<defs>
<radialGradient id="paint0_radial_220_1790" cx="0" cy="0" r="1" gradientUnits="userSpaceOnUse" gradientTransform="translate(40.5112 80.7724) scale(38.6955 48.7362)">
<stop stop-color="#008CCA"/>
<stop offset="1" stop-color="#003BF1"/>
</radialGradient>
<linearGradient id="paint1_linear_220_1790" x1="40.0197" y1="64.5336" x2="40.0197" y2="0.58724" gradientUnits="userSpaceOnUse">
<stop stop-color="#92FFF1"/>
<stop offset="1" stop-color="#0098FF"/>
</linearGradient>
<linearGradient id="paint2_linear_220_1790" x1="40.0209" y1="63.4075" x2="40.0209" y2="1.25752" gradientUnits="userSpaceOnUse">
<stop stop-color="#00EFF1"/>
<stop offset="1" stop-color="#0098FF"/>
</linearGradient>
<linearGradient id="paint3_linear_220_1790" x1="75.2731" y1="54.9885" x2="5.73438" y2="54.9885" gradientUnits="userSpaceOnUse">
<stop stop-color="#40FF79"/>
<stop offset="0.1" stop-color="#3BEE71"/>
<stop offset="0.29" stop-color="#31C45D"/>
<stop offset="0.56" stop-color="#20803D"/>
<stop offset="0.88" stop-color="#092411"/>
<stop offset="1"/>
</linearGradient>
<radialGradient id="paint4_radial_220_1790" cx="0" cy="0" r="1" gradientUnits="userSpaceOnUse" gradientTransform="translate(23.4651 20.7514) rotate(-93.4326) scale(1.90367 1.91067)">
<stop stop-color="#00B359"/>
<stop offset="0.13" stop-color="#009148"/>
<stop offset="0.34" stop-color="#005D2E"/>
<stop offset="0.54" stop-color="#00351A"/>
<stop offset="0.73" stop-color="#00170B"/>
<stop offset="0.89" stop-color="#000603"/>
<stop offset="1"/>
</radialGradient>
<radialGradient id="paint5_radial_220_1790" cx="0" cy="0" r="1" gradientUnits="userSpaceOnUse" gradientTransform="translate(26.0753 12.565) rotate(-93.4326) scale(1.90367 1.91068)">
<stop stop-color="#00B359"/>
<stop offset="0.13" stop-color="#009148"/>
<stop offset="0.34" stop-color="#005D2E"/>
<stop offset="0.54" stop-color="#00351A"/>
<stop offset="0.73" stop-color="#00170B"/>
<stop offset="0.89" stop-color="#000603"/>
<stop offset="1"/>
</radialGradient>
<radialGradient id="paint6_radial_220_1790" cx="0" cy="0" r="1" gradientUnits="userSpaceOnUse" gradientTransform="translate(24.5209 36.0793) rotate(-93.4326) scale(1.90367 1.91068)">
<stop stop-color="#00B359"/>
<stop offset="0.13" stop-color="#009148"/>
<stop offset="0.34" stop-color="#005D2E"/>
<stop offset="0.54" stop-color="#00351A"/>
<stop offset="0.73" stop-color="#00170B"/>
<stop offset="0.89" stop-color="#000603"/>
<stop offset="1"/>
</radialGradient>
<radialGradient id="paint7_radial_220_1790" cx="0" cy="0" r="1" gradientUnits="userSpaceOnUse" gradientTransform="translate(15.703 11.7858) rotate(-93.4326) scale(5.33564 5.35527)">
<stop stop-color="#00B359"/>
<stop offset="0.13" stop-color="#009148"/>
<stop offset="0.34" stop-color="#005D2E"/>
<stop offset="0.54" stop-color="#00351A"/>
<stop offset="0.73" stop-color="#00170B"/>
<stop offset="0.89" stop-color="#000603"/>
<stop offset="1"/>
</radialGradient>
<radialGradient id="paint8_radial_220_1790" cx="0" cy="0" r="1" gradientUnits="userSpaceOnUse" gradientTransform="translate(30.8415 49.7773) rotate(-93.4326) scale(2.54717 2.55654)">
<stop stop-color="#00B359"/>
<stop offset="0.13" stop-color="#009148"/>
<stop offset="0.34" stop-color="#005D2E"/>
<stop offset="0.54" stop-color="#00351A"/>
<stop offset="0.73" stop-color="#00170B"/>
<stop offset="0.89" stop-color="#000603"/>
<stop offset="1"/>
</radialGradient>
<radialGradient id="paint9_radial_220_1790" cx="0" cy="0" r="1" gradientUnits="userSpaceOnUse" gradientTransform="translate(8.03833 55.2446) rotate(-93.4326) scale(1.28699 1.29172)">
<stop stop-color="#00B359"/>
<stop offset="0.13" stop-color="#009148"/>
<stop offset="0.34" stop-color="#005D2E"/>
<stop offset="0.54" stop-color="#00351A"/>
<stop offset="0.73" stop-color="#00170B"/>
<stop offset="0.89" stop-color="#000603"/>
<stop offset="1"/>
</radialGradient>
<radialGradient id="paint10_radial_220_1790" cx="0" cy="0" r="1" gradientUnits="userSpaceOnUse" gradientTransform="translate(44.0112 33.3609) rotate(-93.4326) scale(1.28699 1.29172)">
<stop stop-color="#00B359"/>
<stop offset="0.13" stop-color="#009148"/>
<stop offset="0.34" stop-color="#005D2E"/>
<stop offset="0.54" stop-color="#00351A"/>
<stop offset="0.73" stop-color="#00170B"/>
<stop offset="0.89" stop-color="#000603"/>
<stop offset="1"/>
</radialGradient>
<radialGradient id="paint11_radial_220_1790" cx="0" cy="0" r="1" gradientUnits="userSpaceOnUse" gradientTransform="translate(26.2403 53.0597) rotate(-93.4327) scale(0.938427 0.941883)">
<stop stop-color="#00B359"/>
<stop offset="0.13" stop-color="#009148"/>
<stop offset="0.34" stop-color="#005D2E"/>
<stop offset="0.54" stop-color="#00351A"/>
<stop offset="0.73" stop-color="#00170B"/>
<stop offset="0.89" stop-color="#000603"/>
<stop offset="1"/>
</radialGradient>
<radialGradient id="paint12_radial_220_1790" cx="0" cy="0" r="1" gradientUnits="userSpaceOnUse" gradientTransform="translate(41.1358 53.3008) rotate(-93.4327) scale(1.98411 1.99141)">
<stop stop-color="#00B359"/>
<stop offset="0.13" stop-color="#009148"/>
<stop offset="0.34" stop-color="#005D2E"/>
<stop offset="0.54" stop-color="#00351A"/>
<stop offset="0.73" stop-color="#00170B"/>
<stop offset="0.89" stop-color="#000603"/>
<stop offset="1"/>
</radialGradient>
<linearGradient id="paint13_linear_220_1790" x1="6.73047" y1="14.5026" x2="76.6998" y2="14.5026" gradientUnits="userSpaceOnUse">
<stop stop-color="#7ED140"/>
<stop offset="0.11" stop-color="#74C03B"/>
<stop offset="0.34" stop-color="#5A962E"/>
<stop offset="0.65" stop-color="#315219"/>
<stop offset="1"/>
</linearGradient>
</defs>
</svg>
